<svg width="535" height="236" viewBox="0 0 535 236" fill="none" xmlns="http://www.w3.org/2000/svg">
<g clip-path="url(#clip0_27839_93571)">

<g clip-path="url(#clip1_27839_93571)">
<g clip-path="url(#clip2_27839_93571)">
<path d="M295.164 196.833C286.31 188.025 286.243 173.684 295.013 164.801C303.783 155.919 318.069 155.858 326.923 164.665C335.776 173.473 335.844 187.814 327.074 196.696C318.304 205.579 304.017 205.64 295.164 196.833Z" fill="#38237C"/>
<path d="M331.835 189.577C330.843 188.489 328.794 186.464 325.289 184.451C321.047 182.01 309.169 178.579 303.871 175.145C296.411 170.323 295.88 165.923 296.155 163.712C298.363 161.772 300.899 160.305 303.615 159.365C303.94 161.702 305.3 169.028 317.898 175.049C324.396 178.151 331.032 177.238 333.276 176.933C334 181.101 333.561 185.491 331.835 189.577Z" fill="#422B8D"/>
<path d="M321.387 200.893C314.774 204.309 306.621 204.363 299.709 200.333C297.285 198.918 295.223 197.121 293.555 195.064C294.486 194.649 296.356 194.077 297.753 193.889C303.937 193.055 310.277 196.654 312.565 198.282C316.214 200.882 319.576 201.042 321.387 200.893Z" fill="#422B8D"/>
<path d="M330.15 192.817C330.042 192.995 329.934 193.166 329.819 193.337C329.718 193.494 329.61 193.645 329.503 193.802C329.259 194.15 329.015 194.485 328.751 194.812C328.515 195.105 328.28 195.398 328.031 195.677C327.938 195.786 327.846 195.881 327.753 195.99C327.646 196.105 327.54 196.221 327.433 196.336C327.326 196.452 327.213 196.567 327.106 196.676C326.978 196.805 326.844 196.941 326.709 197.069C326.574 197.198 326.439 197.327 326.305 197.449C326.185 197.557 326.071 197.665 325.951 197.767C325.689 197.996 325.427 198.219 325.152 198.435L325.145 198.435C323.705 198.719 321.851 198.332 319.225 196.96C315.319 194.923 311.324 190.597 303.746 186.919C296.585 183.446 290.249 184.276 288.758 184.343L288.751 184.343C288.029 179.855 288.642 175.128 290.755 170.794C292.193 170.893 296.743 172.041 305.719 181.233C309.132 184.724 312.194 187.261 314.913 189.08C322.853 194.394 327.852 193.594 329.991 192.785L329.998 192.785C330.053 192.8 330.102 192.809 330.15 192.817Z" fill="#422B8D"/>
<path d="M310.292 167.636C309.786 168.507 308.357 168.617 307.1 167.877C305.837 167.143 305.224 165.842 305.73 164.971C306.236 164.101 307.665 163.991 308.922 164.731C310.178 165.464 310.791 166.766 310.292 167.636Z" fill="#180F43" fill-opacity="0.6"/>
<path d="M303.761 168.496C303.479 168.989 302.633 169.024 301.875 168.581C301.117 168.138 300.733 167.385 301.022 166.891C301.304 166.398 302.15 166.363 302.908 166.806C303.659 167.249 304.043 168.009 303.761 168.496Z" fill="#180F43" fill-opacity="0.6"/>
<path d="M317.962 198.158C317.529 198.899 316.287 198.979 315.187 198.34C314.088 197.694 313.54 196.575 313.967 195.828C314.4 195.088 315.642 195.007 316.742 195.646C317.848 196.286 318.396 197.411 317.962 198.158Z" fill="#180F43" fill-opacity="0.6"/>
<path d="M313.744 198.45C313.513 198.847 312.909 198.923 312.39 198.618C311.871 198.313 311.635 197.751 311.859 197.353C312.09 196.956 312.695 196.881 313.214 197.185C313.74 197.49 313.975 198.059 313.744 198.45Z" fill="#180F43" fill-opacity="0.6"/>
<path d="M313.318 196.291C313.181 196.531 312.799 196.563 312.471 196.374C312.144 196.179 311.986 195.834 312.123 195.594C312.261 195.354 312.642 195.322 312.97 195.511C313.298 195.7 313.456 196.051 313.318 196.291Z" fill="#180F43" fill-opacity="0.6"/>
<path d="M299.334 194.602C298.951 195.267 297.923 195.387 297.042 194.872C296.161 194.356 295.755 193.401 296.138 192.736C296.521 192.071 297.549 191.951 298.43 192.466C299.318 192.982 299.718 193.937 299.334 194.602Z" fill="#180F43" fill-opacity="0.6"/>
<path d="M300.231 191.6C300.014 191.977 299.485 192.089 299.062 191.835C298.639 191.588 298.471 191.077 298.688 190.7C298.905 190.323 299.434 190.211 299.857 190.465C300.287 190.712 300.455 191.223 300.231 191.6Z" fill="#180F43" fill-opacity="0.6"/>
<g opacity="0.5">
<path d="M328.752 194.811C322.732 193.438 315.773 191.402 308.467 188.787C300.955 186.105 294.106 183.189 288.482 180.366C278.484 175.348 272.365 170.629 273.272 168.072C274.157 165.556 281.766 165.669 292.389 168.005C292.094 168.449 291.806 168.901 291.539 169.367C291.437 169.545 291.336 169.716 291.242 169.895C285.577 169.024 281.803 169.264 281.253 170.822C280.696 172.4 283.562 175.036 288.649 178.013C293.628 180.924 300.732 184.16 308.814 187.044C316.909 189.936 324.466 191.931 330.158 192.823C335.947 193.739 339.817 193.515 340.374 191.93C340.917 190.379 338.154 187.808 333.244 184.898C333.387 184.144 333.489 183.375 333.549 182.611C343.478 187.613 349.69 192.488 348.79 195.038C347.876 197.636 339.924 197.362 328.752 194.811Z" fill="#77A4F2"/>
<path d="M327.441 196.329C321.361 194.885 314.614 192.903 307.617 190.442L307.61 190.441C300.646 187.995 294.186 185.339 288.557 182.676C274.671 176.102 265.862 169.48 267.12 165.854C268.37 162.263 279.16 162.573 293.877 166.032C293.649 166.298 293.435 166.578 293.22 166.857C280.86 164.159 271.956 164.063 270.876 167.178C269.782 170.321 276.947 175.908 288.493 181.603C294.085 184.356 300.688 187.127 307.892 189.663C315.13 192.206 322.063 194.186 328.167 195.534C340.671 198.291 349.699 198.397 350.786 195.268C351.865 192.174 344.899 186.682 333.614 181.07C333.616 180.715 333.617 180.361 333.605 180.006C347.196 186.496 355.786 193.001 354.536 196.585C353.278 200.197 342.323 199.862 327.441 196.329Z" fill="#77A4F2"/>
</g>
</g>
</g>
<path opacity="0.6" d="M425.053 126.783C423.599 126.783 422.42 125.603 422.42 124.148C422.42 122.692 423.599 121.513 425.053 121.513C426.507 121.513 427.686 122.692 427.686 124.148C427.686 125.603 426.507 126.783 425.053 126.783Z" fill="#77A4F2"/>
<path opacity="0.2" d="M507.751 87.9701C506.475 87.9701 505.441 86.9359 505.441 85.6601C505.441 84.3843 506.475 83.3501 507.751 83.3501C509.027 83.3501 510.061 84.3843 510.061 85.6601C510.061 86.9359 509.027 87.9701 507.751 87.9701Z" fill="#77A4F2"/>
<path d="M470.944 12.3598C469.749 12.3598 468.781 11.3905 468.781 10.1948C468.781 8.99909 469.749 8.02979 470.944 8.02979C472.139 8.02979 473.107 8.99909 473.107 10.1948C473.107 11.3905 472.139 12.3598 470.944 12.3598Z" fill="#77A4F2"/>
<path d="M358.398 35.2123C357.547 35.2123 356.858 34.5228 356.858 33.6723C356.858 32.8218 357.547 32.1323 358.398 32.1323C359.248 32.1323 359.938 32.8218 359.938 33.6723C359.938 34.5228 359.248 35.2123 358.398 35.2123Z" fill="#77A4F2"/>
<path d="M390.032 217.742C389.219 217.742 388.561 216.883 388.561 215.824C388.561 214.765 389.219 213.906 390.032 213.906C390.844 213.906 391.502 214.765 391.502 215.824C391.502 216.883 390.844 217.742 390.032 217.742Z" fill="#77A4F2"/>
<path d="M315.494 123.623C314.478 123.623 313.654 122.8 313.654 121.783C313.654 120.767 314.478 119.943 315.494 119.943C316.51 119.943 317.334 120.767 317.334 121.783C317.334 122.8 316.51 123.623 315.494 123.623Z" fill="#77A4F2"/>
<path d="M360.945 184.369C360.226 184.369 359.644 183.787 359.644 183.069C359.644 182.351 360.226 181.769 360.945 181.769C361.664 181.769 362.246 182.351 362.246 183.069C362.246 183.787 361.664 184.369 360.945 184.369Z" fill="#77A4F2"/>
<path d="M439.71 229.717C438.077 229.717 436.754 228.394 436.754 226.762C436.754 225.13 438.077 223.807 439.71 223.807C441.342 223.807 442.666 225.13 442.666 226.762C442.666 228.394 441.342 229.717 439.71 229.717Z" fill="#77A4F2"/>
<path d="M520.068 69.3573C519.217 69.3573 518.528 68.6679 518.528 67.8173C518.528 66.9668 519.217 66.2773 520.068 66.2773C520.918 66.2773 521.607 66.9668 521.607 67.8173C521.607 68.6679 520.918 69.3573 520.068 69.3573Z" fill="#77A4F2"/>
<path d="M527.934 8.375C527.855 8.375 527.791 8.29105 527.791 8.1875C527.791 8.08395 527.855 8 527.934 8C528.014 8 528.078 8.08395 528.078 8.1875C528.078 8.29105 528.014 8.375 527.934 8.375Z" fill="#77A4F2"/>
<path d="M475.662 135.187L474.345 149.247L465.438 150.975C465.313 151.003 465.199 151.088 465.117 151.214C465.035 151.341 464.99 151.502 464.99 151.668C464.99 151.834 465.035 151.994 465.117 152.121C465.199 152.248 465.313 152.333 465.438 152.361L474.345 154.078L475.662 168.138C475.677 168.308 475.741 168.466 475.839 168.58C475.938 168.694 476.065 168.757 476.197 168.757C476.329 168.757 476.456 168.694 476.554 168.58C476.653 168.466 476.716 168.308 476.732 168.138L478.048 154.078L486.517 152.361C486.642 152.333 486.756 152.248 486.838 152.121C486.92 151.994 486.965 151.834 486.965 151.668C486.965 151.502 486.92 151.341 486.838 151.214C486.756 151.088 486.642 151.003 486.517 150.975L478.048 149.247L476.732 135.187C476.716 135.017 476.653 134.86 476.554 134.745C476.456 134.631 476.329 134.568 476.197 134.568C476.065 134.568 475.938 134.631 475.839 134.745C475.741 134.86 475.677 135.017 475.662 135.187Z" fill="#77A4F2"/>
<path opacity="0.3" d="M528.967 217.666C527.93 217.666 527.089 216.824 527.089 215.786C527.089 214.747 527.93 213.906 528.967 213.906C530.005 213.906 530.846 214.747 530.846 215.786C530.846 216.824 530.005 217.666 528.967 217.666Z" fill="#77A4F2"/>
<path d="M53.1262 180.382L55.8018 178.247C56.5683 177.63 56.6886 176.517 56.0874 175.75C55.4711 174.983 54.3588 174.863 53.5922 175.465L50.9167 177.6C50.1501 178.216 50.0298 179.329 50.6311 180.096C51.2474 180.863 52.3597 180.983 53.1262 180.382Z" fill="#342669"/>
<path d="M83.2781 207.903L85.142 205.031C85.6831 204.204 85.4426 203.106 84.6159 202.58C83.7892 202.039 82.6919 202.279 82.1658 203.091L80.302 205.963C79.7609 206.791 80.0014 207.888 80.8281 208.415C81.6548 208.956 82.7521 208.73 83.2781 207.903Z" fill="#342669"/>
<path d="M65.6784 174.913L67.5122 174.853C68.4892 174.823 69.2558 174.011 69.2257 173.018C69.1956 172.041 68.384 171.274 67.3919 171.304L65.5581 171.364C64.5811 171.394 63.8145 172.206 63.8446 173.199C63.8747 174.176 64.7014 174.943 65.6784 174.913Z" fill="#342669"/>
<path d="M48.6476 197.167L48.5875 195.333C48.5574 194.355 47.7457 193.588 46.7537 193.619C45.7767 193.649 45.0101 194.461 45.0401 195.453L45.1003 197.288C45.1303 198.265 45.942 199.032 46.934 199.002C47.9111 198.957 48.6776 198.145 48.6476 197.167Z" fill="#342669"/>
<path d="M87.8493 197.708L88.0597 195.874C88.165 194.896 87.4735 194.024 86.4965 193.919C85.5195 193.814 84.6477 194.505 84.5425 195.483L84.332 197.317C84.2268 198.295 84.9182 199.167 85.8953 199.272C86.8573 199.377 87.7291 198.686 87.8493 197.708Z" fill="#342669"/>
<path d="M58.0128 213.739L59.7263 214.415C60.6432 214.776 61.6653 214.325 62.0261 213.408C62.3868 212.491 61.9359 211.468 61.019 211.107L59.3054 210.431C58.3885 210.07 57.3664 210.521 57.0057 211.438C56.6449 212.355 57.0959 213.378 58.0128 213.739Z" fill="#342669"/>
<path d="M64.1675 213.944C52.939 212.692 44.8539 202.572 46.1089 191.339C47.3638 180.106 57.4836 172.015 68.7121 173.266C79.9405 174.518 88.0256 184.638 86.7707 195.871C85.5157 207.104 75.3959 215.195 64.1675 213.944Z" fill="#342669"/>
<path d="M75.1914 182.367C75.1613 183.329 74.7555 184.276 74.1242 185.043C73.5079 185.825 72.6361 186.412 71.6892 186.743C70.7272 187.073 69.5999 187.104 68.6679 186.667C67.736 186.261 66.9995 185.525 66.5936 184.667C67.3001 185.299 68.0817 185.78 68.9084 186.021C69.3143 186.141 69.7351 186.186 70.156 186.156C70.5769 186.156 70.9827 186.036 71.3886 185.916C71.584 185.84 71.7944 185.765 71.9898 185.675C72.1852 185.57 72.3806 185.479 72.561 185.359C72.9518 185.149 73.2674 184.863 73.5981 184.577C74.2595 183.961 74.8006 183.224 75.1914 182.367Z" fill="#504482"/>
<path d="M67.7506 182.713C67.7205 182.051 67.976 181.375 68.3969 180.818C68.8178 180.262 69.419 179.826 70.0804 179.6C70.7568 179.36 71.5685 179.36 72.2148 179.69C72.8611 180.006 73.3572 180.533 73.5977 181.164C73.0716 180.773 72.5305 180.487 71.9743 180.352C71.4332 180.217 70.8921 180.277 70.381 180.457C69.3138 180.818 68.4119 181.57 67.7506 182.713Z" fill="#504482"/>
<path d="M59.3052 195.919C59.5006 196.536 59.4255 197.243 59.1399 197.859C58.8543 198.476 58.3733 199.032 57.7871 199.378C57.1858 199.754 56.4042 199.874 55.7278 199.694C55.0514 199.513 54.4802 199.107 54.1345 198.566C54.7207 198.822 55.2919 198.987 55.8481 199.002C56.3892 199.032 56.8852 198.882 57.3361 198.611C57.8021 198.34 58.223 197.965 58.5536 197.513C58.8693 197.062 59.1248 196.536 59.3052 195.919Z" fill="#504482"/>
<path d="M54.8408 197.754C54.6453 197.333 54.6754 196.822 54.8558 196.371C55.0362 195.92 55.3819 195.529 55.8027 195.273C56.2386 195.003 56.8248 194.912 57.3058 195.063C57.7868 195.213 58.1776 195.529 58.373 195.95C57.9371 195.83 57.5463 195.754 57.1856 195.769C56.8399 195.784 56.5393 195.875 56.2537 196.04C55.6524 196.401 55.2015 196.912 54.8408 197.754Z" fill="#504482"/>
<path d="M52.5255 190.566C52.8412 190.927 53.0065 191.424 52.9614 191.935C52.9163 192.461 52.6458 192.972 52.2249 193.303C51.789 193.679 51.1577 193.769 50.6767 193.649C50.1807 193.529 49.7598 193.273 49.4742 192.897C49.9402 192.942 50.3611 192.987 50.7519 192.957C51.1276 192.927 51.4283 192.822 51.6688 192.612C51.9243 192.401 52.1497 192.115 52.285 191.784C52.4203 191.454 52.4804 191.048 52.5255 190.566Z" fill="#504482"/>
<path d="M49.774 192.266C49.5034 192.04 49.3531 191.694 49.3681 191.303C49.3832 190.912 49.5786 190.536 49.8942 190.281C50.2249 189.995 50.7059 189.935 51.0516 190.04C51.4123 190.145 51.6979 190.356 51.8633 190.672C51.5176 190.687 51.232 190.702 50.9915 190.747C50.751 190.792 50.6007 190.867 50.4654 190.972C50.3151 191.093 50.1798 191.243 50.0746 191.454C49.9393 191.664 49.8491 191.92 49.774 192.266Z" fill="#504482"/>
<path d="M81.0547 187.68C81.0547 188.161 80.8443 188.628 80.4685 188.989C80.0927 189.349 79.5516 189.56 79.0105 189.53C78.4393 189.515 77.9132 189.169 77.6276 188.763C77.342 188.342 77.1917 187.876 77.2218 187.395C77.5374 187.74 77.823 188.056 78.1387 188.282C78.4393 188.507 78.7399 188.628 79.0556 188.643C79.3862 188.658 79.732 188.598 80.0626 188.432C80.3933 188.267 80.724 188.011 81.0547 187.68Z" fill="#504482"/>
<path d="M77.8833 187.123C77.8231 186.777 77.9584 186.416 78.214 186.145C78.4845 185.874 78.8753 185.709 79.2812 185.724C79.7171 185.724 80.1079 186.01 80.3033 186.311C80.4987 186.626 80.5738 186.972 80.4987 187.318C80.2281 187.108 80.0026 186.912 79.7922 186.792C79.5818 186.671 79.4164 186.611 79.2511 186.611C79.0557 186.596 78.8603 186.626 78.6348 186.702C78.4094 186.777 78.1689 186.912 77.8833 187.123Z" fill="#504482"/>
<path d="M68.1105 200.219C70.26 201.483 73.0257 200.761 74.2883 198.595C75.5509 196.43 74.8444 193.663 72.695 192.4C70.5456 191.137 67.7799 191.859 66.5172 194.024C65.2546 196.189 65.9611 198.956 68.1105 200.219Z" fill="#3B2D75"/>
<path d="M72.7407 194.414C73.9131 195.106 74.6196 196.279 74.7398 197.542C75.296 195.602 74.5143 193.452 72.6956 192.384C70.5461 191.121 67.7804 191.858 66.5178 194.008C65.6009 195.572 65.7212 197.437 66.6531 198.835C66.4427 197.858 66.578 196.805 67.1341 195.888C68.2765 193.933 70.8017 193.272 72.7407 194.414Z" fill="#504482"/>
<path d="M76.5293 197.75C76.4391 198.923 75.9281 200.066 75.1615 200.999C74.3949 201.946 73.3277 202.638 72.1853 203.059C71.0279 203.465 69.6601 203.51 68.5328 202.984C67.3904 202.487 66.4886 201.615 65.9324 200.593C66.7741 201.39 67.7361 202.021 68.7733 202.337C69.0288 202.427 69.2994 202.457 69.5549 202.502C69.8255 202.517 70.081 202.562 70.3515 202.532C70.8776 202.532 71.3887 202.397 71.8997 202.232C72.1553 202.141 72.4108 202.036 72.6513 201.931C72.8918 201.796 73.1323 201.69 73.3577 201.54C73.8387 201.269 74.2446 200.908 74.6504 200.547C75.4471 199.766 76.0934 198.833 76.5293 197.75Z" fill="#504482"/>
<path d="M81.2672 200.024C82.139 200.339 83.101 199.873 83.4167 198.986C83.7323 198.099 83.2664 197.136 82.3946 196.836C81.5228 196.52 80.5608 196.986 80.2451 197.873C79.9295 198.745 80.3954 199.708 81.2672 200.024Z" fill="#3B2D75"/>
<path d="M82.5456 197.573C83.0266 197.738 83.3573 198.129 83.4925 198.58C83.5527 197.828 83.1168 197.091 82.3802 196.836C81.5084 196.52 80.5465 196.986 80.2308 197.873C80.0053 198.505 80.1857 199.182 80.6216 199.633C80.4713 199.287 80.4563 198.896 80.5915 198.52C80.8771 197.708 81.764 197.287 82.5456 197.573Z" fill="#504482"/>
<path d="M84.1668 198.52C84.257 198.956 84.1518 199.422 83.9413 199.828C83.7309 200.234 83.3852 200.58 82.9944 200.821C82.5885 201.061 82.0775 201.167 81.6115 201.046C81.1456 200.941 80.7547 200.67 80.4992 200.309C80.875 200.52 81.2808 200.67 81.6716 200.7C82.0624 200.731 82.4382 200.625 82.7689 200.43C83.4453 200.039 83.9564 199.377 84.1668 198.52Z" fill="#504482"/>
<path d="M68.5014 209.618C69.8091 209.828 71.0416 208.956 71.2521 207.633C71.4775 206.325 70.5907 205.092 69.283 204.866C67.9753 204.641 66.7428 205.528 66.5323 206.851C66.3219 208.159 67.2087 209.392 68.5014 209.618Z" fill="#3B2D75"/>
<path d="M69.7049 205.857C70.4114 205.977 70.9826 206.428 71.2832 207.03C71.193 205.962 70.3964 205.045 69.2991 204.864C67.9914 204.654 66.7589 205.526 66.5484 206.849C66.3981 207.797 66.804 208.699 67.5405 209.21C67.2549 208.774 67.1196 208.218 67.2098 207.661C67.4052 206.473 68.5175 205.661 69.7049 205.857Z" fill="#504482"/>
<path d="M72.2142 206.805C72.3796 207.406 72.3495 208.068 72.1391 208.669C71.9286 209.286 71.5378 209.827 71.0568 210.248C70.5608 210.669 69.8994 210.94 69.2381 210.91C68.5767 210.895 67.9755 210.624 67.4945 210.233C68.0506 210.489 68.6519 210.609 69.223 210.564C69.7942 210.534 70.3203 210.278 70.7562 209.917C71.1921 209.542 71.5529 209.075 71.8084 208.549C72.0489 208.008 72.1992 207.421 72.2142 206.805Z" fill="#504482"/>
<path d="M60.4483 185.375C59.1857 186.894 56.7657 186.984 55.0522 185.556C53.3236 184.127 52.9629 181.736 54.2104 180.217C55.4731 178.699 57.8931 178.608 59.6066 180.037C61.3352 181.45 61.7109 183.841 60.4483 185.375Z" fill="#3B2D75"/>
<path d="M54.8553 181.856C54.1639 182.683 54.0136 183.796 54.3443 184.834C53.247 183.42 53.1418 181.511 54.209 180.217C55.4716 178.699 57.8916 178.608 59.6051 180.037C60.8527 181.059 61.3938 182.593 61.1233 183.932C60.9579 183.105 60.492 182.293 59.7554 181.676C58.2072 180.398 56.0127 180.473 54.8553 181.856Z" fill="#504482"/>
<path d="M62.0706 182.803C62.5215 183.675 62.6117 184.758 62.266 185.766C62.1157 186.277 61.8 186.728 61.4393 187.119C61.0785 187.51 60.6426 187.796 60.1616 188.051C59.6656 188.247 59.1245 188.382 58.5984 188.397C58.0723 188.397 57.5462 188.337 57.0652 188.187C56.0882 187.901 55.2164 187.39 54.51 186.713C55.4118 187.074 56.3137 187.36 57.2306 187.51C58.1324 187.645 59.0343 187.6 59.8009 187.254C60.1767 187.074 60.5524 186.833 60.8531 186.533C61.1687 186.247 61.4393 185.901 61.6347 185.51C62.0105 184.713 62.1608 183.766 62.0706 182.803Z" fill="#504482"/>
<path d="M491.721 27.5885L493.029 26.5442C493.404 26.2427 493.463 25.6985 493.169 25.3234C492.868 24.9483 492.324 24.8895 491.949 25.1837L490.64 26.228C490.265 26.5295 490.207 27.0737 490.501 27.4487C490.802 27.8238 491.346 27.8826 491.721 27.5885Z" fill="#30206D"/>
<path d="M506.466 41.0477L507.378 39.643C507.643 39.2386 507.525 38.7017 507.121 38.4443C506.716 38.1796 506.18 38.2972 505.922 38.6944L505.011 40.099C504.746 40.5035 504.864 41.0403 505.268 41.2977C505.672 41.5625 506.209 41.4521 506.466 41.0477Z" fill="#30206D"/>
<path d="M497.86 24.9134L498.757 24.8839C499.235 24.8692 499.61 24.4721 499.595 23.9867C499.581 23.5087 499.184 23.1337 498.698 23.1484L497.802 23.1778C497.324 23.1925 496.949 23.5896 496.964 24.075C496.978 24.553 497.383 24.9281 497.86 24.9134Z" fill="#30206D"/>
<path d="M489.531 35.797L489.501 34.8998C489.487 34.4218 489.09 34.0467 488.605 34.0615C488.127 34.0762 487.752 34.4733 487.767 34.9587L487.796 35.8559C487.811 36.3339 488.208 36.7089 488.693 36.6942C489.171 36.6722 489.546 36.275 489.531 35.797Z" fill="#30206D"/>
<path d="M508.702 36.0615L508.805 35.1643C508.857 34.6863 508.519 34.2598 508.041 34.2083C507.563 34.1568 507.137 34.4951 507.085 34.9731L506.982 35.8703C506.931 36.3483 507.269 36.7749 507.747 36.8264C508.217 36.8778 508.644 36.5396 508.702 36.0615Z" fill="#30206D"/>
<path d="M494.111 43.9014L494.949 44.2323C495.398 44.4088 495.898 44.1882 496.074 43.7396C496.25 43.291 496.03 42.7909 495.581 42.6144L494.743 42.2835C494.295 42.107 493.795 42.3276 493.619 42.7762C493.442 43.2248 493.663 43.7249 494.111 43.9014Z" fill="#30206D"/>
<path d="M497.122 44.0015C491.63 43.3895 487.676 38.44 488.29 32.9465C488.904 27.4531 493.853 23.496 499.344 24.1081C504.836 24.7201 508.79 29.6696 508.176 35.1631C507.562 40.6565 502.613 44.6136 497.122 44.0015Z" fill="#30206D"/>
<path d="M502.512 28.5586C502.497 29.0293 502.299 29.4926 501.99 29.8676C501.688 30.25 501.262 30.5369 500.799 30.6986C500.328 30.8604 499.777 30.8751 499.321 30.6619C498.866 30.4633 498.505 30.103 498.307 29.6838C498.652 29.9926 499.035 30.228 499.439 30.3456C499.637 30.4045 499.843 30.4265 500.049 30.4118C500.255 30.4118 500.453 30.353 500.652 30.2942C500.747 30.2574 500.85 30.2206 500.946 30.1765C501.042 30.125 501.137 30.0809 501.225 30.0221C501.416 29.9191 501.571 29.7794 501.733 29.6396C502.056 29.3381 502.321 28.9778 502.512 28.5586Z" fill="#1B1046"/>
<path d="M498.875 28.7282C498.86 28.4047 498.985 28.0737 499.191 27.8016C499.397 27.5295 499.691 27.3163 500.014 27.2059C500.345 27.0883 500.742 27.0883 501.058 27.2501C501.374 27.4045 501.617 27.6619 501.734 27.9708C501.477 27.7796 501.212 27.6398 500.94 27.5737C500.676 27.5075 500.411 27.5369 500.161 27.6251C499.639 27.8016 499.198 28.1693 498.875 28.7282Z" fill="#1B1046"/>
<path d="M494.744 35.187C494.839 35.4885 494.802 35.8342 494.663 36.1357C494.523 36.4372 494.288 36.7093 494.001 36.8785C493.707 37.0623 493.325 37.1211 492.994 37.0329C492.663 36.9446 492.384 36.7461 492.215 36.4813C492.502 36.6064 492.781 36.6873 493.053 36.6946C493.318 36.7093 493.56 36.6358 493.781 36.5034C494.009 36.371 494.214 36.1872 494.376 35.9665C494.53 35.7459 494.655 35.4885 494.744 35.187Z" fill="#1B1046"/>
<path d="M492.562 36.0842C492.466 35.8783 492.481 35.6283 492.569 35.4077C492.657 35.187 492.826 34.9958 493.032 34.8708C493.245 34.7384 493.532 34.6943 493.767 34.7678C494.002 34.8414 494.193 34.9958 494.289 35.2017C494.076 35.1429 493.885 35.1061 493.708 35.1135C493.539 35.1208 493.392 35.165 493.253 35.2459C492.959 35.4224 492.738 35.6724 492.562 36.0842Z" fill="#1B1046"/>
<path d="M491.428 32.5684C491.582 32.7449 491.663 32.9875 491.641 33.2376C491.619 33.495 491.487 33.745 491.281 33.9068C491.068 34.0907 490.759 34.1348 490.524 34.076C490.281 34.0171 490.075 33.8921 489.936 33.7082C490.163 33.7303 490.369 33.7524 490.56 33.7377C490.744 33.723 490.891 33.6715 491.009 33.5685C491.134 33.4656 491.244 33.3258 491.31 33.164C491.376 33.0023 491.406 32.8037 491.428 32.5684Z" fill="#1B1046"/>
<path d="M490.082 33.3997C489.949 33.2894 489.876 33.1202 489.883 32.929C489.891 32.7378 489.986 32.554 490.141 32.429C490.302 32.2892 490.537 32.2598 490.707 32.3113C490.883 32.3628 491.023 32.4657 491.104 32.6202C490.934 32.6275 490.795 32.6349 490.677 32.6569C490.56 32.679 490.486 32.7158 490.42 32.7672C490.346 32.8261 490.28 32.8996 490.229 33.0026C490.163 33.1055 490.118 33.2306 490.082 33.3997Z" fill="#1B1046"/>
<path d="M505.381 31.1573C505.381 31.3926 505.278 31.6206 505.094 31.7971C504.91 31.9736 504.646 32.0766 504.381 32.0619C504.102 32.0545 503.845 31.8854 503.705 31.6868C503.565 31.4809 503.492 31.2529 503.506 31.0176C503.661 31.1867 503.8 31.3412 503.955 31.4515C504.102 31.5618 504.249 31.6206 504.403 31.628C504.565 31.6353 504.734 31.6059 504.896 31.525C505.057 31.4441 505.219 31.3191 505.381 31.1573Z" fill="#1B1046"/>
<path d="M503.83 30.8846C503.801 30.7154 503.867 30.5389 503.992 30.4066C504.124 30.2742 504.315 30.1933 504.514 30.2007C504.727 30.2007 504.918 30.3404 505.013 30.4875C505.109 30.6419 505.146 30.8111 505.109 30.9802C504.977 30.8772 504.866 30.7816 504.764 30.7228C504.661 30.664 504.58 30.6346 504.499 30.6346C504.403 30.6272 504.308 30.6419 504.198 30.6787C504.087 30.7154 503.97 30.7816 503.83 30.8846Z" fill="#1B1046"/>
<path d="M499.052 37.2897C500.103 37.9075 501.455 37.5545 502.073 36.4955C502.69 35.4365 502.345 34.0833 501.294 33.4656C500.242 32.8478 498.89 33.2008 498.272 34.2598C497.655 35.3188 498 36.672 499.052 37.2897Z" fill="#1B1146"/>
<path d="M501.315 34.4509C501.888 34.7892 502.234 35.3628 502.293 35.9806C502.565 35.0319 502.182 33.9802 501.293 33.4581C500.242 32.8404 498.889 33.2007 498.272 34.2523C497.823 35.0172 497.882 35.9291 498.338 36.613C498.235 36.135 498.301 35.6202 498.573 35.1716C499.132 34.2156 500.367 33.892 501.315 34.4509Z" fill="#1B1046"/>
<path d="M503.168 36.0825C503.124 36.6561 502.874 37.2151 502.499 37.671C502.124 38.1343 501.602 38.4726 501.044 38.6785C500.478 38.8771 499.809 38.8991 499.257 38.6418C498.699 38.3991 498.258 37.9725 497.986 37.4725C498.397 37.8622 498.868 38.1711 499.375 38.3255C499.5 38.3697 499.632 38.3844 499.757 38.4064C499.889 38.4138 500.014 38.4358 500.147 38.4211C500.404 38.4211 500.654 38.3549 500.904 38.274C501.029 38.2299 501.154 38.1784 501.271 38.127C501.389 38.0608 501.507 38.0093 501.617 37.9358C501.852 37.8034 502.051 37.6269 502.249 37.4504C502.639 37.068 502.955 36.612 503.168 36.0825Z" fill="#1B1046"/>
<path d="M505.484 37.1943C505.911 37.3488 506.381 37.1208 506.536 36.6869C506.69 36.253 506.462 35.7823 506.036 35.6353C505.609 35.4808 505.139 35.7088 504.985 36.1427C504.83 36.5692 505.058 37.0399 505.484 37.1943Z" fill="#1B1146"/>
<path d="M506.108 35.9956C506.344 36.0765 506.505 36.2677 506.572 36.4883C506.601 36.1206 506.388 35.7603 506.028 35.6353C505.601 35.4808 505.131 35.7088 504.976 36.1427C504.866 36.4516 504.954 36.7825 505.167 37.0031C505.094 36.834 505.087 36.6428 505.153 36.4589C505.292 36.0618 505.726 35.8559 506.108 35.9956Z" fill="#1B1046"/>
<path d="M506.902 36.4585C506.946 36.6718 506.895 36.8997 506.792 37.0983C506.689 37.2969 506.52 37.466 506.329 37.5837C506.13 37.7013 505.88 37.7528 505.652 37.694C505.425 37.6425 505.233 37.5101 505.108 37.3336C505.292 37.4366 505.491 37.5101 505.682 37.5248C505.873 37.5396 506.057 37.4881 506.218 37.3925C506.549 37.2013 506.799 36.8777 506.902 36.4585Z" fill="#1B1046"/>
<path d="M499.241 41.8864C499.881 41.9894 500.483 41.5629 500.586 40.9157C500.697 40.2759 500.263 39.6729 499.623 39.5625C498.984 39.4522 498.381 39.8861 498.278 40.5333C498.175 41.1731 498.609 41.7761 499.241 41.8864Z" fill="#1B1146"/>
<path d="M499.83 40.0471C500.175 40.1059 500.455 40.3265 500.602 40.6207C500.557 40.0985 500.168 39.6499 499.631 39.5617C498.992 39.4587 498.389 39.8853 498.286 40.5324C498.212 40.9958 498.411 41.437 498.771 41.687C498.632 41.4738 498.565 41.2017 498.609 40.9296C498.705 40.3486 499.249 39.9515 499.83 40.0471Z" fill="#1B1046"/>
<path d="M501.057 40.5103C501.138 40.8044 501.124 41.128 501.021 41.4222C500.918 41.7237 500.727 41.9884 500.491 42.1943C500.249 42.4003 499.925 42.5326 499.602 42.5179C499.279 42.5106 498.985 42.3782 498.749 42.187C499.021 42.312 499.315 42.3708 499.595 42.3488C499.874 42.3341 500.131 42.2091 500.344 42.0326C500.558 41.8487 500.734 41.6207 500.859 41.3633C500.977 41.0986 501.05 40.8118 501.057 40.5103Z" fill="#1B1046"/>
<path d="M495.301 30.0301C494.683 30.7729 493.5 30.817 492.662 30.1184C491.816 29.4197 491.64 28.2504 492.25 27.5077C492.868 26.7649 494.051 26.7208 494.889 27.4194C495.734 28.1107 495.918 29.28 495.301 30.0301Z" fill="#1B1146"/>
<path d="M492.565 28.3093C492.227 28.7137 492.154 29.2579 492.315 29.7654C491.779 29.0741 491.727 28.1401 492.249 27.5077C492.867 26.7649 494.05 26.7208 494.888 27.4194C495.498 27.9195 495.763 28.6696 495.631 29.3241C495.55 28.9197 495.322 28.5225 494.962 28.221C494.205 27.5959 493.131 27.6327 492.565 28.3093Z" fill="#1B1046"/>
<path d="M496.094 28.7725C496.315 29.199 496.359 29.7285 496.19 30.2212C496.116 30.4713 495.962 30.6919 495.786 30.8831C495.609 31.0743 495.396 31.214 495.161 31.339C494.918 31.4347 494.654 31.5008 494.396 31.5082C494.139 31.5082 493.882 31.4788 493.647 31.4052C493.169 31.2655 492.742 31.0155 492.397 30.6845C492.838 30.861 493.279 31.0008 493.727 31.0743C494.168 31.1405 494.61 31.1184 494.984 30.9493C495.168 30.861 495.352 30.7434 495.499 30.5963C495.653 30.4566 495.786 30.2874 495.881 30.0962C496.065 29.7064 496.139 29.2431 496.094 28.7725Z" fill="#1B1046"/>
<path opacity="0.4" d="M439.37 104.278C460.163 109.381 478.197 117.393 473.66 131.385C479.198 121.192 474.138 110.537 440.052 102.261L439.37 104.278Z" fill="url(#paint1_linear_27839_93571)"/>
<path opacity="0.4" d="M450.49 64.0981C465.309 68.677 492.799 78.716 502.738 88.2007C502.738 88.2007 489.629 77.7087 445.405 65.4195L450.49 64.0981Z" fill="url(#paint2_linear_27839_93571)"/>
<path d="M444.745 75.7445L456.762 66.7319C451.406 62.5843 441.516 57.1549 433.153 56.9453" fill="#88D1C3"/>
<path d="M406.358 88.6777C391.993 80.9411 383.48 68.9135 387.344 61.8132C391.208 54.7129 405.985 55.2287 420.35 62.9653C434.715 70.7019 443.227 82.7296 439.363 89.8299C435.499 96.9302 420.722 96.4143 406.358 88.6777Z" fill="#77A4F2"/>
<path d="M410.682 80.7207C396.317 72.9841 387.805 60.9564 391.668 53.8561C395.532 46.7558 410.309 47.2717 424.674 55.0083C439.039 62.7449 447.551 74.7725 443.687 81.8728C439.824 88.9731 425.047 88.4573 410.682 80.7207Z" fill="white"/>
<path d="M415.432 78.6229C402.606 71.7151 394.55 61.8113 397.439 56.5023C400.328 51.1932 413.068 52.4892 425.894 59.3971C438.72 66.3049 446.775 76.2086 443.886 81.5177C440.997 86.8268 428.257 85.5307 415.432 78.6229Z" fill="#88D1C3"/>
<path d="M395.664 68.8918L391.795 76.006C391.795 76.006 389.899 74.6074 389.214 73.3135C388.529 72.0197 385.543 66.945 387.545 63.1441C389.546 59.3431 390.381 58.1621 391.066 60.2742C391.75 62.3863 395.664 68.8918 395.664 68.8918Z" fill="white"/>
<path d="M427.662 86.5583C432.119 87.1911 434.06 86.9614 436.856 86.2197C439.651 85.4781 439.355 86.5462 440.96 88.4286C442.564 90.3109 447.418 104.983 447.418 104.983C447.418 104.983 441.478 105.724 434.647 102.044C427.816 98.3642 411.472 87.7192 411.553 84.0714C411.634 80.4236 413.028 83.229 417.355 84.3173C421.682 85.4055 427.662 86.5583 427.662 86.5583Z" fill="#88D1C3"/>
<path d="M455.22 67.1671C448.118 63.6242 440.14 60.3633 435.684 61.4839C435.684 61.4839 433.212 57.3725 433.974 56.9816C434.736 56.5906 451.144 62.7817 454.333 64.9825C457.522 67.1833 455.22 67.1671 455.22 67.1671Z" fill="white"/>
<path d="M437.554 74.7526C441.334 75.6102 445.014 76.8529 448.538 78.4608C451.277 79.7869 452.375 80.2867 452.257 81.5604C452.14 82.8341 449.17 90.4279 447.651 91.3228C446.131 92.2176 443.696 91.0366 442.789 89.0333C441.881 87.0301 441.865 85.9579 439.142 82.9873C436.42 80.0167 431.59 74.5793 437.554 74.7526Z" fill="#88D1C3"/>
<path d="M451.438 83.0638C446.809 80.4866 441.819 78.6118 436.633 77.5015L438.408 80.6253L450.461 87.1147L451.438 83.0638Z" fill="white"/>
<path d="M445.884 103.282C441.115 101.629 427.344 96.7764 418.333 85.684C418.333 85.684 412.191 81.7782 411.291 81.8911C410.392 82.0039 417.028 92.0605 426.1 96.8772C435.171 101.694 447.411 106.934 445.884 103.282Z" fill="white"/>
<path d="M404.141 58.5289C399.656 66.7677 429.666 82.9146 434.122 74.6759C435.234 72.7143 435.942 70.552 436.205 68.3153C436.468 66.0786 436.28 63.8121 435.653 61.6483C435.027 59.4844 433.973 57.4664 432.554 55.7119C431.135 53.9575 429.378 52.5017 427.388 51.4297C425.397 50.3576 423.212 49.6906 420.959 49.4676C418.707 49.2447 416.432 49.4702 414.268 50.131C412.104 50.7918 410.094 51.8748 408.355 53.3166C406.617 54.7585 405.184 56.5304 404.141 58.5289Z" fill="#88D1C3"/>
<path d="M384.804 54.0347L390.699 57.2028L389.326 59.73L383.427 56.5539C382.495 56.2314 383.799 53.4623 384.804 54.0347Z" fill="#77A4F2"/>
<path d="M386.645 61.6366L391.057 53.5349C394.088 48.0854 402.56 46.4368 413.231 49.1898C416.908 47.9354 420.891 47.875 424.604 49.0174C428.318 50.1598 431.571 52.4459 433.894 55.5462C442.111 56.0137 451.454 60.9554 457.078 65.1554C457.321 65.3374 457.518 65.5737 457.653 65.8453C457.788 66.1169 457.858 66.4162 457.855 66.7193C457.852 67.028 457.777 67.3318 457.636 67.6072C457.496 67.8826 457.293 68.1221 457.045 68.3074L447.374 75.5626C448.972 76.2178 450.533 76.9593 452.05 77.7835C455.044 79.3958 453.358 85.7079 451.203 89.67C449.582 92.6608 447.69 94.8253 445.883 95.8854L448.436 103.503C448.537 103.817 448.563 104.149 448.513 104.475C448.463 104.8 448.338 105.11 448.147 105.379C447.956 105.648 447.704 105.869 447.413 106.025C447.121 106.18 446.797 106.267 446.466 106.276C446.331 106.281 446.195 106.272 446.061 106.248C440.973 105.442 430.191 102.302 421.083 95.8612V95.8975C415.882 94.7719 410.871 92.9053 406.206 90.3553C390.952 82.1286 382.358 69.5206 386.645 61.6366ZM393.557 54.9738C391.973 57.884 392.892 62.0114 396.146 66.5943C399.61 71.4714 405.221 76.1551 411.947 79.7827C421.918 85.1557 432.541 87.0944 438.687 84.8292L433.226 77.4611C432.045 78.06 430.739 78.3722 429.413 78.372C425.309 78.4849 419.937 76.6751 415.051 74.043C406.947 69.6859 400.039 62.9868 402.839 57.8437C404.294 55.1634 406.398 52.8871 408.961 51.2212C401.429 49.9475 395.554 51.3059 393.557 54.9738ZM426.565 52.9585C424.164 51.6599 421.461 51.0134 418.729 51.0842C417.356 51.1248 415.994 51.3429 414.678 51.7331C412.712 52.3092 410.881 53.2674 409.289 54.5522C407.698 55.8369 406.379 57.4229 405.408 59.2181C404.472 60.9433 406.133 63.2972 407.284 64.6233C406.83 63.4705 406.785 62.3742 407.312 61.3987C408.834 58.594 411.243 56.3668 414.167 55.0625C417.09 53.7581 420.364 53.4493 423.482 54.184C426.599 54.9186 429.386 56.6557 431.411 59.126C433.436 61.5963 434.585 64.6619 434.68 67.8479C434.921 64.8493 434.283 61.8455 432.843 59.2006C431.402 56.5557 429.222 54.3832 426.565 52.9464V52.9585ZM454.351 66.7394C449.222 63.1118 442.046 59.5728 435.77 58.6216C436.291 59.7039 436.707 60.8337 437.01 61.9953C441.118 65.7237 444.031 69.6536 445.482 73.3901L454.351 66.7394ZM436.374 73.1885C436.589 73.1885 436.779 73.2329 437.014 73.249C438.906 73.3596 440.786 73.617 442.638 74.0189C441.637 71.6488 439.915 69.1135 437.622 66.6266C437.619 68.8778 437.199 71.1093 436.382 73.2087L436.374 73.1885ZM448.29 88.9485C448.419 88.7309 448.549 88.5455 448.695 88.2996C450.923 84.2004 451.061 80.7985 450.721 80.3027C444.023 76.6952 440.365 76.409 436.82 76.1309C436.487 76.1067 436.155 76.0624 435.823 76.0342L441.244 83.4023C441.821 84.1771 442.271 85.0384 442.577 85.9537L443.387 88.3721L445.413 89.4564C445.871 89.7393 446.418 89.8439 446.949 89.7501C447.48 89.6564 447.957 89.371 448.29 88.9485ZM445.296 103.189L440.069 87.3846C437.951 88.1836 435.709 88.6092 433.445 88.6422C427.477 88.8034 420.156 87.0299 412.915 83.5031C420.698 95.8975 437.577 101.653 445.296 103.189ZM415.719 91.4073C414.483 90.2155 413.331 88.9401 412.271 87.5902L411.181 89.6055C412.68 90.2787 414.2 90.8792 415.719 91.4073ZM407.616 87.8199C408.199 88.1343 408.785 88.438 409.374 88.7309L410.995 85.7804C410.207 84.6048 409.502 83.3765 408.884 82.1044L406.169 87.0299C406.639 87.2839 407.101 87.562 407.588 87.8361L407.616 87.8199ZM404.468 85.9779L407.466 80.4639C406.425 79.823 405.412 79.158 404.439 78.4687L401.453 83.9545C402.399 84.6478 403.394 85.3223 404.439 85.9779H404.468ZM399.825 82.7332L402.754 77.2636C401.765 76.5098 400.805 75.7359 399.918 74.9419L396.968 80.3632C397.856 81.1653 398.804 81.9553 399.796 82.7332H399.825ZM395.461 78.9161L398.39 73.5311C397.451 72.6283 396.588 71.7012 395.781 70.7661L392.897 76.0664C393.703 77.0587 394.559 78.0098 395.461 78.9161ZM391.568 74.2929L394.404 69.053C394.197 68.7789 393.974 68.5089 393.78 68.2469C393.191 67.4083 392.65 66.5377 392.159 65.639L389.469 70.5726C390.045 71.8787 390.749 73.1249 391.572 74.2929H391.568ZM388.63 67.9043L391.085 63.398C390.76 62.6024 390.498 61.7831 390.299 60.9473L389.177 63.011C388.42 64.4137 388.282 66.0703 388.634 67.9043H388.63Z" fill="#38237C"/>
<path d="M380.506 57.8397C378.018 57.8397 376.001 55.833 376.001 53.3576C376.001 50.8822 378.018 48.8755 380.506 48.8755C382.995 48.8755 385.012 50.8822 385.012 53.3576C385.012 55.833 382.995 57.8397 380.506 57.8397Z" fill="#88D1C3"/>
<path d="M473.96 95.5495C465.261 91.6712 461.655 84.3521 458.685 84.1353C457.536 83.8219 456.34 84.0572 455.313 84.7982C454.286 85.5392 453.498 86.7366 453.092 88.1719C452.686 89.6072 452.69 91.1848 453.102 92.6169C453.515 94.049 454.308 95.2402 455.339 95.9731L455.386 96.0049C458.56 98.2763 463.66 96.1084 472.585 100.832C494.194 112.27 505.721 127.795 500.926 149.389C494.516 178.239 427.053 225.758 385 235.143H490.47C490.47 235.143 522.265 213.049 528.699 182.132C542.591 115.379 486.251 101.029 473.96 95.5495Z" fill="url(#paint3_linear_27839_93571)"/>
</g>
<defs>
<linearGradient id="paint0_linear_27839_93571" x1="267.489" y1="8.38375" x2="267.489" y2="245.062" gradientUnits="userSpaceOnUse">
<stop stop-color="#160E3F"/>
<stop offset="0.796875" stop-color="#26185C"/>
<stop offset="1" stop-color="#321F71"/>
</linearGradient>
<linearGradient id="paint1_linear_27839_93571" x1="445.392" y1="99.4549" x2="485.572" y2="140.208" gradientUnits="userSpaceOnUse">
<stop stop-color="#7FFFE0" stop-opacity="0.5"/>
<stop offset="0.14" stop-color="#7DF7DC" stop-opacity="0.48"/>
<stop offset="0.34" stop-color="#76DFD1" stop-opacity="0.41"/>
<stop offset="0.56" stop-color="#6CB8BF" stop-opacity="0.3"/>
<stop offset="0.81" stop-color="#5E82A6" stop-opacity="0.14"/>
<stop offset="1" stop-color="#50508E" stop-opacity="0"/>
</linearGradient>
<linearGradient id="paint2_linear_27839_93571" x1="455.598" y1="58.1637" x2="502.252" y2="107.741" gradientUnits="userSpaceOnUse">
<stop stop-color="#7FFFE0" stop-opacity="0.5"/>
<stop offset="0.14" stop-color="#7DF7DC" stop-opacity="0.48"/>
<stop offset="0.34" stop-color="#76DFD1" stop-opacity="0.41"/>
<stop offset="0.56" stop-color="#6CB8BF" stop-opacity="0.3"/>
<stop offset="0.81" stop-color="#5E82A6" stop-opacity="0.14"/>
<stop offset="1" stop-color="#50508E" stop-opacity="0"/>
</linearGradient>
<linearGradient id="paint3_linear_27839_93571" x1="451.704" y1="96.6533" x2="465.324" y2="291.41" gradientUnits="userSpaceOnUse">
<stop stop-color="#FF8080"/>
<stop offset="1" stop-color="#FF8080" stop-opacity="0"/>
</linearGradient>
<clipPath id="clip0_27839_93571">
<rect width="535" height="236" fill="white" transform="matrix(-1 0 0 1 535 0)"/>
</clipPath>
<clipPath id="clip1_27839_93571">
<rect width="90" height="48" rx="10" transform="matrix(-1 0 0 1 356 157)" fill="white"/>
</clipPath>
<clipPath id="clip2_27839_93571">
<rect width="88.3337" height="45.3133" fill="white" transform="matrix(-0.999692 -0.0248353 -0.0241661 0.999708 355.543 159.194)"/>
</clipPath>
</defs>
</svg>
