<svg width="535" height="236" viewBox="0 0 535 236" fill="none" xmlns="http://www.w3.org/2000/svg">
<g clip-path="url(#clip0_15793_189152)">
<g clip-path="url(#clip1_15793_189152)">
<rect width="535" height="236" rx="10" fill="#160E3F"/>
<path d="M0 10C0 4.47715 4.47715 0 10 0H525C530.523 0 535 4.47715 535 10V226C535 231.523 530.523 236 525 236H10C4.47716 236 0 231.523 0 226V10Z" fill="url(#paint0_linear_15793_189152)"/>
<path d="M346.633 183.144C351.619 184.682 354.142 182.958 358.222 183.856C363.766 185.076 365.546 187.98 365.688 189.045C365.829 190.111 365.615 190.472 365.28 191.368C364.856 192.502 364.229 193.684 363.504 194.143C362.779 194.601 359.767 195.99 355.376 196.392C350.985 196.795 347.094 195.848 347.094 195.848C339.885 194.83 345.938 190.178 330.719 186.534C293.866 177.711 245.578 177.439 180.443 190.751C93.4161 208.54 -44.3812 275.248 -68.8027 307.308L-79.0665 237.975C-79.0665 237.975 -15.0379 206.678 78.2648 187.901C279.712 147.359 328.791 177.643 346.633 183.144Z" fill="url(#paint1_linear_15793_189152)"/>
<path opacity="0.4" d="M387.094 211.978C367.949 208.662 350.049 208.756 348.77 221.995C347.843 211.541 355.903 204.549 387.255 210.059L387.094 211.978Z" fill="url(#paint2_linear_15793_189152)"/>
<path opacity="0.4" d="M392.357 174.655C378.372 173.072 351.872 171.415 340.175 175.667C340.175 175.667 354.873 171.731 396.111 177.595L392.357 174.655Z" fill="url(#paint3_linear_15793_189152)"/>
<path d="M392.931 186.389L386.188 174.562C392.143 173.069 402.334 172.159 409.368 175.019" fill="#88D1C3"/>
<path d="M420.199 211.031C434.946 209.833 446.374 202.957 445.724 195.673C445.074 188.388 432.592 183.454 417.845 184.652C403.098 185.85 391.669 192.726 392.319 200.01C392.969 207.295 405.451 212.229 420.199 211.031Z" fill="#77A4F2"/>
<path d="M419.474 202.87C434.221 201.672 445.65 194.796 445 187.511C444.35 180.227 431.868 175.293 417.12 176.49C402.373 177.688 390.945 184.564 391.595 191.849C392.245 199.133 404.727 204.067 419.474 202.87Z" fill="white"/>
<path d="M416.282 199.409C429.45 198.34 439.731 193.057 439.245 187.61C438.759 182.164 427.69 178.615 414.523 179.685C401.355 180.754 391.075 186.037 391.561 191.483C392.046 196.93 403.115 200.479 416.282 199.409Z" fill="#88D1C3"/>
<path d="M436.245 198.519L436.894 205.817C436.894 205.817 438.977 205.346 440.014 204.522C441.051 203.699 445.369 200.578 445.077 196.703C444.785 192.827 444.517 191.546 443.184 193.048C441.851 194.549 436.245 198.519 436.245 198.519Z" fill="white"/>
<path d="M403.237 201.545C399.3 200.453 397.768 199.558 395.71 197.929C393.652 196.301 393.512 197.293 391.497 198.27C389.482 199.248 380.143 209.642 380.143 209.642C380.143 209.642 384.817 212.411 391.831 211.841C398.844 211.271 416.289 208.381 417.539 205.33C418.79 202.278 416.617 204.097 412.623 203.428C408.63 202.76 403.237 201.545 403.237 201.545Z" fill="#88D1C3"/>
<path d="M387.311 175.481C394.501 175.122 402.317 175.315 405.62 177.86C405.62 177.86 409.162 175.351 408.669 174.751C408.177 174.15 392.287 173.326 388.839 173.993C385.391 174.659 387.311 175.481 387.311 175.481Z" fill="white"/>
<path d="M399.273 188.176C395.818 187.515 392.307 187.209 388.794 187.263C386.036 187.368 384.942 187.384 384.579 188.482C384.217 189.579 383.945 196.948 384.886 198.241C385.827 199.534 388.279 199.439 389.758 198.108C391.237 196.778 391.638 195.895 394.976 194.422C398.315 192.949 404.298 190.196 399.273 188.176Z" fill="#88D1C3"/>
<path d="M384.717 190.024C389.5 189.569 394.329 189.826 399.045 190.787L396.44 192.732L384.066 193.735L384.717 190.024Z" fill="white"/>
<path d="M382.035 208.79C386.6 209.151 399.812 210.127 411.317 204.206C411.317 204.206 417.838 203.199 418.546 203.619C419.254 204.039 410.098 209.963 400.81 210.662C391.522 211.361 379.445 211.261 382.035 208.79Z" fill="white"/>
<path d="M432.936 186.858C433.691 195.311 402.888 197.801 402.156 189.358C401.939 187.329 402.131 185.281 402.721 183.332C403.31 181.384 404.285 179.574 405.588 178.009C406.892 176.444 408.497 175.154 410.312 174.215C412.127 173.277 414.114 172.708 416.157 172.542C418.201 172.376 420.26 172.616 422.215 173.249C424.17 173.881 425.981 174.894 427.543 176.226C429.105 177.559 430.386 179.185 431.312 181.011C432.238 182.836 432.79 184.824 432.936 186.858Z" fill="#88D1C3"/>
<path d="M450.648 190.15L444.598 190.636L444.828 193.228L450.884 192.737C451.776 192.808 451.69 190.04 450.648 190.15Z" fill="#77A4F2"/>
<path d="M446.37 195.781L445.626 187.468C445.073 181.853 438.619 177.414 428.745 175.822C426.139 173.449 422.847 171.954 419.344 171.553C415.841 171.152 412.309 171.866 409.255 173.591C402.25 170.998 392.691 171.702 386.494 173.141C386.226 173.204 385.976 173.328 385.766 173.504C385.555 173.68 385.389 173.903 385.282 174.155C385.173 174.412 385.126 174.691 385.143 174.97C385.161 175.249 385.243 175.521 385.382 175.764L390.808 185.284C389.242 185.247 387.675 185.295 386.116 185.428C383.042 185.677 382.164 191.518 382.526 195.583C382.794 198.649 383.586 201.128 384.707 202.662L379.831 208.048C379.633 208.271 379.491 208.537 379.415 208.824C379.339 209.112 379.332 209.414 379.394 209.706C379.455 209.998 379.585 210.273 379.771 210.508C379.957 210.742 380.196 210.931 380.467 211.06C380.579 211.113 380.695 211.154 380.815 211.183C385.34 212.362 395.445 213.672 405.351 211.64L405.338 211.67C410.072 212.625 414.916 212.897 419.719 212.477C435.383 211.195 447.088 203.868 446.37 195.781ZM443.026 187.753C443.293 190.739 441.036 193.824 436.674 196.441C432.029 199.225 425.668 201.069 418.761 201.634C408.524 202.468 398.984 200.22 394.688 196.113L401.895 191.99C402.661 192.915 403.635 193.648 404.738 194.128C408.112 195.711 413.236 196.161 418.253 195.753C426.569 195.083 434.737 192.039 434.266 186.763C434.024 184.014 433.095 181.365 431.564 179.055C438.291 180.732 442.689 183.989 443.026 187.753ZM416.289 174.107C418.756 173.902 421.238 174.347 423.486 175.397C424.614 175.929 425.668 176.604 426.623 177.405C428.05 178.595 429.228 180.054 430.088 181.695C430.947 183.337 431.472 185.13 431.632 186.969C431.787 188.738 429.555 190.086 428.118 190.767C428.912 189.976 429.345 189.084 429.259 188.085C429.006 185.209 427.806 182.49 425.845 180.348C423.884 178.207 421.271 176.763 418.412 176.241C415.552 175.718 412.606 176.146 410.029 177.458C407.451 178.77 405.388 180.893 404.157 183.498C405.04 180.926 406.656 178.669 408.81 177.001C410.964 175.332 413.564 174.323 416.293 174.097L416.289 174.107ZM388.191 175.443C393.769 174.298 401.018 173.97 406.584 175.459C405.759 176.166 405.005 176.952 404.333 177.804C399.568 179.402 395.724 181.601 393.167 184.171L388.191 175.443ZM400.819 187.308C400.64 187.23 400.466 187.198 400.264 187.126C398.65 186.531 396.993 186.062 395.307 185.724C396.996 184.123 399.344 182.647 402.151 181.419C401.34 183.285 400.883 185.286 400.805 187.322L400.819 187.308ZM385.21 196.042C385.181 195.815 385.14 195.614 385.108 195.357C384.735 191.153 385.849 188.284 386.311 187.997C393.187 187.438 396.335 188.529 399.385 189.584C399.67 189.685 399.962 189.769 400.249 189.866L393.077 194.003C392.316 194.436 391.631 194.986 391.046 195.634L389.498 197.343L387.421 197.506C386.937 197.575 386.444 197.463 386.036 197.193C385.628 196.922 385.334 196.513 385.21 196.042ZM382.557 208.926L392.616 197.729C394.089 199.159 395.801 200.325 397.673 201.174C402.581 203.473 409.313 204.66 416.612 204.365C405.658 211.81 389.534 210.454 382.557 208.926ZM411.423 209.897C412.883 209.358 414.302 208.719 415.671 207.985L415.85 210.05C414.359 210.064 412.878 210.01 411.423 209.897ZM419.462 209.864C418.863 209.913 418.265 209.952 417.669 209.981L417.387 206.949C418.467 206.261 419.497 205.499 420.471 204.669L420.95 209.735C420.468 209.775 419.983 209.837 419.479 209.888L419.462 209.864ZM422.746 209.481L422.244 203.824C423.342 203.671 424.425 203.488 425.483 203.27L425.986 208.898C424.949 209.129 423.877 209.327 422.77 209.491L422.746 209.481ZM427.782 208.477L427.321 202.883C428.416 202.617 429.494 202.324 430.519 201.988L431.015 207.55C429.987 207.892 428.913 208.203 427.806 208.487L427.782 208.477ZM432.792 206.898L432.3 201.374C433.408 200.967 434.461 200.512 435.47 200.029L435.955 205.467C434.926 205.997 433.87 206.474 432.792 206.898ZM437.702 204.48L437.235 199.11C437.506 198.958 437.789 198.815 438.045 198.669C438.838 198.187 439.603 197.662 440.336 197.096L440.792 202.159C439.841 203.033 438.805 203.81 437.698 204.479L437.702 204.48ZM442.454 200.253L442.039 195.629C442.597 195.088 443.111 194.504 443.578 193.884L443.766 196.001C443.89 197.438 443.406 198.86 442.45 200.252L442.454 200.253Z" fill="#38237C"/>
<path d="M452.849 194.862C454.92 195.765 457.323 194.834 458.217 192.783C459.111 190.732 458.158 188.338 456.088 187.435C454.017 186.532 451.614 187.463 450.72 189.514C449.825 191.565 450.779 193.959 452.849 194.862Z" fill="#88D1C3"/>
<path opacity="0.6" d="M209.947 215.839C208.52 215.839 207.363 214.302 207.363 212.405C207.363 210.508 208.52 208.97 209.947 208.97C211.374 208.97 212.53 210.508 212.53 212.405C212.53 214.302 211.374 215.839 209.947 215.839Z" fill="#86D4C9"/>
<path opacity="0.2" d="M12.1438 78.9959C10.8921 78.9959 9.87737 77.647 9.87737 75.983C9.87737 74.3191 10.8921 72.9702 12.1438 72.9702C13.3955 72.9702 14.4102 74.3191 14.4102 75.983C14.4102 77.647 13.3955 78.9959 12.1438 78.9959Z" fill="#86D4C9"/>
<path d="M273.033 25.6142C271.861 25.6142 270.911 24.3508 270.911 22.7922C270.911 21.2337 271.861 19.9702 273.033 19.9702C274.206 19.9702 275.156 21.2337 275.156 22.7922C275.156 24.3508 274.206 25.6142 273.033 25.6142Z" fill="#86D4C9"/>
<path d="M247.98 79.9873C247.146 79.9873 246.469 79.0881 246.469 77.9788C246.469 76.8695 247.146 75.9702 247.98 75.9702C248.815 75.9702 249.491 76.8695 249.491 77.9788C249.491 79.0881 248.815 79.9873 247.98 79.9873Z" fill="#86D4C9"/>
<path d="M436.599 220.807C435.802 220.807 435.156 219.948 435.156 218.888C435.156 217.829 435.802 216.97 436.599 216.97C437.396 216.97 438.042 217.829 438.042 218.888C438.042 219.948 437.396 220.807 436.599 220.807Z" fill="#86D4C9"/>
<path opacity="0.6" d="M62.5206 162.771C61.5234 162.771 60.715 161.696 60.715 160.37C60.715 159.045 61.5234 157.97 62.5206 157.97C63.5178 157.97 64.3262 159.045 64.3262 160.37C64.3262 161.696 63.5178 162.771 62.5206 162.771Z" fill="#86D4C9"/>
<path d="M500.028 202.97C498.095 202.97 496.528 201.403 496.528 199.47C496.528 197.537 498.095 195.97 500.028 195.97C501.961 195.97 503.528 197.537 503.528 199.47C503.528 201.403 501.961 202.97 500.028 202.97Z" fill="#86D4C9"/>
<path d="M510.447 71.2647C509.613 71.2647 508.936 70.3654 508.936 69.2561C508.936 68.1468 509.613 67.2476 510.447 67.2476C511.282 67.2476 511.958 68.1468 511.958 69.2561C511.958 70.3654 511.282 71.2647 510.447 71.2647Z" fill="#86D4C9"/>
<path d="M517.246 13.0171C516.411 13.0171 515.735 12.1178 515.735 11.0085C515.735 9.89924 516.411 9 517.246 9C518.08 9 518.757 9.89924 518.757 11.0085C518.757 12.1178 518.08 13.0171 517.246 13.0171Z" fill="#86D4C9"/>
<path opacity="0.5" d="M20.3496 155.589L19.0578 169.649L10.317 171.377C10.194 171.404 10.0824 171.489 10.0019 171.616C9.9214 171.743 9.87724 171.904 9.87724 172.069C9.87724 172.235 9.9214 172.396 10.0019 172.523C10.0824 172.65 10.194 172.734 10.317 172.762L19.0578 174.48L20.3496 188.54C20.365 188.71 20.427 188.867 20.5237 188.982C20.6205 189.096 20.7453 189.159 20.8746 189.159C21.004 189.159 21.1288 189.096 21.2256 188.982C21.3223 188.867 21.3842 188.71 21.3997 188.54L22.6915 174.48L31.0017 172.762C31.1247 172.734 31.2363 172.65 31.3168 172.523C31.3973 172.396 31.4414 172.235 31.4414 172.069C31.4414 171.904 31.3973 171.743 31.3168 171.616C31.2363 171.489 31.1247 171.404 31.0017 171.377L22.6915 169.649L21.3997 155.589C21.3842 155.419 21.3223 155.261 21.2256 155.147C21.1288 155.033 21.004 154.97 20.8746 154.97C20.7453 154.97 20.6205 155.033 20.5237 155.147C20.427 155.261 20.365 155.419 20.3496 155.589Z" fill="#86D4C9"/>
<path opacity="0.3" d="M519.18 219.777C518.162 219.777 517.337 218.68 517.337 217.326C517.337 215.973 518.162 214.876 519.18 214.876C520.198 214.876 521.023 215.973 521.023 217.326C521.023 218.68 520.198 219.777 519.18 219.777Z" fill="#86D4C9"/>
</g>
</g>
<defs>
<linearGradient id="paint0_linear_15793_189152" x1="267.489" y1="8.38375" x2="267.489" y2="245.062" gradientUnits="userSpaceOnUse">
<stop stop-color="#160E3F"/>
<stop offset="0.796875" stop-color="#26185C"/>
<stop offset="1" stop-color="#321F71"/>
</linearGradient>
<linearGradient id="paint1_linear_15793_189152" x1="345.446" y1="198.295" x2="-218.09" y2="104.293" gradientUnits="userSpaceOnUse">
<stop stop-color="#FF8080"/>
<stop offset="1" stop-color="#FF8080" stop-opacity="0"/>
</linearGradient>
<linearGradient id="paint2_linear_15793_189152" x1="383.826" y1="205.797" x2="335.754" y2="225.19" gradientUnits="userSpaceOnUse">
<stop stop-color="#7FFFE0" stop-opacity="0.5"/>
<stop offset="0.14" stop-color="#7DF7DC" stop-opacity="0.48"/>
<stop offset="0.34" stop-color="#76DFD1" stop-opacity="0.41"/>
<stop offset="0.56" stop-color="#6CB8BF" stop-opacity="0.3"/>
<stop offset="0.81" stop-color="#5E82A6" stop-opacity="0.14"/>
<stop offset="1" stop-color="#50508E" stop-opacity="0"/>
</linearGradient>
<linearGradient id="paint3_linear_15793_189152" x1="390.251" y1="167.885" x2="333.625" y2="192.276" gradientUnits="userSpaceOnUse">
<stop stop-color="#7FFFE0" stop-opacity="0.5"/>
<stop offset="0.14" stop-color="#7DF7DC" stop-opacity="0.48"/>
<stop offset="0.34" stop-color="#76DFD1" stop-opacity="0.41"/>
<stop offset="0.56" stop-color="#6CB8BF" stop-opacity="0.3"/>
<stop offset="0.81" stop-color="#5E82A6" stop-opacity="0.14"/>
<stop offset="1" stop-color="#50508E" stop-opacity="0"/>
</linearGradient>
<clipPath id="clip0_15793_189152">
<rect width="535" height="236" rx="10" fill="white"/>
</clipPath>
<clipPath id="clip1_15793_189152">
<rect width="535" height="236" fill="white" transform="matrix(-1 0 0 1 535 0)"/>
</clipPath>
</defs>
</svg>
