<svg width="535" height="236" viewBox="0 0 535 236" fill="none" xmlns="http://www.w3.org/2000/svg">
<g clip-path="url(#clip0_19789_36365)">
<rect x="0.5" y="0.5" width="534" height="235" rx="9.5" fill="#160E3F" stroke="#503EAA"/>
<path d="M0.5 10C0.5 4.7533 4.75329 0.5 10 0.5H525C530.247 0.5 534.5 4.7533 534.5 10V226C534.5 231.247 530.247 235.5 525 235.5H10C4.7533 235.5 0.5 231.247 0.5 226V10Z" fill="url(#paint0_linear_19789_36365)" stroke="#503EAA"/>
<path d="M346.634 183.144C351.62 184.682 354.142 182.958 358.222 183.856C363.767 185.076 365.546 187.98 365.688 189.045C365.829 190.111 365.615 190.472 365.28 191.368C364.856 192.502 366.005 193.684 365.28 194.143C364.555 194.601 364 196.904 357.5 197.5C353.109 197.903 348.5 194.143 348.5 194.143C343.905 189.662 345.938 190.178 330.719 186.534C293.866 177.711 245.578 177.439 180.443 190.751C93.4163 208.54 -44.381 275.248 -68.8025 307.308L-79.0662 237.975C-79.0662 237.975 -15.0377 206.678 78.2651 187.901C279.713 147.359 328.791 177.643 346.634 183.144Z" fill="url(#paint1_linear_19789_36365)"/>
<path opacity="0.4" d="M368.994 209.009C349.848 205.692 331.949 205.786 330.669 219.025C329.743 208.571 337.803 201.579 369.154 207.09L368.994 209.009Z" fill="url(#paint2_linear_19789_36365)"/>
<path opacity="0.4" d="M374.256 171.685C360.272 170.102 333.772 168.446 322.075 172.697C322.075 172.697 336.773 168.761 378.01 174.625L374.256 171.685Z" fill="url(#paint3_linear_19789_36365)"/>
<path d="M374.831 183.419L368.088 171.592C374.043 170.099 384.233 169.189 391.267 172.05" fill="#88D1C3"/>
<path d="M402.098 208.062C416.845 206.864 428.274 199.987 427.624 192.703C426.974 185.419 414.492 180.484 399.744 181.682C384.997 182.88 373.569 189.756 374.219 197.041C374.869 204.325 387.351 209.259 402.098 208.062Z" fill="#77A4F2"/>
<path d="M401.373 199.9C416.121 198.702 427.549 191.826 426.899 184.541C426.249 177.257 413.767 172.323 399.02 173.521C384.272 174.718 372.844 181.595 373.494 188.879C374.144 196.164 386.626 201.098 401.373 199.9Z" fill="white"/>
<path d="M398.182 196.439C411.349 195.37 421.63 190.087 421.144 184.641C420.658 179.194 409.59 175.645 396.422 176.715C383.255 177.784 372.974 183.067 373.46 188.514C373.946 193.96 385.014 197.509 398.182 196.439Z" fill="#88D1C3"/>
<path d="M418.144 195.549L418.793 202.847C418.793 202.847 420.876 202.376 421.914 201.553C422.951 200.729 427.269 197.608 426.976 193.733C426.684 189.858 426.416 188.576 425.084 190.078C423.751 191.579 418.144 195.549 418.144 195.549Z" fill="white"/>
<path d="M385.137 198.576C381.2 197.483 379.668 196.588 377.61 194.96C375.552 193.331 375.412 194.323 373.397 195.301C371.382 196.278 362.043 206.672 362.043 206.672C362.043 206.672 366.717 209.442 373.73 208.871C380.743 208.301 398.189 205.412 399.439 202.36C400.689 199.308 398.516 201.127 394.523 200.459C390.529 199.79 385.137 198.576 385.137 198.576Z" fill="#88D1C3"/>
<path d="M369.211 172.511C376.4 172.152 384.216 172.345 387.52 174.891C387.52 174.891 391.061 172.381 390.569 171.781C390.076 171.181 374.186 170.356 370.738 171.023C367.29 171.689 369.211 172.511 369.211 172.511Z" fill="white"/>
<path d="M381.172 185.206C377.718 184.546 374.206 184.24 370.693 184.293C367.935 184.398 366.841 184.414 366.479 185.512C366.116 186.61 365.844 193.979 366.785 195.271C367.726 196.564 370.179 196.469 371.658 195.139C373.136 193.808 373.537 192.926 376.876 191.452C380.214 189.979 386.197 187.227 381.172 185.206Z" fill="#88D1C3"/>
<path d="M366.616 187.055C371.399 186.599 376.228 186.856 380.944 187.818L378.339 189.762L365.966 190.765L366.616 187.055Z" fill="white"/>
<path d="M363.934 205.82C368.499 206.181 381.711 207.157 393.216 201.237C393.216 201.237 399.738 200.229 400.445 200.649C401.153 201.069 391.998 206.993 382.71 207.692C373.421 208.391 361.344 208.291 363.934 205.82Z" fill="white"/>
<path d="M414.835 183.889C415.591 192.342 384.787 194.831 384.055 186.388C383.839 184.359 384.031 182.311 384.62 180.363C385.209 178.414 386.184 176.605 387.488 175.039C388.791 173.474 390.397 172.184 392.211 171.246C394.026 170.307 396.013 169.738 398.057 169.572C400.101 169.406 402.16 169.647 404.115 170.279C406.069 170.912 407.881 171.924 409.442 173.256C411.004 174.589 412.285 176.216 413.211 178.041C414.137 179.866 414.689 181.854 414.835 183.889Z" fill="#88D1C3"/>
<path d="M432.547 187.18L426.497 187.666L426.727 190.258L432.783 189.767C433.675 189.838 433.59 187.071 432.547 187.18Z" fill="#77A4F2"/>
<path d="M428.269 192.811L427.525 184.498C426.972 178.883 420.519 174.444 410.644 172.853C408.038 170.479 404.746 168.984 401.243 168.583C397.741 168.182 394.208 168.896 391.155 170.622C384.149 168.028 374.59 168.732 368.393 170.171C368.125 170.234 367.876 170.358 367.665 170.534C367.455 170.71 367.289 170.933 367.181 171.185C367.073 171.442 367.025 171.721 367.043 172C367.06 172.279 367.142 172.551 367.282 172.795L372.708 182.314C371.141 182.277 369.575 182.325 368.015 182.458C364.941 182.707 364.063 188.548 364.425 192.613C364.693 195.679 365.486 198.159 366.606 199.693L361.73 205.078C361.533 205.301 361.391 205.567 361.315 205.855C361.239 206.142 361.231 206.444 361.293 206.736C361.355 207.029 361.484 207.303 361.67 207.538C361.857 207.773 362.095 207.962 362.367 208.09C362.478 208.143 362.595 208.184 362.714 208.213C367.24 209.392 377.345 210.702 387.25 208.671L387.237 208.701C391.972 209.655 396.815 209.927 401.618 209.507C417.283 208.226 428.988 200.898 428.269 192.811ZM424.925 184.783C425.192 187.769 422.936 190.855 418.573 193.471C413.929 196.255 407.567 198.099 400.661 198.665C390.423 199.498 380.884 197.25 376.588 193.143L383.794 189.021C384.56 189.945 385.534 190.678 386.637 191.159C390.011 192.741 395.135 193.191 400.152 192.783C408.468 192.113 416.636 189.07 416.165 183.793C415.923 181.045 414.995 178.395 413.464 176.085C420.191 177.763 424.588 181.019 424.925 184.783ZM398.188 171.137C400.655 170.932 403.137 171.377 405.385 172.427C406.513 172.959 407.567 173.634 408.522 174.435C409.949 175.625 411.127 177.084 411.987 178.726C412.847 180.367 413.372 182.16 413.531 184C413.687 185.768 411.454 187.116 410.018 187.797C410.812 187.007 411.245 186.115 411.159 185.115C410.906 182.239 409.706 179.52 407.744 177.379C405.783 175.237 403.171 173.794 400.311 173.271C397.452 172.749 394.505 173.177 391.928 174.489C389.351 175.801 387.287 177.924 386.057 180.528C386.939 177.957 388.556 175.7 390.71 174.031C392.864 172.362 395.463 171.354 398.193 171.127L398.188 171.137ZM370.09 172.473C375.668 171.329 382.917 171 388.483 172.489C387.658 173.197 386.905 173.982 386.233 174.834C381.467 176.433 377.624 178.632 375.067 181.201L370.09 172.473ZM382.718 184.339C382.539 184.261 382.365 184.228 382.164 184.156C380.55 183.562 378.892 183.093 377.206 182.754C378.895 181.153 381.244 179.678 384.05 178.449C383.239 180.315 382.783 182.317 382.704 184.352L382.718 184.339ZM367.11 193.072C367.081 192.845 367.04 192.644 367.007 192.388C366.634 188.183 367.748 185.315 368.211 185.027C375.086 184.468 378.234 185.559 381.284 186.615C381.569 186.715 381.862 186.799 382.149 186.896L374.976 191.034C374.216 191.466 373.53 192.016 372.945 192.664L371.397 194.373L369.32 194.537C368.837 194.605 368.344 194.493 367.936 194.223C367.528 193.953 367.234 193.543 367.11 193.072ZM364.457 205.957L374.515 194.759C375.989 196.19 377.7 197.356 379.573 198.205C384.48 200.504 391.213 201.691 398.511 201.395C387.557 208.84 371.434 207.485 364.457 205.957ZM393.323 206.927C394.782 206.388 396.201 205.749 397.57 205.015L397.749 207.081C396.259 207.094 394.778 207.041 393.323 206.927ZM401.361 206.895C400.762 206.944 400.165 206.982 399.569 207.011L399.286 203.979C400.366 203.291 401.397 202.529 402.371 201.699L402.85 206.765C402.367 206.805 401.882 206.868 401.379 206.918L401.361 206.895ZM404.646 206.511L404.143 200.855C405.241 200.702 406.324 200.518 407.382 200.3L407.885 205.928C406.848 206.16 405.776 206.357 404.669 206.521L404.646 206.511ZM409.681 205.507L409.22 199.913C410.315 199.647 411.393 199.354 412.419 199.018L412.914 204.58C411.886 204.923 410.812 205.233 409.705 205.518L409.681 205.507ZM414.691 203.928L414.199 198.404C415.308 197.997 416.361 197.542 417.369 197.06L417.855 202.498C416.825 203.027 415.77 203.505 414.691 203.928ZM419.601 201.511L419.134 196.14C419.405 195.988 419.688 195.845 419.945 195.699C420.737 195.218 421.502 194.693 422.235 194.126L422.691 199.19C421.74 200.063 420.704 200.84 419.598 201.509L419.601 201.511ZM424.353 197.283L423.938 192.659C424.496 192.118 425.011 191.534 425.478 190.914L425.666 193.031C425.79 194.468 425.306 195.89 424.35 197.282L424.353 197.283Z" fill="#38237C"/>
<path d="M434.749 191.892C436.819 192.795 439.222 191.864 440.117 189.813C441.011 187.762 440.057 185.368 437.987 184.465C435.917 183.562 433.513 184.493 432.619 186.544C431.725 188.595 432.678 190.989 434.749 191.892Z" fill="#88D1C3"/>
<path opacity="0.6" d="M209.947 215.839C208.52 215.839 207.363 214.302 207.363 212.405C207.363 210.508 208.52 208.97 209.947 208.97C211.374 208.97 212.53 210.508 212.53 212.405C212.53 214.302 211.374 215.839 209.947 215.839Z" fill="#86D4C9"/>
<path opacity="0.2" d="M12.1438 78.9959C10.8921 78.9959 9.87737 77.647 9.87737 75.983C9.87737 74.3191 10.8921 72.9702 12.1438 72.9702C13.3955 72.9702 14.4102 74.3191 14.4102 75.983C14.4102 77.647 13.3955 78.9959 12.1438 78.9959Z" fill="#86D4C9"/>
<path d="M273.033 25.6142C271.861 25.6142 270.911 24.3508 270.911 22.7922C270.911 21.2337 271.861 19.9702 273.033 19.9702C274.206 19.9702 275.156 21.2337 275.156 22.7922C275.156 24.3508 274.206 25.6142 273.033 25.6142Z" fill="#86D4C9"/>
<path d="M247.98 79.9873C247.146 79.9873 246.469 79.0881 246.469 77.9788C246.469 76.8695 247.146 75.9702 247.98 75.9702C248.815 75.9702 249.491 76.8695 249.491 77.9788C249.491 79.0881 248.815 79.9873 247.98 79.9873Z" fill="#86D4C9"/>
<path d="M436.599 220.807C435.802 220.807 435.156 219.948 435.156 218.888C435.156 217.829 435.802 216.97 436.599 216.97C437.396 216.97 438.042 217.829 438.042 218.888C438.042 219.948 437.396 220.807 436.599 220.807Z" fill="#86D4C9"/>
<path opacity="0.6" d="M62.5206 162.771C61.5234 162.771 60.715 161.696 60.715 160.37C60.715 159.045 61.5234 157.97 62.5206 157.97C63.5178 157.97 64.3262 159.045 64.3262 160.37C64.3262 161.696 63.5178 162.771 62.5206 162.771Z" fill="#86D4C9"/>
<path d="M500.028 202.97C498.095 202.97 496.528 201.403 496.528 199.47C496.528 197.537 498.095 195.97 500.028 195.97C501.961 195.97 503.528 197.537 503.528 199.47C503.528 201.403 501.961 202.97 500.028 202.97Z" fill="#86D4C9"/>
<path d="M510.447 71.2647C509.613 71.2647 508.936 70.3654 508.936 69.2561C508.936 68.1468 509.613 67.2476 510.447 67.2476C511.282 67.2476 511.958 68.1468 511.958 69.2561C511.958 70.3654 511.282 71.2647 510.447 71.2647Z" fill="#86D4C9"/>
<path d="M517.246 13.0171C516.411 13.0171 515.735 12.1178 515.735 11.0085C515.735 9.89924 516.411 9 517.246 9C518.08 9 518.757 9.89924 518.757 11.0085C518.757 12.1178 518.08 13.0171 517.246 13.0171Z" fill="#86D4C9"/>
<path opacity="0.5" d="M20.3496 155.589L19.0578 169.649L10.317 171.377C10.194 171.404 10.0824 171.489 10.0019 171.616C9.9214 171.743 9.87724 171.904 9.87724 172.069C9.87724 172.235 9.9214 172.396 10.0019 172.523C10.0824 172.65 10.194 172.734 10.317 172.762L19.0578 174.48L20.3496 188.54C20.365 188.71 20.427 188.867 20.5237 188.982C20.6205 189.096 20.7453 189.159 20.8746 189.159C21.004 189.159 21.1288 189.096 21.2256 188.982C21.3223 188.867 21.3842 188.71 21.3997 188.54L22.6915 174.48L31.0017 172.762C31.1247 172.734 31.2363 172.65 31.3168 172.523C31.3973 172.396 31.4414 172.235 31.4414 172.069C31.4414 171.904 31.3973 171.743 31.3168 171.616C31.2363 171.489 31.1247 171.404 31.0017 171.377L22.6915 169.649L21.3997 155.589C21.3842 155.419 21.3223 155.261 21.2256 155.147C21.1288 155.033 21.004 154.97 20.8746 154.97C20.7453 154.97 20.6205 155.033 20.5237 155.147C20.427 155.261 20.365 155.419 20.3496 155.589Z" fill="#86D4C9"/>
<path opacity="0.3" d="M519.18 219.777C518.162 219.777 517.337 218.68 517.337 217.326C517.337 215.973 518.162 214.876 519.18 214.876C520.198 214.876 521.023 215.973 521.023 217.326C521.023 218.68 520.198 219.777 519.18 219.777Z" fill="#86D4C9"/>
</g>
<defs>
<linearGradient id="paint0_linear_19789_36365" x1="267.489" y1="8.38375" x2="267.489" y2="245.062" gradientUnits="userSpaceOnUse">
<stop stop-color="#160E3F"/>
<stop offset="0.796875" stop-color="#26185C"/>
<stop offset="1" stop-color="#321F71"/>
</linearGradient>
<linearGradient id="paint1_linear_19789_36365" x1="345.446" y1="198.295" x2="-218.09" y2="104.293" gradientUnits="userSpaceOnUse">
<stop stop-color="#FF8080"/>
<stop offset="1" stop-color="#FF8080" stop-opacity="0"/>
</linearGradient>
<linearGradient id="paint2_linear_19789_36365" x1="365.725" y1="202.828" x2="317.653" y2="222.22" gradientUnits="userSpaceOnUse">
<stop stop-color="#7FFFE0" stop-opacity="0.5"/>
<stop offset="0.14" stop-color="#7DF7DC" stop-opacity="0.48"/>
<stop offset="0.34" stop-color="#76DFD1" stop-opacity="0.41"/>
<stop offset="0.56" stop-color="#6CB8BF" stop-opacity="0.3"/>
<stop offset="0.81" stop-color="#5E82A6" stop-opacity="0.14"/>
<stop offset="1" stop-color="#50508E" stop-opacity="0"/>
</linearGradient>
<linearGradient id="paint3_linear_19789_36365" x1="372.15" y1="164.916" x2="315.525" y2="189.306" gradientUnits="userSpaceOnUse">
<stop stop-color="#7FFFE0" stop-opacity="0.5"/>
<stop offset="0.14" stop-color="#7DF7DC" stop-opacity="0.48"/>
<stop offset="0.34" stop-color="#76DFD1" stop-opacity="0.41"/>
<stop offset="0.56" stop-color="#6CB8BF" stop-opacity="0.3"/>
<stop offset="0.81" stop-color="#5E82A6" stop-opacity="0.14"/>
<stop offset="1" stop-color="#50508E" stop-opacity="0"/>
</linearGradient>
<clipPath id="clip0_19789_36365">
<rect width="535" height="236" fill="white" transform="matrix(-1 0 0 1 535 0)"/>
</clipPath>
</defs>
</svg>
