<svg width="535" height="235" viewBox="0 0 535 235" fill="none" xmlns="http://www.w3.org/2000/svg">
<g clip-path="url(#clip0_13540_12967)">
<g clip-path="url(#clip1_13540_12967)">
<path d="M295.165 196.833C286.311 188.025 286.244 173.684 295.014 164.801C303.784 155.919 318.07 155.858 326.924 164.665C335.777 173.473 335.845 187.814 327.075 196.696C318.305 205.579 304.018 205.64 295.165 196.833Z" fill="#38237C"/>
<path d="M331.836 189.577C330.844 188.489 328.794 186.464 325.29 184.451C321.048 182.01 309.17 178.579 303.872 175.145C296.411 170.323 295.881 165.923 296.156 163.712C298.363 161.772 300.899 160.305 303.616 159.365C303.94 161.702 305.301 169.028 317.899 175.049C324.396 178.151 331.033 177.238 333.277 176.933C334 181.101 333.562 185.491 331.836 189.577Z" fill="#422B8D"/>
<path d="M321.388 200.893C314.774 204.309 306.621 204.363 299.71 200.333C297.285 198.918 295.223 197.121 293.556 195.064C294.487 194.649 296.357 194.077 297.753 193.889C303.937 193.055 310.278 196.654 312.565 198.282C316.215 200.882 319.577 201.042 321.388 200.893Z" fill="#422B8D"/>
<path d="M330.15 192.817C330.042 192.995 329.934 193.166 329.819 193.337C329.719 193.494 329.611 193.645 329.503 193.802C329.259 194.15 329.016 194.485 328.752 194.812C328.516 195.105 328.28 195.398 328.031 195.677C327.939 195.786 327.846 195.881 327.754 195.99C327.647 196.105 327.54 196.221 327.434 196.336C327.327 196.452 327.213 196.567 327.107 196.676C326.979 196.805 326.844 196.941 326.709 197.069C326.575 197.198 326.44 197.327 326.305 197.449C326.185 197.557 326.072 197.665 325.952 197.767C325.69 197.996 325.428 198.219 325.153 198.435L325.146 198.435C323.705 198.719 321.852 198.332 319.225 196.96C315.32 194.923 311.324 190.597 303.746 186.919C296.586 183.446 290.25 184.276 288.759 184.343L288.752 184.343C288.029 179.855 288.642 175.128 290.756 170.794C292.194 170.893 296.744 172.041 305.719 181.233C309.132 184.724 312.195 187.261 314.914 189.08C322.854 194.394 327.853 193.594 329.992 192.785L329.999 192.785C330.054 192.8 330.102 192.809 330.15 192.817Z" fill="#422B8D"/>
<path d="M310.293 167.636C309.788 168.507 308.358 168.617 307.102 167.877C305.838 167.143 305.226 165.842 305.731 164.971C306.237 164.101 307.667 163.991 308.923 164.731C310.18 165.464 310.792 166.766 310.293 167.636Z" fill="#180F43" fill-opacity="0.6"/>
<path d="M303.762 168.496C303.48 168.989 302.635 169.024 301.876 168.581C301.118 168.138 300.735 167.385 301.024 166.891C301.306 166.398 302.152 166.363 302.91 166.806C303.661 167.249 304.044 168.009 303.762 168.496Z" fill="#180F43" fill-opacity="0.6"/>
<path d="M317.964 198.158C317.53 198.899 316.288 198.979 315.189 198.34C314.089 197.694 313.542 196.575 313.968 195.828C314.402 195.088 315.643 195.007 316.743 195.646C317.85 196.286 318.397 197.411 317.964 198.158Z" fill="#180F43" fill-opacity="0.6"/>
<path d="M313.746 198.45C313.514 198.847 312.91 198.923 312.391 198.618C311.872 198.313 311.636 197.751 311.861 197.353C312.092 196.956 312.696 196.881 313.215 197.185C313.741 197.49 313.977 198.059 313.746 198.45Z" fill="#180F43" fill-opacity="0.6"/>
<path d="M313.32 196.291C313.182 196.531 312.801 196.563 312.473 196.374C312.145 196.179 311.987 195.834 312.125 195.594C312.262 195.354 312.644 195.322 312.972 195.511C313.3 195.7 313.457 196.051 313.32 196.291Z" fill="#180F43" fill-opacity="0.6"/>
<path d="M299.336 194.602C298.953 195.267 297.925 195.387 297.044 194.872C296.163 194.356 295.757 193.401 296.14 192.736C296.523 192.071 297.551 191.951 298.432 192.466C299.32 192.982 299.719 193.937 299.336 194.602Z" fill="#180F43" fill-opacity="0.6"/>
<path d="M300.233 191.6C300.016 191.977 299.487 192.089 299.063 191.835C298.64 191.588 298.472 191.077 298.689 190.7C298.906 190.323 299.435 190.211 299.858 190.465C300.289 190.712 300.456 191.223 300.233 191.6Z" fill="#180F43" fill-opacity="0.6"/>
<g opacity="0.5">
<path d="M328.753 194.811C322.733 193.438 315.773 191.402 308.467 188.787C300.955 186.105 294.107 183.189 288.482 180.366C278.485 175.348 272.366 170.629 273.272 168.072C274.157 165.556 281.766 165.669 292.389 168.005C292.095 168.449 291.807 168.901 291.539 169.367C291.438 169.545 291.337 169.716 291.242 169.895C285.577 169.024 281.804 169.264 281.254 170.822C280.696 172.4 283.562 175.036 288.65 178.013C293.628 180.924 300.732 184.16 308.814 187.044C316.91 189.936 324.466 191.931 330.158 192.823C335.947 193.739 339.817 193.515 340.375 191.93C340.918 190.379 338.154 187.808 333.245 184.898C333.388 184.144 333.489 183.375 333.549 182.611C343.478 187.613 349.69 192.488 348.791 195.038C347.876 197.636 339.925 197.362 328.753 194.811Z" fill="#77A4F2"/>
<path d="M327.442 196.329C321.361 194.885 314.615 192.903 307.617 190.442L307.61 190.441C300.646 187.995 294.186 185.339 288.558 182.676C274.671 176.102 265.862 169.48 267.12 165.854C268.371 162.263 279.161 162.573 293.877 166.032C293.649 166.298 293.435 166.578 293.22 166.857C280.861 164.159 271.956 164.063 270.877 167.178C269.783 170.321 276.948 175.908 288.494 181.603C294.086 184.356 300.688 187.127 307.892 189.663C315.13 192.206 322.064 194.186 328.167 195.534C340.671 198.291 349.7 198.397 350.787 195.268C351.866 192.174 344.899 186.682 333.614 181.07C333.616 180.715 333.618 180.361 333.605 180.006C347.196 186.496 355.786 193.001 354.536 196.585C353.278 200.197 342.323 199.862 327.442 196.329Z" fill="#77A4F2"/>
</g>
</g>
<path opacity="0.4" d="M414.286 102.44C435.08 107.543 453.114 115.555 448.577 129.547C454.115 119.355 449.055 108.699 414.969 100.423L414.286 102.44Z" fill="url(#paint0_linear_13540_12967)"/>
<path opacity="0.4" d="M425.407 62.2603C440.226 66.8391 467.715 76.8781 477.655 86.3628C477.655 86.3628 464.546 75.8708 420.322 63.5816L425.407 62.2603Z" fill="url(#paint1_linear_13540_12967)"/>
<path d="M419.661 73.9066L431.678 64.894C426.322 60.7464 416.432 55.317 408.069 55.1074" fill="#88D1C3"/>
<path d="M381.275 86.8399C366.91 79.1033 358.397 67.0756 362.261 59.9753C366.125 52.875 380.902 53.3908 395.267 61.1274C409.631 68.864 418.144 80.8917 414.28 87.992C410.416 95.0923 395.639 94.5765 381.275 86.8399Z" fill="#77A4F2"/>
<path d="M385.6 78.8828C371.235 71.1462 362.723 59.1185 366.587 52.0182C370.45 44.9179 385.228 45.4338 399.592 53.1704C413.957 60.907 422.47 72.9346 418.606 80.0349C414.742 87.1352 399.965 86.6194 385.6 78.8828Z" fill="white"/>
<path d="M390.347 76.785C377.521 69.8772 369.466 59.9734 372.355 54.6644C375.244 49.3553 387.984 50.6513 400.81 57.5592C413.635 64.467 421.691 74.3707 418.802 79.6798C415.913 84.9889 403.173 83.6928 390.347 76.785Z" fill="#88D1C3"/>
<path d="M370.58 67.0539L366.711 74.1681C366.711 74.1681 364.815 72.7695 364.13 71.4756C363.445 70.1818 360.459 65.1071 362.461 61.3062C364.462 57.5052 365.297 56.3242 365.982 58.4363C366.666 60.5484 370.58 67.0539 370.58 67.0539Z" fill="white"/>
<path d="M402.58 84.7204C407.036 85.3532 408.977 85.1235 411.773 84.3818C414.568 83.6402 414.273 84.7083 415.877 86.5907C417.481 88.473 422.335 103.145 422.335 103.145C422.335 103.145 416.396 103.886 409.565 100.206C402.734 96.5263 386.39 85.8813 386.471 82.2335C386.552 78.5857 387.945 81.3911 392.273 82.4794C396.6 83.5676 402.58 84.7204 402.58 84.7204Z" fill="#88D1C3"/>
<path d="M430.139 65.3292C423.036 61.7863 415.059 58.5254 410.602 59.646C410.602 59.646 408.13 55.5347 408.892 55.1437C409.654 54.7527 426.063 60.9438 429.251 63.1446C432.44 65.3454 430.139 65.3292 430.139 65.3292Z" fill="white"/>
<path d="M412.47 72.9147C416.249 73.7723 419.93 75.015 423.453 76.6229C426.192 77.949 427.29 78.4488 427.173 79.7225C427.055 80.9962 424.086 88.5901 422.566 89.4849C421.047 90.3797 418.612 89.1987 417.704 87.1954C416.797 85.1922 416.781 84.12 414.058 81.1494C411.335 78.1788 406.506 72.7414 412.47 72.9147Z" fill="#88D1C3"/>
<path d="M426.354 81.2259C421.726 78.6487 416.736 76.7739 411.55 75.6636L413.325 78.7874L425.378 85.2768L426.354 81.2259Z" fill="white"/>
<path d="M420.8 101.444C416.031 99.7915 402.26 94.9385 393.249 83.8461C393.249 83.8461 387.107 79.9403 386.207 80.0532C385.308 80.166 391.944 90.2226 401.016 95.0393C410.087 99.856 422.327 105.096 420.8 101.444Z" fill="white"/>
<path d="M379.056 56.691C374.571 64.9298 404.581 81.0767 409.038 72.838C410.15 70.8764 410.858 68.7141 411.121 66.4774C411.383 64.2407 411.196 61.9743 410.569 59.8104C409.942 57.6465 408.889 55.6285 407.469 53.874C406.05 52.1196 404.294 50.6639 402.303 49.5918C400.313 48.5197 398.127 47.8527 395.875 47.6297C393.622 47.4068 391.348 47.6323 389.184 48.2931C387.02 48.954 385.01 50.0369 383.271 51.4787C381.532 52.9206 380.099 54.6925 379.056 56.691Z" fill="#88D1C3"/>
<path d="M359.722 52.1968L365.617 55.3649L364.244 57.8921L358.345 54.716C357.413 54.3935 358.717 51.6244 359.722 52.1968Z" fill="#77A4F2"/>
<path d="M361.561 59.7987L365.974 51.697C369.004 46.2475 377.476 44.5989 388.148 47.3519C391.825 46.0975 395.807 46.0371 399.521 47.1795C403.234 48.3219 406.487 50.6081 408.811 53.7083C417.028 54.1759 426.37 59.1175 431.994 63.3175C432.238 63.4995 432.435 63.7358 432.57 64.0074C432.705 64.279 432.774 64.5783 432.772 64.8814C432.768 65.1901 432.693 65.4939 432.553 65.7693C432.412 66.0447 432.21 66.2842 431.962 66.4695L422.29 73.7247C423.888 74.38 425.449 75.1214 426.966 75.9456C429.96 77.5579 428.275 83.87 426.119 87.8321C424.499 90.8229 422.607 92.9874 420.8 94.0475L423.352 101.665C423.453 101.979 423.48 102.312 423.43 102.637C423.38 102.963 423.254 103.272 423.063 103.541C422.872 103.81 422.621 104.031 422.329 104.187C422.038 104.343 421.714 104.429 421.383 104.439C421.247 104.443 421.112 104.434 420.978 104.41C415.889 103.604 405.108 100.464 396 94.0233V94.0596C390.798 92.934 385.788 91.0674 381.122 88.5174C365.868 80.2907 357.275 67.6827 361.561 59.7987ZM368.473 53.1359C366.889 56.0461 367.809 60.1735 371.062 64.7564C374.527 69.6336 380.138 74.3172 386.864 77.9448C396.834 83.3178 407.458 85.2565 413.604 82.9913L408.142 75.6232C406.962 76.2221 405.655 76.5343 404.33 76.5341C400.226 76.647 394.853 74.8372 389.967 72.2051C381.864 67.848 374.956 61.1489 377.756 56.0058C379.21 53.3256 381.314 51.0492 383.878 49.3834C376.346 48.1097 370.471 49.468 368.473 53.1359ZM401.482 51.1206C399.081 49.822 396.378 49.1755 393.646 49.2463C392.273 49.2869 390.911 49.505 389.594 49.8953C387.629 50.4713 385.797 51.4295 384.206 52.7143C382.615 53.9991 381.295 55.585 380.324 57.3803C379.388 59.1054 381.05 61.4593 382.2 62.7854C381.746 61.6326 381.702 60.5363 382.229 59.5609C383.75 56.7561 386.16 54.5289 389.083 53.2246C392.006 51.9202 395.281 51.6114 398.398 52.3461C401.516 53.0807 404.303 54.8178 406.328 57.2881C408.352 59.7584 409.501 62.824 409.597 66.01C409.838 63.0114 409.2 60.0076 407.759 57.3627C406.319 54.7178 404.138 52.5453 401.482 51.1085V51.1206ZM429.267 64.9015C424.138 61.2739 416.963 57.7349 410.687 56.7837C411.208 57.8661 411.623 58.9958 411.927 60.1574C416.035 63.8858 418.948 67.8157 420.398 71.5522L429.267 64.9015ZM411.29 71.3506C411.505 71.3506 411.696 71.395 411.931 71.4111C413.822 71.5217 415.703 71.7791 417.554 72.181C416.553 69.8109 414.832 67.2756 412.538 64.7887C412.536 67.0399 412.116 69.2714 411.299 71.3708L411.29 71.3506ZM423.206 87.1107C423.336 86.893 423.465 86.7076 423.611 86.4617C425.84 82.3625 425.977 78.9606 425.637 78.4648C418.94 74.8573 415.281 74.5712 411.736 74.293C411.404 74.2689 411.072 74.2245 410.739 74.1963L416.16 81.5644C416.738 82.3392 417.188 83.2005 417.493 84.1158L418.304 86.5343L420.33 87.6185C420.788 87.9014 421.335 88.006 421.866 87.9123C422.396 87.8185 422.874 87.5331 423.206 87.1107ZM420.212 101.351L414.986 85.5467C412.868 86.3457 410.626 86.7713 408.361 86.8043C402.393 86.9655 395.072 85.192 387.832 81.6652C395.615 94.0596 412.494 99.8154 420.212 101.351ZM390.636 89.5694C389.399 88.3776 388.247 87.1022 387.188 85.7523L386.098 87.7677C387.597 88.4408 389.116 89.0413 390.636 89.5694ZM382.532 85.9821C383.116 86.2964 383.702 86.6001 384.291 86.893L385.911 83.9425C385.124 82.7669 384.418 81.5386 383.801 80.2665L381.086 85.192C381.556 85.446 382.018 85.7241 382.504 85.9982L382.532 85.9821ZM379.384 84.14L382.382 78.626C381.341 77.9852 380.328 77.3201 379.356 76.6308L376.37 82.1166C377.315 82.8099 378.311 83.4844 379.356 84.14H379.384ZM374.741 80.8953L377.671 75.4257C376.682 74.6719 375.722 73.898 374.834 73.104L371.885 78.5253C372.772 79.3274 373.72 80.1174 374.713 80.8953H374.741ZM370.378 77.0783L373.307 71.6932C372.367 70.7904 371.504 69.8633 370.698 68.9282L367.813 74.2285C368.619 75.2208 369.475 76.1719 370.378 77.0783ZM366.484 72.455L369.32 67.2151C369.114 66.9411 368.891 66.671 368.696 66.409C368.108 65.5704 367.567 64.6998 367.076 63.8011L364.385 68.7347C364.961 70.0408 365.666 71.287 366.488 72.455H366.484ZM363.547 66.0664L366.002 61.5601C365.677 60.7645 365.414 59.9452 365.216 59.1094L364.094 61.1731C363.336 62.5758 363.198 64.2324 363.551 66.0664H363.547Z" fill="#38237C"/>
<path d="M355.423 56.0019C352.935 56.0019 350.918 53.9951 350.918 51.5197C350.918 49.0443 352.935 47.0376 355.423 47.0376C357.912 47.0376 359.929 49.0443 359.929 51.5197C359.929 53.9951 357.912 56.0019 355.423 56.0019Z" fill="#88D1C3"/>
<path d="M473.919 95.904C465.22 92.0257 461.614 84.7065 458.644 84.4898C457.495 84.1764 456.298 84.4116 455.272 85.1527C454.245 85.8937 453.457 87.0911 453.051 88.5264C452.645 89.9617 452.649 91.5393 453.061 92.9714C453.474 94.4035 454.267 95.5947 455.298 96.3276L455.345 96.3594C458.519 98.6307 463.619 96.4629 472.544 101.186C494.153 112.625 505.68 128.15 500.885 149.743C494.475 178.594 427.011 226.112 384.959 235.498H490.429C490.429 235.498 522.224 213.404 528.658 182.486C542.55 115.733 486.21 101.383 473.919 95.904Z" fill="url(#paint2_linear_13540_12967)"/>
<path opacity="0.6" d="M425.052 128.382C423.598 128.382 422.419 126.844 422.419 124.947C422.419 123.05 423.598 121.513 425.052 121.513C426.506 121.513 427.685 123.05 427.685 124.947C427.685 126.844 426.506 128.382 425.052 128.382Z" fill="#77A4F2"/>
<path opacity="0.2" d="M507.75 89.3757C506.474 89.3757 505.44 88.0269 505.44 86.3629C505.44 84.699 506.474 83.3501 507.75 83.3501C509.026 83.3501 510.06 84.699 510.06 86.3629C510.06 88.0269 509.026 89.3757 507.75 89.3757Z" fill="#77A4F2"/>
<path d="M470.943 13.6738C469.749 13.6738 468.78 12.4103 468.78 10.8518C468.78 9.29324 469.749 8.02979 470.943 8.02979C472.138 8.02979 473.107 9.29324 473.107 10.8518C473.107 12.4103 472.138 13.6738 470.943 13.6738Z" fill="#77A4F2"/>
<path d="M358.398 36.1494C357.548 36.1494 356.858 35.2502 356.858 34.1409C356.858 33.0316 357.548 32.1323 358.398 32.1323C359.249 32.1323 359.938 33.0316 359.938 34.1409C359.938 35.2502 359.249 36.1494 358.398 36.1494Z" fill="#77A4F2"/>
<path d="M390.032 217.742C389.219 217.742 388.561 216.883 388.561 215.824C388.561 214.765 389.219 213.906 390.032 213.906C390.844 213.906 391.502 214.765 391.502 215.824C391.502 216.883 390.844 217.742 390.032 217.742Z" fill="#77A4F2"/>
<path d="M315.494 124.744C314.478 124.744 313.654 123.669 313.654 122.344C313.654 121.018 314.478 119.943 315.494 119.943C316.51 119.943 317.334 121.018 317.334 122.344C317.334 123.669 316.51 124.744 315.494 124.744Z" fill="#77A4F2"/>
<path d="M360.946 185.163C360.228 185.163 359.645 184.404 359.645 183.466C359.645 182.529 360.228 181.769 360.946 181.769C361.665 181.769 362.247 182.529 362.247 183.466C362.247 184.404 361.665 185.163 360.946 185.163Z" fill="#77A4F2"/>
<path d="M439.71 231.52C438.078 231.52 436.754 229.793 436.754 227.664C436.754 225.534 438.078 223.807 439.71 223.807C441.343 223.807 442.667 225.534 442.667 227.664C442.667 229.793 441.343 231.52 439.71 231.52Z" fill="#77A4F2"/>
<path d="M520.068 70.2944C519.217 70.2944 518.528 69.3952 518.528 68.2859C518.528 67.1766 519.217 66.2773 520.068 66.2773C520.918 66.2773 521.607 67.1766 521.607 68.2859C521.607 69.3952 520.918 70.2944 520.068 70.2944Z" fill="#77A4F2"/>
<path d="M526.996 12.0469C526.146 12.0469 525.457 11.1476 525.457 10.0383C525.457 8.92903 526.146 8.02979 526.996 8.02979C527.847 8.02979 528.536 8.92903 528.536 10.0383C528.536 11.1476 527.847 12.0469 526.996 12.0469Z" fill="#77A4F2"/>
<path d="M475.661 135.187L474.344 149.247L465.437 150.975C465.312 151.003 465.198 151.088 465.116 151.214C465.034 151.341 464.989 151.502 464.989 151.668C464.989 151.834 465.034 151.994 465.116 152.121C465.198 152.248 465.312 152.333 465.437 152.361L474.344 154.078L475.661 168.138C475.677 168.308 475.74 168.466 475.838 168.58C475.937 168.694 476.064 168.757 476.196 168.757C476.328 168.757 476.455 168.694 476.554 168.58C476.652 168.466 476.715 168.308 476.731 168.138L478.047 154.078L486.516 152.361C486.641 152.333 486.755 152.248 486.837 152.121C486.919 151.994 486.964 151.834 486.964 151.668C486.964 151.502 486.919 151.341 486.837 151.214C486.755 151.088 486.641 151.003 486.516 150.975L478.047 149.247L476.731 135.187C476.715 135.017 476.652 134.86 476.554 134.745C476.455 134.631 476.328 134.568 476.196 134.568C476.064 134.568 475.937 134.631 475.838 134.745C475.74 134.86 475.677 135.017 475.661 135.187Z" fill="#77A4F2"/>
<path opacity="0.3" d="M528.967 218.807C527.93 218.807 527.089 217.71 527.089 216.356C527.089 215.003 527.93 213.906 528.967 213.906C530.005 213.906 530.846 215.003 530.846 216.356C530.846 217.71 530.005 218.807 528.967 218.807Z" fill="#77A4F2"/>
<path d="M53.1262 180.747L55.8018 178.529C56.5683 177.888 56.6886 176.732 56.0874 175.935C55.4711 175.139 54.3588 175.014 53.5922 175.639L50.9167 177.857C50.1501 178.498 50.0298 179.654 50.6311 180.451C51.2474 181.247 52.3597 181.372 53.1262 180.747Z" fill="#342669"/>
<path d="M83.2773 209.341L85.1411 206.357C85.6823 205.498 85.4418 204.357 84.6151 203.811C83.7883 203.248 82.6911 203.498 82.165 204.342L80.3011 207.326C79.76 208.185 80.0005 209.326 80.8272 209.872C81.6539 210.435 82.7512 210.201 83.2773 209.341Z" fill="#342669"/>
<path d="M65.6784 175.065L67.5122 175.003C68.4892 174.972 69.2558 174.128 69.2257 173.097C69.1956 172.081 68.384 171.285 67.3919 171.316L65.5581 171.378C64.5811 171.41 63.8145 172.253 63.8446 173.284C63.8747 174.3 64.7014 175.097 65.6784 175.065Z" fill="#342669"/>
<path d="M48.6476 198.187L48.5875 196.281C48.5574 195.265 47.7457 194.469 46.7537 194.5C45.7767 194.531 45.0101 195.375 45.0401 196.406L45.1003 198.312C45.1303 199.328 45.942 200.124 46.934 200.093C47.9111 200.046 48.6776 199.203 48.6476 198.187Z" fill="#342669"/>
<path d="M87.8477 198.749L88.0582 196.843C88.1634 195.827 87.4719 194.921 86.4949 194.812C85.5179 194.702 84.6461 195.421 84.5409 196.437L84.3305 198.343C84.2252 199.358 84.9167 200.264 85.8937 200.374C86.8557 200.483 87.7275 199.764 87.8477 198.749Z" fill="#342669"/>
<path d="M58.012 215.404L59.7256 216.107C60.6425 216.482 61.6646 216.014 62.0253 215.061C62.3861 214.108 61.9351 213.045 61.0182 212.67L59.3047 211.967C58.3878 211.592 57.3657 212.061 57.0049 213.014C56.6442 213.967 57.0951 215.029 58.012 215.404Z" fill="#342669"/>
<path d="M64.167 215.617C52.9386 214.317 44.8534 203.802 46.1084 192.131C47.3633 180.461 57.4831 172.054 68.7116 173.355C79.94 174.655 88.0251 185.17 86.7702 196.84C85.5152 208.511 75.3955 216.918 64.167 215.617Z" fill="#342669"/>
<path d="M75.1904 182.81C75.1604 183.809 74.7545 184.794 74.1232 185.591C73.507 186.403 72.6352 187.012 71.6882 187.356C70.7262 187.7 69.5989 187.731 68.667 187.278C67.735 186.856 66.9985 186.09 66.5927 185.2C67.2991 185.856 68.0807 186.356 68.9075 186.606C69.3133 186.731 69.7342 186.778 70.155 186.747C70.5759 186.747 70.9817 186.622 71.3876 186.497C71.583 186.419 71.7934 186.34 71.9888 186.247C72.1842 186.137 72.3796 186.044 72.56 185.919C72.9508 185.7 73.2665 185.403 73.5971 185.106C74.2585 184.466 74.7996 183.7 75.1904 182.81Z" fill="#504482"/>
<path d="M67.7508 183.17C67.7208 182.482 67.9763 181.779 68.3972 181.201C68.818 180.623 69.4193 180.17 70.0806 179.935C70.757 179.685 71.5687 179.685 72.215 180.029C72.8614 180.357 73.3574 180.904 73.5979 181.56C73.0718 181.154 72.5307 180.857 71.9745 180.717C71.4334 180.576 70.8923 180.639 70.3813 180.826C69.3141 181.201 68.4122 181.982 67.7508 183.17Z" fill="#504482"/>
<path d="M59.3037 196.891C59.4991 197.531 59.424 198.265 59.1384 198.906C58.8528 199.547 58.3718 200.125 57.7856 200.484C57.1844 200.875 56.4027 201 55.7263 200.812C55.05 200.625 54.4788 200.203 54.1331 199.64C54.7193 199.906 55.2904 200.078 55.8466 200.093C56.3877 200.125 56.8837 199.968 57.3347 199.687C57.8006 199.406 58.2215 199.015 58.5522 198.547C58.8678 198.078 59.1234 197.531 59.3037 196.891Z" fill="#504482"/>
<path d="M54.8392 198.797C54.6438 198.359 54.6738 197.828 54.8542 197.359C55.0346 196.891 55.3803 196.484 55.8012 196.219C56.2371 195.938 56.8233 195.844 57.3043 196C57.7852 196.156 58.1761 196.484 58.3715 196.922C57.9356 196.797 57.5448 196.719 57.184 196.734C56.8383 196.75 56.5377 196.844 56.2521 197.016C55.6508 197.391 55.1999 197.922 54.8392 198.797Z" fill="#504482"/>
<path d="M52.525 191.329C52.8407 191.704 53.006 192.219 52.9609 192.75C52.9158 193.297 52.6453 193.828 52.2244 194.172C51.7885 194.563 51.1572 194.656 50.6762 194.531C50.1802 194.406 49.7593 194.141 49.4737 193.75C49.9397 193.797 50.3606 193.844 50.7514 193.813C51.1272 193.781 51.4278 193.672 51.6683 193.453C51.9238 193.235 52.1493 192.938 52.2845 192.594C52.4198 192.25 52.4799 191.829 52.525 191.329Z" fill="#504482"/>
<path d="M49.7729 193.094C49.5023 192.86 49.352 192.5 49.367 192.094C49.3821 191.688 49.5775 191.297 49.8931 191.032C50.2238 190.735 50.7048 190.672 51.0505 190.782C51.4112 190.891 51.6968 191.11 51.8622 191.438C51.5165 191.454 51.2309 191.469 50.9904 191.516C50.7499 191.563 50.5996 191.641 50.4643 191.75C50.314 191.875 50.1787 192.032 50.0735 192.25C49.9382 192.469 49.848 192.735 49.7729 193.094Z" fill="#504482"/>
<path d="M81.0552 188.33C81.0552 188.83 80.8447 189.314 80.469 189.689C80.0932 190.064 79.5521 190.283 79.011 190.252C78.4398 190.236 77.9137 189.877 77.6281 189.455C77.3425 189.017 77.1922 188.533 77.2223 188.033C77.5379 188.393 77.8235 188.721 78.1392 188.955C78.4398 189.189 78.7404 189.314 79.056 189.33C79.3867 189.346 79.7324 189.283 80.0631 189.111C80.3938 188.939 80.7245 188.674 81.0552 188.33Z" fill="#504482"/>
<path d="M77.884 187.751C77.8239 187.391 77.9592 187.017 78.2147 186.735C78.4852 186.454 78.8761 186.282 79.2819 186.298C79.7178 186.298 80.1086 186.595 80.304 186.907C80.4994 187.235 80.5746 187.595 80.4994 187.954C80.2288 187.735 80.0034 187.532 79.7929 187.407C79.5825 187.282 79.4172 187.22 79.2518 187.22C79.0564 187.204 78.861 187.235 78.6356 187.313C78.4101 187.392 78.1696 187.532 77.884 187.751Z" fill="#504482"/>
<path d="M68.1114 201.358C70.2608 202.67 73.0265 201.92 74.2892 199.671C75.5518 197.421 74.8453 194.546 72.6959 193.234C70.5464 191.921 67.7807 192.671 66.5181 194.921C65.2555 197.171 65.962 200.045 68.1114 201.358Z" fill="#3B2D75"/>
<path d="M72.7407 195.327C73.9131 196.045 74.6196 197.264 74.7398 198.576C75.296 196.561 74.5143 194.327 72.6956 193.218C70.5461 191.905 67.7804 192.671 66.5178 194.905C65.6009 196.53 65.7212 198.467 66.6531 199.92C66.4427 198.904 66.578 197.811 67.1341 196.858C68.2765 194.827 70.8017 194.139 72.7407 195.327Z" fill="#504482"/>
<path d="M76.5292 198.793C76.439 200.012 75.9279 201.199 75.1614 202.168C74.3948 203.152 73.3276 203.871 72.1852 204.308C71.0278 204.73 69.66 204.777 68.5327 204.23C67.3903 203.714 66.4884 202.808 65.9323 201.746C66.774 202.574 67.736 203.23 68.7732 203.558C69.0287 203.652 69.2992 203.683 69.5548 203.73C69.8253 203.746 70.0809 203.792 70.3514 203.761C70.8775 203.761 71.3886 203.621 71.8996 203.449C72.1551 203.355 72.4107 203.246 72.6512 203.136C72.8917 202.996 73.1322 202.886 73.3576 202.73C73.8386 202.449 74.2445 202.074 74.6503 201.699C75.4469 200.887 76.0933 199.918 76.5292 198.793Z" fill="#504482"/>
<path d="M81.2654 201.155C82.1372 201.483 83.0992 200.998 83.4148 200.077C83.7305 199.155 83.2645 198.155 82.3927 197.842C81.5209 197.514 80.5589 197.999 80.2433 198.92C79.9276 199.827 80.3936 200.827 81.2654 201.155Z" fill="#3B2D75"/>
<path d="M82.5429 198.608C83.0239 198.78 83.3546 199.186 83.4899 199.655C83.55 198.874 83.1141 198.108 82.3776 197.842C81.5058 197.514 80.5438 197.999 80.2281 198.92C80.0027 199.577 80.183 200.28 80.6189 200.748C80.4686 200.389 80.4536 199.983 80.5889 199.592C80.8745 198.749 81.7613 198.311 82.5429 198.608Z" fill="#504482"/>
<path d="M84.1662 199.592C84.2564 200.045 84.1512 200.53 83.9407 200.952C83.7303 201.373 83.3846 201.733 82.9938 201.983C82.5879 202.233 82.0769 202.342 81.6109 202.217C81.1449 202.108 80.7541 201.826 80.4986 201.451C80.8744 201.67 81.2802 201.826 81.671 201.858C82.0618 201.889 82.4376 201.78 82.7683 201.576C83.4447 201.17 83.9557 200.483 84.1662 199.592Z" fill="#504482"/>
<path d="M68.5019 211.123C69.8096 211.342 71.0421 210.435 71.2526 209.061C71.478 207.701 70.5912 206.42 69.2835 206.186C67.9758 205.951 66.7433 206.873 66.5328 208.248C66.3224 209.607 67.2092 210.888 68.5019 211.123Z" fill="#3B2D75"/>
<path d="M69.7046 207.215C70.411 207.34 70.9822 207.809 71.2828 208.434C71.1927 207.324 70.396 206.371 69.2987 206.184C67.991 205.965 66.7585 206.871 66.5481 208.246C66.3977 209.23 66.8036 210.168 67.5401 210.699C67.2545 210.246 67.1192 209.668 67.2094 209.09C67.4048 207.856 68.5171 207.012 69.7046 207.215Z" fill="#504482"/>
<path d="M72.2149 208.2C72.3803 208.825 72.3502 209.512 72.1398 210.137C71.9294 210.778 71.5386 211.34 71.0576 211.777C70.5615 212.215 69.9002 212.496 69.2388 212.465C68.5774 212.449 67.9762 212.168 67.4952 211.762C68.0514 212.027 68.6526 212.152 69.2238 212.106C69.795 212.074 70.321 211.809 70.7569 211.434C71.1928 211.043 71.5536 210.559 71.8091 210.012C72.0496 209.45 72.1999 208.84 72.2149 208.2Z" fill="#504482"/>
<path d="M60.4455 185.935C59.1829 187.513 56.7629 187.607 55.0494 186.123C53.3208 184.639 52.9601 182.154 54.2076 180.577C55.4702 178.999 57.8902 178.905 59.6038 180.389C61.3324 181.858 61.7081 184.342 60.4455 185.935Z" fill="#3B2D75"/>
<path d="M54.8526 182.279C54.1612 183.139 54.0109 184.295 54.3416 185.373C53.2443 183.904 53.1391 181.92 54.2063 180.577C55.4689 178.999 57.8889 178.905 59.6025 180.389C60.85 181.451 61.3911 183.045 61.1206 184.436C60.9552 183.576 60.4893 182.733 59.7528 182.092C58.2046 180.764 56.01 180.842 54.8526 182.279Z" fill="#504482"/>
<path d="M62.069 183.263C62.5199 184.169 62.6101 185.294 62.2644 186.341C62.1141 186.872 61.7984 187.341 61.4377 187.747C61.0769 188.153 60.641 188.45 60.16 188.716C59.664 188.919 59.1229 189.059 58.5968 189.075C58.0707 189.075 57.5446 189.013 57.0636 188.856C56.0866 188.56 55.2148 188.028 54.5084 187.325C55.4102 187.7 56.3121 187.997 57.229 188.153C58.1309 188.294 59.0327 188.247 59.7993 187.888C60.1751 187.7 60.5509 187.45 60.8515 187.138C61.1671 186.841 61.4377 186.482 61.6331 186.075C62.0089 185.247 62.1592 184.263 62.069 183.263Z" fill="#504482"/>
<path d="M491.722 27.7671L493.031 26.6821C493.406 26.3688 493.464 25.8034 493.17 25.4138C492.869 25.0241 492.325 24.963 491.95 25.2686L490.642 26.3536C490.267 26.6668 490.208 27.2322 490.502 27.6219C490.803 28.0116 491.347 28.0727 491.722 27.7671Z" fill="#30206D"/>
<path d="M506.468 41.7508L507.379 40.2915C507.644 39.8712 507.526 39.3135 507.122 39.046C506.718 38.771 506.181 38.8932 505.924 39.3058L505.012 40.7652C504.748 41.1854 504.865 41.7432 505.269 42.0106C505.674 42.2857 506.21 42.1711 506.468 41.7508Z" fill="#30206D"/>
<path d="M497.861 24.988L498.758 24.9574C499.236 24.9422 499.61 24.5296 499.596 24.0253C499.581 23.5286 499.184 23.139 498.699 23.1542L497.802 23.1848C497.324 23.2001 496.949 23.6127 496.964 24.117C496.979 24.6136 497.383 25.0033 497.861 24.988Z" fill="#30206D"/>
<path d="M489.532 36.2958L489.503 35.3637C489.488 34.867 489.091 34.4773 488.606 34.4926C488.128 34.5079 487.753 34.9205 487.768 35.4248L487.797 36.3569C487.812 36.8536 488.209 37.2433 488.694 37.228C489.172 37.2051 489.547 36.7925 489.532 36.2958Z" fill="#30206D"/>
<path d="M508.703 36.5705L508.806 35.6383C508.857 35.1417 508.519 34.6985 508.041 34.645C507.563 34.5915 507.137 34.943 507.086 35.4397L506.983 36.3718C506.931 36.8685 507.269 37.3116 507.747 37.3651C508.218 37.4186 508.644 37.0671 508.703 36.5705Z" fill="#30206D"/>
<path d="M494.112 44.7158L494.95 45.0597C495.398 45.243 495.898 45.0138 496.074 44.5477C496.251 44.0817 496.03 43.5621 495.582 43.3787L494.744 43.0349C494.295 42.8515 493.796 43.0807 493.619 43.5468C493.443 44.0129 493.663 44.5325 494.112 44.7158Z" fill="#30206D"/>
<path d="M497.122 44.8199C491.63 44.184 487.676 39.0417 488.29 33.3342C488.904 27.6267 493.853 23.5154 499.344 24.1513C504.836 24.7872 508.79 29.9296 508.176 35.6371C507.562 41.3445 502.613 45.4559 497.122 44.8199Z" fill="#30206D"/>
<path d="M502.513 28.7754C502.498 29.2644 502.3 29.7458 501.991 30.1354C501.689 30.5327 501.263 30.8307 500.8 30.9988C500.329 31.1669 499.778 31.1822 499.322 30.9606C498.867 30.7543 498.506 30.3799 498.308 29.9444C498.653 30.2653 499.036 30.5098 499.44 30.6321C499.638 30.6932 499.844 30.7161 500.05 30.7008C500.256 30.7008 500.454 30.6397 500.653 30.5786C500.748 30.5404 500.851 30.5022 500.947 30.4563C501.043 30.4029 501.138 30.357 501.226 30.2959C501.417 30.1889 501.572 30.0437 501.733 29.8986C502.057 29.5853 502.322 29.2109 502.513 28.7754Z" fill="#1B1046"/>
<path d="M498.874 28.9515C498.86 28.6153 498.985 28.2714 499.19 27.9887C499.396 27.706 499.69 27.4845 500.014 27.3698C500.345 27.2476 500.742 27.2476 501.058 27.4157C501.374 27.5761 501.616 27.8436 501.734 28.1645C501.477 27.9658 501.212 27.8206 500.94 27.7519C500.675 27.6831 500.411 27.7137 500.161 27.8054C499.639 27.9887 499.198 28.3708 498.874 28.9515Z" fill="#1B1046"/>
<path d="M494.743 35.6621C494.839 35.9754 494.802 36.3345 494.662 36.6478C494.523 36.961 494.288 37.2437 494.001 37.4195C493.707 37.6105 493.325 37.6716 492.994 37.5799C492.663 37.4882 492.384 37.2819 492.215 37.0069C492.501 37.1368 492.781 37.2208 493.053 37.2284C493.317 37.2437 493.56 37.1673 493.78 37.0298C494.008 36.8923 494.214 36.7012 494.376 36.472C494.53 36.2428 494.655 35.9754 494.743 35.6621Z" fill="#1B1046"/>
<path d="M492.56 36.5939C492.464 36.38 492.479 36.1202 492.567 35.891C492.655 35.6618 492.825 35.4631 493.03 35.3332C493.244 35.1957 493.53 35.1499 493.765 35.2263C494.001 35.3027 494.192 35.4631 494.287 35.6771C494.074 35.6159 493.883 35.5777 493.707 35.5854C493.538 35.593 493.391 35.6389 493.251 35.7229C492.957 35.9063 492.736 36.1661 492.56 36.5939Z" fill="#1B1046"/>
<path d="M491.428 32.9414C491.583 33.1248 491.663 33.3769 491.641 33.6367C491.619 33.9041 491.487 34.1639 491.281 34.332C491.068 34.523 490.759 34.5689 490.524 34.5077C490.281 34.4466 490.076 34.3167 489.936 34.1257C490.164 34.1486 490.37 34.1716 490.561 34.1563C490.744 34.141 490.892 34.0875 491.009 33.9805C491.134 33.8736 491.244 33.7284 491.311 33.5603C491.377 33.3922 491.406 33.1859 491.428 32.9414Z" fill="#1B1046"/>
<path d="M490.082 33.8049C489.95 33.6902 489.876 33.5145 489.884 33.3159C489.891 33.1172 489.987 32.9262 490.141 32.7963C490.303 32.6511 490.538 32.6205 490.707 32.674C490.883 32.7275 491.023 32.8345 491.104 32.9949C490.935 33.0026 490.795 33.0102 490.678 33.0331C490.56 33.0561 490.487 33.0943 490.42 33.1478C490.347 33.2089 490.281 33.2853 490.229 33.3923C490.163 33.4992 490.119 33.6291 490.082 33.8049Z" fill="#1B1046"/>
<path d="M505.381 31.4753C505.381 31.7198 505.278 31.9566 505.094 32.14C504.911 32.3234 504.646 32.4303 504.381 32.4151C504.102 32.4074 503.845 32.2317 503.705 32.0254C503.565 31.8114 503.492 31.5746 503.506 31.3301C503.661 31.5058 503.801 31.6663 503.955 31.7809C504.102 31.8955 504.249 31.9566 504.403 31.9643C504.565 31.9719 504.734 31.9413 504.896 31.8573C505.058 31.7732 505.219 31.6433 505.381 31.4753Z" fill="#1B1046"/>
<path d="M503.83 31.192C503.801 31.0163 503.867 30.8329 503.992 30.6954C504.124 30.5578 504.315 30.4738 504.514 30.4814C504.727 30.4814 504.918 30.6266 505.014 30.7794C505.109 30.9399 505.146 31.1156 505.109 31.2914C504.977 31.1844 504.867 31.0851 504.764 31.0239C504.661 30.9628 504.58 30.9322 504.499 30.9322C504.403 30.9246 504.308 30.9399 504.198 30.9781C504.087 31.0163 503.97 31.0851 503.83 31.192Z" fill="#1B1046"/>
<path d="M499.051 37.8466C500.102 38.4884 501.454 38.1216 502.072 37.0214C502.689 35.9211 502.344 34.5152 501.293 33.8734C500.241 33.2316 498.889 33.5984 498.271 34.6986C497.654 35.7989 497.999 37.2048 499.051 37.8466Z" fill="#1B1146"/>
<path d="M501.315 34.8969C501.888 35.2484 502.233 35.8443 502.292 36.4861C502.564 35.5005 502.182 34.4079 501.293 33.8654C500.241 33.2236 498.889 33.598 498.271 34.6906C497.823 35.4852 497.882 36.4327 498.337 37.1432C498.235 36.6466 498.301 36.1118 498.573 35.6457C499.131 34.6524 500.366 34.3162 501.315 34.8969Z" fill="#1B1046"/>
<path d="M503.167 36.5923C503.123 37.1883 502.873 37.7689 502.499 38.2427C502.124 38.724 501.602 39.0755 501.043 39.2894C500.477 39.4957 499.808 39.5187 499.257 39.2512C498.698 38.9991 498.257 38.5559 497.985 38.0364C498.397 38.4413 498.867 38.7622 499.374 38.9227C499.499 38.9685 499.632 38.9838 499.757 39.0067C499.889 39.0144 500.014 39.0373 500.146 39.022C500.404 39.022 500.653 38.9533 500.903 38.8692C501.028 38.8234 501.153 38.7699 501.271 38.7164C501.389 38.6476 501.506 38.5941 501.616 38.5177C501.852 38.3802 502.05 38.1968 502.249 38.0135C502.638 37.6161 502.954 37.1424 503.167 36.5923Z" fill="#1B1046"/>
<path d="M505.484 37.7472C505.91 37.9077 506.38 37.6708 506.535 37.22C506.689 36.7692 506.461 36.2802 506.035 36.1274C505.609 35.9669 505.138 36.2038 504.984 36.6546C504.829 37.0977 505.057 37.5867 505.484 37.7472Z" fill="#1B1146"/>
<path d="M506.108 36.5018C506.344 36.5858 506.505 36.7845 506.572 37.0137C506.601 36.6317 506.388 36.2573 506.028 36.1274C505.601 35.9669 505.131 36.2038 504.976 36.6546C504.866 36.9755 504.954 37.3193 505.167 37.5485C505.094 37.3728 505.087 37.1741 505.153 36.9831C505.292 36.5705 505.726 36.3566 506.108 36.5018Z" fill="#1B1046"/>
<path d="M506.902 36.9829C506.946 37.2045 506.895 37.4413 506.792 37.6476C506.689 37.8539 506.52 38.0297 506.329 38.1519C506.131 38.2742 505.881 38.3277 505.653 38.2665C505.425 38.2131 505.234 38.0755 505.109 37.8921C505.292 37.9991 505.491 38.0755 505.682 38.0908C505.873 38.1061 506.057 38.0526 506.219 37.9533C506.55 37.7546 506.799 37.4184 506.902 36.9829Z" fill="#1B1046"/>
<path d="M499.242 42.6222C499.881 42.7292 500.484 42.286 500.587 41.6136C500.697 40.9489 500.264 40.3224 499.624 40.2077C498.984 40.0931 498.382 40.5439 498.279 41.2163C498.176 41.881 498.61 42.5076 499.242 42.6222Z" fill="#1B1146"/>
<path d="M499.83 40.7111C500.175 40.7722 500.455 41.0015 500.602 41.3071C500.558 40.7646 500.168 40.2985 499.631 40.2068C498.992 40.0999 498.389 40.543 498.286 41.2154C498.213 41.6968 498.411 42.1552 498.771 42.415C498.632 42.1934 498.566 41.9107 498.61 41.628C498.705 41.0244 499.249 40.6118 499.83 40.7111Z" fill="#1B1046"/>
<path d="M501.058 41.1924C501.139 41.498 501.124 41.8342 501.021 42.1398C500.918 42.4531 500.727 42.7282 500.492 42.9421C500.249 43.156 499.926 43.2936 499.602 43.2783C499.279 43.2706 498.985 43.1331 498.75 42.9345C499.022 43.0644 499.316 43.1255 499.595 43.1026C499.874 43.0873 500.132 42.9574 500.345 42.774C500.558 42.583 500.734 42.3461 500.859 42.0787C500.977 41.8036 501.05 41.5057 501.058 41.1924Z" fill="#1B1046"/>
<path d="M495.302 30.3041C494.684 31.0758 493.501 31.1216 492.663 30.3958C491.817 29.6699 491.641 28.455 492.251 27.6833C492.869 26.9116 494.052 26.8658 494.89 27.5916C495.736 28.3099 495.919 29.5247 495.302 30.3041Z" fill="#1B1146"/>
<path d="M492.566 28.5162C492.228 28.9364 492.155 29.5018 492.316 30.029C491.78 29.3108 491.728 28.3404 492.25 27.6833C492.868 26.9116 494.051 26.8658 494.889 27.5916C495.499 28.1112 495.764 28.8906 495.632 29.5706C495.551 29.1503 495.323 28.7377 494.963 28.4245C494.206 27.775 493.132 27.8132 492.566 28.5162Z" fill="#1B1046"/>
<path d="M496.096 28.9976C496.316 29.4407 496.36 29.9908 496.191 30.5028C496.118 30.7626 495.963 30.9918 495.787 31.1904C495.61 31.3891 495.397 31.5343 495.162 31.6642C494.919 31.7635 494.655 31.8323 494.398 31.8399C494.14 31.8399 493.883 31.8093 493.648 31.7329C493.17 31.5877 492.744 31.328 492.398 30.9841C492.839 31.1675 493.28 31.3127 493.729 31.3891C494.17 31.4579 494.611 31.4349 494.986 31.2592C495.169 31.1675 495.353 31.0453 495.5 30.8924C495.655 30.7473 495.787 30.5715 495.882 30.3729C496.066 29.9679 496.14 29.4866 496.096 28.9976Z" fill="#1B1046"/>
</g>
<defs>
<linearGradient id="paint0_linear_13540_12967" x1="420.309" y1="97.617" x2="460.489" y2="138.37" gradientUnits="userSpaceOnUse">
<stop stop-color="#7FFFE0" stop-opacity="0.5"/>
<stop offset="0.14" stop-color="#7DF7DC" stop-opacity="0.48"/>
<stop offset="0.34" stop-color="#76DFD1" stop-opacity="0.41"/>
<stop offset="0.56" stop-color="#6CB8BF" stop-opacity="0.3"/>
<stop offset="0.81" stop-color="#5E82A6" stop-opacity="0.14"/>
<stop offset="1" stop-color="#50508E" stop-opacity="0"/>
</linearGradient>
<linearGradient id="paint1_linear_13540_12967" x1="430.514" y1="56.3258" x2="477.169" y2="105.904" gradientUnits="userSpaceOnUse">
<stop stop-color="#7FFFE0" stop-opacity="0.5"/>
<stop offset="0.14" stop-color="#7DF7DC" stop-opacity="0.48"/>
<stop offset="0.34" stop-color="#76DFD1" stop-opacity="0.41"/>
<stop offset="0.56" stop-color="#6CB8BF" stop-opacity="0.3"/>
<stop offset="0.81" stop-color="#5E82A6" stop-opacity="0.14"/>
<stop offset="1" stop-color="#50508E" stop-opacity="0"/>
</linearGradient>
<linearGradient id="paint2_linear_13540_12967" x1="451.663" y1="97.0078" x2="465.283" y2="291.765" gradientUnits="userSpaceOnUse">
<stop stop-color="#FF8080"/>
<stop offset="1" stop-color="#FF8080" stop-opacity="0"/>
</linearGradient>
<clipPath id="clip0_13540_12967">
<rect width="535" height="235" fill="white" transform="matrix(-1 0 0 1 535 0)"/>
</clipPath>
<clipPath id="clip1_13540_12967">
<rect width="88.3337" height="45.3133" fill="white" transform="matrix(-0.999692 -0.0248353 -0.0241661 0.999708 355.543 159.194)"/>
</clipPath>
</defs>
</svg>
