<svg width="174" height="45" viewBox="0 0 174 45" fill="none" xmlns="http://www.w3.org/2000/svg">
<g clip-path="url(#clip0_31770_340605)">
<path d="M14.9347 22.0239L7.25879 16.5591C10.5395 13.8537 16.6335 10.2584 21.8646 9.98877" fill="#86D4C9"/>
<path d="M39.1847 29.5205C48.047 24.3973 53.1703 16.6764 50.6266 12.2632C48.083 7.85901 38.8431 8.43425 29.9808 13.5575C21.1184 18.6808 15.9952 26.4016 18.5388 30.8148C21.0825 35.219 30.3223 34.6438 39.1847 29.5205Z" fill="#77A4F2"/>
<path d="M5.41618 29.6281C3.29496 30.8594 1.01197 34.3199 0.427734 36.7197C2.79163 37.4028 6.93518 37.1691 9.05639 35.9378C10.8001 34.9311 11.3933 32.702 10.3866 30.9673C9.37997 29.2236 7.15988 28.6304 5.41618 29.637V29.6281Z" fill="#FF8486"/>
<path d="M36.3361 24.586C45.1984 19.4627 50.3217 11.7418 47.778 7.32865C45.2344 2.92444 35.9945 3.49968 27.1322 8.62295C18.2698 13.7462 13.1465 21.4671 15.6902 25.8803C18.2339 30.2845 27.4737 29.7092 36.3361 24.586Z" fill="white"/>
<path d="M33.3332 23.3459C41.2428 18.7709 46.1144 12.3983 44.2179 9.09964C42.3214 5.80098 34.3668 6.84361 26.4572 11.4096C18.5476 15.9846 13.6761 22.3572 15.5726 25.6559C17.4691 28.9545 25.4236 27.9119 33.3332 23.3459Z" fill="#86D4C9"/>
<path d="M45.54 16.8564L48.0837 21.2696C48.0837 21.2696 49.2432 20.3528 49.6566 19.5349C50.0611 18.708 51.8497 15.4542 50.5285 13.0993C49.2072 10.7354 48.6589 10.0074 48.2724 11.3556C47.886 12.6949 45.54 16.8654 45.54 16.8654V16.8564Z" fill="white"/>
<path d="M25.81 28.55C23.0416 29.0264 21.8102 28.9185 20.0486 28.4961C18.2869 28.0737 18.4936 28.7388 17.5139 29.9612C16.5432 31.1746 13.7568 40.5043 13.7568 40.5043C13.7568 40.5043 17.4869 40.8638 21.7024 38.437C25.9178 36.0012 35.9666 29.0174 35.8588 26.7164C35.7509 24.4155 34.924 26.2131 32.2276 26.9681C29.5401 27.7321 25.81 28.559 25.81 28.559V28.55Z" fill="#86D4C9"/>
<path d="M8.21971 16.8018C12.6059 14.4469 17.5405 12.2538 20.3538 12.883C20.3538 12.883 21.8278 10.2494 21.3514 10.0157C20.8661 9.78205 10.7005 13.9705 8.74103 15.4087C6.78161 16.8468 8.21971 16.8018 8.21971 16.8018Z" fill="white"/>
<path d="M19.4194 21.2786C16.66 22.0336 14.3141 22.9234 12.6154 23.8042C10.9256 24.6851 10.2425 25.0176 10.3414 25.8266C10.4402 26.6265 12.4266 31.3543 13.3973 31.8936C14.3681 32.4329 15.8691 31.6509 16.3904 30.3656C16.9117 29.0893 16.9117 28.4152 18.5655 26.4917C20.2194 24.5682 23.1495 21.0628 19.4194 21.2786Z" fill="#86D4C9"/>
<path d="M10.8633 26.7517C12.1576 26.0057 15.2855 24.1631 20.0402 22.9946L18.9976 24.99L11.5644 29.2864L10.8723 26.7517H10.8633Z" fill="white"/>
<path d="M14.6919 39.3987C17.649 38.2752 26.1877 34.9855 31.6436 27.8399C31.6436 27.8399 35.4186 25.2693 35.9849 25.3322C36.5511 25.3861 32.5693 31.8396 26.9697 35.0304C21.3791 38.2212 13.802 41.7356 14.6919 39.4077V39.3987Z" fill="white"/>
<path d="M40.0472 10.484C42.9953 15.5982 24.4976 26.2942 21.5495 21.1799C18.6014 16.0656 20.3541 9.53121 25.4594 6.5741C30.5647 3.62598 37.0991 5.36968 40.0472 10.4929V10.484Z" fill="#86D4C9"/>
<path d="M56.9989 5.51276C56.2619 4.23644 54.635 3.79602 53.3587 4.53305C52.361 5.10829 51.8847 6.23182 52.0824 7.3104L48.4512 9.41363L49.359 10.9866L52.9902 8.88333C53.8261 9.58441 55.0305 9.73721 56.0282 9.16196C57.3045 8.42493 57.745 6.78908 56.9989 5.52175V5.51276Z" fill="#38237C"/>
<path d="M51.0575 12.1461L48.1543 7.11269C46.1589 3.73314 40.8289 2.8433 34.1956 4.75779C31.2295 3.84998 27.9039 4.11064 25.0097 5.78244C23.5177 6.64531 22.3043 7.79579 21.3695 9.11706C16.2373 9.55748 10.4758 12.8292 7.02436 15.5706C6.71877 15.8133 6.54799 16.1818 6.55698 16.5683C6.56597 16.9637 6.76371 17.3323 7.08728 17.557L13.2712 21.9612C12.3993 22.3477 11.4466 22.824 10.3859 23.4442C8.53438 24.5138 9.70284 28.4596 11.123 30.9224C12.1926 32.7829 13.406 34.1132 14.5565 34.7424L13.0914 39.587C12.9566 40.0364 13.0644 40.5128 13.379 40.8633C13.6307 41.1509 13.9902 41.3037 14.3677 41.3037C14.4486 41.3037 14.5385 41.3037 14.6194 41.2768C17.7922 40.6746 24.4884 38.5174 30.0791 34.3019V34.3199C33.0991 33.6099 36.2899 32.3156 39.3009 30.5719C48.7116 25.134 53.8708 17.0356 51.0575 12.1461V12.1461ZM46.6173 8.06544C47.6599 9.87206 47.1566 12.4876 45.1972 15.4357C43.1119 18.5636 39.6784 21.6196 35.5259 24.0195C29.378 27.5788 22.7537 28.9809 18.8618 27.6597L22.1515 22.9229C22.8256 23.2645 23.6345 23.4262 24.5513 23.4262C27.1219 23.4262 30.4566 22.1949 33.4676 20.4512C38.456 17.566 42.6715 13.2247 40.8379 10.0339C39.8402 8.30812 38.474 6.94191 36.8831 5.9622C41.5929 5.03642 45.2961 5.78244 46.6173 8.06544V8.06544ZM25.9175 7.35537C27.4275 6.48352 29.0993 6.0431 30.7891 6.0431C31.634 6.0431 32.4969 6.15995 33.3328 6.37566C35.8495 7.04978 37.9617 8.67663 39.274 10.9417C39.8942 12.0113 38.8875 13.5213 38.1954 14.3751C38.456 13.6471 38.474 12.946 38.1235 12.3528C35.6068 7.98454 30.0251 6.48352 25.6569 9.0092C22.7447 10.699 21.1088 13.746 21.0999 16.8918C20.7044 13.1527 22.4661 9.35075 25.9265 7.35537H25.9175ZM8.75908 16.5233C11.9139 14.1504 16.3361 11.7955 20.246 11.0855C19.9404 11.7776 19.6977 12.4966 19.5269 13.2336C17.0192 15.6515 15.2665 18.1861 14.4216 20.559L8.75908 16.5233V16.5233ZM20.1291 20.2894C19.9943 20.3073 19.8595 20.3253 19.7337 20.3343C18.682 20.4512 17.5585 20.568 16.2283 20.9185C16.8125 19.4085 17.8461 17.7817 19.2393 16.1728C19.2753 17.557 19.5809 18.9501 20.1291 20.2894V20.2894ZM12.9476 30.4101C12.8667 30.2752 12.7768 30.1494 12.6959 30.0056C11.2308 27.4619 11.087 25.3138 11.3027 24.9992C15.4373 22.6083 17.7203 22.3656 19.9314 22.1319C20.1381 22.114 20.3449 22.078 20.5516 22.0511L17.2709 26.7788C16.9204 27.2732 16.6597 27.8305 16.4799 28.4057L16.0125 29.9337C15.6171 30.1584 15.1227 30.446 14.7722 30.6527C14.2239 30.9763 13.5408 31.0482 12.9476 30.4101V30.4101ZM15.0598 39.3353L18.0619 29.2865C19.2663 29.727 20.6774 29.9517 22.2324 29.9517C25.9715 29.9517 30.5195 28.7023 34.9956 26.3564C30.3397 34.3019 19.8685 38.2298 15.0598 39.3353V39.3353ZM33.3777 31.3988C34.1237 30.6258 34.8338 29.8079 35.472 28.936L36.191 30.1854C35.2563 30.6438 34.3125 31.0482 33.3777 31.3988V31.3988ZM38.4021 28.9989C38.0426 29.2056 37.6831 29.4034 37.3145 29.6011L36.2629 27.7675C36.7303 27.0215 37.1528 26.2306 37.5213 25.4126L39.274 28.4596C38.9863 28.6394 38.6987 28.8192 38.4021 28.9899V28.9989ZM40.3436 27.7855L38.3752 24.361C39.0133 23.9386 39.6425 23.5071 40.2357 23.0487L42.1951 26.4553C41.6019 26.9047 40.9907 27.3541 40.3436 27.7855V27.7855ZM43.1928 25.6643L41.2334 22.2668C41.8356 21.7724 42.4288 21.2691 42.9771 20.7568L44.9185 24.1183C44.3793 24.6396 43.804 25.152 43.1928 25.6553V25.6643ZM45.8353 23.1836L43.9119 19.84C44.4871 19.2557 45.0084 18.6535 45.4938 18.0513L47.3903 21.341C46.9229 21.9522 46.4106 22.5724 45.8353 23.1836ZM48.1902 20.1995L46.3207 16.9637C46.4465 16.793 46.5814 16.6132 46.6982 16.4424C47.0757 15.8762 47.3813 15.3189 47.6689 14.7706L49.4396 17.8356C49.134 18.5996 48.7205 19.3995 48.1902 20.2085V20.1995ZM49.916 16.1189L48.2981 13.3235C48.4958 12.7932 48.6397 12.2719 48.7475 11.7686L49.4845 13.0449C49.9879 13.9167 50.1047 14.9684 49.916 16.1189V16.1189Z" fill="#38237C"/>
<path d="M86.2559 32.4319C86.2559 32.6746 86.0491 32.8813 85.7795 32.8813H82.5258C82.2561 32.8813 82.0404 32.6746 82.0404 32.4319V19.8934L77.6811 27.5154C77.5014 27.848 77.3486 28.0008 76.9621 28.0008H74.4634C74.1038 28.0008 73.9241 27.848 73.7443 27.5154L69.2592 19.8934V32.4319C69.2592 32.6746 69.0525 32.8813 68.7828 32.8813H65.5291C65.2595 32.8813 65.0527 32.6746 65.0527 32.4319V12.8107C65.0527 12.5681 65.2595 12.3613 65.5291 12.3613H68.9626C69.3221 12.3613 69.5648 12.4242 69.8075 12.8467L75.6498 23.0033L81.5191 12.8467C81.7258 12.4242 81.9685 12.3613 82.328 12.3613H85.7885C86.0581 12.3613 86.2648 12.5681 86.2648 12.8107V32.4319H86.2559Z" fill="#38237C"/>
<path d="M108.825 32.4323C108.825 32.6749 108.618 32.8817 108.376 32.8817H104.942C104.7 32.8817 104.493 32.6749 104.493 32.4323V26.9764H96.2776V32.4323C96.2776 32.6749 96.0709 32.8817 95.8282 32.8817H92.3947C92.152 32.8817 91.9453 32.6749 91.9453 32.4323V20.6487C91.9453 18.177 92.907 15.6154 94.9564 13.9256C96.2776 12.8111 98.0842 12.083 100.376 12.083C102.668 12.083 104.502 12.8111 105.823 13.9256C107.899 15.6154 108.834 18.177 108.834 20.6487V32.4323H108.825ZM97.536 17.2153C96.754 18.0242 96.2686 19.2016 96.2686 20.8285V23.1205H104.484V20.8285C104.484 19.2016 104.007 18.0242 103.243 17.2153C102.488 16.4872 101.473 16.1277 100.358 16.1277C99.2437 16.1277 98.282 16.4872 97.527 17.2153H97.536Z" fill="#38237C"/>
<path d="M124.41 32.5218C124.284 32.8544 124.078 32.9712 123.718 32.9712H120.105C119.709 32.9712 119.503 32.8544 119.386 32.5218L111.926 12.9995C111.773 12.64 111.899 12.3613 112.285 12.3613H115.925C116.321 12.3613 116.563 12.5141 116.68 12.8737L121.884 27.5154H121.947L127.331 12.8737C127.457 12.5141 127.664 12.3613 128.086 12.3613H131.7C132.059 12.3613 132.212 12.631 132.059 12.9995L124.419 32.5218H124.41Z" fill="#38237C"/>
<path d="M136.06 33.0298C135.861 33.0298 135.7 32.8688 135.7 32.6702V12.7165C135.7 12.5179 135.861 12.3569 136.06 12.3569H149.755C149.954 12.3569 150.115 12.5179 150.115 12.7165V16.0553C150.115 16.2538 149.954 16.4148 149.755 16.4148H140.697V20.6543H149.018C149.217 20.6543 149.378 20.8153 149.378 21.0139V24.3627C149.378 24.5613 149.217 24.7223 149.018 24.7223H140.697V28.9719H149.755C149.954 28.9719 150.115 29.1329 150.115 29.3314V32.6702C150.115 32.8688 149.954 33.0298 149.755 33.0298H136.06Z" fill="#38237C"/>
<path d="M173.069 12.3569C173.267 12.3569 173.428 12.5179 173.428 12.7165V32.6702C173.428 32.8688 173.267 33.0298 173.069 33.0298H169.294C169.177 33.0298 169.067 32.9727 169 32.8769L160.723 21.0985H160.589V32.6702C160.589 32.8688 160.428 33.0298 160.23 33.0298H155.857C155.658 33.0298 155.497 32.8688 155.497 32.6702V12.7165C155.497 12.5179 155.658 12.3569 155.857 12.3569H159.692C159.809 12.3569 159.92 12.4145 159.987 12.5111L168.171 24.268H168.346V12.7165C168.346 12.5179 168.507 12.3569 168.706 12.3569H173.069Z" fill="#38237C"/>
</g>
<defs>
<clipPath id="clip0_31770_340605">
<rect width="173" height="44" fill="white" transform="translate(0.427734 0.651855)"/>
</clipPath>
</defs>
</svg>
