<svg width="27" height="26" viewBox="0 0 27 26" fill="none" xmlns="http://www.w3.org/2000/svg">
<path d="M13.179 0.247176C16.5804 0.272285 19.6524 1.71129 21.8139 3.98943C23.6678 6.10272 24.7869 8.87244 24.7639 11.8883C24.7139 18.451 19.3092 23.7321 12.6898 23.6934C9.28843 23.6683 6.2165 22.2293 4.05498 19.9512C2.20106 17.8379 1.08197 15.0682 1.10495 12.0523C1.15497 5.48948 6.55983 0.198313 13.179 0.247176Z" fill="url(#paint0_radial_33215_24807)" stroke="url(#paint1_linear_33215_24807)" stroke-width="0.16"/>
<path d="M19.8273 5.8186C21.2619 7.45393 22.1277 9.59708 22.1099 11.9307C22.0712 17.0089 17.889 21.0957 12.7665 21.0658C10.1345 21.0463 7.75744 19.9329 6.08479 18.1701C4.65028 16.5348 3.78443 14.3917 3.80221 12.0581C3.84092 6.97973 8.02327 2.88516 13.1455 2.92297C15.7776 2.9424 18.1547 4.05584 19.8273 5.8186Z" fill="url(#paint2_radial_33215_24807)"/>
<path d="M19.8273 5.8186C21.2619 7.45393 22.1277 9.59708 22.1099 11.9307C22.0712 17.0089 17.889 21.0957 12.7665 21.0658C10.1345 21.0463 7.75744 19.9329 6.08479 18.1701C4.65028 16.5348 3.78443 14.3917 3.80221 12.0581C3.84092 6.97973 8.02327 2.88516 13.1455 2.92297C15.7776 2.9424 18.1547 4.05584 19.8273 5.8186Z" fill="url(#paint3_linear_33215_24807)" fill-opacity="0.2"/>
<path d="M19.8273 5.8186C21.2619 7.45393 22.1277 9.59708 22.1099 11.9307C22.0712 17.0089 17.889 21.0957 12.7665 21.0658C10.1345 21.0463 7.75744 19.9329 6.08479 18.1701C4.65028 16.5348 3.78443 14.3917 3.80221 12.0581C3.84092 6.97973 8.02327 2.88516 13.1455 2.92297C15.7776 2.9424 18.1547 4.05584 19.8273 5.8186Z" fill="url(#paint4_linear_33215_24807)" fill-opacity="0.2"/>
<path d="M19.8273 5.8186C21.2619 7.45393 22.1277 9.59708 22.1099 11.9307C22.0712 17.0089 17.889 21.0957 12.7665 21.0658C10.1345 21.0463 7.75744 19.9329 6.08479 18.1701C4.65028 16.5348 3.78443 14.3917 3.80221 12.0581C3.84092 6.97973 8.02327 2.88516 13.1455 2.92297C15.7776 2.9424 18.1547 4.05584 19.8273 5.8186Z" stroke="url(#paint5_linear_33215_24807)" stroke-width="0.16"/>
<path d="M19.8273 5.8186C21.2619 7.45393 22.1277 9.59708 22.1099 11.9307C22.0712 17.0089 17.889 21.0957 12.7665 21.0658C10.1345 21.0463 7.75744 19.9329 6.08479 18.1701C4.65028 16.5348 3.78443 14.3917 3.80221 12.0581C3.84092 6.97973 8.02327 2.88516 13.1455 2.92297C15.7776 2.9424 18.1547 4.05584 19.8273 5.8186Z" stroke="url(#paint6_linear_33215_24807)" stroke-opacity="0.2" stroke-width="0.16"/>
<path d="M19.8273 5.8186C21.2619 7.45393 22.1277 9.59708 22.1099 11.9307C22.0712 17.0089 17.889 21.0957 12.7665 21.0658C10.1345 21.0463 7.75744 19.9329 6.08479 18.1701C4.65028 16.5348 3.78443 14.3917 3.80221 12.0581C3.84092 6.97973 8.02327 2.88516 13.1455 2.92297C15.7776 2.9424 18.1547 4.05584 19.8273 5.8186Z" stroke="url(#paint7_linear_33215_24807)" stroke-width="0.16"/>
<path d="M19.8273 5.8186C21.2619 7.45393 22.1277 9.59708 22.1099 11.9307C22.0712 17.0089 17.889 21.0957 12.7665 21.0658C10.1345 21.0463 7.75744 19.9329 6.08479 18.1701C4.65028 16.5348 3.78443 14.3917 3.80221 12.0581C3.84092 6.97973 8.02327 2.88516 13.1455 2.92297C15.7776 2.9424 18.1547 4.05584 19.8273 5.8186Z" stroke="url(#paint8_linear_33215_24807)" stroke-width="0.16"/>
<g filter="url(#filter0_f_33215_24807)">
<path d="M23.688 6.68315C24.3388 8.17578 24.6988 9.82017 24.6855 11.5542C24.6352 18.1618 19.1937 23.4778 12.5308 23.4286C8.52692 23.399 4.99299 21.4337 2.8223 18.442C3.16977 19.0089 3.5692 19.5454 4.01032 20.0412C6.18633 22.3352 9.27929 23.7842 12.7038 23.8095C19.3667 23.8587 24.8082 18.5427 24.8585 11.9351C24.8832 10.0575 24.4623 8.26904 23.688 6.68315Z" fill="#06017C"/>
</g>
<path d="M14.5137 11.5436L14.385 11.6597L12.9651 12.9111C12.905 12.967 12.8235 12.9756 12.7506 12.9412C12.7334 12.9326 12.7162 12.924 12.6991 12.9111L11.4336 11.7973L11.1505 11.5479C11.0732 11.4791 10.9531 11.5393 10.9531 11.6468V12.7606C10.9531 12.8552 10.9917 12.9455 11.0604 13.0057L12.6433 14.3991C12.6433 14.3991 12.6776 14.4206 12.6948 14.4292C12.802 14.4894 12.9307 14.4808 13.0294 14.3991L14.6123 13.0057C14.681 12.9455 14.7196 12.8552 14.7196 12.7606V11.6468C14.7196 11.6167 14.711 11.5909 14.6938 11.5694C14.6552 11.5135 14.578 11.4963 14.5223 11.5436H14.5137Z" fill="#E0D5FF"/>
<path d="M8.77427 14.5191C8.81288 14.5492 8.85578 14.5707 8.90297 14.5707H9.98829C10.1084 14.5707 10.2071 14.4632 10.2071 14.3342V9.97781C10.2071 9.866 10.3272 9.80149 10.413 9.8703L10.6832 10.0939L12.7037 11.7453C12.7295 11.7668 12.7595 11.7754 12.7853 11.784C12.8496 11.8012 12.9139 11.784 12.9697 11.7453L15.2605 9.8703C15.3463 9.80149 15.4664 9.866 15.4664 9.97781V14.3342C15.4664 14.3901 15.4878 14.4331 15.5136 14.4761C15.535 14.5105 15.5651 14.5363 15.5994 14.5535C15.6251 14.5664 15.6551 14.5707 15.6809 14.5707H16.7662C16.8863 14.5707 16.985 14.4632 16.985 14.3342V7.14813C16.985 7.08362 16.955 7.02341 16.9121 6.98471C16.8777 6.95461 16.8348 6.93311 16.7877 6.93311H16.4831C16.4273 6.93311 16.3673 6.95461 16.3244 6.98901L12.9483 9.60798C12.8796 9.65958 12.7895 9.65958 12.7209 9.60798L12.5364 9.46176L9.34911 6.98901C9.30192 6.95461 9.24615 6.93311 9.19039 6.93311H8.88581C8.77856 6.93311 8.68848 7.02771 8.68848 7.14383V14.3342C8.68848 14.3944 8.70993 14.4503 8.74853 14.4933C8.75711 14.5062 8.76998 14.5105 8.77856 14.5191H8.77427Z" fill="#E0D5FF"/>
<path d="M16.8218 17.035C16.9118 17.035 16.9848 16.9576 16.9848 16.863V15.5729C16.9848 15.5213 16.9633 15.4783 16.9333 15.4482C16.9033 15.4181 16.8647 15.4009 16.8218 15.4009H8.8427C8.75261 15.4009 8.67969 15.4783 8.67969 15.5729V16.863C8.67969 16.8974 8.69256 16.9318 8.70972 16.9576C8.72688 16.9877 8.75261 17.0135 8.78693 17.0264C8.80409 17.035 8.82125 17.0393 8.8427 17.0393H16.8218V17.035Z" fill="#E0D5FF"/>
<path d="M17.2285 15.6933L16.9325 15.4438C16.9625 15.474 16.984 15.5213 16.984 15.5686V16.8587C16.984 16.9533 16.9111 17.0307 16.821 17.0307H8.8419C8.8419 17.0307 8.80329 17.0264 8.78613 17.0178L9.07355 17.2672C9.09929 17.2801 9.12503 17.293 9.15935 17.293H17.1384C17.2285 17.293 17.3014 17.2156 17.3014 17.121V15.8309C17.3014 15.7707 17.2714 15.7234 17.2285 15.689V15.6933Z" fill="#6D40ED"/>
<path d="M14.7152 11.6466V12.7604C14.7152 12.855 14.6766 12.9453 14.608 13.0055L13.025 14.3989C12.9307 14.4849 12.7977 14.4892 12.6904 14.429L12.9564 14.6612C13.0679 14.7601 13.2309 14.7601 13.3425 14.6612L14.9254 13.2678C14.9941 13.2076 15.0327 13.1173 15.0327 13.0227V11.9089C15.0327 11.8659 15.0112 11.8315 14.9812 11.8057L14.668 11.5391C14.668 11.5391 14.6766 11.5477 14.6895 11.5649C14.7024 11.5864 14.7152 11.6122 14.7152 11.6423V11.6466Z" fill="#6D40ED"/>
<path d="M15.2555 9.86632L12.9647 11.7413C12.909 11.7843 12.8446 11.7972 12.7803 11.78L13.0291 11.9821C13.1063 12.0466 13.2178 12.0466 13.2951 11.9821L15.4571 10.2233V9.97813C15.4571 9.86632 15.337 9.80181 15.2512 9.87062L15.2555 9.86632Z" fill="#6D40ED"/>
<path d="M10.2062 9.97804V14.3344C10.2062 14.4634 10.1076 14.5709 9.98746 14.5709H8.90213C8.85494 14.5709 8.81205 14.5494 8.77344 14.5193L9.07373 14.7859V14.7773C9.11233 14.8117 9.16381 14.8375 9.21529 14.8375H10.3006C10.4207 14.8375 10.5194 14.73 10.5194 14.601V10.2447C10.5194 10.1544 10.6009 10.0855 10.6781 10.0898L10.4079 9.86623C10.3221 9.79742 10.2019 9.86193 10.2019 9.97374L10.2062 9.97804Z" fill="#6D40ED"/>
<path d="M12.72 9.61252L12.5312 9.46631L12.7157 9.60822L12.72 9.61252Z" fill="#6D40ED"/>
<path d="M16.9842 7.14828V14.3343C16.9842 14.4633 16.8856 14.5708 16.7655 14.5708H15.6801C15.6501 14.5708 15.6244 14.5622 15.5986 14.5536L15.8646 14.7858C15.9032 14.816 15.9461 14.8375 15.9976 14.8375H17.0829C17.203 14.8375 17.3017 14.7299 17.3017 14.6009V7.41061C17.3017 7.3461 17.2717 7.29019 17.2288 7.25149L16.9156 6.98486H16.907C16.9499 7.02357 16.98 7.07947 16.98 7.14398L16.9842 7.14828Z" fill="#6D40ED"/>
<defs>
<filter id="filter0_f_33215_24807" x="0.688932" y="4.54977" width="26.3038" height="21.3936" filterUnits="userSpaceOnUse" color-interpolation-filters="sRGB">
<feFlood flood-opacity="0" result="BackgroundImageFix"/>
<feBlend mode="normal" in="SourceGraphic" in2="BackgroundImageFix" result="shape"/>
<feGaussianBlur stdDeviation="1.06667" result="effect1_foregroundBlur_33215_24807"/>
</filter>
<radialGradient id="paint0_radial_33215_24807" cx="0" cy="0" r="1" gradientUnits="userSpaceOnUse" gradientTransform="translate(4.66428 0.104315) rotate(63.6871) scale(29.9562 30.0914)">
<stop stop-color="#AC8FFF"/>
<stop offset="0.435789" stop-color="#6D40ED"/>
<stop offset="0.963542" stop-color="#6847C6"/>
</radialGradient>
<linearGradient id="paint1_linear_33215_24807" x1="7.12272" y1="3.43156" x2="14.5767" y2="18.6708" gradientUnits="userSpaceOnUse">
<stop stop-color="#D5C7FF"/>
<stop offset="0.432899" stop-color="#6D40ED" stop-opacity="0"/>
</linearGradient>
<radialGradient id="paint2_radial_33215_24807" cx="0" cy="0" r="1" gradientUnits="userSpaceOnUse" gradientTransform="translate(19.265 21.1937) rotate(-111.33) scale(23.347 23.4757)">
<stop offset="0.0625" stop-color="#A9A4F4"/>
<stop offset="1" stop-color="#8B84EB"/>
</radialGradient>
<linearGradient id="paint3_linear_33215_24807" x1="6.76369" y1="4.06317" x2="21.0027" y2="11.0171" gradientUnits="userSpaceOnUse">
<stop stop-color="#8D5CCA"/>
<stop offset="1" stop-color="#8B84EB" stop-opacity="0"/>
</linearGradient>
<linearGradient id="paint4_linear_33215_24807" x1="11.8453" y1="26.349" x2="14.1803" y2="12.9828" gradientUnits="userSpaceOnUse">
<stop stop-color="#8D5CCA"/>
<stop offset="1" stop-color="#6F41A9" stop-opacity="0"/>
</linearGradient>
<linearGradient id="paint5_linear_33215_24807" x1="7.86608" y1="27.0237" x2="12.8421" y2="17.734" gradientUnits="userSpaceOnUse">
<stop stop-color="#E5D1FF"/>
<stop offset="1" stop-color="#8D5CCA"/>
</linearGradient>
<linearGradient id="paint6_linear_33215_24807" x1="16.0112" y1="1.17437" x2="12.9882" y2="12.8511" gradientUnits="userSpaceOnUse">
<stop stop-color="#AC99F9"/>
<stop offset="1" stop-color="#8D5CCA"/>
</linearGradient>
<linearGradient id="paint7_linear_33215_24807" x1="-0.199117" y1="5.13827" x2="8.34157" y2="12.732" gradientUnits="userSpaceOnUse">
<stop stop-color="#7345AD"/>
<stop offset="1" stop-color="#8D5CCA" stop-opacity="0"/>
</linearGradient>
<linearGradient id="paint8_linear_33215_24807" x1="23.8751" y1="2.92217" x2="10.2452" y2="11.3654" gradientUnits="userSpaceOnUse">
<stop stop-color="#EAE8FF"/>
<stop offset="1" stop-color="#8D5CCA" stop-opacity="0"/>
</linearGradient>
</defs>
</svg>
