<svg width="25" height="24" viewBox="0 0 25 24" fill="none" xmlns="http://www.w3.org/2000/svg">
<circle cx="12" cy="12" r="12" fill="url(#paint0_radial_10789_137277)"/>
<path d="M12.2169 2.91729C14.8404 2.93675 17.2101 4.06185 18.8778 5.84378C20.308 7.49717 21.1712 9.66408 21.1533 12.0238C21.1144 17.1597 16.9432 21.2911 11.8371 21.2613C9.21357 21.2418 6.84391 20.1167 5.17616 18.3348C3.74605 16.6814 2.88283 14.5145 2.90072 12.1547C2.93965 7.01859 7.11112 2.8794 12.2169 2.91729Z" fill="url(#paint1_radial_10789_137277)"/>
<path d="M12.2169 2.91729C14.8404 2.93675 17.2101 4.06185 18.8778 5.84378C20.308 7.49717 21.1712 9.66408 21.1533 12.0238C21.1144 17.1597 16.9432 21.2911 11.8371 21.2613C9.21357 21.2418 6.84391 20.1167 5.17616 18.3348C3.74605 16.6814 2.88283 14.5145 2.90072 12.1547C2.93965 7.01859 7.11112 2.8794 12.2169 2.91729Z" fill="url(#paint2_linear_10789_137277)" fill-opacity="0.2"/>
<path d="M12.2169 2.91729C14.8404 2.93675 17.2101 4.06185 18.8778 5.84378C20.308 7.49717 21.1712 9.66408 21.1533 12.0238C21.1144 17.1597 16.9432 21.2911 11.8371 21.2613C9.21357 21.2418 6.84391 20.1167 5.17616 18.3348C3.74605 16.6814 2.88283 14.5145 2.90072 12.1547C2.93965 7.01859 7.11112 2.8794 12.2169 2.91729Z" fill="url(#paint3_linear_10789_137277)" fill-opacity="0.2"/>
<path d="M12.2169 2.91729C14.8404 2.93675 17.2101 4.06185 18.8778 5.84378C20.308 7.49717 21.1712 9.66408 21.1533 12.0238C21.1144 17.1597 16.9432 21.2911 11.8371 21.2613C9.21357 21.2418 6.84391 20.1167 5.17616 18.3348C3.74605 16.6814 2.88283 14.5145 2.90072 12.1547C2.93965 7.01859 7.11112 2.8794 12.2169 2.91729Z" stroke="url(#paint4_linear_10789_137277)" stroke-width="0.225"/>
<path d="M12.2169 2.91729C14.8404 2.93675 17.2101 4.06185 18.8778 5.84378C20.308 7.49717 21.1712 9.66408 21.1533 12.0238C21.1144 17.1597 16.9432 21.2911 11.8371 21.2613C9.21357 21.2418 6.84391 20.1167 5.17616 18.3348C3.74605 16.6814 2.88283 14.5145 2.90072 12.1547C2.93965 7.01859 7.11112 2.8794 12.2169 2.91729Z" stroke="url(#paint5_linear_10789_137277)" stroke-opacity="0.2" stroke-width="0.225"/>
<path d="M12.2169 2.91729C14.8404 2.93675 17.2101 4.06185 18.8778 5.84378C20.308 7.49717 21.1712 9.66408 21.1533 12.0238C21.1144 17.1597 16.9432 21.2911 11.8371 21.2613C9.21357 21.2418 6.84391 20.1167 5.17616 18.3348C3.74605 16.6814 2.88283 14.5145 2.90072 12.1547C2.93965 7.01859 7.11112 2.8794 12.2169 2.91729Z" stroke="url(#paint6_linear_10789_137277)" stroke-width="0.225"/>
<path d="M12.2169 2.91729C14.8404 2.93675 17.2101 4.06185 18.8778 5.84378C20.308 7.49717 21.1712 9.66408 21.1533 12.0238C21.1144 17.1597 16.9432 21.2911 11.8371 21.2613C9.21357 21.2418 6.84391 20.1167 5.17616 18.3348C3.74605 16.6814 2.88283 14.5145 2.90072 12.1547C2.93965 7.01859 7.11112 2.8794 12.2169 2.91729Z" stroke="url(#paint7_linear_10789_137277)" stroke-width="0.225"/>
<g filter="url(#filter0_f_10789_137277)">
<path d="M16.5607 15.4676L15.3745 15.4588L15.4161 9.94344C15.4174 9.76358 15.2058 9.66786 15.0701 9.78452L12.8211 11.7279L12.7931 15.4362L11.649 15.4276L11.6792 11.4269C11.681 11.1882 11.6253 10.9692 11.5122 10.775C11.3991 10.5792 11.2452 10.4234 11.0523 10.3093C10.8611 10.1952 10.6408 10.1364 10.3998 10.1347L10.3577 10.1343C10.1168 10.1325 9.89559 10.188 9.70266 10.2992C9.50803 10.4104 9.35185 10.5639 9.2358 10.7581C9.12145 10.9505 9.06083 11.1686 9.05903 11.4073L9.02886 15.4081L7.88476 15.3996L7.91493 11.3988C7.91806 10.9836 8.01868 10.601 8.21338 10.2562C8.40976 9.91135 8.69326 9.63441 9.05874 9.43372C9.42255 9.23302 9.8648 9.13209 10.3737 9.13589L10.3956 9.13605C10.9027 9.13984 11.3451 9.24568 11.7058 9.45347C12.0683 9.66126 12.3492 9.94242 12.5387 10.2885C12.5653 10.3357 12.5885 10.3847 12.6118 10.4336L13.8364 9.3769C13.8669 9.35023 13.9058 9.33539 13.9479 9.33571L16.4383 9.35428C16.531 9.35498 16.6045 9.42949 16.6038 9.52195L16.559 15.4659L16.5607 15.4676Z" fill="#544DE9"/>
</g>
<path d="M11.6473 9.20542C11.2865 8.99764 10.8442 8.89179 10.337 8.88801L10.3151 8.88784C9.80621 8.88405 9.36396 8.98498 9.00015 9.18567C8.63466 9.38636 8.35117 9.6633 8.15478 10.0081M11.6473 9.20542L12.7625 11.4798L12.7373 14.8131L12.3623 14.8103M11.6473 9.20542C11.9419 9.37437 12.1827 9.59181 12.3643 9.8532L11.6473 9.20542ZM8.15478 10.0081C7.96008 10.353 7.85946 10.7355 7.85633 11.1507L7.82899 14.7765L8.20398 14.7793M8.15478 10.0081L8.48064 10.1937C8.48076 10.1935 8.48087 10.1933 8.48098 10.1931M8.15478 10.0081L8.48133 10.1925C8.48121 10.1927 8.4811 10.1929 8.48098 10.1931M8.20398 14.7793L8.20115 15.1543L8.59527 15.1572L8.5981 14.7823M8.20398 14.7793L8.5981 14.7823M8.20398 14.7793L8.23132 11.1535C8.23399 10.7997 8.31902 10.4802 8.48098 10.1931M8.5981 14.7823L8.97309 14.785L9.00043 11.1593C9.00223 10.9206 9.06286 10.7025 9.17721 10.51C9.29326 10.3159 9.44944 10.1624 9.64406 10.0512C9.837 9.94 10.0582 9.88449 10.2991 9.88629L10.3412 9.88661C10.5822 9.8884 10.8025 9.9472 10.9937 10.0613M8.5981 14.7823L8.62544 11.1565C8.62773 10.8538 8.7053 10.5702 8.85482 10.3185L8.85533 10.3176L8.85533 10.3176C9.00403 10.0689 9.20659 9.86938 9.45745 9.72594C9.71295 9.57884 10.0005 9.50905 10.3019 9.5113L10.3441 9.51162C10.6457 9.51387 10.9324 9.58805 11.1858 9.73919L10.9937 10.0613M10.9937 10.0613C11.1867 10.1753 11.3405 10.3311 11.4536 10.527M10.9937 10.0613L11.1846 9.73846C11.4334 9.88555 11.633 10.0879 11.778 10.3388M11.4536 10.527C11.5667 10.7212 11.6224 10.9401 11.6206 11.1788L11.5932 14.8046L11.9682 14.8074M11.4536 10.527L11.7784 10.3394C11.7782 10.3392 11.7781 10.339 11.778 10.3388M11.4536 10.527L11.7776 10.3382C11.7778 10.3384 11.7779 10.3386 11.778 10.3388M11.9682 14.8074L11.9654 15.1824L12.3595 15.1853L12.3623 14.8103M11.9682 14.8074L12.3623 14.8103M11.9682 14.8074L11.9956 11.1816C11.9978 10.881 11.9272 10.5952 11.778 10.3388M12.3623 14.8103L12.3875 11.477L12.3888 11.3072L12.5173 11.1961L14.518 9.46736M14.518 9.46736L13.9642 9.46323M14.518 9.46736L14.9546 9.47062L14.9549 9.47062L15.6923 9.47612M14.518 9.46736L14.7664 9.25274L14.7671 9.25214C15.0823 8.98112 15.5531 9.12183 15.6923 9.47612M8.48098 10.1931C8.64167 9.9112 8.87361 9.68295 9.18062 9.51438L9.18127 9.51402C9.47792 9.35037 9.85404 9.25941 10.3122 9.26283L10.3341 9.263C10.7919 9.26641 11.1673 9.36176 11.4601 9.53037L11.4607 9.53074C11.7672 9.70648 11.997 9.93903 12.1512 10.2205L12.1512 10.2206L12.1533 10.2244C12.1725 10.2584 12.1902 10.2955 12.2144 10.3463L12.4255 10.791L12.7981 10.4694L13.9642 9.46323M13.9642 9.46323L14.0227 9.41276L14.0227 9.41277L14.0244 9.41128C14.0239 9.41177 14.0233 9.41227 14.0227 9.41276C13.985 9.44499 13.936 9.46302 13.8865 9.46265L13.9642 9.46323ZM15.6923 9.47612C15.7186 9.54298 15.7331 9.61745 15.7324 9.69819L15.6937 14.8385L16.1282 14.8418L16.1687 9.47967L15.6923 9.47612Z" fill="#E8E7FF"/>
<path d="M11.6473 9.20542C11.2865 8.99764 10.8442 8.89179 10.337 8.88801L10.3151 8.88784C9.80621 8.88405 9.36396 8.98498 9.00015 9.18567C8.63466 9.38636 8.35117 9.6633 8.15478 10.0081M11.6473 9.20542L12.7625 11.4798L12.7373 14.8131L12.3623 14.8103M11.6473 9.20542C11.9419 9.37437 12.1827 9.59181 12.3643 9.8532L11.6473 9.20542ZM8.15478 10.0081C7.96008 10.353 7.85946 10.7355 7.85633 11.1507L7.82899 14.7765L8.20398 14.7793M8.15478 10.0081L8.48064 10.1937C8.48076 10.1935 8.48087 10.1933 8.48098 10.1931M8.15478 10.0081L8.48133 10.1925C8.48121 10.1927 8.4811 10.1929 8.48098 10.1931M8.20398 14.7793L8.20115 15.1543L8.59527 15.1572L8.5981 14.7823M8.20398 14.7793L8.5981 14.7823M8.20398 14.7793L8.23132 11.1535C8.23399 10.7997 8.31902 10.4802 8.48098 10.1931M8.5981 14.7823L8.97309 14.785L9.00043 11.1593C9.00223 10.9206 9.06286 10.7025 9.17721 10.51C9.29326 10.3159 9.44944 10.1624 9.64406 10.0512C9.837 9.94 10.0582 9.88449 10.2991 9.88629L10.3412 9.88661C10.5822 9.8884 10.8025 9.9472 10.9937 10.0613M8.5981 14.7823L8.62544 11.1565C8.62773 10.8538 8.7053 10.5702 8.85482 10.3185L8.85533 10.3176L8.85533 10.3176C9.00403 10.0689 9.20659 9.86938 9.45745 9.72594C9.71295 9.57884 10.0005 9.50905 10.3019 9.5113L10.3441 9.51162C10.6457 9.51387 10.9324 9.58805 11.1858 9.73919L10.9937 10.0613M10.9937 10.0613C11.1867 10.1753 11.3405 10.3311 11.4536 10.527M10.9937 10.0613L11.1846 9.73846C11.4334 9.88555 11.633 10.0879 11.778 10.3388M11.4536 10.527C11.5667 10.7212 11.6224 10.9401 11.6206 11.1788L11.5932 14.8046L11.9682 14.8074M11.4536 10.527L11.7784 10.3394C11.7782 10.3392 11.7781 10.339 11.778 10.3388M11.4536 10.527L11.7776 10.3382C11.7778 10.3384 11.7779 10.3386 11.778 10.3388M11.9682 14.8074L11.9654 15.1824L12.3595 15.1853L12.3623 14.8103M11.9682 14.8074L12.3623 14.8103M11.9682 14.8074L11.9956 11.1816C11.9978 10.881 11.9272 10.5952 11.778 10.3388M12.3623 14.8103L12.3875 11.477L12.3888 11.3072L12.5173 11.1961L14.518 9.46736M14.518 9.46736L13.9642 9.46323M14.518 9.46736L14.9546 9.47062L14.9549 9.47062L15.6923 9.47612M14.518 9.46736L14.7664 9.25274L14.7671 9.25214C15.0823 8.98112 15.5531 9.12183 15.6923 9.47612M8.48098 10.1931C8.64167 9.9112 8.87361 9.68295 9.18062 9.51438L9.18127 9.51402C9.47792 9.35037 9.85404 9.25941 10.3122 9.26283L10.3341 9.263C10.7919 9.26641 11.1673 9.36176 11.4601 9.53037L11.4607 9.53074C11.7672 9.70648 11.997 9.93903 12.1512 10.2205L12.1512 10.2206L12.1533 10.2244C12.1725 10.2584 12.1902 10.2955 12.2144 10.3463L12.4255 10.791L12.7981 10.4694L13.9642 9.46323M13.9642 9.46323L14.0227 9.41276L14.0227 9.41277L14.0244 9.41128C14.0239 9.41177 14.0233 9.41227 14.0227 9.41276C13.985 9.44499 13.936 9.46302 13.8865 9.46265L13.9642 9.46323ZM15.6923 9.47612C15.7186 9.54298 15.7331 9.61745 15.7324 9.69819L15.6937 14.8385L16.1282 14.8418L16.1687 9.47967L15.6923 9.47612Z" fill="url(#paint8_linear_10789_137277)" fill-opacity="0.2"/>
<path d="M11.6473 9.20542C11.2865 8.99764 10.8442 8.89179 10.337 8.88801L10.3151 8.88784C9.80621 8.88405 9.36396 8.98498 9.00015 9.18567C8.63466 9.38636 8.35117 9.6633 8.15478 10.0081M11.6473 9.20542L12.7625 11.4798L12.7373 14.8131L12.3623 14.8103M11.6473 9.20542C11.9419 9.37437 12.1827 9.59181 12.3643 9.8532L11.6473 9.20542ZM8.15478 10.0081C7.96008 10.353 7.85946 10.7355 7.85633 11.1507L7.82899 14.7765L8.20398 14.7793M8.15478 10.0081L8.48064 10.1937C8.48076 10.1935 8.48087 10.1933 8.48098 10.1931M8.15478 10.0081L8.48133 10.1925C8.48121 10.1927 8.4811 10.1929 8.48098 10.1931M8.20398 14.7793L8.20115 15.1543L8.59527 15.1572L8.5981 14.7823M8.20398 14.7793L8.5981 14.7823M8.20398 14.7793L8.23132 11.1535C8.23399 10.7997 8.31902 10.4802 8.48098 10.1931M8.5981 14.7823L8.97309 14.785L9.00043 11.1593C9.00223 10.9206 9.06286 10.7025 9.17721 10.51C9.29326 10.3159 9.44944 10.1624 9.64406 10.0512C9.837 9.94 10.0582 9.88449 10.2991 9.88629L10.3412 9.88661C10.5822 9.8884 10.8025 9.9472 10.9937 10.0613M8.5981 14.7823L8.62544 11.1565C8.62773 10.8538 8.7053 10.5702 8.85482 10.3185L8.85533 10.3176L8.85533 10.3176C9.00403 10.0689 9.20659 9.86938 9.45745 9.72594C9.71295 9.57884 10.0005 9.50905 10.3019 9.5113L10.3441 9.51162C10.6457 9.51387 10.9324 9.58805 11.1858 9.73919L10.9937 10.0613M10.9937 10.0613C11.1867 10.1753 11.3405 10.3311 11.4536 10.527M10.9937 10.0613L11.1846 9.73846C11.4334 9.88555 11.633 10.0879 11.778 10.3388M11.4536 10.527C11.5667 10.7212 11.6224 10.9401 11.6206 11.1788L11.5932 14.8046L11.9682 14.8074M11.4536 10.527L11.7784 10.3394C11.7782 10.3392 11.7781 10.339 11.778 10.3388M11.4536 10.527L11.7776 10.3382C11.7778 10.3384 11.7779 10.3386 11.778 10.3388M11.9682 14.8074L11.9654 15.1824L12.3595 15.1853L12.3623 14.8103M11.9682 14.8074L12.3623 14.8103M11.9682 14.8074L11.9956 11.1816C11.9978 10.881 11.9272 10.5952 11.778 10.3388M12.3623 14.8103L12.3875 11.477L12.3888 11.3072L12.5173 11.1961L14.518 9.46736M14.518 9.46736L13.9642 9.46323M14.518 9.46736L14.9546 9.47062L14.9549 9.47062L15.6923 9.47612M14.518 9.46736L14.7664 9.25274L14.7671 9.25214C15.0823 8.98112 15.5531 9.12183 15.6923 9.47612M8.48098 10.1931C8.64167 9.9112 8.87361 9.68295 9.18062 9.51438L9.18127 9.51402C9.47792 9.35037 9.85404 9.25941 10.3122 9.26283L10.3341 9.263C10.7919 9.26641 11.1673 9.36176 11.4601 9.53037L11.4607 9.53074C11.7672 9.70648 11.997 9.93903 12.1512 10.2205L12.1512 10.2206L12.1533 10.2244C12.1725 10.2584 12.1902 10.2955 12.2144 10.3463L12.4255 10.791L12.7981 10.4694L13.9642 9.46323M13.9642 9.46323L14.0227 9.41276L14.0227 9.41277L14.0244 9.41128C14.0239 9.41177 14.0233 9.41227 14.0227 9.41276C13.985 9.44499 13.936 9.46302 13.8865 9.46265L13.9642 9.46323ZM15.6923 9.47612C15.7186 9.54298 15.7331 9.61745 15.7324 9.69819L15.6937 14.8385L16.1282 14.8418L16.1687 9.47967L15.6923 9.47612Z" fill="url(#paint9_linear_10789_137277)" fill-opacity="0.2"/>
<path d="M11.6473 9.20542C11.2865 8.99764 10.8442 8.89179 10.337 8.88801L10.3151 8.88784C9.80621 8.88405 9.36396 8.98498 9.00015 9.18567C8.63466 9.38636 8.35117 9.6633 8.15478 10.0081M11.6473 9.20542L12.7625 11.4798L12.7373 14.8131L12.3623 14.8103M11.6473 9.20542C11.9419 9.37437 12.1827 9.59181 12.3643 9.8532L11.6473 9.20542ZM8.15478 10.0081C7.96008 10.353 7.85946 10.7355 7.85633 11.1507L7.82899 14.7765L8.20398 14.7793M8.15478 10.0081L8.48064 10.1937C8.48076 10.1935 8.48087 10.1933 8.48098 10.1931M8.15478 10.0081L8.48133 10.1925C8.48121 10.1927 8.4811 10.1929 8.48098 10.1931M8.20398 14.7793L8.20115 15.1543L8.59527 15.1572L8.5981 14.7823M8.20398 14.7793L8.5981 14.7823M8.20398 14.7793L8.23132 11.1535C8.23399 10.7997 8.31902 10.4802 8.48098 10.1931M8.5981 14.7823L8.97309 14.785L9.00043 11.1593C9.00223 10.9206 9.06286 10.7025 9.17721 10.51C9.29326 10.3159 9.44944 10.1624 9.64406 10.0512C9.837 9.94 10.0582 9.88449 10.2991 9.88629L10.3412 9.88661C10.5822 9.8884 10.8025 9.9472 10.9937 10.0613M8.5981 14.7823L8.62544 11.1565C8.62773 10.8538 8.7053 10.5702 8.85482 10.3185L8.85533 10.3176L8.85533 10.3176C9.00403 10.0689 9.20659 9.86938 9.45745 9.72594C9.71295 9.57884 10.0005 9.50905 10.3019 9.5113L10.3441 9.51162C10.6457 9.51387 10.9324 9.58805 11.1858 9.73919L10.9937 10.0613M10.9937 10.0613C11.1867 10.1753 11.3405 10.3311 11.4536 10.527M10.9937 10.0613L11.1846 9.73846C11.4334 9.88555 11.633 10.0879 11.778 10.3388M11.4536 10.527C11.5667 10.7212 11.6224 10.9401 11.6206 11.1788L11.5932 14.8046L11.9682 14.8074M11.4536 10.527L11.7784 10.3394C11.7782 10.3392 11.7781 10.339 11.778 10.3388M11.4536 10.527L11.7776 10.3382C11.7778 10.3384 11.7779 10.3386 11.778 10.3388M11.9682 14.8074L11.9654 15.1824L12.3595 15.1853L12.3623 14.8103M11.9682 14.8074L12.3623 14.8103M11.9682 14.8074L11.9956 11.1816C11.9978 10.881 11.9272 10.5952 11.778 10.3388M12.3623 14.8103L12.3875 11.477L12.3888 11.3072L12.5173 11.1961L14.518 9.46736M14.518 9.46736L13.9642 9.46323M14.518 9.46736L14.9546 9.47062L14.9549 9.47062L15.6923 9.47612M14.518 9.46736L14.7664 9.25274L14.7671 9.25214C15.0823 8.98112 15.5531 9.12183 15.6923 9.47612M8.48098 10.1931C8.64167 9.9112 8.87361 9.68295 9.18062 9.51438L9.18127 9.51402C9.47792 9.35037 9.85404 9.25941 10.3122 9.26283L10.3341 9.263C10.7919 9.26641 11.1673 9.36176 11.4601 9.53037L11.4607 9.53074C11.7672 9.70648 11.997 9.93903 12.1512 10.2205L12.1512 10.2206L12.1533 10.2244C12.1725 10.2584 12.1902 10.2955 12.2144 10.3463L12.4255 10.791L12.7981 10.4694L13.9642 9.46323M13.9642 9.46323L14.0227 9.41276L14.0227 9.41277L14.0244 9.41128C14.0239 9.41177 14.0233 9.41227 14.0227 9.41276C13.985 9.44499 13.936 9.46302 13.8865 9.46265L13.9642 9.46323ZM15.6923 9.47612C15.7186 9.54298 15.7331 9.61745 15.7324 9.69819L15.6937 14.8385L16.1282 14.8418L16.1687 9.47967L15.6923 9.47612Z" stroke="url(#paint10_linear_10789_137277)" stroke-width="0.75"/>
<defs>
<filter id="filter0_f_10789_137277" x="0.384766" y="1.63574" width="23.719" height="21.332" filterUnits="userSpaceOnUse" color-interpolation-filters="sRGB">
<feFlood flood-opacity="0" result="BackgroundImageFix"/>
<feBlend mode="normal" in="SourceGraphic" in2="BackgroundImageFix" result="shape"/>
<feGaussianBlur stdDeviation="3.75" result="effect1_foregroundBlur_10789_137277"/>
</filter>
<radialGradient id="paint0_radial_10789_137277" cx="0" cy="0" r="1" gradientUnits="userSpaceOnUse" gradientTransform="translate(3.57543 -2.0807e-06) rotate(63.4545) scale(30.4014 30.3731)">
<stop stop-color="#807AFF"/>
<stop offset="0.435789" stop-color="#6E67FF"/>
<stop offset="0.963542" stop-color="#4D47EB"/>
</radialGradient>
<radialGradient id="paint1_radial_10789_137277" cx="0" cy="0" r="1" gradientUnits="userSpaceOnUse" gradientTransform="translate(18.3387 21.422) rotate(-111.058) scale(23.6424 23.532)">
<stop offset="0.0625" stop-color="#635CFC"/>
<stop offset="1" stop-color="#6862FD"/>
</radialGradient>
<linearGradient id="paint2_linear_10789_137277" x1="5.83185" y1="4.04315" x2="20.1531" y2="10.9414" gradientUnits="userSpaceOnUse">
<stop stop-color="#3B34D0"/>
<stop offset="1" stop-color="#5952F3" stop-opacity="0"/>
</linearGradient>
<linearGradient id="paint3_linear_10789_137277" x1="10.9147" y1="26.6528" x2="13.3141" y2="13.103" gradientUnits="userSpaceOnUse">
<stop stop-color="#150F96"/>
<stop offset="1" stop-color="#342EC8" stop-opacity="0"/>
</linearGradient>
<linearGradient id="paint4_linear_10789_137277" x1="6.93332" y1="27.3375" x2="12.0204" y2="17.9709" gradientUnits="userSpaceOnUse">
<stop stop-color="#EAE8FF"/>
<stop offset="1" stop-color="#514AF1"/>
</linearGradient>
<linearGradient id="paint5_linear_10789_137277" x1="15.0845" y1="1.11174" x2="11.9806" y2="12.9379" gradientUnits="userSpaceOnUse">
<stop stop-color="#BAB8FF"/>
<stop offset="1" stop-color="#514AF2"/>
</linearGradient>
<linearGradient id="paint6_linear_10789_137277" x1="-1.13475" y1="5.13433" x2="7.51461" y2="12.7186" gradientUnits="userSpaceOnUse">
<stop stop-color="#524BF5"/>
<stop offset="1" stop-color="#150F96" stop-opacity="0"/>
</linearGradient>
<linearGradient id="paint7_linear_10789_137277" x1="22.9524" y1="2.88444" x2="9.20977" y2="11.2794" gradientUnits="userSpaceOnUse">
<stop stop-color="#EAE8FF"/>
<stop offset="1" stop-color="#514AF3" stop-opacity="0"/>
</linearGradient>
<linearGradient id="paint8_linear_10789_137277" x1="8.58468" y1="8.87493" x2="19.7793" y2="21.7667" gradientUnits="userSpaceOnUse">
<stop stop-color="#938FF7"/>
<stop offset="1" stop-color="#5F58FF" stop-opacity="0"/>
</linearGradient>
<linearGradient id="paint9_linear_10789_137277" x1="16.4612" y1="20.6477" x2="11.507" y2="13.6316" gradientUnits="userSpaceOnUse">
<stop stop-color="#150F96"/>
<stop offset="1" stop-color="#6059FF" stop-opacity="0"/>
</linearGradient>
<linearGradient id="paint10_linear_10789_137277" x1="8.94025" y1="8.87759" x2="10.5002" y2="10.311" gradientUnits="userSpaceOnUse">
<stop stop-color="white"/>
<stop offset="1" stop-color="#D3D1FD" stop-opacity="0"/>
</linearGradient>
</defs>
</svg>
