<svg width="218" height="43" viewBox="0 0 218 43" fill="none" xmlns="http://www.w3.org/2000/svg">
<path d="M16.1396 20.63L7.59961 14.55C11.2496 11.54 18.0296 7.53999 23.8496 7.23999" fill="#86D4C9"/>
<path d="M43.1194 28.9698C52.9794 23.2698 58.6793 14.6798 55.8493 9.76977C53.0193 4.86977 42.7393 5.50977 32.8793 11.2098C23.0194 16.9098 17.3194 25.4998 20.1494 30.4098C22.9794 35.3098 33.2594 34.6698 43.1194 28.9698Z" fill="#77A4F2"/>
<path d="M5.55 29.0899C3.19 30.4599 0.65 34.3099 0 36.9799C2.63 37.7399 7.24 37.4799 9.6 36.1099C11.54 34.9899 12.2 32.5099 11.08 30.5799C9.96 28.6399 7.49 27.9799 5.55 29.0999V29.0899Z" fill="#FF8486"/>
<path d="M39.9494 23.4798C49.8094 17.7798 55.5094 9.18978 52.6794 4.27978C49.8494 -0.620221 39.5694 0.0197816 29.7094 5.71978C19.8494 11.4198 14.1494 20.0098 16.9794 24.9198C19.8094 29.8198 30.0894 29.1798 39.9494 23.4798Z" fill="white"/>
<path d="M36.6101 22.0999C45.4101 17.0099 50.8301 9.91995 48.7201 6.24995C46.6101 2.57995 37.7601 3.73995 28.9601 8.81995C20.1601 13.9099 14.7401 20.9999 16.8501 24.6699C18.9601 28.3399 27.8101 27.1799 36.6101 22.0999Z" fill="#86D4C9"/>
<path d="M50.1895 14.8799L53.0194 19.7899C53.0194 19.7899 54.3094 18.7699 54.7694 17.8599C55.2194 16.9399 57.2094 13.3199 55.7394 10.6999C54.2694 8.06994 53.6595 7.25994 53.2295 8.75994C52.7995 10.2499 50.1895 14.8899 50.1895 14.8899V14.8799Z" fill="white"/>
<path d="M28.2401 27.8899C25.1601 28.4199 23.7901 28.2999 21.8301 27.8299C19.8701 27.3599 20.1001 28.0999 19.0101 29.4599C17.9301 30.8099 14.8301 41.1899 14.8301 41.1899C14.8301 41.1899 18.9801 41.5899 23.6701 38.8899C28.3601 36.1799 39.5401 28.4099 39.4201 25.8499C39.3001 23.2899 38.3801 25.2899 35.3801 26.1299C32.3901 26.9799 28.2401 27.8999 28.2401 27.8999V27.8899Z" fill="#86D4C9"/>
<path d="M8.66957 14.82C13.5496 12.2 19.0396 9.75998 22.1696 10.46C22.1696 10.46 23.8096 7.52998 23.2796 7.26998C22.7396 7.00998 11.4296 11.67 9.24957 13.27C7.06957 14.87 8.66957 14.82 8.66957 14.82Z" fill="white"/>
<path d="M21.1299 19.7999C18.0599 20.6399 15.4499 21.6299 13.5599 22.6099C11.6799 23.5899 10.9199 23.9599 11.0299 24.8599C11.1399 25.7499 13.3499 31.0099 14.4299 31.6099C15.5099 32.2099 17.1799 31.3399 17.7599 29.9099C18.3399 28.4899 18.3399 27.7399 20.1799 25.5999C22.0199 23.4599 25.2799 19.5599 21.1299 19.7999Z" fill="#86D4C9"/>
<path d="M11.6094 25.89C13.0494 25.06 16.5294 23.01 21.8194 21.71L20.6594 23.93L12.3894 28.71L11.6194 25.89H11.6094Z" fill="white"/>
<path d="M15.8708 39.9599C19.1608 38.7099 28.6608 35.0499 34.7308 27.0999C34.7308 27.0999 38.9308 24.2399 39.5608 24.3099C40.1908 24.3699 35.7608 31.5499 29.5308 35.0999C23.3108 38.6499 14.8808 42.5599 15.8708 39.9699V39.9599Z" fill="white"/>
<path d="M44.0807 7.78976C47.3607 13.4798 26.7807 25.3798 23.5007 19.6898C20.2207 13.9998 22.1707 6.72976 27.8507 3.43976C33.5307 0.159759 40.8007 2.09976 44.0807 7.79976V7.78976Z" fill="#86D4C9"/>
<path d="M62.9397 2.25995C62.1197 0.839947 60.3097 0.349946 58.8897 1.16995C57.7797 1.80995 57.2497 3.05995 57.4697 4.25995L53.4297 6.59995L54.4397 8.34995L58.4797 6.00995C59.4097 6.78995 60.7497 6.95995 61.8597 6.31995C63.2797 5.49995 63.7697 3.67995 62.9397 2.26995V2.25995Z" fill="#38237C"/>
<path d="M56.3307 9.63988L53.1007 4.03988C50.8807 0.279881 44.9507 -0.710122 37.5707 1.41988C34.2707 0.409878 30.5707 0.699881 27.3507 2.55988C25.6907 3.51988 24.3407 4.79988 23.3007 6.26988C17.5907 6.75988 11.1807 10.3999 7.34069 13.4499C7.00069 13.7199 6.81069 14.1299 6.82069 14.5599C6.83069 14.9999 7.05069 15.4099 7.41069 15.6599L14.2907 20.5599C13.3207 20.9899 12.2607 21.5199 11.0807 22.2099C9.02069 23.3999 10.3207 27.7899 11.9007 30.5299C13.0907 32.5999 14.4407 34.0799 15.7207 34.7799L14.0907 40.1699C13.9407 40.6699 14.0607 41.1999 14.4107 41.5899C14.6907 41.9099 15.0907 42.0799 15.5107 42.0799C15.6007 42.0799 15.7007 42.0799 15.7907 42.0499C19.3207 41.3799 26.7707 38.9799 32.9907 34.2899V34.3099C36.3507 33.5199 39.9007 32.0799 43.2507 30.1399C53.7207 24.0899 59.4607 15.0799 56.3307 9.63988ZM51.3907 5.09988C52.5507 7.10988 51.9907 10.0199 49.8107 13.2999C47.4907 16.7799 43.6707 20.1799 39.0507 22.8499C32.2107 26.8099 24.8407 28.3699 20.5107 26.8999L24.1707 21.6299C24.9207 22.0099 25.8207 22.1899 26.8407 22.1899C29.7007 22.1899 33.4107 20.8199 36.7607 18.8799C42.3107 15.6699 47.0007 10.8399 44.9607 7.28988C43.8507 5.36988 42.3307 3.84988 40.5607 2.75988C45.8007 1.72988 49.9207 2.55988 51.3907 5.09988ZM28.3607 4.30988C30.0407 3.33988 31.9007 2.84988 33.7807 2.84988C34.7207 2.84988 35.6807 2.97988 36.6107 3.21988C39.4107 3.96988 41.7607 5.77988 43.2207 8.29988C43.9107 9.48988 42.7907 11.1699 42.0207 12.1199C42.3107 11.3099 42.3307 10.5299 41.9407 9.86988C39.1407 5.00988 32.9307 3.33988 28.0707 6.14988C24.8307 8.02988 23.0107 11.4199 23.0007 14.9199C22.5607 10.7599 24.5207 6.52988 28.3707 4.30988H28.3607ZM9.27069 14.5099C12.7807 11.8699 17.7007 9.24988 22.0507 8.45988C21.7107 9.22988 21.4407 10.0299 21.2507 10.8499C18.4607 13.5399 16.5107 16.3599 15.5707 18.9999L9.27069 14.5099ZM21.9207 18.6999C21.7707 18.7199 21.6207 18.7399 21.4807 18.7499C20.3107 18.8799 19.0607 19.0099 17.5807 19.3999C18.2307 17.7199 19.3807 15.9099 20.9307 14.1199C20.9707 15.6599 21.3107 17.2099 21.9207 18.6999ZM13.9307 29.9599C13.8407 29.8099 13.7407 29.6699 13.6507 29.5099C12.0207 26.6799 11.8607 24.2899 12.1007 23.9399C16.7007 21.2799 19.2407 21.0099 21.7007 20.7499C21.9307 20.7299 22.1607 20.6899 22.3907 20.6599L18.7407 25.9199C18.3507 26.4699 18.0607 27.0899 17.8607 27.7299L17.3407 29.4299C16.9007 29.6799 16.3507 29.9999 15.9607 30.2299C15.3507 30.5899 14.5907 30.6699 13.9307 29.9599ZM16.2807 39.8899L19.6207 28.7099C20.9607 29.1999 22.5307 29.4499 24.2607 29.4499C28.4207 29.4499 33.4807 28.0599 38.4607 25.4499C33.2807 34.2899 21.6307 38.6599 16.2807 39.8899ZM36.6607 31.0599C37.4907 30.1999 38.2807 29.2899 38.9907 28.3199L39.7907 29.7099C38.7507 30.2199 37.7007 30.6699 36.6607 31.0599ZM42.2507 28.3899C41.8507 28.6199 41.4507 28.8399 41.0407 29.0599L39.8707 27.0199C40.3907 26.1899 40.8607 25.3099 41.2707 24.3999L43.2207 27.7899C42.9007 27.9899 42.5807 28.1899 42.2507 28.3799V28.3899ZM44.4107 27.0399L42.2207 23.2299C42.9307 22.7599 43.6307 22.2799 44.2907 21.7699L46.4707 25.5599C45.8107 26.0599 45.1307 26.5599 44.4107 27.0399ZM47.5807 24.6799L45.4007 20.8999C46.0707 20.3499 46.7307 19.7899 47.3407 19.2199L49.5007 22.9599C48.9007 23.5399 48.2607 24.1099 47.5807 24.6699V24.6799ZM50.5207 21.9199L48.3807 18.1999C49.0207 17.5499 49.6007 16.8799 50.1407 16.2099L52.2507 19.8699C51.7307 20.5499 51.1607 21.2399 50.5207 21.9199ZM53.1407 18.5999L51.0607 14.9999C51.2007 14.8099 51.3507 14.6099 51.4807 14.4199C51.9007 13.7899 52.2407 13.1699 52.5607 12.5599L54.5307 15.9699C54.1907 16.8199 53.7307 17.7099 53.1407 18.6099V18.5999ZM55.0607 14.0599L53.2607 10.9499C53.4807 10.3599 53.6407 9.77988 53.7607 9.21988L54.5807 10.6399C55.1407 11.6099 55.2707 12.7799 55.0607 14.0599Z" fill="#38237C"/>
<path d="M95.4904 32.2099C95.4904 32.4799 95.2604 32.7099 94.9604 32.7099H91.3404C91.0404 32.7099 90.8004 32.4799 90.8004 32.2099V18.2599L85.9504 26.7399C85.7504 27.1099 85.5804 27.2799 85.1504 27.2799H82.3704C81.9704 27.2799 81.7704 27.1099 81.5704 26.7399L76.5804 18.2599V32.2099C76.5804 32.4799 76.3504 32.7099 76.0504 32.7099H72.4304C72.1304 32.7099 71.9004 32.4799 71.9004 32.2099V10.3799C71.9004 10.1099 72.1304 9.87988 72.4304 9.87988H76.2504C76.6504 9.87988 76.9204 9.94988 77.1904 10.4199L83.6904 21.7199L90.2204 10.4199C90.4504 9.94988 90.7204 9.87988 91.1204 9.87988H94.9704C95.2704 9.87988 95.5004 10.1099 95.5004 10.3799V32.2099H95.4904Z" fill="white"/>
<path d="M120.6 32.2098C120.6 32.4798 120.37 32.7098 120.1 32.7098H116.28C116.01 32.7098 115.78 32.4798 115.78 32.2098V26.1398H106.64V32.2098C106.64 32.4798 106.41 32.7098 106.14 32.7098H102.32C102.05 32.7098 101.82 32.4798 101.82 32.2098V19.0998C101.82 16.3498 102.89 13.4998 105.17 11.6198C106.64 10.3798 108.65 9.56982 111.2 9.56982C113.75 9.56982 115.79 10.3798 117.26 11.6198C119.57 13.4998 120.61 16.3498 120.61 19.0998V32.2098H120.6ZM108.04 15.2798C107.17 16.1798 106.63 17.4898 106.63 19.2998V21.8498H115.77V19.2998C115.77 17.4898 115.24 16.1798 114.39 15.2798C113.55 14.4698 112.42 14.0698 111.18 14.0698C109.94 14.0698 108.87 14.4698 108.03 15.2798H108.04Z" fill="white"/>
<path d="M137.941 32.3099C137.801 32.6799 137.571 32.8099 137.171 32.8099H133.151C132.711 32.8099 132.481 32.6799 132.351 32.3099L124.051 10.5899C123.881 10.1899 124.021 9.87988 124.451 9.87988H128.501C128.941 9.87988 129.211 10.0499 129.341 10.4499L135.131 26.7399H135.201L141.191 10.4499C141.331 10.0499 141.561 9.87988 142.031 9.87988H146.051C146.451 9.87988 146.621 10.1799 146.451 10.5899L137.951 32.3099H137.941Z" fill="white"/>
<path d="M164.79 24.1299L169.75 31.8399C169.98 32.2499 170.02 32.7099 169.45 32.7099H165.26C164.79 32.7099 164.52 32.6399 164.29 32.2099L159.81 24.7999H155.49V32.2099C155.49 32.4799 155.29 32.7099 154.99 32.7099H151.21C150.91 32.7099 150.68 32.4799 150.68 32.2099V10.3799C150.68 10.1099 150.91 9.87988 151.21 9.87988H160.99C163.2 9.87988 165.21 10.2799 166.75 11.4199C168.43 12.6599 169.4 14.8099 169.4 17.2899C169.4 19.4699 168.6 21.4199 166.86 22.8899C166.19 23.4599 165.52 23.8299 164.82 24.1299H164.79ZM155.48 13.9699V20.7099H160.17C161.41 20.7099 162.41 20.6099 163.11 20.1399C163.91 19.6399 164.49 18.6999 164.49 17.3499C164.49 15.9999 163.99 15.1399 163.22 14.5999C162.48 14.1299 161.58 13.9699 160.58 13.9699H155.49H155.48Z" fill="white"/>
<path d="M188.83 10.3799C189.03 10.0499 189.23 9.87988 189.7 9.87988H194.09C194.63 9.87988 194.72 10.2799 194.42 10.7199L185.95 23.2199V32.2099C185.95 32.4799 185.72 32.7099 185.45 32.7099H181.63C181.36 32.7099 181.13 32.4799 181.13 32.2099V23.1899L172.73 10.7199C172.43 10.2799 172.53 9.87988 173.06 9.87988H177.45C177.89 9.87988 178.09 10.0099 178.29 10.3799L183.55 18.4299L188.84 10.3799H188.83Z" fill="white"/>
<path d="M205.371 23.3199L203.531 25.1999V32.2099C203.531 32.4799 203.331 32.7099 203.031 32.7099H199.251C198.951 32.7099 198.721 32.4799 198.721 32.2099V10.3899C198.721 10.1199 198.951 9.88989 199.251 9.88989H203.031C203.331 9.88989 203.531 10.1199 203.531 10.3899V19.0699L211.401 10.3899C211.701 10.0599 212.031 9.88989 212.441 9.88989H217.291C217.731 9.88989 217.891 10.2899 217.521 10.6599L208.751 19.7799L217.791 31.8499C218.091 32.2199 218.121 32.7199 217.521 32.7199H213.041C212.601 32.7199 212.331 32.5899 212.071 32.2199L205.371 23.3299V23.3199Z" fill="white"/>
</svg>
