<svg width="1440" height="749" viewBox="0 0 1440 749" fill="none" xmlns="http://www.w3.org/2000/svg">
<g clip-path="url(#clip0_30075_231038)">
<path d="M1440 0H0V749H1440V0Z" fill="url(#paint0_linear_30075_231038)"/>
<path d="M1440 0H0V749H1440V0Z" fill="url(#paint1_linear_30075_231038)"/>
<path d="M-209 308.495V748.88H1988V488.836C1988 473.435 1977.83 459.916 1962.92 455.566L1934.65 447.337V283.337C1934.65 279.457 1933.12 275.813 1930.51 273.462C1927.91 270.875 1924.48 269.347 1920.58 269.347C1899.05 269.347 1881.54 286.746 1881.54 308.143V389.496L1860.02 397.608C1842.39 404.191 1829.15 419.474 1825.24 437.932L1820.87 458.035H1789.99C1772.01 458.035 1757.58 472.377 1757.58 490.247V529.63H1756.4C1743.39 529.63 1731.21 535.861 1720.92 546.442L1715.24 428.056C1714.76 417.005 1723.52 407.953 1734.52 407.953H1771.54C1776.86 407.953 1781 403.603 1781 398.548C1781 393.493 1776.63 389.143 1771.54 389.143H1766.22C1761.25 389.143 1757.7 384.676 1758.88 379.738C1759.71 375.859 1760.19 371.861 1760.19 367.629C1760.19 336.122 1732.74 310.494 1698.68 310.494C1664.61 310.494 1637.17 336.122 1637.17 367.629C1637.17 371.744 1637.64 375.859 1638.47 379.738C1639.65 384.441 1635.87 389.143 1631.14 389.143H1625.82C1620.49 389.143 1616.12 393.493 1616.12 398.548C1616.12 403.603 1620.49 407.953 1625.58 407.953H1662.72C1673.84 407.953 1682.59 417.123 1682 428.056L1675.61 560.784H1653.85V537.625C1653.85 526.926 1646.75 518.109 1637.05 515.17V499.652C1637.05 490.6 1629.72 483.311 1620.61 483.311H1592.7C1593.41 474.141 1593.88 464.618 1593.88 455.096C1593.88 354.815 1549.29 268.406 1484.94 227.847C1477.13 222.91 1466.84 228.435 1466.84 237.723V338.944C1425.56 340.825 1390.19 373.507 1372.69 420.65H1344.3V388.438C1344.3 385.028 1341.46 382.207 1338.03 382.207H1323.84C1315.91 382.207 1309.17 388.438 1308.7 396.432L1304.79 467.91H1288.71L1235.83 336.358H1264.22C1266.82 336.358 1269.31 335.182 1270.85 333.536C1272.62 331.773 1273.69 329.539 1273.69 326.953C1273.69 321.662 1269.55 317.548 1264.22 317.548H1183.32C1180.71 317.548 1178.23 318.723 1176.69 320.369C1174.92 322.133 1173.85 324.366 1173.85 326.953C1173.85 332.243 1177.99 336.358 1183.32 336.358H1211.7V355.168H1183.32C1180.71 355.168 1178.23 356.343 1176.69 357.989C1174.92 359.753 1173.85 361.986 1173.85 364.573C1173.85 369.863 1177.99 373.978 1183.32 373.978H1211.59V392.788H1183.2C1180.6 392.788 1178.11 393.963 1176.57 395.609C1174.8 397.373 1173.74 399.606 1173.74 402.193C1173.74 407.483 1177.88 411.598 1183.2 411.598H1211.59V430.408H1183.2C1180.6 430.408 1178.11 431.583 1176.57 433.229C1174.8 434.993 1173.74 437.226 1173.74 439.813C1173.74 445.103 1177.88 449.218 1183.2 449.218H1211.59V467.91H1156.58C1148.07 467.91 1141.21 474.846 1141.21 483.193V560.902H1127.01V469.438C1127.01 461.327 1120.39 454.743 1112.23 454.743H1108.8C1106.43 454.743 1104.66 456.624 1104.66 458.858V500.475C1104.66 504.59 1101.35 507.999 1097.09 507.999H1067.04C1057.34 476.257 1039.13 454.743 1018.43 454.743C987.439 454.743 962.244 502.356 962.244 561.137V590.293H927.942V562.548C927.942 559.138 925.222 556.317 921.673 556.317H919.307C917.888 556.317 916.705 557.493 916.705 558.903V590.293H904.404V553.143C904.404 547.265 899.672 542.327 893.64 542.327H878.618C872.704 542.327 867.854 547.03 867.854 553.143V606.986C867.854 611.689 864.069 615.451 859.338 615.451H849.047C849.165 613.452 849.284 611.571 849.284 609.455C849.284 589.47 839.703 573.364 827.992 573.364C816.282 573.364 806.701 589.47 806.701 609.455C806.701 611.454 806.82 613.452 806.938 615.451H786.593V543.503C786.593 538.918 790.378 535.156 794.991 535.156H796.766C803.035 535.156 808.003 530.101 808.003 523.987C808.003 517.874 802.916 512.819 796.766 512.819H790.142C788.249 512.819 786.711 511.291 786.711 509.41V504.472C786.711 499.887 790.497 496.125 795.11 496.125H810.132C816.401 496.125 821.369 491.07 821.369 484.957C821.369 478.843 816.282 473.788 810.132 473.788H740.817C734.548 473.788 729.581 478.843 729.581 484.957C729.581 491.07 734.667 496.125 740.817 496.125H755.839C760.453 496.125 764.238 499.887 764.238 504.472V509.41C764.238 511.291 762.7 512.819 760.807 512.819H754.183C747.914 512.819 742.947 517.874 742.947 523.987C742.947 530.101 748.033 535.156 754.183 535.156H755.958C760.571 535.156 764.356 538.918 764.356 543.503V615.569H718.107V575.832C718.107 567.721 711.483 561.137 703.322 561.137H674.224C671.385 561.137 668.901 558.668 668.901 555.847V551.85C668.901 546.677 664.761 542.445 659.438 542.445H632.943V509.527C632.943 504.942 636.728 501.18 641.341 501.18H643.115C649.384 501.18 654.352 496.125 654.352 490.012C654.352 483.898 649.266 478.843 643.115 478.843H636.491C634.599 478.843 633.061 477.315 633.061 475.434V470.379C633.061 465.794 636.846 462.032 641.459 462.032H656.245C662.514 462.032 667.482 456.977 667.482 450.863C667.482 444.75 662.395 439.695 656.245 439.695H586.93C580.661 439.695 575.694 444.75 575.694 450.863C575.694 456.977 580.78 462.032 586.93 462.032H601.952C606.565 462.032 610.351 465.794 610.351 470.379V475.434C610.351 477.315 608.813 478.843 606.92 478.843H600.297C594.027 478.843 589.06 483.898 589.06 490.012C589.06 496.125 594.146 501.18 600.297 501.18H602.071C606.684 501.18 610.469 504.942 610.469 509.527V603.93H444.872L439.904 456.742C439.431 443.81 449.84 432.994 462.969 432.994H484.733C492.304 432.994 498.336 426.763 498.218 419.474C498.099 412.185 491.83 406.425 484.497 406.425H422.989L421.452 360.693C420.86 344.705 433.635 331.538 449.721 331.538H475.862C481.895 331.538 486.981 327.07 487.454 321.192C487.69 317.783 486.389 314.726 484.26 312.61C482.249 310.494 479.529 309.318 476.454 309.318C474.324 309.318 472.432 307.437 472.314 305.439C472.195 303.44 471.841 301.324 471.604 299.208C466.991 270.052 442.861 247.598 413.882 247.598C384.902 247.598 360.772 269.935 356.159 299.208C355.686 301.206 355.568 303.205 355.449 305.439C355.213 307.555 353.439 309.318 351.31 309.318C345.632 309.318 340.546 313.315 339.836 318.841C338.771 325.777 344.212 331.538 350.955 331.538H377.332C393.3 331.538 406.311 344.822 405.602 360.693L404.064 406.425H341.61C334.04 406.425 328.008 412.656 328.126 419.945C328.244 427.233 334.513 432.994 341.847 432.994H363.138C376.149 432.994 386.558 443.81 386.203 456.742L381.708 593.349L370.826 585.708C368.815 583.591 366.095 582.533 363.138 582.533H342.793C342.793 561.842 332.502 544.678 319.964 544.678C307.426 544.678 297.136 561.49 297.136 582.533H293.705V561.137H293.587V498.947C293.587 489.894 289.802 481.312 283.06 475.081L270.64 463.913L270.758 403.133C270.758 388.085 258.457 375.623 243.317 375.623H239.65C236.574 375.623 234.209 378.092 234.209 381.031V504.59L221.198 513.407C212.326 519.402 206.885 529.395 206.885 540.211V561.255H187.842C185.239 504.119 164.303 459.563 138.636 459.563C123.022 459.563 109.065 476.375 99.9568 502.473H63.4072V347.173C63.4072 340.943 68.4933 336.005 74.6441 336.005H131.657C135.442 336.005 138.636 333.183 138.636 329.304C138.636 328.246 138.517 327.423 138.162 326.6C137.689 325.777 137.334 325.072 136.743 324.484C135.442 323.191 133.904 322.485 132.012 322.485H123.495C116.753 322.485 111.194 317.783 109.893 311.317C104.57 284.983 81.1497 265.115 52.9982 265.115C24.8467 265.115 1.42656 284.983 -3.89621 311.317C-5.19733 317.783 -10.8749 322.485 -17.4988 322.485H-26.0152C-27.3164 322.485 -28.7358 322.955 -29.8003 323.661C-31.5746 324.836 -32.6391 326.953 -32.6391 329.304C-32.6391 333.066 -29.8003 336.005 -25.897 336.005H30.9975C37.2665 336.005 42.2344 341.06 42.2344 347.173V502.473H-10.2835C-16.316 502.473 -21.2839 497.536 -21.2839 491.54V461.797C-21.2839 442.046 -37.3705 426.293 -57.0056 426.293H-64.1026V393.375C-64.1026 383.618 -72.0276 375.741 -82.0817 375.741C-85.3936 375.741 -88.1141 378.445 -88.1141 381.737V426.293H-90.9529C-97.4585 426.293 -102.781 421.003 -102.781 414.537V373.272C-102.781 337.768 -131.879 308.848 -167.601 308.848H-209V308.495Z" fill="url(#paint2_linear_30075_231038)"/>
<path d="M-178 489.292L-178 749H1611.88L1611.88 483.887H1548.69L1546.21 415.968C1545.62 399.987 1558.35 386.709 1574.39 386.709H1612L1611.76 358.037H1355.21C1344.12 357.214 1335.75 370.375 1344.24 382.126C1346.25 385.063 1349.55 386.709 1353.2 386.709H1462.26C1478.18 386.709 1491.03 399.987 1490.44 415.968L1490.09 422.666H1452.36C1449.29 422.666 1446.94 425.133 1446.94 428.071C1446.94 439.234 1456.01 448.282 1467.22 448.282H1488.91L1488.08 469.786H1452.36C1449.29 469.786 1446.94 472.254 1446.94 475.192C1446.94 486.355 1456.01 495.403 1467.22 495.403H1487.38L1486.55 516.907H1452.48C1449.41 516.907 1447.05 519.374 1447.05 522.312C1447.05 533.475 1456.13 542.523 1467.33 542.523H1485.49L1484.67 564.027H1418.4L1411.45 549.221C1409.91 546.048 1406.73 544.051 1403.19 544.051H1377.14C1372.66 544.051 1368.88 547.224 1368.18 551.571L1359.69 601.394H1340.82C1337.29 601.394 1334.1 603.745 1333.04 607.035L1331.98 610.09C1331.16 612.323 1329.03 613.968 1326.56 613.968H1306.51C1302.27 613.968 1298.5 611.383 1296.96 607.505L1280.81 566.612C1278.92 561.912 1274.33 558.857 1269.37 558.857H1246.5L1237.89 534.533C1234.95 526.542 1227.4 521.254 1219.03 521.254H1199.58V489.997C1199.58 482.242 1192.62 476.132 1184.84 476.954C1116.45 484.005 1062.57 539.821 1058.56 608.797C1058.45 611.735 1055.97 614.085 1053.02 614.085H1042.65C1039.23 614.085 1036.16 612.323 1034.51 609.385L1018.01 580.478C1014.94 575.19 1009.28 571.9 1003.15 571.9H952.924C947.146 571.9 942.312 576.6 942.312 582.476V601.277H919.203V591.054C919.203 583.651 913.19 577.54 905.645 577.54C903.286 577.54 901.4 579.421 901.4 581.771V611.383H863.907C859.662 611.383 855.536 613.028 852.588 615.965L828.182 639.584C825.353 642.287 821.58 643.815 817.689 643.815H806.606C801.536 643.815 796.82 646.047 793.637 649.925L774.772 672.721C771.589 676.599 766.755 678.832 761.803 678.832H724.664V667.551C724.664 665.671 723.131 664.143 721.245 664.143H716.529C714.642 664.143 713.109 665.671 713.109 667.551V678.832H663.236L647.202 655.8C637.534 641.699 621.499 633.356 604.403 633.356C597.329 633.356 590.962 628.774 588.604 621.958L582.119 602.452C578.7 592.111 571.39 583.533 561.722 578.48L545.569 570.02V569.667C545.569 546.636 529.063 527.482 507.133 523.252C502.417 522.312 498.055 525.955 498.055 530.773V602.217C498.055 610.09 491.688 616.318 483.906 616.318H453.605V603.392C453.605 601.629 452.19 600.102 450.422 600.102H449.007C447.356 600.102 445.824 601.629 445.824 603.392V616.318H409.156C402.907 616.318 397.248 619.726 394.3 625.248L380.741 650.865H326.152L316.131 640.759C312.829 637.587 308.467 635.707 303.751 635.707H273.568L273.45 631.594C273.332 628.069 270.502 625.248 266.847 625.248H259.891L252.109 613.38C249.162 608.68 243.974 605.86 238.315 605.86H214.027V574.368C214.027 566.965 205.066 561.559 197.52 568.257C196.459 569.315 195.752 570.725 195.752 572.37V605.977H170.403C163.447 605.977 156.962 601.982 154.014 595.754C139.866 566.495 118.172 541.466 91.5258 523.017V448.987C91.5258 444.992 88.3425 441.819 84.3338 441.819H73.8404C69.8317 441.819 66.6484 444.992 66.6484 448.987V508.446C52.7359 501.631 37.7622 496.578 22.199 493.288V467.201C22.199 459.328 12.8847 453.453 4.63152 460.268C3.09879 461.443 2.27347 463.206 2.27347 465.086V490.115C-4.09328 489.527 -10.5779 489.175 -17.1805 489.175H-67.0534V410.915C-67.0534 406.92 -70.2367 403.747 -74.2454 403.747H-81.0838C-102.07 403.747 -119.048 420.786 -119.048 441.584V489.292H-178Z" fill="url(#paint3_linear_30075_231038)"/>
<path d="M992.779 122.036C994.796 122.036 996.431 120.402 996.431 118.386C996.431 116.371 994.796 114.736 992.779 114.736C990.762 114.736 989.127 116.371 989.127 118.386C989.127 120.402 990.762 122.036 992.779 122.036Z" fill="#77A4F2"/>
<path d="M737.602 96.8765C739.619 96.8765 741.254 95.2424 741.254 93.2267C741.254 91.211 739.619 89.5769 737.602 89.5769C735.586 89.5769 733.951 91.211 733.951 93.2267C733.951 95.2424 735.586 96.8765 737.602 96.8765Z" fill="#77A4F2"/>
<path d="M299.514 93.2332C300.524 93.2332 301.343 92.4147 301.343 91.405C301.343 90.3954 300.524 89.5769 299.514 89.5769C298.504 89.5769 297.685 90.3954 297.685 91.405C297.685 92.4147 298.504 93.2332 299.514 93.2332Z" fill="#77A4F2"/>
<path d="M952.739 170.721C953.75 170.721 954.569 169.903 954.569 168.893C954.569 167.884 953.75 167.065 952.739 167.065C951.729 167.065 950.91 167.884 950.91 168.893C950.91 169.903 951.729 170.721 952.739 170.721Z" fill="#77A4F2"/>
<path d="M655.207 95.0547C656.217 95.0547 657.036 94.2362 657.036 93.2266C657.036 92.2169 656.217 91.3984 655.207 91.3984C654.197 91.3984 653.378 92.2169 653.378 93.2266C653.378 94.2362 654.197 95.0547 655.207 95.0547Z" fill="#77A4F2"/>
<path d="M16.1781 669.755C17.1882 669.755 18.0072 668.936 18.0072 667.927C18.0072 666.917 17.1882 666.099 16.1781 666.099C15.1679 666.099 14.3491 666.917 14.3491 667.927C14.3491 668.936 15.1679 669.755 16.1781 669.755Z" fill="#77A4F2"/>
<path d="M1204.3 647.671C1205.31 647.671 1206.12 646.853 1206.12 645.843C1206.12 644.833 1205.31 644.015 1204.3 644.015C1203.29 644.015 1202.47 644.833 1202.47 645.843C1202.47 646.853 1203.29 647.671 1204.3 647.671Z" fill="#77A4F2"/>
<path d="M1416.39 246.961C1418.41 246.961 1420.04 245.327 1420.04 243.311C1420.04 241.295 1418.41 239.661 1416.39 239.661C1414.38 239.661 1412.74 241.295 1412.74 243.311C1412.74 245.327 1414.38 246.961 1416.39 246.961Z" fill="#77A4F2"/>
<path d="M575.297 67.3995C577.314 67.3995 578.949 65.7655 578.949 63.7498C578.949 61.734 577.314 60.1 575.297 60.1C573.28 60.1 571.646 61.734 571.646 63.7498C571.646 65.7655 573.28 67.3995 575.297 67.3995Z" fill="#77A4F2"/>
<path d="M123.573 148.246C127.704 148.246 131.052 144.899 131.052 140.771C131.052 136.643 127.704 133.297 123.573 133.297C119.443 133.297 116.095 136.643 116.095 140.771C116.095 144.899 119.443 148.246 123.573 148.246Z" fill="#77A4F2"/>
<path d="M1326.5 141.223C1330.63 141.223 1333.98 137.876 1333.98 133.748C1333.98 129.62 1330.63 126.273 1326.5 126.273C1322.37 126.273 1319.02 129.62 1319.02 133.748C1319.02 137.876 1322.37 141.223 1326.5 141.223Z" fill="#77A4F2"/>
<path d="M1175.72 76.7507H1173.52C1171.19 76.7507 1169.3 74.8577 1169.3 72.5304V66.8061C1169.26 66.2486 1168.77 65.8401 1168.21 65.8855C1167.72 65.9244 1167.33 66.3134 1167.29 66.8061V72.5304C1167.29 74.8642 1165.4 76.7507 1163.07 76.7507H1160.87C1160.31 76.796 1159.9 77.2823 1159.95 77.8398C1159.99 78.3325 1160.38 78.7214 1160.87 78.7603H1163.07C1165.4 78.7603 1167.29 80.6533 1167.29 82.9806V88.705C1167.34 89.2625 1167.82 89.6708 1168.38 89.6255C1168.87 89.5866 1169.26 89.1977 1169.3 88.705V82.9806C1169.3 80.6468 1171.2 78.7603 1173.52 78.7603H1175.72C1176.27 78.8057 1176.76 78.3973 1176.81 77.8398C1176.85 77.2823 1176.44 76.796 1175.89 76.7507C1175.83 76.7507 1175.78 76.7507 1175.72 76.7507Z" fill="#77A4F2"/>
<path d="M1092.77 313.869H1090.58C1088.24 313.869 1086.36 311.976 1086.36 309.648V303.924C1086.31 303.367 1085.82 302.958 1085.27 303.003C1084.77 303.042 1084.38 303.431 1084.35 303.924V309.648C1084.35 311.982 1082.45 313.869 1080.12 313.869H1077.92C1077.37 313.914 1076.96 314.4 1077 314.958C1077.04 315.45 1077.43 315.839 1077.92 315.878H1080.12C1082.46 315.878 1084.35 317.771 1084.35 320.099V325.823C1084.39 326.38 1084.88 326.789 1085.44 326.743C1085.93 326.704 1086.32 326.316 1086.36 325.823V320.099C1086.36 317.765 1088.25 315.878 1090.58 315.878H1092.77C1093.33 315.924 1093.82 315.515 1093.86 314.958C1093.91 314.4 1093.5 313.914 1092.94 313.869C1092.88 313.869 1092.83 313.869 1092.77 313.869Z" fill="#77A4F2"/>
<path d="M202.297 50.875H200.105C197.77 50.875 195.883 48.982 195.883 46.6547V40.924C195.837 40.3665 195.351 39.9581 194.793 40.0034C194.3 40.0423 193.911 40.4313 193.872 40.924V46.6482C193.872 48.982 191.978 50.8685 189.649 50.8685H187.45C186.893 50.9139 186.484 51.4001 186.529 51.9576C186.568 52.4503 186.957 52.8393 187.45 52.8782H189.649C191.984 52.8782 193.872 54.7711 193.872 57.0984V62.8227C193.917 63.3802 194.404 63.7886 194.961 63.7432C195.454 63.7043 195.844 63.3154 195.883 62.8227V57.0984C195.883 54.7646 197.777 52.8782 200.105 52.8782H202.297C202.855 52.9235 203.342 52.5151 203.387 51.9576C203.433 51.4001 203.024 50.9139 202.466 50.8685C202.408 50.8685 202.356 50.8685 202.297 50.8685V50.875Z" fill="#77A4F2"/>
<path d="M412.772 218.875H410.579C408.244 218.875 406.357 216.982 406.357 214.655V208.924C406.311 208.366 405.825 207.958 405.267 208.003C404.774 208.042 404.385 208.431 404.346 208.924V214.648C404.346 216.982 402.452 218.869 400.123 218.869H397.925C397.367 218.914 396.958 219.4 397.003 219.958C397.042 220.45 397.432 220.839 397.925 220.878H400.123C402.458 220.878 404.346 222.771 404.346 225.098V230.823C404.391 231.38 404.878 231.789 405.436 231.743C405.929 231.704 406.318 231.315 406.357 230.823V225.098C406.357 222.765 408.251 220.878 410.579 220.878H412.772C413.329 220.924 413.816 220.515 413.861 219.958C413.907 219.4 413.498 218.914 412.94 218.869C412.882 218.869 412.83 218.869 412.772 218.869V218.875Z" fill="#77A4F2"/>
<path d="M1303.96 648.62H1301.77C1299.44 648.62 1297.55 646.727 1297.55 644.4V638.676C1297.5 638.118 1297.02 637.71 1296.46 637.755C1295.97 637.794 1295.58 638.183 1295.54 638.676V644.4C1295.54 646.734 1293.64 648.62 1291.32 648.62H1289.12C1288.56 648.666 1288.15 649.152 1288.2 649.709C1288.24 650.202 1288.62 650.591 1289.12 650.63H1291.32C1293.65 650.63 1295.54 652.523 1295.54 654.85V660.574C1295.58 661.132 1296.07 661.54 1296.63 661.495C1297.12 661.456 1297.51 661.067 1297.55 660.574V654.85C1297.55 652.516 1299.44 650.63 1301.77 650.63H1303.96C1304.52 650.675 1305.01 650.267 1305.05 649.709C1305.1 649.152 1304.69 648.666 1304.13 648.62C1304.07 648.62 1304.02 648.62 1303.96 648.62Z" fill="#77A4F2"/>
<path d="M289.652 366.3C291.669 366.3 293.304 364.666 293.304 362.65C293.304 360.634 291.669 359 289.652 359C287.635 359 286 360.634 286 362.65C286 364.666 287.635 366.3 289.652 366.3Z" fill="#77A4F2"/>
<path d="M331.975 180.375C331.028 180.756 330.487 181.775 330.775 182.645C330.91 183.051 331.206 183.374 331.603 183.556C332.051 183.763 332.592 183.763 333.091 183.556C338.613 181.344 342.765 180.856 343.94 182.28C345.107 183.705 343.678 187.507 340.211 192.203C339.577 193.056 338.892 193.926 338.148 194.812C334.334 187.374 327.248 181.444 318.953 179.663C318.852 179.638 318.742 179.622 318.64 179.597C313.922 178.644 309.348 179.597 305.779 182.272C305.661 182.355 305.559 182.463 305.449 182.545L305.263 182.661C305.069 182.786 300.367 185.751 297.095 189.544C294.922 192.062 293.645 195.251 293.4 198.754C293.4 198.862 293.383 198.961 293.383 199.069C292.909 207.501 297.002 215.833 303.505 221.316C302.625 221.722 301.763 222.095 300.917 222.434C295.395 224.646 291.244 225.134 290.068 223.71C288.901 222.285 290.33 218.483 293.797 213.787C294.11 213.365 294.229 212.851 294.127 212.379C294.034 211.957 293.772 211.601 293.391 211.377C292.588 210.913 291.447 211.186 290.855 211.998C284.868 220.098 285.502 224.099 287.075 226.02C288.157 227.337 289.882 228 292.233 228C292.901 228 293.62 227.95 294.381 227.843C296.545 227.536 299.116 226.791 302.033 225.623C303.496 225.035 305.018 224.347 306.574 223.577C309.238 225.275 312.189 226.517 315.317 227.172C315.419 227.197 315.529 227.213 315.63 227.238C316.772 227.462 317.913 227.569 319.038 227.569C321.363 227.569 323.612 227.097 325.667 226.153C329.405 224.447 333.218 221.374 334.613 220.19C334.783 220.074 334.952 219.966 335.112 219.85C338.681 217.175 340.812 213.108 341.116 208.395C341.116 208.288 341.124 208.188 341.133 208.081C341.302 204.751 340.752 201.43 339.645 198.291C340.938 196.825 342.105 195.392 343.145 193.992C349.132 185.892 348.498 181.891 346.925 179.97C345.344 178.048 341.471 176.557 331.975 180.367V180.375ZM338.165 207.94C338.165 208.031 338.156 208.122 338.148 208.213C337.97 211.021 336.998 213.539 335.383 215.527C334.783 216.264 334.098 216.943 333.32 217.523C330.445 219.676 326.741 220.43 322.877 219.651C322.784 219.635 322.691 219.61 322.598 219.593C320.653 219.179 318.759 218.492 316.958 217.572C319.478 215.916 322.031 214.102 324.551 212.164C328.525 209.108 332.195 205.919 335.408 202.755C336.076 202.101 336.719 201.446 337.345 200.8C338.004 203.152 338.292 205.554 338.173 207.931L338.165 207.94ZM318.04 182.463C318.133 182.479 318.226 182.504 318.319 182.521C323.858 183.705 328.982 187.026 332.753 191.847C334.081 193.553 335.18 195.359 336.034 197.239C335.391 197.934 334.732 198.638 334.038 199.342C330.698 202.747 326.75 206.225 322.42 209.555C319.537 211.775 316.62 213.812 313.761 215.634C311.698 214.16 309.804 212.354 308.172 210.259C304.401 205.43 302.481 199.715 302.76 194.174C302.76 194.083 302.769 193.992 302.777 193.901C303.023 190.049 304.739 186.736 307.614 184.591C307.775 184.467 307.952 184.359 308.121 184.243C310.159 182.877 312.561 182.164 315.131 182.164C316.087 182.164 317.068 182.264 318.057 182.463H318.04ZM300.782 213.961C299.792 212.545 298.955 211.062 298.287 209.53L302.346 206.49C303.065 208.014 303.927 209.48 304.9 210.872L300.773 213.961H300.782ZM300.012 198.945C300.258 200.552 300.655 202.134 301.188 203.666L297.239 206.623C296.765 204.991 296.469 203.326 296.376 201.67L300.021 198.945H300.012ZM299.776 193.727C299.776 193.835 299.767 193.934 299.759 194.042C299.733 194.522 299.733 194.994 299.733 195.474L296.495 197.901C296.85 195.441 297.839 193.23 299.378 191.441C299.683 191.093 299.995 190.753 300.325 190.414C300.038 191.474 299.852 192.584 299.784 193.735L299.776 193.727ZM306.718 213.191C307.825 214.483 309.052 215.676 310.362 216.752L306.303 219.792C304.976 218.765 303.733 217.581 302.591 216.28L306.718 213.191ZM314.117 219.386C315.106 219.966 316.129 220.488 317.186 220.935L313.542 223.66C312.206 223.221 310.903 222.658 309.652 221.979C311.115 221.175 312.611 220.314 314.117 219.386ZM320.535 222.111C321 222.244 321.473 222.36 321.947 222.459C322.048 222.484 322.158 222.5 322.26 222.525C323.409 222.757 324.551 222.873 325.667 222.881C325.244 223.105 324.83 223.32 324.407 223.511C322.243 224.496 319.799 224.853 317.287 224.546L320.526 222.119L320.535 222.111Z" fill="#77A4F2"/>
<path d="M1222.2 224.538C1223.55 223.018 1224.16 219.788 1219.46 213.028C1218.94 212.288 1217.97 212.008 1217.23 212.388C1216.88 212.568 1216.63 212.888 1216.54 213.268C1216.44 213.688 1216.53 214.158 1216.79 214.548C1219.95 219.098 1220.29 221.608 1219.61 222.378C1218.92 223.148 1216.31 223.228 1211.16 220.908C1210.53 220.618 1209.88 220.308 1209.22 219.978C1213.56 216.128 1216.48 210.688 1216.75 204.928V204.678C1216.87 201.858 1216.11 199.198 1214.58 197.008C1212.3 193.718 1208.84 191.018 1208.7 190.898L1208.58 190.798C1208.49 190.718 1208.42 190.638 1208.34 190.558C1205.71 188.128 1202.14 186.988 1198.27 187.378L1198.03 187.408C1191.49 188.138 1185.53 192.078 1181.85 197.448C1181.32 196.768 1180.82 196.098 1180.37 195.438C1177.21 190.888 1176.87 188.378 1177.56 187.608C1178.24 186.838 1180.86 186.758 1186 189.078C1186.44 189.278 1186.92 189.288 1187.34 189.118C1187.71 188.968 1187.98 188.688 1188.12 188.318C1188.39 187.548 1187.95 186.638 1187.12 186.268C1179.5 182.838 1176.3 183.928 1174.97 185.448C1173.62 186.968 1173.01 190.198 1177.71 196.958C1178.45 198.028 1179.31 199.138 1180.23 200.268C1179.01 202.748 1178.24 205.438 1178.1 208.208V208.458C1177.92 212.258 1179.29 215.688 1181.92 218.118C1182.05 218.228 1182.17 218.328 1182.29 218.428C1183.33 219.508 1186.05 222.208 1188.85 223.848C1190.42 224.768 1192.16 225.328 1194.03 225.518C1194.49 225.568 1194.96 225.588 1195.43 225.588C1195.9 225.588 1196.33 225.568 1196.78 225.528L1197.03 225.508C1200.47 225.148 1203.73 223.878 1206.59 221.988C1207.78 222.628 1208.94 223.218 1210.05 223.718C1212.36 224.758 1214.42 225.458 1216.16 225.778C1216.95 225.928 1217.68 225.998 1218.34 225.998C1220.05 225.998 1221.35 225.508 1222.2 224.538ZM1204.27 215.848C1205.42 214.848 1206.48 213.738 1207.41 212.548L1210.01 214.948C1209.54 215.558 1209.05 216.158 1208.5 216.718C1207.99 217.258 1207.44 217.758 1206.86 218.238L1204.26 215.838L1204.27 215.848ZM1209.04 210.198C1209.88 208.818 1210.58 207.368 1211.09 205.858L1213.41 207.998C1213.03 209.568 1212.42 211.108 1211.59 212.568L1209.03 210.198H1209.04ZM1211.9 202.738C1212.03 201.998 1212.12 201.238 1212.17 200.488V200.238C1212.21 199.638 1212.18 199.058 1212.13 198.478C1212.16 198.518 1212.19 198.558 1212.22 198.598C1213.4 200.298 1213.98 202.368 1213.9 204.588L1211.9 202.738ZM1206.38 192.618C1208.39 194.488 1209.44 197.148 1209.32 200.118V200.328C1209.07 204.648 1207.12 208.928 1203.81 212.378C1202.89 213.328 1201.91 214.178 1200.87 214.928C1198.68 213.408 1196.45 211.718 1194.25 209.898C1191.15 207.338 1188.33 204.698 1185.89 202.118C1185.14 201.328 1184.43 200.548 1183.77 199.768C1184.52 198.558 1185.41 197.398 1186.44 196.318C1189.75 192.868 1193.98 190.698 1198.35 190.208L1198.56 190.188C1198.95 190.148 1199.34 190.128 1199.73 190.128C1200.11 190.128 1200.47 190.148 1200.84 190.178C1202.61 190.358 1204.23 190.978 1205.58 191.968C1205.86 192.168 1206.12 192.378 1206.38 192.618ZM1184.28 204.808C1186.66 207.268 1189.36 209.758 1192.27 212.168C1194.2 213.758 1196.15 215.248 1198.09 216.638C1196.12 217.628 1194.02 218.268 1191.89 218.498L1191.67 218.518C1188.66 218.818 1185.89 217.948 1183.86 216.088C1183.29 215.558 1182.8 214.958 1182.39 214.318C1181.35 212.688 1180.83 210.718 1180.92 208.588V208.368C1181.03 206.438 1181.5 204.508 1182.26 202.668C1182.9 203.378 1183.57 204.088 1184.27 204.808H1184.28ZM1190.5 221.388C1190.98 221.388 1191.47 221.368 1191.96 221.318L1192.21 221.288C1193.04 221.198 1193.85 221.038 1194.65 220.838L1196.69 222.718H1196.68L1196.48 222.738C1194.22 222.948 1192.08 222.498 1190.29 221.448C1190.24 221.418 1190.2 221.388 1190.15 221.368C1190.27 221.368 1190.38 221.388 1190.49 221.388H1190.5ZM1197.77 219.858C1198.77 219.448 1199.73 218.958 1200.66 218.418C1201.71 219.118 1202.75 219.778 1203.77 220.398C1202.59 221.068 1201.37 221.608 1200.1 222.008L1197.77 219.858Z" fill="#77A4F2"/>
<path d="M218.202 403.538C219.546 402.018 220.157 398.788 215.462 392.028C214.943 391.288 213.965 391.008 213.232 391.388C212.876 391.568 212.631 391.888 212.54 392.268C212.438 392.688 212.529 393.158 212.794 393.548C215.951 398.098 216.287 400.608 215.605 401.378C214.923 402.148 212.305 402.228 207.163 399.908C206.531 399.618 205.879 399.308 205.217 398.978C209.556 395.128 212.479 389.688 212.754 383.928V383.678C212.866 380.858 212.112 378.198 210.584 376.008C208.303 372.718 204.841 370.018 204.698 369.898L204.576 369.798C204.494 369.718 204.423 369.638 204.342 369.558C201.714 367.128 198.14 365.988 194.27 366.378L194.025 366.408C187.487 367.138 181.529 371.078 177.853 376.448C177.323 375.768 176.825 375.098 176.366 374.438C173.209 369.888 172.873 367.378 173.555 366.608C174.238 365.838 176.855 365.758 181.998 368.078C182.436 368.278 182.925 368.288 183.342 368.118C183.709 367.968 183.984 367.688 184.116 367.318C184.391 366.548 183.953 365.638 183.118 365.268C175.501 361.838 172.303 362.928 170.969 364.448C169.624 365.968 169.013 369.198 173.708 375.958C174.452 377.028 175.307 378.138 176.234 379.268C175.012 381.748 174.238 384.438 174.095 387.208V387.458C173.922 391.258 175.287 394.688 177.924 397.118C178.047 397.228 178.169 397.328 178.291 397.428C179.33 398.508 182.049 401.208 184.849 402.848C186.418 403.768 188.159 404.328 190.033 404.518C190.491 404.568 190.96 404.588 191.428 404.588C191.897 404.588 192.335 404.568 192.783 404.528L193.027 404.508C196.469 404.148 199.728 402.878 202.59 400.988C203.781 401.628 204.942 402.218 206.052 402.718C208.364 403.758 210.421 404.458 212.163 404.778C212.947 404.928 213.68 404.998 214.342 404.998C216.053 404.998 217.347 404.508 218.202 403.538ZM200.268 394.848C201.419 393.848 202.478 392.738 203.415 391.548L206.012 393.948C205.543 394.558 205.054 395.158 204.505 395.718C203.985 396.258 203.435 396.758 202.865 397.238L200.258 394.838L200.268 394.848ZM205.044 389.198C205.879 387.818 206.582 386.368 207.091 384.858L209.413 386.998C209.026 388.568 208.415 390.108 207.59 391.568L205.034 389.198H205.044ZM207.896 381.738C208.028 380.998 208.12 380.238 208.171 379.488V379.238C208.211 378.638 208.181 378.058 208.13 377.478C208.161 377.518 208.191 377.558 208.222 377.598C209.403 379.298 209.983 381.368 209.902 383.588L207.896 381.738ZM202.376 371.618C204.392 373.488 205.441 376.148 205.319 379.118V379.328C205.075 383.648 203.119 387.928 199.81 391.378C198.893 392.328 197.905 393.178 196.867 393.928C194.677 392.408 192.447 390.718 190.247 388.898C187.151 386.338 184.33 383.698 181.886 381.118C181.142 380.328 180.43 379.548 179.768 378.768C180.521 377.558 181.407 376.398 182.436 375.318C185.746 371.868 189.982 369.698 194.351 369.208L194.565 369.188C194.952 369.148 195.339 369.128 195.726 369.128C196.113 369.128 196.469 369.148 196.836 369.178C198.608 369.358 200.227 369.978 201.582 370.968C201.857 371.168 202.121 371.378 202.376 371.618ZM180.277 383.808C182.66 386.268 185.359 388.758 188.271 391.168C190.196 392.758 192.151 394.248 194.086 395.638C192.121 396.628 190.023 397.268 187.894 397.498L187.67 397.518C184.656 397.818 181.886 396.948 179.859 395.088C179.289 394.558 178.8 393.958 178.393 393.318C177.354 391.688 176.835 389.718 176.916 387.588V387.368C177.028 385.438 177.497 383.508 178.26 381.668C178.902 382.378 179.574 383.088 180.267 383.808H180.277ZM186.499 400.388C186.978 400.388 187.467 400.368 187.956 400.318L188.21 400.288C189.035 400.198 189.85 400.038 190.654 399.838L192.691 401.718H192.681L192.477 401.738C190.216 401.948 188.078 401.498 186.285 400.448C186.245 400.418 186.204 400.388 186.153 400.368C186.265 400.368 186.377 400.388 186.489 400.388H186.499ZM193.771 398.858C194.769 398.448 195.726 397.958 196.663 397.418C197.712 398.118 198.751 398.778 199.769 399.398C198.588 400.068 197.366 400.608 196.103 401.008L193.771 398.858Z" fill="#77A4F2"/>
</g>
<defs>
<linearGradient id="paint0_linear_30075_231038" x1="719.971" y1="360.904" x2="719.971" y2="777.761" gradientUnits="userSpaceOnUse">
<stop stop-color="#F2F6FF"/>
<stop offset="1" stop-color="#86D4C9"/>
</linearGradient>
<linearGradient id="paint1_linear_30075_231038" x1="750" y1="64" x2="760" y2="686" gradientUnits="userSpaceOnUse">
<stop stop-color="#DFEBFF"/>
<stop offset="0.417548" stop-color="white"/>
<stop offset="1" stop-color="#DDF9FD"/>
</linearGradient>
<linearGradient id="paint2_linear_30075_231038" x1="648" y1="382" x2="644" y2="1028" gradientUnits="userSpaceOnUse">
<stop stop-color="#EBF0FF"/>
<stop offset="1" stop-color="#C0DBFF"/>
</linearGradient>
<linearGradient id="paint3_linear_30075_231038" x1="717.008" y1="381.559" x2="717.008" y2="748.189" gradientUnits="userSpaceOnUse">
<stop stop-color="#EBF0FF"/>
<stop offset="1" stop-color="white"/>
</linearGradient>
<clipPath id="clip0_30075_231038">
<rect width="1440" height="749" fill="white"/>
</clipPath>
</defs>
</svg>
