<svg width="80" height="16" viewBox="0 0 80 16" fill="none" xmlns="http://www.w3.org/2000/svg">
<path d="M9.18571 7.78249L5.91406 5.45327C7.31236 4.30015 9.90976 2.76776 12.1394 2.65283" fill="#86D4C9"/>
<path d="M19.5191 10.9774C23.2964 8.79377 25.4801 5.50297 24.3959 3.62197C23.3117 1.7448 19.3735 1.98998 15.5962 4.17363C11.8188 6.35728 9.63519 9.64808 10.7194 11.5291C11.8035 13.4063 15.7417 13.1611 19.5191 10.9774Z" fill="#77A4F2"/>
<path d="M5.12618 11.0234C4.22208 11.5482 3.24901 13.0232 3 14.046C4.00754 14.3372 5.77362 14.2376 6.67773 13.7127C7.42093 13.2837 7.67378 12.3336 7.24471 11.5942C6.81564 10.851 5.86939 10.5982 5.12618 11.0272V11.0234Z" fill="#FF8486"/>
<path d="M18.3052 8.87488C22.0825 6.69123 24.2662 3.40043 23.182 1.51943C22.0979 -0.357744 18.1596 -0.112562 14.3823 2.07109C10.605 4.25474 8.42132 7.54554 9.50548 9.42654C10.5896 11.3037 14.5279 11.0585 18.3052 8.87488Z" fill="white"/>
<path d="M17.0248 8.34567C20.396 6.39571 22.4724 3.67956 21.6641 2.2736C20.8558 0.867633 17.4653 1.31202 14.0941 3.25815C10.7228 5.20812 8.64647 7.92427 9.4548 9.33023C10.2631 10.7362 13.6535 10.2918 17.0248 8.34567Z" fill="#86D4C9"/>
<path d="M22.2285 5.57943L23.3127 7.46044C23.3127 7.46044 23.8069 7.06968 23.9831 6.72106C24.1555 6.36861 24.9179 4.9818 24.3547 3.97809C23.7915 2.97055 23.5579 2.66024 23.3931 3.23488C23.2284 3.8057 22.2285 5.58326 22.2285 5.58326V5.57943Z" fill="white"/>
<path d="M13.818 10.5646C12.6381 10.7676 12.1132 10.7216 11.3623 10.5416C10.6115 10.3615 10.6996 10.645 10.282 11.166C9.86826 11.6832 8.68066 15.6597 8.68066 15.6597C8.68066 15.6597 10.2705 15.813 12.0672 14.7786C13.864 13.7404 18.147 10.7638 18.101 9.78304C18.055 8.80231 17.7026 9.56851 16.5533 9.89031C15.4078 10.2159 13.818 10.5684 13.818 10.5684V10.5646Z" fill="#86D4C9"/>
<path d="M6.32232 5.55703C8.19183 4.55332 10.295 3.61856 11.4941 3.88673C11.4941 3.88673 12.1224 2.76426 11.9194 2.66465C11.7125 2.56505 7.37967 4.35028 6.54452 4.96323C5.70937 5.57618 6.32232 5.55703 6.32232 5.55703Z" fill="white"/>
<path d="M11.0959 7.46402C9.9198 7.78582 8.91992 8.16508 8.19586 8.54052C7.47564 8.91595 7.18449 9.0577 7.22663 9.40248C7.26877 9.74344 8.11541 11.7585 8.52916 11.9884C8.9429 12.2182 9.58267 11.885 9.80487 11.3371C10.0271 10.7931 10.0271 10.5058 10.732 9.68597C11.4369 8.86615 12.6858 7.37207 11.0959 7.46402Z" fill="#86D4C9"/>
<path d="M7.44922 9.79666C8.00088 9.47869 9.33405 8.69334 11.3606 8.19531L10.9162 9.04579L7.74803 10.877L7.45305 9.79666H7.44922Z" fill="white"/>
<path d="M9.08038 15.1888C10.3408 14.7099 13.9802 13.3078 16.3056 10.2622C16.3056 10.2622 17.9146 9.16654 18.1559 9.19336C18.3973 9.21634 16.7002 11.967 14.3135 13.327C11.9306 14.687 8.70111 16.1849 9.08038 15.1926V15.1888Z" fill="white"/>
<path d="M19.8868 2.86464C21.1433 5.04446 13.2592 9.60331 12.0027 7.42349C10.7461 5.24367 11.4931 2.45856 13.6691 1.19817C15.8451 -0.0583834 18.6302 0.684824 19.8868 2.86847V2.86464Z" fill="#86D4C9"/>
<path d="M27.114 0.745632C26.7998 0.201635 26.1064 0.0139175 25.5624 0.328057C25.1372 0.573238 24.9341 1.05211 25.0184 1.51182L23.4707 2.40827L23.8576 3.07869L25.4053 2.18224C25.7616 2.48106 26.275 2.54619 26.7002 2.301C27.2442 1.98686 27.4319 1.28963 27.114 0.749464V0.745632Z" fill="#38237C"/>
<path d="M24.5805 3.57235L23.3431 1.42701C22.4927 -0.0134316 20.2209 -0.392698 17.3936 0.423297C16.1294 0.0363698 14.712 0.147469 13.4784 0.860029C12.8425 1.2278 12.3253 1.71816 11.9269 2.28132C9.73937 2.46903 7.28373 3.8635 5.81264 5.03195C5.68238 5.13538 5.60959 5.29245 5.61343 5.45719C5.61726 5.62575 5.70154 5.78282 5.83945 5.87859L8.47516 7.75576C8.10355 7.92049 7.69747 8.12354 7.24542 8.38787C6.45624 8.84376 6.95426 10.5256 7.55956 11.5752C8.01544 12.3682 8.53262 12.9352 9.02298 13.2034L8.39854 15.2683C8.34107 15.4598 8.38704 15.6629 8.52113 15.8123C8.62839 15.9349 8.78163 16 8.94253 16C8.97701 16 9.01532 16 9.0498 15.9885C10.4021 15.7318 13.2562 14.8124 15.6391 13.0157V13.0233C16.9263 12.7207 18.2863 12.169 19.5696 11.4258C23.5807 9.10809 25.7796 5.6564 24.5805 3.57235ZM22.688 1.83309C23.1324 2.60312 22.9179 3.71793 22.0827 4.97448C21.194 6.30766 19.7305 7.61019 17.9606 8.63305C15.3402 10.1501 12.5168 10.7477 10.858 10.1846L12.2601 8.16568C12.5475 8.31125 12.8923 8.38021 13.283 8.38021C14.3787 8.38021 15.8 7.85537 17.0833 7.11216C19.2095 5.88242 21.0062 4.03207 20.2247 2.67207C19.7995 1.93653 19.2172 1.35422 18.5391 0.936647C20.5465 0.542057 22.1249 0.860027 22.688 1.83309ZM13.8653 1.53045C14.5089 1.15884 15.2215 0.971125 15.9417 0.971125C16.3018 0.971125 16.6696 1.02093 17.0259 1.11287C18.0985 1.40019 18.9988 2.0936 19.5581 3.059C19.8225 3.51489 19.3934 4.15849 19.0984 4.52243C19.2095 4.21212 19.2172 3.91331 19.0678 3.66046C17.9951 1.79861 15.6161 1.15884 13.7542 2.23534C12.513 2.95557 11.8158 4.25426 11.8119 5.5951C11.6434 4.00142 12.3942 2.38092 13.8692 1.53045H13.8653ZM6.55201 5.43803C7.89668 4.42666 9.78151 3.42294 11.448 3.1203C11.3177 3.41528 11.2143 3.72176 11.1415 4.0359C10.0727 5.06643 9.32563 6.14676 8.96552 7.15813L6.55201 5.43803ZM11.3982 7.04321C11.3407 7.05087 11.2833 7.05853 11.2296 7.06236C10.7814 7.11216 10.3025 7.16197 9.73554 7.31137C9.98456 6.66777 10.4251 5.97437 11.0189 5.28862C11.0342 5.87859 11.1645 6.47239 11.3982 7.04321ZM8.33724 11.3569C8.30276 11.2994 8.26445 11.2458 8.22997 11.1845C7.60553 10.1003 7.54423 9.18472 7.63617 9.05063C9.39842 8.03159 10.3715 7.92816 11.3139 7.82855C11.402 7.82089 11.4901 7.80557 11.5782 7.79408L10.1799 9.80916C10.0305 10.0199 9.91943 10.2574 9.84281 10.5026L9.6436 11.1538C9.47504 11.2496 9.26433 11.3722 9.11493 11.4603C8.88124 11.5982 8.59008 11.6289 8.33724 11.3569ZM9.23752 15.161L10.5171 10.878C11.0304 11.0657 11.6319 11.1615 12.2946 11.1615C13.8883 11.1615 15.8268 10.629 17.7346 9.6291C15.7502 13.0157 11.2871 14.6898 9.23752 15.161ZM17.045 11.7783C17.363 11.4488 17.6656 11.1002 17.9376 10.7286L18.2441 11.2611C17.8457 11.4565 17.4434 11.6289 17.045 11.7783ZM19.1865 10.7554C19.0333 10.8435 18.8801 10.9278 18.723 11.0121L18.2748 10.2306C18.474 9.9126 18.654 9.57547 18.8111 9.22686L19.5581 10.5256C19.4355 10.6022 19.313 10.6788 19.1865 10.7516V10.7554ZM20.014 10.2382L19.175 8.77863C19.447 8.59858 19.7152 8.41469 19.9681 8.21931L20.8032 9.67125C20.5504 9.86279 20.2899 10.0543 20.014 10.2382ZM21.2284 9.33412L20.3933 7.88602C20.65 7.67531 20.9028 7.46078 21.1365 7.24242L21.964 8.6752C21.7341 8.89739 21.4889 9.11576 21.2284 9.33029V9.33412ZM22.3547 8.27677L21.5349 6.85166C21.7801 6.60264 22.0023 6.34597 22.2092 6.08929L23.0175 7.49143C22.8183 7.75193 22.5999 8.01627 22.3547 8.27677ZM23.3585 7.00489L22.5616 5.62575C22.6152 5.55296 22.6727 5.47634 22.7225 5.40355C22.8834 5.1622 23.0137 4.92468 23.1363 4.69099L23.891 5.99735C23.7607 6.32298 23.5845 6.66394 23.3585 7.00873V7.00489ZM24.094 5.26564L23.4044 4.07421C23.4887 3.84818 23.55 3.62598 23.596 3.41145L23.9101 3.95545C24.1246 4.32705 24.1744 4.77527 24.094 5.26564Z" fill="#38237C"/>
<path d="M39.5812 12.2186C39.5812 12.322 39.4931 12.4102 39.3781 12.4102H37.9913C37.8764 12.4102 37.7845 12.322 37.7845 12.2186V6.87441L35.9264 10.1231C35.8498 10.2648 35.7847 10.3299 35.62 10.3299H34.555C34.4017 10.3299 34.3251 10.2648 34.2485 10.1231L32.3368 6.87441V12.2186C32.3368 12.322 32.2487 12.4102 32.1338 12.4102H30.747C30.6321 12.4102 30.5439 12.322 30.5439 12.2186V3.85561C30.5439 3.75217 30.6321 3.66406 30.747 3.66406H32.2104C32.3637 3.66406 32.4671 3.69088 32.5705 3.87093L35.0607 8.19993L37.5623 3.87093C37.6504 3.69088 37.7538 3.66406 37.9071 3.66406H39.382C39.4969 3.66406 39.585 3.75217 39.585 3.85561V12.2186H39.5812Z" fill="#38237C"/>
<path d="M49.2014 12.2192C49.2014 12.3226 49.1133 12.4108 49.0098 12.4108H47.5464C47.443 12.4108 47.3549 12.3226 47.3549 12.2192V9.89381H43.8534V12.2192C43.8534 12.3226 43.7652 12.4108 43.6618 12.4108H42.1984C42.095 12.4108 42.0068 12.3226 42.0068 12.2192V7.19681C42.0068 6.14329 42.4167 5.05147 43.2902 4.33125C43.8534 3.85621 44.6234 3.5459 45.6003 3.5459C46.5772 3.5459 47.3587 3.85621 47.9218 4.33125C48.8068 5.05147 49.2052 6.14329 49.2052 7.19681V12.2192H49.2014ZM44.3897 5.73338C44.0564 6.07817 43.8495 6.58002 43.8495 7.27343V8.25032H47.351V7.27343C47.351 6.58002 47.148 6.07817 46.8224 5.73338C46.5006 5.42307 46.0677 5.26983 45.5926 5.26983C45.1176 5.26983 44.7077 5.42307 44.3859 5.73338H44.3897Z" fill="#38237C"/>
<path d="M55.8452 12.2569C55.7916 12.3987 55.7035 12.4485 55.5502 12.4485H54.0102C53.8416 12.4485 53.7535 12.3987 53.7037 12.2569L50.524 3.93606C50.4589 3.78282 50.5125 3.66406 50.6773 3.66406H52.2288C52.3974 3.66406 52.5008 3.72919 52.5506 3.88243L54.7687 10.1231H54.7955L57.0903 3.88243C57.1439 3.72919 57.232 3.66406 57.4121 3.66406H58.9521C59.1054 3.66406 59.1705 3.77899 59.1054 3.93606L55.8491 12.2569H55.8452Z" fill="#38237C"/>
<path d="M60.8085 12.4728C60.7239 12.4728 60.6553 12.4042 60.6553 12.3196V3.81486C60.6553 3.73023 60.7239 3.66162 60.8085 3.66162H66.6458C66.7304 3.66162 66.799 3.73023 66.799 3.81486V5.23793C66.799 5.32256 66.7304 5.39117 66.6458 5.39117H62.7849V7.19816H66.3317C66.4164 7.19816 66.485 7.26676 66.485 7.35139V8.77876C66.485 8.8634 66.4164 8.932 66.3317 8.932H62.7849V10.7433H66.6458C66.7304 10.7433 66.799 10.8119 66.799 10.8965V12.3196C66.799 12.4042 66.7304 12.4728 66.6458 12.4728H60.8085Z" fill="#38237C"/>
<path d="M76.5831 3.66162C76.6677 3.66162 76.7364 3.73023 76.7364 3.81486V12.3196C76.7364 12.4042 76.6677 12.4728 76.5831 12.4728H74.9744C74.9245 12.4728 74.8777 12.4485 74.849 12.4077L71.3212 7.38746H71.2642V12.3196C71.2642 12.4042 71.1956 12.4728 71.111 12.4728H69.247C69.1624 12.4728 69.0938 12.4042 69.0938 12.3196V3.81486C69.0938 3.73023 69.1624 3.66162 69.247 3.66162H70.8816C70.9318 3.66162 70.9787 3.68616 71.0074 3.72731L74.4957 8.7384H74.5703V3.81486C74.5703 3.73023 74.6389 3.66162 74.7235 3.66162H76.5831Z" fill="#38237C"/>
</svg>
