<svg width="218" height="43" viewBox="0 0 218 43" fill="none" xmlns="http://www.w3.org/2000/svg">
<path d="M26.6246 20.9158L17.832 14.656C21.59 11.557 28.5705 7.43875 34.5626 7.12988" fill="#86D4C9"/>
<path d="M54.3943 29.5016C64.5459 23.6331 70.4144 14.7891 67.5007 9.73386C64.587 4.68895 54.0031 5.34788 43.8515 11.2164C33.6999 17.085 27.8313 25.929 30.745 30.9842C33.6587 36.0291 44.2427 35.3702 54.3943 29.5016Z" fill="#77A4F2"/>
<path d="M15.7141 29.6258C13.2843 31.0363 10.6692 35.0001 10 37.7491C12.7078 38.5316 17.4541 38.2639 19.8839 36.8534C21.8813 35.7003 22.5608 33.1469 21.4077 31.1598C20.2545 29.1625 17.7115 28.483 15.7141 29.6361V29.6258Z" fill="#FF8486"/>
<path d="M51.1335 23.8512C61.2851 17.9827 67.1537 9.13866 64.24 4.08346C61.3263 -0.961438 50.7423 -0.302509 40.5907 5.56605C30.4392 11.4346 24.5706 20.2786 27.4843 25.3338C30.398 30.3787 40.982 29.7198 51.1335 23.8512Z" fill="white"/>
<path d="M47.6913 22.4292C56.7515 17.1887 62.3318 9.889 60.1594 6.11047C57.987 2.33195 48.8753 3.52625 39.8151 8.75647C30.7549 13.997 25.1746 21.2967 27.347 25.0752C29.5194 28.8537 38.6311 27.6594 47.6913 22.4292Z" fill="#86D4C9"/>
<path d="M61.6768 14.9947L64.5904 20.0499C64.5904 20.0499 65.9186 18.9997 66.3922 18.0628C66.8555 17.1156 68.9043 13.3885 67.3909 10.6911C65.8774 7.98328 65.2494 7.14933 64.8067 8.69369C64.3639 10.2277 61.6768 15.005 61.6768 15.005V14.9947Z" fill="white"/>
<path d="M39.0741 28.3925C35.9031 28.9382 34.4925 28.8146 32.4746 28.3307C30.4566 27.8468 30.6934 28.6087 29.5712 30.0089C28.4592 31.3988 25.2676 42.0858 25.2676 42.0858C25.2676 42.0858 29.5403 42.4976 34.369 39.7178C39.1977 36.9276 50.7083 28.9279 50.5847 26.2922C50.4612 23.6565 49.514 25.7156 46.4253 26.5804C43.3469 27.4556 39.0741 28.4028 39.0741 28.4028V28.3925Z" fill="#86D4C9"/>
<path d="M18.9285 14.9344C23.9528 12.2369 29.6052 9.72479 32.8277 10.4455C32.8277 10.4455 34.5162 7.42885 33.9705 7.16116C33.4146 6.89347 21.7701 11.6913 19.5256 13.3386C17.2812 14.9859 18.9285 14.9344 18.9285 14.9344Z" fill="white"/>
<path d="M31.757 20.0592C28.5962 20.9241 25.909 21.9434 23.9632 22.9523C22.0276 23.9613 21.2451 24.3423 21.3583 25.2689C21.4716 26.1852 23.7469 31.6007 24.8589 32.2185C25.9708 32.8362 27.6902 31.9405 28.2873 30.4682C28.8845 29.0062 28.8845 28.234 30.7789 26.0308C32.6733 23.8275 36.0297 19.8121 31.757 20.0592Z" fill="#86D4C9"/>
<path d="M21.957 26.3285C23.4396 25.474 27.0225 23.3633 32.469 22.0249L31.2747 24.3106L22.7601 29.2319L21.9673 26.3285H21.957Z" fill="white"/>
<path d="M26.341 40.8202C29.7282 39.5332 39.5092 35.765 45.7587 27.5799C45.7587 27.5799 50.0829 24.6353 50.7315 24.7074C51.3801 24.7691 46.8191 32.1615 40.4049 35.8164C34.001 39.4714 25.3217 43.497 26.341 40.8305V40.8202Z" fill="white"/>
<path d="M55.3828 7.6987C58.7598 13.557 37.5713 25.8089 34.1943 19.9506C30.8173 14.0923 32.8249 6.60735 38.6729 3.22006C44.5209 -0.156936 52.0059 1.84043 55.3828 7.70899V7.6987Z" fill="#86D4C9"/>
<path d="M74.8059 2.00413C73.9616 0.542138 72.0981 0.0376473 70.6361 0.881896C69.4933 1.54082 68.9476 2.82779 69.1741 4.06327L65.0146 6.47247L66.0545 8.27422L70.214 5.86502C71.1715 6.66809 72.5511 6.84312 73.6939 6.18419C75.1559 5.33994 75.6604 3.46612 74.8059 2.01443V2.00413Z" fill="#38237C"/>
<path d="M67.9979 9.60069L64.6724 3.83509C62.3868 -0.0360974 56.2814 -1.05538 48.6832 1.13761C45.2856 0.0977439 41.4762 0.396323 38.1609 2.31133C36.4518 3.29972 35.0619 4.61757 33.9912 6.13104C28.1123 6.63553 21.5128 10.3832 17.5592 13.5234C17.2091 13.8013 17.0135 14.2235 17.0238 14.6662C17.0341 15.1192 17.2606 15.5413 17.6313 15.7987L24.7147 20.8436C23.716 21.2863 22.6247 21.832 21.4098 22.5424C19.2889 23.7676 20.6273 28.2874 22.2541 31.1084C23.4792 33.2397 24.8692 34.7634 26.187 35.4841L24.5088 41.0335C24.3544 41.5483 24.4779 42.094 24.8383 42.4955C25.1266 42.825 25.5384 43 25.9708 43C26.0635 43 26.1664 43 26.2591 42.9691C29.8935 42.2793 37.5638 39.8083 43.9677 34.9796V35.0002C47.4271 34.1869 51.0821 32.7043 54.5311 30.7069C65.3107 24.478 71.2205 15.2016 67.9979 9.60069ZM62.9118 4.92644C64.1061 6.99588 63.5296 9.99193 61.2851 13.3689C58.8965 16.9518 54.9636 20.4524 50.2069 23.2013C43.1647 27.2784 35.5767 28.8846 31.1187 27.3711L34.8869 21.9453C35.6591 22.3365 36.5857 22.5218 37.6359 22.5218C40.5804 22.5218 44.4001 21.1113 47.8492 19.1139C53.5633 15.809 58.392 10.8362 56.2917 7.1812C55.1489 5.20442 53.5839 3.63947 51.7616 2.51724C57.1565 1.45678 61.3984 2.31132 62.9118 4.92644ZM39.2008 4.11308C40.9305 3.11439 42.8455 2.6099 44.7811 2.6099C45.7489 2.6099 46.7373 2.74375 47.6948 2.99084C50.5776 3.76302 52.9971 5.62655 54.5002 8.22107C55.2106 9.44626 54.0575 11.1759 53.2648 12.154C53.5633 11.3201 53.5839 10.517 53.1824 9.83749C50.2996 4.83378 43.9059 3.11439 38.9022 6.00749C35.5664 7.94308 33.6926 11.4333 33.6823 15.0368C33.2293 10.7538 35.2472 6.39873 39.2111 4.11308H39.2008ZM19.5463 14.6147C23.1601 11.8966 28.2256 9.19916 32.7042 8.3858C32.3541 9.17857 32.0762 10.0022 31.8805 10.8465C29.008 13.616 27.0004 16.5194 26.0326 19.2375L19.5463 14.6147ZM32.5704 18.9286C32.4159 18.9492 32.2615 18.9698 32.1173 18.9801C30.9127 19.1139 29.6258 19.2478 28.102 19.6493C28.7712 17.9196 29.9552 16.0561 31.5511 14.2132C31.5923 15.7987 31.9423 17.3946 32.5704 18.9286ZM24.3441 30.5216C24.2514 30.3672 24.1485 30.223 24.0558 30.0583C22.3776 27.1446 22.2129 24.6839 22.46 24.3236C27.196 21.5849 29.8111 21.3069 32.3439 21.0392C32.5807 21.0186 32.8175 20.9775 33.0543 20.9466L29.2963 26.3621C28.8948 26.9284 28.5962 27.5667 28.3903 28.2257L27.8549 29.9759C27.4019 30.2333 26.8356 30.5628 26.4341 30.7996C25.8061 31.1702 25.0236 31.2526 24.3441 30.5216ZM26.7636 40.7452L30.2023 29.2346C31.582 29.7391 33.1984 29.9965 34.9796 29.9965C39.2626 29.9965 44.4722 28.5654 49.5995 25.8782C44.2663 34.9796 32.2718 39.4789 26.7636 40.7452ZM47.7462 31.6541C48.6008 30.7687 49.4142 29.8318 50.1451 28.8331L50.9688 30.2642C49.8981 30.7893 48.817 31.2526 47.7462 31.6541ZM53.5016 28.9052C53.0897 29.142 52.6779 29.3685 52.2558 29.595L51.0512 27.4946C51.5866 26.6401 52.0704 25.7341 52.4926 24.7972L54.5002 28.2874C54.1708 28.4933 53.8413 28.6992 53.5016 28.8949V28.9052ZM55.7254 27.5152L53.4707 23.5926C54.2017 23.1087 54.9224 22.6145 55.6019 22.0894L57.8463 25.9915C57.1668 26.5063 56.4667 27.021 55.7254 27.5152ZM58.9892 25.0855L56.7447 21.1937C57.4345 20.6274 58.114 20.0508 58.7421 19.464L60.966 23.3146C60.3482 23.9117 59.6893 24.4986 58.9892 25.0752V25.0855ZM62.0161 22.2438L59.8128 18.4138C60.4718 17.7446 61.0689 17.0548 61.6249 16.365L63.7973 20.1332C63.2619 20.8333 62.675 21.5437 62.0161 22.2438ZM64.7136 18.8257L62.5721 15.1192C62.7162 14.9236 62.8707 14.7177 63.0045 14.522C63.4369 13.8734 63.787 13.2351 64.1164 12.607L66.1447 16.1179C65.7946 16.993 65.321 17.9093 64.7136 18.836V18.8257ZM66.6904 14.1514L64.8371 10.9494C65.0636 10.342 65.2284 9.74483 65.3519 9.16827L66.1962 10.6303C66.7727 11.6289 66.9066 12.8336 66.6904 14.1514Z" fill="#38237C"/>
<path d="M108.312 32.8375C108.312 33.1155 108.075 33.3523 107.766 33.3523H104.039C103.73 33.3523 103.483 33.1155 103.483 32.8375V18.475L98.4899 27.2057C98.284 27.5867 98.109 27.7617 97.6662 27.7617H94.804C94.3922 27.7617 94.1863 27.5867 93.9804 27.2057L88.8428 18.475V32.8375C88.8428 33.1155 88.606 33.3523 88.2971 33.3523H84.5701C84.2612 33.3523 84.0244 33.1155 84.0244 32.8375V10.362C84.0244 10.084 84.2612 9.84717 84.5701 9.84717H88.503C88.9149 9.84717 89.1929 9.91924 89.4708 10.4031L96.1631 22.0373L102.886 10.4031C103.123 9.91924 103.401 9.84717 103.813 9.84717H107.777C108.086 9.84717 108.322 10.084 108.322 10.362V32.8375H108.312Z" fill="white"/>
<path d="M134.165 32.8388C134.165 33.1168 133.929 33.3536 133.651 33.3536H129.718C129.44 33.3536 129.203 33.1168 129.203 32.8388V26.5893H119.793V32.8388C119.793 33.1168 119.556 33.3536 119.278 33.3536H115.345C115.067 33.3536 114.83 33.1168 114.83 32.8388V19.3411C114.83 16.5098 115.932 13.5755 118.279 11.6399C119.793 10.3632 121.862 9.5293 124.487 9.5293C127.113 9.5293 129.213 10.3632 130.727 11.6399C133.105 13.5755 134.176 16.5098 134.176 19.3411V32.8388H134.165ZM121.234 15.4082C120.338 16.3348 119.782 17.6835 119.782 19.547V22.1724H129.193V19.547C129.193 17.6835 128.647 16.3348 127.772 15.4082C126.907 14.5742 125.744 14.1624 124.467 14.1624C123.19 14.1624 122.089 14.5742 121.224 15.4082H121.234Z" fill="white"/>
<path d="M152.022 32.9405C151.877 33.3214 151.641 33.4552 151.229 33.4552H147.09C146.637 33.4552 146.4 33.3214 146.266 32.9405L137.721 10.5782C137.546 10.1663 137.69 9.84717 138.133 9.84717H142.302C142.755 9.84717 143.033 10.0222 143.167 10.434L149.129 27.2057H149.201L155.368 10.434C155.512 10.0222 155.749 9.84717 156.233 9.84717H160.371C160.783 9.84717 160.958 10.156 160.783 10.5782L152.032 32.9405H152.022Z" fill="white"/>
<path d="M165.361 33.521C165.134 33.521 164.949 33.3366 164.949 33.1091V10.2526C164.949 10.0252 165.134 9.84082 165.361 9.84082H181.049C181.276 9.84082 181.461 10.0252 181.461 10.2526V14.0771C181.461 14.3046 181.276 14.489 181.049 14.489H170.673V19.3453H180.205C180.432 19.3453 180.617 19.5296 180.617 19.7571V23.5931C180.617 23.8206 180.432 24.005 180.205 24.005H170.673V28.8728H181.049C181.276 28.8728 181.461 29.0572 181.461 29.2846V33.1091C181.461 33.3366 181.276 33.521 181.049 33.521H165.361Z" fill="white"/>
<path d="M207.755 9.84082C207.982 9.84082 208.166 10.0252 208.166 10.2526V33.1091C208.166 33.3366 207.982 33.521 207.755 33.521H203.431C203.297 33.521 203.171 33.4557 203.094 33.3459L193.613 19.854H193.46V33.1091C193.46 33.3366 193.276 33.521 193.048 33.521H188.039C187.811 33.521 187.627 33.3366 187.627 33.1091V10.2526C187.627 10.0252 187.811 9.84082 188.039 9.84082H192.432C192.567 9.84082 192.693 9.90676 192.77 10.0174L202.145 23.4847H202.345V10.2526C202.345 10.0252 202.53 9.84082 202.757 9.84082H207.755Z" fill="white"/>
</svg>
