<svg width="142" height="177" viewBox="0 0 142 177" fill="none" xmlns="http://www.w3.org/2000/svg">
<path d="M121.041 155.012L93.0603 105.505C91.6995 103.085 88.6386 102.233 86.219 103.594L76.6477 109.013L74.6653 105.504L83.9734 100.243C83.9734 100.243 84.0353 100.225 84.0688 100.201C84.2358 100.105 84.3947 100.005 84.55 99.8924C86.6813 98.3738 87.3537 95.4328 86.9915 91.8532C96.2433 99.4009 107.842 101.688 116.984 96.7312C117.088 96.6738 117.2 96.6411 117.296 96.5793L117.288 96.5749L117.297 96.5589C118.898 95.6662 119.946 94.1689 120.544 92.2384L120.566 92.1983C120.587 92.0847 120.628 91.9718 120.656 91.8626L131.755 54.0361C134.869 55.3235 138.525 54.1185 140.218 51.1009C142.037 47.851 140.886 43.7356 137.628 41.9119C134.378 40.0925 130.263 41.2437 128.439 44.5016C128.036 45.2384 127.778 46.0132 127.659 46.8013L89.7856 36.8731C87.5841 36.1995 85.5318 36.2422 83.7712 37.2352C74.5842 42.4272 70.4508 53.6924 72.1782 65.656C69.0892 63.3523 66.0028 62.4132 63.5118 63.8286L54.1206 69.1274L51.8278 65.0639L61.407 59.6494C63.8142 58.2922 64.6623 55.2393 63.305 52.8321L35.3272 3.35813C33.9743 0.942916 30.9134 0.0904926 28.5062 1.44772L3.45205 15.617C1.04485 16.9742 0.196811 20.0271 1.55404 22.4343L29.548 71.917C30.9176 74.3206 33.9625 75.1643 36.3697 73.8071L45.9198 68.4079L48.2126 72.4714L36.7394 78.9516C34.357 80.3015 33.531 83.2 33.7983 86.8007C31.3698 86.5231 28.4143 86.4671 27.3958 87.0545C22.3059 89.9304 22.3011 99.2401 27.3891 108.256C32.4815 117.264 40.4581 122.064 45.5437 119.196C46.5701 118.613 48.058 116.045 49.0799 113.816C52.03 115.898 54.9381 116.687 57.3205 115.338L68.7814 108.861L70.7638 112.37L61.1925 117.789C58.7853 119.146 57.9372 122.199 59.2945 124.606L87.2753 174.113C88.6405 176.524 91.7014 177.377 94.1086 176.019L94.1174 176.003L119.171 161.855C121.578 160.497 122.426 157.444 121.069 155.037L121.041 155.012ZM47.5575 32.9078L53.8421 44.0347L51.1724 45.5293L41.5823 50.9066L35.2977 39.7796L44.9338 34.3755L47.5575 32.9078ZM38.8797 17.5583L46.1268 30.3875L43.5155 31.8516L33.8714 37.2514L26.6432 24.4637L36.3143 18.9955L38.8761 17.5459L38.8797 17.5583ZM28.8442 5.68009L30.3671 4.81718C30.5173 4.73286 30.6863 4.69006 30.8502 4.67569C31.2721 4.64632 31.6857 4.84137 31.9125 5.22557L31.9285 5.23431L37.4454 15.0257L34.888 16.4673L25.2045 21.9391L19.1191 11.1708L28.8362 5.6757L28.8442 5.68009ZM4.88856 20.5231C4.5774 19.9887 4.7582 19.2968 5.30497 18.982L5.31373 18.966L16.5989 12.6015L22.6843 23.3698L10.4222 30.3028L4.89294 20.5151L4.88856 20.5231ZM11.8442 32.8391L24.1062 25.906L31.3308 38.6813L19.0418 45.5684L11.8442 32.8391ZM20.4601 48.0923L32.7491 41.2051L39.0336 52.3321L26.7447 59.2192L20.4601 48.0923ZM34.4096 70.4666C33.8753 70.7778 33.1834 70.597 32.8686 70.0502L32.8526 70.0415L31.7338 68.0352L28.1754 61.7395L40.4643 54.8523L44.0228 61.1481L45.6832 64.0853L34.406 70.4542L34.4096 70.4666ZM48.2194 62.6634L46.567 59.7306L43.0085 53.4348L52.5943 48.0656L55.2684 46.563L59.9005 54.7571C60.2117 55.2915 60.0309 55.9833 59.4842 56.2981L59.4754 56.3141L48.2194 62.6634ZM104.378 133.432L110.693 144.617L108.086 146.094L98.4482 151.538L92.1287 140.361L101.766 134.916L104.374 133.44L104.378 133.432ZM96.6289 119.714L102.944 130.899L100.336 132.376L90.6987 137.821L84.3756 126.631L94.0132 121.186L96.6209 119.71L96.6289 119.714ZM86.4935 107.885L88.1207 106.965C88.663 106.658 89.3506 106.847 89.6617 107.381L89.6777 107.39L95.1946 117.181L92.5869 118.658L82.9493 124.103L76.8559 113.33L86.4935 107.885ZM115.387 93.1836C115.387 93.1836 115.345 93.2025 115.329 93.2141C113.82 94.0122 111.062 93.1383 107.687 90.6157C108.594 90.7268 109.404 90.5974 110.092 90.2143C114.189 87.8982 112.551 77.1593 106.515 65.731L109.752 63.902C118.074 79.369 118.725 91.2847 115.391 93.1756L115.387 93.1836ZM127.792 53.71L120.128 79.837C118.8 74.1996 116.28 67.889 113.123 62.0003L127.792 53.71ZM125.878 50.3426L111.209 58.6329C107.793 52.8939 103.695 47.4892 99.5514 43.4431L125.874 50.3507L125.878 50.3426ZM85.6642 40.6222L85.673 40.6062C86.3064 40.266 87.1582 40.2117 88.1785 40.4577L88.4779 40.5382C93.0099 41.8208 100.708 48.5186 107.846 60.539L104.621 62.3644C97.9364 51.2268 89.5348 44.217 85.413 46.5404C84.762 46.9126 84.2542 47.4984 83.8868 48.2651C83.5231 44.1748 84.2164 41.443 85.6722 40.6266L85.6642 40.6222ZM79.9077 45.8387C79.8665 48.6151 80.3529 51.8153 81.2477 55.239C82.788 61.0966 85.523 67.5663 88.8707 73.4866C92.2184 79.4069 96.343 85.0864 100.566 89.4254C103.038 91.9637 105.543 94.0415 107.95 95.4417C99.2677 96.1546 89.5852 91.087 82.9806 81.9908C82.1136 80.7986 81.2941 79.5387 80.5468 78.2039C79.7915 76.8647 79.1266 75.5125 78.552 74.1473C74.1744 63.8138 74.8345 52.9065 79.9077 45.8387ZM43.4474 115.896C42.1717 116.478 40.2635 116.048 38.1721 114.716C35.7058 113.138 32.9875 110.309 30.7521 106.35C30.1197 105.223 29.5928 104.113 29.1424 103.034C26.6785 97.0773 26.9804 91.9985 29.1175 90.5455C30.9069 90.4318 32.7047 90.5308 34.4622 90.8368C35.1053 93.4464 36.1466 96.2218 37.4642 98.9299C37.9198 99.8658 38.4119 100.811 38.9295 101.729C40.3979 104.332 42.1084 106.798 43.9126 108.939C44.5819 109.732 45.265 110.48 45.9584 111.172C45.3044 112.843 44.4734 114.438 43.4466 115.916L43.4474 115.896ZM55.3699 111.961C54.2684 112.586 51.6713 111.342 48.7032 108.418C46.6221 106.364 44.3504 103.498 42.2756 99.8347C40.9562 97.5105 39.9521 95.2757 39.2188 93.2306C37.1444 87.4553 37.2341 83.1448 38.6236 82.3546L60.5109 69.9802C60.4243 72.8774 61.2134 76.3993 62.5874 80.0122C63.4291 82.2207 64.4864 84.4534 65.6902 86.5894C67.512 89.8022 69.6881 92.8238 71.9756 95.2613C73.705 97.1021 75.4997 98.6145 77.2528 99.5943L55.3699 111.961ZM69.0604 84.7081C64.0589 75.8957 63.5638 68.3936 65.3588 67.2425L65.3923 67.2192C65.751 67.02 66.2661 67.0104 66.8968 67.189C68.5987 67.6726 71.1645 69.5443 73.8475 72.6663C73.8874 72.8026 73.9397 72.9353 73.992 73.0679L72.394 73.973C70.0619 75.2881 69.8544 79.3573 71.9488 83.0418C74.0388 86.7343 77.6201 88.6517 79.9522 87.3366L81.5458 86.4396C81.6477 86.5577 81.7452 86.6838 81.847 86.802C82.3834 88.4272 82.7452 89.9153 82.9497 91.2342C83.3004 93.4653 83.1919 95.1852 82.7406 96.1244C82.5857 96.4455 82.3851 96.6791 82.1554 96.8136L82.1219 96.8369C80.2026 97.8159 74.0744 93.5168 69.0692 84.6921L69.0604 84.7081ZM62.6378 122.679C62.3266 122.144 62.5074 121.452 63.0542 121.138L63.063 121.122L74.3313 114.769L80.4247 125.541L68.1751 132.471L62.6414 122.691L62.6378 122.679ZM69.5933 134.995L81.843 128.065L88.1661 139.255L75.9209 146.176L69.5977 134.987L69.5933 134.995ZM77.3428 148.713L89.5881 141.791L95.9076 152.968L83.6623 159.89L77.3428 148.713ZM92.1589 172.622C91.6165 172.929 90.929 172.74 90.6178 172.206L90.6018 172.197L89.8742 170.883L85.0965 162.422L97.3418 155.501L102.119 163.962L103.419 166.265L92.1545 172.63L92.1589 172.622ZM117.225 158.47L117.216 158.486L105.96 164.835L104.66 162.532L99.8825 154.071L109.52 148.626L112.128 147.15L117.645 156.921C117.957 157.455 117.776 158.147 117.229 158.462L117.225 158.47Z" fill="#29264C"/>
</svg>
