<svg width="154" height="128" viewBox="0 0 154 128" fill="none" xmlns="http://www.w3.org/2000/svg">
<path opacity="0.7" d="M43.7311 85.0654C66.6369 85.0654 85.2059 66.511 85.2059 43.6229C85.2059 20.7349 66.6369 2.18042 43.7311 2.18042C20.8252 2.18042 2.25635 20.7349 2.25635 43.6229C2.25635 66.511 20.8252 85.0654 43.7311 85.0654Z" fill="url(#paint0_radial_30075_231096)"/>
<path d="M90.4961 53.5651C90.5268 53.7032 90.5575 53.8414 90.5728 53.9796C90.6189 53.8414 90.6649 53.7032 90.7109 53.5804H90.4961V53.5651Z" fill="#C0DBFF"/>
<path d="M87.0678 96.6677C90.7893 93.825 95.5412 92.3191 100.57 92.7954C102.077 92.9491 103.507 93.2718 104.891 93.7328C106.46 90.2754 107.905 85.8346 108.551 80.1337C107.905 80.1337 107.259 80.103 106.598 80.0415C97.8632 79.1964 91.0815 72.6197 89.5744 64.3988C89.5283 64.5678 89.4822 64.7369 89.4361 64.9213C88.8209 66.7806 88.0212 68.6245 87.0524 70.4223C88.2826 72.7426 88.8824 75.4317 88.6056 78.2437C87.8674 85.8653 81.0857 91.4432 73.4582 90.7056C71.3668 90.5059 69.4445 89.8298 67.7529 88.831C62.8626 91.3203 57.7418 92.8108 52.8054 93.0874C52.3594 93.1181 51.9134 93.1181 51.4828 93.1335C51.4828 93.1796 51.4828 93.2257 51.4828 93.2718C51.4521 93.5484 51.406 93.8096 51.3599 94.0708C51.7597 94.286 52.1134 94.5318 52.4363 94.8084C53.9742 94.8852 55.6811 95.4231 56.5577 96.2528C57.7572 97.3899 57.9263 101.354 56.8959 106.318C56.9575 106.318 57.0344 106.318 57.0959 106.318C57.834 106.394 58.526 106.564 59.2181 106.794C61.494 100.632 61.863 94.1323 61.863 94.1323C61.863 94.1323 75.0268 98.1582 87.0986 96.6523L87.0678 96.6677Z" fill="#C0DBFF"/>
<path d="M39.6865 77.1849C38.7792 77.3847 37.8565 77.523 36.903 77.523C36.8415 77.523 36.7646 77.523 36.7031 77.523C36.903 78.614 38.0411 81.3031 38.7638 82.8858C39.625 82.6246 40.5323 82.4709 41.4704 82.4555C40.763 80.9957 40.1786 79.1825 39.7019 77.1849H39.6865Z" fill="#C0DBFF"/>
<path d="M59.2803 61.8179C56.4046 68.6866 60.7567 77.1994 51.6221 83.5917C55.0206 82.9156 58.2808 81.8246 61.341 80.3495C60.9566 78.8282 60.8028 77.2302 60.972 75.586C61.7101 67.9644 68.4918 62.3865 76.1194 63.124C77.1651 63.2316 78.1647 63.4467 79.1181 63.7541C81.0096 60.4042 82.4552 56.7625 83.3471 52.8748L70.8139 51.6609C66.3235 53.0899 61.7101 55.9941 59.2649 61.8179H59.2803Z" fill="#C0DBFF"/>
<path d="M36.3183 87.7874C34.7805 89.4776 32.6583 90.922 30.6899 92.0438C31.5819 93.2731 32.1201 94.6714 32.32 96.1004C34.6729 95.5012 38.0099 94.4409 40.901 92.7045C39.1172 91.1679 37.5947 89.5237 36.3337 87.7874H36.3183Z" fill="#77A4F2"/>
<path d="M112.011 94.8393C113.226 95.2849 114.487 96.0225 115.748 96.9291C116.056 96.3144 116.409 95.7151 116.855 95.1619C117.394 94.5166 118.009 93.9634 118.685 93.5024C117.255 91.766 115.687 89.9067 114.21 88.2318C113.564 90.7519 112.796 92.9339 112.011 94.8393Z" fill="#77A4F2"/>
<path d="M97.1255 113.711C97.879 113.803 98.5863 114.003 99.2476 114.311C98.5863 114.003 97.879 113.803 97.1255 113.711Z" fill="#77A4F2"/>
<path d="M51.467 93.1505C51.3286 93.1505 51.2055 93.1505 51.0671 93.1505C50.5289 93.1505 50.0214 93.1044 49.4985 93.0736C50.0829 93.4119 50.6827 93.7195 51.2671 94.027C51.2978 94.027 51.3132 94.0578 51.3439 94.0732C51.3901 93.8118 51.4362 93.5503 51.467 93.2735C51.467 93.2274 51.467 93.1813 51.467 93.1351V93.1505Z" fill="#77A4F2"/>
<path d="M43.777 84.3588C46.4527 84.3588 49.067 84.0976 51.6197 83.5905C60.739 77.1982 56.4023 68.6854 59.278 61.8167C61.7078 55.9929 66.3212 53.0887 70.827 51.6597L61.8 50.7838L52.0196 64.0755C52.2041 65.3509 52.081 66.5956 51.5736 67.7634C49.7128 72.0506 47.1293 74.6013 44.023 75.3389C43.8538 75.4465 43.6846 75.554 43.5155 75.6616L43.4078 75.8153L43.3155 75.7692C42.1929 76.4299 40.9781 76.8909 39.7017 77.1829C40.1784 79.1958 40.7628 80.9937 41.4702 82.4534C40.5322 82.4534 39.6248 82.6225 38.7637 82.8837C39.0559 83.5291 39.2865 83.9901 39.348 84.0976C39.5633 84.1284 39.7786 84.1591 39.9939 84.1745C41.2703 84.2974 42.5312 84.3588 43.7922 84.3588H43.777Z" fill="#77A4F2"/>
<path d="M95.1579 54.0284L90.7136 53.5981C90.6521 53.7211 90.6214 53.8594 90.5753 53.9977C91.0366 57.2246 90.7136 60.7434 89.5756 64.4313C91.0827 72.6522 97.8645 79.2289 106.599 80.074C107.26 80.1355 107.906 80.1662 108.552 80.1662C107.906 85.867 106.461 90.3079 104.892 93.7652C103.524 93.3043 102.078 92.9662 100.571 92.8279C95.5424 92.3362 90.7905 93.8574 87.069 96.7002C74.9972 98.2061 61.8336 94.1801 61.8336 94.1801C61.8336 94.1801 61.4644 100.695 59.1885 106.842C60.0035 107.118 60.7878 107.487 61.4952 107.948C62.464 105.382 63.4328 102.293 63.8788 99.128L64.2325 96.5772L66.7238 97.2073C78.0421 100.096 88.776 98.6209 88.8836 98.6056L89.1604 98.5595L89.4373 98.5902C90.1293 98.6517 91.0673 98.9436 91.9438 99.8195C92.9434 99.6197 93.8969 99.4968 94.6812 99.6351C96.4497 99.9271 97.3108 104.675 96.9879 110.622C97.0802 110.622 97.1878 110.622 97.2801 110.622C98.7103 110.76 100.033 111.237 101.217 111.928C101.894 109.07 102.586 105.674 102.924 102.478L102.97 102.017L103.185 101.617C103.447 101.141 103.77 100.603 104.139 100.004C106.338 96.3468 110.013 90.2157 111.059 79.4133C112.166 68.0116 106.03 55.0887 95.1425 54.0284H95.1579Z" fill="#77A4F2"/>
<path d="M60.9708 75.5862C60.817 77.2303 60.9708 78.8284 61.3399 80.3497C68.7675 76.7694 75.011 70.9917 79.117 63.7696C78.1635 63.4623 77.1639 63.2318 76.1182 63.1396C68.4907 62.402 61.709 67.9799 60.9708 75.6015V75.5862Z" fill="#77A4F2"/>
<path d="M88.5886 78.2605C88.8654 75.4485 88.2657 72.7594 87.0354 70.4391C84.2981 75.5253 80.1922 80.2888 75.102 84.2225C72.7492 86.0357 70.2732 87.5723 67.7358 88.8631C69.4274 89.8619 71.3497 90.5226 73.4412 90.7378C81.0687 91.4753 87.8504 85.8974 88.5886 78.2758V78.2605Z" fill="#77A4F2"/>
<path d="M94.6944 99.6351C93.9101 99.4968 92.9566 99.6197 91.957 99.8195C92.1262 99.9885 92.2954 100.188 92.4645 100.403C94.0639 102.57 94.6175 106.519 94.4791 110.776C95.0788 110.668 95.694 110.591 96.3398 110.591C96.5551 110.591 96.7858 110.607 97.0011 110.622C97.324 104.691 96.4629 99.9424 94.6944 99.6351Z" fill="#C0DBFF"/>
<path d="M56.5266 96.2541C55.65 95.4397 53.9431 94.9019 52.4053 94.8097C55.2348 97.2068 55.4808 102.001 54.9426 106.38C55.3271 106.334 55.7115 106.288 56.1114 106.288C56.3574 106.288 56.6188 106.304 56.8649 106.319C57.8952 101.34 57.7261 97.3758 56.5266 96.2541Z" fill="white"/>
<path d="M141.304 77.7375C141.673 79.1973 142.396 80.9644 143.765 82.2091C145.133 83.4384 146.963 83.9916 148.455 84.2221C148.086 82.7623 147.363 80.9952 145.995 79.7505C144.626 78.5212 142.796 77.968 141.304 77.7375Z" fill="#503EAA"/>
<path d="M153.47 86.619C153.47 86.3577 153.255 80.1037 149.103 76.339C145.304 72.8816 139.753 72.9277 138.646 72.9738C135.616 72.3438 131.787 72.2977 127.373 72.9431C118.485 74.2646 115.701 70.2079 114.871 68.1796C112.103 57.2696 103.922 50.2473 95.6175 49.4483L88.9896 48.8029C88.5436 47.8809 88.0208 46.9897 87.4057 46.1599C88.0362 35.1731 84.5607 24.509 77.5176 15.9501C70.0899 6.93013 59.602 1.35222 47.9762 0.215126C46.5614 0.0768307 45.1158 0 43.701 0C21.0952 0 2.39548 16.9796 0.211785 39.491C-0.926195 51.1078 2.54922 62.4787 9.97685 71.4987C15.7129 78.4749 23.2943 83.3767 31.8138 85.7738C30.522 86.8187 28.7228 87.9558 26.7236 88.9546C25.6779 88.5397 24.5553 88.3092 23.4173 88.3092C22.064 88.3092 20.757 88.6012 19.5421 89.1851L17.3122 90.2454C15.9436 90.8907 14.9594 92.1047 14.6057 93.5645C14.252 95.0242 14.5595 96.5609 15.4668 97.7594L20.8031 104.843C21.7565 106.103 23.2174 106.825 24.8014 106.825C26.2315 106.825 27.6002 106.211 28.5536 105.135L30.1837 103.291C30.7988 102.6 31.2602 101.816 31.6292 101.017C34.3973 100.433 40.2717 98.9119 44.8544 95.6543C46.2077 96.5301 47.6532 97.3753 49.2064 98.1589C50.8826 99.0041 50.898 103.599 49.9445 108.516C48.4682 109.714 47.3303 111.328 46.746 113.248L45.9155 115.922C45.4541 117.443 45.6849 119.057 46.5614 120.378C47.438 121.7 48.8527 122.545 50.4366 122.699L60.4632 123.667C60.6324 123.682 60.8015 123.697 60.9707 123.697C62.4624 123.697 63.8771 123.067 64.8767 121.961C65.8763 120.855 66.353 119.38 66.1992 117.889L65.907 115.108C65.784 113.925 65.4457 112.803 64.9382 111.773C66.0147 109.238 67.2603 105.873 68.0292 102.231C77.702 104.259 86.3753 103.537 88.8665 103.26C89.5893 104.305 90.2353 107.978 89.7278 113.187C88.4668 114.339 87.4825 115.815 86.9443 117.551L86.1139 120.225C85.6525 121.746 85.8832 123.359 86.7597 124.681C87.6363 126.002 89.0511 126.848 90.635 127.001L100.662 127.969C100.831 127.985 101 128 101.169 128C102.661 128 104.076 127.37 105.075 126.264C106.075 125.157 106.551 123.682 106.398 122.192L106.105 119.41C105.967 118.135 105.567 116.952 104.998 115.861C105.844 112.649 106.936 107.947 107.459 103.476C107.643 103.153 107.859 102.784 108.105 102.4C108.643 101.493 109.304 100.387 110.011 99.0809C110.826 99.2653 112.641 100.218 114.886 102.2C115.102 103.783 115.717 105.304 116.778 106.61L118.331 108.531C119.284 109.714 120.699 110.39 122.222 110.39C123.744 110.39 125.128 109.73 126.082 108.577L131.741 101.755C132.71 100.587 133.079 99.0809 132.786 97.6058C132.494 96.1306 131.572 94.8706 130.234 94.1637L128.05 93.0113C126.743 92.3198 125.282 91.951 123.806 91.951C123.652 91.951 123.498 91.9664 123.344 91.9818C120.884 88.97 117.747 85.2514 115.317 82.6545C115.44 81.7633 115.563 80.872 115.655 79.9193C115.794 78.521 115.824 77.1688 115.794 75.8473C118.485 77.43 122.36 78.3981 128.004 77.5683C131.572 77.0459 134.386 77.0459 136.477 77.3224C136.846 79.5352 137.861 83.1616 140.645 85.6816C144.028 88.7549 148.795 89.0622 150.594 89.0622C151.009 89.0622 151.255 89.0622 151.302 89.0468L153.501 88.8932L153.439 86.6804L153.47 86.619ZM29.2149 98.5431C29.1226 98.9733 28.9689 99.4036 28.7689 99.8031C28.5383 100.31 28.2307 100.802 27.8462 101.248L26.2161 103.091C26.0316 103.307 25.8163 103.46 25.5703 103.568C25.5703 103.568 25.5396 103.583 25.5242 103.583C25.2935 103.675 25.0474 103.721 24.8168 103.737C24.8014 103.737 24.786 103.737 24.7706 103.737H24.7399C24.663 103.737 24.5861 103.721 24.5092 103.706C24.4477 103.706 24.3862 103.706 24.3246 103.675C24.2478 103.66 24.1709 103.629 24.0786 103.599C24.0171 103.583 23.9709 103.568 23.9094 103.537C23.8171 103.491 23.7403 103.445 23.6634 103.383C23.6173 103.353 23.5711 103.337 23.5403 103.307C23.4327 103.214 23.325 103.107 23.2328 102.984L18.4964 96.6838L17.8966 95.9001C17.3122 95.1318 17.4199 94.1023 18.0197 93.4415C18.035 93.4262 18.0658 93.4108 18.0811 93.3954C18.158 93.3186 18.2503 93.2418 18.3425 93.1957C18.4348 93.1342 18.4964 93.0574 18.604 92.9959L20.2802 92.1969L20.6339 92.0278L20.8184 91.9357C21.6334 91.5515 22.51 91.3517 23.3712 91.3517C25.1858 91.3517 26.9696 92.1815 28.123 93.7181C28.1538 93.7489 28.1538 93.7796 28.1846 93.8103C28.9842 94.9167 29.3687 96.2228 29.3225 97.5289C29.3225 97.867 29.2764 98.1897 29.1995 98.5277L29.2149 98.5431ZM3.25662 39.7829C5.30191 18.7774 23.0022 3.07323 43.6857 3.07323C45.0082 3.07323 46.3307 3.13469 47.6686 3.27299C68.752 5.31669 84.4838 23.0953 84.3915 43.855L84.2685 46.5287C84.2377 47.0511 84.207 47.5736 84.1608 48.1114C84.1608 48.1882 84.1455 48.2651 84.1301 48.3265L67.2142 46.6824C70.6435 46.5287 74.1497 45.5299 77.6559 43.7013C79.3783 42.8101 80.3625 41.2735 80.2856 39.5832C80.2087 37.9083 79.1015 36.4485 77.3176 35.6956C73.6577 34.1589 70.0438 33.4675 66.5991 33.6058C66.5375 33.6058 66.4914 33.6058 66.4299 33.6058C66.3377 33.114 66.2608 32.6223 66.1377 32.146C65.9686 31.5313 65.7686 30.9321 65.538 30.3328L67.0758 24.5397C67.5371 22.8187 66.9681 21.1438 65.6456 20.2987L63.8464 19.1462C62.5393 18.3011 60.7861 18.4547 59.3713 19.515L57.9566 20.5906C56.834 19.7916 55.6344 19.0694 54.3734 18.5008C54.112 18.3779 53.866 18.2703 53.5892 18.1628C53.3124 18.0552 53.0664 17.9323 52.8049 17.8401C51.4978 17.3023 50.1445 16.9181 48.7759 16.6415L48.5914 14.8744C48.4068 13.1073 47.2995 11.7397 45.8078 11.3556L43.7318 10.8331C42.194 10.4643 40.5946 11.1866 39.6566 12.6924L36.5041 17.7633C35.8582 18.0245 35.2123 18.3164 34.5972 18.6545C34.2281 18.8543 33.8744 19.1001 33.5207 19.3306C33.5207 19.3152 33.49 19.2999 33.4746 19.2845C31.2141 16.6723 28.2307 14.521 24.6168 12.9076C22.8484 12.1085 21.0338 12.2929 19.7574 13.3993C18.481 14.4903 18.035 16.2727 18.5579 18.1321C19.6343 21.9582 21.3259 25.2158 23.5711 27.8281C24.1555 28.5042 24.7859 29.1342 25.4318 29.7181C24.9705 30.9935 24.5861 32.3304 24.34 33.7594L21.2028 50.6775C20.111 51.4151 19.2807 52.3832 18.7732 53.5817C16.9124 57.8535 16.8202 61.4799 18.4041 64.2612C18.4502 64.5071 18.4963 64.7529 18.5425 64.9988V65.0756H18.5579C19.4344 68.8864 22.0333 72.2362 25.8779 73.9112L31.906 76.5234H31.9368C32.1675 78.813 32.7211 80.9949 33.6284 83.0847L33.2285 83.0079C14.3596 77.9678 1.34978 59.8972 3.3028 39.829L3.25662 39.7829ZM38.7647 82.885C38.0419 81.2869 36.9039 78.5978 36.704 77.5222C36.7655 77.5222 36.8424 77.5222 36.9039 77.5222C37.842 77.5222 38.7801 77.3839 39.6874 77.1842C40.9637 76.8922 42.1787 76.4312 43.3013 75.7705L43.3935 75.8166L43.5011 75.6629C43.6703 75.5553 43.8395 75.4631 44.0086 75.3402C47.1304 74.6026 49.7139 72.0519 51.5593 67.7647C52.0668 66.5969 52.2052 65.3522 52.0052 64.0768L61.7857 50.7851L70.8126 51.661L83.3458 52.8749C82.4539 56.7625 81.0084 60.4043 79.1169 63.7541C75.0109 70.9762 68.7828 76.7539 61.3398 80.3342C58.2795 81.8094 55.0194 82.9157 51.6208 83.5765C49.068 84.0835 46.4538 84.3448 43.778 84.3448C42.517 84.3448 41.2559 84.2833 39.9796 84.1604C39.7643 84.1296 39.549 84.1143 39.3337 84.0835C39.2568 83.976 39.0415 83.4996 38.7493 82.8696L38.7647 82.885ZM42.1632 20.9748C45.1004 20.5599 48.1915 20.9287 51.0672 22.1119L52.4666 22.7265C52.974 22.957 53.4508 23.2182 53.9121 23.4795C54.6503 23.9097 55.3577 24.3861 56.0189 24.9085C58.7716 27.0905 60.8015 30.0562 61.678 33.3445C62.5392 36.6175 62.693 41.7037 58.5409 47.4199L49.7908 59.3133C49.3602 58.7755 48.8527 58.2531 48.3145 57.7306C46.0539 55.564 42.8706 53.5664 38.9339 51.8607C34.9509 50.1397 31.2755 49.187 28.1538 49.0487C27.4618 49.018 26.8005 49.018 26.17 49.0487L28.8612 34.5585C30.0915 27.6744 33.8591 24.2939 36.8117 22.6958C38.4571 21.7892 40.2871 21.2206 42.1632 20.9594V20.9748ZM40.9023 16.5186L42.2555 14.3366C42.5015 13.9525 42.8091 13.7834 42.9783 13.8295L45.0543 14.352C45.2388 14.3981 45.4849 14.7208 45.531 15.2125L45.6387 16.242C44.0394 16.1498 42.4555 16.242 40.9023 16.5186ZM60.4017 22.6343L61.2321 22.0197C61.6319 21.7124 62.0318 21.6663 62.1855 21.7738L63.9848 22.9263C64.1385 23.0185 64.2308 23.3565 64.1078 23.8022L63.4466 26.2915C62.57 24.97 61.5551 23.7561 60.4017 22.6497V22.6343ZM28.9535 23.4026C28.1231 24.4168 27.3695 25.5232 26.739 26.7064C26.4622 26.4144 26.1701 26.1378 25.9086 25.8305C24.3554 24.0326 23.1251 21.8507 22.2025 19.3613C21.9564 18.7006 21.7257 18.0245 21.5258 17.3176C21.3259 16.6262 21.4182 16.0423 21.7719 15.7349C21.9411 15.5813 22.1871 15.5044 22.4639 15.5044C22.7407 15.5044 23.0483 15.5813 23.3712 15.7196C25.5395 16.6876 28.6305 18.424 31.0603 21.1899C30.3067 21.866 29.6147 22.6036 28.9689 23.4026H28.9535ZM26.3238 52.1527C29.3533 51.9222 33.2901 52.7981 37.7036 54.7188C41.2867 56.2708 44.1316 58.0379 46.1154 59.928C46.5921 60.3736 47.0227 60.8192 47.3918 61.2802C48.4683 62.6324 49.5755 64.63 48.7451 66.5661C46.9305 70.7765 44.5008 72.7433 41.5635 72.5128C41.3329 72.4975 41.1022 72.4514 40.8715 72.3899C40.0103 72.1902 39.1338 71.7906 38.3649 71.2067C37.8113 70.546 35.4431 67.8876 32.5366 66.643C29.6455 65.3983 26.1392 65.4905 25.2627 65.5366C24.0478 65.3369 22.9406 64.8298 22.1256 64.1076C19.9265 62.1407 19.7266 59.0214 21.5566 54.811C22.4024 52.8749 24.6168 52.3064 26.3238 52.1681V52.1527ZM24.9859 68.5945L25.155 68.6252H25.3243C25.3243 68.6252 28.7843 68.364 31.3217 69.455C33.8591 70.5613 36.0736 73.2504 36.0889 73.2811L36.3196 73.5116C36.7655 73.8651 37.2423 74.157 37.719 74.4336C36.1812 74.5719 34.5972 74.326 33.0748 73.6807L27.0466 71.0684C25.5395 70.4077 24.2785 69.4089 23.325 68.195C23.8633 68.364 24.4015 68.5023 24.9705 68.5945H24.9859ZM65.6764 43.6245C66.107 42.3491 66.3838 41.043 66.553 39.7522C66.6914 38.7381 66.7683 37.7239 66.7529 36.7097C70.459 36.5561 73.8883 37.6317 76.1181 38.569C76.7794 38.8456 77.1792 39.2759 77.21 39.7369C77.2254 40.1978 76.8563 40.6742 76.2258 40.9969C75.5799 41.3349 74.9186 41.6269 74.2727 41.9035C71.8122 42.9484 69.3825 43.5323 67.0143 43.6399C66.5683 43.6552 66.1224 43.6399 65.6764 43.6399V43.6245ZM32.3213 96.1152C32.1214 94.6862 31.5831 93.2879 30.6912 92.0586C32.6596 90.9369 34.7817 89.4924 36.3196 87.8022C37.5959 89.5385 39.1184 91.1827 40.8869 92.7193C37.9958 94.4557 34.6741 95.516 32.3059 96.1152H32.3213ZM40.7177 87.3565C41.9941 87.4641 43.2551 87.5256 44.5161 87.5256C65.415 87.5256 83.4842 72.2823 86.852 51.5381C88.1284 55.1184 88.0208 59.4055 86.5291 64C84.3916 70.546 79.6705 76.8615 73.2578 81.794C66.8451 86.7265 59.5097 89.6615 52.6357 90.061C47.9146 90.3222 43.8241 89.3695 40.7331 87.3719L40.7177 87.3565ZM63.139 118.242C63.139 118.396 63.139 118.55 63.139 118.703C63.139 118.765 63.1082 118.811 63.1082 118.857C63.0928 118.965 63.0621 119.057 63.0313 119.164C63.0159 119.226 62.9852 119.272 62.9545 119.333C62.9237 119.426 62.8775 119.503 62.8314 119.579C62.8006 119.641 62.7545 119.687 62.7237 119.733C62.6776 119.81 62.6161 119.871 62.5546 119.948C62.5085 119.994 62.4624 120.04 62.4009 120.086C62.3393 120.148 62.2778 120.194 62.2009 120.255C62.1394 120.286 62.0779 120.317 62.0318 120.363C61.9549 120.409 61.878 120.44 61.8011 120.486C61.7396 120.517 61.6781 120.532 61.6012 120.547C61.5243 120.578 61.432 120.594 61.3398 120.609C61.2629 120.609 61.2013 120.624 61.1245 120.64C61.0783 120.64 61.0168 120.655 60.9707 120.655C60.8938 120.655 60.8323 120.655 60.7554 120.655L51.8361 119.794L50.7134 119.687C50.3751 119.656 50.0522 119.549 49.7754 119.38C49.4986 119.211 49.2679 118.995 49.0988 118.734C48.8988 118.427 48.7758 118.073 48.7451 117.705C48.7297 117.443 48.7451 117.167 48.822 116.89L49.5755 114.447L49.6523 114.217C50.5289 111.358 53.174 109.438 56.1112 109.438C56.3265 109.438 56.5417 109.438 56.7724 109.468C56.8186 109.468 56.8647 109.484 56.8955 109.499C57.2492 109.545 57.6028 109.591 57.9258 109.699C59.4328 110.114 60.7246 111.036 61.6012 112.28C62.2624 113.202 62.693 114.309 62.8314 115.507L63.1236 118.289C63.1236 118.289 63.1236 118.304 63.1236 118.319L63.139 118.242ZM103.353 122.53C103.353 122.683 103.353 122.837 103.353 122.991C103.353 123.052 103.322 123.098 103.322 123.144C103.307 123.252 103.276 123.344 103.245 123.452C103.23 123.513 103.199 123.559 103.168 123.621C103.137 123.713 103.091 123.79 103.045 123.867C103.014 123.928 102.968 123.974 102.938 124.02C102.891 124.097 102.83 124.158 102.768 124.235C102.722 124.281 102.676 124.327 102.615 124.374C102.553 124.435 102.492 124.481 102.415 124.543C102.353 124.573 102.292 124.604 102.245 124.65C102.169 124.696 102.092 124.727 102.015 124.773C101.953 124.804 101.892 124.819 101.815 124.835C101.738 124.865 101.646 124.881 101.553 124.896C101.477 124.896 101.415 124.911 101.338 124.927C101.292 124.927 101.231 124.942 101.184 124.942C101.108 124.942 101.046 124.942 100.969 124.942L95.7252 124.435L92.0652 124.082L90.9426 123.974C90.6043 123.943 90.2814 123.836 90.0046 123.667C89.7278 123.498 89.4971 123.283 89.3279 123.021C89.128 122.714 89.0049 122.361 88.9742 121.992C88.9588 121.731 88.9743 121.454 89.0512 121.177L89.8047 118.734L89.8815 118.504C90.7581 115.646 93.4031 113.725 96.3404 113.725C96.5557 113.725 96.7709 113.725 97.0016 113.756C97.0477 113.756 97.0939 113.771 97.1247 113.786C97.8782 113.879 98.5855 114.078 99.2467 114.386C100.292 114.877 101.184 115.63 101.846 116.552C102.507 117.474 102.938 118.581 103.076 119.779L103.368 122.56C103.368 122.56 103.368 122.576 103.368 122.591L103.353 122.53ZM110.165 98.7582L110.211 98.666L110.242 98.6968C110.242 98.6968 110.181 98.7275 110.15 98.7582H110.165ZM111.073 79.4122C110.027 90.2146 106.351 96.3457 104.152 100.003C103.783 100.618 103.46 101.155 103.199 101.616L102.984 102.016L102.938 102.477C102.599 105.673 101.907 109.069 101.231 111.927C100.046 111.236 98.724 110.759 97.2938 110.621C97.2015 110.621 97.0939 110.621 97.0016 110.621C96.7863 110.621 96.5557 110.59 96.3404 110.59C95.7099 110.59 95.0947 110.667 94.4796 110.775C94.618 106.518 94.0644 102.569 92.465 100.402C92.2959 100.172 92.1267 99.9875 91.9575 99.8185C91.081 98.9426 90.1429 98.6507 89.4509 98.5892L89.1741 98.5585L88.8973 98.6046C88.7897 98.6046 78.0558 100.095 66.7375 97.2062L64.2463 96.5762L63.8925 99.127C63.4465 102.292 62.4777 105.381 61.5089 107.947C60.8015 107.486 60.0326 107.117 59.2022 106.841C58.5256 106.61 57.8182 106.441 57.08 106.364C57.0185 106.364 56.9416 106.364 56.8801 106.364C56.634 106.349 56.3726 106.334 56.1266 106.334C55.7267 106.334 55.3423 106.38 54.9578 106.426C55.496 102.062 55.2501 97.2677 52.4205 94.8552C52.0975 94.5786 51.7438 94.3328 51.344 94.1176C51.3132 94.1023 51.2979 94.0869 51.2671 94.0715C50.6828 93.7796 50.0984 93.4569 49.4986 93.1188C50.0215 93.1496 50.529 93.1957 51.0672 93.1957C51.2056 93.1957 51.3286 93.1957 51.467 93.1957C51.913 93.1957 52.3436 93.1957 52.7895 93.1496C57.7259 92.873 62.8468 91.3825 67.737 88.8932C70.2744 87.6024 72.7503 86.0658 75.1032 84.2526C80.2087 80.3342 84.2993 75.5707 87.0366 70.4691C88.0054 68.6713 88.8051 66.8274 89.4202 64.9681C89.4817 64.799 89.5124 64.63 89.5586 64.4456C90.6965 60.7577 91.0195 57.2389 90.5582 54.012C90.5428 53.8737 90.5121 53.7354 90.4813 53.5971H90.6965L95.1408 54.0581C106.044 55.1184 112.164 68.0413 111.057 79.443L111.073 79.4122ZM119.3 97.0526C119.546 96.7606 119.807 96.5148 120.1 96.2843C120.192 96.2074 120.299 96.146 120.392 96.0691C120.622 95.9001 120.868 95.7618 121.114 95.6389C121.222 95.5774 121.345 95.516 121.468 95.4699C121.745 95.3469 122.037 95.2547 122.329 95.1779C122.422 95.1625 122.499 95.1164 122.575 95.1011C122.96 95.0242 123.344 94.9781 123.729 94.9781C124.021 94.9781 124.298 94.9781 124.59 95.0242C124.651 95.0242 124.713 95.055 124.774 95.055C125.021 95.1011 125.251 95.1472 125.497 95.224C125.574 95.2547 125.666 95.2701 125.743 95.3008C125.928 95.3623 126.097 95.4391 126.281 95.5313C126.389 95.5621 126.497 95.6082 126.604 95.6696L128.035 96.4379L128.773 96.8374C129.311 97.1294 129.649 97.6211 129.757 98.1589C129.865 98.6968 129.742 99.296 129.357 99.757L124.329 105.827L123.698 106.595C123.314 107.056 122.76 107.286 122.206 107.286C121.883 107.286 121.56 107.194 121.268 107.025C121.237 107.01 121.207 106.994 121.191 106.979C121.145 106.948 121.084 106.918 121.038 106.887C120.93 106.795 120.822 106.687 120.715 106.58L119.3 104.828L119.177 104.674C118.731 104.121 118.408 103.522 118.177 102.876C118.07 102.554 117.993 102.231 117.931 101.908C117.67 100.264 118.085 98.5277 119.223 97.1601C119.254 97.1294 119.284 97.114 119.3 97.0833V97.0526ZM118.669 93.5184C117.993 93.9793 117.378 94.5325 116.839 95.1779C116.378 95.7311 116.04 96.3304 115.732 96.945C114.487 96.0384 113.21 95.3008 111.995 94.8552C112.795 92.9498 113.548 90.7678 114.194 88.2478C115.655 89.9227 117.224 91.782 118.669 93.5184ZM143.736 82.2089C142.367 80.9796 141.66 79.1971 141.275 77.7373C142.767 77.9678 144.597 78.5056 145.965 79.7503C147.334 80.9796 148.041 82.7621 148.426 84.2218C146.934 83.9914 145.104 83.4535 143.736 82.2089Z" fill="#29264C"/>
<path d="M61.6156 112.188C60.7237 110.959 59.4319 110.037 57.9403 109.607C57.6019 109.514 57.2636 109.453 56.91 109.407C53.819 110.406 52.2658 117.428 51.8506 119.733L60.7699 120.593C60.8929 120.593 61.0159 120.593 61.1389 120.593C61.2158 120.593 61.2774 120.593 61.3542 120.563C61.4465 120.563 61.5234 120.532 61.6156 120.501C61.6772 120.486 61.7541 120.455 61.8156 120.44C61.8925 120.409 61.9694 120.363 62.0463 120.317C62.1078 120.286 62.1693 120.255 62.2154 120.209C62.2923 120.163 62.3538 120.102 62.4153 120.04C62.4615 119.994 62.5229 119.963 62.5691 119.902C62.6306 119.84 62.6767 119.764 62.7382 119.687C62.7844 119.641 62.8151 119.579 62.8459 119.533C62.892 119.456 62.9228 119.364 62.9689 119.287C62.9997 119.226 63.0304 119.18 63.0458 119.118C63.0766 119.026 63.0919 118.919 63.1227 118.811C63.1227 118.765 63.1535 118.703 63.1535 118.657C63.1688 118.504 63.1688 118.35 63.1535 118.196C63.1535 118.196 63.1535 118.181 63.1535 118.166L62.8613 115.384C62.7382 114.186 62.3077 113.079 61.631 112.157L61.6156 112.188Z" fill="#503EAA"/>
<path d="M49.5923 114.369L48.8388 116.812C48.7466 117.089 48.7312 117.366 48.762 117.627C48.762 117.473 48.7619 117.319 48.808 117.166L49.5923 114.354V114.369Z" fill="#503EAA"/>
<path d="M56.895 109.423C56.895 109.423 56.8181 109.408 56.772 109.393C56.5567 109.377 56.326 109.362 56.1107 109.362C53.1735 109.362 50.5284 111.283 49.6519 114.141L49.575 114.371L48.7907 117.183C48.7446 117.337 48.7446 117.491 48.7446 117.644C48.7754 118.013 48.8984 118.366 49.0983 118.674C49.2675 118.935 49.4981 119.165 49.7749 119.319C50.0517 119.488 50.3593 119.596 50.713 119.626L51.8356 119.734C52.2662 117.444 53.804 110.407 56.895 109.408V109.423Z" fill="#8D86EB"/>
<path d="M52.6187 90.0456C59.4927 89.6461 66.8127 86.7112 73.2407 81.7787C79.6534 76.8461 84.3745 70.5306 86.512 63.9847C88.0191 59.3902 88.1114 55.103 86.835 51.5227C83.4672 72.267 65.3979 87.5102 44.499 87.5102C43.238 87.5102 41.9771 87.4488 40.7007 87.3412C43.7917 89.3542 47.8822 90.3069 52.6033 90.0303L52.6187 90.0456Z" fill="#FF8486"/>
<path d="M73.0262 40.7045C73.8412 40.9965 74.2103 41.4267 74.2872 41.8877C74.9331 41.6111 75.5944 41.3192 76.2403 40.9811C76.8708 40.6584 77.2399 40.1821 77.2245 39.7211C77.2091 39.2601 76.7939 38.8299 76.1326 38.5533C73.9182 37.6159 70.4734 36.5403 66.7673 36.694C66.7827 37.7081 66.7058 38.7223 66.5674 39.7365C68.9971 39.6596 70.6426 39.8594 73.0262 40.7199V40.7045Z" fill="#C0DBFF"/>
<path d="M73.0252 40.7053C70.6416 39.8448 68.9962 39.6451 66.5664 39.7219C66.3973 41.028 66.1205 42.3188 65.6899 43.5942C66.1359 43.5942 66.5665 43.6249 67.0278 43.5942C69.3961 43.502 71.8258 42.9027 74.2863 41.8578C74.2094 41.3968 73.8557 40.9819 73.0252 40.6746V40.7053Z" fill="#77A4F2"/>
<path d="M45.5311 15.2124C45.4696 14.7207 45.2389 14.398 45.0544 14.3519L42.9784 13.8294C42.8092 13.7833 42.5016 13.9524 42.2555 14.3365L40.9023 16.5185C42.4555 16.2573 44.0548 16.1651 45.6387 16.2419L45.5311 15.2124Z" fill="#503EAA"/>
<path d="M64.1075 23.7874C64.2305 23.3418 64.1382 23.0191 63.9844 22.9115L62.1852 21.7591C62.016 21.6515 61.6316 21.6976 61.2318 22.0049L60.4014 22.6196C61.5547 23.726 62.5697 24.9552 63.4462 26.2614L64.1075 23.7721V23.7874Z" fill="#503EAA"/>
<path d="M23.355 15.7195C23.0321 15.5812 22.7245 15.5044 22.4477 15.5044C22.1709 15.5044 21.9249 15.5812 21.7557 15.7349C21.402 16.0422 21.3097 16.6261 21.5096 17.3176C21.7095 18.0244 21.9402 18.7006 22.1862 19.3613C22.5707 19.1001 23.1243 19.0847 23.9086 19.4689C26.123 20.5906 27.3841 21.6355 28.9526 23.4026C29.5985 22.6189 30.2905 21.866 31.044 21.1899C28.6143 18.424 25.5387 16.6876 23.355 15.7195Z" fill="#C0DBFF"/>
<path d="M23.9089 19.453C23.14 19.0535 22.571 19.0843 22.1865 19.3455C23.1092 21.8502 24.3395 24.0321 25.8927 25.8146C26.1541 26.1219 26.4463 26.3985 26.7231 26.6905C27.3536 25.4919 28.1071 24.4009 28.9375 23.3868C27.369 21.6197 26.1079 20.5748 23.8935 19.453H23.9089Z" fill="#77A4F2"/>
<path d="M28.8616 34.5727L26.1704 49.0629C26.8009 49.0168 27.4621 49.0168 28.1542 49.0629L30.5993 35.9095C32.0295 27.8884 36.6275 22.9712 42.1636 20.9736C40.2875 21.2349 38.4575 21.8034 36.812 22.71C33.8748 24.3235 30.1072 27.6886 28.8616 34.5727Z" fill="#77A4F2"/>
<path d="M30.6004 35.8966L28.1553 49.05C31.2924 49.2037 34.9678 50.141 38.9353 51.862C42.8721 53.5676 46.0554 55.5806 48.316 57.7319C48.7312 57.194 49.1311 56.6562 49.5463 56.1184C43.7641 52.323 42.1801 42.6884 46.1477 33.5456C48.0084 29.243 50.7919 25.7856 53.929 23.4654C53.4523 23.1888 52.9756 22.9429 52.4835 22.7124L51.0841 22.0978C48.2238 20.9146 45.1173 20.5458 42.1801 20.9607C36.644 22.9429 32.046 27.8754 30.6158 35.8966H30.6004ZM37.6435 33.8221C37.9665 34.4675 38.0588 35.2512 37.8896 36.0349C37.7205 36.8032 37.3207 37.4793 36.7517 37.9403C36.2903 38.3091 35.7674 38.4935 35.2446 38.4935C35.0908 38.4935 34.937 38.4781 34.7832 38.4474C34.1066 38.3091 33.5531 37.8481 33.2147 37.172C32.8918 36.5266 32.7995 35.7429 32.9686 34.9592C33.3223 33.3304 34.7064 32.2394 36.075 32.5468C36.7517 32.685 37.3052 33.146 37.6435 33.8221Z" fill="#C0DBFF"/>
<path d="M46.1313 33.559C42.1637 42.7172 43.7477 52.3364 49.5299 56.1318C52.6363 52.0137 55.4966 48.1875 56.7114 46.4512C59.4026 42.5481 63.1241 33.3131 56.004 24.9078C55.3428 24.3854 54.6507 23.8936 53.8972 23.4788C50.7755 25.799 47.992 29.2564 46.1159 33.559H46.1313ZM55.0352 40.7657C56.1732 41.5494 56.3424 43.3165 55.4043 44.684C54.9584 45.3294 54.3278 45.8058 53.6204 46.0209C53.359 46.0977 53.113 46.1285 52.8669 46.1285C52.4056 46.1285 51.975 46.0055 51.6059 45.7443C51.0369 45.3602 50.6986 44.7148 50.6371 43.9618C50.5756 43.2396 50.7909 42.4713 51.2522 41.8259C52.1903 40.4584 53.8972 39.982 55.0352 40.7657Z" fill="#77A4F2"/>
<path d="M56.7116 46.4513C55.5121 48.1877 52.6518 52.0292 49.53 56.132C49.1302 56.6698 48.715 57.2076 48.2998 57.7454C48.838 58.2679 49.3455 58.7903 49.776 59.3281L58.5262 47.4347C62.6783 41.7185 62.5246 36.617 61.6634 33.3594C60.7868 30.071 58.7568 27.1053 56.0042 24.9233C63.1242 33.3286 59.4028 42.5637 56.7116 46.4667V46.4513Z" fill="white"/>
<path d="M27.0767 71.0535L33.105 73.6658C34.612 74.3265 36.2113 74.557 37.7491 74.4187C37.257 74.1421 36.7957 73.8502 36.3497 73.4968L36.119 73.2663C36.119 73.2663 33.8892 70.5465 31.3518 69.4401C28.8145 68.3491 25.4005 68.595 25.3543 68.595H25.0161C24.4471 68.5028 23.9088 68.3645 23.3706 68.1954C24.324 69.4094 25.585 70.4082 27.0921 71.0689L27.0767 71.0535Z" fill="#77A4F2"/>
<path d="M46.9771 65.7814C45.8084 68.4551 43.8862 71.4361 40.8721 72.3734C41.1027 72.4195 41.3334 72.4656 41.5641 72.4964C44.5013 72.7422 46.9157 70.76 48.7457 66.5497C49.5915 64.6135 48.4688 62.6006 47.3924 61.2637C47.0233 60.8027 46.5927 60.3571 46.116 59.9115C47.4692 62.0013 47.7307 64.0296 46.9771 65.7967V65.7814Z" fill="#C0DBFF"/>
<path d="M21.5562 54.7813C19.7416 58.9916 19.9261 62.111 22.1252 64.0778C22.9402 64.8 24.0474 65.3071 25.2623 65.5069C26.1234 65.4608 29.6297 65.3532 32.5362 66.6132C35.4272 67.8733 37.7954 70.5162 38.3644 71.177C39.1333 71.7609 40.0099 72.1758 40.8711 72.3602C43.8852 71.4228 45.8074 68.4572 46.9761 65.7681C47.745 64.001 47.4682 61.9727 46.115 59.8829C44.1312 58.0082 41.2863 56.2257 37.7032 54.6738C33.2743 52.753 29.3375 51.8925 26.3233 52.1076C24.6164 52.2459 22.402 52.8144 21.5562 54.7506V54.7813ZM37.411 62.3568C37.7339 61.0968 38.549 60.1134 39.6408 59.6831C40.4251 59.3758 41.317 59.7599 41.64 60.5436C41.9475 61.3273 41.5631 62.2185 40.7788 62.5412C40.5481 62.6334 40.4251 62.9868 40.3944 63.1251C40.2713 63.6015 40.3328 64.2008 40.5481 64.7693C40.9941 65.8757 41.8707 66.3981 42.2397 66.2445C43.0394 65.9371 43.9313 66.3213 44.2389 67.105C44.5464 67.8886 44.162 68.7799 43.3777 69.1026C42.9471 69.2716 42.5165 69.3484 42.0859 69.3484C40.3174 69.3484 38.5336 68.0269 37.6878 65.9064C37.2264 64.7386 37.1188 63.4786 37.411 62.3568ZM24.2319 58.4385C25.0162 58.1311 25.9081 58.5153 26.2311 59.299C26.3234 59.5448 26.6771 59.6524 26.8155 59.6831C27.2922 59.806 27.8919 59.7446 28.4609 59.5295C29.0299 59.299 29.5066 58.9455 29.768 58.5153C29.9372 58.2541 29.9988 57.9928 29.9373 57.8392C29.6297 57.0555 30.0141 56.1643 30.7984 55.8416C31.5827 55.5343 32.4746 55.9184 32.7976 56.7021C33.2282 57.7931 33.0743 59.0531 32.3669 60.1595C31.7518 61.1275 30.7676 61.9112 29.5835 62.3876C28.8453 62.6795 28.0918 62.8178 27.3537 62.8178C26.9077 62.8178 26.4618 62.7563 26.0466 62.6488C24.7855 62.3261 23.8014 61.5117 23.3708 60.4207C23.0632 59.637 23.4477 58.7458 24.2319 58.4231V58.4385Z" fill="#77A4F2"/>
<path d="M26.0322 62.6798C26.4474 62.7874 26.8935 62.8489 27.3394 62.8489C28.0776 62.8489 28.8464 62.7106 29.5692 62.4186C30.7533 61.9576 31.7375 61.1739 32.3526 60.1905C33.06 59.0841 33.2138 57.8241 32.7833 56.7331C32.4757 55.9494 31.5838 55.5653 30.7841 55.8726C29.9998 56.1799 29.6 57.0712 29.9229 57.8702C29.9845 58.0392 29.923 58.2851 29.7538 58.5463C29.4924 58.9612 29.0156 59.33 28.4466 59.5605C27.8776 59.791 27.2779 59.8371 26.8011 59.7142C26.6627 59.6681 26.309 59.5605 26.2168 59.33C25.9092 58.5463 25.0173 58.1622 24.2176 58.4695C23.4334 58.7768 23.0335 59.6681 23.3565 60.4671C23.7871 61.5581 24.7559 62.3725 26.0322 62.6952V62.6798Z" fill="#29264C"/>
<path d="M42.0874 69.3464C42.518 69.3464 42.964 69.2696 43.3792 69.1005C44.1635 68.7932 44.5479 67.8866 44.2404 67.1029C43.9328 66.3193 43.0409 65.9351 42.2412 66.2424C41.8568 66.4115 40.9802 65.889 40.5496 64.7673C40.3189 64.1987 40.2728 63.5995 40.3958 63.1231C40.4266 62.9848 40.5496 62.6314 40.7803 62.5392C41.5646 62.2319 41.949 61.3253 41.6414 60.5416C41.3339 59.7579 40.4266 59.3738 39.6423 59.6811C38.5505 60.1113 37.7354 61.0948 37.4125 62.3548C37.1203 63.4612 37.2279 64.7212 37.6893 65.9044C38.5351 68.0249 40.3035 69.3464 42.0874 69.3464Z" fill="#29264C"/>
<path d="M50.6516 43.9626C50.7131 44.7155 51.0515 45.3455 51.6205 45.745C51.9895 46.0063 52.4201 46.1292 52.8815 46.1292C53.1275 46.1292 53.3736 46.0984 53.635 46.0216C54.327 45.8219 54.9728 45.3455 55.4188 44.6848C56.3569 43.3172 56.2031 41.5501 55.0498 40.7664C53.9118 39.9827 52.2049 40.4591 51.2668 41.8267C50.8208 42.472 50.6055 43.2403 50.6516 43.9626Z" fill="#29264C"/>
<path d="M32.9655 34.9746C32.7963 35.7429 32.8886 36.5266 33.2116 37.1873C33.5499 37.8634 34.1188 38.3244 34.7801 38.4627C34.9339 38.4934 35.0876 38.5088 35.2414 38.5088C35.7643 38.5088 36.2872 38.3244 36.7485 37.9556C37.3175 37.4946 37.7173 36.8185 37.8865 36.0502C38.0556 35.2819 37.9633 34.4983 37.6404 33.8375C37.3021 33.1614 36.7331 32.7004 36.0719 32.5621C34.7032 32.2548 33.3192 33.3458 32.9655 34.9746Z" fill="#29264C"/>
<path d="M18.4961 96.6995L23.2325 102.984C23.3248 103.107 23.4324 103.215 23.5401 103.307C23.5862 103.338 23.617 103.353 23.6631 103.384C23.74 103.445 23.8169 103.491 23.9091 103.537C23.9553 103.568 24.0168 103.584 24.0784 103.599C24.1552 103.63 24.2321 103.66 24.3244 103.676C24.3859 103.676 24.4474 103.691 24.5089 103.706C24.5858 103.706 24.6627 103.737 24.7396 103.737C24.7704 103.737 24.8011 103.737 24.8319 103.737C25.0779 103.737 25.3239 103.691 25.5392 103.584C25.5392 103.584 25.57 103.568 25.5854 103.568C25.8161 103.461 26.0467 103.307 26.2312 103.092L27.8613 101.248C28.2458 100.802 28.5534 100.311 28.7841 99.8034C28.9686 99.3885 29.1377 98.9737 29.23 98.5434C29.2915 98.2207 29.3377 97.8827 29.353 97.5446C29.3992 96.2539 29.0301 94.9477 28.2151 93.826C25.7238 92.4123 20.2491 95.5931 18.5114 96.6841L18.4961 96.6995Z" fill="#503EAA"/>
<path d="M20.6492 92.0438L20.2956 92.213L18.6193 93.0126C18.5117 93.0588 18.4502 93.1357 18.3579 93.1972L20.6492 92.0284V92.0438Z" fill="#503EAA"/>
<path d="M28.1999 93.8411C28.1999 93.8411 28.1691 93.7797 28.1383 93.749C26.985 92.2123 25.2012 91.3826 23.3866 91.3826C22.5254 91.3826 21.6488 91.567 20.8337 91.9665L20.6492 92.0587L18.3579 93.2265C18.2502 93.2726 18.1734 93.3494 18.0965 93.4263C18.0811 93.4416 18.0503 93.457 18.0349 93.4724C17.4198 94.1331 17.3276 95.1626 17.912 95.9309L18.5116 96.7146C20.2494 95.6236 25.7241 92.4428 28.2153 93.8565L28.1999 93.8411Z" fill="#8D86EB"/>
<path d="M124.344 105.826L129.373 99.7568C129.758 99.2804 129.881 98.6965 129.773 98.1587C129.665 97.6209 129.327 97.1138 128.789 96.8372L128.051 96.4377L126.621 95.6694C126.513 95.6079 126.405 95.5772 126.298 95.5311C126.128 95.4543 125.944 95.3621 125.759 95.3006C125.682 95.2699 125.59 95.2545 125.513 95.2238C125.283 95.1469 125.037 95.1008 124.791 95.0547C124.729 95.0547 124.668 95.024 124.606 95.024C124.314 94.9779 124.037 94.9779 123.745 94.9779C123.36 94.9779 122.961 95.024 122.591 95.1008C122.499 95.1162 122.422 95.1469 122.345 95.1777C122.053 95.2545 121.761 95.3467 121.484 95.4696C121.361 95.5157 121.254 95.5772 121.131 95.6387C120.884 95.7616 120.638 95.9152 120.408 96.0689C120.315 96.1457 120.208 96.2072 120.116 96.284C119.823 96.5145 119.562 96.7604 119.316 97.0523C118.532 99.8029 122.884 104.382 124.36 105.826H124.344Z" fill="#503EAA"/>
<path d="M119.315 104.812L120.73 106.564C120.822 106.687 120.93 106.794 121.053 106.871C121.099 106.917 121.16 106.933 121.206 106.963C121.237 106.979 121.268 106.994 121.283 107.009C121.176 106.933 121.068 106.856 120.976 106.748L119.315 104.781V104.812Z" fill="#503EAA"/>
<path d="M117.945 101.878C118.006 102.201 118.083 102.539 118.191 102.846C118.406 103.492 118.745 104.091 119.191 104.644L119.314 104.798L120.974 106.765C121.067 106.872 121.174 106.949 121.282 107.026C121.574 107.195 121.897 107.287 122.22 107.287C122.774 107.287 123.312 107.057 123.712 106.596L124.342 105.827C122.881 104.383 118.514 99.8038 119.298 97.0532C119.267 97.084 119.237 97.0993 119.221 97.1301C118.099 98.4976 117.668 100.234 117.93 101.878H117.945Z" fill="#8D86EB"/>
<path d="M101.845 116.477C101.184 115.555 100.292 114.802 99.246 114.31C98.5847 114.003 97.8774 113.803 97.1239 113.711C94.0175 114.71 92.4797 121.732 92.0645 124.037L95.7245 124.39L100.968 124.897C101.091 124.897 101.214 124.897 101.337 124.897C101.414 124.897 101.476 124.897 101.553 124.867C101.645 124.867 101.722 124.836 101.814 124.805C101.876 124.79 101.953 124.759 102.014 124.744C102.091 124.713 102.168 124.667 102.245 124.621C102.306 124.59 102.368 124.559 102.414 124.513C102.491 124.467 102.552 124.406 102.614 124.344C102.66 124.298 102.722 124.267 102.768 124.206C102.829 124.144 102.875 124.068 102.937 123.991C102.968 123.945 103.014 123.883 103.044 123.837C103.091 123.76 103.121 123.668 103.167 123.591C103.198 123.53 103.229 123.484 103.244 123.422C103.275 123.33 103.29 123.222 103.321 123.115C103.321 123.069 103.352 123.007 103.352 122.961C103.367 122.808 103.367 122.654 103.352 122.5C103.352 122.5 103.352 122.485 103.352 122.47L103.06 119.688C102.937 118.49 102.506 117.383 101.83 116.461L101.845 116.477Z" fill="#503EAA"/>
<path d="M89.8034 118.658L89.0498 121.101C88.9576 121.378 88.9421 121.654 88.9729 121.916C88.9729 121.762 88.9729 121.608 89.0191 121.455L89.8034 118.643V118.658Z" fill="#503EAA"/>
<path d="M97.1241 113.709C97.1241 113.709 97.0472 113.694 97.0011 113.679C96.7858 113.663 96.5551 113.648 96.3398 113.648C93.4026 113.648 90.7575 115.569 89.881 118.427L89.8041 118.657L89.0198 121.469C88.9737 121.623 88.9736 121.777 88.9736 121.93C89.0044 122.299 89.1275 122.652 89.3274 122.96C89.4966 123.221 89.7272 123.451 90.004 123.605C90.2808 123.759 90.5884 123.882 90.9421 123.912L92.0646 124.02C92.4952 121.73 94.0331 114.693 97.1241 113.694V113.709Z" fill="#8D86EB"/>
<defs>
<radialGradient id="paint0_radial_30075_231096" cx="0" cy="0" r="1" gradientUnits="userSpaceOnUse" gradientTransform="translate(63.3843 2.08822) scale(75.5065 75.4478)">
<stop stop-color="#86D4C9"/>
<stop offset="1" stop-color="#86D4C9" stop-opacity="0"/>
</radialGradient>
</defs>
</svg>
