<svg width="603" height="214" viewBox="0 0 603 214" fill="none" xmlns="http://www.w3.org/2000/svg">
<path d="M104.1 209.7V173.1H4.8L0 129.3L90.9 3.9H162.3V125.1H187.2V173.1H162.3V209.7H104.1ZM59.7 125.1H104.1V63.3L59.7 125.1Z" fill="#77A4F2"/>
<path d="M302.712 213.3C245.712 213.3 205.512 169.2 205.512 106.5C205.512 44.1 245.712 0 302.712 0C359.712 0 399.912 44.1 399.912 106.5C399.912 169.2 359.712 213.3 302.712 213.3ZM302.712 160.5C324.612 160.5 339.912 138 339.912 106.5C339.912 75 324.612 52.8 302.712 52.8C280.812 52.8 265.512 75 265.512 106.5C265.512 138 280.812 160.5 302.712 160.5Z" fill="#77A4F2"/>
<path d="M518.944 209.7V173.1H419.644L414.844 129.3L505.744 3.9H577.144V125.1H602.044V173.1H577.144V209.7H518.944ZM474.544 125.1H518.944V63.3L474.544 125.1Z" fill="#77A4F2"/>
</svg>
