<svg viewBox="0 0 562 161" fill="none" xmlns="http://www.w3.org/2000/svg">
    <path d="M25.2399 152.76C16.0699 152.76 7.6699 155.97 3.6499 160.85H551.81C556.66 160.85 560.7 157.39 561.61 152.81C561.11 152.79 560.61 152.76 560.09 152.76H25.2399Z" fill="url(#paint0_linear_2673_26878)"/>
    <path d="M25.24 149.76C13.76 149.76 3.93 154.29 0 160.85H3.64996C7.66996 155.97 16.07 152.76 25.24 152.76H560.09C560.6 152.76 561.1 152.78 561.61 152.81C561.73 152.18 561.8 151.53 561.8 150.86V149.81C561.23 149.79 560.67 149.77 560.09 149.77H25.24V149.76Z" fill="#38237C"/>
    <path d="M65.45 67.52L65.17 67.49C64.19 67.39 63.21 67.39 62.26 67.49C59.9 67.73 57.75 68.58 55.98 69.97C56.92 69.62 57.95 69.41 59.07 69.35C60.19 69.29 61.37 69.38 62.58 69.63C62.67 69.65 62.76 69.67 62.85 69.69C68.15 70.84 73.47 74.02 77.84 78.65C79.21 80.1 80.41 81.64 81.47 83.23C82.44 82.18 83.36 81.15 84.23 80.12C83.25 78.5 82.09 76.94 80.74 75.5C76.5 71 71.07 68.16 65.46 67.53L65.45 67.52Z" fill="white"/>
    <path d="M85.98 83.5898C85.14 84.5398 84.26 85.4898 83.35 86.4498C84.62 88.9598 85.5 91.5498 85.89 94.0998C85.9 94.1898 85.92 94.2799 85.93 94.3699C86.18 96.1399 86.1 97.7698 85.74 99.2398C87.17 97.0598 87.89 94.3898 87.77 91.5098V91.2299C87.62 88.6399 87 86.0598 85.97 83.5998L85.98 83.5898Z" fill="white"/>
    <path d="M66.3101 106.16C64.9601 105.61 63.6501 104.95 62.3901 104.19C61.0101 105.13 59.63 106.02 58.28 106.85C59.86 107.78 61.51 108.53 63.21 109.07L66.3101 106.17V106.16Z" fill="#8D86EB"/>
    <path d="M47.86 80.9701L47.84 80.6401C47.8 79.7701 47.8501 78.9201 47.9401 78.0801C47.8501 78.2101 47.75 78.3401 47.66 78.4701C46.14 80.6901 45.39 83.4101 45.49 86.3201V86.4801L48.2001 83.9501C48.0301 82.9701 47.91 81.9801 47.86 80.9801V80.9701Z" fill="#8D86EB"/>
    <path d="M67.8 110.01C70.7 110.29 73.45 109.7 75.76 108.32C75.89 108.24 76.03 108.14 76.16 108.06C75.92 108.06 75.69 108.1 75.45 108.1C74.84 108.1 74.22 108.07 73.6 108.01L73.28 107.97C72.21 107.85 71.15 107.65 70.11 107.4L67.37 109.96C67.42 109.96 67.47 109.98 67.52 109.98L67.8 110.01V110.01Z" fill="#8D86EB"/>
    <path d="M51.86 93.6401C50.76 91.8001 49.85 89.8501 49.18 87.8301L46.1 90.7201C46.6 92.8201 47.41 94.8701 48.49 96.8101L51.86 93.6401Z" fill="#8D86EB"/>
    <path d="M54.5599 104.19L57.9899 100.97C56.4799 99.6403 55.0899 98.1603 53.8599 96.5703L50.4399 99.7903C51.0499 100.6 51.6899 101.4 52.4099 102.16C53.0899 102.89 53.8199 103.55 54.5599 104.19Z" fill="#8D86EB"/>
    <path d="M85.9401 94.3702C85.9301 94.2802 85.91 94.1902 85.9 94.1002C85.5 91.5502 84.63 88.9602 83.36 86.4502C80.3 89.6602 76.8501 92.9102 73.1201 96.0602C70.6101 98.1702 68.0801 100.14 65.5601 101.97C68.1401 103.31 70.8901 104.18 73.6901 104.5L73.97 104.53C77.85 104.92 81.4101 103.79 84.0101 101.34C84.6801 100.71 85.2601 100.01 85.7601 99.2502C86.1201 97.7902 86.2001 96.1502 85.9501 94.3802L85.9401 94.3702Z" fill="#FF8486"/>
    <path d="M62.83 69.6704C62.74 69.6504 62.65 69.6304 62.56 69.6104C61.35 69.3604 60.17 69.2704 59.05 69.3304C57.93 69.3904 56.9 69.6104 55.96 69.9504C55.67 70.1804 55.39 70.4104 55.12 70.6604C52.52 73.1004 51.18 76.5904 51.34 80.4904V80.7704C51.65 86.4104 54.15 91.9904 58.4 96.5004C59.6 97.7804 60.91 98.9004 62.28 99.9004C65.09 97.9104 67.95 95.7004 70.77 93.3204C74.71 90.0004 78.32 86.5704 81.45 83.2004C80.39 81.6104 79.19 80.0704 77.82 78.6204C73.45 73.9904 68.12 70.8104 62.83 69.6604V69.6704Z" fill="#FF8486"/>
    <path d="M79.86 62.6202C78.86 63.0802 78.33 64.1702 78.66 65.1102C78.81 65.5402 79.13 65.8802 79.56 66.0602C80.05 66.2702 80.63 66.2502 81.15 66.0102C86.63 63.5002 90.93 62.7702 92.12 64.1402C93.31 65.5102 91.9 69.5802 88.54 74.5202C87.94 75.4102 87.26 76.3202 86.55 77.2402C81.88 70.1902 74.24 65.0102 65.84 64.0502L65.51 64.0102C60.61 63.5202 56.07 64.9802 52.72 68.1302C52.62 68.2302 52.53 68.3402 52.42 68.4402L52.25 68.5702C52.06 68.7202 47.65 72.2402 44.74 76.5002C42.8 79.3402 41.84 82.7802 41.97 86.4402V86.7602C42.34 94.3002 46.12 101.41 51.73 106.42C50.84 106.88 49.97 107.31 49.12 107.7C43.64 110.21 39.34 110.94 38.15 109.57C36.96 108.2 38.37 104.13 41.73 99.1902C42.05 98.7202 42.17 98.1602 42.04 97.6502C41.93 97.2002 41.64 96.8302 41.23 96.6102C40.35 96.1502 39.18 96.4902 38.57 97.3902C32.63 106.11 33.38 110.25 35.06 112.19C36.12 113.42 37.74 114.03 39.88 114.03C40.72 114.03 41.64 113.94 42.64 113.75C44.85 113.33 47.46 112.43 50.42 111.08C51.84 110.43 53.32 109.66 54.83 108.83C58.5 111.33 62.71 112.99 67.14 113.47L67.47 113.5C68.04 113.55 68.62 113.58 69.19 113.58C69.79 113.58 70.39 113.55 70.97 113.49C73.35 113.24 75.57 112.52 77.56 111.33C81.15 109.18 84.63 105.67 85.94 104.27C86.09 104.14 86.25 104.01 86.4 103.87C89.75 100.72 91.48 96.2702 91.28 91.3502L91.26 91.0202C91.07 87.3902 90.08 83.8502 88.48 80.5902C89.66 79.1302 90.75 77.6902 91.69 76.2902C97.63 67.5702 96.88 63.4302 95.2 61.4902C93.52 59.5502 89.5 58.1802 79.84 62.6002L79.86 62.6202ZM45.49 86.3202C45.39 83.4102 46.14 80.7002 47.66 78.4702C47.75 78.3402 47.85 78.2102 47.94 78.0802C47.86 78.9202 47.81 79.7702 47.84 80.6402L47.86 80.9702C47.91 81.9702 48.03 82.9602 48.2 83.9402L45.5 86.4702V86.3102L45.49 86.3202ZM49.17 87.8302C49.84 89.8502 50.74 91.8002 51.85 93.6402L48.48 96.8102C47.4 94.8602 46.59 92.8102 46.09 90.7202L49.17 87.8302ZM53.85 96.5702C55.08 98.1702 56.47 99.6402 57.98 100.97L54.55 104.19C53.81 103.55 53.08 102.89 52.4 102.16C51.69 101.4 51.04 100.6 50.43 99.7902L53.85 96.5702ZM62.38 104.19C63.64 104.95 64.95 105.61 66.3 106.16L63.2 109.06C61.5 108.52 59.85 107.77 58.27 106.84C59.62 106.01 60.99 105.12 62.38 104.18V104.19ZM70.11 107.4C71.15 107.65 72.21 107.85 73.28 107.97L73.6 108.01C74.22 108.07 74.83 108.1 75.45 108.1C75.69 108.1 75.92 108.07 76.16 108.06C76.03 108.14 75.89 108.24 75.76 108.32C73.45 109.7 70.7 110.28 67.8 110.01L67.52 109.98C67.47 109.98 67.42 109.96 67.37 109.96L70.11 107.4V107.4ZM85.75 99.2402C85.25 100 84.67 100.7 84 101.33C81.4 103.77 77.84 104.9 73.96 104.52L73.68 104.49C70.88 104.17 68.13 103.31 65.55 101.96C68.07 100.13 70.6 98.1702 73.11 96.0502C76.84 92.9102 80.29 89.6602 83.35 86.4402C84.26 85.4802 85.15 84.5302 85.98 83.5802C87 86.0502 87.63 88.6202 87.76 91.2102V91.4902C87.89 94.3802 87.18 97.0402 85.74 99.2202L85.75 99.2402ZM81.46 83.2202C78.33 86.5802 74.73 90.0202 70.78 93.3402C67.96 95.7202 65.1 97.9302 62.29 99.9202C60.92 98.9202 59.61 97.8002 58.41 96.5202C54.17 92.0202 51.67 86.4302 51.37 80.7902V80.5102C51.2 76.6202 52.54 73.1302 55.14 70.6802C55.41 70.4302 55.69 70.1902 55.98 69.9702C57.75 68.5902 59.9 67.7402 62.26 67.4902C63.21 67.3902 64.19 67.3902 65.17 67.4902L65.45 67.5202C71.06 68.1602 76.49 70.9902 80.73 75.4902C82.08 76.9302 83.24 78.4802 84.22 80.1102C83.35 81.1402 82.43 82.1702 81.46 83.2202Z" fill="#38237C"/>
    <path d="M526.9 100.72C524.28 101.13 521.78 102.57 519.87 104.77C517.96 106.98 516.89 109.65 516.85 112.31V112.43C516.85 113.98 517.38 115.36 518.32 116.39C518.2 115.79 518.19 115.12 518.31 114.37C518.31 114.33 518.32 114.29 518.33 114.25C518.76 111.79 520.09 109.16 522.09 106.85C524.08 104.54 526.49 102.84 528.85 102.07C528.89 102.06 528.93 102.04 528.97 102.03C529.51 101.86 530.04 101.76 530.53 101.74C530.85 101.72 531.15 101.76 531.43 101.8C530.57 101.12 529.52 100.71 528.36 100.64C527.93 100.61 527.48 100.64 527.03 100.69L526.9 100.71V100.72Z" fill="white"/>
    <path d="M527.78 121.75L527.9 121.73C530.5 121.34 532.98 119.93 534.86 117.75C536.74 115.58 537.79 112.93 537.81 110.3V110.16C537.8 108.84 537.41 107.63 536.69 106.66C536.56 106.49 536.4 106.3 536.22 106.08C536.22 106.15 536.22 106.22 536.22 106.29V106.46C536.14 113.27 530.6 119.66 523.87 120.71L523.71 120.73C523.65 120.73 523.6 120.75 523.54 120.75C523.77 120.9 523.97 121.02 524.15 121.12C525.22 121.7 526.47 121.91 527.78 121.73V121.75Z" fill="#8D86EB"/>
    <path d="M528.96 102.04C528.96 102.04 528.88 102.06 528.84 102.08C526.47 102.85 524.07 104.55 522.08 106.86C520.09 109.17 518.75 111.8 518.32 114.26C518.32 114.3 518.31 114.34 518.3 114.38C518.18 115.13 518.2 115.8 518.31 116.4C518.4 116.5 518.49 116.6 518.59 116.69L518.65 116.75C518.65 116.75 518.69 116.79 518.71 116.81C519.92 117.86 521.55 118.3 523.3 118.05L523.43 118.03C525.36 117.73 527.25 116.86 528.89 115.51C529.46 115.04 529.99 114.53 530.47 113.97C531.1 113.25 531.65 112.44 532.11 111.57C532.99 109.93 533.46 108.15 533.48 106.43V106.3C533.48 104.64 532.87 103.14 531.76 102.1L531.69 102.03C531.69 102.03 531.63 101.97 531.6 101.94C531.54 101.89 531.47 101.85 531.41 101.8C531.13 101.75 530.83 101.72 530.51 101.74C530.01 101.77 529.49 101.86 528.95 102.03L528.96 102.04Z" fill="#FF8486"/>
    <path d="M540.46 109.04C540.27 107.57 539.72 106.19 538.87 105.04C537.27 102.9 534.17 100.55 534.14 100.53L533.86 100.33C533.71 100.18 533.56 100.03 533.39 99.8799C531.57 98.2999 529.17 97.6299 526.63 97.9999L526.47 98.0199C519.74 99.0699 514.2 105.46 514.12 112.27V112.44C514.12 115.01 515.12 117.29 516.94 118.86C517.04 118.95 517.15 119.03 517.27 119.1C517.32 119.14 517.38 119.17 517.43 119.21C517.46 119.24 520.5 122.25 522.85 123.52C523.92 124.1 525.09 124.43 526.33 124.51C526.51 124.52 526.69 124.53 526.88 124.53C527.3 124.53 527.72 124.5 528.15 124.44L528.31 124.42C535.01 123.42 540.5 117.09 540.54 110.32V110.15C540.54 109.77 540.51 109.39 540.47 109.03L540.46 109.04ZM523.7 120.75L523.86 120.73C530.59 119.68 536.13 113.29 536.21 106.48V106.31C536.21 106.24 536.21 106.17 536.21 106.1C536.4 106.31 536.55 106.5 536.68 106.68C537.4 107.65 537.79 108.86 537.8 110.18V110.32C537.78 112.95 536.74 115.6 534.85 117.77C532.96 119.94 530.49 121.36 527.89 121.75L527.77 121.77C526.46 121.95 525.2 121.74 524.14 121.16C523.96 121.06 523.76 120.94 523.53 120.79C523.59 120.79 523.64 120.78 523.7 120.77V120.75ZM528.35 100.65C529.51 100.72 530.56 101.13 531.42 101.81C531.48 101.86 531.55 101.89 531.61 101.95C531.64 101.98 531.67 102.01 531.7 102.04L531.77 102.11C532.88 103.16 533.49 104.65 533.49 106.31V106.44C533.47 108.16 532.99 109.93 532.12 111.58C531.66 112.45 531.1 113.26 530.48 113.98C530 114.53 529.47 115.05 528.9 115.52C527.27 116.87 525.38 117.74 523.44 118.04L523.31 118.06C521.56 118.31 519.93 117.87 518.72 116.82C518.7 116.8 518.68 116.78 518.66 116.76L518.6 116.7C518.5 116.61 518.41 116.51 518.32 116.41C517.37 115.38 516.85 114 516.84 112.45V112.33C516.87 109.68 517.94 107 519.86 104.79C521.77 102.58 524.27 101.14 526.89 100.74L527.02 100.72C527.47 100.66 527.91 100.64 528.35 100.67V100.65Z" fill="#38237C"/>
    <path d="M503.18 58.9898C504.44 59.9998 505.53 61.5798 506.25 63.4298C506.97 65.2798 507.22 67.1798 506.96 68.7698V68.8498C506.89 69.1898 506.79 69.5098 506.67 69.7898C507.12 69.5198 507.51 69.1498 507.79 68.6898C507.93 68.4698 508.04 68.2198 508.13 67.9698L508.15 67.9198C508.7 66.3398 508.64 64.5398 507.99 62.8398C507.34 61.1398 506.18 59.7598 504.73 58.9698C504.15 58.6598 503.56 58.5098 502.98 58.5098C502.83 58.5098 502.68 58.5498 502.53 58.5698C502.72 58.6698 502.91 58.7898 503.11 58.9398L503.17 58.9898H503.18Z" fill="white"/>
    <path d="M497.44 60.46C497.18 60.59 496.97 60.71 496.81 60.82C496.21 61.21 495.75 61.81 495.48 62.56C494.91 64.17 494.95 65.92 495.6 67.62C496.24 69.29 497.39 70.65 498.83 71.42C499.59 71.82 500.33 71.97 501.05 71.85C501.24 71.82 501.48 71.77 501.77 71.69C498.12 69.44 496.25 64.58 497.45 60.46H497.44Z" fill="#8D86EB"/>
    <path d="M505.92 56.8201L505.82 56.7701C504.25 55.9401 502.53 55.8101 500.98 56.4101C500.71 56.5101 500.44 56.6401 500.22 56.7801L499.69 56.9301C499.69 56.9301 496.95 57.7801 495.45 58.7701C495.3 58.8701 495.16 58.9701 495.03 59.0801C494.51 59.5001 494.07 60.0001 493.72 60.5801C493.5 60.9301 493.32 61.3101 493.17 61.7101L493.13 61.8101C491.6 66.1201 493.62 71.4101 497.65 73.5901L497.75 73.6401C498.65 74.1101 499.61 74.3501 500.57 74.3501C500.85 74.3501 501.13 74.3301 501.41 74.2901C503.17 74.0201 505.54 72.9301 505.56 72.9201L506.17 72.6201L506.22 72.5801C506.54 72.5101 506.82 72.4301 507.09 72.3301C508.65 71.7301 509.84 70.4801 510.45 68.8201L510.49 68.7101C512.01 64.3701 509.96 59.0301 505.93 56.8201H505.92ZM499.84 65.9801C499.17 64.2201 499.1 62.3701 499.69 60.6701C500.07 59.6101 500.81 58.8301 501.76 58.4701C501.87 58.4301 501.99 58.4101 502.11 58.3801C502.25 58.4301 502.39 58.5001 502.53 58.5801C502.68 58.5601 502.83 58.5201 502.98 58.5201C503.56 58.5201 504.15 58.6801 504.73 58.9801C506.18 59.7701 507.33 61.1501 507.99 62.8501C508.64 64.5501 508.7 66.3501 508.15 67.9301L508.13 67.9801C508.04 68.2301 507.92 68.4801 507.79 68.7001C507.51 69.1601 507.12 69.5301 506.67 69.8001C506.67 69.8101 506.66 69.8301 506.65 69.8501C506.59 69.9801 506.52 70.0901 506.44 70.2101C506.39 70.2301 506.35 70.2601 506.3 70.2801C505.35 70.6501 504.28 70.5601 503.21 69.9901C501.71 69.1701 500.52 67.7501 499.84 65.9901V65.9801ZM501.76 71.6901C501.48 71.7701 501.24 71.8201 501.04 71.8501C500.32 71.9601 499.57 71.8101 498.82 71.4201C497.38 70.6401 496.24 69.2901 495.59 67.6201C494.94 65.9201 494.9 64.1701 495.47 62.5601C495.74 61.8201 496.21 61.2201 496.8 60.8201C496.97 60.7101 497.17 60.5901 497.43 60.4601C496.24 64.5801 498.1 69.4401 501.75 71.6901H501.76Z" fill="#38237C"/>
    <path d="M506.3 70.2701C506.3 70.2701 506.39 70.2201 506.44 70.2001C506.51 70.0901 506.59 69.9801 506.65 69.8401C506.65 69.8301 506.66 69.8101 506.67 69.7901C506.79 69.5101 506.89 69.2001 506.95 68.8501V68.7701C507.22 67.1801 506.97 65.2801 506.26 63.4301C505.54 61.5701 504.45 60.0001 503.19 58.9901L503.13 58.9401C502.94 58.7901 502.74 58.6701 502.55 58.5701C502.41 58.5001 502.27 58.4301 502.13 58.3701C502.01 58.4001 501.89 58.4201 501.78 58.4601C500.83 58.8201 500.09 59.6101 499.71 60.6601C499.12 62.3501 499.18 64.2101 499.86 65.9701C500.53 67.7301 501.73 69.1501 503.23 69.9701C504.3 70.5401 505.37 70.6301 506.32 70.2601L506.3 70.2701Z" fill="#77A4F2"/>
    <path d="M472.87 137.29V137.21C472.87 137.21 472.82 137.26 472.8 137.29H472.87Z" fill="#C0DBFF"/>
    <path d="M154.83 133.4H468.51V13.6204C468.51 10.3504 465.86 7.69043 462.58 7.69043H148.9V127.47C148.9 130.74 151.55 133.4 154.83 133.4ZM226.07 103.13V105.13C226.07 105.74 225.57 106.24 224.96 106.24H222.42V120.82C222.42 121.92 221.52 122.82 220.42 122.82C219.32 122.82 218.42 121.92 218.42 120.82V106.24H213.85C213.24 106.24 212.74 105.74 212.74 105.13V97.5404C212.74 96.9304 213.24 96.4304 213.85 96.4304H218.42V81.3504C218.42 80.2504 219.32 79.3504 220.42 79.3504C221.52 79.3504 222.42 80.2504 222.42 81.3504V96.4304H224.96C225.57 96.4304 226.07 96.9304 226.07 97.5404V103.13ZM386.02 120.15C385.74 122.52 383.9 124.37 381.65 124.37C379.21 124.37 377.23 122.21 377.23 119.54C377.23 117.81 378.07 116.31 379.31 115.46C380.07 114.62 381.15 114.09 382.37 114.09C384.66 114.09 386.51 115.94 386.51 118.23C386.51 118.93 386.32 119.58 386.01 120.16L386.02 120.15ZM401.02 119.96C400.82 122.43 398.95 124.37 396.64 124.37C394.2 124.37 392.22 122.21 392.22 119.54C392.22 117.91 392.97 116.47 394.1 115.6C394.86 114.68 395.99 114.09 397.28 114.09C399.57 114.09 401.42 115.94 401.42 118.23C401.42 118.85 401.27 119.44 401.03 119.97L401.02 119.96ZM415.86 120.07C415.61 122.48 413.76 124.36 411.49 124.36C409.05 124.36 407.07 122.2 407.07 119.53C407.07 117.83 407.87 116.35 409.08 115.49C409.84 114.63 410.94 114.08 412.17 114.08C414.46 114.08 416.31 115.93 416.31 118.22C416.31 118.89 416.14 119.51 415.86 120.07ZM430.84 120.15C430.56 122.52 428.72 124.37 426.47 124.37C424.03 124.37 422.05 122.21 422.05 119.54C422.05 117.81 422.89 116.31 424.13 115.46C424.89 114.62 425.97 114.09 427.19 114.09C429.48 114.09 431.33 115.94 431.33 118.23C431.33 118.93 431.14 119.58 430.83 120.16L430.84 120.15ZM445.84 119.96C445.64 122.43 443.77 124.37 441.46 124.37C439.02 124.37 437.04 122.21 437.04 119.54C437.04 117.91 437.79 116.47 438.92 115.6C439.68 114.68 440.81 114.09 442.1 114.09C444.39 114.09 446.24 115.94 446.24 118.23C446.24 118.85 446.09 119.44 445.85 119.97L445.84 119.96ZM460.68 120.07C460.43 122.48 458.58 124.36 456.31 124.36C453.87 124.36 451.89 122.2 451.89 119.53C451.89 117.83 452.69 116.35 453.9 115.49C454.66 114.63 455.76 114.08 456.99 114.08C459.28 114.08 461.13 115.93 461.13 118.22C461.13 118.89 460.96 119.51 460.68 120.07ZM460.14 103.25H453.18V107.79C453.18 108.4 452.68 108.9 452.07 108.9H444.48C443.87 108.9 443.37 108.4 443.37 107.79V103.25H377.01C375.91 103.25 375.01 102.35 375.01 101.25C375.01 100.15 375.91 99.2504 377.01 99.2504H443.37V96.6804C443.37 96.0704 443.87 95.5704 444.48 95.5704H452.07C452.68 95.5704 453.18 96.0704 453.18 96.6804V99.2504H460.14C461.24 99.2504 462.14 100.15 462.14 101.25C462.14 102.35 461.24 103.25 460.14 103.25ZM460.14 87.8604H438.2V92.4004C438.2 93.0104 437.7 93.5104 437.09 93.5104H429.5C428.89 93.5104 428.39 93.0104 428.39 92.4004V87.8604H377.02C375.92 87.8604 375.02 86.9604 375.02 85.8604C375.02 84.7604 375.92 83.8604 377.02 83.8604H428.39V81.2904C428.39 80.6804 428.89 80.1804 429.5 80.1804H437.09C437.7 80.1804 438.2 80.6804 438.2 81.2904V83.8604H460.14C461.24 83.8604 462.14 84.7604 462.14 85.8604C462.14 86.9604 461.24 87.8604 460.14 87.8604ZM377.24 69.2704C377.24 67.5404 378.08 66.0404 379.32 65.1904C380.08 64.3504 381.16 63.8204 382.38 63.8204C384.67 63.8204 386.52 65.6704 386.52 67.9604C386.52 68.6604 386.33 69.3104 386.02 69.8904C385.74 72.2604 383.9 74.1104 381.65 74.1104C379.21 74.1104 377.23 71.9504 377.23 69.2804L377.24 69.2704ZM392.22 69.2704C392.22 67.6404 392.97 66.2004 394.1 65.3304C394.86 64.4104 395.99 63.8204 397.28 63.8204C399.57 63.8204 401.42 65.6704 401.42 67.9604C401.42 68.5804 401.27 69.1704 401.03 69.7004C400.83 72.1704 398.96 74.1104 396.65 74.1104C394.21 74.1104 392.23 71.9504 392.23 69.2804L392.22 69.2704ZM407.07 69.2704C407.07 67.5704 407.87 66.0904 409.08 65.2304C409.84 64.3704 410.94 63.8204 412.17 63.8204C414.46 63.8204 416.31 65.6704 416.31 67.9604C416.31 68.6304 416.14 69.2504 415.86 69.8104C415.61 72.2204 413.76 74.1004 411.49 74.1004C409.05 74.1004 407.07 71.9404 407.07 69.2704ZM446.17 21.8404C446.17 21.0104 446.84 20.3404 447.67 20.3404H448.17V19.8404C448.17 19.0104 448.84 18.3404 449.67 18.3404H460.14C460.97 18.3404 461.64 19.0104 461.64 19.8404V30.3104C461.64 31.1404 460.97 31.8104 460.14 31.8104H459.64V32.3104C459.64 33.1404 458.97 33.8104 458.14 33.8104H447.67C446.84 33.8104 446.17 33.1404 446.17 32.3104V21.8404ZM446.17 41.5204C446.17 40.6904 446.84 40.0204 447.67 40.0204H448.17V39.5204C448.17 38.6904 448.84 38.0204 449.67 38.0204H460.14C460.97 38.0204 461.64 38.6904 461.64 39.5204V49.9904C461.64 50.8204 460.97 51.4904 460.14 51.4904H459.64V51.9904C459.64 52.8204 458.97 53.4904 458.14 53.4904H447.67C446.84 53.4904 446.17 52.8204 446.17 51.9904V41.5204ZM446.17 61.2004C446.17 60.3704 446.84 59.7004 447.67 59.7004H448.17V59.2004C448.17 58.3704 448.84 57.7004 449.67 57.7004H460.14C460.97 57.7004 461.64 58.3704 461.64 59.2004V69.6704C461.64 70.5004 460.97 71.1704 460.14 71.1704H459.64V71.6704C459.64 72.5004 458.97 73.1704 458.14 73.1704H447.67C446.84 73.1704 446.17 72.5004 446.17 71.6704V61.2004V61.2004ZM425.57 21.7904C425.57 20.9604 426.24 20.2904 427.07 20.2904H427.57V19.7904C427.57 18.9604 428.24 18.2904 429.07 18.2904H439.54C440.37 18.2904 441.04 18.9604 441.04 19.7904V30.2604C441.04 31.0904 440.37 31.7604 439.54 31.7604H439.04V32.2604C439.04 33.0904 438.37 33.7604 437.54 33.7604H427.07C426.24 33.7604 425.57 33.0904 425.57 32.2604V21.7904ZM425.57 41.4704C425.57 40.6404 426.24 39.9704 427.07 39.9704H427.57V39.4704C427.57 38.6404 428.24 37.9704 429.07 37.9704H439.54C440.37 37.9704 441.04 38.6404 441.04 39.4704V49.9404C441.04 50.7704 440.37 51.4404 439.54 51.4404H439.04V51.9404C439.04 52.7704 438.37 53.4404 437.54 53.4404H427.07C426.24 53.4404 425.57 52.7704 425.57 51.9404V41.4704ZM425.57 61.1504C425.57 60.3204 426.24 59.6504 427.07 59.6504H427.57V59.1504C427.57 58.3204 428.24 57.6504 429.07 57.6504H439.54C440.37 57.6504 441.04 58.3204 441.04 59.1504V69.6204C441.04 70.4504 440.37 71.1204 439.54 71.1204H439.04V71.6204C439.04 72.4504 438.37 73.1204 437.54 73.1204H427.07C426.24 73.1204 425.57 72.4504 425.57 71.6204V61.1504V61.1504ZM379.6 21.4804C383.57 16.3504 389.78 13.0404 396.76 13.0404C408.22 13.0404 417.63 21.9704 418.4 33.2404H418.46V36.2404H418.4C418.36 36.8704 418.29 37.4904 418.19 38.1104C418.04 50.6204 407.93 60.7204 395.48 60.7204C383.03 60.7204 372.76 50.4704 372.76 37.8304C372.76 31.4204 375.38 25.6304 379.6 21.4704V21.4804ZM252.15 31.8804C252.15 22.7804 259.55 15.3804 268.65 15.3804H348.38C357.48 15.3804 364.88 22.7804 364.88 31.8804V110.02C364.88 119.12 357.48 126.52 348.38 126.52H268.65C259.55 126.52 252.15 119.12 252.15 110.02V31.8704V31.8804ZM241.68 90.4804V98.0704C241.68 98.6804 241.18 99.1804 240.57 99.1804H238.03V120.83C238.03 121.93 237.13 122.83 236.03 122.83C234.93 122.83 234.03 121.93 234.03 120.83V99.1804H229.46C228.85 99.1804 228.35 98.6804 228.35 98.0704V90.4804C228.35 89.8704 228.85 89.3704 229.46 89.3704H234.03V81.3604C234.03 80.2604 234.93 79.3604 236.03 79.3604C237.13 79.3604 238.03 80.2604 238.03 81.3604V89.3704H240.57C241.18 89.3704 241.68 89.8704 241.68 90.4804V90.4804ZM226.64 35.5804C228.94 34.6304 231.58 34.6504 233.9 35.7304L236.06 32.9504C236.74 32.0804 237.99 31.9204 238.87 32.5904C239.74 33.2704 239.9 34.5204 239.23 35.4004L237.07 38.1804C239.34 40.9304 239.77 44.8004 238.15 47.9904C238.15 48.0104 238.15 48.0204 238.15 48.0404C236.89 53.5604 231.59 56.9604 226.31 55.6404C221.03 54.3204 217.78 48.7804 219.04 43.2604C219.96 39.2404 223.03 36.3504 226.66 35.5804H226.64ZM198.72 27.8604C199.69 23.6304 203.02 20.6604 206.9 20.0804C207.19 19.9804 207.48 19.9004 207.79 19.8304V16.3104C207.79 15.2104 208.69 14.3104 209.79 14.3104C210.89 14.3104 211.79 15.2104 211.79 16.3104V19.8304C215.81 20.7404 218.81 24.3304 218.81 28.6204C218.81 30.1104 218.44 31.5204 217.8 32.7604C216.49 38.2004 211.23 41.5504 206 40.2404C200.72 38.9204 197.47 33.3804 198.73 27.8604H198.72ZM198.72 58.2404C199.75 53.7404 203.46 50.6504 207.65 50.3704C209 50.0404 210.44 50.0104 211.89 50.3504C216.07 51.3504 218.85 55.1004 218.81 59.2204L222.23 60.0404C223.3 60.3004 223.97 61.3804 223.71 62.4504C223.61 62.8904 223.36 63.2504 223.04 63.5204C223.09 63.7904 223.09 64.0804 223.02 64.3604C222.8 65.2804 221.98 65.9004 221.08 65.9004C220.93 65.9004 220.77 65.8804 220.61 65.8504L217.15 65.0204C215.21 69.3304 210.59 71.7804 205.98 70.6204C200.7 69.3004 197.45 63.7604 198.71 58.2404H198.72ZM197.16 85.7704C197.16 85.1604 197.66 84.6604 198.27 84.6604H202.84V81.3604C202.84 80.2604 203.74 79.3604 204.84 79.3604C205.94 79.3604 206.84 80.2604 206.84 81.3604V84.6604H209.38C209.99 84.6604 210.49 85.1604 210.49 85.7704V93.3604C210.49 93.9704 209.99 94.4704 209.38 94.4704H206.84V120.83C206.84 121.93 205.94 122.83 204.84 122.83C203.74 122.83 202.84 121.93 202.84 120.83V94.4704H198.27C197.66 94.4704 197.16 93.9704 197.16 93.3604V85.7704ZM189.47 111.12V121.59C189.47 122.42 188.8 123.09 187.97 123.09H187.47V123.59C187.47 124.42 186.8 125.09 185.97 125.09H175.5C174.67 125.09 174 124.42 174 123.59V113.12C174 112.29 174.67 111.62 175.5 111.62H176V111.12C176 110.29 176.67 109.62 177.5 109.62H187.97C188.8 109.62 189.47 110.29 189.47 111.12ZM157.35 20.3804C157.35 18.7204 158.69 17.3804 160.35 17.3804H186.01C187.67 17.3804 189.01 18.7204 189.01 20.3804V95.2704C189.01 96.9304 187.67 98.2704 186.01 98.2704H160.35C158.69 98.2704 157.35 96.9304 157.35 95.2704V20.3704V20.3804ZM154.47 113.06C154.47 112.23 155.14 111.56 155.97 111.56H156.47V111.06C156.47 110.23 157.14 109.56 157.97 109.56H168.44C169.27 109.56 169.94 110.23 169.94 111.06V121.53C169.94 122.36 169.27 123.03 168.44 123.03H167.94V123.53C167.94 124.36 167.27 125.03 166.44 125.03H155.97C155.14 125.03 154.47 124.36 154.47 123.53V113.06Z" fill="#C0DBFF"/>
    <path d="M175.99 121.58V111.61H175.49C174.66 111.61 173.99 112.28 173.99 113.11V123.58C173.99 124.41 174.66 125.08 175.49 125.08H185.96C186.79 125.08 187.46 124.41 187.46 123.58V123.08H177.49C176.66 123.08 175.99 122.41 175.99 121.58Z" fill="#77A4F2"/>
    <path d="M155.97 125.02H166.44C167.27 125.02 167.94 124.35 167.94 123.52V123.02H157.97C157.14 123.02 156.47 122.35 156.47 121.52V111.55H155.97C155.14 111.55 154.47 112.22 154.47 113.05V123.52C154.47 124.35 155.14 125.02 155.97 125.02Z" fill="#77A4F2"/>
    <path d="M447.67 33.8098H458.14C458.97 33.8098 459.64 33.1398 459.64 32.3098V31.8098H449.67C448.84 31.8098 448.17 31.1398 448.17 30.3098V20.3398H447.67C446.84 20.3398 446.17 21.0098 446.17 21.8398V32.3098C446.17 33.1398 446.84 33.8098 447.67 33.8098Z" fill="#77A4F2"/>
    <path d="M427.06 33.76H437.53C438.36 33.76 439.03 33.09 439.03 32.26V31.76H429.06C428.23 31.76 427.56 31.09 427.56 30.26V20.29H427.06C426.23 20.29 425.56 20.96 425.56 21.79V32.26C425.56 33.09 426.23 33.76 427.06 33.76Z" fill="#77A4F2"/>
    <path d="M447.67 53.4895H458.14C458.97 53.4895 459.64 52.8195 459.64 51.9895V51.4895H449.67C448.84 51.4895 448.17 50.8195 448.17 49.9895V40.0195H447.67C446.84 40.0195 446.17 40.6895 446.17 41.5195V51.9895C446.17 52.8195 446.84 53.4895 447.67 53.4895Z" fill="#77A4F2"/>
    <path d="M427.06 53.43H437.53C438.36 53.43 439.03 52.76 439.03 51.93V51.43H429.06C428.23 51.43 427.56 50.76 427.56 49.93V39.96H427.06C426.23 39.96 425.56 40.63 425.56 41.46V51.93C425.56 52.76 426.23 53.43 427.06 53.43Z" fill="#77A4F2"/>
    <path d="M447.67 73.1702H458.14C458.97 73.1702 459.64 72.5002 459.64 71.6702V71.1702H449.67C448.84 71.1702 448.17 70.5002 448.17 69.6702V59.7002H447.67C446.84 59.7002 446.17 60.3702 446.17 61.2002V71.6702C446.17 72.5002 446.84 73.1702 447.67 73.1702Z" fill="#77A4F2"/>
    <path d="M427.06 73.1096H437.53C438.36 73.1096 439.03 72.4396 439.03 71.6096V71.1096H429.06C428.23 71.1096 427.56 70.4396 427.56 69.6096V59.6396H427.06C426.23 59.6396 425.56 60.3096 425.56 61.1396V71.6096C425.56 72.4396 426.23 73.1096 427.06 73.1096Z" fill="#77A4F2"/>
    <path d="M437.09 91.5104H431.5C430.89 91.5104 430.39 91.0104 430.39 90.4004V87.8604H428.39V92.4004C428.39 93.0104 428.89 93.5104 429.5 93.5104H437.09C437.7 93.5104 438.2 93.0104 438.2 92.4004V90.4004C438.2 91.0104 437.7 91.5104 437.09 91.5104Z" fill="#77A4F2"/>
    <path d="M430.39 81.3004C430.39 80.6904 430.89 80.1904 431.5 80.1904H429.5C428.89 80.1904 428.39 80.6904 428.39 81.3004V83.8704H430.39V81.3004Z" fill="#77A4F2"/>
    <path d="M445.37 96.6901C445.37 96.0801 445.87 95.5801 446.48 95.5801H444.48C443.87 95.5801 443.37 96.0801 443.37 96.6901V99.2601H445.37V96.6901Z" fill="#77A4F2"/>
    <path d="M452.07 106.9H446.48C445.87 106.9 445.37 106.4 445.37 105.79V103.25H443.37V107.79C443.37 108.4 443.87 108.9 444.48 108.9H452.07C452.68 108.9 453.18 108.4 453.18 107.79V105.79C453.18 106.4 452.68 106.9 452.07 106.9Z" fill="#77A4F2"/>
    <path d="M386.03 69.8902C385.33 71.2002 383.97 72.1102 382.38 72.1102C380.09 72.1102 378.24 70.2602 378.24 67.9702C378.24 66.9002 378.66 65.9302 379.32 65.2002C378.07 66.0502 377.24 67.5602 377.24 69.2802C377.24 71.9502 379.22 74.1102 381.66 74.1102C383.91 74.1102 385.75 72.2702 386.03 69.8902Z" fill="#77A4F2"/>
    <path d="M382.38 72.0996C383.97 72.0996 385.33 71.1996 386.03 69.8796C386.34 69.2996 386.53 68.6496 386.53 67.9496C386.53 65.6596 384.68 63.8096 382.39 63.8096C381.17 63.8096 380.09 64.3496 379.33 65.1796C378.66 65.9096 378.25 66.8796 378.25 67.9496C378.25 70.2396 380.1 72.0896 382.39 72.0896L382.38 72.0996Z" fill="#38237C"/>
    <path d="M401.03 69.6998C400.37 71.1198 398.95 72.1098 397.28 72.1098C394.99 72.1098 393.14 70.2598 393.14 67.9698C393.14 66.9698 393.51 66.0598 394.11 65.3398C392.98 66.2098 392.23 67.6498 392.23 69.2798C392.23 71.9498 394.21 74.1098 396.65 74.1098C398.96 74.1098 400.83 72.1698 401.03 69.6998Z" fill="#77A4F2"/>
    <path d="M397.28 72.0996C398.95 72.0996 400.37 71.1096 401.03 69.6896C401.28 69.1596 401.42 68.5796 401.42 67.9496C401.42 65.6596 399.57 63.8096 397.28 63.8096C396 63.8096 394.86 64.4096 394.1 65.3196C393.51 66.0396 393.13 66.9396 393.13 67.9496C393.13 70.2396 394.98 72.0896 397.27 72.0896L397.28 72.0996Z" fill="#38237C"/>
    <path d="M415.87 69.8105C415.19 71.1605 413.8 72.1005 412.18 72.1005C409.89 72.1005 408.04 70.2505 408.04 67.9605C408.04 66.9105 408.44 65.9605 409.09 65.2305C407.88 66.0905 407.08 67.5805 407.08 69.2705C407.08 71.9405 409.06 74.1005 411.5 74.1005C413.77 74.1005 415.63 72.2205 415.87 69.8105V69.8105Z" fill="#77A4F2"/>
    <path d="M412.18 72.1003C413.8 72.1003 415.19 71.1603 415.87 69.8103C416.15 69.2503 416.32 68.6303 416.32 67.9603C416.32 65.6703 414.47 63.8203 412.18 63.8203C410.94 63.8203 409.85 64.3703 409.09 65.2303C408.45 65.9603 408.04 66.9103 408.04 67.9603C408.04 70.2503 409.89 72.1003 412.18 72.1003V72.1003Z" fill="#38237C"/>
    <path d="M460.14 83.8701H438.2V87.8701H460.14C461.24 87.8701 462.14 86.9701 462.14 85.8701C462.14 84.7701 461.24 83.8701 460.14 83.8701Z" fill="#38237C"/>
    <path d="M430.39 83.8701H377.02C375.92 83.8701 375.02 84.7701 375.02 85.8701C375.02 86.9701 375.92 87.8701 377.02 87.8701H430.39V83.8701Z" fill="#38237C"/>
    <path d="M438.2 81.3004C438.2 80.6904 437.7 80.1904 437.09 80.1904H431.5C430.89 80.1904 430.39 80.6904 430.39 81.3004V90.4004C430.39 91.0104 430.89 91.5104 431.5 91.5104H437.09C437.7 91.5104 438.2 91.0104 438.2 90.4004V81.3004Z" fill="#86D4C9"/>
    <path d="M460.14 99.2598H453.18V103.26H460.14C461.24 103.26 462.14 102.36 462.14 101.26C462.14 100.16 461.24 99.2598 460.14 99.2598Z" fill="#38237C"/>
    <path d="M445.37 99.2598H377.01C375.91 99.2598 375.01 100.16 375.01 101.26C375.01 102.36 375.91 103.26 377.01 103.26H445.37V99.2598Z" fill="#38237C"/>
    <path d="M453.18 96.6901C453.18 96.0801 452.68 95.5801 452.07 95.5801H446.48C445.87 95.5801 445.37 96.0801 445.37 96.6901V105.79C445.37 106.4 445.87 106.9 446.48 106.9H452.07C452.68 106.9 453.18 106.4 453.18 105.79V96.6901Z" fill="#86D4C9"/>
    <path d="M382.38 122.37C380.09 122.37 378.24 120.52 378.24 118.23C378.24 117.16 378.66 116.19 379.32 115.46C378.07 116.31 377.24 117.82 377.24 119.54C377.24 122.21 379.22 124.37 381.66 124.37C383.91 124.37 385.75 122.53 386.03 120.15C385.33 121.46 383.97 122.37 382.38 122.37Z" fill="#77A4F2"/>
    <path d="M382.38 114.08C381.16 114.08 380.08 114.62 379.32 115.45C378.65 116.19 378.24 117.15 378.24 118.22C378.24 120.51 380.09 122.36 382.38 122.36C383.97 122.36 385.33 121.46 386.03 120.14C386.34 119.56 386.53 118.91 386.53 118.21C386.53 115.92 384.68 114.07 382.39 114.07L382.38 114.08Z" fill="#38237C"/>
    <path d="M397.28 122.37C394.99 122.37 393.14 120.52 393.14 118.23C393.14 117.23 393.51 116.32 394.11 115.6C392.98 116.47 392.23 117.91 392.23 119.54C392.23 122.21 394.21 124.37 396.65 124.37C398.96 124.37 400.83 122.43 401.03 119.96C400.37 121.38 398.95 122.37 397.28 122.37Z" fill="#77A4F2"/>
    <path d="M397.28 114.08C396 114.08 394.86 114.68 394.1 115.59C393.51 116.31 393.13 117.21 393.13 118.22C393.13 120.51 394.98 122.36 397.27 122.36C398.94 122.36 400.36 121.37 401.02 119.95C401.27 119.42 401.41 118.84 401.41 118.21C401.41 115.92 399.56 114.07 397.27 114.07L397.28 114.08Z" fill="#38237C"/>
    <path d="M412.18 122.37C409.89 122.37 408.04 120.52 408.04 118.23C408.04 117.18 408.44 116.23 409.09 115.5C407.88 116.36 407.08 117.85 407.08 119.54C407.08 122.21 409.06 124.37 411.5 124.37C413.77 124.37 415.63 122.49 415.87 120.08C415.19 121.43 413.8 122.37 412.18 122.37V122.37Z" fill="#77A4F2"/>
    <path d="M412.18 114.08C410.94 114.08 409.85 114.63 409.09 115.49C408.45 116.22 408.04 117.17 408.04 118.22C408.04 120.51 409.89 122.36 412.18 122.36C413.8 122.36 415.19 121.42 415.87 120.07C416.15 119.51 416.32 118.89 416.32 118.22C416.32 115.93 414.47 114.08 412.18 114.08V114.08Z" fill="#38237C"/>
    <path d="M427.2 122.37C424.91 122.37 423.06 120.52 423.06 118.23C423.06 117.16 423.48 116.19 424.14 115.46C422.89 116.31 422.06 117.82 422.06 119.54C422.06 122.21 424.04 124.37 426.48 124.37C428.73 124.37 430.57 122.53 430.85 120.15C430.15 121.46 428.79 122.37 427.2 122.37Z" fill="#77A4F2"/>
    <path d="M427.2 114.08C425.98 114.08 424.9 114.62 424.14 115.45C423.47 116.19 423.06 117.15 423.06 118.22C423.06 120.51 424.91 122.36 427.2 122.36C428.79 122.36 430.15 121.46 430.85 120.14C431.16 119.56 431.35 118.91 431.35 118.21C431.35 115.92 429.5 114.07 427.21 114.07L427.2 114.08Z" fill="#38237C"/>
    <path d="M442.1 122.37C439.81 122.37 437.96 120.52 437.96 118.23C437.96 117.23 438.33 116.32 438.93 115.6C437.8 116.47 437.05 117.91 437.05 119.54C437.05 122.21 439.03 124.37 441.47 124.37C443.78 124.37 445.65 122.43 445.85 119.96C445.19 121.38 443.77 122.37 442.1 122.37Z" fill="#77A4F2"/>
    <path d="M442.1 114.08C440.82 114.08 439.68 114.68 438.92 115.59C438.33 116.31 437.95 117.21 437.95 118.22C437.95 120.51 439.8 122.36 442.09 122.36C443.76 122.36 445.18 121.37 445.84 119.95C446.09 119.42 446.23 118.84 446.23 118.21C446.23 115.92 444.38 114.07 442.09 114.07L442.1 114.08Z" fill="#38237C"/>
    <path d="M457 122.37C454.71 122.37 452.86 120.52 452.86 118.23C452.86 117.18 453.26 116.23 453.91 115.5C452.7 116.36 451.9 117.85 451.9 119.54C451.9 122.21 453.88 124.37 456.32 124.37C458.59 124.37 460.45 122.49 460.69 120.08C460.01 121.43 458.62 122.37 457 122.37V122.37Z" fill="#77A4F2"/>
    <path d="M457 114.08C455.76 114.08 454.67 114.63 453.91 115.49C453.26 116.22 452.86 117.17 452.86 118.22C452.86 120.51 454.71 122.36 457 122.36C458.62 122.36 460.01 121.42 460.69 120.07C460.97 119.51 461.14 118.89 461.14 118.22C461.14 115.93 459.29 114.08 457 114.08V114.08Z" fill="#38237C"/>
    <path d="M395.48 60.7097C407.94 60.7097 418.04 50.6097 418.19 38.0997C416.57 48.4697 407.57 56.4297 396.75 56.4297C385.29 56.4297 375.88 47.4997 375.11 36.2297H375.05V33.2297H375.11C375.41 28.8197 377.04 24.7697 379.6 21.4697C375.38 25.6197 372.76 31.4197 372.76 37.8297C372.76 50.4697 382.93 60.7197 395.48 60.7197V60.7097Z" fill="#77A4F2"/>
    <path d="M392.18 31.9C392.39 31.6 392.83 30.99 400.77 23.74C401.34 23.22 402.06 22.96 402.79 22.96C403.39 22.96 404 23.14 404.52 23.51C404.79 23.7 405.01 23.93 405.2 24.18L405.75 23.63C406.34 23.04 407.29 23.04 407.87 23.63C408.45 24.22 408.46 25.17 407.87 25.75L405.62 28C405.45 28.17 405.25 28.28 405.03 28.35C404.17 30.39 403.48 31.99 402.94 33.24H415.38C414.61 23.63 406.55 16.04 396.74 16.04C386.93 16.04 378.87 23.63 378.1 33.24H391.52C391.68 32.78 391.88 32.32 392.18 31.91V31.9ZM395.25 20.52C395.25 19.69 395.92 19.02 396.75 19.02C397.58 19.02 398.25 19.69 398.25 20.52V23.7C398.25 24.53 397.58 25.2 396.75 25.2C395.92 25.2 395.25 24.53 395.25 23.7V20.52ZM390 28C389.71 28.29 389.32 28.44 388.94 28.44C388.56 28.44 388.17 28.29 387.88 28L385.63 25.75C385.04 25.16 385.04 24.21 385.63 23.63C386.22 23.05 387.17 23.04 387.75 23.63L390 25.88C390.59 26.47 390.59 27.42 390 28V28Z" fill="#86D4C9"/>
    <path d="M396.75 53.4305C406.56 53.4305 414.62 45.8405 415.39 36.2305H401.6C400.99 37.5405 400.81 37.8005 400.71 37.9305C399.73 39.3105 398.14 40.1405 396.44 40.1405C395.35 40.1405 394.31 39.8105 393.42 39.1805C392.38 38.4405 391.71 37.3805 391.41 36.2305H378.1C378.87 45.8405 386.93 53.4305 396.74 53.4305H396.75Z" fill="#8D86EB"/>
    <path d="M375.05 33.2303V36.2303H375.11C375.88 47.5003 385.29 56.4303 396.75 56.4303C407.57 56.4303 416.56 48.4703 418.19 38.1003C418.29 37.4803 418.35 36.8603 418.4 36.2303H418.46V33.2303H418.4C417.63 21.9603 408.22 13.0303 396.76 13.0303C389.79 13.0303 383.58 16.3403 379.6 21.4703C377.04 24.7703 375.42 28.8203 375.11 33.2303H375.05V33.2303ZM396.75 16.0303C406.56 16.0303 414.62 23.6203 415.39 33.2303H402.95C403.5 31.9803 404.18 30.3803 405.04 28.3403C405.25 28.2703 405.46 28.1603 405.63 27.9903L407.88 25.7403C408.47 25.1503 408.47 24.2003 407.88 23.6203C407.29 23.0403 406.34 23.0303 405.76 23.6203L405.21 24.1703C405.02 23.9203 404.8 23.6903 404.53 23.5003C404.01 23.1303 403.4 22.9503 402.8 22.9503C402.07 22.9503 401.35 23.2103 400.78 23.7303C392.84 30.9703 392.4 31.5903 392.19 31.8903C391.89 32.3103 391.69 32.7603 391.53 33.2203H378.11C378.88 23.6103 386.94 16.0203 396.75 16.0203V16.0303ZM402.79 25.9603C402.79 25.9603 398.81 35.4403 398.27 36.2103C397.84 36.8203 397.15 37.1503 396.45 37.1503C396.01 37.1503 395.56 37.0203 395.17 36.7403C394.17 36.0303 393.93 34.6403 394.64 33.6403C395.1 32.9903 402.8 25.9703 402.8 25.9703L402.79 25.9603ZM391.42 36.2303C391.72 37.3803 392.39 38.4403 393.43 39.1803C394.32 39.8103 395.36 40.1403 396.45 40.1403C398.14 40.1403 399.74 39.3103 400.72 37.9303C400.82 37.7903 401 37.5403 401.61 36.2303H415.4C414.63 45.8403 406.57 53.4303 396.76 53.4303C386.95 53.4303 378.89 45.8403 378.12 36.2303H391.43H391.42Z" fill="#38237C"/>
    <path d="M396.75 25.1995C397.58 25.1995 398.25 24.5295 398.25 23.6995V20.5195C398.25 19.6895 397.58 19.0195 396.75 19.0195C395.92 19.0195 395.25 19.6895 395.25 20.5195V23.6995C395.25 24.5295 395.92 25.1995 396.75 25.1995Z" fill="#38237C"/>
    <path d="M394.63 33.6302C393.92 34.6302 394.16 36.0202 395.16 36.7302C395.55 37.0102 396 37.1402 396.44 37.1402C397.14 37.1402 397.83 36.8102 398.26 36.2002C398.8 35.4302 402.78 25.9502 402.78 25.9502C402.78 25.9502 395.08 32.9702 394.62 33.6202L394.63 33.6302Z" fill="white"/>
    <path d="M387.75 23.63C387.16 23.04 386.21 23.04 385.63 23.63C385.05 24.22 385.04 25.17 385.63 25.75L387.88 28C388.17 28.29 388.56 28.44 388.94 28.44C389.32 28.44 389.71 28.29 390 28C390.59 27.41 390.59 26.46 390 25.88L387.75 23.63V23.63Z" fill="#38237C"/>
    <path d="M198.26 94.4604H202.83V92.4604H200.26C199.65 92.4604 199.15 91.9604 199.15 91.3504V85.7604C199.15 85.1504 199.65 84.6504 200.26 84.6504H198.26C197.65 84.6504 197.15 85.1504 197.15 85.7604V93.3504C197.15 93.9604 197.65 94.4604 198.26 94.4604Z" fill="#77A4F2"/>
    <path d="M209.37 92.4596H206.83V94.4596H209.37C209.98 94.4596 210.48 93.9596 210.48 93.3496V91.3496C210.48 91.9596 209.98 92.4596 209.37 92.4596Z" fill="#77A4F2"/>
    <path d="M224.97 104.24H222.43V106.24H224.97C225.58 106.24 226.08 105.74 226.08 105.13V103.13C226.08 103.74 225.58 104.24 224.97 104.24Z" fill="#77A4F2"/>
    <path d="M215.86 104.24C215.25 104.24 214.75 103.74 214.75 103.13V97.5397C214.75 96.9297 215.25 96.4297 215.86 96.4297H213.86C213.25 96.4297 212.75 96.9297 212.75 97.5397V105.13C212.75 105.74 213.25 106.24 213.86 106.24H218.43V104.24H215.86Z" fill="#77A4F2"/>
    <path d="M231.46 97.1703C230.85 97.1703 230.35 96.6703 230.35 96.0603V90.4704C230.35 89.8604 230.85 89.3604 231.46 89.3604H229.46C228.85 89.3604 228.35 89.8604 228.35 90.4704V98.0603C228.35 98.6703 228.85 99.1703 229.46 99.1703H234.03V97.1703H231.46Z" fill="#77A4F2"/>
    <path d="M240.56 97.1696H238.02V99.1696H240.56C241.17 99.1696 241.67 98.6696 241.67 98.0596V96.0596C241.67 96.6696 241.17 97.1696 240.56 97.1696Z" fill="#77A4F2"/>
    <path d="M206.83 81.3496C206.83 80.2496 205.93 79.3496 204.83 79.3496C203.73 79.3496 202.83 80.2496 202.83 81.3496V84.6496H206.83V81.3496Z" fill="#38237C"/>
    <path d="M202.83 92.46V120.82C202.83 121.92 203.73 122.82 204.83 122.82C205.93 122.82 206.83 121.92 206.83 120.82V92.46H202.83Z" fill="#38237C"/>
    <path d="M199.15 85.7604V91.3504C199.15 91.9604 199.65 92.4604 200.26 92.4604H209.37C209.98 92.4604 210.48 91.9604 210.48 91.3504V85.7604C210.48 85.1504 209.98 84.6504 209.37 84.6504H200.26C199.65 84.6504 199.15 85.1504 199.15 85.7604Z" fill="#503EAA"/>
    <path d="M222.43 81.3496C222.43 80.2496 221.53 79.3496 220.43 79.3496C219.33 79.3496 218.43 80.2496 218.43 81.3496V96.4296H222.43V81.3496Z" fill="#38237C"/>
    <path d="M218.43 104.24V120.82C218.43 121.92 219.33 122.82 220.43 122.82C221.53 122.82 222.43 121.92 222.43 120.82V104.24H218.43Z" fill="#38237C"/>
    <path d="M224.97 96.4297H215.86C215.25 96.4297 214.75 96.9297 214.75 97.5397V103.13C214.75 103.74 215.25 104.24 215.86 104.24H224.97C225.58 104.24 226.08 103.74 226.08 103.13V97.5397C226.08 96.9297 225.58 96.4297 224.97 96.4297Z" fill="#503EAA"/>
    <path d="M238.03 81.3496C238.03 80.2496 237.13 79.3496 236.03 79.3496C234.93 79.3496 234.03 80.2496 234.03 81.3496V89.3596H238.03V81.3496Z" fill="#38237C"/>
    <path d="M234.03 97.1699V120.82C234.03 121.92 234.93 122.82 236.03 122.82C237.13 122.82 238.03 121.92 238.03 120.82V97.1699H234.03V97.1699Z" fill="#38237C"/>
    <path d="M234.03 89.3604H231.46C230.85 89.3604 230.35 89.8604 230.35 90.4704V96.0603C230.35 96.6703 230.85 97.1703 231.46 97.1703H240.56C241.17 97.1703 241.67 96.6703 241.67 96.0603V90.4704C241.67 89.8604 241.17 89.3604 240.56 89.3604H234.02H234.03Z" fill="#503EAA"/>
    <path d="M205.99 70.6104C210.59 71.7604 215.22 69.3104 217.16 65.0104L220.62 65.8403C220.78 65.8803 220.93 65.8904 221.09 65.8904C221.99 65.8904 222.81 65.2703 223.03 64.3503C223.1 64.0603 223.1 63.7803 223.05 63.5103C222.7 63.8003 222.25 63.9804 221.77 63.9804C221.62 63.9804 221.46 63.9604 221.3 63.9304L217.88 63.1104C216.06 66.8104 211.87 68.8904 207.7 67.8904C202.85 66.7304 199.87 61.8604 201.02 57.0204C201.83 53.6204 204.48 51.1404 207.65 50.3604C203.46 50.6404 199.75 53.7304 198.72 58.2304C197.46 63.7504 200.71 69.2904 205.99 70.6104V70.6104Z" fill="#77A4F2"/>
    <path d="M205.99 40.2401C211.23 41.5501 216.48 38.2001 217.79 32.7601C216.29 35.6601 213.27 37.6401 209.78 37.6401C204.8 37.6401 200.76 33.6001 200.76 28.6201C200.76 24.6501 203.33 21.2901 206.89 20.0801C203.01 20.6501 199.68 23.6301 198.71 27.8601C197.45 33.3801 200.7 38.9201 205.98 40.2401H205.99Z" fill="#77A4F2"/>
    <path d="M226.28 55.6301C231.56 56.9501 236.86 53.5501 238.12 48.0301C238.12 48.0101 238.12 48.0001 238.12 47.9801C237.87 48.4801 237.57 48.9601 237.21 49.4201C234.16 53.3601 228.49 54.0801 224.56 51.0301C220.62 47.9801 219.9 42.3201 222.95 38.3801C223.95 37.0901 225.22 36.1601 226.63 35.5801C222.99 36.3501 219.93 39.2301 219.01 43.2601C217.75 48.7801 221 54.3201 226.28 55.6401V55.6301Z" fill="#77A4F2"/>
    <path d="M200.76 28.6098C200.76 33.5898 204.8 37.6298 209.78 37.6298C213.27 37.6298 216.29 35.6498 217.79 32.7498C218.43 31.5098 218.8 30.0998 218.8 28.6098C218.8 24.3198 215.8 20.7298 211.78 19.8198V16.2998C211.78 15.1998 210.88 14.2998 209.78 14.2998C208.68 14.2998 207.78 15.1998 207.78 16.2998V19.8198C207.48 19.8898 207.18 19.9698 206.89 20.0698C203.33 21.2698 200.76 24.6398 200.76 28.6098V28.6098ZM209.78 24.4698C212.07 24.4698 213.92 26.3198 213.92 28.6098C213.92 30.8998 212.07 32.7498 209.78 32.7498C207.49 32.7498 205.64 30.8998 205.64 28.6098C205.64 26.3198 207.49 24.4698 209.78 24.4698Z" fill="#38237C"/>
    <path d="M222.96 38.3696C219.91 42.3096 220.63 47.9696 224.57 51.0196C228.51 54.0696 234.17 53.3496 237.22 49.4096C237.57 48.9496 237.87 48.4696 238.13 47.9696C239.76 44.7796 239.32 40.9096 237.05 38.1596L239.21 35.3796C239.89 34.5096 239.73 33.2496 238.85 32.5696C237.98 31.8896 236.72 32.0496 236.04 32.9296L233.88 35.7096C231.56 34.6296 228.92 34.6096 226.62 35.5596C225.22 36.1396 223.94 37.0796 222.94 38.3596L222.96 38.3696ZM230.11 39.7196C232.4 39.7196 234.25 41.5696 234.25 43.8596C234.25 46.1496 232.4 47.9996 230.11 47.9996C227.82 47.9996 225.97 46.1496 225.97 43.8596C225.97 41.5696 227.82 39.7196 230.11 39.7196Z" fill="#38237C"/>
    <path d="M201.01 57.0202C199.85 61.8702 202.84 66.7302 207.69 67.8902C211.87 68.8902 216.05 66.8002 217.87 63.1102L221.29 63.9302C221.45 63.9702 221.6 63.9802 221.76 63.9802C222.24 63.9802 222.68 63.8102 223.04 63.5102C223.36 63.2402 223.6 62.8802 223.71 62.4402C223.97 61.3702 223.3 60.2902 222.23 60.0302L218.81 59.2102C218.86 55.0902 216.07 51.3402 211.89 50.3402C210.45 49.9902 209 50.0302 207.65 50.3602C204.47 51.1402 201.83 53.6202 201.02 57.0202H201.01ZM209.78 54.9702C212.07 54.9702 213.92 56.8202 213.92 59.1102C213.92 61.4002 212.07 63.2502 209.78 63.2502C207.49 63.2502 205.64 61.4002 205.64 59.1102C205.64 56.8202 207.49 54.9702 209.78 54.9702Z" fill="#38237C"/>
    <path d="M209.78 32.7497C212.066 32.7497 213.92 30.8962 213.92 28.6097C213.92 26.3233 212.066 24.4697 209.78 24.4697C207.494 24.4697 205.64 26.3233 205.64 28.6097C205.64 30.8962 207.494 32.7497 209.78 32.7497Z" fill="#77A4F2"/>
    <path d="M230.11 48.0105C232.396 48.0105 234.25 46.1569 234.25 43.8705C234.25 41.584 232.396 39.7305 230.11 39.7305C227.824 39.7305 225.97 41.584 225.97 43.8705C225.97 46.1569 227.824 48.0105 230.11 48.0105Z" fill="#FF8486"/>
    <path d="M209.78 63.2605C212.066 63.2605 213.92 61.4069 213.92 59.1205C213.92 56.834 212.066 54.9805 209.78 54.9805C207.494 54.9805 205.64 56.834 205.64 59.1205C205.64 61.4069 207.494 63.2605 209.78 63.2605Z" fill="#86D4C9"/>
    <path d="M268.65 123.52H348.38C355.84 123.52 361.88 117.48 361.88 110.02V31.8701C361.88 24.4101 355.84 18.3701 348.38 18.3701H268.65C261.19 18.3701 255.15 24.4101 255.15 31.8701V110.02C255.15 117.48 261.19 123.52 268.65 123.52ZM320.59 108.71C309.58 108.71 300.65 106.33 300.65 103.39C300.65 100.45 309.58 98.0701 320.59 98.0701C331.6 98.0701 340.53 100.45 340.53 103.39C340.53 106.33 331.6 108.71 320.59 108.71V108.71ZM273.62 60.4801C279.02 56.1801 288.05 51.0501 296.1 50.3701C297.56 48.3001 299.47 46.4901 301.8 45.1401C306.34 42.5201 311.54 42.1101 316.19 43.5401C326.58 40.5401 334.93 41.9301 338.05 47.2301L339.73 50.1401L344.2 47.5501C343.9 45.8601 344.64 44.1001 346.21 43.2001C348.2 42.0501 350.76 42.7301 351.91 44.7301C353.07 46.7301 352.38 49.2901 350.39 50.4401C348.83 51.3501 346.93 51.1101 345.62 50.0101L341.15 52.6001L342.6 55.1201C347.02 62.7701 338.93 75.4501 324.19 83.9801C319.47 86.7001 314.48 88.7301 309.74 89.8501V89.8201C300.98 96.4301 290.49 99.8101 285.52 100.75C285.39 100.78 285.25 100.79 285.12 100.79C284.53 100.79 283.97 100.55 283.57 100.1C283.08 99.5601 282.91 98.8101 283.11 98.1001L285.41 90.5101C283.61 89.5201 281.7 87.4301 280.02 84.5201C277.8 80.6701 275.97 74.4801 278.87 72.8101C280.53 71.8501 282.03 71.0901 283.39 70.4901L273.71 63.6001C273.21 63.2501 272.9 62.6701 272.88 62.0501C272.87 61.4401 273.13 60.8701 273.61 60.4901L273.62 60.4801ZM271.1 82.5101C273.83 80.9401 277.31 81.8701 278.88 84.6001C280.45 87.3301 279.52 90.8201 276.79 92.3901C273.46 94.3101 266.98 94.6901 263.27 93.6101C264.19 89.8601 267.76 84.4301 271.09 82.5001L271.1 82.5101Z" fill="#77A4F2"/>
    <path d="M268.65 126.52H348.38C357.48 126.52 364.88 119.12 364.88 110.02V31.8701C364.88 22.7701 357.48 15.3701 348.38 15.3701H268.65C259.55 15.3701 252.15 22.7701 252.15 31.8701V110.02C252.15 119.12 259.55 126.52 268.65 126.52ZM255.15 31.8701C255.15 24.4101 261.19 18.3701 268.65 18.3701H348.38C355.84 18.3701 361.88 24.4101 361.88 31.8701V110.02C361.88 117.48 355.84 123.52 348.38 123.52H268.65C261.19 123.52 255.15 117.48 255.15 110.02V31.8701V31.8701Z" fill="#38237C"/>
    <path d="M458.64 21.3398H451.17V28.8098H458.64V21.3398Z" fill="#FF8486"/>
    <path d="M449.67 31.8098H460.14C460.97 31.8098 461.64 31.1398 461.64 30.3098V19.8398C461.64 19.0098 460.97 18.3398 460.14 18.3398H449.67C448.84 18.3398 448.17 19.0098 448.17 19.8398V30.3098C448.17 31.1398 448.84 31.8098 449.67 31.8098V31.8098ZM451.17 21.3398H458.64V28.8098H451.17V21.3398Z" fill="#38237C"/>
    <path d="M438.03 21.2803H430.56V28.7503H438.03V21.2803Z" fill="#FF8486"/>
    <path d="M429.06 31.76H439.53C440.36 31.76 441.03 31.09 441.03 30.26V19.79C441.03 18.96 440.36 18.29 439.53 18.29H429.06C428.23 18.29 427.56 18.96 427.56 19.79V30.26C427.56 31.09 428.23 31.76 429.06 31.76V31.76ZM430.56 21.29H438.03V28.76H430.56V21.29Z" fill="#38237C"/>
    <path d="M458.64 41.0195H451.17V48.4895H458.64V41.0195Z" fill="#FF8486"/>
    <path d="M449.67 51.4895H460.14C460.97 51.4895 461.64 50.8195 461.64 49.9895V39.5195C461.64 38.6895 460.97 38.0195 460.14 38.0195H449.67C448.84 38.0195 448.17 38.6895 448.17 39.5195V49.9895C448.17 50.8195 448.84 51.4895 449.67 51.4895ZM451.17 41.0195H458.64V48.4895H451.17V41.0195Z" fill="#38237C"/>
    <path d="M438.03 40.96H430.56V48.43H438.03V40.96Z" fill="#FF8486"/>
    <path d="M429.06 51.43H439.53C440.36 51.43 441.03 50.76 441.03 49.93V39.46C441.03 38.63 440.36 37.96 439.53 37.96H429.06C428.23 37.96 427.56 38.63 427.56 39.46V49.93C427.56 50.76 428.23 51.43 429.06 51.43ZM430.56 40.96H438.03V48.43H430.56V40.96Z" fill="#38237C"/>
    <path d="M458.64 60.6904H451.17V68.1604H458.64V60.6904Z" fill="#FF8486"/>
    <path d="M449.67 71.1702H460.14C460.97 71.1702 461.64 70.5002 461.64 69.6702V59.2002C461.64 58.3702 460.97 57.7002 460.14 57.7002H449.67C448.84 57.7002 448.17 58.3702 448.17 59.2002V69.6702C448.17 70.5002 448.84 71.1702 449.67 71.1702ZM451.17 60.7002H458.64V68.1702H451.17V60.7002Z" fill="#38237C"/>
    <path d="M438.03 60.6396H430.56V68.1096H438.03V60.6396Z" fill="#FF8486"/>
    <path d="M429.06 71.1096H439.53C440.36 71.1096 441.03 70.4396 441.03 69.6096V59.1396C441.03 58.3096 440.36 57.6396 439.53 57.6396H429.06C428.23 57.6396 427.56 58.3096 427.56 59.1396V69.6096C427.56 70.4396 428.23 71.1096 429.06 71.1096ZM430.56 60.6396H438.03V68.1096H430.56V60.6396Z" fill="#38237C"/>
    <path d="M186.46 112.6H178.99V120.07H186.46V112.6Z" fill="#FF8486"/>
    <path d="M177.49 109.6C176.66 109.6 175.99 110.27 175.99 111.1V121.57C175.99 122.4 176.66 123.07 177.49 123.07H187.96C188.79 123.07 189.46 122.4 189.46 121.57V111.1C189.46 110.27 188.79 109.6 187.96 109.6H177.49ZM186.46 120.07H178.99V112.6H186.46V120.07Z" fill="#38237C"/>
    <path d="M166.94 112.55H159.47V120.02H166.94V112.55Z" fill="#FF8486"/>
    <path d="M157.97 123.02H168.44C169.27 123.02 169.94 122.35 169.94 121.52V111.05C169.94 110.22 169.27 109.55 168.44 109.55H157.97C157.14 109.55 156.47 110.22 156.47 111.05V121.52C156.47 122.35 157.14 123.02 157.97 123.02ZM159.47 112.55H166.94V120.02H159.47V112.55Z" fill="#38237C"/>
    <path d="M468.51 133.4H154.83C151.56 133.4 148.9 130.75 148.9 127.47V7.69043H145.47C144.68 9.06043 144.22 10.6404 144.22 12.3404V138.29H468.5V133.4H468.51Z" fill="#77A4F2"/>
    <path d="M145.74 2.80957C145.21 3.10957 144.76 3.52957 144.45 4.05957C144.85 3.61957 145.28 3.18957 145.74 2.80957V2.80957Z" fill="#77A4F2"/>
    <path d="M163.07 68.7901C163.07 67.9601 163.74 67.2901 164.57 67.2901C165.4 67.2901 166.07 67.9601 166.07 68.7901V95.2701H168.81V52.7601C168.81 51.9301 169.48 51.2601 170.31 51.2601C171.14 51.2601 171.81 51.9301 171.81 52.7601V95.2701H174.55V32.7601C174.55 31.9301 175.22 31.2601 176.05 31.2601C176.88 31.2601 177.55 31.9301 177.55 32.7601V95.2701H180.29V42.9001C180.29 42.0701 180.96 41.4001 181.79 41.4001C182.62 41.4001 183.29 42.0701 183.29 42.9001V95.2701H186.02V20.3701H160.36V95.2701H163.09V68.7901H163.07Z" fill="#77A4F2"/>
    <path d="M160.34 98.2701H186C187.66 98.2701 189 96.9301 189 95.2701V20.3701C189 18.7101 187.66 17.3701 186 17.3701H160.34C158.68 17.3701 157.34 18.7101 157.34 20.3701V95.2701C157.34 96.9301 158.68 98.2701 160.34 98.2701ZM160.34 20.3701H186V95.2701H160.34V20.3701V20.3701Z" fill="#38237C"/>
    <path d="M164.57 67.29C163.74 67.29 163.07 67.96 163.07 68.79V95.27H166.07V68.79C166.07 67.96 165.4 67.29 164.57 67.29Z" fill="#C0DBFF"/>
    <path d="M170.3 51.2598C169.47 51.2598 168.8 51.9298 168.8 52.7598V95.2698H171.8V52.7598C171.8 51.9298 171.13 51.2598 170.3 51.2598Z" fill="#C0DBFF"/>
    <path d="M176.04 31.2598C175.21 31.2598 174.54 31.9298 174.54 32.7598V95.2698H177.54V32.7598C177.54 31.9298 176.87 31.2598 176.04 31.2598V31.2598Z" fill="#C0DBFF"/>
    <path d="M181.78 41.4004C180.95 41.4004 180.28 42.0704 180.28 42.9004V95.2704H183.28V42.9004C183.28 42.0704 182.61 41.4004 181.78 41.4004Z" fill="#C0DBFF"/>
    <path d="M472.45 9.56C471.27 5.76 467.72 3 463.53 3H153.57C150.1 3 147.09 4.89 145.47 7.69H462.57C465.84 7.69 468.5 10.34 468.5 13.62V138.29H472.79V137.29C472.79 137.29 472.84 137.24 472.86 137.21V12.34C472.86 11.69 472.79 11.07 472.67 10.46C472.61 10.16 472.53 9.86 472.44 9.56H472.45Z" fill="white"/>
    <path d="M293.2 56.8104C293.25 56.5804 293.33 56.3504 293.39 56.1204C289.08 55.8404 282.44 58.7304 276.33 61.9504H276.32L285.2 68.2804C286.52 64.5704 289.27 60.5904 293.2 56.8004V56.8104Z" fill="#86D4C9"/>
    <path d="M331.39 67.1604L334.41 72.3904C335.31 71.4304 336.12 70.4704 336.85 69.5104L333.88 64.3604C333.11 65.3004 332.3 66.2404 331.4 67.1604H331.39Z" fill="#77A4F2"/>
    <path d="M319.41 79.5804L321.06 82.4504C321.63 82.1504 322.2 81.8304 322.76 81.5104C323.23 81.2304 323.67 80.9504 324.13 80.6704L321.38 75.9004C320.8 77.1904 320.14 78.4204 319.41 79.5904V79.5804Z" fill="#77A4F2"/>
    <path d="M327.2 70.9596L330.27 76.2796C331.22 75.4896 332.13 74.6796 332.97 73.8696L329.93 68.5996C329.07 69.4096 328.15 70.1996 327.2 70.9696V70.9596Z" fill="#77A4F2"/>
    <path d="M322.71 74.2397L325.8 79.5997C326.81 78.9297 327.77 78.2297 328.7 77.5197L325.62 72.1797C324.68 72.8897 323.71 73.5697 322.7 74.2297L322.71 74.2397Z" fill="#77A4F2"/>
    <path d="M314.89 85.2701C316.36 84.7101 317.83 84.0802 319.29 83.3602L318.16 81.4102C317.16 82.7802 316.05 84.0601 314.88 85.2701H314.89Z" fill="#77A4F2"/>
    <path d="M276.79 92.3898C279.52 90.8098 280.45 87.3298 278.88 84.5998C277.3 81.8698 273.82 80.9398 271.1 82.5098C267.77 84.4398 264.2 89.8698 263.28 93.6198C266.98 94.6998 273.47 94.3198 276.8 92.3998L276.79 92.3898Z" fill="#FF8486"/>
    <path d="M331.87 50.3403C334.85 55.5003 327.21 65.4903 314.82 72.6603C306.32 77.5803 297.79 79.8803 292.31 79.1803L292.15 79.4103C298.26 81.4803 308.63 79.2803 318.26 73.7103C324.77 69.9503 330.15 65.1703 333.42 60.2603C336.48 55.6403 337.27 51.5503 335.64 48.7203C333.58 45.1503 327.78 43.9703 320.4 45.4303C321.33 46.0003 322.21 46.6603 323.03 47.4003C327.31 47.1003 330.55 48.0403 331.88 50.3503L331.87 50.3403Z" fill="white"/>
    <path d="M292.73 61.4199C290.95 63.4699 289.56 65.5399 288.6 67.5099C289.67 65.8599 291.09 64.1399 292.81 62.4199C292.78 62.0899 292.74 61.7499 292.73 61.4199Z" fill="white"/>
    <path d="M292.81 62.4199C291.09 64.1399 289.67 65.8599 288.6 67.5099C288.38 67.9599 288.18 68.4099 288.01 68.8499C290.1 68.3099 291.85 68.1199 293.5 67.9399C293.71 67.9199 293.92 67.8899 294.13 67.8599C293.4 66.0899 292.97 64.2599 292.81 62.4199V62.4199Z" fill="#86D4C9"/>
    <path d="M314.82 72.6601C327.21 65.5001 334.84 55.5001 331.87 50.3401C330.54 48.0301 327.3 47.0901 323.02 47.3901C324.4 48.6301 325.6 50.1001 326.58 51.8001C329.46 56.8001 322.86 63.6001 315.04 68.1201C310.32 70.8501 305.1 72.7801 301.07 72.7801C299.63 72.7801 298.36 72.5301 297.3 71.9901L292.3 79.1801C297.78 79.8801 306.31 77.5801 314.81 72.6601H314.82Z" fill="#86D4C9"/>
    <path d="M335.18 62.65L338.11 67.72C338.93 66.46 339.59 65.21 340.06 64.01L337.29 59.21C336.85 60.07 336.36 60.94 335.77 61.83C335.59 62.1 335.38 62.38 335.18 62.65V62.65Z" fill="white"/>
    <path d="M340.82 61.3298C341.12 59.5298 340.93 57.8798 340.15 56.5098L338.99 54.5098C338.83 55.3098 338.6 56.1198 338.29 56.9498L340.82 61.3398V61.3298Z" fill="white"/>
    <path d="M312.06 79.8303C306.86 81.9003 301.79 82.9903 297.43 82.9903C294.99 82.9903 292.78 82.6403 290.89 81.9403L286.22 97.5603C291.28 95.6203 303.84 90.4803 312.06 79.8203V79.8303Z" fill="#86D4C9"/>
    <path d="M293.4 56.1204C293.65 55.2104 293.95 54.3104 294.33 53.4404C288.21 54.5504 281.27 58.2304 276.34 61.9504C282.45 58.7304 289.09 55.8404 293.4 56.1204V56.1204Z" fill="white"/>
    <path d="M282.48 83.0905C282.61 83.3205 282.75 83.5105 282.88 83.7205C283.81 84.7205 284.88 84.6105 285.74 84.1105C286.29 83.7905 287.07 83.3405 287.68 82.9905L288.41 80.5905C288.68 79.6805 289.1 78.8205 289.64 78.0405L291.07 75.9805L281.61 81.4505C281.86 81.9805 282.14 82.5305 282.46 83.0905H282.48Z" fill="#86D4C9"/>
    <path d="M280.29 75.2496C280.13 75.4796 280.1 76.3396 280.34 77.5896C282.65 76.2696 287.18 73.8296 293.72 72.1796L294.79 70.6396C294.47 70.6796 294.14 70.7297 293.82 70.7597C290.35 71.1297 286.77 71.5096 280.3 75.2496H280.29Z" fill="#86D4C9"/>
    <path d="M281.63 81.4399L291.09 75.9699L293.73 72.1699C287.19 73.8199 282.66 76.2499 280.35 77.5799C280.55 78.6299 280.95 79.9599 281.63 81.4399Z" fill="white"/>
    <path d="M312.06 79.8304C303.84 90.4904 291.28 95.6404 286.22 97.5704L286.18 97.6904C293.72 95.9704 310.12 89.8104 317.42 77.3604C315.63 78.2904 313.84 79.1104 312.06 79.8204V79.8304Z" fill="white"/>
    <path d="M302.79 50.1795C309.62 46.2295 318.37 48.5695 322.32 55.4195C322.86 56.3595 322.85 57.4495 322.43 58.5895C323.52 57.2495 325.09 54.8795 324.13 53.1995C322.08 49.6495 318.78 47.1095 314.83 46.0495C313.51 45.6995 312.17 45.5195 310.84 45.5195C308.19 45.5195 305.57 46.2195 303.21 47.5795C297.8 50.7095 295.03 56.6695 295.65 62.5195C295.67 57.5895 298.22 52.8095 302.79 50.1595V50.1795Z" fill="#86D4C9"/>
    <path d="M273.71 63.58L283.39 70.4699C282.02 71.0699 280.53 71.8299 278.87 72.7899C275.97 74.4599 277.8 80.6499 280.02 84.4999C281.7 87.4099 283.6 89.4899 285.41 90.4899L283.11 98.0799C282.9 98.7799 283.07 99.5299 283.57 100.08C283.97 100.53 284.53 100.77 285.12 100.77C285.25 100.77 285.39 100.76 285.52 100.73C290.49 99.7899 300.98 96.4099 309.74 89.7999V89.8299C314.47 88.7099 319.47 86.6899 324.19 83.9599C338.93 75.4399 347.02 62.7599 342.6 55.0999L341.15 52.5899L345.62 49.9999C346.92 51.0999 348.82 51.3399 350.39 50.4299C352.39 49.2799 353.07 46.7199 351.91 44.7199C350.76 42.7199 348.2 42.0299 346.21 43.1899C344.65 44.0999 343.9 45.8599 344.2 47.5399L339.73 50.1299L338.05 47.2199C334.93 41.9199 326.58 40.5299 316.19 43.5299C311.54 42.0999 306.34 42.5199 301.8 45.1299C299.47 46.4799 297.56 48.2899 296.1 50.3599C288.06 51.0399 279.03 56.1699 273.62 60.4699C273.15 60.8499 272.88 61.4199 272.89 62.0299C272.91 62.6399 273.22 63.22 273.72 63.58H273.71ZM286.18 97.6999L286.22 97.5799L290.89 81.9599C292.78 82.6499 294.99 83.0099 297.43 83.0099C301.79 83.0099 306.86 81.9199 312.06 79.8499C313.84 79.1399 315.64 78.3199 317.42 77.3899C310.12 89.8399 293.73 95.9899 286.18 97.7199V97.6999ZM314.88 85.2699C316.05 84.0599 317.16 82.78 318.16 81.41L319.29 83.3599C317.83 84.0799 316.35 84.7099 314.89 85.2699H314.88ZM322.76 81.5099C322.2 81.8399 321.63 82.1599 321.06 82.4599L319.41 79.5899C320.14 78.4199 320.81 77.1899 321.38 75.8999L324.13 80.6699C323.67 80.9499 323.23 81.2299 322.76 81.5099ZM325.8 79.6099L322.71 74.2499C323.72 73.5799 324.69 72.9099 325.63 72.1999L328.71 77.5399C327.79 78.2499 326.82 78.9499 325.81 79.6199L325.8 79.6099ZM330.26 76.2799L327.19 70.9599C328.14 70.1899 329.06 69.3999 329.92 68.5899L332.96 73.8599C332.12 74.6799 331.21 75.4799 330.26 76.2699V76.2799ZM334.41 72.4L331.39 67.1699C332.29 66.2499 333.11 65.31 333.87 64.37L336.84 69.5199C336.11 70.4799 335.3 71.45 334.4 72.4H334.41ZM338.99 54.5199L340.15 56.5199C340.93 57.8899 341.12 59.5399 340.82 61.3399L338.29 56.9599C338.6 56.1299 338.83 55.3199 338.99 54.5199ZM337.29 59.2099L340.06 64.01C339.59 65.21 338.93 66.4599 338.11 67.7199L335.18 62.65C335.38 62.38 335.59 62.1 335.77 61.83C336.36 60.94 336.85 60.0699 337.29 59.2099V59.2099ZM335.64 48.7099C337.27 51.5399 336.48 55.6399 333.42 60.2499C330.15 65.1499 324.78 69.9299 318.26 73.6999C308.63 79.2699 298.26 81.4699 292.15 79.3999L292.31 79.1699L297.31 71.98C298.37 72.52 299.64 72.7699 301.08 72.7699C305.1 72.7699 310.33 70.8399 315.05 68.1099C322.87 63.5899 329.47 56.7899 326.59 51.7899C325.61 50.0999 324.41 48.6299 323.03 47.3799C322.21 46.6399 321.33 45.9799 320.4 45.4099C327.78 43.9499 333.58 45.1299 335.64 48.6999V48.7099ZM303.21 47.6099C305.57 46.2399 308.19 45.5399 310.84 45.5399C312.17 45.5399 313.51 45.7199 314.83 46.0699C318.78 47.1299 322.08 49.6699 324.13 53.2199C325.1 54.8999 323.53 57.2599 322.43 58.6099C322.84 57.4599 322.86 56.3699 322.32 55.4399C318.37 48.5899 309.63 46.2499 302.79 50.1999C298.22 52.8399 295.67 57.63 295.65 62.5599C295.02 56.7099 297.8 50.7499 303.21 47.6199V47.6099ZM293.72 72.1799L291.08 75.9799L289.65 78.0399C289.11 78.8199 288.69 79.6799 288.42 80.5899L287.69 82.9899C287.08 83.3399 286.3 83.7899 285.75 84.1099C284.89 84.6099 283.82 84.7199 282.89 83.7199C282.76 83.4999 282.62 83.3099 282.49 83.0899C282.17 82.5299 281.89 81.9799 281.64 81.4499C280.96 79.9699 280.56 78.6399 280.36 77.5899C280.12 76.3399 280.15 75.4899 280.31 75.2499C286.78 71.5099 290.37 71.13 293.83 70.76C294.16 70.73 294.48 70.6799 294.8 70.6399L293.73 72.1799H293.72ZM288.01 68.8499C288.18 68.4099 288.38 67.96 288.6 67.51C289.56 65.53 290.95 63.4599 292.73 61.4199C292.73 61.7499 292.78 62.0899 292.81 62.4199C292.97 64.2599 293.4 66.0899 294.13 67.8599C293.92 67.8899 293.71 67.92 293.5 67.94C291.85 68.12 290.1 68.3099 288.01 68.8499V68.8499ZM276.33 61.9499C281.27 58.2299 288.2 54.5499 294.32 53.4399C293.94 54.3099 293.64 55.1999 293.39 56.1199C293.33 56.3499 293.25 56.5799 293.2 56.8099C289.27 60.5999 286.52 64.5699 285.2 68.2899L276.32 61.9699H276.33V61.9499Z" fill="#38237C"/>
    <path d="M320.58 108.72C331.593 108.72 340.52 106.338 340.52 103.4C340.52 100.462 331.593 98.0801 320.58 98.0801C309.567 98.0801 300.64 100.462 300.64 103.4C300.64 106.338 309.567 108.72 320.58 108.72Z" fill="#38237C"/>
    <path d="M476.63 139.58C476.29 139.23 475.87 138.99 475.42 138.84C475.7 138.39 475.86 137.86 475.86 137.29V12.34C475.86 5.54 470.32 0 463.52 0H153.56C150.59 0 147.86 1.05 145.73 2.81C145.27 3.19 144.84 3.61 144.44 4.06C142.45 6.25 141.22 9.15 141.22 12.35V137.3C141.22 137.84 141.37 138.34 141.63 138.78C141.09 138.91 140.59 139.19 140.19 139.59L119.48 160.86H123.67L142.34 141.68H474.48L493.15 160.86H497.34L476.63 139.59V139.58ZM472.87 137.2V137.28L472.8 138.28H144.23V12.34C144.23 10.65 144.69 9.06 145.48 7.69C147.09 4.89 150.11 3 153.58 3H463.54C467.73 3 471.28 5.76 472.46 9.56C472.55 9.85 472.63 10.15 472.69 10.46C472.81 11.07 472.88 11.7 472.88 12.34V137.2H472.87Z" fill="#38237C"/>
    <path d="M142.35 141.67L123.68 160.85H132.27C132.35 160.75 132.42 160.66 132.5 160.57L143.33 149.16C144.09 148.36 145.13 147.91 146.23 147.91H470.6C471.7 147.91 472.75 148.36 473.5 149.16L484.33 160.57C484.41 160.66 484.49 160.76 484.56 160.85H493.15L474.48 141.67H142.34H142.35Z" fill="#77A4F2"/>
    <path d="M473.5 149.16C472.74 148.36 471.7 147.91 470.6 147.91H146.23C145.13 147.91 144.08 148.36 143.33 149.16L132.5 160.57C132.42 160.66 132.34 160.76 132.27 160.85H137.75L138.11 160.47L143.38 154.91L146.23 151.91H173.32L167.63 160.85H172.37L176.15 154.91L178.06 151.91H206.15L202.74 160.85H207.02L209.29 154.91L210.44 151.91H239.61L237.33 160.85H241.46L242.97 154.91L243.73 151.91H273.02L271.88 160.85H275.91L276.67 154.91L277.05 151.91H306.41V160.85H310.41V151.91H339.77L340.15 154.91L340.91 160.85H344.94L344.18 154.91L343.8 151.91H373.09L373.85 154.91L375.36 160.85H379.49L377.98 154.91L377.22 151.91H406.39L407.54 154.91L409.81 160.85H414.09L411.82 154.91L410.67 151.91H438.76L444.45 160.85H449.19L445.41 154.91L443.5 151.91H470.59L473.44 154.91L478.71 160.47L479.07 160.85H484.55C484.47 160.75 484.4 160.66 484.32 160.57L473.49 149.16H473.5Z" fill="#38237C"/>
    <path d="M344.18 154.91L344.94 160.85H371.12L369.6 154.91H344.18Z" fill="#8D86EB"/>
    <path d="M310.41 154.91V160.85H336.78L336.02 154.91H310.41Z" fill="#8D86EB"/>
    <path d="M143.38 154.91L138.11 160.47L137.75 160.85H164.27L168.05 154.91H143.38Z" fill="#8D86EB"/>
    <path d="M242.97 154.91L241.46 160.85H268.01L268.77 154.91H242.97Z" fill="#8D86EB"/>
    <path d="M276.68 154.91L275.92 160.85H302.41V154.91H276.68Z" fill="#8D86EB"/>
    <path d="M209.29 154.91L207.02 160.85H233.58L235.1 154.91H209.29Z" fill="#8D86EB"/>
    <path d="M176.15 154.91L172.37 160.85H199.12L201.39 154.91H176.15Z" fill="#8D86EB"/>
    <path d="M445.41 154.91L449.19 160.85H473.38L467.74 154.91H445.41Z" fill="#8D86EB"/>
    <path d="M411.82 154.91L414.08 160.85H439.82L436.04 154.91H411.82Z" fill="#8D86EB"/>
    <path d="M377.98 154.91L379.5 160.85H405.42L403.15 154.91H377.98Z" fill="#8D86EB"/>
    <path d="M178.06 151.91L176.15 154.91H201.39L199.12 160.85H202.74L206.16 151.91H178.06Z" fill="#A5A5F9"/>
    <path d="M277.06 151.91L276.68 154.91H302.41V160.85H306.41V151.91H277.06Z" fill="#A5A5F9"/>
    <path d="M243.73 151.91L242.97 154.91H268.77L268.01 160.85H271.89L273.02 151.91H243.73Z" fill="#A5A5F9"/>
    <path d="M210.44 151.91L209.29 154.91H235.1L233.58 160.85H237.33L239.61 151.91H210.44Z" fill="#A5A5F9"/>
    <path d="M146.23 151.91L143.38 154.91H168.05L164.27 160.85H167.63L173.32 151.91H146.23Z" fill="#A5A5F9"/>
    <path d="M310.41 151.91V154.91H336.02L336.78 160.85H340.81L340.06 154.91H340.15L339.77 151.91H310.41Z" fill="#A5A5F9"/>
    <path d="M343.8 151.91L344.18 154.91H369.6L371.12 160.85H375.24L373.73 154.91H373.86L373.09 151.91H343.8Z" fill="#A5A5F9"/>
    <path d="M377.22 151.91L377.98 154.91H403.15L405.42 160.85H409.7L407.43 154.91H407.53L406.39 151.91H377.22Z" fill="#A5A5F9"/>
    <path d="M410.67 151.91L411.82 154.91H436.04L439.82 160.85H444.45L438.76 151.91H410.67Z" fill="#A5A5F9"/>
    <path d="M443.51 151.91L445.41 154.91H467.74L473.38 160.85H478.89L473.25 154.91H473.44L470.6 151.91H443.51Z" fill="#A5A5F9"/>
    <path d="M529.34 88.3702C530.561 88.3702 531.55 87.3808 531.55 86.1602C531.55 84.9397 530.561 83.9502 529.34 83.9502C528.119 83.9502 527.13 84.9397 527.13 86.1602C527.13 87.3808 528.119 88.3702 529.34 88.3702Z" fill="#86D4C9"/>
    <path d="M492.87 120.92C493.632 120.92 494.25 120.302 494.25 119.54C494.25 118.778 493.632 118.16 492.87 118.16C492.108 118.16 491.49 118.778 491.49 119.54C491.49 120.302 492.108 120.92 492.87 120.92Z" fill="#86D4C9"/>
    <path d="M518.95 55.6399C519.712 55.6399 520.33 55.022 520.33 54.2599C520.33 53.4977 519.712 52.8799 518.95 52.8799C518.188 52.8799 517.57 53.4977 517.57 54.2599C517.57 55.022 518.188 55.6399 518.95 55.6399Z" fill="#86D4C9"/>
    <path d="M55.5599 124.96C56.3221 124.96 56.9399 124.342 56.9399 123.58C56.9399 122.818 56.3221 122.2 55.5599 122.2C54.7978 122.2 54.1799 122.818 54.1799 123.58C54.1799 124.342 54.7978 124.96 55.5599 124.96Z" fill="#86D4C9"/>
    <path d="M42.95 46.2405C43.7121 46.2405 44.33 45.6226 44.33 44.8605C44.33 44.0983 43.7121 43.4805 42.95 43.4805C42.1878 43.4805 41.5699 44.0983 41.5699 44.8605C41.5699 45.6226 42.1878 46.2405 42.95 46.2405Z" fill="#86D4C9"/>
    <path d="M112.07 130.06C113.291 130.06 114.28 129.07 114.28 127.85C114.28 126.629 113.291 125.64 112.07 125.64C110.849 125.64 109.86 126.629 109.86 127.85C109.86 129.07 110.849 130.06 112.07 130.06Z" fill="#86D4C9"/>
    <path d="M496.33 101.15C498.832 101.15 500.86 99.1217 500.86 96.6199C500.86 94.118 498.832 92.0898 496.33 92.0898C493.828 92.0898 491.8 94.118 491.8 96.6199C491.8 99.1217 493.828 101.15 496.33 101.15Z" fill="#86D4C9"/>
    <path d="M7.97995 47.0102C10.4818 47.0102 12.51 44.982 12.51 42.4802C12.51 39.9783 10.4818 37.9502 7.97995 37.9502C5.4781 37.9502 3.44995 39.9783 3.44995 42.4802C3.44995 44.982 5.4781 47.0102 7.97995 47.0102Z" fill="#86D4C9"/>
    <path d="M89.6499 39.5301H92.07C94.64 39.5301 96.7299 37.4401 96.7299 34.8701V28.5501C96.7799 27.9401 97.3199 27.4801 97.9299 27.5301C98.4699 27.5801 98.9 28.0001 98.95 28.5501V34.8701C98.95 37.4401 101.04 39.5301 103.61 39.5301H106.04C106.65 39.5801 107.11 40.1201 107.06 40.7301C107.01 41.2701 106.59 41.7001 106.04 41.7501H103.61C101.04 41.7501 98.95 43.8401 98.95 46.4101V52.7301C98.9 53.3401 98.3599 53.8001 97.7499 53.7501C97.2099 53.7001 96.7799 53.2801 96.7299 52.7301V46.4101C96.7299 43.8401 94.64 41.7501 92.07 41.7501H89.6499C89.0399 41.8001 88.5 41.3501 88.45 40.7301C88.4 40.1201 88.8499 39.5801 89.4699 39.5301C89.5299 39.5301 89.5899 39.5301 89.6599 39.5301H89.6499Z" fill="#86D4C9"/>
    <path d="M525.37 36.6105H526.71C528.14 36.6105 529.3 35.4505 529.3 34.0205V30.5204C529.33 30.1804 529.63 29.9304 529.97 29.9604C530.27 29.9904 530.51 30.2204 530.53 30.5204V34.0205C530.53 35.4505 531.69 36.6105 533.12 36.6105H534.47C534.81 36.6405 535.06 36.9404 535.03 37.2804C535 37.5804 534.77 37.8204 534.47 37.8404H533.12C531.69 37.8404 530.53 39.0004 530.53 40.4304V43.9304C530.5 44.2704 530.2 44.5205 529.86 44.4905C529.56 44.4605 529.32 44.2304 529.3 43.9304V40.4304C529.3 39.0004 528.14 37.8404 526.71 37.8404H525.37C525.03 37.8704 524.73 37.6204 524.7 37.2804C524.67 36.9404 524.92 36.6405 525.26 36.6105C525.29 36.6105 525.33 36.6105 525.36 36.6105H525.37Z" fill="#86D4C9"/>
    <path d="M8.64996 124.35H9.98999C11.42 124.35 12.58 123.19 12.58 121.76V118.26C12.61 117.92 12.91 117.67 13.25 117.7C13.55 117.73 13.79 117.96 13.81 118.26V121.76C13.81 123.19 14.97 124.35 16.4 124.35H17.75C18.09 124.38 18.34 124.68 18.31 125.02C18.28 125.32 18.05 125.56 17.75 125.58H16.4C14.97 125.58 13.81 126.74 13.81 128.17V131.67C13.78 132.01 13.48 132.26 13.14 132.23C12.84 132.2 12.6 131.97 12.58 131.67V128.17C12.58 126.74 11.42 125.58 9.98999 125.58H8.64996C8.30996 125.61 8.00998 125.36 7.97998 125.02C7.94998 124.68 8.19998 124.38 8.53998 124.35C8.56998 124.35 8.61001 124.35 8.64001 124.35H8.64996Z" fill="#86D4C9"/>
    <path d="M516.49 138.79H515.75C514.96 138.79 514.32 139.43 514.32 140.22V142.16C514.3 142.35 514.14 142.49 513.95 142.47C513.78 142.46 513.65 142.32 513.64 142.16V140.22C513.64 139.43 513 138.79 512.21 138.79H511.46C511.27 138.77 511.13 138.61 511.15 138.42C511.16 138.25 511.3 138.12 511.46 138.11H512.21C513 138.11 513.64 137.47 513.64 136.68V134.74C513.66 134.55 513.82 134.41 514.01 134.43C514.18 134.44 514.31 134.58 514.32 134.74V136.68C514.32 137.47 514.96 138.11 515.75 138.11H516.49C516.68 138.09 516.84 138.23 516.86 138.42C516.88 138.61 516.74 138.77 516.55 138.79C516.53 138.79 516.51 138.79 516.49 138.79Z" fill="#86D4C9"/>
    <defs>
        <linearGradient id="paint0_linear_2673_26878" x1="2.0499" y1="156.81" x2="563.22" y2="156.81" gradientUnits="userSpaceOnUse">
            <stop stop-color="#503EAA"/>
            <stop offset="1" stop-color="#77A4F2"/>
        </linearGradient>
    </defs>
</svg>
