<svg viewBox="0 0 364 233" fill="none" xmlns="http://www.w3.org/2000/svg">
    <path d="M256.993 102.826C256.993 107.142 252.323 112.273 247.551 112.273C246.514 112.284 245.486 112.087 244.526 111.695C243.566 111.304 242.694 110.724 241.962 109.991C241.229 109.257 240.65 108.385 240.258 107.425C239.867 106.465 239.671 105.436 239.683 104.4C239.683 98.4392 239.177 97.1539 234.431 92.6861C229.685 88.2182 227.033 89.1442 227.033 80.0365C227.033 70.9287 233.019 56.3311 248.528 56.3311C264.036 56.3311 269.445 61.1025 274.617 66.0207C279.788 70.9388 282.454 83.3203 277.703 88.6079C272.952 93.8954 268.357 93.3489 265.362 96.2786C262.367 99.2083 256.993 102.826 256.993 102.826Z" fill="#7996C9"/>
    <path d="M229.968 78.165C229.968 70.2059 242.815 57.364 257.959 62.9854C273.817 68.8701 277.05 81.5804 273.817 89.408C273.817 89.408 276.58 89.408 278.406 84.3127C280.233 79.2175 282.915 71.906 273.939 65.2877C264.962 58.6694 261.891 55.9118 250.369 57.6827C238.848 59.4537 227.549 57.5157 229.968 78.165Z" fill="white"/>
    <path d="M101.077 100.549L90.2487 78.1393C101.284 76.0597 119.95 75.5081 132.413 81.5243" fill="#88D1C3"/>
    <path d="M147.695 148.699C174.706 148.124 196.371 136.779 196.085 123.36C195.8 109.942 173.671 99.5297 146.66 100.105C119.649 100.68 97.9833 112.025 98.269 125.443C98.5548 138.862 120.683 149.274 147.695 148.699Z" fill="#7996C9"/>
    <path d="M69.4018 106.024C62.9251 106.166 53.2455 111.282 48.8535 116.068C53.4479 120.668 63.3299 125.368 69.8117 125.232C72.3614 125.177 74.7851 124.112 76.5497 122.271C78.3142 120.43 79.2749 117.963 79.2206 115.413C79.1662 112.863 78.1012 110.44 76.2598 108.675C74.4185 106.911 71.9516 105.95 69.4018 106.004V106.024Z" fill="#FF8080"/>
    <path d="M147.235 133.891C174.253 133.351 195.937 122.032 195.669 108.61C195.4 95.1885 173.281 84.7459 146.263 85.2863C119.246 85.8266 97.5616 97.1452 97.83 110.567C98.0985 123.989 120.218 134.432 147.235 133.891Z" fill="white"/>
    <path d="M141.986 126.985C166.1 126.471 185.475 117.922 185.262 107.889C185.048 97.8565 165.327 90.1396 141.213 90.6532C117.099 91.1667 97.7236 99.7161 97.9373 109.749C98.1509 119.782 117.872 127.498 141.986 126.985Z" fill="#88D1C3"/>
    <path d="M178.483 127.508L178.767 140.952C178.767 140.952 182.617 140.32 184.611 138.928C186.605 137.537 194.847 132.29 194.791 125.155C194.736 118.021 194.397 115.638 191.801 118.254C189.205 120.87 178.483 127.508 178.483 127.508Z" fill="white"/>
    <path d="M117.977 129.456C110.964 127.032 108.282 125.221 104.74 122.003C101.198 118.785 100.814 120.596 97.0238 122.17C93.234 123.743 74.9424 141.756 74.9424 141.756C74.9424 141.756 83.1192 147.322 95.9562 147.069C108.793 146.816 140.934 143.416 143.6 137.962C146.267 132.507 142.082 135.599 134.882 133.914C127.682 132.229 117.977 129.456 117.977 129.456Z" fill="#88D1C3"/>
    <path d="M206.284 113.855L194.649 114.103L194.747 118.726L206.383 118.478L206.284 113.855Z" fill="#4F457C"/>
    <path d="M92.1815 79.9455C105.337 80.0821 119.535 81.2914 125.238 86.3158C125.238 86.3158 131.998 82.106 131.173 80.9575C130.348 79.8089 101.512 76.5503 95.1517 77.3852C88.7914 78.2201 92.1815 79.9455 92.1815 79.9455Z" fill="white"/>
    <path d="M112.406 104.521C105.064 102.755 98.4962 101.829 93.4566 101.713C88.4169 101.597 86.4233 101.511 85.6289 103.484C84.8345 105.457 83.4329 118.906 85.0065 121.396C86.5801 123.885 91.0379 123.966 93.8715 121.674C96.705 119.382 97.5703 117.834 103.829 115.486C110.088 113.138 121.311 108.787 112.406 104.521Z" fill="#88D1C3"/>
    <path d="M85.6643 106.307C94.4321 106.005 103.196 107.012 111.667 109.292L106.709 112.581L84.0452 113.087L85.6643 106.307Z" fill="white"/>
    <path d="M102.063 102.978L98.395 100.185C103.126 94.0327 112.057 88.988 123.583 85.9824L124.752 90.4604C114.379 93.1421 106.111 97.7162 102.063 102.978Z" fill="#4F457C"/>
    <path d="M78.4692 140.401C86.7421 141.57 110.686 144.803 132.383 135.224C132.383 135.224 144.38 134.091 145.619 134.941C146.859 135.791 129.428 145.638 112.446 145.901C95.4654 146.164 73.4497 144.646 78.4692 140.401Z" fill="white"/>
    <path d="M144.157 136.034C122.799 136.034 104.184 129.294 97.3932 118.982L101.259 116.452C107.331 125.687 125.81 131.829 146.221 131.399C158.902 131.131 170.737 128.449 179.541 123.855C187.839 119.519 192.342 114.089 192.226 108.559L196.851 108.463C197.008 115.845 191.619 122.767 181.671 127.953C172.244 132.877 159.686 135.741 146.307 136.049C145.599 136.029 144.87 136.034 144.157 136.034Z" fill="#4F457C"/>
    <path d="M196.831 108.544L192.206 108.448C192.322 102.917 187.819 97.488 179.521 93.1567C170.737 88.5472 158.881 85.8756 146.231 85.6074C125.84 85.1875 107.346 91.32 101.269 100.554L97.4033 98.0243C104.416 87.3683 124.079 80.5223 146.333 80.9979C159.711 81.2813 172.27 84.1502 181.696 89.0684C191.619 94.2446 197.008 101.166 196.831 108.544Z" fill="#4F457C"/>
    <path d="M144.491 151.224C136.417 151.271 128.372 150.236 120.573 148.148L121.817 143.69C129.878 145.837 138.207 146.809 146.545 146.574C171.733 146.043 192.783 135.604 192.545 123.734L192.221 108.418L196.846 108.316L197.17 123.638C197.488 138.483 175.296 150.591 146.646 151.199C145.928 151.214 145.219 151.224 144.491 151.224Z" fill="#4F457C"/>
    <path d="M86.5801 132.006C83.281 129.952 81.2166 124.057 81.0496 116.24C80.9345 112.269 81.4957 108.308 82.7093 104.526C84.5207 99.284 87.0051 98.1405 88.7812 98.1C102.377 97.8166 108.712 100.468 114.308 102.806C115.659 103.372 116.935 103.904 118.286 104.389L116.717 108.741C115.26 108.235 113.868 107.638 112.527 107.076C107.113 104.809 101.512 102.472 88.9633 102.725C87.8754 103.296 85.5175 108.392 85.6845 116.143C85.8211 122.625 87.5162 127.133 89.0392 128.085L86.5801 132.006Z" fill="#4F457C"/>
    <path d="M107.139 149.124C94.5243 149.124 82.9118 146.837 75.9594 144.571C75.3945 144.39 74.8858 144.066 74.4826 143.631C74.0794 143.196 73.7953 142.664 73.6579 142.087C73.5205 141.51 73.5344 140.907 73.6983 140.337C73.8622 139.767 74.1704 139.249 74.5933 138.833L97.965 115.805L116.51 106.606L118.564 110.75L100.692 119.62L79.2535 140.74C92.9962 144.687 127.221 149.575 148.139 131.865L151.13 135.407C141.136 143.872 126.953 148.603 110.119 149.094C109.12 149.114 108.127 149.124 107.139 149.124Z" fill="#4F457C"/>
    <path d="M98.9921 101.556L88.68 80.2185C88.4633 79.7658 88.3537 79.2692 88.3599 78.7673C88.366 78.2654 88.4877 77.7716 88.7154 77.3243C88.938 76.8874 89.26 76.5088 89.6554 76.2188C90.0508 75.9288 90.5087 75.7356 90.9924 75.6546C102.772 73.6306 120.947 73.4232 133.42 79.4393L131.396 83.6036C121.195 78.6905 105.474 78.2047 93.6589 79.9149L103.146 99.5421L98.9921 101.556Z" fill="#4F457C"/>
    <path d="M85.6137 115.871C85.6896 119.357 87.7236 120.329 89.7375 120.283L95.359 120.167L86.5902 128.92C86.5902 128.92 83.6909 120.061 85.6137 115.871Z" fill="#4F457C"/>
    <path d="M189.181 121.467L185.943 121.532L186.247 136.727L189.485 136.662L189.181 121.467Z" fill="#4F457C"/>
    <path d="M180.08 126.309L176.843 126.378L177.179 142.161L180.416 142.092L180.08 126.309Z" fill="#4F457C"/>
    <path d="M170.845 130.431L167.607 130.5L167.947 146.491L171.185 146.422L170.845 130.431Z" fill="#4F457C"/>
    <path d="M161.569 132.413L158.331 132.482L158.675 148.63L161.912 148.561L161.569 132.413Z" fill="#4F457C"/>
    <path d="M152.249 132.612L149.012 132.681L149.372 149.572L152.609 149.503L152.249 132.612Z" fill="#4F457C"/>
    <path d="M143.083 139.745L139.845 139.813L140.057 149.769L143.295 149.7L143.083 139.745Z" fill="#4F457C"/>
    <path d="M212.38 123.061C216.267 123.061 219.418 119.91 219.418 116.023C219.418 112.136 216.267 108.984 212.38 108.984C208.493 108.984 205.341 112.136 205.341 116.023C205.341 119.91 208.493 123.061 212.38 123.061Z" fill="#88D1C3"/>
    <path d="M145.766 120.536C163.525 120.536 177.922 114.794 177.922 107.71C177.922 100.626 163.525 94.8828 145.766 94.8828C128.007 94.8828 113.61 100.626 113.61 107.71C113.61 114.794 128.007 120.536 145.766 120.536Z" fill="#4F457C"/>
    <path d="M146.07 58.5878C155.446 63.4807 123.543 112.46 116.722 108.949C102.868 101.829 98.9263 83.4772 107.032 69.5677C115.138 55.6581 132.266 51.3775 146.07 58.5878Z" fill="#88D1C3"/>
    <path d="M143.955 65.591C151.595 70.2106 123.543 110.624 118.873 108.635C106.628 103.408 103.668 86.8778 110.595 74.977C117.522 63.0762 132.57 58.6944 143.955 65.591Z" fill="#4F457C"/>
    <path d="M117.734 111.545C117.008 111.547 116.293 111.373 115.649 111.039C108.915 107.588 103.986 101.511 101.77 93.9315C100.552 89.6754 100.21 85.2165 100.765 80.8246C101.32 76.4326 102.76 72.1988 104.998 68.3793C113.509 53.7867 131.618 48.6459 147.127 56.4836C148.2 57.0199 149.51 58.2444 149.657 61.0071C150.224 71.3697 132.043 103.479 121.868 110.088C120.658 110.96 119.223 111.466 117.734 111.545ZM117.734 106.839C118.913 106.915 123.659 103.53 131.011 92.3428C135.207 85.9865 138.842 79.2771 141.875 72.2906C145.113 64.6198 145.144 61.3613 144.855 60.6124C131.629 54.0346 116.256 58.381 109.051 70.7321C107.133 73.9988 105.897 77.6207 105.419 81.3787C104.94 85.1367 105.229 88.9527 106.268 92.5957C107.105 95.6292 108.556 98.4585 110.531 100.909C112.506 103.359 114.963 105.377 117.749 106.839H117.734Z" fill="#4F457C"/>
    <path d="M161.598 74.1086L145.149 107.187L149.29 109.246L165.739 76.1678L161.598 74.1086Z" fill="#4F457C"/>
    <path d="M163.673 80.0522C166.389 80.0522 168.591 77.8502 168.591 75.134C168.591 72.4178 166.389 70.2158 163.673 70.2158C160.957 70.2158 158.755 72.4178 158.755 75.134C158.755 77.8502 160.957 80.0522 163.673 80.0522Z" fill="#4F457C"/>
    <path d="M197.009 43.2147L162.151 73.377L165.178 76.8741L200.035 46.7119L197.009 43.2147Z" fill="#4F457C"/>
    <path d="M198.531 51.631C202.208 51.631 205.19 48.6498 205.19 44.9722C205.19 41.2947 202.208 38.3135 198.531 38.3135C194.853 38.3135 191.872 41.2947 191.872 44.9722C191.872 48.6498 194.853 51.631 198.531 51.631Z" fill="#4F457C"/>
    <path d="M199.029 42.7145L198.014 47.2266L246.438 58.1126L247.453 53.6006L199.029 42.7145Z" fill="#4F457C"/>
    <path d="M247.571 65.2823C252.775 65.2823 256.993 61.0642 256.993 55.8609C256.993 50.6576 252.775 46.4395 247.571 46.4395C242.368 46.4395 238.15 50.6576 238.15 55.8609C238.15 61.0642 242.368 65.2823 247.571 65.2823Z" fill="#4F457C"/>
    <path d="M238.828 97.3365C235.665 97.3365 225.713 92.6814 225.713 81.8634C225.672 69.3201 231.076 54.6465 246.246 54.6465V59.2712C231.066 59.2712 230.317 78.0989 230.317 81.8736C230.317 90.0199 237.958 92.6763 238.823 92.7219L238.828 97.3365Z" fill="#4F457C"/>
    <path d="M248.528 114.808C245.669 114.806 242.928 113.669 240.906 111.647C238.885 109.626 237.748 106.885 237.745 104.026V80.0927C237.745 79.4794 237.989 78.8912 238.422 78.4576C238.856 78.0239 239.444 77.7803 240.057 77.7803C240.671 77.7803 241.259 78.0239 241.692 78.4576C242.126 78.8912 242.37 79.4794 242.37 80.0927V104.026C242.346 104.849 242.488 105.669 242.787 106.436C243.085 107.203 243.535 107.903 244.109 108.494C244.683 109.084 245.369 109.554 246.128 109.874C246.886 110.195 247.702 110.36 248.525 110.36C249.349 110.36 250.164 110.195 250.922 109.874C251.681 109.554 252.368 109.084 252.941 108.494C253.515 107.903 253.965 107.203 254.264 106.436C254.562 105.669 254.704 104.849 254.681 104.026V80.0927C254.666 79.7796 254.715 79.4667 254.825 79.1731C254.934 78.8795 255.103 78.6112 255.319 78.3845C255.535 78.1577 255.795 77.9772 256.084 77.8539C256.372 77.7306 256.682 77.667 256.995 77.667C257.309 77.667 257.619 77.7306 257.907 77.8539C258.195 77.9772 258.456 78.1577 258.672 78.3845C258.888 78.6112 259.057 78.8795 259.166 79.1731C259.276 79.4667 259.325 79.7796 259.31 80.0927V104.026C259.308 106.885 258.171 109.626 256.149 111.647C254.128 113.669 251.387 114.806 248.528 114.808Z" fill="#4F457C"/>
    <path d="M256.993 102.477C256.38 102.477 255.791 102.234 255.358 101.8C254.924 101.366 254.681 100.778 254.681 100.165C254.681 99.5516 254.924 98.9634 255.358 98.5298C255.791 98.0961 256.38 97.8525 256.993 97.8525C259.725 97.8525 268.039 97.8525 268.039 82.2479C268.039 81.6346 268.282 81.0465 268.716 80.6128C269.15 80.1792 269.738 79.9355 270.351 79.9355C270.964 79.9355 271.553 80.1792 271.986 80.6128C272.42 81.0465 272.663 81.6346 272.663 82.2479C272.663 98.9657 264.127 102.477 256.993 102.477Z" fill="#4F457C"/>
    <path d="M269.612 94.9983C269.017 94.9705 268.456 94.7144 268.044 94.2834C267.633 93.8523 267.403 93.2793 267.403 92.6834C267.403 92.0876 267.633 91.5146 268.044 91.0835C268.456 90.6524 269.017 90.3964 269.612 90.3686C277.319 90.3686 277.921 81.8275 277.921 79.2065C277.921 73.7722 274.227 67.7004 268.307 63.3591C261.628 58.4864 253.856 56.9533 246.969 59.1493C246.385 59.3358 245.75 59.2825 245.205 59.0012C244.66 58.7198 244.249 58.2334 244.062 57.649C243.876 57.0646 243.929 56.43 244.21 55.8849C244.492 55.3397 244.978 54.9287 245.563 54.7421C253.871 52.0908 263.151 53.8668 271.034 59.6249C278.149 64.8163 282.566 72.3201 282.566 79.2065C282.546 88.8 277.471 94.9983 269.612 94.9983Z" fill="#4F457C"/>
    <path d="M48.8079 161.682C48.518 161.682 48.24 161.567 48.035 161.362C47.8301 161.157 47.7149 160.879 47.7149 160.589V155.337C47.7047 155.188 47.7254 155.038 47.7756 154.897C47.8258 154.756 47.9044 154.626 48.0067 154.517C48.1089 154.407 48.2326 154.32 48.37 154.26C48.5074 154.201 48.6556 154.17 48.8053 154.17C48.9551 154.17 49.1033 154.201 49.2407 154.26C49.3781 154.32 49.5018 154.407 49.604 154.517C49.7063 154.626 49.7849 154.756 49.8351 154.897C49.8853 155.038 49.9059 155.188 49.8958 155.337V160.594C49.8944 160.882 49.7794 161.158 49.5757 161.362C49.3719 161.566 49.096 161.681 48.8079 161.682Z" fill="#88D1C3"/>
    <path d="M56.8785 164.49H51.6111C51.3348 164.472 51.0759 164.348 50.8868 164.146C50.6977 163.944 50.5925 163.677 50.5925 163.4C50.5925 163.123 50.6977 162.856 50.8868 162.654C51.0759 162.451 51.3348 162.328 51.6111 162.31H56.8735C57.1498 162.328 57.4087 162.451 57.5978 162.654C57.7869 162.856 57.8921 163.123 57.8921 163.4C57.8921 163.677 57.7869 163.944 57.5978 164.146C57.4087 164.348 57.1498 164.472 56.8735 164.49H56.8785Z" fill="#88D1C3"/>
    <path d="M48.8079 172.566C48.518 172.566 48.24 172.451 48.0351 172.246C47.8301 172.041 47.715 171.763 47.715 171.473V166.211C47.7338 165.935 47.8569 165.676 48.0593 165.487C48.2617 165.298 48.5284 165.192 48.8054 165.192C49.0824 165.192 49.349 165.298 49.5515 165.487C49.7539 165.676 49.8769 165.935 49.8958 166.211V171.473C49.8958 171.762 49.7813 172.039 49.5775 172.244C49.3736 172.449 49.0969 172.565 48.8079 172.566Z" fill="#88D1C3"/>
    <path d="M45.9946 164.49H40.7322C40.4559 164.472 40.197 164.348 40.0079 164.146C39.8188 163.944 39.7136 163.677 39.7136 163.4C39.7136 163.123 39.8188 162.856 40.0079 162.654C40.197 162.451 40.4559 162.328 40.7322 162.31H45.9946C46.2709 162.328 46.5298 162.451 46.7189 162.654C46.908 162.856 47.0132 163.123 47.0132 163.4C47.0132 163.677 46.908 163.944 46.7189 164.146C46.5298 164.348 46.2709 164.472 45.9946 164.49Z" fill="#88D1C3"/>
    <path d="M163.673 28.5832C163.546 28.5838 163.421 28.5595 163.304 28.5114C163.186 28.4634 163.08 28.3927 162.99 28.3034C162.9 28.214 162.829 28.1078 162.78 27.9909C162.732 27.8739 162.707 27.7485 162.707 27.6218V21.6309C162.724 21.3873 162.833 21.1595 163.012 20.9932C163.191 20.8268 163.426 20.7344 163.67 20.7344C163.915 20.7344 164.15 20.8268 164.329 20.9932C164.508 21.1595 164.617 21.3873 164.634 21.6309V27.6218C164.634 27.8768 164.533 28.1213 164.353 28.3016C164.173 28.4819 163.928 28.5832 163.673 28.5832Z" fill="#88D1C3"/>
    <path d="M170.787 33.0917H168.176C168.05 33.0917 167.925 33.0668 167.808 33.0185C167.692 32.9702 167.586 32.8994 167.497 32.8101C167.407 32.7208 167.336 32.6149 167.288 32.4982C167.24 32.3816 167.215 32.2566 167.215 32.1303C167.215 32.0041 167.24 31.8791 167.288 31.7624C167.336 31.6458 167.407 31.5398 167.497 31.4505C167.586 31.3613 167.692 31.2904 167.808 31.2421C167.925 31.1938 168.05 31.1689 168.176 31.1689H170.787C170.914 31.1689 171.039 31.1938 171.155 31.2421C171.272 31.2904 171.378 31.3613 171.467 31.4505C171.556 31.5398 171.627 31.6458 171.675 31.7624C171.724 31.8791 171.749 32.0041 171.749 32.1303C171.749 32.2566 171.724 32.3816 171.675 32.4982C171.627 32.6149 171.556 32.7208 171.467 32.8101C171.378 32.8994 171.272 32.9702 171.155 33.0185C171.039 33.0668 170.914 33.0917 170.787 33.0917Z" fill="#88D1C3"/>
    <path d="M163.673 43.591C163.546 43.5916 163.421 43.5673 163.304 43.5193C163.186 43.4712 163.08 43.4005 162.99 43.3112C162.9 43.2219 162.829 43.1156 162.78 42.9987C162.732 42.8817 162.707 42.7563 162.707 42.6296V36.6387C162.724 36.3952 162.833 36.1673 163.012 36.001C163.191 35.8346 163.426 35.7422 163.67 35.7422C163.915 35.7422 164.15 35.8346 164.329 36.001C164.508 36.1673 164.617 36.3952 164.634 36.6387V42.6296C164.634 42.8846 164.533 43.1291 164.353 43.3094C164.173 43.4897 163.928 43.591 163.673 43.591Z" fill="#88D1C3"/>
    <path d="M159.165 33.0917H156.554C156.427 33.0917 156.302 33.0668 156.186 33.0185C156.069 32.9702 155.963 32.8994 155.874 32.8101C155.785 32.7208 155.714 32.6149 155.665 32.4982C155.617 32.3816 155.592 32.2566 155.592 32.1303C155.592 32.0041 155.617 31.8791 155.665 31.7624C155.714 31.6458 155.785 31.5398 155.874 31.4505C155.963 31.3613 156.069 31.2904 156.186 31.2421C156.302 31.1938 156.427 31.1689 156.554 31.1689H159.165C159.291 31.1689 159.416 31.1938 159.532 31.2421C159.649 31.2904 159.755 31.3613 159.844 31.4505C159.934 31.5398 160.004 31.6458 160.053 31.7624C160.101 31.8791 160.126 32.0041 160.126 32.1303C160.126 32.2566 160.101 32.3816 160.053 32.4982C160.004 32.6149 159.934 32.7208 159.844 32.8101C159.755 32.8994 159.649 32.9702 159.532 33.0185C159.416 33.0668 159.291 33.0917 159.165 33.0917Z" fill="#88D1C3"/>
    <path d="M201.324 151.522V156.921L208.959 161.89V146.554L201.324 151.522Z" fill="#E0616D"/>
    <path d="M217.136 141.226V167.218L224.771 172.187V136.257L217.136 141.226Z" fill="#E0616D"/>
    <path d="M256.401 124.007H248.766V187.807L250.85 189.163H256.401V124.007Z" fill="#E0616D"/>
    <path d="M267.452 124.007H264.578V186.304L272.213 181.335V127.109L267.452 124.007Z" fill="#E0616D"/>
    <path d="M280.395 132.437V176.007L288.03 171.038V137.405L280.395 132.437Z" fill="#E0616D"/>
    <path d="M296.207 142.729V165.715L303.843 160.747V147.697L296.207 142.729Z" fill="#E0616D"/>
    <path d="M232.953 130.934V177.51L240.589 182.478V125.965L232.953 130.934Z" fill="#E0616D"/>
    <path d="M255.526 193.94C254.502 193.941 253.499 193.644 252.641 193.084L198.5 157.838C197.898 157.446 197.403 156.91 197.06 156.279C196.717 155.648 196.538 154.941 196.538 154.222C196.538 153.504 196.717 152.797 197.06 152.165C197.403 151.534 197.898 150.998 198.5 150.607L252.641 115.36C253.499 114.801 254.5 114.504 255.523 114.504C256.546 114.504 257.547 114.801 258.405 115.36L312.546 150.607C313.147 150.999 313.641 151.535 313.983 152.166C314.325 152.798 314.504 153.504 314.504 154.222C314.504 154.94 314.325 155.647 313.983 156.278C313.641 156.909 313.147 157.445 312.546 157.838L258.405 193.084C257.548 193.643 256.548 193.941 255.526 193.94ZM201.42 154.22L255.166 189.209C255.272 189.278 255.396 189.315 255.523 189.315C255.65 189.315 255.774 189.278 255.88 189.209L309.621 154.225L255.875 119.236C255.769 119.167 255.645 119.13 255.518 119.13C255.391 119.13 255.267 119.167 255.161 119.236L201.42 154.22Z" fill="#4F457C"/>
    <path d="M284.676 155.758L257.003 173.771C256.562 174.058 256.047 174.211 255.52 174.211C254.994 174.211 254.479 174.058 254.038 173.771L226.365 155.758C226.111 155.591 225.901 155.363 225.757 155.095C225.612 154.827 225.536 154.527 225.536 154.222C225.536 153.918 225.612 153.618 225.757 153.35C225.901 153.082 226.111 152.854 226.365 152.687L254.038 134.673C254.479 134.386 254.994 134.233 255.52 134.233C256.047 134.233 256.562 134.386 257.003 134.673L284.676 152.687C284.93 152.854 285.14 153.082 285.284 153.35C285.429 153.618 285.505 153.918 285.505 154.222C285.505 154.527 285.429 154.827 285.284 155.095C285.14 155.363 284.93 155.591 284.676 155.758Z" fill="#171735"/>
    <path d="M255.526 176.523C254.55 176.522 253.596 176.239 252.778 175.708L225.11 157.695C224.531 157.32 224.055 156.805 223.725 156.199C223.395 155.592 223.222 154.912 223.222 154.222C223.222 153.531 223.395 152.852 223.725 152.245C224.055 151.638 224.531 151.124 225.11 150.748L252.778 132.735C253.596 132.207 254.549 131.926 255.523 131.926C256.497 131.926 257.45 132.207 258.268 132.735L285.941 150.748C286.519 151.124 286.994 151.639 287.324 152.246C287.653 152.852 287.825 153.532 287.825 154.222C287.825 154.912 287.653 155.591 287.324 156.198C286.994 156.804 286.519 157.319 285.941 157.695L258.268 175.708C257.452 176.24 256.499 176.523 255.526 176.523ZM228.253 154.219L255.303 171.833C255.369 171.874 255.445 171.897 255.523 171.897C255.601 171.897 255.677 171.874 255.743 171.833L282.799 154.219L255.738 136.616C255.672 136.574 255.596 136.552 255.518 136.552C255.44 136.552 255.364 136.574 255.298 136.616L228.253 154.219Z" fill="#4F457C"/>
    <path d="M255.526 112.46C238.545 112.46 224.776 118.279 224.776 125.464V136.089C224.776 143.269 238.545 149.093 255.526 149.093C272.507 149.093 286.27 143.269 286.27 136.089V125.484C286.265 118.279 272.502 112.46 255.526 112.46Z" fill="#E0616D"/>
    <path d="M255.521 135.558C271.279 135.558 284.053 130.387 284.053 124.007C284.053 117.627 271.279 112.455 255.521 112.455C239.762 112.455 226.988 117.627 226.988 124.007C226.988 130.387 239.762 135.558 255.521 135.558Z" fill="#FF8080"/>
    <path d="M255.526 151.38C236.677 151.38 222.464 144.803 222.464 136.064V125.484C222.464 116.751 236.677 110.168 255.526 110.168C274.374 110.168 288.582 116.746 288.582 125.484V136.11C288.577 144.798 274.369 151.38 255.526 151.38ZM255.526 114.772C238.767 114.772 227.089 120.404 227.089 125.464V136.09C227.089 141.149 238.767 146.781 255.526 146.781C272.284 146.781 283.957 141.144 283.957 136.09V125.484C283.952 120.424 272.274 114.772 255.526 114.772Z" fill="#4F457C"/>
    <path d="M239.789 128.864C242.528 128.864 244.748 127.342 244.748 125.464C244.748 123.586 242.528 122.063 239.789 122.063C237.051 122.063 234.831 123.586 234.831 125.464C234.831 127.342 237.051 128.864 239.789 128.864Z" fill="white"/>
    <path d="M250.466 123.268C253.906 122.689 257.376 122.294 260.859 122.084C264.335 121.882 267.796 121.659 271.252 122.342C271.972 122.488 272.619 122.878 273.084 123.447C273.549 124.015 273.803 124.727 273.803 125.461C273.803 126.196 273.549 126.908 273.084 127.476C272.619 128.045 271.972 128.435 271.252 128.581C269.538 128.899 267.798 129.054 266.055 129.046C263.525 129.046 260.773 128.829 258.258 128.642C255.743 128.454 252.965 128.136 250.466 127.63C249.958 127.529 249.501 127.255 249.173 126.855C248.845 126.455 248.666 125.954 248.666 125.436C248.666 124.919 248.845 124.417 249.173 124.017C249.501 123.617 249.958 123.344 250.466 123.243V123.268Z" fill="white"/>
    <path d="M240.882 148.152V153.602C240.882 157.296 247.435 160.291 255.521 160.291C263.606 160.291 270.159 157.296 270.159 153.602V148.152" fill="#4F457C"/>
    <path d="M67.2665 80.052C67.8925 80.052 68.3999 79.5445 68.3999 78.9186C68.3999 78.2926 67.8925 77.7852 67.2665 77.7852C66.6405 77.7852 66.1331 78.2926 66.1331 78.9186C66.1331 79.5445 66.6405 80.052 67.2665 80.052Z" fill="#88D1C3"/>
    <path d="M83.352 43.5904C85.5373 43.5904 87.3088 41.8188 87.3088 39.6336C87.3088 37.4483 85.5373 35.6768 83.352 35.6768C81.1667 35.6768 79.3951 37.4483 79.3951 39.6336C79.3951 41.8188 81.1667 43.5904 83.352 43.5904Z" fill="#88D1C3"/>
    <path d="M24.3837 86.5337C25.6133 86.5337 26.6101 85.537 26.6101 84.3074C26.6101 83.0778 25.6133 82.0811 24.3837 82.0811C23.1541 82.0811 22.1573 83.0778 22.1573 84.3074C22.1573 85.537 23.1541 86.5337 24.3837 86.5337Z" fill="#88D1C3"/>
    <path d="M112.199 170.112C113.414 170.112 114.4 169.127 114.4 167.911C114.4 166.695 113.414 165.71 112.199 165.71C110.983 165.71 109.997 166.695 109.997 167.911C109.997 169.127 110.983 170.112 112.199 170.112Z" fill="#88D1C3"/>
    <path d="M176.272 180.237C178.418 180.237 180.158 178.497 180.158 176.351C180.158 174.205 178.418 172.465 176.272 172.465C174.126 172.465 172.386 174.205 172.386 176.351C172.386 178.497 174.126 180.237 176.272 180.237Z" fill="#88D1C3"/>
    <path d="M208.959 71.0657C210.071 71.0657 210.973 70.1641 210.973 69.0519C210.973 67.9397 210.071 67.0381 208.959 67.0381C207.847 67.0381 206.945 67.9397 206.945 69.0519C206.945 70.1641 207.847 71.0657 208.959 71.0657Z" fill="#88D1C3"/>
    <path d="M307.531 97.4524C309.529 97.4524 311.149 95.8326 311.149 93.8346C311.149 91.8365 309.529 90.2168 307.531 90.2168C305.533 90.2168 303.914 91.8365 303.914 93.8346C303.914 95.8326 305.533 97.4524 307.531 97.4524Z" fill="#88D1C3"/>
    <path d="M268.398 35.677C269.826 35.677 270.984 34.5194 270.984 33.0914C270.984 31.6635 269.826 30.5059 268.398 30.5059C266.97 30.5059 265.812 31.6635 265.812 33.0914C265.812 34.5194 266.97 35.677 268.398 35.677Z" fill="#88D1C3"/>
    <path d="M330.635 130.089C331.929 130.089 332.978 129.04 332.978 127.746C332.978 126.452 331.929 125.403 330.635 125.403C329.341 125.403 328.292 126.452 328.292 127.746C328.292 129.04 329.341 130.089 330.635 130.089Z" fill="#88D1C3"/>
    <path d="M135.651 201.757C136.959 201.757 138.019 200.696 138.019 199.389C138.019 198.081 136.959 197.021 135.651 197.021C134.343 197.021 133.283 198.081 133.283 199.389C133.283 200.696 134.343 201.757 135.651 201.757Z" fill="#88D1C3"/>
    <path d="M220.693 207.499C221.534 207.499 222.216 206.817 222.216 205.976C222.216 205.135 221.534 204.453 220.693 204.453C219.852 204.453 219.17 205.135 219.17 205.976C219.17 206.817 219.852 207.499 220.693 207.499Z" fill="#88D1C3"/>
</svg>
