<svg width="511" height="142" viewBox="0 0 511 142" fill="none" xmlns="http://www.w3.org/2000/svg">
<path d="M55.9627 76.9C56.4527 76.67 56.9527 76.41 57.4527 76.14C56.1327 76.13 54.7827 75.99 53.4227 75.71C53.3027 75.68 53.1727 75.66 53.0527 75.63C52.4927 75.51 51.9328 75.36 51.3828 75.21L47.5527 78.14C50.5227 78.51 53.4127 78.09 55.9727 76.89L55.9627 76.9Z" fill="#8D86EB"/>
<path d="M47.4119 73.7997C46.1619 73.2497 44.9519 72.6297 43.7819 71.9297C42.0019 73.0497 40.232 74.0997 38.502 75.0597C39.982 75.8797 41.5219 76.5597 43.1019 77.0897L47.4119 73.7997Z" fill="#8D86EB"/>
<path d="M34.5521 72.4202L39.3521 68.7502C37.8021 67.4402 36.3521 66.0002 35.0421 64.4502L30.1621 68.1802C31.5121 69.7602 32.9821 71.1802 34.5521 72.4202Z" fill="#8D86EB"/>
<path d="M29.8625 56.3506L25.0625 60.0206C25.8525 61.8606 26.8425 63.6606 28.0125 65.3706L32.8925 61.6406C31.7325 59.9606 30.7225 58.1906 29.8725 56.3506H29.8625Z" fill="#8D86EB"/>
<path d="M22.9417 45.9904L26.7716 43.0604C26.7716 42.4904 26.7716 41.9104 26.8016 41.3304C26.8016 41.2004 26.8117 41.0804 26.8217 40.9504C26.9117 39.5604 27.1316 38.2304 27.4616 36.9404C27.0716 37.3404 26.7016 37.7604 26.3416 38.1804C24.5216 40.3404 23.3516 43.0204 22.9316 45.9804L22.9417 45.9904Z" fill="#8D86EB"/>
<path d="M28.493 52.95C27.863 51.09 27.393 49.18 27.103 47.25L22.793 50.54C22.913 52.55 23.253 54.55 23.813 56.52L28.483 52.95H28.493Z" fill="#8D86EB"/>
<path d="M70.333 60.3901C70.313 57.5701 69.8431 54.7001 68.9431 51.8701C65.1431 55.6801 60.803 59.5301 56.103 63.2301C53.123 65.5701 50.113 67.7601 47.123 69.7601C49.253 70.8701 51.493 71.6901 53.793 72.2001C53.903 72.2201 54.013 72.2501 54.123 72.2701C58.693 73.2101 63.073 72.3001 66.473 69.7001C67.393 69.0001 68.203 68.1801 68.913 67.2901C69.803 65.3801 70.3131 63.1701 70.3231 60.7301C70.3231 60.6201 70.3231 60.5101 70.3231 60.4001L70.333 60.3901Z" fill="#86D4C9"/>
<path d="M46.4425 29.1502C46.3325 29.1202 46.2325 29.0902 46.1225 29.0602C44.6825 28.6802 43.2525 28.4902 41.8725 28.4902C39.9825 28.4902 38.2325 28.8502 36.6625 29.5002C36.4625 29.6402 36.2625 29.7702 36.0625 29.9202C32.6625 32.5202 30.6325 36.5102 30.3425 41.1602C30.3425 41.2702 30.3325 41.3802 30.3225 41.4902C29.9925 48.1902 32.2625 55.0802 36.7225 60.9102C38.6525 63.4402 40.8925 65.6202 43.3325 67.4002C46.7125 65.2002 50.1625 62.7402 53.5725 60.0602C58.6925 56.0402 63.3625 51.8402 67.3125 47.7302C66.2225 45.4202 64.8625 43.1702 63.2425 41.0502C58.7125 35.1302 52.7425 30.9002 46.4325 29.1502H46.4425Z" fill="#86D4C9"/>
<path d="M68.9419 51.86C69.8419 54.69 70.3118 57.57 70.3318 60.38C70.3318 60.49 70.3318 60.6 70.3318 60.71C70.3118 63.15 69.8119 65.36 68.9219 67.27C70.8419 64.86 71.9819 61.83 72.1919 58.44C72.1919 58.33 72.2019 58.22 72.2119 58.11C72.3519 55.24 72.0119 52.34 71.2319 49.5C70.4919 50.29 69.7319 51.07 68.9419 51.86Z" fill="white"/>
<path d="M36.6624 29.5002C38.2224 28.8402 39.9724 28.4902 41.8724 28.4902C43.2524 28.4902 44.6824 28.6802 46.1224 29.0602C46.2324 29.0902 46.3324 29.1202 46.4424 29.1502C52.7524 30.9002 58.7224 35.1302 63.2524 41.0502C64.8824 43.1802 66.2424 45.4202 67.3224 47.7302C68.1424 46.8802 68.9324 46.0302 69.6824 45.1902C68.6724 42.9202 67.3824 40.7402 65.8024 38.6802C61.3424 32.8502 55.2824 28.8502 48.7324 27.4202C48.6224 27.4002 48.5123 27.3702 48.4023 27.3502C47.2323 27.1102 46.0724 26.9902 44.9424 26.9902C41.9024 26.9902 39.0623 27.8502 36.6523 29.5002H36.6624Z" fill="white"/>
<path d="M64.9025 24.8202C63.7825 25.2802 63.1425 26.5102 63.4825 27.5602C63.6425 28.0502 63.9925 28.4402 64.4625 28.6602C64.9925 28.9102 65.6325 28.9102 66.2225 28.6602C72.7525 25.9902 77.6625 25.4001 79.0525 27.1201C80.4325 28.8401 78.7425 33.4302 74.6425 39.1002C73.8925 40.1302 73.0825 41.1802 72.2025 42.2502C67.6925 33.2702 59.3125 26.1101 49.5025 23.9601C49.3825 23.9301 49.2525 23.9102 49.1325 23.8802C43.5525 22.7302 38.1425 23.8802 33.9225 27.1102C33.7825 27.2102 33.6625 27.3402 33.5325 27.4402L33.3125 27.5802C33.0825 27.7302 27.5225 31.3102 23.6525 35.8902C21.0825 38.9301 19.5725 42.7802 19.2825 47.0102C19.2825 47.1402 19.2625 47.2602 19.2625 47.3902C18.7025 57.5702 23.5425 67.6302 31.2325 74.2502C30.1925 74.7402 29.1725 75.1902 28.1725 75.6002C21.6425 78.2701 16.7325 78.8602 15.3425 77.1402C13.9625 75.4202 15.6525 70.8301 19.7525 65.1601C20.1225 64.6502 20.2625 64.0302 20.1425 63.4602C20.0325 62.9502 19.7225 62.5202 19.2725 62.2502C18.3225 61.6902 16.9725 62.0202 16.2725 63.0002C9.19247 72.7802 9.9425 77.6102 11.8025 79.9302C13.0825 81.5202 15.1225 82.3202 17.9025 82.3202C18.6925 82.3202 19.5425 82.2602 20.4425 82.1301C23.0025 81.7602 26.0425 80.8601 29.4925 79.4501C31.2225 78.7402 33.0225 77.9101 34.8625 76.9801C38.0125 79.0301 41.5025 80.5302 45.2025 81.3202C45.3225 81.3502 45.4525 81.3701 45.5725 81.4001C46.9225 81.6701 48.2725 81.8001 49.6025 81.8001C52.3525 81.8001 55.0125 81.2301 57.4425 80.0901C61.8625 78.0301 66.3725 74.3202 68.0225 72.8902C68.2225 72.7502 68.4225 72.6201 68.6125 72.4801C72.8325 69.2501 75.3525 64.3401 75.7125 58.6501C75.7125 58.5201 75.7225 58.4002 75.7325 58.2701C75.9325 54.2501 75.2825 50.2402 73.9725 46.4502C75.5025 44.6802 76.8825 42.9502 78.1125 41.2602C85.1925 31.4802 84.4425 26.6502 82.5825 24.3302C80.7125 22.0102 76.1325 20.2102 64.9025 24.8102V24.8202ZM72.2225 58.1002C72.2225 58.2102 72.2125 58.3202 72.2025 58.4302C71.9925 61.8202 70.8425 64.8601 68.9325 67.2601C68.2225 68.1501 67.4125 68.9701 66.4925 69.6702C63.0925 72.2701 58.7125 73.1801 54.1425 72.2402C54.0325 72.2201 53.9225 72.1902 53.8125 72.1702C51.5125 71.6702 49.2725 70.8401 47.1425 69.7301C50.1225 67.7301 53.1425 65.5401 56.1225 63.2001C60.8225 59.5102 65.1625 55.6602 68.9625 51.8402C69.7525 51.0501 70.5125 50.2602 71.2525 49.4802C72.0325 52.3202 72.3725 55.2201 72.2325 58.0901L72.2225 58.1002ZM48.4225 27.3402C48.5325 27.3602 48.6425 27.3902 48.7525 27.4102C55.3025 28.8402 61.3625 32.8502 65.8225 38.6702C67.3925 40.7302 68.6925 42.9102 69.7025 45.1802C68.9425 46.0202 68.1625 46.8702 67.3425 47.7202C63.3925 51.8302 58.7225 56.0301 53.6025 60.0501C50.1925 62.7301 46.7425 65.1902 43.3625 67.3902C40.9225 65.6102 38.6825 63.4301 36.7525 60.9001C32.2925 55.0701 30.0225 48.1702 30.3525 41.4802C30.3525 41.3701 30.3625 41.2602 30.3725 41.1502C30.6625 36.5002 32.6925 32.5002 36.0925 29.9102C36.2825 29.7602 36.4925 29.6302 36.6925 29.4902C39.1025 27.8402 41.9425 26.9802 44.9825 26.9802C46.1125 26.9802 47.2725 27.1002 48.4425 27.3402H48.4225ZM28.0125 65.3701C26.8425 63.6601 25.8525 61.8701 25.0625 60.0201L29.8625 56.3502C30.7125 58.1902 31.7325 59.9602 32.8825 61.6402L28.0025 65.3701H28.0125ZM27.1025 47.2402C27.3925 49.1802 27.8625 51.0902 28.4925 52.9402L23.8225 56.5101C23.2625 54.5401 22.9125 52.5302 22.8025 50.5302L27.1125 47.2402H27.1025ZM26.8225 40.9402C26.8225 41.0702 26.8125 41.1902 26.8025 41.3202C26.7725 41.9002 26.7725 42.4701 26.7725 43.0501L22.9425 45.9802C23.3625 43.0102 24.5325 40.3402 26.3525 38.1802C26.7125 37.7602 27.0825 37.3502 27.4725 36.9402C27.1325 38.2202 26.9125 39.5602 26.8325 40.9502L26.8225 40.9402ZM35.0325 64.4401C36.3425 66.0001 37.7925 67.4402 39.3425 68.7402L34.5425 72.4101C32.9725 71.1701 31.5025 69.7402 30.1525 68.1702L35.0325 64.4401ZM43.7825 71.9202C44.9525 72.6202 46.1625 73.2501 47.4125 73.7901L43.1025 77.0801C41.5225 76.5501 39.9825 75.8701 38.5025 75.0501C40.2325 74.0801 42.0025 73.0401 43.7825 71.9202ZM51.3725 75.2102C51.9225 75.3702 52.4825 75.5102 53.0425 75.6301C53.1625 75.6601 53.2925 75.6802 53.4125 75.7102C54.7725 75.9902 56.1225 76.1302 57.4425 76.1402C56.9425 76.4102 56.4525 76.6701 55.9525 76.9001C53.3925 78.0901 50.5025 78.5201 47.5325 78.1501L51.3625 75.2201L51.3725 75.2102Z" fill="#38237C"/>
<path d="M103.962 90.2002C103.962 90.2002 104.042 90.2002 104.082 90.2102C106.552 90.4702 109.172 91.6402 111.462 93.5202C113.752 95.3902 115.422 97.7202 116.172 100.08C116.182 100.12 116.192 100.16 116.212 100.2C116.372 100.74 116.462 101.27 116.482 101.77C116.482 101.89 116.462 102 116.462 102.12C116.722 101.52 116.882 100.87 116.902 100.18C116.912 99.7702 116.882 99.3502 116.812 98.9202L116.792 98.8102C116.322 96.2902 114.882 93.9402 112.712 92.1702C110.592 90.4402 108.062 89.4902 105.572 89.4902C105.522 89.4902 105.472 89.4902 105.412 89.4902H105.282C104.292 89.5202 103.382 89.7802 102.602 90.2202C103.032 90.1702 103.472 90.1502 103.952 90.1902L103.962 90.2002Z" fill="white"/>
<path d="M100.722 106.85C102.852 108.6 105.412 109.55 107.932 109.47H108.052C109.312 109.42 110.442 109.02 111.342 108.31C111.422 108.25 111.502 108.17 111.582 108.11C111.522 108.11 111.472 108.11 111.412 108.11C104.832 108.11 98.5622 102.94 97.3322 96.4805C97.2822 96.5605 97.2322 96.6505 97.1922 96.7305C96.6722 97.7505 96.5122 98.9505 96.7122 100.18L95.9922 100.4L96.7322 100.3C97.1722 102.77 98.5922 105.1 100.722 106.85Z" fill="#8D86EB"/>
<path d="M101.223 91.3802C100.263 92.5502 99.8931 94.1002 100.173 95.7502L100.193 95.8702C100.653 98.3702 102.103 100.72 104.263 102.49C106.433 104.26 108.983 105.24 111.563 105.17H111.693C113.353 105.12 114.803 104.45 115.763 103.28C116.053 102.93 116.273 102.53 116.453 102.11C116.453 101.99 116.483 101.88 116.473 101.76C116.453 101.26 116.363 100.73 116.203 100.19C116.193 100.15 116.183 100.11 116.163 100.07C115.423 97.7102 113.743 95.3802 111.453 93.5102C109.163 91.6402 106.543 90.4702 104.073 90.2002C104.033 90.2002 103.993 90.2002 103.953 90.1902C103.473 90.1502 103.023 90.1702 102.603 90.2202C102.073 90.5202 101.603 90.9102 101.223 91.3802Z" fill="#FF8486"/>
<path d="M119.673 98.2606C118.463 91.7006 112.013 86.4406 105.373 86.5606H105.213C102.683 86.6406 100.463 87.6906 98.9527 89.5306C98.8327 89.6706 98.7427 89.8406 98.6327 89.9906H98.6227C98.6227 89.9906 95.7327 93.1106 94.5627 95.4106C94.0227 96.4806 93.7227 97.6406 93.6827 98.8806C93.6627 99.4706 93.7027 100.071 93.8027 100.691L93.8227 100.831C94.9727 107.271 101.163 112.421 107.703 112.421C107.793 112.421 107.893 112.421 107.983 112.421H108.153C110.033 112.351 111.763 111.731 113.153 110.631C115.203 109.011 117.413 105.911 117.433 105.881L117.643 105.571C117.773 105.431 117.903 105.301 118.023 105.151C119.523 103.311 120.123 100.931 119.693 98.4406L119.663 98.2706L119.673 98.2606ZM102.603 90.2206C103.383 89.7706 104.293 89.5206 105.283 89.4906H105.413C105.463 89.4906 105.513 89.4906 105.573 89.4906C108.063 89.4906 110.593 90.4406 112.713 92.1706C114.883 93.9406 116.323 96.2906 116.793 98.8106L116.813 98.9206C116.883 99.3406 116.913 99.7606 116.903 100.181C116.883 100.871 116.723 101.521 116.463 102.121C116.283 102.541 116.063 102.941 115.773 103.291C114.813 104.461 113.373 105.131 111.703 105.181H111.573C109.003 105.251 106.443 104.271 104.273 102.501C102.103 100.731 100.663 98.3806 100.203 95.8806L100.183 95.7606C99.9027 94.1106 100.273 92.5606 101.233 91.3906C101.623 90.9206 102.093 90.5306 102.613 90.2306L102.603 90.2206ZM95.9827 100.401L96.7027 100.181C96.5027 98.9406 96.6627 97.7506 97.1827 96.7306C97.2227 96.6506 97.2827 96.5606 97.3227 96.4806C98.5527 102.941 104.823 108.111 111.403 108.111C111.463 108.111 111.513 108.111 111.573 108.111C111.493 108.181 111.413 108.251 111.333 108.311C110.433 109.021 109.293 109.421 108.043 109.461H107.923C105.403 109.551 102.843 108.591 100.713 106.841C98.5827 105.091 97.1627 102.771 96.7227 100.291L95.9827 100.391V100.401Z" fill="#38237C"/>
<path d="M466.414 46.7794C466.324 48.9094 466.844 50.8694 467.864 52.5094C467.634 51.4394 467.594 50.2494 467.774 48.9794C467.774 48.9094 467.794 48.8394 467.804 48.7694C468.104 46.8494 468.764 44.8994 469.704 42.9994C469.024 42.2794 468.364 41.5694 467.734 40.8594C466.984 42.7094 466.524 44.6294 466.424 46.5594V46.7794H466.414Z" fill="white"/>
<path d="M485.525 29.9993C485.595 29.9893 485.665 29.9693 485.725 29.9593C486.655 29.7693 487.565 29.6993 488.415 29.7393C489.205 29.7793 489.935 29.9293 490.615 30.1593C489.285 29.1693 487.695 28.5493 485.955 28.3693C485.595 28.3293 485.235 28.3193 484.865 28.3193C484.495 28.3193 484.105 28.3393 483.725 28.3793L483.515 28.3993C479.215 28.8893 475.065 31.0593 471.815 34.5093C470.805 35.5893 469.935 36.7493 469.195 37.9593C469.855 38.7393 470.545 39.5193 471.275 40.3093C472.075 39.1193 472.975 37.9693 473.995 36.8893C477.355 33.3293 481.445 30.8893 485.515 29.9993H485.525Z" fill="white"/>
<path d="M497.044 36.6699C497.094 37.2499 497.114 37.8299 497.094 38.4299V38.6799C497.044 39.4399 496.944 40.1899 496.814 40.9299L498.784 42.7799C498.864 40.5599 498.284 38.4899 497.134 36.7899C497.104 36.7499 497.074 36.7099 497.044 36.6699Z" fill="#8D86EB"/>
<path d="M496.033 44.0488C495.523 45.5588 494.843 47.0188 494.023 48.3888L496.533 50.7588C497.333 49.2988 497.943 47.7588 498.323 46.1888L496.043 44.0488H496.033Z" fill="#8D86EB"/>
<path d="M485.805 56.6094C484.895 57.1494 483.945 57.6494 482.965 58.0494L485.255 60.1994C486.495 59.7994 487.705 59.2594 488.855 58.5894C487.855 57.9694 486.825 57.3094 485.805 56.6094Z" fill="#8D86EB"/>
<path d="M481.704 60.9293L481.904 60.9093H481.914L479.914 59.0293C479.124 59.2193 478.324 59.3793 477.514 59.4793L477.264 59.5093C476.784 59.5593 476.304 59.5793 475.834 59.5793C475.724 59.5793 475.614 59.5693 475.504 59.5593C475.544 59.5893 475.584 59.6193 475.634 59.6393C477.394 60.6893 479.504 61.1393 481.714 60.9293H481.704Z" fill="#8D86EB"/>
<path d="M494.974 53.149L492.424 50.749C491.504 51.939 490.464 53.049 489.334 54.049L491.894 56.449C492.454 55.969 492.994 55.469 493.504 54.929C494.034 54.359 494.524 53.769 494.984 53.159L494.974 53.149Z" fill="#8D86EB"/>
<path d="M488.425 29.7392C487.565 29.6892 486.655 29.7692 485.735 29.9592C485.665 29.9692 485.595 29.9892 485.535 29.9992C481.465 30.8792 477.375 33.3292 474.015 36.8892C472.995 37.9692 472.085 39.1292 471.295 40.3092C473.695 42.8992 476.475 45.5392 479.505 48.0892C481.665 49.9092 483.855 51.5992 486.005 53.1192C487.025 52.3692 487.995 51.5292 488.895 50.5692C492.145 47.1192 494.065 42.8392 494.295 38.5192V38.3092C494.425 35.3392 493.395 32.6692 491.415 30.8092C491.165 30.5792 490.905 30.3692 490.635 30.1592C489.965 29.9292 489.225 29.7792 488.435 29.7392H488.425Z" fill="#FF8486"/>
<path d="M467.775 48.9693C467.595 50.2393 467.635 51.4293 467.865 52.4993C468.265 53.1493 468.745 53.7493 469.305 54.2693C471.285 56.1293 474.005 56.9993 476.975 56.6993L477.195 56.6793C479.285 56.4393 481.335 55.7993 483.275 54.8193C481.375 53.4393 479.465 51.9493 477.565 50.3493C474.705 47.9393 472.065 45.4493 469.715 42.9893C468.765 44.8893 468.115 46.8293 467.815 48.7593C467.805 48.8293 467.795 48.8993 467.785 48.9693H467.775Z" fill="#FF8486"/>
<path d="M506.945 62.7388C508.265 61.2188 508.865 57.9888 504.255 51.2288C503.745 50.4888 502.785 50.2088 502.065 50.5888C501.715 50.7688 501.474 51.0888 501.384 51.4688C501.284 51.8888 501.374 52.3588 501.634 52.7488C504.734 57.2988 505.064 59.8088 504.394 60.5788C503.724 61.3488 501.154 61.4288 496.104 59.1088C495.484 58.8188 494.845 58.5088 494.195 58.1788C498.455 54.3288 501.324 48.8888 501.594 43.1288V42.8788C501.704 40.0588 500.964 37.3988 499.464 35.2088C497.224 31.9188 493.825 29.2188 493.685 29.0988L493.565 28.9988C493.485 28.9188 493.414 28.8388 493.334 28.7588C490.754 26.3288 487.245 25.1888 483.445 25.5788L483.204 25.6088C476.784 26.3388 470.934 30.2788 467.324 35.6488C466.804 34.9688 466.315 34.2988 465.865 33.6388C462.765 29.0888 462.434 26.5788 463.104 25.8088C463.774 25.0388 466.344 24.9588 471.394 27.2788C471.824 27.4788 472.304 27.4888 472.714 27.3188C473.074 27.1688 473.344 26.8888 473.474 26.5188C473.744 25.7488 473.315 24.8388 472.495 24.4688C465.015 21.0388 461.875 22.1288 460.565 23.6488C459.245 25.1688 458.645 28.3988 463.255 35.1588C463.985 36.2288 464.824 37.3388 465.734 38.4688C464.534 40.9488 463.774 43.6388 463.634 46.4088V46.6588C463.464 50.4588 464.804 53.8888 467.394 56.3188C467.514 56.4288 467.635 56.5288 467.755 56.6288C468.775 57.7088 471.445 60.4088 474.195 62.0488C475.735 62.9688 477.444 63.5288 479.284 63.7188C479.734 63.7688 480.194 63.7888 480.654 63.7888C481.114 63.7888 481.544 63.7688 481.984 63.7288L482.224 63.7088C485.604 63.3488 488.805 62.0788 491.615 60.1888C492.785 60.8288 493.924 61.4188 495.014 61.9188C497.284 62.9588 499.304 63.6588 501.014 63.9788C501.784 64.1288 502.504 64.1988 503.154 64.1988C504.834 64.1988 506.105 63.7088 506.945 62.7388ZM489.334 54.0488C490.464 53.0488 491.504 51.9388 492.424 50.7488L494.974 53.1488C494.514 53.7588 494.035 54.3588 493.495 54.9188C492.985 55.4588 492.444 55.9588 491.884 56.4388L489.324 54.0388L489.334 54.0488ZM494.024 48.3988C494.844 47.0188 495.534 45.5688 496.034 44.0588L498.315 46.1988C497.935 47.7688 497.334 49.3088 496.524 50.7688L494.014 48.3988H494.024ZM496.824 40.9388C496.954 40.1988 497.044 39.4388 497.094 38.6888V38.4388C497.134 37.8388 497.105 37.2588 497.055 36.6788C497.085 36.7188 497.114 36.7588 497.144 36.7988C498.304 38.4988 498.874 40.5688 498.794 42.7888L496.824 40.9388ZM491.404 30.8188C493.384 32.6888 494.414 35.3488 494.294 38.3188V38.5288C494.054 42.8488 492.134 47.1288 488.884 50.5788C487.984 51.5288 487.015 52.3788 485.995 53.1288C483.845 51.6088 481.655 49.9188 479.495 48.0988C476.455 45.5388 473.684 42.8988 471.284 40.3188C470.554 39.5288 469.854 38.7488 469.204 37.9688C469.944 36.7588 470.814 35.5988 471.824 34.5188C475.074 31.0688 479.234 28.8988 483.524 28.4088L483.734 28.3888C484.114 28.3488 484.495 28.3288 484.875 28.3288C485.255 28.3288 485.604 28.3488 485.964 28.3788C487.704 28.5588 489.295 29.1788 490.625 30.1688C490.895 30.3688 491.154 30.5788 491.404 30.8188ZM469.704 43.0088C472.044 45.4688 474.695 47.9588 477.555 50.3688C479.445 51.9588 481.364 53.4488 483.264 54.8388C481.334 55.8288 479.275 56.4688 477.185 56.6988L476.964 56.7188C474.004 57.0188 471.284 56.1488 469.294 54.2888C468.734 53.7588 468.254 53.1588 467.854 52.5188C466.834 50.8888 466.324 48.9188 466.404 46.7888V46.5688C466.514 44.6388 466.974 42.7088 467.724 40.8688C468.354 41.5788 469.015 42.2888 469.695 43.0088H469.704ZM475.815 59.5888C476.285 59.5888 476.765 59.5688 477.245 59.5188L477.495 59.4888C478.305 59.3988 479.104 59.2388 479.894 59.0388L481.894 60.9188H481.884L481.685 60.9388C479.465 61.1488 477.364 60.6988 475.604 59.6488C475.564 59.6188 475.524 59.5888 475.474 59.5688C475.584 59.5688 475.695 59.5888 475.805 59.5888H475.815ZM482.954 58.0588C483.934 57.6488 484.874 57.1588 485.794 56.6188C486.824 57.3188 487.844 57.9788 488.844 58.5988C487.684 59.2688 486.485 59.8088 485.245 60.2088L482.954 58.0588Z" fill="#38237C"/>
<path d="M425.533 70.5494C424.903 70.6694 424.273 70.8594 423.653 71.1094L423.473 71.1794C419.943 72.6794 416.953 75.5894 415.053 79.3494C413.153 83.1094 412.614 87.2394 413.504 90.9794L413.553 91.1694C414.073 93.1994 415.163 94.8694 416.663 96.0194C416.183 95.1494 415.843 94.1394 415.663 92.9894C415.663 92.9294 415.643 92.8694 415.633 92.7994C415.113 89.0894 415.903 84.8894 417.883 80.9694C419.853 77.0494 422.743 73.9094 426.033 72.1194C426.083 72.0894 426.143 72.0594 426.203 72.0294C426.953 71.6294 427.723 71.3394 428.473 71.1694C429.043 71.0394 429.603 70.9794 430.133 70.9794C429.193 70.5994 428.183 70.3994 427.143 70.3994C426.613 70.3994 426.073 70.4494 425.533 70.5494Z" fill="white"/>
<path d="M437.214 95.1797L433.834 93.4697C433.084 94.4397 432.244 95.3297 431.334 96.1497L434.524 97.7497C435.504 97.0097 436.404 96.1497 437.214 95.1797Z" fill="#8D86EB"/>
<path d="M440.364 89.6997L436.934 87.9697C436.514 89.0597 436.014 90.1097 435.424 91.1097L438.864 92.8497C439.094 92.4597 439.324 92.0697 439.524 91.6597C439.844 91.0197 440.114 90.3597 440.364 89.6997Z" fill="#8D86EB"/>
<path d="M437.785 85.2391L441.135 86.9291C441.375 85.6791 441.475 84.4291 441.425 83.1891L438.315 81.6191C438.255 82.8391 438.065 84.0491 437.785 85.2491V85.2391Z" fill="#8D86EB"/>
<path d="M438.063 75.3388C437.833 75.1588 437.603 74.9788 437.363 74.7988C437.523 75.2388 437.673 75.6888 437.793 76.1588L437.843 76.3788C438.003 77.0488 438.113 77.7188 438.193 78.3988L440.883 79.7588C440.373 77.9688 439.403 76.4388 438.063 75.3388Z" fill="#8D86EB"/>
<path d="M431.005 99.7688L431.175 99.6988C431.335 99.6288 431.495 99.5488 431.655 99.4688L428.825 98.0488C427.995 98.5688 427.145 99.0488 426.235 99.4288L426.025 99.5188C425.595 99.6988 425.155 99.8488 424.715 99.9688C424.995 100.059 425.265 100.139 425.535 100.209C427.295 100.659 429.185 100.499 430.995 99.7688H431.005Z" fill="#8D86EB"/>
<path d="M443.694 79.2793C443.044 76.7993 441.714 74.6793 439.844 73.1493C437.154 70.9593 433.664 69.5093 433.274 69.3593L432.724 69.1393C432.484 68.9993 432.254 68.8493 432.004 68.7193C429.124 67.2693 425.774 67.1893 422.584 68.4993L422.374 68.5893C413.794 72.2393 408.594 82.5793 410.764 91.6493L410.814 91.8693C411.664 95.2193 413.724 97.8594 416.604 99.3094C416.894 99.4594 417.194 99.5693 417.494 99.6893C418.124 100.069 421.594 102.119 424.844 102.949C425.734 103.179 426.644 103.289 427.554 103.289C428.264 103.289 428.984 103.219 429.704 103.089C430.494 102.939 431.284 102.709 432.054 102.399L432.264 102.309C440.814 98.7293 445.964 88.4993 443.744 79.4993L443.684 79.2793H443.694ZM441.134 86.9393L437.784 85.2493C438.064 84.0593 438.254 82.8393 438.314 81.6193L441.424 83.1893C441.474 84.4293 441.374 85.6793 441.134 86.9293V86.9393ZM430.134 70.9893C430.334 71.0693 430.544 71.1493 430.734 71.2493C432.874 72.3293 434.414 74.3193 435.074 76.9293L435.104 77.0493C436.004 80.7893 435.454 84.9193 433.554 88.6793C431.664 92.4393 428.664 95.3493 425.134 96.8493L424.964 96.9193C422.534 97.9093 420.024 97.8693 417.884 96.7893C417.454 96.5693 417.054 96.3094 416.674 96.0194C415.164 94.8794 414.074 93.1993 413.564 91.1693L413.514 90.9793C412.614 87.2393 413.164 83.1093 415.064 79.3493C416.954 75.5893 419.944 72.6793 423.484 71.1793L423.664 71.1093C424.284 70.8593 424.914 70.6693 425.544 70.5493C426.084 70.4493 426.624 70.3993 427.154 70.3993C428.194 70.3993 429.194 70.5993 430.144 70.9793L430.134 70.9893ZM426.034 99.5293L426.244 99.4393C427.154 99.0493 428.004 98.5794 428.834 98.0594L431.664 99.4793C431.504 99.5493 431.344 99.6393 431.184 99.7093L431.014 99.7793C429.194 100.509 427.304 100.669 425.554 100.219C425.284 100.149 425.014 100.069 424.734 99.9793C425.174 99.8493 425.614 99.6993 426.044 99.5293H426.034ZM431.334 96.1593C432.244 95.3493 433.074 94.4493 433.834 93.4793L437.214 95.1893C436.404 96.1593 435.494 97.0193 434.524 97.7593L431.334 96.1593ZM435.424 91.1294C436.014 90.1194 436.514 89.0693 436.934 87.9893L440.364 89.7193C440.124 90.3793 439.854 91.0393 439.524 91.6793C439.314 92.0893 439.094 92.4793 438.864 92.8693L435.424 91.1294ZM438.204 78.4093C438.124 77.7293 438.014 77.0593 437.854 76.3893L437.804 76.1693C437.684 75.6993 437.534 75.2494 437.374 74.8094C437.614 74.9794 437.854 75.1593 438.074 75.3493C439.414 76.4493 440.384 77.9693 440.894 79.7693L438.204 78.4093Z" fill="#38237C"/>
<path d="M428.475 71.1693C427.725 71.3493 426.955 71.6393 426.205 72.0293C426.155 72.0593 426.095 72.0893 426.035 72.1193C422.755 73.9093 419.855 77.0493 417.885 80.9693C415.915 84.8893 415.115 89.0893 415.635 92.7993C415.635 92.8593 415.655 92.9193 415.665 92.9893C415.845 94.1393 416.185 95.1493 416.665 96.0193C417.045 96.3093 417.445 96.5693 417.875 96.7893C420.015 97.8693 422.535 97.9093 424.955 96.9193L425.125 96.8493C428.665 95.3493 431.655 92.4393 433.545 88.6793C435.445 84.9193 435.985 80.7893 435.095 77.0493L435.065 76.9293C434.405 74.3293 432.865 72.3293 430.725 71.2493C430.525 71.1493 430.325 71.0693 430.125 70.9893C429.585 70.9893 429.035 71.0493 428.465 71.1793L428.475 71.1693Z" fill="#86D4C9"/>
<path d="M390.005 41.4994C391.925 43.5394 394.365 44.8194 396.895 45.1094H397.015C398.015 45.2194 398.955 45.0894 399.785 44.7494C399.355 44.7494 398.915 44.7094 398.435 44.5994C398.395 44.5994 398.355 44.5794 398.315 44.5694C395.905 43.9894 393.455 42.4894 391.425 40.3294C389.395 38.1794 388.045 35.6494 387.605 33.2094C387.605 33.1694 387.595 33.1294 387.585 33.0894C387.495 32.5294 387.475 31.9994 387.515 31.4894C387.525 31.3694 387.565 31.2594 387.585 31.1494C387.245 31.7094 387.005 32.3394 386.895 33.0194C386.825 33.4194 386.805 33.8494 386.815 34.2694V34.3994C386.955 36.9394 388.085 39.4594 390.005 41.4894V41.4994Z" fill="white"/>
<path d="M406.915 35.6392V35.5292C406.795 32.9992 405.685 30.5092 403.795 28.4992C401.905 26.4892 399.485 25.2392 396.985 24.9692H396.865C395.615 24.8392 394.435 25.0892 393.455 25.6692C393.375 25.7192 393.275 25.7892 393.195 25.8392C399.795 26.6092 405.435 32.5992 405.815 39.2192C405.875 39.1392 405.935 39.0592 405.985 38.9892C406.635 38.0392 406.955 36.8792 406.905 35.6292L406.915 35.6392Z" fill="#8D86EB"/>
<path d="M397.305 22.0595L397.144 22.0395C395.274 21.8695 393.484 22.2495 391.954 23.1595C389.744 24.4795 387.124 27.2895 387.094 27.3095L386.844 27.5895C386.694 27.7095 386.555 27.8195 386.415 27.9495C384.685 29.5795 383.784 31.8695 383.884 34.3995V34.5595C384.244 41.2195 389.925 47.2595 396.565 48.0195L396.714 48.0395C397.034 48.0695 397.355 48.0895 397.665 48.0895C399.815 48.0895 401.795 47.3295 403.305 45.9095C403.445 45.7795 403.555 45.6295 403.675 45.4995H403.685C403.685 45.4995 406.955 42.7895 408.415 40.6495C409.085 39.6595 409.535 38.5395 409.735 37.3295C409.835 36.7495 409.864 36.1495 409.844 35.5495V35.3795C409.524 28.7495 403.905 22.7695 397.305 22.0595ZM405.815 39.2395C405.425 32.6195 399.785 26.6295 393.195 25.8595C393.285 25.7995 393.374 25.7395 393.454 25.6895C394.434 25.0995 395.615 24.8595 396.865 24.9695H396.985C399.485 25.2495 401.905 26.5095 403.795 28.5195C405.685 30.5295 406.784 33.0195 406.904 35.5495V35.6595C406.954 36.9095 406.635 38.0695 405.985 39.0195C405.935 39.0895 405.865 39.1795 405.815 39.2495V39.2395ZM386.884 33.0295C386.994 32.3495 387.244 31.7195 387.574 31.1595C387.804 30.7695 388.085 30.3995 388.415 30.0895C389.515 29.0495 391.035 28.5795 392.695 28.7395H392.824C395.344 29.0395 397.794 30.3195 399.714 32.3595C401.634 34.3995 402.764 36.9195 402.894 39.4495L403.644 39.4095L402.904 39.5795C402.974 41.2495 402.405 42.7395 401.295 43.7695C400.855 44.1895 400.334 44.5095 399.774 44.7395C398.944 45.0795 398.005 45.2195 397.005 45.1095H396.884C394.364 44.8095 391.915 43.5295 389.995 41.4895C388.075 39.4495 386.945 36.9295 386.815 34.3995V34.2695C386.795 33.8395 386.814 33.4195 386.884 33.0195V33.0295Z" fill="#38237C"/>
<path d="M387.584 33.0993C387.584 33.0993 387.594 33.1793 387.604 33.2193C388.034 35.6593 389.394 38.1893 391.424 40.3393C393.454 42.4893 395.904 43.9993 398.314 44.5793C398.354 44.5793 398.394 44.5993 398.434 44.6093C398.904 44.7193 399.354 44.7493 399.784 44.7593C400.344 44.5293 400.864 44.2093 401.304 43.7893C402.404 42.7493 402.974 41.2593 402.914 39.5993L403.654 39.4393L402.904 39.4793C402.774 36.9393 401.644 34.4193 399.724 32.3893C397.804 30.3493 395.364 29.0693 392.834 28.7793H392.704C391.054 28.5993 389.524 29.0793 388.424 30.1093C388.094 30.4193 387.814 30.7893 387.584 31.1793C387.564 31.2993 387.524 31.3993 387.514 31.5193C387.464 32.0193 387.494 32.5593 387.584 33.1193V33.0993Z" fill="#77A4F2"/>
<path d="M53.0127 93.4199C51.7927 93.4199 50.8027 94.4099 50.8027 95.6299C50.8027 96.8499 51.7927 97.8399 53.0127 97.8399C54.2327 97.8399 55.2227 96.8499 55.2227 95.6299C55.2227 94.4099 54.2327 93.4199 53.0127 93.4199Z" fill="#86D4C9"/>
<path d="M399.935 113.249C399.175 113.249 398.555 113.869 398.555 114.629C398.555 115.389 399.175 116.009 399.935 116.009C400.695 116.009 401.315 115.389 401.315 114.629C401.315 113.869 400.695 113.249 399.935 113.249Z" fill="#86D4C9"/>
<path d="M431.013 37.5195C430.253 37.5195 429.633 38.1395 429.633 38.8995C429.633 39.6595 430.253 40.2795 431.013 40.2795C431.773 40.2795 432.393 39.6595 432.393 38.8995C432.393 38.1395 431.773 37.5195 431.013 37.5195Z" fill="#86D4C9"/>
<path d="M373.233 87.3887C372.013 87.3887 371.023 88.3787 371.023 89.5987C371.023 90.8187 372.013 91.8087 373.233 91.8087C374.453 91.8087 375.443 90.8187 375.443 89.5987C375.443 88.3787 374.453 87.3887 373.233 87.3887Z" fill="#86D4C9"/>
<path d="M506.133 107.699C503.633 107.699 501.604 109.729 501.604 112.229C501.604 114.729 503.633 116.759 506.133 116.759C508.633 116.759 510.664 114.729 510.664 112.229C510.664 109.729 508.633 107.699 506.133 107.699Z" fill="#86D4C9"/>
<path d="M371.624 57.1197C371.674 56.5097 371.224 55.9697 370.604 55.9197C370.544 55.9197 370.484 55.9197 370.414 55.9197H367.994C365.424 55.9197 363.334 53.8297 363.334 51.2597V44.9397C363.284 44.3297 362.744 43.8697 362.134 43.9197C361.594 43.9697 361.164 44.3897 361.114 44.9397V51.2597C361.114 53.8297 359.024 55.9197 356.454 55.9197H354.024C353.414 55.9697 352.954 56.5097 353.004 57.1197C353.054 57.6597 353.474 58.0897 354.024 58.1397H356.454C359.024 58.1397 361.114 60.2297 361.114 62.7997V69.1197C361.164 69.7297 361.704 70.1897 362.314 70.1397C362.854 70.0897 363.284 69.6697 363.334 69.1197V62.7997C363.334 60.2297 365.424 58.1397 367.994 58.1397H370.414C371.024 58.1897 371.564 57.7397 371.614 57.1197H371.624Z" fill="#86D4C9"/>
<path d="M474.274 85.1593C474.274 85.1593 474.204 85.1593 474.174 85.1593H472.834C471.404 85.1593 470.244 83.9993 470.244 82.5693V79.0693C470.214 78.7293 469.914 78.4793 469.574 78.5093C469.274 78.5393 469.034 78.7693 469.014 79.0693V82.5693C469.014 83.9993 467.854 85.1593 466.424 85.1593H465.074C464.734 85.1893 464.484 85.4893 464.514 85.8293C464.544 86.1293 464.774 86.3693 465.074 86.3893H466.424C467.854 86.3893 469.014 87.5493 469.014 88.9793V92.4793C469.044 92.8193 469.344 93.0693 469.684 93.0393C469.984 93.0093 470.224 92.7793 470.244 92.4793V88.9793C470.244 87.5493 471.404 86.3893 472.834 86.3893H474.174C474.514 86.4193 474.814 86.1693 474.844 85.8293C474.874 85.4893 474.624 85.1893 474.284 85.1593H474.274Z" fill="#86D4C9"/>
<path d="M156.882 117.99C156.122 117.99 155.502 118.61 155.502 119.37C155.502 120.13 156.122 120.75 156.882 120.75C157.642 120.75 158.262 120.13 158.262 119.37C158.262 118.61 157.642 117.99 156.882 117.99Z" fill="#86D4C9"/>
<path d="M20.3116 115.05C19.5516 115.05 18.9316 115.67 18.9316 116.43C18.9316 117.19 19.5516 117.81 20.3116 117.81C21.0716 117.81 21.6917 117.19 21.6917 116.43C21.6917 115.67 21.0716 115.05 20.3116 115.05Z" fill="#86D4C9"/>
<path d="M122.333 25.9601C122.333 25.9601 122.263 25.9601 122.233 25.9601H120.893C119.463 25.9601 118.303 24.8001 118.303 23.3701V19.8701C118.273 19.5301 117.973 19.2801 117.633 19.3101C117.333 19.3401 117.093 19.5701 117.073 19.8701V23.3701C117.073 24.8001 115.913 25.9601 114.483 25.9601H113.133C112.793 25.9901 112.543 26.2901 112.573 26.6301C112.603 26.9301 112.833 27.1701 113.133 27.1901H114.483C115.913 27.1901 117.073 28.3501 117.073 29.7801V33.2801C117.103 33.6201 117.403 33.8701 117.743 33.8401C118.043 33.8101 118.283 33.5801 118.303 33.2801V29.7801C118.303 28.3501 119.463 27.1901 120.893 27.1901H122.233C122.573 27.2201 122.873 26.9701 122.903 26.6301C122.933 26.2901 122.683 25.9901 122.343 25.9601H122.333Z" fill="#86D4C9"/>
<path d="M5.40187 46.0403C5.40187 46.0403 5.36187 46.0403 5.34187 46.0403H4.60188C3.81188 46.0403 3.17189 45.4003 3.17189 44.6103V42.6703C3.15189 42.4803 2.99189 42.3403 2.80189 42.3603C2.63189 42.3703 2.50189 42.5103 2.49189 42.6703V44.6103C2.49189 45.4003 1.8519 46.0403 1.0619 46.0403H0.3119C0.1219 46.0603 -0.0180972 46.2203 0.00190279 46.4103C0.0119028 46.5803 0.1519 46.7103 0.3119 46.7203H1.0619C1.8519 46.7203 2.49189 47.3603 2.49189 48.1503V50.0903C2.51189 50.2803 2.67189 50.4203 2.86189 50.4003C3.03189 50.3903 3.16189 50.2503 3.17189 50.0903V48.1503C3.17189 47.3603 3.81188 46.7203 4.60188 46.7203H5.34187C5.53187 46.7403 5.69186 46.6003 5.71186 46.4103C5.73186 46.2203 5.59187 46.0603 5.40187 46.0403Z" fill="#86D4C9"/>
<path d="M87.2742 129.159C87.2742 129.159 87.2042 129.159 87.1742 129.159H85.8342C84.4042 129.159 83.2442 127.999 83.2442 126.569V123.069C83.2142 122.729 82.9142 122.479 82.5742 122.509C82.2742 122.539 82.0342 122.769 82.0142 123.069V126.569C82.0142 127.999 80.8542 129.159 79.4242 129.159H78.0742C77.7342 129.189 77.4842 129.489 77.5142 129.829C77.5442 130.129 77.7742 130.369 78.0742 130.389H79.4242C80.8542 130.389 82.0142 131.549 82.0142 132.979V136.479C82.0442 136.819 82.3442 137.069 82.6842 137.039C82.9842 137.009 83.2242 136.779 83.2442 136.479V132.979C83.2442 131.549 84.4042 130.389 85.8342 130.389H87.1742C87.5142 130.419 87.8142 130.169 87.8442 129.829C87.8742 129.489 87.6242 129.189 87.2842 129.159H87.2742Z" fill="#86D4C9"/>
<path d="M225.624 123.204C225.674 122.594 225.224 122.054 224.604 122.004C224.544 122.004 224.484 122.004 224.414 122.004H221.994C219.424 122.004 217.334 119.914 217.334 117.344V111.024C217.284 110.414 216.744 109.954 216.134 110.004C215.594 110.054 215.164 110.474 215.114 111.024V117.344C215.114 119.914 213.024 122.004 210.454 122.004H208.024C207.414 122.054 206.954 122.594 207.004 123.204C207.054 123.744 207.474 124.174 208.024 124.224H210.454C213.024 124.224 215.114 126.314 215.114 128.884V135.204C215.164 135.814 215.704 136.274 216.314 136.224C216.854 136.174 217.284 135.754 217.334 135.204V128.884C217.334 126.314 219.424 124.224 221.994 124.224H224.414C225.024 124.274 225.564 123.824 225.614 123.204H225.624Z" fill="#86D4C9"/>
<path d="M378.274 9.15928C378.274 9.15928 378.204 9.15928 378.174 9.15928H376.834C375.404 9.15928 374.244 7.99927 374.244 6.56927V3.06927C374.214 2.72927 373.914 2.47928 373.574 2.50928C373.274 2.53928 373.034 2.76927 373.014 3.06927V6.56927C373.014 7.99927 371.854 9.15928 370.424 9.15928H369.074C368.734 9.18928 368.484 9.48928 368.514 9.82928C368.544 10.1293 368.774 10.3693 369.074 10.3893H370.424C371.854 10.3893 373.014 11.5493 373.014 12.9793V16.4793C373.044 16.8193 373.344 17.0693 373.684 17.0393C373.984 17.0093 374.224 16.7793 374.244 16.4793V12.9793C374.244 11.5493 375.404 10.3893 376.834 10.3893H378.174C378.514 10.4193 378.814 10.1693 378.844 9.82928C378.874 9.48928 378.624 9.18928 378.284 9.15928H378.274Z" fill="#86D4C9"/>
<path d="M246.622 50.1924C244.122 50.1924 242.092 52.2224 242.092 54.7224C242.092 57.2224 244.122 59.2524 246.622 59.2524C249.122 59.2524 251.152 57.2224 251.152 54.7224C251.152 52.2224 249.122 50.1924 246.622 50.1924Z" fill="#86D4C9"/>
<path d="M214.762 27.6524C214.762 27.6524 214.692 27.6524 214.662 27.6524H213.322C211.892 27.6524 210.732 26.4924 210.732 25.0624V21.5624C210.702 21.2224 210.402 20.9724 210.062 21.0024C209.762 21.0324 209.522 21.2624 209.502 21.5624V25.0624C209.502 26.4924 208.342 27.6524 206.912 27.6524H205.562C205.222 27.6824 204.972 27.9824 205.002 28.3224C205.032 28.6224 205.262 28.8624 205.562 28.8824H206.912C208.342 28.8824 209.502 30.0424 209.502 31.4724V34.9724C209.532 35.3124 209.832 35.5624 210.172 35.5324C210.472 35.5024 210.712 35.2724 210.732 34.9724V31.4724C210.732 30.0424 211.892 28.8824 213.322 28.8824H214.662C215.002 28.9124 215.302 28.6624 215.332 28.3224C215.362 27.9824 215.112 27.6824 214.772 27.6524H214.762Z" fill="#86D4C9"/>
<path d="M255.57 101.493V106.649L262.862 111.394V96.748L255.57 101.493Z" fill="#E0616D"/>
<path d="M270.67 91.6592V116.482L277.962 121.227V86.9141L270.67 91.6592Z" fill="#E0616D"/>
<path d="M308.169 75.2158H300.877V136.144L302.868 137.439H308.169V75.2158Z" fill="#E0616D"/>
<path d="M318.721 75.2158H315.977V134.708L323.268 129.963V78.1779L318.721 75.2158Z" fill="#E0616D"/>
<path d="M331.082 83.2656V124.875L338.374 120.13V88.0107L331.082 83.2656Z" fill="#E0616D"/>
<path d="M346.182 93.0947V115.047L353.473 110.302V97.8398L346.182 93.0947Z" fill="#E0616D"/>
<path d="M285.775 81.831V126.31L293.067 131.056V77.0859L285.775 81.831Z" fill="#E0616D"/>
<path d="M307.332 142.001C306.354 142.002 305.397 141.718 304.578 141.184L252.874 107.524C252.299 107.15 251.826 106.638 251.499 106.035C251.171 105.432 251 104.757 251 104.071C251 103.385 251.171 102.71 251.499 102.107C251.826 101.504 252.299 100.992 252.874 100.619L304.578 66.9582C305.396 66.4247 306.352 66.1406 307.33 66.1406C308.307 66.1406 309.263 66.4247 310.081 66.9582L361.785 100.619C362.359 100.993 362.831 101.505 363.157 102.108C363.484 102.711 363.655 103.385 363.655 104.071C363.655 104.757 363.484 105.432 363.157 106.034C362.831 106.637 362.359 107.149 361.785 107.524L310.081 141.184C309.264 141.718 308.308 142.001 307.332 142.001ZM255.662 104.069L306.989 137.483C307.09 137.549 307.209 137.584 307.33 137.584C307.451 137.584 307.569 137.549 307.67 137.483L358.992 104.073L307.665 70.6596C307.564 70.5935 307.446 70.5583 307.325 70.5583C307.204 70.5583 307.085 70.5935 306.984 70.6596L255.662 104.069Z" fill="#4F457C"/>
<path d="M335.17 105.537L308.743 122.739C308.322 123.014 307.83 123.16 307.328 123.16C306.825 123.16 306.333 123.014 305.912 122.739L279.485 105.537C279.242 105.377 279.042 105.16 278.904 104.904C278.766 104.648 278.693 104.361 278.693 104.071C278.693 103.78 278.766 103.493 278.904 103.237C279.042 102.981 279.242 102.764 279.485 102.604L305.912 85.4017C306.333 85.1275 306.825 84.9814 307.328 84.9814C307.83 84.9814 308.322 85.1275 308.743 85.4017L335.17 102.604C335.413 102.764 335.613 102.981 335.751 103.237C335.89 103.493 335.962 103.78 335.962 104.071C335.962 104.361 335.89 104.648 335.751 104.904C335.613 105.16 335.413 105.377 335.17 105.537Z" fill="#171735"/>
<path d="M307.331 125.368C306.4 125.367 305.489 125.097 304.708 124.59L278.286 107.388C277.732 107.029 277.277 106.538 276.962 105.959C276.647 105.379 276.482 104.73 276.482 104.071C276.482 103.411 276.647 102.762 276.962 102.183C277.277 101.603 277.732 101.112 278.286 100.753L304.708 83.5512C305.489 83.0467 306.399 82.7783 307.329 82.7783C308.259 82.7783 309.169 83.0467 309.95 83.5512L336.377 100.753C336.93 101.113 337.383 101.604 337.698 102.184C338.012 102.763 338.176 103.412 338.176 104.071C338.176 104.73 338.012 105.378 337.698 105.958C337.383 106.537 336.93 107.028 336.377 107.388L309.95 124.59C309.171 125.097 308.261 125.368 307.331 125.368ZM281.287 104.068L307.119 120.889C307.182 120.929 307.255 120.95 307.329 120.95C307.404 120.95 307.476 120.929 307.539 120.889L333.376 104.068L307.534 87.2574C307.472 87.2174 307.399 87.1962 307.324 87.1962C307.25 87.1962 307.177 87.2174 307.114 87.2574L281.287 104.068Z" fill="#4F457C"/>
<path d="M307.331 64.1895C291.115 64.1895 277.967 69.7464 277.967 76.6079V86.7553C277.967 93.612 291.115 99.1738 307.331 99.1738C323.548 99.1738 336.691 93.612 336.691 86.7553V76.6272C336.686 69.7464 323.543 64.1895 307.331 64.1895Z" fill="#E0616D"/>
<path d="M307.326 86.2469C322.375 86.2469 334.574 81.3079 334.574 75.2153C334.574 69.1226 322.375 64.1836 307.326 64.1836C292.278 64.1836 280.078 69.1226 280.078 75.2153C280.078 81.3079 292.278 86.2469 307.326 86.2469Z" fill="#FF8080"/>
<path d="M307.333 101.357C289.333 101.357 275.76 95.0756 275.76 86.7306V76.6267C275.76 68.2865 289.333 62 307.333 62C325.332 62 338.901 68.2817 338.901 76.6267V86.7741C338.896 95.0708 325.327 101.357 307.333 101.357ZM307.333 66.3972C291.329 66.3972 280.176 71.7753 280.176 76.6074V86.7548C280.176 91.5869 291.329 96.965 307.333 96.965C323.336 96.965 334.484 91.582 334.484 86.7548V76.6267C334.479 71.7946 323.327 66.3972 307.333 66.3972Z" fill="#4F457C"/>
<path d="M292.304 79.8547C294.919 79.8547 297.039 78.4009 297.039 76.6075C297.039 74.8142 294.919 73.3604 292.304 73.3604C289.688 73.3604 287.568 74.8142 287.568 76.6075C287.568 78.4009 289.688 79.8547 292.304 79.8547Z" fill="white"/>
<path d="M302.5 74.5103C305.786 73.9571 309.099 73.5796 312.425 73.3796C315.745 73.1863 319.05 72.9737 322.35 73.626C323.038 73.7651 323.656 74.1378 324.1 74.6808C324.544 75.2237 324.787 75.9036 324.787 76.605C324.787 77.3064 324.544 77.9863 324.1 78.5292C323.656 79.0722 323.038 79.4448 322.35 79.584C320.714 79.8874 319.052 80.0362 317.388 80.0285C314.972 80.0285 312.343 79.8207 309.942 79.642C307.54 79.4632 304.887 79.1587 302.5 78.6755C302.016 78.5791 301.579 78.3176 301.266 77.9357C300.953 77.5537 300.781 77.0749 300.781 76.5808C300.781 76.0867 300.953 75.6079 301.266 75.226C301.579 74.844 302.016 74.5825 302.5 74.4861V74.5103Z" fill="white"/>
<path d="M293.348 98.2744V103.479C293.348 107.006 299.605 109.867 307.327 109.867C315.049 109.867 321.306 107.006 321.306 103.479V98.2744" fill="#4F457C"/>
<path d="M225.386 31.9304L210 62.8711L213.873 64.7972L229.259 33.8566L225.386 31.9304Z" fill="#503EAA"/>
<path d="M314.617 58.7926C314.617 62.8298 310.249 67.629 305.786 67.629C304.816 67.6391 303.854 67.4555 302.956 67.089C302.058 66.7224 301.243 66.1802 300.557 65.4943C299.872 64.8084 299.33 63.9924 298.964 63.0944C298.598 62.1963 298.415 61.2343 298.426 60.2646C298.426 54.6892 297.953 53.487 293.513 49.3078C289.074 45.1287 286.594 45.9948 286.594 37.4755C286.594 28.9562 292.193 15.3018 306.699 15.3018C321.206 15.3018 326.265 19.7649 331.102 24.3653C335.939 28.9657 338.434 40.5472 333.989 45.4931C329.545 50.439 325.248 49.9278 322.446 52.6682C319.644 55.4086 314.617 58.7926 314.617 58.7926Z" fill="#8DD8C7"/>
<path d="M289.338 35.7237C289.338 28.2788 301.355 16.2667 315.52 21.525C330.353 27.0293 333.378 38.9185 330.353 46.2403C330.353 46.2403 332.937 46.2403 334.646 41.4742C336.355 36.7082 338.863 29.8691 330.467 23.6784C322.071 17.4878 319.198 14.9083 308.421 16.5648C297.644 18.2214 287.075 16.4087 289.338 35.7237Z" fill="white"/>
<path d="M227.327 37.4899C229.868 37.4899 231.927 35.4302 231.927 32.8895C231.927 30.3487 229.868 28.2891 227.327 28.2891C224.786 28.2891 222.727 30.3487 222.727 32.8895C222.727 35.4302 224.786 37.4899 227.327 37.4899Z" fill="#503EAA"/>
<path d="M258.509 3.03273L225.904 31.2461L228.735 34.5173L261.34 6.30395L258.509 3.03273Z" fill="#503EAA"/>
<path d="M260.398 2.56461L259.449 6.78516L304.744 16.9679L305.693 12.7473L260.398 2.56461Z" fill="#503EAA"/>
<path d="M305.805 23.6742C310.672 23.6742 314.618 19.7287 314.618 14.8615C314.618 9.99441 310.672 6.04883 305.805 6.04883C300.938 6.04883 296.992 9.99441 296.992 14.8615C296.992 19.7287 300.938 23.6742 305.805 23.6742Z" fill="#503EAA"/>
<path d="M297.625 53.6573C294.667 53.6573 285.358 49.303 285.358 39.184C285.32 27.4511 290.375 13.7256 304.564 13.7256V18.0515C290.365 18.0515 289.665 35.6627 289.665 39.1935C289.665 46.8135 296.811 49.2983 297.621 49.3409L297.625 53.6573Z" fill="#503EAA"/>
<path d="M306.699 70.0003C304.025 69.9978 301.461 68.9344 299.57 67.0435C297.679 65.1526 296.616 62.5886 296.613 59.9145V37.5277C296.613 36.9541 296.841 36.4039 297.247 35.9983C297.652 35.5927 298.203 35.3648 298.776 35.3648C299.35 35.3648 299.9 35.5927 300.306 35.9983C300.711 36.4039 300.939 36.9541 300.939 37.5277V59.9145C300.917 60.6845 301.05 61.4511 301.329 62.1689C301.609 62.8867 302.029 63.5412 302.566 64.0937C303.103 64.6461 303.745 65.0853 304.454 65.3852C305.164 65.685 305.926 65.8395 306.697 65.8395C307.467 65.8395 308.23 65.685 308.939 65.3852C309.649 65.0853 310.291 64.6461 310.828 64.0937C311.364 63.5412 311.785 62.8867 312.064 62.1689C312.344 61.4511 312.476 60.6845 312.454 59.9145V37.5277C312.441 37.2349 312.487 36.9423 312.589 36.6676C312.692 36.393 312.849 36.142 313.052 35.9299C313.254 35.7178 313.497 35.549 313.767 35.4336C314.036 35.3183 314.327 35.2588 314.62 35.2588C314.913 35.2588 315.203 35.3183 315.473 35.4336C315.742 35.549 315.985 35.7178 316.188 35.9299C316.39 36.142 316.548 36.393 316.65 36.6676C316.753 36.9423 316.799 37.2349 316.785 37.5277V59.9145C316.783 62.5886 315.719 65.1526 313.828 67.0435C311.937 68.9344 309.373 69.9978 306.699 70.0003Z" fill="#503EAA"/>
<path d="M314.616 58.466C314.042 58.466 313.492 58.2382 313.087 57.8325C312.681 57.4269 312.453 56.8768 312.453 56.3031C312.453 55.7295 312.681 55.1793 313.087 54.7737C313.492 54.368 314.042 54.1402 314.616 54.1402C317.172 54.1402 324.948 54.1402 324.948 39.5438C324.948 38.9702 325.176 38.42 325.582 38.0144C325.987 37.6087 326.537 37.3809 327.111 37.3809C327.685 37.3809 328.235 37.6087 328.64 38.0144C329.046 38.42 329.274 38.9702 329.274 39.5438C329.274 55.1814 321.29 58.466 314.616 58.466Z" fill="#503EAA"/>
<path d="M326.421 51.4709C325.865 51.4449 325.339 51.2054 324.954 50.8022C324.57 50.3989 324.355 49.863 324.355 49.3056C324.355 48.7482 324.57 48.2123 324.954 47.8091C325.339 47.4058 325.865 47.1663 326.421 47.1403C333.63 47.1403 334.193 39.1511 334.193 36.6995C334.193 31.6163 330.738 25.9368 325.2 21.8759C318.953 17.3181 311.683 15.8841 305.241 17.9381C304.695 18.1126 304.101 18.0628 303.591 17.7996C303.081 17.5365 302.697 17.0815 302.522 16.5348C302.348 15.9882 302.398 15.3946 302.661 14.8847C302.924 14.3747 303.379 13.9903 303.926 13.8158C311.697 11.3357 320.377 12.997 327.751 18.383C334.406 23.239 338.538 30.258 338.538 36.6995C338.519 45.6731 333.772 51.4709 326.421 51.4709Z" fill="#503EAA"/>
<path d="M259.365 12.4571C262.805 12.4571 265.594 9.66845 265.594 6.22853C265.594 2.78861 262.805 0 259.365 0C255.925 0 253.137 2.78861 253.137 6.22853C253.137 9.66845 255.925 12.4571 259.365 12.4571Z" fill="#503EAA"/>
<path d="M175 60.7778C172.756 60.0101 170.053 59.3434 167 59L169.979 63C171.487 62.1919 173.161 61.4647 174.982 60.7778H175Z" fill="#77A4F2"/>
<path d="M138.528 65.0318C132.338 64.5805 122.646 69.0071 118 73.5726C121.936 78.7458 130.899 84.5264 137.089 84.9778C142.151 85.3423 146.572 81.1761 146.971 75.6731C147.37 70.1702 143.59 65.4137 138.528 65.0492V65.0318Z" fill="#FF8486"/>
<path d="M179 59.5899C174.836 59.0934 170.725 58.8947 167 59.0536L167.141 59.2522C170.057 59.5899 172.64 60.2453 174.783 61C176.119 60.4836 177.524 60.0268 179 59.5899Z" fill="white"/>
<path d="M157.379 64.016C157.063 64.016 156.015 64.576 155 66.448L164.418 70C164.617 69.072 164.817 68.304 165 67.664C161.323 65.536 158.012 64.096 157.396 64L157.379 64.016Z" fill="#77A4F2"/>
<path d="M153.085 75.6106C152.872 79.2086 153.085 81.8665 153.446 83.8192C153.479 83.8734 153.495 83.9458 153.528 84L163.967 73.0793C163.967 72.9527 163.984 72.8262 164 72.6996L153.61 71C153.38 72.3199 153.183 73.8387 153.085 75.6106Z" fill="#77A4F2"/>
<path d="M153.018 71.282L164.527 73C164.655 71.9217 164.818 70.953 165 70.0574L154.709 66C154.073 67.2245 153.455 68.9243 153 71.282H153.018Z" fill="white"/>
<path d="M222.171 70.9109C222.171 71.1927 222.171 71.4746 222.171 71.7389C222.103 74.0995 219.593 75.2269 212.936 75.8611C209.659 76.143 206.365 76.3016 203.07 76.3016C201.961 76.3016 200.851 76.3016 199.759 76.2487C195.287 76.0902 190.798 75.6321 186.394 74.9098C179.959 73.8 177.603 72.5316 177.671 70.2238C177.688 69.1316 177.808 68.057 177.978 67C174.769 67.6342 172.141 68.5326 169.717 69.6601C169.393 70.9285 169.154 72.2321 169 73.5357C173.762 75.2622 188.852 79.9306 210.666 79.0321C211.093 79.0321 211.52 79.1202 211.878 79.314C212.254 79.5254 212.561 79.8249 212.749 80.1772C212.936 80.5472 213.005 80.97 212.919 81.3751C212.851 81.7803 212.646 82.1503 212.322 82.4321C211.742 82.9782 211.144 83.4891 210.53 84C221.488 83.1016 229.989 81.1461 233.846 79.9834C233.898 79.913 233.949 79.8601 234 79.8073C231.388 76.8124 227.821 73.5005 222.154 70.8933L222.171 70.9109Z" fill="#86D4C9"/>
<path d="M193.017 92.3663C197.185 92.9594 201.558 93.1687 205.999 92.8547C214.234 92.2791 225.514 89.5756 233 80C229.155 81.1686 220.682 83.0872 209.759 83.9768C204.791 87.9884 198.904 90.6396 193 92.3663H193.017Z" fill="#73BBBF"/>
<path d="M222 68C222.135 69.0465 222.203 70.1105 222.186 71.1744C227.78 73.7558 231.33 77.0349 233.915 80C233.949 79.9651 233.983 79.9302 234 79.8954C230.924 74.436 226.58 70.6512 222 68.0174V68Z" fill="white"/>
<path d="M178 64C174.794 65 171.897 66.3333 169.549 68C169.343 68.6667 169.154 69.3333 169 70C171.434 68.8148 174.074 67.8704 177.297 67.2037C177.469 66.1296 177.691 65.0556 178 64Z" fill="white"/>
<path d="M194 82.6078C179.678 81.4828 170.147 78.2657 166.848 77L154 89.7979C177.652 91.1867 190.047 85.0514 194 82.6078Z" fill="#77A4F2"/>
<path d="M154.034 90.3166L154 90.3523C164.669 93.0178 188.862 93.5366 204 83.4115C200.505 83.4115 197.212 83.2504 194.138 83C190.189 85.5044 177.74 91.7298 154.017 90.3166H154.034Z" fill="white"/>
<path d="M169.492 95.5509C171.888 95.5509 174.285 95.4626 176.648 95.2858C178.908 95.1268 181.356 94.844 183.889 94.4376C188.358 95.6569 193.117 96.5052 197.808 96.8409C199.28 96.947 200.752 97 202.242 97C203.731 97 205.169 96.947 206.624 96.8586C215.989 96.2048 228.76 93.0239 237.217 81.873L244.442 82.3855C244.63 82.7036 244.836 83.004 245.075 83.3044C246.068 84.4884 247.455 85.1776 248.961 85.2837C249.098 85.2837 249.218 85.2837 249.355 85.2837C250.725 85.2837 252.026 84.7712 253.07 83.8346C254.217 82.8096 254.885 81.3782 254.988 79.8231C255.193 76.6069 252.83 73.8147 249.715 73.6027C248.191 73.4966 246.753 74.0091 245.606 75.0341C244.784 75.7763 244.219 76.7306 243.911 77.7732L237.234 77.3137C232.869 69.8563 226.5 65.1909 220.115 62.2928C219.105 59.6951 217.649 57.3094 215.749 55.2418C213.729 53.0328 211.332 51.2833 208.627 50.0463C205.922 48.7916 203.046 48.1201 200.067 48.0141C197.089 47.908 194.178 48.4028 191.405 49.4631C188.632 50.5234 186.132 52.1139 183.975 54.1815C183.119 54.9944 182.349 55.8956 181.647 56.8322C175.073 55.9486 168.499 55.7012 162.952 56.2137C162.644 56.2491 162.353 56.3197 162.113 56.4258C161.839 56.5495 161.617 56.7085 161.463 56.9206C161.291 57.1503 161.189 57.4154 161.206 57.6805C161.206 57.9456 161.308 58.2106 161.497 58.4227L164.321 61.9924C161.582 60.4549 158.809 59.1472 157.542 59.0589C154.478 58.8468 149.068 62.0807 148.178 75.5819C147.852 80.5476 148.28 84.5768 149.444 87.6163L147.596 89.4188C147.356 89.6486 147.185 89.9313 147.082 90.2494C146.979 90.5675 146.979 90.9033 147.048 91.2213C147.116 91.5394 147.27 91.8399 147.493 92.0873C147.715 92.3347 147.989 92.529 148.297 92.6528C152.338 94.2962 159.802 95.4095 167.763 95.5509C168.328 95.5509 168.91 95.5509 169.475 95.5509H169.492ZM166.889 59.0589C170.519 58.9175 174.525 59.0942 178.582 59.536C177.144 59.9071 175.775 60.3312 174.473 60.7907C172.779 61.3915 171.204 62.0277 169.817 62.7346L167.044 59.2356L166.907 59.0589H166.889ZM233.536 79.6817C233.536 79.6817 233.434 79.8054 233.382 79.8584C225.85 89.5602 214.482 92.317 206.213 92.8825C201.745 93.2006 197.345 92.9709 193.151 92.3877C199.075 90.6382 205.015 87.9698 210.014 83.8876C210.63 83.3928 211.23 82.8626 211.812 82.3148C212.12 82.0144 212.325 81.6433 212.411 81.2545C212.479 80.8481 212.411 80.4239 212.24 80.0528C212.051 79.6817 211.743 79.3813 211.367 79.1869C210.99 78.9925 210.579 78.9042 210.151 78.9042C188.272 79.8054 173.138 75.1224 168.362 73.3906C168.516 72.0829 168.756 70.7929 169.081 69.5028C169.252 68.8666 169.423 68.2305 169.629 67.5943C171.974 66.0038 174.867 64.7491 178.069 63.7772C177.761 64.7845 177.538 65.7918 177.367 66.8344C177.196 67.8947 177.076 68.9727 177.059 70.0683C176.99 72.3833 179.353 73.6557 185.807 74.769C190.224 75.4935 194.726 75.9353 199.211 76.1121C200.324 76.1474 201.42 76.1651 202.533 76.1651C205.837 76.1651 209.141 76.0237 212.428 75.7233C219.105 75.0871 221.604 73.9561 221.69 71.5881C221.69 71.3053 221.69 71.0226 221.69 70.7575C221.69 69.6795 221.638 68.6016 221.501 67.5413C226.141 70.2097 230.541 74.0445 233.656 79.5757C233.622 79.611 233.588 79.6464 233.571 79.6817H233.536ZM217.752 70.7752C216.948 71.111 215.236 71.4291 212.942 71.6765C213.01 71.5351 213.044 71.3937 213.044 71.27C213.335 61.957 205.666 54.1108 195.925 53.775C194.298 53.722 192.723 53.8987 191.199 54.2522C193.887 52.9268 196.866 52.2729 199.913 52.379C204.741 52.538 209.244 54.5703 212.582 58.0869C215.869 61.5329 217.684 66.0215 217.718 70.7752H217.752ZM164.407 70.192C164.236 71.0403 164.082 71.9769 163.962 73.0372C163.962 73.1609 163.945 73.2846 163.928 73.4083L153.04 84.082C153.04 84.082 152.988 83.9583 152.954 83.9053C152.56 81.9967 152.338 79.399 152.577 75.8823C152.697 74.1505 152.886 72.6661 153.125 71.376C153.553 69.0964 154.135 67.4529 154.734 66.2689C155.779 64.2013 156.874 63.5828 157.183 63.5828C157.816 63.6888 161.223 65.2793 165.006 67.6296C164.818 68.3188 164.595 69.1847 164.407 70.2097V70.192ZM166.307 76.9956C169.663 78.268 179.421 81.5019 194.058 82.6329C197.191 82.8803 200.53 83.0217 204.108 83.0394C188.683 93.0415 164.031 92.5291 153.16 89.896L153.194 89.8606L166.325 76.9956H166.307Z" fill="#38237C"/>
<path d="M212.743 57.9239C209.348 54.2813 204.77 52.1946 199.861 52.0115C196.762 51.9017 193.733 52.579 191 53.9518C192.532 53.5857 194.133 53.4027 195.805 53.4576C205.692 53.8054 213.509 61.9142 213.213 71.579C213.213 71.7254 213.178 71.8536 213.108 72C215.424 71.7437 217.182 71.4143 218 71.0665C217.965 66.1426 216.12 61.4749 212.778 57.9239H212.743Z" fill="#77A4F2"/>
</svg>
