<svg width="218" height="200" viewBox="0 0 218 200" fill="none" xmlns="http://www.w3.org/2000/svg">
    <rect width="218" height="200" rx="10" fill="url(#paint0_linear_1856_3555)"/>
    <path d="M169.838 75.4275C163.9 85.6563 148.122 87.6029 134.601 79.7802C121.08 71.9574 114.918 57.3094 120.856 47.0746L124.784 40.3037L173.766 68.6506L169.838 75.4275Z" fill="#C6A35D"/>
    <path d="M173.461 69.1785C179.397 58.9462 173.244 44.3047 159.717 36.4757C146.19 28.6467 130.412 30.595 124.476 40.8273C118.541 51.0596 124.694 65.7011 138.221 73.5301C151.748 81.3591 167.525 79.4108 173.461 69.1785Z" fill="#F2CE7E"/>
    <path d="M170.037 67.1963C174.88 58.8475 169.374 46.6203 157.739 39.8861C146.103 33.1519 132.745 34.4607 127.901 42.8095C123.058 51.1583 128.564 63.3854 140.199 70.1197C151.835 76.8539 165.193 75.545 170.037 67.1963Z" fill="#C6A35D"/>
    <path d="M130.279 39.9289C136.659 35.6971 147.226 36.1263 156.74 41.6458C166.255 47.1652 171.871 56.0943 171.381 63.7175C173.3 55.7255 167.865 45.7385 157.757 39.8865C147.65 34.0346 136.253 34.2945 130.279 39.9289Z" fill="#9B7B43"/>
    <path d="M156.547 72.7855L166.684 55.3082C166.896 54.9455 166.642 54.4075 166.127 54.0992L163.858 52.7873C163.664 52.6355 163.42 52.5629 163.175 52.5842C162.93 52.6056 162.703 52.7192 162.538 52.9022L152.407 70.3673C152.195 70.7301 152.443 71.2681 152.964 71.5764L155.227 72.8883C155.748 73.2026 156.341 73.1482 156.547 72.7855Z" fill="#9B7B43"/>
    <path d="M137.324 45.1641L140.381 51.7596L133.118 52.3641C132.958 52.3693 132.801 52.4133 132.662 52.4922C132.523 52.5712 132.405 52.6829 132.319 52.8175L129.747 57.2549C129.535 57.6176 129.783 58.1556 130.303 58.4639L148.824 69.2127C149.018 69.3631 149.261 69.4348 149.506 69.4135C149.751 69.3922 149.978 69.2795 150.143 69.0978L151.063 67.5078C151.275 67.1451 151.027 66.6071 150.506 66.2988L135.206 57.4423L136.011 56.0518L146.239 55.1631L147.226 53.4946L141.948 45.8472L142.753 44.4628L158.06 53.3193C158.253 53.4711 158.497 53.5437 158.742 53.5224C158.987 53.5011 159.215 53.3874 159.379 53.2044L160.299 51.6145C160.511 51.2518 160.263 50.7137 159.742 50.4054L141.234 39.693C140.714 39.3967 140.126 39.4451 139.915 39.8078L137.342 44.2452C137.263 44.3848 137.22 44.5419 137.217 44.7023C137.214 44.8627 137.251 45.0214 137.324 45.1641Z" fill="#9B7B43"/>
    <path d="M145.035 47.6425L149.35 56.9524L140.084 56.1786L139.116 57.8411L144.981 61.2325L155.209 60.3438L156.171 58.6814L150.894 51.0339L145.997 45.98L145.035 47.6425Z" fill="#9B7B43"/>
    <path d="M157.515 71.1231L167.647 53.658C167.859 53.2952 167.61 52.7572 167.09 52.4489L164.826 51.137C164.632 50.9848 164.387 50.912 164.141 50.9333C163.895 50.9547 163.666 51.0685 163.501 51.2519L153.369 68.717C153.157 69.0858 153.405 69.6239 153.926 69.9261L156.19 71.238C156.384 71.3902 156.629 71.463 156.875 71.4417C157.121 71.4203 157.35 71.3065 157.515 71.1231Z" fill="#F2CE7E"/>
    <path d="M138.287 43.5016L141.313 50.0971L134.05 50.7017C133.889 50.7079 133.733 50.7522 133.593 50.8311C133.453 50.91 133.334 51.021 133.245 51.1551L130.673 55.5924C130.461 55.9551 130.709 56.4932 131.23 56.8015L149.738 67.5139C150.258 67.8102 150.846 67.7618 151.057 67.3991L151.983 65.8091C152.189 65.4464 151.941 64.9084 151.421 64.6L136.12 55.7435L136.925 54.3531L147.226 53.4946L142.911 44.1908L143.716 42.8003L158.998 51.681C159.191 51.8342 159.435 51.9077 159.681 51.8864C159.926 51.865 160.154 51.7504 160.318 51.5662L161.244 49.9762C161.449 49.6135 161.201 49.0754 160.681 48.7671L142.172 38.0547C141.98 37.9015 141.735 37.828 141.49 37.8493C141.244 37.8707 141.016 37.9853 140.853 38.1695L138.281 42.6129C138.212 42.7512 138.177 42.9036 138.178 43.058C138.179 43.2123 138.216 43.3643 138.287 43.5016Z" fill="#F2CE7E"/>
    <path d="M145.997 45.98L150.313 55.2899L140.084 56.1786L145.943 59.57L156.171 58.6814L151.856 49.3714L145.997 45.98Z" fill="#F2CE7E"/>
    <path d="M93.3049 154.187C87.3675 164.421 71.5949 166.368 58.0677 158.539C44.5406 150.71 38.3913 136.075 44.3348 125.84L48.2689 119.069L97.245 147.416L93.3049 154.187Z" fill="#C6A35D"/>
    <path d="M96.9316 147.945C102.868 137.713 96.714 123.071 83.1872 115.242C69.6603 107.413 53.8827 109.362 47.9467 119.594C42.0108 129.826 48.1644 144.468 61.6912 152.297C75.218 160.126 90.9957 158.177 96.9316 147.945Z" fill="#F2CE7E"/>
    <path d="M93.5067 145.963C98.35 137.614 92.844 125.387 81.2087 118.653C69.5734 111.919 56.2148 113.227 51.3716 121.576C46.5283 129.925 52.0343 142.152 63.6696 148.886C75.305 155.62 88.6635 154.312 93.5067 145.963Z" fill="#C6A35D"/>
    <path d="M53.7344 118.694C60.1136 114.463 70.6811 114.892 80.1895 120.405C89.6978 125.919 95.3205 134.86 94.8364 142.483C96.7489 134.485 91.3199 124.504 81.2063 118.652C71.0927 112.8 59.7263 113.06 53.7344 118.694Z" fill="#9B7B43"/>
    <path d="M54.261 129.153L54.3699 129.11L55.3383 128.621C55.3689 128.601 55.4046 128.59 55.4412 128.59C55.4778 128.59 55.5135 128.601 55.5441 128.621L60.7249 131.607L60.8702 131.692L60.9368 131.571L63.4364 127.206L64.7861 124.854L66.4626 121.922C66.4777 121.891 66.5008 121.865 66.5295 121.846C66.5583 121.827 66.5916 121.815 66.626 121.814L68.2239 121.59H68.3328C68.3516 121.629 68.3677 121.669 68.3813 121.711L71.1775 128.609C71.6133 129.685 72.3879 129.624 72.8298 130.7C72.8298 130.743 72.6724 131.305 72.7874 130.996C72.8278 130.869 72.8847 130.747 72.9569 130.634C73.0416 130.501 73.1566 130.386 73.2535 130.259C73.3503 130.132 73.6529 129.31 74.1008 128.542C74.4337 128.246 74.4034 129.255 74.821 129.056C75.0994 128.923 75.3718 128.784 75.6623 128.675C76.4367 128.394 77.2611 128.276 78.0833 128.33C78.4887 128.346 78.8928 128.384 79.2938 128.445C80.1348 128.586 80.9571 128.821 81.745 129.147L82.441 129.449C83.0464 129.709 83.6294 130.018 84.1841 130.374C84.5323 130.59 84.8678 130.826 85.1888 131.081C85.5156 131.329 85.8243 131.583 86.1209 131.855C86.7381 132.413 87.2922 133.038 87.7732 133.717C88.4841 134.708 88.8901 135.884 88.9413 137.102C88.9948 137.613 89.0899 138.118 89.2258 138.614C89.0866 138.856 87.9729 140.79 87.519 141.564C87.1243 142.241 86.545 142.793 85.8485 143.154C84.7416 143.725 83.4677 143.886 82.2534 143.607C81.4517 143.465 80.6864 143.165 80.0019 142.725C79.6332 142.524 79.3313 142.221 79.1334 141.851C78.9355 141.482 78.8503 141.062 78.8882 140.645C79.2709 139.735 79.7158 138.852 80.2198 138.003C80.3529 137.828 80.825 139.097 81.5392 139.327C81.8533 139.437 82.1507 139.589 82.4229 139.78C82.8738 140.071 83.2245 140.493 83.4276 140.99C83.5123 141.207 84.638 141.546 84.977 141.249C85.1707 141.08 85.3643 140.911 85.5398 140.73C85.7026 140.555 85.8523 140.37 85.9877 140.173C86.164 139.939 86.3104 139.683 86.4235 139.412C86.5127 139.188 86.5776 138.954 86.6172 138.716C86.6994 138.074 86.63 137.421 86.4145 136.81C86.1991 136.199 85.8436 135.647 85.3764 135.198C84.9121 134.69 84.4015 134.227 83.8512 133.814C83.4861 133.53 83.1063 133.266 82.7134 133.022H82.671L81.5997 132.417C81.4 132.308 81.1942 132.212 80.9945 132.115C80.1854 131.724 79.3347 131.426 78.4585 131.226C77.8052 131.031 77.1141 130.999 76.4452 131.131C75.7764 131.264 75.1503 131.558 74.6213 131.988C74.5042 132.101 74.393 132.22 74.2884 132.345C74.2158 132.429 74.1492 132.508 74.0887 132.592C73.7982 133.022 74.9179 134.031 74.93 134.352C74.93 134.352 73.7921 136.383 73.7921 136.437L73.7013 136.401L73.0961 136.069C73.0383 136.035 72.9903 135.987 72.9569 135.93C72.4061 134.956 71.8493 133.989 71.2925 133.016L66.9832 125.453L66.9347 125.374H66.9045C66.8903 125.391 66.8781 125.409 66.8682 125.429L62.6315 132.774L62.7101 132.828L62.807 132.889L72.049 138.215C72.2449 138.34 72.4469 138.455 72.6543 138.559C72.8741 138.661 73.1006 138.748 73.3321 138.819C73.6991 138.941 74.0834 139.002 74.47 139.001C74.8612 138.998 75.2386 138.856 75.5352 138.602C75.6232 138.518 75.6987 138.423 75.7592 138.317C75.9135 138.062 76.0131 137.778 76.0516 137.483C76.0902 137.187 76.0668 136.887 75.9831 136.601C75.8376 136.031 75.6157 135.484 75.3234 134.974C75.281 134.902 75.2326 134.835 75.1842 134.763C75.1212 134.685 75.0814 134.59 75.0692 134.491C75.062 134.456 75.0632 134.419 75.0727 134.385C75.0821 134.35 75.0996 134.318 75.1236 134.291C75.4081 133.802 75.9347 132.78 76.2676 132.2C76.3886 132.242 78.0228 136.806 78.0288 137.713C78.0288 138.07 78.8096 136.945 78.7006 137.272C78.3677 137.84 77.4417 139.478 77.1573 139.962C77.0217 140.178 76.8656 140.38 76.6912 140.566C76.425 140.89 76.1107 141.172 75.7592 141.401C75.3974 141.651 74.9835 141.816 74.5487 141.884C74.1471 141.939 73.7398 141.939 73.3382 141.884C72.7881 141.82 72.2488 141.684 71.7343 141.479C71.3586 141.328 70.9979 141.142 70.657 140.923L70.5238 140.844L61.2818 135.44L61.1365 135.355L58.9456 139.14L57.1722 138.13C57.2751 137.912 57.4082 137.713 57.5232 137.526L57.8924 136.885L58.2616 136.28L58.6248 135.676L58.994 135.035L59.3571 134.4L59.2603 134.334L55.4109 132.115C55.3839 132.096 55.3533 132.083 55.321 132.077C55.2886 132.071 55.2554 132.071 55.2233 132.079L53.801 132.278C53.7342 132.29 53.6653 132.277 53.6073 132.242L52.8145 131.782L54.261 129.153Z" fill="#9B7B43"/>
    <path d="M55.3989 127.061L55.5139 127.019C55.8346 126.856 56.1615 126.698 56.4823 126.529C56.5128 126.509 56.5486 126.498 56.5851 126.498C56.6217 126.498 56.6575 126.509 56.688 126.529C58.411 127.529 60.1379 128.524 61.8689 129.516L62.0142 129.6C62.0386 129.561 62.0609 129.521 62.0807 129.479C62.916 128.028 63.7452 126.571 64.5804 125.115L65.9301 122.763L67.6005 119.837C67.6155 119.805 67.6394 119.777 67.6694 119.758C67.6994 119.739 67.7343 119.728 67.77 119.728L69.3618 119.504H69.4768C69.4768 119.547 69.5131 119.589 69.5252 119.625L72.3214 126.529C72.7511 127.599 73.1869 128.675 73.6227 129.745L73.6772 129.872V129.957V129.902C73.6998 129.567 73.7669 129.235 73.8769 128.917C73.9217 128.79 73.9806 128.668 74.0524 128.554C74.1372 128.421 74.2521 128.313 74.3429 128.186C74.4748 128.015 74.625 127.858 74.7908 127.72C75.1306 127.422 75.5093 127.172 75.9166 126.977C76.195 126.844 76.4673 126.704 76.7579 126.596C77.5321 126.314 78.3566 126.197 79.1788 126.251C79.584 126.269 79.9881 126.307 80.3893 126.366C81.2325 126.506 82.0569 126.741 82.8466 127.067C83.0826 127.164 83.3066 127.279 83.5366 127.376C84.1438 127.633 84.7288 127.941 85.2857 128.294C85.6307 128.512 85.9696 128.754 86.2904 129.002C86.6112 129.25 86.9259 129.51 87.2164 129.776C87.8373 130.334 88.3935 130.961 88.8748 131.644C89.5884 132.633 89.9927 133.811 90.0369 135.029C90.0646 135.797 89.9706 136.564 89.7584 137.302C89.6573 137.645 89.5277 137.978 89.3711 138.3L89.244 138.529L88.8264 139.243C88.7114 139.412 88.6024 139.581 88.4753 139.738C87.9009 140.519 87.1051 141.109 86.1911 141.432C85.2771 141.755 84.287 141.797 83.3489 141.552C82.5492 141.41 81.7859 141.11 81.1035 140.669C80.7332 140.473 80.4297 140.171 80.2315 139.801C80.0332 139.432 79.9491 139.013 79.9898 138.596C80.0373 138.324 80.1448 138.066 80.3046 137.84C80.4405 137.66 80.6064 137.505 80.7948 137.381C81.069 137.225 81.3753 137.135 81.69 137.116C82.0048 137.097 82.3197 137.15 82.6105 137.272C82.9271 137.38 83.2267 137.533 83.5002 137.725C83.9507 138.017 84.3012 138.438 84.5049 138.934C84.5869 139.14 84.6261 139.36 84.6199 139.581C84.6165 139.623 84.6165 139.666 84.6199 139.708H84.7773C85.2476 139.68 85.6959 139.5 86.0544 139.194C86.2553 139.034 86.4454 138.86 86.6233 138.674C86.7889 138.503 86.9387 138.317 87.0712 138.118C87.25 137.885 87.3966 137.629 87.5069 137.356C87.5941 137.132 87.659 136.899 87.7006 136.661C87.7823 136.019 87.7127 135.366 87.4973 134.755C87.2819 134.144 86.9267 133.592 86.4599 133.143C85.9949 132.634 85.4821 132.17 84.9286 131.758C84.5651 131.475 84.1874 131.211 83.7968 130.966H83.7544C83.3974 130.761 83.0402 130.549 82.6832 130.362C82.4834 130.247 82.2776 130.15 82.0779 130.054C81.2698 129.666 80.4214 129.368 79.548 129.165C78.8947 128.97 78.2035 128.937 77.5347 129.07C76.8659 129.203 76.2398 129.497 75.7108 129.927C75.5905 130.039 75.4792 130.16 75.3779 130.289C75.303 130.365 75.2361 130.448 75.1782 130.537C74.904 130.976 74.7612 131.483 74.7666 132C74.7668 132.234 74.7789 132.469 74.8029 132.702C74.8029 132.895 74.8029 133.082 74.8332 133.27C74.8332 133.59 74.8332 133.911 74.8755 134.231C74.8786 134.281 74.8786 134.332 74.8755 134.382C74.8461 134.37 74.8178 134.356 74.7908 134.34L74.1856 134.007C74.1282 133.976 74.0802 133.93 74.0464 133.874C73.4936 132.899 72.9388 131.926 72.3819 130.954L68.0726 123.392L68.0182 123.313C68.0026 123.332 67.9885 123.352 67.9758 123.373L63.7391 130.713L63.8117 130.773L63.9146 130.827L73.1567 136.159C73.3564 136.274 73.5622 136.401 73.7619 136.504C73.9819 136.604 74.2083 136.689 74.4398 136.758C74.806 136.882 75.1908 136.944 75.5776 136.939C75.9669 136.936 76.3423 136.795 76.6368 136.54C76.7267 136.457 76.8041 136.361 76.8668 136.256C77.0217 136.002 77.1212 135.719 77.1587 135.424C77.1963 135.129 77.171 134.83 77.0847 134.545C76.9461 133.975 76.726 133.427 76.431 132.919C76.3882 132.845 76.3396 132.774 76.2858 132.708C76.2246 132.626 76.185 132.53 76.1708 132.429C76.1661 132.394 76.1691 132.358 76.1796 132.323C76.19 132.289 76.2076 132.257 76.2313 132.23C76.3442 132.117 76.4899 132.043 76.6475 132.018C76.8051 131.993 76.9666 132.019 77.1089 132.091C77.2267 132.14 77.3384 132.203 77.4418 132.278C77.7367 132.482 77.9895 132.741 78.1862 133.04C78.7649 133.792 79.0968 134.704 79.1364 135.652C79.1362 136.001 79.079 136.348 78.967 136.679C78.8636 136.957 78.7274 137.22 78.5615 137.465C78.4646 137.616 78.3678 137.762 78.2649 137.901C78.162 138.04 77.9623 138.306 77.7989 138.505C77.5312 138.828 77.2171 139.109 76.8668 139.339C76.5038 139.589 76.0907 139.756 75.6563 139.829C75.2545 139.881 74.8476 139.881 74.4458 139.829C73.8957 139.765 73.3564 139.629 72.8419 139.424C72.4664 139.275 72.1057 139.091 71.7646 138.874L71.6315 138.795L62.3531 133.445L62.2078 133.36L60.0713 137.048L58.304 136.033C58.413 135.815 58.5461 135.615 58.6611 135.428L59.0303 134.793L59.3935 134.158L59.7566 133.554L60.1258 132.913L60.495 132.278L60.3982 132.212L56.5428 129.993C56.4895 129.958 56.4241 129.944 56.3612 129.957L54.9389 130.162C54.8694 130.172 54.7988 130.157 54.7392 130.12C54.4789 129.963 54.2126 129.818 53.9463 129.661L55.3989 127.061Z" fill="#F2CE7E"/>
    <path d="M61.681 74.6536C61.3991 74.6544 61.1211 74.5881 60.87 74.4601C60.4434 74.2448 60.1189 73.8702 59.9671 73.4175C59.8153 72.9648 59.8483 72.4705 60.059 72.042C68.2842 55.6348 87.658 47.0503 102.535 47.0503C103.016 47.0503 103.478 47.2414 103.819 47.5815C104.159 47.9216 104.351 48.3829 104.351 48.8639C104.351 49.3449 104.159 49.8062 103.819 50.1463C103.478 50.4865 103.016 50.6775 102.535 50.6775C88.7716 50.6775 70.8746 58.5728 63.3091 73.65C63.1581 73.9521 62.9257 74.2061 62.6381 74.3834C62.3505 74.5607 62.019 74.6542 61.681 74.6536Z" fill="#4F457C"/>
    <path d="M82.114 40.7994C81.7017 40.7999 81.3015 40.6601 80.9792 40.4031C80.657 40.1461 80.4319 39.7872 80.341 39.3855C80.2502 38.9837 80.2989 38.563 80.4792 38.1926C80.6596 37.8222 80.9608 37.5242 81.3333 37.3475C91.0172 32.7893 101.815 31.5197 114.392 33.4543C114.868 33.528 115.295 33.7876 115.579 34.1759C115.863 34.5642 115.982 35.0494 115.908 35.5248C115.834 36.0002 115.574 36.4268 115.185 36.7108C114.797 36.9948 114.311 37.1129 113.835 37.0392C102.002 35.2256 91.8766 36.3923 82.8827 40.6302C82.642 40.742 82.3796 40.7998 82.114 40.7994Z" fill="#4F457C"/>
    <path d="M125.473 143.178C124.992 143.178 124.53 142.987 124.19 142.647C123.849 142.307 123.658 141.846 123.658 141.365C123.658 140.884 123.849 140.422 124.19 140.082C124.53 139.742 124.992 139.551 125.473 139.551C139.243 139.46 157.085 131.45 164.554 116.306C164.767 115.874 165.142 115.544 165.599 115.389C166.055 115.234 166.554 115.266 166.987 115.478C167.42 115.691 167.75 116.066 167.906 116.522C168.061 116.978 168.029 117.476 167.816 117.908C159.694 134.37 140.381 143.082 125.498 143.178H125.473Z" fill="#4F457C"/>
    <path d="M124.227 157.627C120.72 157.613 117.218 157.344 113.75 156.823C113.274 156.753 112.844 156.497 112.556 156.111C112.269 155.725 112.146 155.24 112.216 154.764C112.286 154.288 112.542 153.859 112.929 153.572C113.315 153.284 113.8 153.162 114.277 153.232C126.127 154.973 136.241 153.74 145.205 149.441C145.639 149.233 146.138 149.205 146.593 149.365C147.047 149.524 147.42 149.857 147.629 150.291C147.837 150.724 147.865 151.223 147.706 151.677C147.546 152.131 147.213 152.503 146.778 152.712C139.733 156.041 132.02 157.722 124.227 157.627Z" fill="#4F457C"/>
    <path d="M218 190.121H215.618C215.318 190.121 215.03 190.002 214.818 189.79C214.606 189.578 214.486 189.29 214.486 188.99C214.486 188.691 214.606 188.403 214.818 188.191C215.03 187.979 215.318 187.86 215.618 187.86H218C218 188 218 188.029 218 188.191C218 188.5 218 188.7 218 189C218 189.3 218 189.5 218 189.5C218 189.5 218 189.5 218 189.79V190.121Z" fill="#88D1C3"/>
    <path d="M7.37861 161.381C6.95588 161.381 6.55037 161.213 6.25089 160.915C5.95141 160.617 5.78236 160.213 5.78076 159.791V154.35C5.80578 153.944 5.9847 153.564 6.28104 153.285C6.57737 153.007 6.96882 152.852 7.37558 152.852C7.78234 152.852 8.17379 153.007 8.47012 153.285C8.76646 153.564 8.94538 153.944 8.9704 154.35V159.791C8.9704 160.212 8.80268 160.617 8.50417 160.915C8.20565 161.213 7.80078 161.381 7.37861 161.381Z" fill="#88D1C3"/>
    <path d="M19.1689 167.753H13.7217C13.3157 167.728 12.9346 167.549 12.6559 167.253C12.3773 166.957 12.2222 166.566 12.2222 166.16C12.2222 165.754 12.3773 165.363 12.6559 165.067C12.9346 164.771 13.3157 164.592 13.7217 164.567H19.1689C19.5749 164.592 19.956 164.771 20.2347 165.067C20.5133 165.363 20.6684 165.754 20.6684 166.16C20.6684 166.566 20.5133 166.957 20.2347 167.253C19.956 167.549 19.5749 167.728 19.1689 167.753Z" fill="#88D1C3"/>
    <path d="M7.37861 179.499C7.16906 179.5 6.96143 179.459 6.7676 179.38C6.57378 179.3 6.39759 179.183 6.24914 179.035C6.10068 178.888 5.98289 178.712 5.90252 178.519C5.82215 178.325 5.78076 178.118 5.78076 177.909V172.468C5.80578 172.062 5.9847 171.682 6.28104 171.403C6.57737 171.125 6.96882 170.97 7.37558 170.97C7.78234 170.97 8.17379 171.125 8.47012 171.403C8.76646 171.682 8.94538 172.062 8.9704 172.468V177.909C8.9704 178.331 8.80268 178.735 8.50417 179.033C8.20565 179.331 7.80078 179.499 7.37861 179.499Z" fill="#88D1C3"/>
    <path d="M1.0298 167.753H-0.000414073C0 167.5 -0.000171185 167.5 -0.000414073 167C-0.000336647 166.5 -0.000262439 166.406 -0.000262439 166C-0.000262439 165.594 -0.000336647 165.5 -0.000488281 165.067C-0.000173926 164.5 -0.000336647 164.5 -0.000414073 164.567H1.0298C1.43579 164.592 1.81693 164.771 2.09556 165.067C2.3742 165.363 2.52933 165.754 2.52933 166.16C2.52933 166.566 2.3742 166.957 2.09556 167.253C1.81693 167.549 1.43579 167.728 1.0298 167.753Z" fill="#88D1C3"/>
    <path d="M207.393 19.4227C207.247 19.4227 207.103 19.3939 206.968 19.3379C206.833 19.2819 206.711 19.1999 206.608 19.0965C206.505 18.9931 206.424 18.8705 206.368 18.7356C206.313 18.6006 206.285 18.4561 206.286 18.3103V9.05482C206.306 8.77475 206.432 8.51288 206.638 8.32176C206.844 8.13064 207.115 8.02441 207.396 8.02441C207.677 8.02441 207.948 8.13064 208.154 8.32176C208.36 8.51288 208.486 8.77475 208.507 9.05482V18.3103C208.507 18.6053 208.39 18.8883 208.181 19.0969C207.972 19.3055 207.689 19.4227 207.393 19.4227Z" fill="#88D1C3"/>
    <path d="M215.618 22.2822H210.262C210.109 22.2935 209.956 22.2732 209.811 22.2225C209.667 22.1719 209.534 22.092 209.422 21.9879C209.31 21.8838 209.22 21.7577 209.159 21.6174C209.098 21.4772 209.066 21.3259 209.066 21.1729C209.066 21.0199 209.098 20.8686 209.159 20.7283C209.22 20.5881 209.31 20.462 209.422 20.3579C209.534 20.2538 209.667 20.1739 209.811 20.1233C209.956 20.0726 210.109 20.0523 210.262 20.0636H215.618C215.771 20.0523 215.925 20.0726 216.069 20.1233C216.214 20.1739 216.346 20.2538 216.458 20.3579C216.571 20.462 216.66 20.5881 216.721 20.7283C216.783 20.8686 216.814 21.0199 216.814 21.1729C216.814 21.3259 216.783 21.4772 216.721 21.6174C216.66 21.7577 216.571 21.8838 216.458 21.9879C216.346 22.092 216.214 22.1719 216.069 22.2225C215.925 22.2732 215.771 22.2935 215.618 22.2822Z" fill="#88D1C3"/>
    <path d="M207.393 34.3974C207.099 34.3974 206.817 34.2809 206.61 34.0734C206.402 33.8659 206.285 33.5845 206.285 33.2911V24.0356C206.274 23.883 206.294 23.7298 206.345 23.5854C206.396 23.4411 206.476 23.3087 206.58 23.1966C206.684 23.0845 206.81 22.9951 206.951 22.934C207.091 22.8729 207.243 22.8413 207.396 22.8413C207.549 22.8413 207.701 22.8729 207.841 22.934C207.981 22.9951 208.108 23.0845 208.212 23.1966C208.316 23.3087 208.396 23.4411 208.447 23.5854C208.497 23.7298 208.518 23.883 208.506 24.0356V33.2911C208.506 33.4369 208.478 33.5813 208.422 33.7159C208.366 33.8505 208.283 33.9727 208.18 34.0755C208.076 34.1783 207.954 34.2597 207.819 34.3149C207.683 34.3702 207.539 34.3982 207.393 34.3974Z" fill="#88D1C3"/>
    <path d="M204.53 22.2822H199.174C199.021 22.2935 198.868 22.2732 198.723 22.2225C198.578 22.1719 198.446 22.092 198.334 21.9879C198.222 21.8838 198.132 21.7577 198.071 21.6174C198.01 21.4772 197.978 21.3259 197.978 21.1729C197.978 21.0199 198.01 20.8686 198.071 20.7283C198.132 20.5881 198.222 20.462 198.334 20.3579C198.446 20.2538 198.578 20.1739 198.723 20.1233C198.868 20.0726 199.021 20.0523 199.174 20.0636H204.53C204.683 20.0523 204.836 20.0726 204.981 20.1233C205.125 20.1739 205.258 20.2538 205.37 20.3579C205.482 20.462 205.572 20.5881 205.633 20.7283C205.694 20.8686 205.726 21.0199 205.726 21.1729C205.726 21.3259 205.694 21.4772 205.633 21.6174C205.572 21.7577 205.482 21.8838 205.37 21.9879C205.258 22.092 205.125 22.1719 204.981 22.2225C204.836 22.2732 204.683 22.2935 204.53 22.2822Z" fill="#88D1C3"/>
    <path d="M90.085 79.4353C92.1575 79.4353 93.8375 77.7572 93.8375 75.6871C93.8375 73.6171 92.1575 71.939 90.085 71.939C88.0126 71.939 86.3325 73.6171 86.3325 75.6871C86.3325 77.7572 88.0126 79.4353 90.085 79.4353Z" fill="#88D1C3"/>
    <path d="M122.375 113.066C124.09 113.066 125.48 111.677 125.48 109.965C125.48 108.252 124.09 106.863 122.375 106.863C120.66 106.863 119.27 108.252 119.27 109.965C119.27 111.677 120.66 113.066 122.375 113.066Z" fill="#88D1C3"/>
    <path d="M40.6794 24.5614C42.5513 24.5614 44.0687 23.0457 44.0687 21.1759C44.0687 19.3062 42.5513 17.7905 40.6794 17.7905C38.8075 17.7905 37.29 19.3062 37.29 21.1759C37.29 23.0457 38.8075 24.5614 40.6794 24.5614Z" fill="#88D1C3"/>
    <path d="M59.7321 199.291C61.5873 199.291 63.0912 197.789 63.0912 195.936C63.0912 194.083 61.5873 192.581 59.7321 192.581C57.877 192.581 56.373 194.083 56.373 195.936C56.373 197.789 57.877 199.291 59.7321 199.291Z" fill="#88D1C3"/>
    <path d="M191.596 154.247C193.348 154.247 194.768 152.829 194.768 151.079C194.768 149.33 193.348 147.912 191.596 147.912C189.845 147.912 188.425 149.33 188.425 151.079C188.425 152.829 189.845 154.247 191.596 154.247Z" fill="#88D1C3"/>
    <path d="M153.297 194.637C154.433 194.637 155.354 193.717 155.354 192.581C155.354 191.446 154.433 190.526 153.297 190.526C152.16 190.526 151.239 191.446 151.239 192.581C151.239 193.717 152.16 194.637 153.297 194.637Z" fill="#88D1C3"/>
    <defs>
        <linearGradient id="paint0_linear_1856_3555" x1="109" y1="-0.000111774" x2="109" y2="200" gradientUnits="userSpaceOnUse">
            <stop stop-color="#4F457C"/>
            <stop offset="0.65625" stop-color="#5E85A7"/>
        </linearGradient>
    </defs>
</svg>

