<svg width="1071" height="150" viewBox="0 0 1071 150" fill="none" xmlns="http://www.w3.org/2000/svg">
<path d="M468.184 15.5886C466.883 15.7005 465.654 16.0696 464.496 16.6961C463.978 16.9869 463.592 17.082 463.339 16.9813C463.107 16.8918 462.875 16.5674 462.644 16.0081C461.321 12.8535 459.143 10.4485 456.111 8.79288C453.079 7.13729 449.931 6.62831 446.668 7.26594C443.316 7.91475 440.516 9.55355 438.266 12.1824C436.017 14.8 434.837 17.8147 434.727 21.2266C434.716 21.7076 434.628 22.0264 434.462 22.183C434.297 22.362 433.972 22.4403 433.487 22.4179C431.458 22.3284 429.534 22.7423 427.715 23.6596C426.006 24.5209 424.567 25.7514 423.398 27.3511C422.23 28.9396 421.485 30.7014 421.166 32.6367C421.111 32.9611 421.072 33.2855 421.05 33.6099C420.896 35.3102 421.099 36.9826 421.662 38.627C422.533 41.1887 424.021 43.219 426.127 44.718C428.244 46.2281 430.686 46.9888 433.454 47C438.47 47 446.001 46.9944 456.045 46.9832V47H478.769C480.709 46.9888 482.523 46.5693 484.21 45.7415C485.831 44.9585 487.203 43.8622 488.328 42.4527C489.453 41.0432 490.224 39.4548 490.643 37.6873C490.963 36.3561 491.068 34.997 490.958 33.6099C490.913 33.0841 490.836 32.5528 490.726 32.0158C490.175 29.2975 488.863 27.0714 486.79 25.3376C484.728 23.5813 482.242 22.6081 479.331 22.4179C478.868 22.3955 478.504 22.2949 478.24 22.1159C477.986 21.9257 477.765 21.6181 477.578 21.193C477.038 19.9849 476.283 18.9333 475.312 18.0384C474.342 17.1435 473.239 16.4891 472.005 16.0752C470.77 15.6501 469.496 15.4879 468.184 15.5886Z" fill="#49406C"/>
<path d="M852.665 28.9505C850.993 29.0931 849.412 29.5638 847.924 30.3625C847.257 30.7333 846.761 30.8545 846.435 30.7262C846.138 30.6121 845.84 30.1985 845.542 29.4853C843.841 25.4633 841.041 22.3968 837.143 20.2859C833.245 18.175 829.198 17.5261 825.001 18.3391C820.692 19.1663 817.091 21.2558 814.2 24.6075C811.308 27.945 809.791 31.7887 809.649 36.1389C809.635 36.7521 809.522 37.1586 809.309 37.3583C809.096 37.5865 808.678 37.6864 808.054 37.6578C805.446 37.5437 802.972 38.0714 800.633 39.241C798.436 40.3392 796.586 41.9081 795.084 43.9477C793.581 45.973 792.624 48.2193 792.213 50.6868C792.142 51.1004 792.092 51.514 792.064 51.9276C791.866 54.0955 792.128 56.2278 792.851 58.3244C793.971 61.5906 795.884 64.1792 798.592 66.0904C801.314 68.0159 804.454 68.9857 808.012 69C814.462 69 824.144 68.9929 837.058 68.9786V69H866.274C868.769 68.9857 871.101 68.4509 873.27 67.3955C875.354 66.3971 877.119 64.9993 878.565 63.2022C880.01 61.4051 881.003 59.3798 881.541 57.1263C881.953 55.4291 882.087 53.6962 881.945 51.9276C881.889 51.2573 881.79 50.5798 881.648 49.8952C880.939 46.4294 879.252 43.5911 876.587 41.3804C873.936 39.1411 870.74 37.9003 866.997 37.6578C866.402 37.6293 865.934 37.5009 865.594 37.2727C865.268 37.0303 864.984 36.638 864.743 36.0961C864.049 34.5557 863.078 33.215 861.83 32.074C860.583 30.933 859.165 30.0986 857.577 29.5709C855.99 29.0289 854.352 28.8221 852.665 28.9505Z" fill="#49406C"/>
<path d="M257.406 24.2388C255.547 24.3982 253.791 24.9242 252.137 25.8169C251.397 26.2313 250.846 26.3668 250.484 26.2234C250.153 26.0959 249.822 25.6336 249.491 24.8365C247.601 20.3413 244.49 16.9141 240.159 14.5549C235.827 12.1956 231.331 11.4703 226.668 12.379C221.88 13.3035 217.879 15.6388 214.666 19.3849C211.453 23.115 209.768 27.411 209.61 32.2728C209.594 32.9583 209.468 33.4126 209.232 33.6358C208.996 33.8908 208.531 34.0024 207.838 33.9705C204.94 33.843 202.192 34.4328 199.593 35.7399C197.151 36.9673 195.096 38.7208 193.426 41.0003C191.757 43.2639 190.693 45.7745 190.237 48.5323C190.158 48.9945 190.103 49.4568 190.071 49.9191C189.851 52.3421 190.142 54.7252 190.945 57.0685C192.19 60.7189 194.316 63.6121 197.325 65.7481C200.349 67.9001 203.837 68.9841 207.791 69C214.958 69 225.715 68.992 240.064 68.9761V69H272.527C275.299 68.9841 277.89 68.3863 280.3 67.2067C282.615 66.0908 284.576 64.5287 286.183 62.5201C287.789 60.5116 288.892 58.2481 289.491 55.7294C289.947 53.8325 290.097 51.8957 289.939 49.9191C289.876 49.1699 289.766 48.4127 289.609 47.6476C288.821 43.774 286.947 40.6018 283.986 38.131C281.04 35.6283 277.488 34.2415 273.33 33.9705C272.669 33.9386 272.149 33.7952 271.771 33.5401C271.409 33.2691 271.094 32.8308 270.826 32.225C270.054 30.5034 268.975 29.005 267.589 27.7298C266.203 26.4545 264.628 25.522 262.864 24.9322C261.1 24.3264 259.28 24.0953 257.406 24.2388Z" fill="#49406C"/>
<path d="M360.643 103.736C359.026 103.876 357.498 104.337 356.06 105.12C355.416 105.484 354.936 105.602 354.621 105.477C354.333 105.365 354.045 104.959 353.757 104.26C352.113 100.317 349.407 97.3106 345.638 95.2411C341.87 93.1716 337.958 92.5354 333.901 93.3324C329.736 94.1434 326.255 96.1919 323.46 99.4779C320.664 102.75 319.198 106.518 319.061 110.783C319.047 111.384 318.938 111.783 318.732 111.979C318.526 112.202 318.122 112.3 317.519 112.272C314.998 112.161 312.607 112.678 310.346 113.824C308.222 114.901 306.433 116.439 304.981 118.439C303.528 120.424 302.603 122.627 302.206 125.046C302.137 125.451 302.089 125.857 302.062 126.262C301.87 128.388 302.124 130.478 302.823 132.534C303.905 135.736 305.755 138.274 308.372 140.147C311.003 142.035 314.039 142.986 317.478 143C323.713 143 333.072 142.993 345.556 142.979V143H373.798C376.21 142.986 378.464 142.462 380.561 141.427C382.575 140.448 384.281 139.078 385.679 137.316C387.077 135.554 388.036 133.568 388.557 131.359C388.954 129.695 389.084 127.996 388.947 126.262C388.892 125.605 388.797 124.941 388.66 124.27C387.974 120.872 386.344 118.089 383.767 115.922C381.205 113.727 378.115 112.51 374.497 112.272C373.922 112.244 373.47 112.119 373.141 111.895C372.825 111.657 372.551 111.273 372.318 110.741C371.647 109.231 370.708 107.917 369.502 106.798C368.297 105.679 366.926 104.861 365.391 104.344C363.857 103.813 362.274 103.61 360.643 103.736Z" fill="#49406C"/>
<path d="M729.118 89.515C727.984 89.6129 726.913 89.9359 725.904 90.4841C725.452 90.7385 725.116 90.8217 724.895 90.7337C724.693 90.6553 724.491 90.3715 724.29 89.8821C723.137 87.1218 721.239 85.0174 718.597 83.5688C715.955 82.1201 713.212 81.6748 710.368 82.2327C707.447 82.8004 705.006 84.2344 703.046 86.5346C701.086 88.825 700.058 91.4629 699.962 94.4482C699.953 94.8691 699.876 95.1481 699.732 95.2851C699.587 95.4417 699.304 95.5102 698.881 95.4907C697.113 95.4124 695.437 95.7745 693.852 96.5771C692.362 97.3308 691.108 98.4075 690.09 99.8072C689.072 101.197 688.423 102.739 688.144 104.432C688.096 104.716 688.063 105 688.043 105.284C687.909 106.771 688.087 108.235 688.577 109.674C689.336 111.915 690.633 113.692 692.468 115.003C694.313 116.325 696.441 116.99 698.852 117C703.224 117 709.786 116.995 718.539 116.985V117H738.341C740.032 116.99 741.613 116.623 743.083 115.899C744.495 115.214 745.692 114.254 746.672 113.021C747.652 111.788 748.324 110.398 748.689 108.851C748.968 107.687 749.059 106.497 748.963 105.284C748.925 104.824 748.857 104.359 748.761 103.889C748.281 101.51 747.138 99.5625 745.331 98.0454C743.535 96.5086 741.368 95.6571 738.831 95.4907C738.428 95.4711 738.111 95.383 737.88 95.2264C737.659 95.06 737.467 94.7908 737.304 94.4189C736.833 93.3618 736.175 92.4417 735.329 91.6586C734.484 90.8756 733.523 90.303 732.447 89.9408C731.371 89.5689 730.261 89.4269 729.118 89.515Z" fill="#49406C"/>
</svg>
