<svg xmlns="http://www.w3.org/2000/svg" viewBox="0 0 31 33" fill="none">
  <g clip-path="url(#clip0_11890_117856)">
    <path d="M16.9724 0H14.2532C21.8888 0.148329 28.0617 7.4874 28.0617 16.5032C28.0617 25.5191 21.8888 32.8581 14.2532 33H16.9724C24.7111 33 31 25.6029 31 16.5032C31 7.40356 24.7046 0 16.9724 0Z" fill="#A0A5BA"/>
    <path d="M14.0277 32.6773C21.586 32.6773 27.7332 25.4221 27.7332 16.4966C27.7332 7.57104 21.586 0.322266 14.0277 0.322266C6.46943 0.322266 0.322266 7.57749 0.322266 16.503C0.322266 25.4286 6.46943 32.6838 14.0277 32.6838V32.6773ZM13.3834 2.43757C19.8141 2.43757 25.0462 8.74478 25.0462 16.503C25.0462 24.2613 19.8141 30.5685 13.3834 30.5685C6.9527 30.5685 1.72052 24.2548 1.72052 16.503C1.72052 8.75123 6.9527 2.43757 13.3834 2.43757Z" fill="#EBF0FF"/>
    <path d="M28.0617 16.5032C28.0617 7.4874 21.8824 0.148329 14.2467 0.00644909C14.1758 0.00644909 14.0985 0 14.0276 0C6.29536 0 0 7.40356 0 16.5032C0 25.6029 6.29536 33.0065 14.0276 33.0065C14.0985 33.0065 14.1758 33.0065 14.2467 33C21.8824 32.8581 28.0553 25.5191 28.0553 16.5032H28.0617ZM14.0276 0.322455C21.5859 0.322455 27.7331 7.57768 27.7331 16.5032C27.7331 25.4288 21.5859 32.684 14.0276 32.684C6.46934 32.684 0.322178 25.4223 0.322178 16.5032C0.322178 7.58413 6.46934 0.322455 14.0276 0.322455Z" fill="#D7DEF2"/>
    <path d="M13.3833 30.5625C19.814 30.5625 25.0462 24.2553 25.0462 16.497C25.0462 8.73875 19.814 2.43799 13.3833 2.43799C6.95264 2.43799 1.72046 8.7452 1.72046 16.5035C1.72046 24.2617 6.95264 30.5689 13.3833 30.5689V30.5625ZM13.3382 2.55407C13.5057 2.55407 13.6797 2.56052 13.8473 2.56697C7.70009 2.89587 2.78365 9.01606 2.78365 16.5035C2.78365 23.9908 7.70009 30.111 13.8408 30.4335C13.6733 30.4399 13.5057 30.4464 13.3318 30.4464C6.95264 30.4464 1.76556 24.1908 1.76556 16.5035C1.76556 8.81614 6.95908 2.56052 13.3382 2.56052V2.55407Z" fill="#D7DEF2"/>
    <path d="M13.3382 30.4459C13.5057 30.4459 13.6797 30.4395 13.8472 30.433C7.7065 30.1106 2.79006 23.9904 2.79006 16.503C2.79006 9.0156 7.70005 2.89541 13.8472 2.57296C13.6797 2.56651 13.5121 2.56006 13.3382 2.56006C6.95904 2.56006 1.77197 8.81568 1.77197 16.503C1.77197 24.1903 6.95904 30.4459 13.3382 30.4459Z" fill="#A0A5BA"/>
    <path d="M15.6707 15.6969L15.4774 15.8711L13.3445 17.7477C13.2543 17.8316 13.1319 17.8445 13.0224 17.7929C12.9966 17.78 12.9708 17.7671 12.945 17.7477L11.0442 16.0774L10.6189 15.7034C10.5029 15.6002 10.3225 15.6905 10.3225 15.8517V17.522C10.3225 17.6639 10.3805 17.7993 10.4836 17.8896L12.8613 19.9791C12.8613 19.9791 12.9128 20.0114 12.9386 20.0243C13.0997 20.1146 13.293 20.1017 13.4412 19.9791L15.8189 17.8896C15.922 17.7993 15.98 17.6639 15.98 17.522V15.8517C15.98 15.8066 15.9671 15.7679 15.9413 15.7356C15.8833 15.6518 15.7673 15.626 15.6836 15.6969H15.6707Z" fill="#EBF0FF"/>
    <path d="M7.04928 20.1599C7.10727 20.205 7.17171 20.2373 7.24259 20.2373H8.87281C9.05323 20.2373 9.20143 20.0761 9.20143 19.8826V13.3496C9.20143 13.182 9.38185 13.0852 9.51072 13.1884L9.91667 13.5238L12.9516 16.0002C12.9903 16.0325 13.0354 16.0454 13.074 16.0583C13.1707 16.0841 13.2673 16.0583 13.3511 16.0002L16.792 13.1884C16.9208 13.0852 17.1012 13.182 17.1012 13.3496V19.8826C17.1012 19.9664 17.1335 20.0309 17.1721 20.0954C17.2043 20.147 17.2494 20.1857 17.301 20.2115C17.3397 20.2308 17.3848 20.2373 17.4234 20.2373H19.0536C19.2341 20.2373 19.3823 20.0761 19.3823 19.8826V9.10615C19.3823 9.00941 19.3372 8.91912 19.2727 8.86108C19.2212 8.81594 19.1567 8.78369 19.0859 8.78369H18.6284C18.5446 8.78369 18.4544 8.81594 18.39 8.86753L13.3189 12.795C13.2158 12.8724 13.0805 12.8724 12.9774 12.795L12.7003 12.5758L7.91272 8.86753C7.84184 8.81594 7.75807 8.78369 7.67431 8.78369H7.21681C7.05573 8.78369 6.92041 8.92557 6.92041 9.0997V19.8826C6.92041 19.9729 6.95263 20.0567 7.01062 20.1212C7.02351 20.1405 7.04284 20.147 7.05573 20.1599H7.04928Z" fill="#EBF0FF"/>
    <path d="M19.1374 23.9326C19.2727 23.9326 19.3822 23.8165 19.3822 23.6746V21.7399C19.3822 21.6625 19.35 21.598 19.3049 21.5529C19.2598 21.5077 19.2018 21.4819 19.1374 21.4819H7.15233C7.01701 21.4819 6.90747 21.598 6.90747 21.7399V23.6746C6.90747 23.7262 6.9268 23.7778 6.95258 23.8165C6.97835 23.8616 7.01701 23.9003 7.06856 23.9197C7.09433 23.9326 7.12011 23.939 7.15233 23.939H19.1374V23.9326Z" fill="#EBF0FF"/>
    <path d="M19.7495 21.9204L19.3049 21.5464C19.35 21.5915 19.3823 21.6625 19.3823 21.7334V23.6681C19.3823 23.81 19.2727 23.9261 19.1374 23.9261H7.15237C7.15237 23.9261 7.09438 23.9197 7.0686 23.9068L7.50032 24.2808C7.53898 24.3002 7.57765 24.3195 7.62919 24.3195H19.6142C19.7495 24.3195 19.8591 24.2034 19.8591 24.0615V22.1268C19.8591 22.0365 19.814 21.9656 19.7495 21.914V21.9204Z" fill="#A0A5BA"/>
    <path d="M15.9737 15.8517V17.522C15.9737 17.6639 15.9157 17.7993 15.8126 17.8896L13.435 19.9791C13.2932 20.1081 13.0935 20.1145 12.9324 20.0242L13.3319 20.3725C13.4994 20.5208 13.7443 20.5208 13.9118 20.3725L16.2895 18.283C16.3926 18.1927 16.4506 18.0572 16.4506 17.9154V16.2451C16.4506 16.1806 16.4183 16.129 16.3732 16.0903L15.9029 15.6904C15.9029 15.6904 15.9157 15.7033 15.9351 15.7291C15.9544 15.7614 15.9737 15.8001 15.9737 15.8452V15.8517Z" fill="#A0A5BA"/>
    <path d="M16.7856 13.1816L13.3447 15.9934C13.2609 16.0578 13.1643 16.0772 13.0676 16.0514L13.4414 16.3545C13.5573 16.4512 13.7249 16.4512 13.8409 16.3545L17.0884 13.7168V13.3492C17.0884 13.1816 16.908 13.0848 16.7791 13.188L16.7856 13.1816Z" fill="#A0A5BA"/>
    <path d="M9.20147 13.3493V19.8823C9.20147 20.0757 9.05327 20.237 8.87285 20.237H7.24262C7.17174 20.237 7.10731 20.2047 7.04932 20.1596L7.50037 20.5594V20.5465C7.55836 20.5981 7.63568 20.6368 7.713 20.6368H9.34323C9.52365 20.6368 9.67185 20.4756 9.67185 20.2821V13.7492C9.67185 13.6137 9.79428 13.5106 9.91026 13.517L9.50432 13.1817C9.37544 13.0785 9.19502 13.1752 9.19502 13.3429L9.20147 13.3493Z" fill="#A0A5BA"/>
    <path d="M12.9774 12.8013L12.6938 12.582L12.9709 12.7949L12.9774 12.8013Z" fill="#A0A5BA"/>
    <path d="M19.3823 9.10591V19.8823C19.3823 20.0758 19.2341 20.237 19.0537 20.237H17.4235C17.3783 20.237 17.3397 20.2241 17.301 20.2112L17.7005 20.5595C17.7585 20.6046 17.823 20.6369 17.9003 20.6369H19.5305C19.7109 20.6369 19.8591 20.4756 19.8591 20.2822V9.4993C19.8591 9.40256 19.814 9.31873 19.7496 9.26068L19.2792 8.86084H19.2663C19.3307 8.91888 19.3759 9.00272 19.3759 9.09946L19.3823 9.10591Z" fill="#A0A5BA"/>
  </g>
  <defs>
    <clipPath id="clip0_11890_117856">
      <rect width="31" height="33" fill="white"/>
    </clipPath>
  </defs>
</svg>