<svg width="98" height="79" viewBox="0 0 98 79" fill="none" xmlns="http://www.w3.org/2000/svg">
<path d="M95.0187 58.1921H93.912C93.912 58.1921 93.912 58.1736 93.912 58.1644V53.2882C93.912 51.7551 92.6553 50.5176 91.0984 50.5176H60.9181C59.3612 50.5176 58.1045 51.7551 58.1045 53.2882V58.1644C58.1045 59.6975 59.3612 60.935 60.9181 60.935H62.0247C62.0247 60.935 62.0247 60.9535 62.0247 60.9627V65.8389C62.0247 65.8389 62.0247 65.8574 62.0247 65.8666H60.9181C59.3612 65.8666 58.1045 67.1042 58.1045 68.6372V73.5135C58.1045 75.0465 59.3612 76.284 60.9181 76.284H91.0984C92.6553 76.284 93.912 75.0465 93.912 73.5135V68.6372C93.912 68.6372 93.912 68.6188 93.912 68.6095H95.0187C96.5756 68.6095 97.8323 67.372 97.8323 65.8389V60.9627C97.8323 59.4296 96.5756 58.1921 95.0187 58.1921ZM95.0187 65.8389H89.476V60.9627H95.0187V65.8389ZM60.9181 68.6372H66.4608V73.5135H60.9181V68.6372ZM69.2744 68.6372H74.6014V73.5135H69.2744V68.6372ZM77.415 68.6372H82.7421V73.5135H77.415V68.6372ZM78.5218 60.9627V65.8389H73.1946V60.9627H78.5218ZM81.3353 60.9627H86.6624V65.8389H81.3353V60.9627ZM82.7421 58.1644H77.415V53.2882H82.7421V58.1644ZM74.6014 58.1644H69.2744V53.2882H74.6014V58.1644ZM91.0984 58.1644H85.5557V53.2882H91.0984V58.1644ZM60.9181 53.2882H66.4608V58.1644H60.9181V53.2882ZM64.8383 60.9627H70.3811V65.8389H64.8383V60.9627ZM91.0984 73.5135H85.5557V68.6372H91.0984V73.5135Z" fill="#9E4400"/>
<path d="M70.3806 60.9629H64.8379V65.8391H70.3806V60.9629Z" fill="url(#paint0_linear_1584_4146)"/>
<path d="M95.0184 60.9629H89.4756V65.8391H95.0184V60.9629Z" fill="#E7813C"/>
<path d="M86.663 60.9629H81.3359V65.8391H86.663V60.9629Z" fill="url(#paint1_linear_1584_4146)"/>
<path d="M78.5214 60.9629H73.1943V65.8391H78.5214V60.9629Z" fill="#C45A00"/>
<path d="M66.4607 53.2881H60.918V58.1643H66.4607V53.2881Z" fill="url(#paint2_linear_1584_4146)"/>
<path d="M91.0984 53.2881H85.5557V58.1643H91.0984V53.2881Z" fill="#E7813C"/>
<path d="M82.7431 53.2881H77.416V58.1643H82.7431V53.2881Z" fill="url(#paint3_linear_1584_4146)"/>
<path d="M74.6014 53.2881H69.2744V58.1643H74.6014V53.2881Z" fill="#C45A00"/>
<path d="M66.4607 68.6375H60.918V73.5137H66.4607V68.6375Z" fill="url(#paint4_linear_1584_4146)"/>
<path d="M91.0984 68.6375H85.5557V73.5137H91.0984V68.6375Z" fill="#E7813C"/>
<path d="M82.7431 68.6375H77.416V73.5137H82.7431V68.6375Z" fill="url(#paint5_linear_1584_4146)"/>
<path d="M74.6014 68.6375H69.2744V73.5137H74.6014V68.6375Z" fill="#C45A00"/>
<path d="M37.8097 55.4216H36.703C36.703 55.4216 36.703 55.4031 36.703 55.3939V50.5177C36.703 48.9846 35.4463 47.7471 33.8895 47.7471H3.70909C2.15224 47.7471 0.895508 48.9846 0.895508 50.5177V55.3939C0.895508 56.927 2.15224 58.1645 3.70909 58.1645H4.81576C4.81576 58.1645 4.81576 58.183 4.81576 58.1922V63.0684C4.81576 63.0684 4.81576 63.0869 4.81576 63.0961H3.70909C2.15224 63.0961 0.895508 64.3337 0.895508 65.8667V70.7429C0.895508 72.276 2.15224 73.5135 3.70909 73.5135H33.8895C35.4463 73.5135 36.703 72.276 36.703 70.7429V65.8667C36.703 65.8667 36.703 65.8482 36.703 65.839H37.8097C39.3666 65.839 40.6233 64.6015 40.6233 63.0684V58.1922C40.6233 56.6591 39.3666 55.4216 37.8097 55.4216ZM37.8097 63.0684H32.267V58.1922H37.8097V63.0684ZM3.70909 65.8667H9.25183V70.7429H3.70909V65.8667ZM12.0654 65.8667H17.3925V70.7429H12.0654V65.8667ZM20.206 65.8667H25.5331V70.7429H20.206V65.8667ZM21.3128 58.1922V63.0684H15.9857V58.1922H21.3128ZM24.1264 58.1922H29.4534V63.0684H24.1264V58.1922ZM25.5331 55.3939H20.206V50.5177H25.5331V55.3939ZM17.3925 55.3939H12.0654V50.5177H17.3925V55.3939ZM33.8895 55.3939H28.3467V50.5177H33.8895V55.3939ZM3.70909 50.5177H9.25183V55.3939H3.70909V50.5177ZM7.62935 58.1922H13.1721V63.0684H7.62935V58.1922ZM33.8895 70.7429H28.3467V65.8667H33.8895V70.7429Z" fill="#9E4400"/>
<path d="M13.1716 58.1921H7.62891V63.0684H13.1716V58.1921Z" fill="url(#paint6_linear_1584_4146)"/>
<path d="M37.8094 58.1921H32.2666V63.0684H37.8094V58.1921Z" fill="#E7813C"/>
<path d="M29.454 58.1921H24.127V63.0684H29.454V58.1921Z" fill="url(#paint7_linear_1584_4146)"/>
<path d="M21.3124 58.1921H15.9854V63.0684H21.3124V58.1921Z" fill="#C45A00"/>
<path d="M9.25172 50.5176H3.70898V55.3938H9.25172V50.5176Z" fill="url(#paint8_linear_1584_4146)"/>
<path d="M33.8895 50.5176H28.3467V55.3938H33.8895V50.5176Z" fill="#E7813C"/>
<path d="M25.5341 50.5176H20.207V55.3938H25.5341V50.5176Z" fill="url(#paint9_linear_1584_4146)"/>
<path d="M17.3925 50.5176H12.0654V55.3938H17.3925V50.5176Z" fill="#C45A00"/>
<path d="M9.25172 65.8669H3.70898V70.7432H9.25172V65.8669Z" fill="url(#paint10_linear_1584_4146)"/>
<path d="M33.8895 65.8669H28.3467V70.7432H33.8895V65.8669Z" fill="#E7813C"/>
<path d="M25.5341 65.8669H20.207V70.7432H25.5341V65.8669Z" fill="url(#paint11_linear_1584_4146)"/>
<path d="M17.3925 65.8669H12.0654V70.7432H17.3925V65.8669Z" fill="#C45A00"/>
<path d="M39.4324 48.0334H33.8896V52.9097H39.4324V48.0334Z" fill="url(#paint12_linear_1584_4146)"/>
<path d="M64.0701 48.0334H58.5273V52.9097H64.0701V48.0334Z" fill="#E7813C"/>
<path d="M55.7147 48.0334H50.3877V52.9097H55.7147V48.0334Z" fill="url(#paint13_linear_1584_4146)"/>
<path d="M47.5731 48.0334H42.2461V52.9097H47.5731V48.0334Z" fill="#C45A00"/>
<path d="M35.5125 40.3589H29.9697V45.2351H35.5125V40.3589Z" fill="url(#paint14_linear_1584_4146)"/>
<path d="M60.1502 40.3589H54.6074V45.2351H60.1502V40.3589Z" fill="#E7813C"/>
<path d="M51.7948 40.3589H46.4678V45.2351H51.7948V40.3589Z" fill="url(#paint15_linear_1584_4146)"/>
<path d="M43.6532 40.3589H38.3262V45.2351H43.6532V40.3589Z" fill="#C45A00"/>
<path d="M35.5125 55.7083H29.9697V60.5845H35.5125V55.7083Z" fill="url(#paint16_linear_1584_4146)"/>
<path d="M60.1502 55.7083H54.6074V60.5845H60.1502V55.7083Z" fill="#E7813C"/>
<path d="M51.7948 55.7083H46.4678V60.5845H51.7948V55.7083Z" fill="url(#paint17_linear_1584_4146)"/>
<path d="M43.6532 55.7083H38.3262V60.5845H43.6532V55.7083Z" fill="#C45A00"/>
<path d="M64.0705 45.2629H62.9638C62.9638 45.2629 62.9638 45.2444 62.9638 45.2352V40.359C62.9638 38.8259 61.7071 37.5884 60.1502 37.5884H29.9698C28.413 37.5884 27.1562 38.8259 27.1562 40.359V45.2352C27.1562 46.7683 28.413 48.0058 29.9698 48.0058H31.0765C31.0765 48.0058 31.0765 48.0243 31.0765 48.0335V52.9097C31.0765 52.9097 31.0765 52.9282 31.0765 52.9374H29.9698C28.413 52.9374 27.1562 54.175 27.1562 55.708V60.5843C27.1562 62.1173 28.413 63.3548 29.9698 63.3548H60.1502C61.7071 63.3548 62.9638 62.1173 62.9638 60.5843V55.708C62.9638 55.708 62.9638 55.6896 62.9638 55.6803H64.0705C65.6273 55.6803 66.8841 54.4428 66.8841 52.9097V48.0335C66.8841 46.5004 65.6273 45.2629 64.0705 45.2629ZM64.0705 52.9097H58.5277V48.0335H64.0705V52.9097ZM29.9698 55.708H35.5126V60.5843H29.9698V55.708ZM38.3262 55.708H43.6532V60.5843H38.3262V55.708ZM46.4668 55.708H51.7939V60.5843H46.4668V55.708ZM47.5735 48.0335V52.9097H42.2464V48.0335H47.5735ZM50.3871 48.0335H55.7141V52.9097H50.3871V48.0335ZM51.7939 45.2352H46.4668V40.359H51.7939V45.2352ZM43.6532 45.2352H38.3262V40.359H43.6532V45.2352ZM60.1502 45.2352H54.6075V40.359H60.1502V45.2352ZM29.9698 40.359H35.5126V45.2352H29.9698V40.359ZM33.8901 48.0335H39.4328V52.9097H33.8901V48.0335ZM60.1502 60.5843H54.6075V55.708H60.1502V60.5843Z" fill="#9E4400"/>
<path d="M64.0705 60.6121H62.9638C62.9638 60.6121 62.9638 60.5935 62.9638 60.5843V55.708C62.9638 54.175 61.7071 52.9375 60.1502 52.9375L29.9698 52.9374C28.413 52.9374 27.1562 54.175 27.1562 55.708V60.5843C27.1562 62.1173 28.413 63.3548 29.9698 63.3548L31.0765 63.355C31.0765 63.355 31.0765 63.3734 31.0765 63.3827V68.2589C31.0765 68.2589 31.0765 68.2774 31.0765 68.2866H29.9698C28.413 68.2866 27.1562 69.5241 27.1562 71.0572V75.9334C27.1562 77.4665 28.413 78.704 29.9698 78.704H60.1502C61.7071 78.704 62.9638 77.4665 62.9638 75.9334V71.0572C62.9638 71.0572 62.9638 71.0387 62.9638 71.0295H64.0705C65.6273 71.0295 66.8841 69.792 66.8841 68.2589V63.3827C66.8841 61.8496 65.6273 60.6121 64.0705 60.6121ZM64.0705 68.2589H58.5277V63.3827H64.0705V68.2589ZM29.9698 71.0572H35.5126V75.9334H29.9698V71.0572ZM38.3262 71.0572H43.6532V75.9334H38.3262V71.0572ZM46.4668 71.0572H51.7939V75.9334H46.4668V71.0572ZM47.5735 63.3827V68.2589H42.2464V63.3827H47.5735ZM50.3871 63.3827H55.7141V68.2589H50.3871V63.3827ZM51.7939 60.5843H46.4668V55.708H51.7939V60.5843ZM43.6532 60.5843H38.3262V55.708H43.6532V60.5843ZM60.1502 60.5843H54.6075V55.708H60.1502V60.5843ZM29.9698 55.708H35.5126V60.5843H29.9698V55.708ZM33.8901 63.3827H39.4328V68.2589H33.8901V63.3827ZM60.1502 75.9334H54.6075V71.0572H60.1502V75.9334Z" fill="#9E4400"/>
<path d="M39.4324 63.3826H33.8896V68.2588H39.4324V63.3826Z" fill="url(#paint18_linear_1584_4146)"/>
<path d="M64.0701 63.3826H58.5273V68.2588H64.0701V63.3826Z" fill="#E7813C"/>
<path d="M55.7147 63.3826H50.3877V68.2588H55.7147V63.3826Z" fill="url(#paint19_linear_1584_4146)"/>
<path d="M47.5731 63.3826H42.2461V68.2588H47.5731V63.3826Z" fill="#C45A00"/>
<path d="M35.5125 55.7083H29.9697V60.5845H35.5125V55.7083Z" fill="url(#paint20_linear_1584_4146)"/>
<path d="M60.1502 55.7083H54.6074V60.5845H60.1502V55.7083Z" fill="#E7813C"/>
<path d="M51.7948 55.7083H46.4678V60.5845H51.7948V55.7083Z" fill="url(#paint21_linear_1584_4146)"/>
<path d="M43.6532 55.7083H38.3262V60.5845H43.6532V55.7083Z" fill="#C45A00"/>
<path d="M35.5125 71.0571H29.9697V75.9334H35.5125V71.0571Z" fill="url(#paint22_linear_1584_4146)"/>
<path d="M60.1502 71.0571H54.6074V75.9334H60.1502V71.0571Z" fill="#E7813C"/>
<path d="M51.7948 71.0571H46.4678V75.9334H51.7948V71.0571Z" fill="url(#paint23_linear_1584_4146)"/>
<path d="M43.6532 71.0571H38.3262V75.9334H43.6532V71.0571Z" fill="#C45A00"/>
<path d="M44.4045 0.41748H41.9365C42.726 0.433724 43.498 0.52577 44.2408 0.688204C50.0657 1.96061 54.4695 7.56459 54.4695 14.2731C54.4695 20.9817 50.0657 26.5857 44.2408 27.8581C43.4922 28.0205 42.7202 28.1125 41.9365 28.1234H44.4045C51.4225 28.1234 57.1364 21.913 57.1364 14.2731C57.1364 6.6333 51.4225 0.41748 44.4045 0.41748Z" fill="#9E4400"/>
<path d="M54.1767 14.2732C54.1767 6.77952 48.5915 0.688232 41.7314 0.688232C34.8713 0.688232 29.292 6.77952 29.292 14.2732C29.292 21.7668 34.8713 27.8581 41.7314 27.8581C48.5915 27.8581 54.1708 21.7668 54.1708 14.2732H54.1767ZM41.1524 26.0821C35.3158 26.0821 30.5669 20.7868 30.5669 14.2732C30.5669 7.75954 35.3099 2.46418 41.1466 2.46418C46.9832 2.46418 51.7321 7.75954 51.7321 14.2732C51.7321 20.7868 46.9832 26.0821 41.1466 26.0821H41.1524Z" fill="#E7813C"/>
<path d="M54.4695 14.2731C54.4695 7.57001 50.0657 1.96061 44.2408 0.688204C43.4922 0.52577 42.7202 0.433724 41.9365 0.422895C41.8722 0.422895 41.802 0.41748 41.7377 0.41748C34.7138 0.41748 29 6.6333 29 14.2731C29 21.913 34.7138 28.1288 41.7318 28.1288C41.7962 28.1288 41.8664 28.1288 41.9307 28.1234C42.7202 28.1125 43.4922 28.0205 44.2349 27.8581C50.0599 26.5857 54.4637 20.9817 54.4637 14.2731H54.4695ZM41.7377 27.8581C34.8717 27.8526 29.2924 21.7614 29.2924 14.2731C29.2924 6.78491 34.8717 0.688204 41.7318 0.688204C48.5919 0.688204 54.1713 6.77949 54.1713 14.2731C54.1713 21.7668 48.5919 27.8581 41.7318 27.8581H41.7377Z" fill="#C45A00"/>
<path d="M41.147 2.46411C35.3104 2.46411 30.5615 7.75947 30.5615 14.2731C30.5615 20.7867 35.3104 26.0821 41.147 26.0821C46.9837 26.0821 51.7325 20.7867 51.7325 14.2731C51.7325 7.75947 46.9837 2.46411 41.147 2.46411ZM41.1061 25.9792C35.3162 25.9792 30.6083 20.7271 30.6083 14.2731C30.6083 7.81903 35.3162 2.56699 41.1061 2.56699C41.2581 2.56699 41.416 2.5724 41.5681 2.57782C40.9365 2.6103 40.3283 2.70776 39.7317 2.85937C35.0414 4.0289 31.5265 8.69618 31.5265 14.2731C31.5265 19.85 35.0414 24.5119 39.7259 25.6868C40.3224 25.8384 40.9365 25.9359 41.5623 25.9684C41.4102 25.9738 41.2581 25.9792 41.1002 25.9792H41.1061Z" fill="#C45A00"/>
<path d="M31.5266 14.2732C31.5266 8.70174 35.0414 4.03446 39.726 2.85952C40.3225 2.70792 40.9366 2.61045 41.5623 2.57797C41.4103 2.57255 41.2582 2.56714 41.1003 2.56714C35.3163 2.56714 30.6084 7.81918 30.6084 14.2732C30.6084 20.7273 35.3163 25.9793 41.1062 25.9793C41.2582 25.9793 41.4161 25.9739 41.5682 25.9685C40.9366 25.936 40.3283 25.8386 39.7318 25.687C35.0473 24.512 31.5324 19.8502 31.5324 14.2732H31.5266Z" fill="#9E4400"/>
<path d="M43.2233 13.5963L43.0478 13.7425L41.112 15.3181C41.0301 15.3885 40.919 15.3994 40.8196 15.356C40.7962 15.3452 40.7728 15.3344 40.7494 15.3181L39.0242 13.9158L38.6382 13.6017C38.5329 13.5151 38.3691 13.5909 38.3691 13.7263V15.1286C38.3691 15.2478 38.4218 15.3615 38.5153 15.4373L40.6734 17.1915C40.6734 17.1915 40.7202 17.2186 40.7436 17.2294C40.8898 17.3053 41.0652 17.2944 41.1997 17.1915L43.3578 15.4373C43.4513 15.3615 43.504 15.2478 43.504 15.1286V13.7263C43.504 13.6884 43.4923 13.6559 43.4689 13.6288C43.4163 13.5584 43.311 13.5368 43.235 13.5963H43.2233Z" fill="#E7813C"/>
<path d="M35.3982 17.3431C35.4509 17.381 35.5093 17.4081 35.5737 17.4081H37.0533C37.2171 17.4081 37.3516 17.2727 37.3516 17.1103V11.6254C37.3516 11.4847 37.5153 11.4034 37.6323 11.4901L38.0007 11.7716L40.7553 13.8508C40.7904 13.8779 40.8313 13.8887 40.8664 13.8995C40.9541 13.9212 41.0419 13.8995 41.1179 13.8508L44.2409 11.4901C44.3579 11.4034 44.5216 11.4847 44.5216 11.6254V17.1103C44.5216 17.1807 44.5509 17.2348 44.586 17.289C44.6152 17.3323 44.6561 17.3648 44.7029 17.3864C44.738 17.4027 44.779 17.4081 44.8141 17.4081H46.2937C46.4574 17.4081 46.5919 17.2727 46.5919 17.1103V8.06272C46.5919 7.9815 46.551 7.9057 46.4925 7.85697C46.4457 7.81906 46.3873 7.79199 46.3229 7.79199H45.9077C45.8317 7.79199 45.7498 7.81906 45.6913 7.86238L41.0887 11.1598C40.9951 11.2248 40.8723 11.2248 40.7787 11.1598L40.5272 10.9757L36.1819 7.86238C36.1176 7.81906 36.0415 7.79199 35.9655 7.79199H35.5503C35.4041 7.79199 35.2812 7.91111 35.2812 8.0573V17.1103C35.2812 17.1861 35.3105 17.2565 35.3631 17.3106C35.3748 17.3269 35.3924 17.3323 35.4041 17.3431H35.3982Z" fill="#E7813C"/>
<path d="M46.3697 20.5106C46.4925 20.5106 46.5919 20.4132 46.5919 20.294V18.6697C46.5919 18.6047 46.5627 18.5506 46.5217 18.5127C46.4808 18.4748 46.4282 18.4531 46.3697 18.4531H35.4918C35.369 18.4531 35.2695 18.5506 35.2695 18.6697V20.294C35.2695 20.3374 35.2871 20.3807 35.3105 20.4132C35.3339 20.4511 35.369 20.4836 35.4157 20.4998C35.4391 20.5106 35.4625 20.516 35.4918 20.516H46.3697V20.5106Z" fill="#E7813C"/>
<path d="M46.9256 18.8211L46.522 18.5071C46.563 18.545 46.5922 18.6045 46.5922 18.6641V20.2884C46.5922 20.4076 46.4928 20.505 46.37 20.505H35.492C35.492 20.505 35.4394 20.4996 35.416 20.4888L35.8079 20.8028C35.8429 20.8191 35.878 20.8353 35.9248 20.8353H46.8027C46.9256 20.8353 47.025 20.7378 47.025 20.6187V18.9944C47.025 18.9186 46.984 18.859 46.9256 18.8157V18.8211Z" fill="#9E4400"/>
<path d="M43.4987 13.7262V15.1285C43.4987 15.2477 43.4461 15.3614 43.3525 15.4372L41.1945 17.1914C41.0658 17.2997 40.8845 17.3052 40.7383 17.2294L41.1009 17.5217C41.2529 17.6463 41.4752 17.6463 41.6272 17.5217L43.7853 15.7674C43.8788 15.6916 43.9315 15.5779 43.9315 15.4588V14.0565C43.9315 14.0023 43.9022 13.959 43.8613 13.9265L43.4344 13.5908C43.4344 13.5908 43.4461 13.6016 43.4636 13.6233C43.4812 13.6504 43.4987 13.6829 43.4987 13.7208V13.7262Z" fill="#9E4400"/>
<path d="M44.2358 11.4846L41.1128 13.8453C41.0368 13.8995 40.9491 13.9157 40.8613 13.8941L41.2005 14.1485C41.3058 14.2297 41.4579 14.2297 41.5631 14.1485L44.5107 11.934V11.6254C44.5107 11.4846 44.3469 11.4034 44.23 11.49L44.2358 11.4846Z" fill="#9E4400"/>
<path d="M37.3518 11.6254V17.1103C37.3518 17.2727 37.2173 17.4081 37.0535 17.4081H35.5739C35.5096 17.4081 35.4511 17.381 35.3984 17.3431L35.8078 17.6788V17.668C35.8605 17.7113 35.9306 17.7438 36.0008 17.7438H37.4804C37.6442 17.7438 37.7787 17.6084 37.7787 17.446V11.9611C37.7787 11.8474 37.8898 11.7608 37.9951 11.7662L37.6267 11.4847C37.5097 11.398 37.3459 11.4792 37.3459 11.62L37.3518 11.6254Z" fill="#9E4400"/>
<path d="M40.7788 11.1653L40.5215 10.9812L40.773 11.1599L40.7788 11.1653Z" fill="#9E4400"/>
<path d="M46.5921 8.06268V17.1103C46.5921 17.2727 46.4576 17.4081 46.2939 17.4081H44.8142C44.7733 17.4081 44.7382 17.3972 44.7031 17.3864L45.0657 17.6788C45.1184 17.7167 45.1768 17.7438 45.247 17.7438H46.7267C46.8904 17.7438 47.0249 17.6084 47.0249 17.446V8.39297C47.0249 8.31175 46.984 8.24136 46.9255 8.19263L46.4986 7.85693H46.4869C46.5454 7.90566 46.5863 7.97605 46.5863 8.05727L46.5921 8.06268Z" fill="#9E4400"/>
<defs>
<linearGradient id="paint0_linear_1584_4146" x1="70.2965" y1="63.4194" x2="64.6694" y2="63.4194" gradientUnits="userSpaceOnUse">
<stop stop-color="#C45A00"/>
<stop offset="1" stop-color="#863A00"/>
</linearGradient>
<linearGradient id="paint1_linear_1584_4146" x1="86.8788" y1="63.7335" x2="81.2517" y2="63.7335" gradientUnits="userSpaceOnUse">
<stop stop-color="#E7813C"/>
<stop offset="0.595756" stop-color="#C45A00"/>
</linearGradient>
<linearGradient id="paint2_linear_1584_4146" x1="66.3766" y1="55.7446" x2="60.7494" y2="55.7446" gradientUnits="userSpaceOnUse">
<stop stop-color="#C45A00"/>
<stop offset="1" stop-color="#863A00"/>
</linearGradient>
<linearGradient id="paint3_linear_1584_4146" x1="82.9589" y1="56.0587" x2="77.3318" y2="56.0587" gradientUnits="userSpaceOnUse">
<stop stop-color="#E7813C"/>
<stop offset="0.595756" stop-color="#C45A00"/>
</linearGradient>
<linearGradient id="paint4_linear_1584_4146" x1="66.3766" y1="71.094" x2="60.7494" y2="71.094" gradientUnits="userSpaceOnUse">
<stop stop-color="#C45A00"/>
<stop offset="1" stop-color="#863A00"/>
</linearGradient>
<linearGradient id="paint5_linear_1584_4146" x1="82.9589" y1="71.408" x2="77.3318" y2="71.408" gradientUnits="userSpaceOnUse">
<stop stop-color="#E7813C"/>
<stop offset="0.595756" stop-color="#C45A00"/>
</linearGradient>
<linearGradient id="paint6_linear_1584_4146" x1="13.0876" y1="60.6486" x2="7.46038" y2="60.6486" gradientUnits="userSpaceOnUse">
<stop stop-color="#C45A00"/>
<stop offset="1" stop-color="#863A00"/>
</linearGradient>
<linearGradient id="paint7_linear_1584_4146" x1="29.6699" y1="60.9627" x2="24.0427" y2="60.9627" gradientUnits="userSpaceOnUse">
<stop stop-color="#E7813C"/>
<stop offset="0.595756" stop-color="#C45A00"/>
</linearGradient>
<linearGradient id="paint8_linear_1584_4146" x1="9.16763" y1="52.9741" x2="3.54046" y2="52.9741" gradientUnits="userSpaceOnUse">
<stop stop-color="#C45A00"/>
<stop offset="1" stop-color="#863A00"/>
</linearGradient>
<linearGradient id="paint9_linear_1584_4146" x1="25.7499" y1="53.2882" x2="20.1228" y2="53.2882" gradientUnits="userSpaceOnUse">
<stop stop-color="#E7813C"/>
<stop offset="0.595756" stop-color="#C45A00"/>
</linearGradient>
<linearGradient id="paint10_linear_1584_4146" x1="9.16763" y1="68.3234" x2="3.54046" y2="68.3234" gradientUnits="userSpaceOnUse">
<stop stop-color="#C45A00"/>
<stop offset="1" stop-color="#863A00"/>
</linearGradient>
<linearGradient id="paint11_linear_1584_4146" x1="25.7499" y1="68.6375" x2="20.1228" y2="68.6375" gradientUnits="userSpaceOnUse">
<stop stop-color="#E7813C"/>
<stop offset="0.595756" stop-color="#C45A00"/>
</linearGradient>
<linearGradient id="paint12_linear_1584_4146" x1="39.3483" y1="50.49" x2="33.7211" y2="50.49" gradientUnits="userSpaceOnUse">
<stop stop-color="#C45A00"/>
<stop offset="1" stop-color="#863A00"/>
</linearGradient>
<linearGradient id="paint13_linear_1584_4146" x1="55.9306" y1="50.804" x2="50.3034" y2="50.804" gradientUnits="userSpaceOnUse">
<stop stop-color="#E7813C"/>
<stop offset="0.595756" stop-color="#C45A00"/>
</linearGradient>
<linearGradient id="paint14_linear_1584_4146" x1="35.4284" y1="42.8154" x2="29.8012" y2="42.8154" gradientUnits="userSpaceOnUse">
<stop stop-color="#C45A00"/>
<stop offset="1" stop-color="#863A00"/>
</linearGradient>
<linearGradient id="paint15_linear_1584_4146" x1="52.0107" y1="43.1295" x2="46.3835" y2="43.1295" gradientUnits="userSpaceOnUse">
<stop stop-color="#E7813C"/>
<stop offset="0.595756" stop-color="#C45A00"/>
</linearGradient>
<linearGradient id="paint16_linear_1584_4146" x1="35.4284" y1="58.1648" x2="29.8012" y2="58.1648" gradientUnits="userSpaceOnUse">
<stop stop-color="#C45A00"/>
<stop offset="1" stop-color="#863A00"/>
</linearGradient>
<linearGradient id="paint17_linear_1584_4146" x1="52.0107" y1="58.4788" x2="46.3835" y2="58.4788" gradientUnits="userSpaceOnUse">
<stop stop-color="#E7813C"/>
<stop offset="0.595756" stop-color="#C45A00"/>
</linearGradient>
<linearGradient id="paint18_linear_1584_4146" x1="39.3483" y1="65.8391" x2="33.7211" y2="65.8391" gradientUnits="userSpaceOnUse">
<stop stop-color="#C45A00"/>
<stop offset="1" stop-color="#863A00"/>
</linearGradient>
<linearGradient id="paint19_linear_1584_4146" x1="55.9306" y1="66.1532" x2="50.3034" y2="66.1532" gradientUnits="userSpaceOnUse">
<stop stop-color="#E7813C"/>
<stop offset="0.595756" stop-color="#C45A00"/>
</linearGradient>
<linearGradient id="paint20_linear_1584_4146" x1="35.4284" y1="58.1648" x2="29.8012" y2="58.1648" gradientUnits="userSpaceOnUse">
<stop stop-color="#C45A00"/>
<stop offset="1" stop-color="#863A00"/>
</linearGradient>
<linearGradient id="paint21_linear_1584_4146" x1="52.0107" y1="58.4788" x2="46.3835" y2="58.4788" gradientUnits="userSpaceOnUse">
<stop stop-color="#E7813C"/>
<stop offset="0.595756" stop-color="#C45A00"/>
</linearGradient>
<linearGradient id="paint22_linear_1584_4146" x1="35.4284" y1="73.5136" x2="29.8012" y2="73.5136" gradientUnits="userSpaceOnUse">
<stop stop-color="#C45A00"/>
<stop offset="1" stop-color="#863A00"/>
</linearGradient>
<linearGradient id="paint23_linear_1584_4146" x1="52.0107" y1="73.8277" x2="46.3835" y2="73.8277" gradientUnits="userSpaceOnUse">
<stop stop-color="#E7813C"/>
<stop offset="0.595756" stop-color="#C45A00"/>
</linearGradient>
</defs>
</svg>
