<svg width="50" height="54" viewBox="0 0 50 54" fill="none" xmlns="http://www.w3.org/2000/svg">
    <g clip-path="url(#clip0_2665_17136)">
        <path d="M27.3746 0H22.9888C24.3918 0.0316592 25.7637 0.211061 27.0836 0.527653C37.4348 3.00762 45.2606 13.93 45.2606 27.0053C45.2606 40.0805 37.4348 51.0029 27.0836 53.4829C25.7533 53.7995 24.3814 53.9789 22.9888 54H27.3746C39.846 54 49.9998 41.8956 49.9998 27.0053C49.9998 12.1149 39.846 0 27.3746 0Z" fill="#9E4400"/>
        <path d="M44.7411 27.0054C44.7411 12.4 34.8159 0.527832 22.6251 0.527832C10.4343 0.527832 0.519531 12.4 0.519531 27.0054C0.519531 41.6109 10.4343 53.4831 22.6251 53.4831C34.8159 53.4831 44.7307 41.6109 44.7307 27.0054H44.7411ZM21.5962 50.0217C11.2242 50.0217 2.78517 39.7008 2.78517 27.0054C2.78517 14.3101 11.2138 3.98923 21.5858 3.98923C31.9579 3.98923 40.3969 14.3101 40.3969 27.0054C40.3969 39.7008 31.9579 50.0217 21.5858 50.0217H21.5962Z" fill="#E7813C"/>
        <path d="M45.2609 27.0053C45.2609 13.9406 37.435 3.00762 27.0838 0.527653C25.7535 0.211061 24.3816 0.0316592 22.989 0.0105531C22.8747 0.0105531 22.7499 0 22.6356 0C10.1538 0 0 12.1149 0 27.0053C0 41.8956 10.1538 54.0106 22.6252 54.0106C22.7396 54.0106 22.8643 54.0106 22.9786 54C24.3816 53.9789 25.7535 53.7995 27.0734 53.4829C37.4247 51.0029 45.2505 40.0805 45.2505 27.0053H45.2609ZM22.6356 53.4829C10.4344 53.4724 0.519642 41.6002 0.519642 27.0053C0.519642 12.4104 10.4344 0.527653 22.6252 0.527653C34.816 0.527653 44.7308 12.3998 44.7308 27.0053C44.7308 41.6107 34.816 53.4829 22.6252 53.4829H22.6356Z" fill="#C45A00"/>
        <path d="M21.586 3.98926C11.2139 3.98926 2.7749 14.3102 2.7749 27.0055C2.7749 39.7008 11.2139 50.0217 21.586 50.0217C31.958 50.0217 40.397 39.7008 40.397 27.0055C40.397 14.3102 31.958 3.98926 21.586 3.98926ZM21.5132 49.8212C11.2243 49.8212 2.85805 39.5847 2.85805 27.0055C2.85805 14.4262 11.2243 4.18977 21.5132 4.18977C21.7834 4.18977 22.064 4.20032 22.3342 4.21087C21.2118 4.27419 20.131 4.46415 19.0709 4.75963C10.7358 7.03909 4.48972 16.1358 4.48972 27.0055C4.48972 37.8751 10.7358 46.9613 19.0605 49.2513C20.1206 49.5468 21.2118 49.7368 22.3238 49.8001C22.0536 49.8106 21.7834 49.8212 21.5028 49.8212H21.5132Z" fill="#C45A00"/>
        <path d="M4.48959 27.0052C4.48959 16.1461 10.7357 7.04933 19.0604 4.75932C20.1204 4.46383 21.2117 4.27388 22.3237 4.21056C22.0535 4.20001 21.7833 4.18945 21.5027 4.18945C11.2242 4.18945 2.85791 14.4259 2.85791 27.0052C2.85791 39.5844 11.2242 49.8209 21.5131 49.8209C21.7833 49.8209 22.0639 49.8103 22.3341 49.7998C21.2117 49.7365 20.1308 49.5465 19.0708 49.251C10.7461 46.961 4.49998 37.8748 4.49998 27.0052H4.48959Z" fill="#9E4400"/>
        <path d="M25.2755 25.686L24.9637 25.971L21.5237 29.0419C21.3782 29.1791 21.1807 29.2002 21.004 29.1158C20.9624 29.0947 20.9209 29.0736 20.8793 29.0419L17.8134 26.3087L17.1275 25.6966C16.9404 25.5277 16.6494 25.6755 16.6494 25.9393V28.6725C16.6494 28.9047 16.7429 29.1263 16.9092 29.2741L20.7442 32.6933C20.7442 32.6933 20.8273 32.746 20.8689 32.7671C21.1287 32.9149 21.4405 32.8938 21.6796 32.6933L25.5145 29.2741C25.6808 29.1263 25.7743 28.9047 25.7743 28.6725V25.9393C25.7743 25.8654 25.7536 25.8021 25.712 25.7493C25.6184 25.6122 25.4314 25.5699 25.2963 25.686H25.2755Z" fill="#E7813C"/>
        <path d="M11.37 32.9886C11.4635 33.0625 11.5674 33.1153 11.6818 33.1153H14.3111C14.6021 33.1153 14.8412 32.8515 14.8412 32.5349V21.8446C14.8412 21.5702 15.1322 21.4119 15.34 21.5808L15.9948 22.1295L20.8898 26.1819C20.9522 26.2347 21.0249 26.2558 21.0873 26.2769C21.2432 26.3191 21.3991 26.2769 21.5342 26.1819L27.084 21.5808C27.2918 21.4119 27.5828 21.5702 27.5828 21.8446V32.5349C27.5828 32.6721 27.6348 32.7776 27.6971 32.8831C27.7491 32.9675 27.8218 33.0309 27.905 33.0731C27.9673 33.1047 28.0401 33.1153 28.1025 33.1153H30.7318C31.0228 33.1153 31.2619 32.8515 31.2619 32.5349V14.9007C31.2619 14.7424 31.1891 14.5947 31.0852 14.4997C31.0021 14.4258 30.8981 14.373 30.7838 14.373H30.0459C29.9108 14.373 29.7653 14.4258 29.6614 14.5102L21.4822 20.9371C21.3159 21.0637 21.0977 21.0637 20.9314 20.9371L20.4845 20.5782L12.7626 14.5102C12.6483 14.4258 12.5132 14.373 12.3781 14.373H11.6402C11.3804 14.373 11.1621 14.6052 11.1621 14.8901V32.5349C11.1621 32.6826 11.2141 32.8198 11.3076 32.9253C11.3284 32.957 11.3596 32.9675 11.3804 32.9886H11.37Z" fill="#E7813C"/>
        <path d="M30.8667 39.162C31.085 39.162 31.2616 38.9721 31.2616 38.7399V35.574C31.2616 35.4473 31.2097 35.3418 31.1369 35.2679C31.0642 35.1941 30.9706 35.1519 30.8667 35.1519H11.536C11.3178 35.1519 11.1411 35.3418 11.1411 35.574V38.7399C11.1411 38.8243 11.1723 38.9087 11.2139 38.9721C11.2554 39.0459 11.3178 39.1093 11.4009 39.1409C11.4425 39.162 11.4841 39.1726 11.536 39.1726H30.8667V39.162Z" fill="#E7813C"/>
        <path d="M31.854 35.8694L31.1369 35.2573C31.2097 35.3312 31.2616 35.4473 31.2616 35.5634V38.7293C31.2616 38.9614 31.0849 39.1514 30.8667 39.1514H11.536C11.536 39.1514 11.4425 39.1409 11.4009 39.1197L12.0972 39.7318C12.1596 39.7635 12.2219 39.7951 12.3051 39.7951H31.6358C31.854 39.7951 32.0307 39.6052 32.0307 39.373V36.2071C32.0307 36.0594 31.9579 35.9433 31.854 35.8588V35.8694Z" fill="#9E4400"/>
        <path d="M25.7638 25.9391V28.6724C25.7638 28.9045 25.6703 29.1261 25.504 29.2739L21.669 32.6931C21.4404 32.9041 21.1182 32.9147 20.8584 32.7669L21.5028 33.3368C21.773 33.5795 22.1679 33.5795 22.4381 33.3368L26.2731 29.9176C26.4394 29.7699 26.5329 29.5483 26.5329 29.3161V26.5829C26.5329 26.4773 26.4809 26.3929 26.4082 26.3296L25.6495 25.6753C25.6495 25.6753 25.6703 25.6964 25.7015 25.7386C25.7326 25.7914 25.7638 25.8547 25.7638 25.9286V25.9391Z" fill="#9E4400"/>
        <path d="M27.0733 21.5702L21.5236 26.1713C21.3884 26.2769 21.2326 26.3085 21.0767 26.2663L21.6794 26.7623C21.8665 26.9206 22.1367 26.9206 22.3238 26.7623L27.5618 22.4461V21.8446C27.5618 21.5702 27.2708 21.4119 27.0629 21.5808L27.0733 21.5702Z" fill="#9E4400"/>
        <path d="M14.8408 21.8444V32.5346C14.8408 32.8512 14.6018 33.1151 14.3108 33.1151H11.6814C11.5671 33.1151 11.4632 33.0623 11.3696 32.9884L12.0971 33.6427V33.6216C12.1907 33.706 12.3154 33.7694 12.4401 33.7694H15.0695C15.3605 33.7694 15.5995 33.5055 15.5995 33.1889V22.4987C15.5995 22.2771 15.797 22.1082 15.9841 22.1188L15.3293 21.57C15.1214 21.4012 14.8304 21.5595 14.8304 21.8339L14.8408 21.8444Z" fill="#9E4400"/>
        <path d="M20.9309 20.9477L20.4736 20.5889L20.9205 20.9371L20.9309 20.9477Z" fill="#9E4400"/>
        <path d="M31.2617 14.9005V32.5347C31.2617 32.8513 31.0226 33.1151 30.7316 33.1151H28.1023C28.0295 33.1151 27.9671 33.094 27.9048 33.0729L28.5491 33.6428C28.6427 33.7166 28.7466 33.7694 28.8713 33.7694H31.5007C31.7917 33.7694 32.0308 33.5056 32.0308 33.189V15.5443C32.0308 15.386 31.958 15.2488 31.8541 15.1538L31.0954 14.4995H31.0746C31.1785 14.5945 31.2513 14.7317 31.2513 14.89L31.2617 14.9005Z" fill="#9E4400"/>
    </g>
    <defs>
        <clipPath id="clip0_2665_17136">
            <rect width="50" height="54" fill="white"/>
        </clipPath>
    </defs>
</svg>
