<svg xmlns="http://www.w3.org/2000/svg" viewBox="0 0 43 45" fill="none">
  <g clip-path="url(#clip0_11890_117875)">
    <path d="M23.5423 0H19.7705C30.3619 0.202267 38.9243 10.2101 38.9243 22.5044C38.9243 34.7987 30.3619 44.8065 19.7705 45H23.5423C34.2766 45 43 34.913 43 22.5044C43 10.0958 34.2677 0 23.5423 0Z" fill="#F89F03"/>
    <path d="M19.4576 0.439941C8.97349 0.439941 0.446777 10.3334 0.446777 22.5046C0.446777 34.6758 8.97349 44.5693 19.4576 44.5693C29.9417 44.5693 38.4684 34.6758 38.4684 22.5046C38.4684 10.3334 29.9417 0.439941 19.4576 0.439941ZM34.7413 22.5046C34.7413 33.0753 27.4838 41.6848 18.5638 41.6848C9.64382 41.6848 2.38629 33.0753 2.38629 22.5046C2.38629 11.934 9.64382 3.32444 18.5638 3.32444C27.4838 3.32444 34.7413 11.9252 34.7413 22.5046Z" fill="#FFD572"/>
    <path d="M38.9243 22.5044C38.9243 10.2101 30.3529 0.202267 19.7616 0.00879422C19.6633 0.00879422 19.556 0 19.4577 0C8.73228 0 0 10.0958 0 22.5044C0 34.913 8.73228 45.0088 19.4577 45.0088C19.556 45.0088 19.6633 45.0088 19.7616 45C30.3529 44.8065 38.9154 34.7987 38.9154 22.5044H38.9243ZM38.4774 22.5044C38.4774 34.6668 29.9507 44.5691 19.4666 44.5691C8.98254 44.5691 0.446892 34.6668 0.446892 22.5044C0.446892 10.342 8.9736 0.439711 19.4577 0.439711C29.9418 0.439711 38.4685 10.3332 38.4685 22.5044H38.4774Z" fill="#FFBE24"/>
    <path d="M18.564 3.32422C9.64401 3.32422 2.38647 11.925 2.38647 22.5044C2.38647 33.0838 9.64401 41.6846 18.564 41.6846C27.4839 41.6846 34.7415 33.0838 34.7415 22.5044C34.7415 11.925 27.4839 3.32422 18.564 3.32422ZM18.5014 41.5175C9.65295 41.5175 2.45798 32.9871 2.45798 22.5044C2.45798 12.0217 9.65295 3.49131 18.5014 3.49131C18.7338 3.49131 18.9751 3.5001 19.2075 3.5089C10.6808 3.94861 3.86122 12.2943 3.86122 22.5044C3.86122 32.7145 10.6808 41.0602 19.1986 41.4999C18.9662 41.5087 18.7338 41.5175 18.4925 41.5175H18.5014Z" fill="#FFBE24"/>
    <path d="M3.86125 22.5043C3.86125 12.2942 10.6808 3.94851 19.2075 3.5088C18.9752 3.50001 18.7428 3.49121 18.5015 3.49121C9.65298 3.49121 2.45801 12.0216 2.45801 22.5043C2.45801 32.987 9.65298 41.5174 18.5015 41.5174C18.7338 41.5174 18.9752 41.5086 19.2075 41.4998C10.6898 41.0601 3.87019 32.7144 3.87019 22.5043H3.86125Z" fill="#F89F03"/>
    <path d="M21.7368 21.4048L21.4686 21.6422L18.5102 24.2013C18.3851 24.3157 18.2153 24.3332 18.0633 24.2629C18.0276 24.2453 17.9918 24.2277 17.9561 24.2013L15.3194 21.9236L14.7295 21.4136C14.5686 21.2729 14.3184 21.396 14.3184 21.6158V23.8935C14.3184 24.087 14.3988 24.2717 14.5418 24.3948L17.8399 27.2441C17.8399 27.2441 17.9114 27.2881 17.9471 27.3057C18.1706 27.4288 18.4387 27.4112 18.6443 27.2441L21.9423 24.3948C22.0854 24.2717 22.1658 24.087 22.1658 23.8935V21.6158C22.1658 21.5543 22.1479 21.5015 22.1122 21.4575C22.0317 21.3432 21.8708 21.308 21.7547 21.4048H21.7368Z" fill="#FFD572"/>
    <path d="M9.77788 27.4905C9.85832 27.5521 9.9477 27.5961 10.046 27.5961H12.3073C12.5575 27.5961 12.7631 27.3762 12.7631 27.1124V18.2038C12.7631 17.9752 13.0134 17.8433 13.1921 17.984L13.7552 18.4413L17.9649 21.8183C18.0186 21.8622 18.0811 21.8798 18.1348 21.8974C18.2688 21.9326 18.4029 21.8974 18.5191 21.8183L23.2919 17.984C23.4707 17.8433 23.7209 17.9752 23.7209 18.2038V27.1124C23.7209 27.2267 23.7656 27.3147 23.8192 27.4026C23.8639 27.4729 23.9265 27.5257 23.998 27.5609C24.0516 27.5873 24.1142 27.5961 24.1678 27.5961H26.4291C26.6793 27.5961 26.8849 27.3762 26.8849 27.1124V12.4172C26.8849 12.2853 26.8224 12.1622 26.733 12.0831C26.6615 12.0215 26.5721 11.9775 26.4738 11.9775H25.8392C25.723 11.9775 25.5979 12.0215 25.5085 12.0919L18.4744 17.4475C18.3314 17.5531 18.1437 17.5531 18.0007 17.4475L17.6164 17.1485L10.9755 12.0919C10.8772 12.0215 10.761 11.9775 10.6448 11.9775H10.0103C9.78682 11.9775 9.59912 12.171 9.59912 12.4085V27.1124C9.59912 27.2355 9.64381 27.3498 9.72425 27.4378C9.74213 27.4642 9.76894 27.4729 9.78682 27.4905H9.77788Z" fill="#FFD572"/>
    <path d="M26.5453 32.6353C26.733 32.6353 26.885 32.477 26.885 32.2835V29.6452C26.885 29.5397 26.8403 29.4518 26.7777 29.3902C26.7151 29.3286 26.6347 29.2935 26.5453 29.2935H9.92094C9.73324 29.2935 9.5813 29.4518 9.5813 29.6452V32.2835C9.5813 32.3538 9.60811 32.4242 9.64386 32.477C9.67961 32.5385 9.73324 32.5913 9.80474 32.6177C9.8405 32.6353 9.87625 32.6441 9.92094 32.6441H26.5453V32.6353Z" fill="#FFD572"/>
    <path d="M27.3944 29.8914L26.7777 29.3813C26.8402 29.4429 26.8849 29.5396 26.8849 29.6364V32.2746C26.8849 32.4681 26.733 32.6264 26.5453 32.6264H9.92088C9.92088 32.6264 9.84044 32.6176 9.80469 32.6L10.4035 33.1101C10.4572 33.1365 10.5108 33.1629 10.5823 33.1629H27.2067C27.3944 33.1629 27.5463 33.0046 27.5463 32.8111V30.1728C27.5463 30.0497 27.4838 29.953 27.3944 29.8826V29.8914Z" fill="#F89F03"/>
    <path d="M22.1567 21.6159V23.8936C22.1567 24.087 22.0762 24.2717 21.9332 24.3948L18.6351 27.2441C18.4385 27.42 18.1614 27.4288 17.938 27.3057L18.4921 27.7806C18.7245 27.9829 19.0642 27.9829 19.2965 27.7806L22.5946 24.9313C22.7376 24.8082 22.8181 24.6235 22.8181 24.43V22.1523C22.8181 22.0644 22.7734 21.994 22.7108 21.9412L22.0583 21.396C22.0583 21.396 22.0762 21.4136 22.103 21.4488C22.1298 21.4927 22.1567 21.5455 22.1567 21.6071V21.6159Z" fill="#F89F03"/>
    <path d="M23.2829 17.9749L18.5101 21.8092C18.3939 21.8972 18.2598 21.9235 18.1257 21.8884L18.6441 22.3017C18.805 22.4336 19.0374 22.4336 19.1983 22.3017L23.7029 18.7049V18.2036C23.7029 17.9749 23.4527 17.843 23.2739 17.9837L23.2829 17.9749Z" fill="#F89F03"/>
    <path d="M12.7631 18.2036V27.1121C12.7631 27.376 12.5575 27.5958 12.3072 27.5958H10.046C9.94765 27.5958 9.85827 27.5518 9.77783 27.4903L10.4035 28.0355V28.0179C10.4839 28.0883 10.5912 28.1411 10.6984 28.1411H12.9597C13.21 28.1411 13.4155 27.9212 13.4155 27.6574V18.7488C13.4155 18.5642 13.5854 18.4234 13.7462 18.4322L13.1832 17.9749C13.0044 17.8342 12.7541 17.9661 12.7541 18.1948L12.7631 18.2036Z" fill="#F89F03"/>
    <path d="M18.0007 17.4562L17.6074 17.1572L17.9917 17.4474L18.0007 17.4562Z" fill="#F89F03"/>
    <path d="M26.885 12.4172V27.1123C26.885 27.3761 26.6794 27.596 26.4291 27.596H24.1679C24.1053 27.596 24.0517 27.5784 23.998 27.5608L24.5522 28.0357C24.6326 28.0973 24.722 28.1412 24.8293 28.1412H27.0906C27.3408 28.1412 27.5464 27.9214 27.5464 27.6576V12.9536C27.5464 12.8217 27.4838 12.7074 27.3944 12.6282L26.742 12.083H26.7241C26.8135 12.1622 26.876 12.2765 26.876 12.4084L26.885 12.4172Z" fill="#F89F03"/>
  </g>
  <defs>
    <clipPath id="clip0_11890_117875">
      <rect width="43" height="45" fill="white"/>
    </clipPath>
  </defs>
</svg>