<svg width="50" height="53" viewBox="0 0 50 53" fill="none" xmlns="http://www.w3.org/2000/svg">
    <g clip-path="url(#clip0_2665_17045)">
        <path d="M27.3746 0H22.9888C35.3043 0.238226 45.2606 12.0252 45.2606 26.5052C45.2606 40.9851 35.3043 52.7721 22.9888 53H27.3746C39.8564 53 49.9998 41.1198 49.9998 26.5052C49.9998 11.8906 39.846 0 27.3746 0Z" fill="#A0A5BA"/>
        <path d="M22.6251 52.4823C34.8159 52.4823 44.7307 40.83 44.7307 26.495C44.7307 12.16 34.8159 0.518066 22.6251 0.518066C10.4343 0.518066 0.519531 12.1704 0.519531 26.5054C0.519531 40.8403 10.4343 52.4927 22.6251 52.4927V52.4823ZM21.5858 3.91537C31.9579 3.91537 40.3969 14.0451 40.3969 26.5054C40.3969 38.9656 31.9579 49.0954 21.5858 49.0954C11.2138 49.0954 2.77478 38.9552 2.77478 26.5054C2.77478 14.0555 11.2138 3.91537 21.5858 3.91537Z" fill="#EBF0FF"/>
        <path d="M45.2609 26.5052C45.2609 12.0252 35.2941 0.238226 22.9786 0.0103576C22.8643 0.0103576 22.7396 0 22.6252 0C10.1538 0 0 11.8906 0 26.5052C0 41.1198 10.1538 53.0104 22.6252 53.0104C22.7396 53.0104 22.8643 53.0104 22.9786 53C35.2941 52.7721 45.2505 40.9851 45.2505 26.5052H45.2609ZM22.6252 0.517882C34.816 0.517882 44.7308 12.1702 44.7308 26.5052C44.7308 40.8401 34.816 52.4925 22.6252 52.4925C10.4344 52.4925 0.519642 40.8298 0.519642 26.5052C0.519642 12.1806 10.4344 0.517882 22.6252 0.517882Z" fill="#D7DEF2"/>
        <path d="M21.586 49.0847C31.958 49.0847 40.397 38.9549 40.397 26.4947C40.397 14.0344 31.958 3.91504 21.586 3.91504C11.2139 3.91504 2.7749 14.0448 2.7749 26.505C2.7749 38.9653 11.2139 49.095 21.586 49.095V49.0847ZM21.5132 4.10148C21.7834 4.10148 22.064 4.11183 22.3342 4.12219C12.4195 4.65043 4.48972 14.4798 4.48972 26.505C4.48972 38.5302 12.4195 48.3596 22.3238 48.8775C22.0536 48.8879 21.7834 48.8982 21.5028 48.8982C11.2139 48.8982 2.84765 38.8513 2.84765 26.505C2.84765 14.1587 11.2243 4.11183 21.5132 4.11183V4.10148Z" fill="#D7DEF2"/>
        <path d="M21.5131 48.8982C21.7833 48.8982 22.0639 48.8879 22.3341 48.8775C12.4297 48.3596 4.49998 38.5302 4.49998 26.505C4.49998 14.4798 12.4193 4.65041 22.3341 4.13253C22.0639 4.12217 21.7937 4.11182 21.5131 4.11182C11.2242 4.11182 2.85791 14.1587 2.85791 26.505C2.85791 38.8513 11.2242 48.8982 21.5131 48.8982Z" fill="#A0A5BA"/>
        <path d="M25.2755 25.2102L24.9637 25.4898L21.5237 28.5039C21.3782 28.6385 21.1807 28.6593 21.004 28.5764C20.9624 28.5557 20.9209 28.535 20.8793 28.5039L17.8134 25.8213L17.1275 25.2205C16.9404 25.0548 16.6494 25.1998 16.6494 25.4588V28.1414C16.6494 28.3692 16.7429 28.5868 16.9092 28.7318L20.7442 32.0876C20.7442 32.0876 20.8273 32.1394 20.8689 32.1601C21.1287 32.3051 21.4405 32.2844 21.6796 32.0876L25.5145 28.7318C25.6808 28.5868 25.7743 28.3692 25.7743 28.1414V25.4588C25.7743 25.3862 25.7536 25.3241 25.712 25.2723C25.6184 25.1377 25.4314 25.0962 25.2963 25.2102H25.2755Z" fill="#EBF0FF"/>
        <path d="M11.37 32.3778C11.4635 32.4503 11.5674 32.5021 11.6818 32.5021H14.3111C14.6021 32.5021 14.8412 32.2431 14.8412 31.9324V21.4401C14.8412 21.1708 15.1322 21.0155 15.34 21.1812L15.9948 21.7198L20.8898 25.6971C20.9522 25.7489 21.0249 25.7696 21.0873 25.7903C21.2432 25.8318 21.3991 25.7903 21.5342 25.6971L27.084 21.1812C27.2918 21.0155 27.5828 21.1708 27.5828 21.4401V31.9324C27.5828 32.0671 27.6348 32.1706 27.6971 32.2742C27.7491 32.3571 27.8218 32.4192 27.905 32.4607C27.9673 32.4917 28.0401 32.5021 28.1025 32.5021H30.7318C31.0228 32.5021 31.2619 32.2431 31.2619 31.9324V14.6248C31.2619 14.4695 31.1891 14.3244 31.0852 14.2312C31.0021 14.1587 30.8981 14.1069 30.7838 14.1069H30.0459C29.9108 14.1069 29.7653 14.1587 29.6614 14.2416L21.4822 20.5494C21.3159 20.6737 21.0977 20.6737 20.9314 20.5494L20.4845 20.1972L12.7626 14.2416C12.6483 14.1587 12.5132 14.1069 12.3781 14.1069H11.6402C11.3804 14.1069 11.1621 14.3348 11.1621 14.6145V31.9324C11.1621 32.0774 11.2141 32.2121 11.3076 32.3157C11.3284 32.3467 11.3596 32.3571 11.3804 32.3778H11.37Z" fill="#EBF0FF"/>
        <path d="M30.8667 38.4369C31.085 38.4369 31.2617 38.2504 31.2617 38.0226V34.9153C31.2617 34.791 31.2097 34.6874 31.137 34.6149C31.0642 34.5424 30.9707 34.501 30.8667 34.501H11.536C11.3178 34.501 11.1411 34.6874 11.1411 34.9153V38.0226C11.1411 38.1054 11.1723 38.1883 11.2139 38.2504C11.2554 38.3229 11.3178 38.3851 11.4009 38.4162C11.4425 38.4369 11.4841 38.4472 11.536 38.4472H30.8667V38.4369Z" fill="#EBF0FF"/>
        <path d="M31.854 35.2057L31.1369 34.605C31.2097 34.6775 31.2616 34.7914 31.2616 34.9054V38.0127C31.2616 38.2405 31.0849 38.427 30.8667 38.427H11.536C11.536 38.427 11.4425 38.4166 11.4009 38.3959L12.0972 38.9966C12.1596 39.0277 12.2219 39.0588 12.3051 39.0588H31.6358C31.854 39.0588 32.0307 38.8723 32.0307 38.6445V35.5372C32.0307 35.3922 31.9579 35.2782 31.854 35.1954V35.2057Z" fill="#A0A5BA"/>
        <path d="M25.7638 25.4591V28.1418C25.7638 28.3696 25.6703 28.5871 25.504 28.7321L21.669 32.088C21.4404 32.2952 21.1182 32.3055 20.8584 32.1605L21.5028 32.7198C21.773 32.9581 22.1679 32.9581 22.4381 32.7198L26.2731 29.364C26.4394 29.219 26.5329 29.0014 26.5329 28.7736V26.091C26.5329 25.9874 26.4809 25.9045 26.4082 25.8424L25.6495 25.2002C25.6495 25.2002 25.6703 25.2209 25.7015 25.2623C25.7326 25.3141 25.7638 25.3763 25.7638 25.4488V25.4591Z" fill="#A0A5BA"/>
        <path d="M27.0733 21.1712L21.5236 25.6871C21.3884 25.7907 21.2326 25.8217 21.0767 25.7803L21.6794 26.2671C21.8665 26.4225 22.1367 26.4225 22.3238 26.2671L27.5618 22.0309V21.4405C27.5618 21.1712 27.2708 21.0158 27.0629 21.1815L27.0733 21.1712Z" fill="#A0A5BA"/>
        <path d="M14.8408 21.4406V31.9329C14.8408 32.2436 14.6018 32.5025 14.3108 32.5025H11.6814C11.5671 32.5025 11.4632 32.4507 11.3696 32.3782L12.0971 33.0204V32.9997C12.1907 33.0825 12.3154 33.1447 12.4401 33.1447H15.0695C15.3605 33.1447 15.5995 32.8858 15.5995 32.575V22.0827C15.5995 21.8652 15.797 21.6995 15.9841 21.7099L15.3293 21.1713C15.1214 21.0056 14.8304 21.1609 14.8304 21.4302L14.8408 21.4406Z" fill="#A0A5BA"/>
        <path d="M20.9309 20.5602L20.4736 20.208L20.9205 20.5498L20.9309 20.5602Z" fill="#A0A5BA"/>
        <path d="M31.2617 14.625V31.9326C31.2617 32.2434 31.0226 32.5023 30.7316 32.5023H28.1022C28.0295 32.5023 27.9671 32.4816 27.9048 32.4609L28.5491 33.0202C28.6427 33.0927 28.7466 33.1445 28.8713 33.1445H31.5007C31.7917 33.1445 32.0307 32.8855 32.0307 32.5748V15.2569C32.0307 15.1015 31.958 14.9668 31.8541 14.8736L31.0954 14.2314H31.0746C31.1785 14.3247 31.2513 14.4593 31.2513 14.6147L31.2617 14.625Z" fill="#A0A5BA"/>
    </g>
    <defs>
        <clipPath id="clip0_2665_17045">
            <rect width="50" height="53" fill="white"/>
        </clipPath>
    </defs>
</svg>
