<svg width="1090" height="138" viewBox="0 0 1090 138" fill="none" xmlns="http://www.w3.org/2000/svg">
<path opacity="0.3" d="M8.27825 30.0099C12.8501 30.0099 16.5158 33.7399 16.3427 38.2299L15.6197 57.2099H15.5179V57.2599H0V127.51C0 133.04 4.55151 137.51 10.1722 137.51H1079.65C1085.28 137.51 1089.83 133.04 1089.83 127.52V54.4999C1089.76 54.3499 1089.69 54.2099 1089.62 54.0699C1089.57 53.9699 1089.52 53.8599 1089.47 53.7599C1089.42 53.6499 1089.35 53.5099 1089.29 53.3999C1089.23 53.2799 1089.12 53.0899 1089.04 52.9399C1088.96 52.7899 1088.9 52.6899 1088.83 52.5699C1088.76 52.4499 1088.71 52.3599 1088.65 52.2599L1088.46 51.9599C1088.36 51.7899 1088.25 51.6499 1088.15 51.4699C1088.09 51.3799 1088.02 51.2999 1087.96 51.2099L1087.71 50.8699C1087.64 50.7699 1087.57 50.6799 1087.5 50.5799L1087.2 50.2199L1087.03 50.0199C1086.89 49.8699 1086.77 49.7299 1086.64 49.5899C1086.59 49.5299 1086.54 49.4799 1086.49 49.4299C1086.44 49.3799 1086.29 49.2299 1086.18 49.1299C1086.13 49.0799 1086.08 49.0299 1086.03 48.9899C1085.89 48.8599 1085.75 48.7399 1085.61 48.6199L1085.47 48.4999C1085.35 48.3999 1085.21 48.2999 1085.09 48.2099L1084.99 48.1299C1084.84 48.0199 1084.67 47.9199 1084.52 47.8199L1084.38 47.7399C1084.22 47.6499 1084.06 47.5499 1083.9 47.4699L1083.83 47.4399C1083.68 47.3599 1083.52 47.2999 1083.37 47.2399L1083.25 47.1899C1083.09 47.1199 1082.93 47.0599 1082.74 47.0099L1082.64 46.9799C1082.49 46.9399 1082.32 46.8999 1082.17 46.8599C1082.14 46.8599 1082.11 46.8499 1082.09 46.8399C1081.92 46.8099 1081.73 46.7799 1081.56 46.7599H1081.44C1081.25 46.7599 1081.07 46.7299 1080.89 46.7299C1080.7 46.7299 1080.52 46.7299 1080.34 46.7599H1080.21C1080.04 46.7799 1079.86 46.8099 1079.69 46.8399L1079.6 46.8599C1079.45 46.8899 1079.29 46.9299 1079.14 46.9799L1079.03 47.0099C1078.86 47.0599 1078.7 47.1199 1078.52 47.1899L1078.4 47.2399C1078.25 47.2999 1078.09 47.3699 1077.94 47.4399L1077.87 47.4699C1077.8 47.5099 1077.73 47.5499 1077.66 47.5899C1077.54 47.6399 1077.4 47.6899 1077.3 47.7499L1077.23 47.7799C1077.07 47.8599 1076.92 47.9499 1076.75 48.0499L1076.61 48.1299C1076.46 48.2299 1076.29 48.3299 1076.14 48.4399L1076.04 48.5199C1075.92 48.6099 1075.79 48.7099 1075.66 48.8099L1075.52 48.9299C1075.38 49.0499 1075.24 49.1699 1075.1 49.2999L1074.95 49.4399C1074.85 49.5399 1074.75 49.6299 1074.66 49.7399C1074.56 49.8399 1074.55 49.8499 1074.49 49.9099C1074.36 50.0499 1074.24 50.1899 1074.12 50.3399L1073.94 50.5399L1073.65 50.8999L1073.42 51.1899L1073.18 51.5299C1073.12 51.6199 1073.06 51.6999 1073 51.7899C1072.88 51.9499 1072.78 52.0999 1072.68 52.2799L1072.5 52.5799C1072.44 52.6799 1072.37 52.7899 1072.31 52.8899C1072.25 52.9999 1072.17 53.1399 1072.1 53.2599C1072.03 53.3899 1071.94 53.5699 1071.84 53.7199L1071.66 54.0799C1071.61 54.1799 1071.56 54.2799 1071.51 54.3899C1071.41 54.5899 1071.32 54.7999 1071.22 54.9999C1071.17 55.0999 1071.13 55.1999 1071.08 55.3099C1071.03 55.4199 1070.96 55.5899 1070.91 55.7299C1070.85 55.8699 1070.83 55.9399 1070.78 56.0399C1070.68 56.2699 1070.59 56.4999 1070.51 56.7299C1070.47 56.8299 1070.44 56.9299 1070.4 57.0399C1070.39 57.0799 1070.37 57.1299 1070.35 57.1799H1055.08C1055.13 56.5899 1055.16 55.9799 1055.18 55.3699C1055.18 55.3399 1055.18 55.3099 1055.18 55.2799C1055.2 54.6799 1055.21 54.0699 1055.21 53.4599C1055.21 47.6899 1054.3 42.4699 1052.82 38.6999C1051.35 34.9299 1049.3 32.5799 1047.07 32.5799C1046.95 32.5799 1046.82 32.5899 1046.69 32.6099H1046.58C1046.49 32.6099 1046.4 32.6399 1046.31 32.6699L1046.21 32.6999C1046.08 32.7299 1045.96 32.7699 1045.84 32.8199L1045.81 32.8399C1045.7 32.8799 1045.59 32.9299 1045.49 32.9899L1045.38 33.0499C1045.38 33.0499 1045.3 33.0999 1045.26 33.1199C1045.24 33.1199 1045.22 33.1299 1045.2 33.1399L1045.17 33.1599C1045.05 33.1999 1044.95 33.2499 1044.85 33.3099L1044.74 33.3699C1044.66 33.4199 1044.57 33.4699 1044.48 33.5199L1044.38 33.5899C1044.26 33.6699 1044.15 33.7499 1044.05 33.8399L1043.98 33.8999C1043.88 33.9799 1043.79 34.0499 1043.71 34.1399L1043.59 34.2499C1043.51 34.3199 1043.44 34.3999 1043.36 34.4799C1043.29 34.5599 1043.28 34.5599 1043.25 34.5999C1043.15 34.7099 1043.05 34.8299 1042.95 34.9499C1042.92 34.9899 1042.88 35.0299 1042.85 35.0799L1042.63 35.3599C1042.59 35.4199 1042.55 35.4799 1042.5 35.5399L1042.32 35.8099L1042.19 35.9999C1042.1 36.1399 1042.01 36.2899 1041.93 36.4399L1041.8 36.6699C1041.75 36.7599 1041.69 36.8499 1041.64 36.9499C1041.59 37.0399 1041.55 37.1299 1041.5 37.2199C1041.45 37.3099 1041.41 37.3999 1041.37 37.4899C1041.33 37.5799 1041.31 37.5999 1041.29 37.6599L1041.01 38.2699L1040.87 38.6199L1040.77 38.8699C1040.72 38.9899 1040.68 39.1099 1040.63 39.2299C1040.58 39.3499 1040.56 39.3899 1040.53 39.4699C1040.37 39.9199 1040.22 40.3699 1040.07 40.8599L1039.99 41.0799C1039.94 41.2299 1039.9 41.3899 1039.86 41.5399L1039.8 41.7399C1039.66 42.2599 1039.53 42.7999 1039.39 43.3599L1039.34 43.5699C1039.3 43.7499 1039.26 43.9199 1039.23 44.0999C1039.23 44.1599 1039.21 44.2199 1039.2 44.2699C1039.14 44.5699 1039.09 44.8799 1039.03 45.1899H1037.37C1036.89 45.1899 1036.45 45.3399 1036.09 45.5999C1035.2 45.8699 1034.56 46.6799 1034.55 47.6399V57.2299H1023.71V50.0099C1023.71 49.7399 1023.49 49.5299 1023.22 49.5299H1023.09C1022.63 49.5299 1022.21 49.6799 1021.86 49.9299C1021 50.1799 1020.37 50.9599 1020.37 51.8899V57.2399H1015.05V54.9099C1015.05 53.6099 1013.98 52.5599 1012.65 52.5599C1012.36 52.5599 1012.09 52.6899 1011.9 52.8899C1011.39 52.9399 1010.98 53.3699 1010.98 53.8899V57.2499H966.997L966.906 57.1699C966.885 56.9599 966.855 56.7599 966.834 56.5399C966.834 56.4699 966.834 56.3999 966.814 56.3199C966.783 56.0899 966.763 55.8699 966.732 55.6499L966.712 55.4699C966.692 55.2799 966.671 55.0799 966.641 54.8899V54.7699C966.61 54.5399 966.59 54.3199 966.559 54.0999V53.9999C966.539 53.8199 966.519 53.6399 966.498 53.4599L966.478 53.2799C966.457 53.0899 966.437 52.8999 966.417 52.7099V52.6299C966.396 52.4499 966.376 52.2799 966.356 52.1099V52.0199C966.315 51.6399 966.274 51.2899 966.233 50.9499V50.8499C966.213 50.6899 966.203 50.5399 966.183 50.3799C966.183 50.2299 966.152 50.0899 966.142 49.9499V49.8599C966.111 49.5899 966.081 49.3399 966.06 49.1099V49.0299C966.06 48.9199 966.04 48.8099 966.03 48.7199C966.03 48.6199 966.03 48.5299 965.999 48.4499V48.3899C965.999 48.3099 965.999 48.2299 965.979 48.1599L965.938 47.6399V47.4499L965.918 47.1399V44.6999L965.938 44.4199C965.938 44.3599 965.938 44.2999 965.959 44.2399C965.979 44.1799 965.959 44.0499 965.989 43.9499C966.02 43.8599 965.989 43.8399 965.989 43.7899L966.03 43.4999C966.03 43.4999 966.03 43.4099 966.05 43.3599C966.06 43.2599 966.081 43.1599 966.101 43.0699C966.101 43.0299 966.101 42.9899 966.121 42.9399C966.142 42.8399 966.162 42.7399 966.183 42.6399C966.183 42.5999 966.183 42.5599 966.203 42.5299C966.234 42.4299 966.254 42.3299 966.274 42.2299C966.274 42.1999 966.274 42.1699 966.305 42.1399C966.335 42.0399 966.356 41.9299 966.386 41.8299L966.407 41.7499C966.437 41.6499 966.478 41.5499 966.508 41.4399L966.529 41.3899C966.569 41.2799 966.61 41.1799 966.651 41.0799C966.651 41.0699 966.651 41.0599 966.651 41.0499C966.702 40.9399 966.743 40.8399 966.793 40.7399C967.211 39.7799 967.934 39.0099 968.81 38.4899C969.329 38.2799 969.899 38.1499 970.49 38.1299H984.653C985.285 38.1299 985.865 37.9499 986.354 37.6299C987.535 37.2099 988.38 36.0999 988.38 34.7899C988.38 34.1899 988.197 33.5999 987.861 33.0999C987.81 33.0199 987.749 32.9399 987.688 32.8699C987.565 32.7199 987.423 32.5799 987.27 32.4599C987.036 32.2699 986.781 32.1199 986.517 31.9999C986.333 31.9199 986.14 31.8699 985.936 31.8199C985.733 31.7799 985.529 31.7599 985.315 31.7599H962.069V19.7299H975.53C976.171 19.7299 976.772 19.5499 977.281 19.2299C978.371 18.8399 979.196 17.8799 979.338 16.6799C979.409 15.9799 979.226 15.2799 978.829 14.6899C978.605 14.3699 978.32 14.0899 977.994 13.8699C977.485 13.5299 976.884 13.3499 976.273 13.3499H972.933C972.933 6.05991 966.916 0.159912 959.503 0.159912C957.212 0.159912 955.053 0.719913 953.17 1.71991C948.689 3.77991 945.563 8.19991 945.441 13.3599H942.733C942.122 13.3599 941.531 13.5399 941.022 13.8699C940.798 13.9499 940.574 14.0499 940.37 14.1899C939.871 14.5199 939.484 14.9799 939.25 15.5199C939.169 15.6999 939.108 15.8899 939.067 16.0899C939.026 16.2899 939.006 16.4899 939.006 16.6999C939.006 16.7999 939.006 16.9099 939.026 17.0099C939.047 17.1199 939.057 17.2099 939.067 17.3199C939.362 18.7299 940.625 19.7399 942.091 19.7399H956.285V31.7699H933.742C933.141 31.7699 932.56 31.9399 932.062 32.2599C931.726 32.3799 931.42 32.5499 931.135 32.7799C930.982 32.8999 930.84 33.0399 930.717 33.1899C930.656 33.2699 930.595 33.3399 930.544 33.4199C930.371 33.6599 930.249 33.9299 930.157 34.2099C930.066 34.4999 930.015 34.8099 930.015 35.1099C930.015 35.5099 930.096 35.9199 930.259 36.2899C930.738 37.4099 931.858 38.1399 933.1 38.1399H947.264C949.158 38.2199 950.838 39.3599 951.591 41.0599C951.642 41.1599 951.683 41.2699 951.734 41.3699C951.734 41.3799 951.734 41.3899 951.734 41.3999C951.775 41.4999 951.815 41.5999 951.856 41.7099L951.876 41.7599C951.907 41.8599 951.948 41.9599 951.978 42.0699C951.978 42.0999 951.978 42.1199 951.999 42.1499C952.029 42.2499 952.06 42.3499 952.08 42.4599C952.08 42.4899 952.1 42.5199 952.111 42.5499C952.141 42.6499 952.161 42.7499 952.182 42.8499C952.182 42.8799 952.202 42.9199 952.212 42.9599L952.273 43.2599C952.273 43.2599 952.294 43.3499 952.294 43.3899C952.314 43.4899 952.324 43.5799 952.345 43.6799L952.365 43.8199L952.406 44.1099L952.426 44.2699L952.457 44.5599V44.7399C952.457 44.7999 952.457 44.9299 952.477 45.0199C952.497 45.1099 952.477 45.1499 952.477 45.2099V47.4699L952.457 47.7799V47.9799C952.457 48.1299 952.436 48.2899 952.426 48.4499C952.426 48.4699 952.426 48.4899 952.426 48.4999C952.426 48.5699 952.426 48.6499 952.406 48.7399V48.7899C952.406 48.8799 952.406 48.9699 952.375 49.0699C952.345 49.1699 952.355 49.2699 952.345 49.3799V49.4599C952.324 49.6899 952.294 49.9399 952.263 50.2099V50.2999C952.253 50.4399 952.233 50.5799 952.212 50.7199C952.212 50.8699 952.182 51.0299 952.161 51.1899V51.2999C952.141 51.4499 952.131 51.6099 952.111 51.7699V51.8099C952.09 51.9799 952.07 52.1499 952.049 52.3299L952.029 52.4999C952.009 52.6499 951.999 52.8099 951.978 52.9599V53.0699C951.958 53.2499 951.937 53.4399 951.917 53.6299C951.917 53.7099 951.897 53.7799 951.897 53.8599C951.897 53.9899 951.866 54.1199 951.856 54.2499L951.815 54.5599C951.795 54.7399 951.775 54.9099 951.754 55.0899C951.754 55.1599 951.754 55.2199 951.734 55.2799C951.734 55.4299 951.703 55.5899 951.683 55.7499C951.683 55.8299 951.683 55.8999 951.652 55.9799C951.632 56.1799 951.601 56.3899 951.581 56.6099C951.581 56.7099 951.561 56.8099 951.551 56.9199C951.54 57.0399 951.52 57.1599 951.51 57.2799H942.977L942.519 57.2999H942.244L941.806 57.3199L941.541 57.3399L941.103 57.3699L940.859 57.3899L940.421 57.4299L940.207 57.4499L939.739 57.4999L939.566 57.5199L939.047 57.5799H938.955C938.12 57.6899 937.356 57.8199 936.613 57.9799L936.084 58.0999H936.053C935.89 58.1399 935.737 58.1799 935.564 58.2199H935.534L935.065 58.3499H935.045C934.882 58.3899 934.729 58.4399 934.577 58.4899V44.1499C934.577 43.0399 933.66 42.1399 932.53 42.1399H928.824C927.561 42.1399 926.38 42.4699 925.362 43.0299C922.867 44.0999 921.126 46.5399 921.126 49.3799V58.9299L915.576 63.5199C914.079 64.7499 913.224 66.5699 913.214 68.4899V71.4699H887.819C887.819 70.9299 887.585 70.4199 887.178 70.0499L870.672 54.9699C870.295 54.5999 869.695 54.5999 869.318 54.9699C869.308 54.9799 869.298 54.9999 869.277 55.0199C869.053 55.0399 868.839 55.1199 868.676 55.2899C868.483 55.4799 868.381 55.7299 868.391 55.9899V66.6699C868.391 67.6899 867.892 68.6499 867.057 69.2499L863.972 71.4699H799.386C783.44 71.4699 777.758 67.6299 772.738 64.2499C768.818 61.5999 765.102 59.0899 757.638 59.0899H751.264V58.1899C751.264 56.0899 752.435 54.2599 754.166 53.2899C754.848 53.0099 755.601 52.8499 756.386 52.8499H762.943C763.422 52.8499 763.88 52.6999 764.256 52.4299C764.542 52.3399 764.816 52.2099 765.041 52.0099C765.142 51.9299 765.234 51.8399 765.315 51.7399C765.692 51.2799 765.855 50.6899 765.743 50.1099C765.539 49.1099 764.633 48.3999 763.605 48.4099H751.264V45.1299C751.264 44.9399 751.264 44.7399 751.294 44.5499C751.335 44.1799 751.406 43.8099 751.529 43.4499C751.691 42.9299 751.936 42.4299 752.251 41.9699C752.74 41.2499 753.392 40.6699 754.135 40.2399C754.838 39.9499 755.601 39.7899 756.386 39.7899H762.984C763.462 39.7899 763.91 39.6399 764.267 39.3799C765.02 39.1599 765.611 38.5399 765.753 37.7399C765.774 37.6299 765.784 37.5099 765.784 37.3899C765.774 36.2599 764.837 35.3499 763.686 35.3499H761.375V35.1099C761.375 28.5299 755.958 23.1899 749.258 23.1899C747.16 23.1899 745.195 23.7099 743.474 24.6199C739.361 26.5099 736.499 30.5999 736.479 35.3599H734.901C734.432 35.3599 733.974 35.5099 733.587 35.7799C733.241 35.8899 732.915 36.0699 732.661 36.3299C732.62 36.3699 732.569 36.4199 732.528 36.4699C732.274 36.7699 732.111 37.1399 732.07 37.5299V37.7599C732.07 37.9699 732.111 38.1899 732.182 38.3899C732.233 38.5199 732.294 38.6499 732.365 38.7799C732.742 39.4099 733.424 39.7899 734.168 39.7899H740.827C743.342 39.7899 745.572 41.3999 746.325 43.7599C746.437 44.1199 746.519 44.4899 746.549 44.8599C746.57 45.0499 746.58 45.2499 746.58 45.4399V48.4199H734.891C734.402 48.4199 733.954 48.5599 733.577 48.8299C732.895 49.0399 732.335 49.5699 732.131 50.2799C732.09 50.4499 732.07 50.6299 732.07 50.8099C732.08 51.9399 733.017 52.8499 734.168 52.8499H740.827C741.977 52.8499 743.097 53.1799 744.044 53.8099C744.197 53.9099 744.34 54.0099 744.482 54.1199C744.91 54.4599 745.287 54.8699 745.592 55.3199C746.234 56.2499 746.58 57.3499 746.57 58.4799V59.0699H700.973V46.8699C700.973 45.7799 700.077 44.8899 698.957 44.8899C698.061 44.8899 697.226 45.1299 696.503 45.5499C694.742 46.2499 693.489 47.9499 693.489 49.9399V59.0899H672.452C672.513 58.7899 672.544 58.4899 672.544 58.1899C672.544 57.2599 671.77 56.4999 670.823 56.4999H653.615V51.2999H667.422C668.267 51.2999 669.051 51.0699 669.724 50.6699C671.373 50.0199 672.544 48.4399 672.544 46.5899C672.544 45.6599 671.77 44.8999 670.823 44.8999H653.615V39.6999H667.422C668.267 39.6999 669.051 39.4699 669.724 39.0699C671.373 38.4199 672.544 36.8399 672.544 34.9899C672.544 34.0599 671.77 33.2999 670.823 33.2999H653.615V28.0999H667.422C668.267 28.0999 669.051 27.8699 669.724 27.4699C671.373 26.8199 672.544 25.2399 672.544 23.3899C672.544 22.4599 671.77 21.6999 670.823 21.6999H653.615V16.0799L667.412 16.0999C668.257 16.0999 669.041 15.8699 669.713 15.4699C671.363 14.8199 672.534 13.2399 672.534 11.3899V11.3699C672.534 10.4399 671.76 9.67991 670.813 9.67991H625.502C625.094 9.67991 624.728 9.81991 624.432 10.0499C623.689 10.2399 623.139 10.8899 623.139 11.6799C623.139 14.1099 625.145 16.0799 627.62 16.0799H638.372C640.541 16.6399 641.793 18.2399 642.343 20.2499C642.374 20.3599 642.394 20.4699 642.425 20.5799C642.425 20.5999 642.435 20.6299 642.445 20.6499C642.465 20.7499 642.486 20.8599 642.506 20.9599C642.506 20.9899 642.506 21.0199 642.526 21.0499C642.547 21.1499 642.557 21.2499 642.577 21.3599V21.4699C642.577 21.5699 642.608 21.6699 642.608 21.7699V21.8899C642.608 21.9899 642.628 22.0899 642.628 22.1999V22.3099C642.649 22.6199 642.649 22.9699 642.628 23.2999V23.4699C642.628 23.5299 642.628 23.6299 642.608 23.7099C642.588 23.7899 642.608 23.8499 642.588 23.9199L642.567 24.1399C642.567 24.2199 642.547 24.2899 642.537 24.3699L642.506 24.5799C642.506 24.6599 642.486 24.7399 642.476 24.8199C642.465 24.8999 642.455 24.9599 642.445 25.0199C642.435 25.0899 642.414 25.1799 642.404 25.2699L642.364 25.4599C642.343 25.5499 642.333 25.6399 642.313 25.7199C642.292 25.7999 642.282 25.8399 642.272 25.8999C642.262 25.9599 642.221 26.0899 642.201 26.1899C642.18 26.2899 642.18 26.2899 642.17 26.3299C642.129 26.4699 642.089 26.6099 642.048 26.7499C642.007 26.8899 641.966 26.9899 641.936 27.1199L641.916 27.1799L641.783 27.5999V27.6399L641.63 28.1299C641.63 28.1299 641.61 28.1699 641.61 28.1999L641.457 28.7099C641.457 28.7099 641.437 28.7799 641.427 28.8099C641.376 28.9699 641.325 29.1199 641.274 29.2899C641.274 29.3099 641.254 29.3399 641.244 29.3699C641.193 29.5399 641.131 29.7199 641.081 29.8999C641.05 29.9899 641.03 30.0799 640.999 30.1699L640.571 31.5199C640.571 31.5199 640.571 31.5399 640.571 31.5499C640.521 31.7099 640.47 31.8599 640.419 32.0399C640.368 32.2199 640.286 32.4699 640.215 32.6899C640.185 32.7899 640.154 32.8899 640.123 32.9999L640.032 33.3099L639.889 33.7799L639.706 34.3599C639.543 34.8699 639.39 35.3899 639.207 35.9299L639.126 36.1799C639.034 36.4599 638.952 36.7399 638.861 37.0299V37.0599C638.759 37.3899 638.647 37.7399 638.545 38.0799C638.545 38.0799 638.545 38.0899 638.545 38.0999C638.464 38.3599 638.372 38.6299 638.291 38.8999C638.24 39.0599 638.189 39.2099 638.138 39.3699C638.056 39.6399 637.965 39.9099 637.883 40.1899C637.853 40.2899 637.822 40.3799 637.792 40.4799L637.588 41.1099C637.527 41.2899 637.476 41.4699 637.415 41.6499C637.099 42.6599 636.773 43.6899 636.437 44.7599C636.387 44.9199 636.336 45.0699 636.285 45.2299C636.081 45.8799 635.877 46.5299 635.664 47.1899L635.419 47.9599C635.358 48.1499 635.297 48.3399 635.236 48.5299L635.124 48.8899C634.085 52.1699 633.006 55.6099 631.916 59.0699H595.993V54.4299C595.993 53.2799 595.046 52.3499 593.875 52.3499H586.391C585.923 52.3499 585.495 52.4999 585.139 52.7499C584.263 53.0099 583.622 53.7999 583.622 54.7499V59.0299H558.308V44.8899C558.308 44.0399 557.606 43.3499 556.74 43.3499H555.915C554.856 43.3499 553.848 43.6299 552.983 44.1299C551.527 44.7399 550.356 45.9199 549.796 47.4299L546.456 56.4199H538.605C537.577 56.4199 536.6 56.6899 535.744 57.1799C534.502 57.6899 533.463 58.6299 532.852 59.8599L531.519 62.4999C531.05 63.4299 530.327 64.1899 529.441 64.6899C528.81 64.9499 528.118 65.0899 527.415 65.0899H497.866V53.2399C497.866 50.4199 495.534 48.1299 492.663 48.1299H491.644V45.3899C491.644 39.5499 486.777 34.7699 480.831 34.7699H478.998C478.998 34.7699 479.029 34.7399 479.039 34.7199H478.978C477.847 34.7199 476.921 35.6299 476.921 36.7399V64.0899H457.035V52.0299C457.035 51.5099 456.8 51.0099 456.383 50.6699C455.579 50.0099 454.723 49.7699 453.96 49.8299C453.97 49.8199 453.99 49.7999 454.011 49.7899C452.585 49.9399 451.465 51.1199 451.465 52.5599V59.8999C447.616 60.6899 443.92 61.8799 440.417 63.4199C439.888 63.6599 439.358 63.8999 438.829 64.1499L438.778 64.1699C438.778 64.1699 438.706 64.1999 438.676 64.2199V47.5099C438.676 46.3999 437.749 45.4899 436.619 45.4899H433.737C433.737 45.4899 433.768 45.4599 433.778 45.4399H433.717C432.587 45.4399 431.66 46.3499 431.66 47.4599V68.2699C424.054 73.4599 417.873 80.5099 413.821 88.7399C413.301 89.7799 412.456 90.5899 411.428 91.0899C410.705 91.4599 409.88 91.6599 409.035 91.6599H401.806V82.2199C401.806 81.7799 401.622 81.3599 401.286 81.0699C400.543 80.4299 399.759 80.1899 399.046 80.2199C399.056 80.2099 399.077 80.1899 399.097 80.1799C397.743 80.2799 396.674 81.3999 396.674 82.7399V91.6099H396.572V91.6599H389.628C389.271 91.6599 388.915 91.6999 388.569 91.7799C388.589 91.7699 388.609 91.7599 388.619 91.7399C387.459 92.0099 386.44 92.7099 385.768 93.7099L383.559 97.0399H383.488L383.457 97.0899H381.695C381.695 97.0899 381.726 97.0599 381.736 97.0399H381.604C380.586 97.0399 379.751 97.8399 379.72 98.8399L379.69 99.9799H379.588V100.03H370.973C370.566 100.03 370.179 100.08 369.792 100.18C369.813 100.17 369.823 100.16 369.843 100.15C368.978 100.37 368.173 100.8 367.532 101.44L364.66 104.26H364.609L364.559 104.31H348.99L345.1 97.0999C344.265 95.5599 342.646 94.5999 340.874 94.5999H330.427V90.9499C330.427 90.5999 330.224 90.2999 329.928 90.1399C329.928 90.1099 329.928 90.0799 329.939 90.0499C329.837 90.0099 329.725 89.9899 329.603 89.9899H329.216C328.707 89.9899 328.289 90.3999 328.289 90.8999V94.5499H328.187V94.5999H319.512C317.292 94.5999 315.5 92.8299 315.5 90.6599V70.5699C315.5 69.2199 314.248 68.1999 312.904 68.4499C312.16 68.5899 311.427 68.7999 310.735 69.0499C310.755 69.0399 310.775 69.0299 310.796 69.0199C305.674 70.9299 302.039 75.7799 302.039 81.4799C302.039 81.5099 302.039 81.5499 302.039 81.5799L297.406 83.9599C294.647 85.3799 292.549 87.7899 291.572 90.6999L289.698 96.2099C289.291 97.4199 288.395 98.3799 287.285 98.9199C286.613 99.2599 285.859 99.4599 285.075 99.4599C283.242 99.4599 281.46 99.7899 279.801 100.41C279.821 100.4 279.841 100.39 279.862 100.38C277.113 101.42 274.689 103.26 272.968 105.71L268.407 112.2H268.335L268.855 111.46L268.305 112.24H254.08V109.08C254.08 108.55 253.642 108.12 253.103 108.12H252.543C252.543 108.12 252.543 108.09 252.553 108.07H251.86C251.321 108.07 250.883 108.5 250.883 109.03V112.19H250.781V112.24H240.171C238.735 112.24 237.381 111.61 236.465 110.52L231.109 104.11C230.203 103.02 228.838 102.39 227.402 102.39H224.236C223.116 102.39 222.036 101.96 221.232 101.19L214.257 94.5499C213.391 93.7299 212.241 93.2699 211.029 93.2699H200.328V84.9499C200.328 84.2899 199.788 83.7599 199.116 83.7599C198.882 83.7599 198.647 83.7799 198.413 83.8199C198.434 83.8099 198.454 83.7899 198.464 83.7799C196.682 84.1199 195.328 85.6699 195.328 87.5199V90.3799H195.226V90.4299H188.638V85.1199C188.638 83.4799 187.284 82.1399 185.604 82.1399H171.267C170.88 82.1399 170.514 82.1899 170.147 82.2699C170.167 82.2599 170.188 82.2499 170.198 82.2299C168.925 82.5399 167.805 83.3499 167.133 84.4999L162.408 92.6299C162.113 93.1399 161.645 93.5299 161.105 93.7499C160.759 93.9099 160.382 93.9899 159.995 93.9899H157.022C156.177 93.9899 155.495 93.3399 155.444 92.5099C154.313 73.0799 138.918 57.3999 119.388 55.4199C119.021 55.3799 118.665 55.3999 118.329 55.4599C118.349 55.4499 118.37 55.4299 118.38 55.4199C116.649 55.7399 115.305 57.2299 115.305 59.0599V67.8699H115.203V67.9199H109.623C109.114 67.9199 108.625 67.9899 108.157 68.1099C108.177 68.0999 108.198 68.0899 108.208 68.0799C106.446 68.5599 104.99 69.8499 104.369 71.5899L101.905 78.4299H101.823L101.803 78.4799H95.2457C95.0624 78.4799 94.8893 78.4899 94.7162 78.5199C94.7366 78.5099 94.7467 78.4999 94.7671 78.4799C93.5758 78.6799 92.5474 79.4799 92.0892 80.6099L87.4765 92.1099C87.2016 92.8099 86.662 93.3499 86.0001 93.6499C85.9492 93.6699 85.9085 93.6899 85.8576 93.7199C85.4808 93.8899 85.0735 93.9799 84.6459 93.9799H78.9234C78.2208 93.9799 77.5997 93.5399 77.3757 92.8899L77.0702 92.0099C76.7444 91.0799 75.8483 90.4499 74.8504 90.4499H69.4538L67.01 76.4099C66.7962 75.1899 65.7169 74.2999 64.4644 74.2999H57.0415C57.0415 74.2999 56.9499 74.2999 56.9091 74.2999C56.9193 74.2899 56.9397 74.2699 56.96 74.2599C56.0335 74.3299 55.2087 74.8699 54.8116 75.7099L52.8158 79.8899H52.7344L52.714 79.9399H33.8156L33.5814 73.8799H33.6832V73.8299H38.8762C40.0675 73.8299 41.1672 73.4799 42.0938 72.8799C42.0735 72.8799 42.0531 72.8899 42.0327 72.8999C43.5703 71.8699 44.5783 70.1399 44.5783 68.1799C44.5783 67.3499 43.8961 66.6799 43.051 66.6799H33.3065L33.0723 60.6199H33.1741V60.5699H38.866C40.0574 60.5699 41.157 60.2199 42.0836 59.6199C42.0633 59.6199 42.0429 59.6299 42.0225 59.6399C43.5601 58.6099 44.5681 56.8799 44.5681 54.9199C44.5681 54.0899 43.8859 53.4199 43.0408 53.4199H32.7872L32.553 47.3599H32.6548V47.3099H38.8558C40.0472 47.3099 41.1469 46.9599 42.0735 46.3599C42.0531 46.3599 42.0327 46.3699 42.0124 46.3799C43.5499 45.3499 44.558 43.6199 44.558 41.6599C44.558 40.8299 43.8757 40.1599 43.0306 40.1599H32.2679L32.1966 38.2799C32.0744 35.0399 33.9479 32.1899 36.7175 30.8599C37.8071 30.3199 39.0493 30.0099 40.3628 30.0099H71.5004C72.2743 30.0099 73.0176 29.7299 73.598 29.2399C73.5776 29.2399 73.5573 29.2399 73.5369 29.2499C73.6998 29.1099 73.8424 28.9499 73.9748 28.7799C76.4083 25.4699 74.0053 21.7699 70.8284 21.9899H0V30.0199H8.27825V30.0099ZM1069.41 60.6299C1069.33 61.0099 1069.24 61.3599 1069.17 61.7299C1069.17 61.7299 1069.17 61.7699 1069.17 61.7899C1069.1 62.1399 1069.02 62.4899 1068.96 62.8499L1068.94 62.9699C1068.88 63.3099 1068.83 63.6499 1068.78 63.9899L1068.75 64.1799C1068.71 64.4899 1068.67 64.8099 1068.63 65.1399L1068.6 65.3899C1068.57 65.6999 1068.54 65.9999 1068.5 66.3099L1068.47 66.6199C1068.45 66.9199 1068.43 67.2099 1068.41 67.5099C1068.41 67.6099 1068.41 67.6999 1068.39 67.8099C1068.39 68.0899 1068.36 68.5399 1068.35 68.8199V70.3699C1068.35 70.7899 1068.35 71.2799 1068.37 71.7299V72.1199C1068.37 72.4299 1068.4 72.7699 1068.42 73.0999L1068.45 73.5099C1068.47 73.8499 1068.51 74.1799 1068.54 74.5099L1068.57 74.8199C1068.6 75.1399 1068.64 75.4699 1068.68 75.7899H1064.11V63.3399C1064.11 62.3199 1063.47 61.3999 1062.51 61.0099L1061.51 60.6199H1069.42L1069.41 60.6299ZM1023.81 60.6299H1034.66L1034.64 75.8099H1031.97C1031.97 75.5899 1031.97 75.3799 1031.95 75.1599V74.9799C1031.95 74.8099 1031.94 74.6399 1031.91 74.4799V74.3199C1031.89 74.1099 1031.86 73.8999 1031.83 73.6899C1031.83 73.6499 1031.81 73.5999 1031.81 73.5599C1031.78 73.3899 1031.75 73.2299 1031.72 73.0599L1031.68 72.8699C1031.63 72.6999 1031.59 72.5199 1031.55 72.3499C1031.55 72.3199 1031.55 72.2899 1031.53 72.2599C1031.48 72.0599 1031.42 71.8699 1031.36 71.6699L1031.3 71.4999C1031.25 71.3499 1031.21 71.2099 1031.16 71.0699C1031.14 71.0099 1031.12 70.9499 1031.1 70.8999C1031.02 70.7099 1030.95 70.5299 1030.87 70.3399C1030.85 70.2999 1030.84 70.2599 1030.82 70.2199L1030.62 69.7799L1030.52 69.5899C1030.46 69.4599 1030.39 69.3299 1030.32 69.1999C1030.29 69.1499 1030.27 69.0999 1030.24 69.0399C1030.15 68.8699 1030.05 68.7099 1029.95 68.5399C1029.91 68.4799 1029.87 68.4199 1029.84 68.3599C1029.77 68.2499 1029.7 68.1399 1029.62 68.0299L1029.49 67.8399C1029.4 67.7099 1029.3 67.5899 1029.22 67.4699L1029.07 67.2599L1028.79 66.9199L1028.63 66.7299C1028.55 66.6399 1028.48 66.5499 1028.4 66.4599C1028.32 66.3699 1028.28 66.3299 1028.22 66.2699C1028.1 66.1399 1027.98 66.0099 1027.85 65.8799L1027.66 65.6999L1027.42 65.4699C1027.35 65.4099 1027.28 65.3399 1027.21 65.2799C1027.13 65.2199 1027.03 65.1299 1026.95 65.0599C1026.87 64.9899 1026.75 64.8899 1026.65 64.8199L1026.33 64.5699L1026.09 64.3999L1025.83 64.2299L1025.59 64.0599L1025.27 63.8599L1024.89 63.6399L1024.63 63.4899L1024.35 63.3499L1024.09 63.2099L1023.81 63.0799V60.6199V60.6299ZM1015.13 60.6299H1020.45V62.0099C1020.4 62.0099 1020.35 61.9899 1020.31 61.9799L1020.17 61.9499C1019.96 61.9099 1019.73 61.8799 1019.53 61.8499L1019.32 61.8199C1019.11 61.7999 1018.9 61.7799 1018.68 61.7599L1018.47 61.7399C1018.19 61.7399 1017.92 61.7099 1017.64 61.7099C1017.42 61.7099 1017.2 61.7099 1016.97 61.7299C1016.83 61.7299 1016.7 61.7499 1016.55 61.7599L1016.34 61.7799C1016.16 61.7999 1015.97 61.8199 1015.79 61.8399H1015.73C1015.54 61.8699 1015.33 61.8999 1015.14 61.9299V60.6099L1015.13 60.6299ZM1011.07 60.6399V63.3099C1010.96 63.3599 1010.87 63.3999 1010.77 63.4599C1010.26 63.6999 1009.76 63.9599 1009.28 64.2599C1008.72 64.6099 1008.19 64.9999 1007.69 65.4199L1007.63 65.4599C1007.28 65.7599 1006.94 66.0699 1006.63 66.3999L1006.55 66.4899C1006.45 66.5899 1006.35 66.6899 1006.26 66.7999L1006.17 66.9099C1005.99 67.1099 1005.81 67.3299 1005.64 67.5399L1005.6 67.5999C1005.53 67.6899 1005.46 67.7899 1005.38 67.8899L1005.24 68.0799L1005.05 68.3599C1005 68.4399 1004.95 68.5099 1004.9 68.5899C1004.8 68.7299 1004.71 68.8699 1004.63 69.0099C1004.57 69.0999 1004.52 69.1999 1004.46 69.2999L1004.35 69.4999L1004.19 69.8099C1004.14 69.9099 1004.09 69.9999 1004.05 70.0999C1003.97 70.2699 1003.89 70.4399 1003.82 70.6099L1003.75 70.7899C1003.69 70.9199 1003.63 71.0499 1003.59 71.1799C1003.56 71.2599 1003.53 71.3299 1003.51 71.3999C1003.46 71.5299 1003.42 71.6599 1003.37 71.7999C1003.35 71.8599 1003.33 71.9199 1003.31 71.9899C1003.25 72.1799 1003.2 72.3699 1003.14 72.5599C1003.14 72.6099 1003.11 72.6699 1003.1 72.7199C1003.06 72.8699 1003.03 73.0199 1003 73.1699C1003 73.2399 1002.97 73.2999 1002.96 73.3699C1002.93 73.5399 1002.89 73.7099 1002.87 73.8799C1002.87 73.9199 1002.87 73.9599 1002.85 73.9899C1002.82 74.1999 1002.79 74.3999 1002.77 74.6199V74.7899C1002.77 74.9499 1002.74 75.0999 1002.73 75.2799V75.7999H998.674C997.554 75.7999 996.475 76.0999 995.538 76.6299C994.408 77.1099 993.431 77.8999 992.738 78.9499L983.482 92.8399H971.386C971.345 92.5299 971.314 92.2299 971.274 91.9299C971.274 91.8599 971.253 91.7899 971.243 91.7299C971.111 90.6999 970.989 89.6599 970.856 88.6199C970.775 87.9099 970.683 87.1999 970.592 86.4899V86.4599L970.479 85.5199L970.429 85.1199L970.276 83.8599C970.225 83.4599 970.174 83.0599 970.133 82.6599L970.113 82.4999C970.093 82.3199 970.072 82.1499 970.052 81.9799C970.031 81.7999 970.001 81.5599 969.97 81.3499C969.94 81.1399 969.93 81.0099 969.909 80.8399L969.828 80.1299C969.808 79.9999 969.797 79.8699 969.777 79.7299L969.695 79.0999L969.665 78.8699C969.543 77.8299 969.41 76.8099 969.288 75.7899C969.288 75.7799 969.288 75.7599 969.288 75.7499C969.166 74.7399 969.044 73.7399 968.922 72.7499C968.922 72.6799 968.922 72.6099 968.901 72.5399C968.372 68.2499 967.883 64.1899 967.466 60.6299H1011.08L1011.07 60.6399ZM934.566 61.8399C934.923 61.7199 935.289 61.5999 935.686 61.4999L935.89 61.4499L936.297 61.3499L936.562 61.2899C936.776 61.2399 936.99 61.1999 937.224 61.1599L937.591 61.0899L937.957 61.0299L938.436 60.9599L938.772 60.9199C939.016 60.8899 939.25 60.8599 939.505 60.8399L939.82 60.8099L940.462 60.7599L940.747 60.7399L941.684 60.6899H941.918L942.733 60.6599H951.082C951.011 61.1699 950.95 61.7099 950.878 62.2699V62.3499C950.777 63.1599 950.685 63.9999 950.573 64.8599L950.543 65.0899C950.441 65.9299 950.339 66.7899 950.227 67.6699C950.227 67.7399 950.227 67.7999 950.206 67.8599L949.769 71.4999C949.769 71.5899 949.748 71.6799 949.738 71.7599C949.667 72.3499 949.596 72.9499 949.524 73.5599C949.524 73.6299 949.504 73.6999 949.494 73.7699C949.046 77.3999 948.587 81.1799 948.129 84.9499L948.109 85.0899C947.987 86.0699 947.865 87.0499 947.753 88.0299C947.753 88.1099 947.753 88.1799 947.722 88.2499C947.691 88.5199 947.651 88.7899 947.62 89.0599C947.6 89.2199 947.579 89.3699 947.559 89.5499C947.498 90.0699 947.427 90.5899 947.366 91.0999C947.366 91.2399 947.335 91.3799 947.315 91.5199C947.294 91.6599 947.284 91.8299 947.264 91.9699V91.9899H944.372V77.7099C944.372 76.5499 943.415 75.6099 942.244 75.6099C941.786 75.6099 941.348 75.7599 940.981 76.0199C940.452 76.1799 939.994 76.5399 939.719 77.0299C939.688 77.0899 939.658 77.1499 939.627 77.2099C939.515 77.4699 939.454 77.7499 939.454 78.0299V91.9899H934.566V61.8899V61.8399ZM887.85 74.8599H913.245V90.5299H887.85V74.8599ZM789.101 74.2799C789.254 74.2999 789.417 74.3199 789.57 74.3399H789.6C789.967 74.3799 790.344 74.4199 790.72 74.4599H790.822C791.179 74.4999 791.545 74.5299 791.922 74.5599L792.126 74.5799L793.174 74.6599L793.49 74.6799L794.467 74.7399L794.977 74.7599L795.842 74.7899C796.097 74.7899 796.351 74.7899 796.606 74.8099L797.288 74.8299H861.651L861.681 82.2299H839.952C838.557 82.2299 837.203 82.5799 836.022 83.2299C834.81 83.7599 833.741 84.5899 832.916 85.6499L824.78 96.1899H798.367V87.1799C798.367 86.8299 798.225 86.4899 797.97 86.2399C797.736 86.0099 797.42 85.8699 797.084 85.8599C796.728 85.8599 796.402 85.9899 796.148 86.1999C795.516 86.3199 795.027 86.8699 795.027 87.5299C795.027 87.5399 795.027 87.5499 795.027 87.5599V96.1899H789.091V74.2899L789.101 74.2799ZM751.376 62.4699H757.119C763.584 62.4699 766.598 64.4999 770.407 67.0699L770.967 67.4499L771.109 67.5399L771.588 67.8499L771.73 67.9399C772.158 68.2199 772.586 68.4999 773.034 68.7799H773.054C773.268 68.9099 773.492 69.0499 773.716 69.1799L773.797 69.2299C774.51 69.6599 775.274 70.0799 776.099 70.4899H776.119C776.394 70.6299 776.679 70.7599 776.964 70.8999C777.84 71.3099 778.797 71.7099 779.846 72.0799C780.874 72.4499 781.984 72.7999 783.196 73.1099H783.236C783.633 73.2099 784.051 73.3099 784.468 73.4199L784.448 77.5699L777.555 79.7299C777.157 79.8499 776.781 80.0199 776.435 80.2199C774.337 81.0899 772.942 83.1099 772.932 85.3799V94.2199H768.452V84.6099C768.452 83.0499 767.158 81.7799 765.57 81.7799H764.409V76.8599C764.409 74.9899 762.872 73.4699 760.957 73.4699H758.89C758.544 73.4699 758.239 73.5999 758.004 73.8099C757.394 73.9199 756.925 74.4499 756.925 75.0899V94.2399H751.355V62.4699H751.376ZM701.044 62.4699H746.641L746.661 94.2399H743.332L740.287 89.8599C739.574 88.8299 739.198 87.6199 739.198 86.3799V80.9099C739.198 79.6399 738.149 78.5999 736.846 78.5999H736.601C736.347 78.5999 736.133 78.7199 736 78.9099H735.96C735.563 78.9099 735.237 79.2199 735.237 79.6199V88.2899H712.153V82.7099C712.153 81.1099 711.268 79.6399 709.842 78.8699L701.065 74.1199V62.4699H701.044ZM653.697 86.0399H667.504C668.349 86.0399 669.133 85.8099 669.805 85.4099C671.455 84.7599 672.626 83.1799 672.626 81.3299C672.626 80.3999 671.852 79.6399 670.905 79.6399H653.697V74.4399H667.504C668.349 74.4399 669.133 74.2099 669.805 73.8099C671.455 73.1599 672.626 71.5799 672.626 69.7299C672.626 68.7999 671.852 68.0399 670.905 68.0399H653.697V62.8399H667.504C668.115 62.8399 668.715 62.7199 669.275 62.4799H693.56V64.2299H689.63C688.887 64.2299 688.184 64.4399 687.594 64.7999C686.423 65.2499 685.506 66.2499 685.211 67.5099L680.272 89.0099C679.855 90.8199 678.684 92.3099 677.136 93.1899C676.332 93.5299 675.446 93.7299 674.519 93.7199H653.707V86.0399H653.697ZM596.034 62.4799H630.878C630.654 63.2099 630.42 63.9299 630.185 64.6599C630.155 64.7699 630.114 64.8799 630.084 64.9699C629.961 65.3699 629.829 65.7699 629.707 66.1799C629.625 66.4599 629.534 66.7399 629.442 67.0099L629.188 67.8399C628.841 68.9399 628.495 70.0299 628.159 71.1099C628.159 71.1399 628.139 71.1799 628.129 71.2199L626.693 75.7699C626.652 75.9099 626.611 76.0499 626.561 76.1899L625.145 80.6599L623.333 78.7799C622.304 77.7099 620.858 77.0999 619.362 77.0999H604.567V66.9699C604.567 65.6999 603.518 64.6699 602.225 64.6699H596.044V62.4699L596.034 62.4799ZM558.369 74.5199V62.4799H583.683V74.8299C583.683 75.7199 583.235 76.4999 582.542 76.9699C582.278 77.0599 581.992 77.1099 581.707 77.1099H561.007C559.551 77.1099 558.38 75.9599 558.369 74.5299V74.5199Z" fill="url(#paint0_linear_3872_12846)"/>
<defs>
<linearGradient id="paint0_linear_3872_12846" x1="0" y1="68.7899" x2="1089.83" y2="68.7899" gradientUnits="userSpaceOnUse">
<stop stop-color="#160E3F"/>
<stop offset="0.14" stop-color="#181143"/>
<stop offset="0.29" stop-color="#1F1B4F"/>
<stop offset="0.45" stop-color="#2A2D64"/>
<stop offset="0.6" stop-color="#3A4581"/>
<stop offset="0.76" stop-color="#4E65A6"/>
<stop offset="0.91" stop-color="#668AD4"/>
<stop offset="1" stop-color="#77A4F2"/>
</linearGradient>
</defs>

<svg width="1090" height="133" viewBox="-300 0 1090 133" fill="none" xmlns="http://www.w3.org/2000/svg">
<g opacity="0.5">
<path opacity="0.5" d="M165.67 26.6504C164.69 26.6504 163.89 27.4504 163.89 28.4304C163.89 29.4104 164.69 30.2104 165.67 30.2104C166.65 30.2104 167.45 29.4104 167.45 28.4304C167.45 27.4504 166.65 26.6504 165.67 26.6504Z" fill="url(#paint0_linear_2665_22323)"/>
<path opacity="0.5" d="M464.87 9.31055C464.49 9.31055 464.18 9.62055 464.18 10.0005C464.18 10.3805 464.49 10.6905 464.87 10.6905C465.25 10.6905 465.56 10.3805 465.56 10.0005C465.56 9.62055 465.25 9.31055 464.87 9.31055Z" fill="url(#paint1_linear_2665_22323)"/>
<path opacity="0.5" d="M569.95 22.3101C569.95 21.9301 569.64 21.6201 569.26 21.6201C568.88 21.6201 568.57 21.9301 568.57 22.3101C568.57 22.6901 568.88 23.0001 569.26 23.0001C569.64 23.0001 569.95 22.6901 569.95 22.3101Z" fill="url(#paint2_linear_2665_22323)"/>
<path opacity="0.5" d="M444.61 28.9102C444.23 28.9102 443.92 29.2202 443.92 29.6002C443.92 29.9802 444.23 30.2902 444.61 30.2902C444.99 30.2902 445.3 29.9802 445.3 29.6002C445.3 29.2202 444.99 28.9102 444.61 28.9102Z" fill="url(#paint3_linear_2665_22323)"/>
<path opacity="0.5" d="M373.99 8.2998C373.52 8.2998 373.14 8.67981 373.14 9.14981C373.14 9.61981 373.52 9.99981 373.99 9.99981C374.46 9.99981 374.84 9.61981 374.84 9.14981C374.84 8.67981 374.46 8.2998 373.99 8.2998Z" fill="url(#paint4_linear_2665_22323)"/>
<path opacity="0.5" d="M390.12 17.3402C390.424 17.3402 390.67 17.094 390.67 16.7902C390.67 16.4865 390.424 16.2402 390.12 16.2402C389.817 16.2402 389.57 16.4865 389.57 16.7902C389.57 17.094 389.817 17.3402 390.12 17.3402Z" fill="url(#paint5_linear_2665_22323)"/>
<path opacity="0.5" d="M177.99 127.23C177.57 127.23 177.24 127.57 177.24 127.98C177.24 128.39 177.58 128.73 177.99 128.73C178.4 128.73 178.74 128.39 178.74 127.98C178.74 127.57 178.4 127.23 177.99 127.23Z" fill="url(#paint6_linear_2665_22323)"/>
<path opacity="0.5" d="M364.3 66.1898C364.742 66.1898 365.1 65.8317 365.1 65.3898C365.1 64.948 364.742 64.5898 364.3 64.5898C363.858 64.5898 363.5 64.948 363.5 65.3898C363.5 65.8317 363.858 66.1898 364.3 66.1898Z" fill="url(#paint7_linear_2665_22323)"/>
<path opacity="0.5" d="M730.32 28.1603C729.92 28.3703 729.76 28.8603 729.96 29.2603C730.16 29.6603 730.66 29.8203 731.06 29.6203C731.46 29.4103 731.62 28.9203 731.42 28.5203C731.21 28.1203 730.72 27.9603 730.32 28.1603Z" fill="url(#paint8_linear_2665_22323)"/>
<path opacity="0.5" d="M526 14.7004C525.6 14.9104 525.44 15.4004 525.64 15.8004C525.84 16.2004 526.34 16.3604 526.74 16.1604C527.14 15.9504 527.3 15.4604 527.1 15.0604C526.89 14.6604 526.4 14.5004 526 14.7004V14.7004Z" fill="url(#paint9_linear_2665_22323)"/>
<path opacity="0.5" d="M569.95 38.4697C570.226 38.4697 570.45 38.2459 570.45 37.9697C570.45 37.6936 570.226 37.4697 569.95 37.4697C569.674 37.4697 569.45 37.6936 569.45 37.9697C569.45 38.2459 569.674 38.4697 569.95 38.4697Z" fill="url(#paint10_linear_2665_22323)"/>
<path opacity="0.5" d="M744.34 7.82031C744.616 7.82031 744.84 7.59645 744.84 7.32031C744.84 7.04417 744.616 6.82031 744.34 6.82031C744.064 6.82031 743.84 7.04417 743.84 7.32031C743.84 7.59645 744.064 7.82031 744.34 7.82031Z" fill="url(#paint11_linear_2665_22323)"/>
<path opacity="0.5" d="M769.02 77.6504C768.74 77.6504 768.52 77.8804 768.52 78.1504C768.52 78.4204 768.75 78.6504 769.02 78.6504C769.29 78.6504 769.52 78.4204 769.52 78.1504C769.52 77.8804 769.29 77.6504 769.02 77.6504Z" fill="url(#paint12_linear_2665_22323)"/>
<path opacity="0.5" d="M419.03 40.2197C418.75 40.2197 418.53 40.4497 418.53 40.7197C418.53 40.9897 418.76 41.2197 419.03 41.2197C419.3 41.2197 419.53 40.9897 419.53 40.7197C419.53 40.4497 419.3 40.2197 419.03 40.2197Z" fill="url(#paint13_linear_2665_22323)"/>
<path opacity="0.5" d="M687.5 126.991C687.31 127.091 687.23 127.321 687.33 127.511C687.43 127.701 687.66 127.781 687.85 127.681C688.04 127.581 688.12 127.351 688.02 127.161C687.92 126.971 687.69 126.891 687.49 126.991H687.5Z" fill="url(#paint14_linear_2665_22323)"/>
<path opacity="0.5" d="M626.97 65.21C626.75 65.21 626.58 65.38 626.58 65.6C626.58 65.82 626.75 65.99 626.97 65.99C627.19 65.99 627.36 65.82 627.36 65.6C627.36 65.38 627.19 65.21 626.97 65.21Z" fill="url(#paint15_linear_2665_22323)"/>
<path opacity="0.5" d="M590.02 50.4902C589.8 50.4902 589.63 50.6602 589.63 50.8802C589.63 51.1002 589.8 51.2702 590.02 51.2702C590.24 51.2702 590.41 51.1002 590.41 50.8802C590.41 50.6602 590.24 50.4902 590.02 50.4902Z" fill="url(#paint16_linear_2665_22323)"/>
<path opacity="0.5" d="M653.11 73.9601C652.92 74.0601 652.84 74.2901 652.94 74.4901C653.04 74.6901 653.27 74.7601 653.46 74.6601C653.65 74.5601 653.73 74.3301 653.63 74.1401C653.53 73.9501 653.3 73.8701 653.11 73.9701V73.9601Z" fill="url(#paint17_linear_2665_22323)"/>
<path opacity="0.5" d="M552.15 2.49023C551.93 2.49023 551.76 2.66023 551.76 2.88023C551.76 3.10023 551.93 3.27024 552.15 3.27024C552.37 3.27024 552.54 3.10023 552.54 2.88023C552.54 2.66023 552.37 2.49023 552.15 2.49023Z" fill="url(#paint18_linear_2665_22323)"/>
<path opacity="0.5" d="M353.61 15.4805C353.39 15.4805 353.22 15.6505 353.22 15.8705C353.22 16.0905 353.39 16.2605 353.61 16.2605C353.83 16.2605 354 16.0905 354 15.8705C354 15.6505 353.83 15.4805 353.61 15.4805Z" fill="url(#paint19_linear_2665_22323)"/>
<path opacity="0.5" d="M224.62 25.9704C224.835 25.9704 225.01 25.7958 225.01 25.5804C225.01 25.365 224.835 25.1904 224.62 25.1904C224.405 25.1904 224.23 25.365 224.23 25.5804C224.23 25.7958 224.405 25.9704 224.62 25.9704Z" fill="url(#paint20_linear_2665_22323)"/>
<path opacity="0.5" d="M141.64 125.351C141.42 125.351 141.25 125.521 141.25 125.741C141.25 125.961 141.42 126.131 141.64 126.131C141.86 126.131 142.03 125.961 142.03 125.741C142.03 125.521 141.86 125.351 141.64 125.351Z" fill="url(#paint21_linear_2665_22323)"/>
<path opacity="0.5" d="M318.23 112.75C318.446 112.75 318.62 112.575 318.62 112.36C318.62 112.144 318.446 111.97 318.23 111.97C318.015 111.97 317.84 112.144 317.84 112.36C317.84 112.575 318.015 112.75 318.23 112.75Z" fill="url(#paint22_linear_2665_22323)"/>
<path opacity="0.5" d="M210.99 132.091C211.205 132.091 211.38 131.916 211.38 131.701C211.38 131.485 211.205 131.311 210.99 131.311C210.775 131.311 210.6 131.485 210.6 131.701C210.6 131.916 210.775 132.091 210.99 132.091Z" fill="url(#paint23_linear_2665_22323)"/>
<path opacity="0.5" d="M578.06 12.5205C577.84 12.5205 577.67 12.6905 577.67 12.9105C577.67 13.1305 577.84 13.3005 578.06 13.3005C578.28 13.3005 578.45 13.1305 578.45 12.9105C578.45 12.6905 578.28 12.5205 578.06 12.5205Z" fill="url(#paint24_linear_2665_22323)"/>
<path opacity="0.5" d="M134.2 77.6201C133.9 77.6201 133.67 77.8601 133.67 78.1501C133.67 78.4401 133.91 78.6801 134.2 78.6801C134.49 78.6801 134.73 78.4401 134.73 78.1501C134.73 77.8601 134.49 77.6201 134.2 77.6201Z" fill="url(#paint25_linear_2665_22323)"/>
<path opacity="0.5" d="M243.65 10.0803C244.412 10.0803 245.03 9.46247 245.03 8.70031C245.03 7.93816 244.412 7.32031 243.65 7.32031C242.888 7.32031 242.27 7.93816 242.27 8.70031C242.27 9.46247 242.888 10.0803 243.65 10.0803Z" fill="url(#paint26_linear_2665_22323)"/>
<path opacity="0.5" d="M340.84 52.0403C341.602 52.0403 342.22 51.4224 342.22 50.6603C342.22 49.8981 341.602 49.2803 340.84 49.2803C340.078 49.2803 339.46 49.8981 339.46 50.6603C339.46 51.4224 340.078 52.0403 340.84 52.0403Z" fill="url(#paint27_linear_2665_22323)"/>
<path opacity="0.5" d="M238.01 83.0198C238.772 83.0198 239.39 82.4019 239.39 81.6398C239.39 80.8776 238.772 80.2598 238.01 80.2598C237.248 80.2598 236.63 80.8776 236.63 81.6398C236.63 82.4019 237.248 83.0198 238.01 83.0198Z" fill="url(#paint28_linear_2665_22323)"/>
<path opacity="0.5" d="M390.67 69.0498C390.13 69.0498 389.69 69.4898 389.69 70.0298C389.69 70.5698 390.13 71.0098 390.67 71.0098C391.21 71.0098 391.65 70.5698 391.65 70.0298C391.65 69.4898 391.21 69.0498 390.67 69.0498Z" fill="url(#paint29_linear_2665_22323)"/>
<path opacity="0.5" d="M194.64 25.58C194.93 25.58 195.16 25.35 195.16 25.06C195.16 24.77 194.93 24.54 194.64 24.54C194.35 24.54 194.12 24.77 194.12 25.06C194.12 25.35 194.35 25.58 194.64 25.58Z" fill="url(#paint30_linear_2665_22323)"/>
<path opacity="0.5" d="M672.94 4.50973C673.227 4.50973 673.46 4.27692 673.46 3.98973C673.46 3.70254 673.227 3.46973 672.94 3.46973C672.653 3.46973 672.42 3.70254 672.42 3.98973C672.42 4.27692 672.653 4.50973 672.94 4.50973Z" fill="url(#paint31_linear_2665_22323)"/>
<path opacity="0.5" d="M204.83 90.6299C204.49 90.6299 204.22 90.8999 204.22 91.2399C204.22 91.5799 204.49 91.8499 204.83 91.8499C205.17 91.8499 205.44 91.5799 205.44 91.2399C205.44 90.8999 205.17 90.6299 204.83 90.6299Z" fill="url(#paint32_linear_2665_22323)"/>
<path opacity="0.5" d="M142.25 51.6396C141.91 51.6396 141.64 51.9096 141.64 52.2496C141.64 52.5896 141.91 52.8596 142.25 52.8596C142.59 52.8596 142.86 52.5896 142.86 52.2496C142.86 51.9096 142.59 51.6396 142.25 51.6396Z" fill="url(#paint33_linear_2665_22323)"/>
<path opacity="0.5" d="M199.15 114.73C198.45 114.73 197.87 115.3 197.87 116.01C197.87 116.72 198.44 117.29 199.15 117.29C199.86 117.29 200.43 116.72 200.43 116.01C200.43 115.3 199.86 114.73 199.15 114.73Z" fill="url(#paint34_linear_2665_22323)"/>
<path opacity="0.5" d="M182.02 76.6904C181.31 76.6904 180.73 77.2704 180.73 77.9804C180.73 78.6904 181.31 79.2704 182.02 79.2704C182.73 79.2704 183.31 78.6904 183.31 77.9804C183.31 77.2704 182.73 76.6904 182.02 76.6904Z" fill="url(#paint35_linear_2665_22323)"/>
<path opacity="0.5" d="M659.79 82.5003C659.29 82.7503 659.1 83.3603 659.35 83.8603C659.6 84.3603 660.21 84.5503 660.71 84.3003C661.21 84.0503 661.4 83.4403 661.15 82.9403C660.9 82.4403 660.29 82.2503 659.79 82.5003Z" fill="url(#paint36_linear_2665_22323)"/>
<path opacity="0.5" d="M717.4 11.5098C716.84 11.5098 716.39 11.9598 716.39 12.5198C716.39 13.0798 716.84 13.5298 717.4 13.5298C717.96 13.5298 718.41 13.0798 718.41 12.5198C718.41 11.9598 717.96 11.5098 717.4 11.5098Z" fill="url(#paint37_linear_2665_22323)"/>
<path opacity="0.5" d="M321.89 79.7803C321.63 79.7803 321.41 79.9903 321.41 80.2603C321.41 80.5303 321.62 80.7403 321.89 80.7403C322.16 80.7403 322.37 80.5303 322.37 80.2603C322.37 79.9903 322.16 79.7803 321.89 79.7803Z" fill="url(#paint38_linear_2665_22323)"/>
<path opacity="0.5" d="M194.91 51.5605C194.2 51.5605 193.62 52.1405 193.62 52.8505C193.62 53.5605 194.2 54.1405 194.91 54.1405C195.62 54.1405 196.2 53.5605 196.2 52.8505C196.2 52.1405 195.62 51.5605 194.91 51.5605Z" fill="url(#paint39_linear_2665_22323)"/>
<path opacity="0.5" d="M396.25 32.7803C395.54 32.7803 394.96 33.3603 394.96 34.0703C394.96 34.7803 395.54 35.3603 396.25 35.3603C396.96 35.3603 397.54 34.7803 397.54 34.0703C397.54 33.3603 396.96 32.7803 396.25 32.7803Z" fill="url(#paint40_linear_2665_22323)"/>
<path opacity="0.5" d="M217.88 52.9703C218.405 52.9703 218.83 52.545 218.83 52.0203C218.83 51.4956 218.405 51.0703 217.88 51.0703C217.356 51.0703 216.93 51.4956 216.93 52.0203C216.93 52.545 217.356 52.9703 217.88 52.9703Z" fill="url(#paint41_linear_2665_22323)"/>
<path opacity="0.5" d="M610.54 53.4004C610.01 53.4004 609.59 53.8304 609.59 54.3504C609.59 54.8704 610.02 55.3004 610.54 55.3004C611.06 55.3004 611.49 54.8704 611.49 54.3504C611.49 53.8304 611.06 53.4004 610.54 53.4004Z" fill="url(#paint42_linear_2665_22323)"/>
<path opacity="0.5" d="M738.68 81.1904C738.15 81.1904 737.73 81.6204 737.73 82.1404C737.73 82.6604 738.16 83.0904 738.68 83.0904C739.2 83.0904 739.63 82.6604 739.63 82.1404C739.63 81.6204 739.2 81.1904 738.68 81.1904Z" fill="url(#paint43_linear_2665_22323)"/>
<path opacity="0.5" d="M305.77 8.24023C305.52 8.24023 305.32 8.44024 305.32 8.69024C305.32 8.94024 305.52 9.14023 305.77 9.14023C306.02 9.14023 306.22 8.94024 306.22 8.69024C306.22 8.44024 306.02 8.24023 305.77 8.24023Z" fill="url(#paint44_linear_2665_22323)"/>
<path opacity="0.5" d="M550.34 35.2197C549.83 35.2197 549.42 35.6297 549.42 36.1397C549.42 36.6497 549.83 37.0597 550.34 37.0597C550.85 37.0597 551.26 36.6497 551.26 36.1397C551.26 35.6297 550.85 35.2197 550.34 35.2197Z" fill="url(#paint45_linear_2665_22323)"/>
<path opacity="0.5" d="M701.38 31.0698C702.363 31.0698 703.16 30.2728 703.16 29.2898C703.16 28.3067 702.363 27.5098 701.38 27.5098C700.397 27.5098 699.6 28.3067 699.6 29.2898C699.6 30.2728 700.397 31.0698 701.38 31.0698Z" fill="url(#paint46_linear_2665_22323)"/>
<path opacity="0.5" d="M623.26 8.08019C623.641 8.08019 623.95 7.77127 623.95 7.39019C623.95 7.00912 623.641 6.7002 623.26 6.7002C622.879 6.7002 622.57 7.00912 622.57 7.39019C622.57 7.77127 622.879 8.08019 623.26 8.08019Z" fill="url(#paint47_linear_2665_22323)"/>
<path opacity="0.5" d="M639.56 82.1396C639.836 82.1396 640.06 81.9158 640.06 81.6396C640.06 81.3635 639.836 81.1396 639.56 81.1396C639.284 81.1396 639.06 81.3635 639.06 81.6396C639.06 81.9158 639.284 82.1396 639.56 82.1396Z" fill="url(#paint48_linear_2665_22323)"/>
<path opacity="0.5" d="M661.51 0.870117C661.29 0.870117 661.12 1.04012 661.12 1.26012C661.12 1.48012 661.29 1.65012 661.51 1.65012C661.73 1.65012 661.9 1.48012 661.9 1.26012C661.9 1.04012 661.73 0.870117 661.51 0.870117Z" fill="url(#paint49_linear_2665_22323)"/>
<path opacity="0.5" d="M592.44 66.13C592.948 66.13 593.36 65.7181 593.36 65.21C593.36 64.7019 592.948 64.29 592.44 64.29C591.932 64.29 591.52 64.7019 591.52 65.21C591.52 65.7181 591.932 66.13 592.44 66.13Z" fill="url(#paint50_linear_2665_22323)"/>
<path opacity="0.5" d="M404.31 51.6006C403.84 51.6006 403.45 51.9806 403.45 52.4606C403.45 52.9406 403.83 53.3206 404.31 53.3206C404.79 53.3206 405.17 52.9406 405.17 52.4606C405.17 51.9806 404.79 51.6006 404.31 51.6006Z" fill="url(#paint51_linear_2665_22323)"/>
<path opacity="0.5" d="M424.37 9.54004C423.9 9.54004 423.51 9.92004 423.51 10.4C423.51 10.88 423.89 11.26 424.37 11.26C424.85 11.26 425.23 10.88 425.23 10.4C425.23 9.92004 424.85 9.54004 424.37 9.54004Z" fill="url(#paint52_linear_2665_22323)"/>
<path opacity="0.5" d="M769.88 37.6998C769.45 37.5098 768.95 37.6998 768.76 38.1198C768.57 38.5498 768.76 39.0498 769.18 39.2398C769.6 39.4298 770.11 39.2398 770.3 38.8198C770.49 38.3898 770.3 37.8898 769.88 37.6998Z" fill="url(#paint53_linear_2665_22323)"/>
<path opacity="0.5" d="M764.07 116.461C763.79 116.341 763.47 116.461 763.34 116.731C763.22 117.011 763.34 117.331 763.61 117.461C763.89 117.591 764.21 117.461 764.34 117.191C764.47 116.921 764.34 116.591 764.07 116.461Z" fill="url(#paint54_linear_2665_22323)"/>
<path opacity="0.5" d="M753.38 129.53C753.1 129.41 752.78 129.53 752.65 129.8C752.53 130.08 752.65 130.4 752.92 130.53C753.2 130.66 753.52 130.53 753.65 130.26C753.77 129.98 753.65 129.66 753.38 129.53Z" fill="url(#paint55_linear_2665_22323)"/>
<path opacity="0.5" d="M754.41 97.2301C754.16 97.1201 753.86 97.2301 753.74 97.4801C753.63 97.7301 753.74 98.0301 753.99 98.1501C754.24 98.2701 754.54 98.1501 754.66 97.9001C754.77 97.6501 754.66 97.3501 754.41 97.2301Z" fill="url(#paint56_linear_2665_22323)"/>
<path opacity="0.5" d="M762.96 18.7799C762.71 18.6699 762.41 18.7799 762.29 19.0299C762.18 19.2799 762.29 19.5799 762.54 19.6999C762.79 19.8199 763.09 19.6999 763.21 19.4499C763.32 19.1999 763.21 18.8999 762.96 18.7799Z" fill="url(#paint57_linear_2665_22323)"/>
<path opacity="0.5" d="M697.34 5.06032C696.91 4.86032 696.4 5.06032 696.21 5.49032C696.01 5.92032 696.21 6.43032 696.64 6.62032C697.07 6.82032 697.58 6.62032 697.77 6.19032C697.96 5.76032 697.77 5.25032 697.34 5.06032Z" fill="url(#paint58_linear_2665_22323)"/>
<path opacity="0.5" d="M134 13.7598L130.11 13.1798L129.53 8.46977C129.5 8.18977 129.1 8.18977 129.06 8.46977L128.48 13.1798L124.8 13.7598C124.53 13.7998 124.53 14.1798 124.8 14.2198L128.48 14.7998L129.06 19.5098C129.09 19.7898 129.49 19.7898 129.53 19.5098L130.11 14.7998L134 14.2198C134.27 14.1798 134.27 13.7898 134 13.7498V13.7598Z" fill="url(#paint59_linear_2665_22323)"/>
<path opacity="0.5" d="M599.41 19.6299L595.52 19.0499L594.94 14.3399C594.91 14.0599 594.51 14.0599 594.47 14.3399L593.89 19.0499L590.21 19.6299C589.94 19.6699 589.94 20.0499 590.21 20.0999L593.89 20.6799L594.47 25.3899C594.5 25.6699 594.9 25.6699 594.94 25.3899L595.52 20.6799L599.41 20.0999C599.68 20.0599 599.68 19.6699 599.41 19.6299Z" fill="url(#paint60_linear_2665_22323)"/>
<path opacity="0.5" d="M347.7 71.2598L343.81 70.6798L343.23 65.9698C343.2 65.6898 342.8 65.6898 342.76 65.9698L342.18 70.6798L338.5 71.2598C338.23 71.2998 338.23 71.6798 338.5 71.7198L342.18 72.2998L342.76 77.0098C342.79 77.2898 343.19 77.2898 343.23 77.0098L343.81 72.2998L347.7 71.7198C347.97 71.6798 347.97 71.2898 347.7 71.2498V71.2598Z" fill="url(#paint61_linear_2665_22323)"/>
<path opacity="0.5" d="M758.8 55.9805L754.91 55.4005L754.33 50.6905C754.3 50.4105 753.9 50.4105 753.86 50.6905L753.28 55.4005L749.6 55.9805C749.33 56.0205 749.33 56.4005 749.6 56.4405L753.28 57.0205L753.86 61.7305C753.89 62.0105 754.29 62.0105 754.33 61.7305L754.91 57.0205L758.8 56.4405C759.07 56.4005 759.07 56.0105 758.8 55.9705V55.9805Z" fill="url(#paint62_linear_2665_22323)"/>
<path opacity="0.5" d="M263.9 28.4297C263.65 28.4297 263.44 28.6397 263.44 28.8897C263.44 29.1397 263.65 29.3497 263.9 29.3497C264.15 29.3497 264.36 29.1397 264.36 28.8897C264.36 28.6397 264.15 28.4297 263.9 28.4297Z" fill="url(#paint63_linear_2665_22323)"/>
<path opacity="0.5" d="M209.99 8.7002C209.65 8.7002 209.38 8.97019 209.38 9.31019C209.38 9.65019 209.65 9.92019 209.99 9.92019C210.33 9.92019 210.6 9.65019 210.6 9.31019C210.6 8.97019 210.33 8.7002 209.99 8.7002Z" fill="url(#paint64_linear_2665_22323)"/>
<path opacity="0.5" d="M102.38 127.23C101.96 127.23 101.63 127.57 101.63 127.98C101.63 128.39 101.97 128.73 102.38 128.73C102.79 128.73 103.13 128.39 103.13 127.98C103.13 127.57 102.79 127.23 102.38 127.23Z" fill="url(#paint65_linear_2665_22323)"/>
<path opacity="0.5" d="M102.7 40.0505C102.92 40.0505 103.09 39.8805 103.09 39.6605C103.09 39.4405 102.92 39.2705 102.7 39.2705C102.48 39.2705 102.31 39.4405 102.31 39.6605C102.31 39.8805 102.48 40.0505 102.7 40.0505Z" fill="url(#paint66_linear_2665_22323)"/>
<path opacity="0.5" d="M72.7202 38.6104C72.4302 38.6104 72.2002 38.8404 72.2002 39.1304C72.2002 39.4204 72.4302 39.6504 72.7202 39.6504C73.0102 39.6504 73.2402 39.4204 73.2402 39.1304C73.2402 38.8404 73.0102 38.6104 72.7202 38.6104Z" fill="url(#paint67_linear_2665_22323)"/>
<path opacity="0.5" d="M0.690094 131.7C0.350094 131.7 0.0800781 131.97 0.0800781 132.31C0.0800781 132.65 0.350094 132.92 0.690094 132.92C1.03009 132.92 1.30008 132.65 1.30008 132.31C1.30008 131.97 1.03009 131.7 0.690094 131.7Z" fill="url(#paint68_linear_2665_22323)"/>
<path opacity="0.5" d="M77.2302 128.8C76.5302 128.8 75.9502 129.37 75.9502 130.08C75.9502 130.79 76.5202 131.36 77.2302 131.36C77.9402 131.36 78.5102 130.79 78.5102 130.08C78.5102 129.37 77.9402 128.8 77.2302 128.8Z" fill="url(#paint69_linear_2665_22323)"/>
<path opacity="0.5" d="M36.7002 21.0098C35.9902 21.0098 35.4102 21.5898 35.4102 22.2998C35.4102 23.0098 35.9902 23.5898 36.7002 23.5898C37.4102 23.5898 37.9901 23.0098 37.9901 22.2998C37.9901 21.5898 37.4102 21.0098 36.7002 21.0098Z" fill="url(#paint70_linear_2665_22323)"/>
<path opacity="0.5" d="M88.07 22.7705C87.73 22.7705 87.46 23.0405 87.46 23.3805C87.46 23.7205 87.73 23.9905 88.07 23.9905C88.41 23.9905 88.68 23.7205 88.68 23.3805C88.68 23.0405 88.41 22.7705 88.07 22.7705Z" fill="url(#paint71_linear_2665_22323)"/>
<path opacity="0.5" d="M329.1 14.3806C329.315 14.3806 329.49 14.206 329.49 13.9906C329.49 13.7752 329.315 13.6006 329.1 13.6006C328.885 13.6006 328.71 13.7752 328.71 13.9906C328.71 14.206 328.885 14.3806 329.1 14.3806Z" fill="url(#paint72_linear_2665_22323)"/>
</g>
<defs>
<linearGradient id="paint0_linear_2665_22323" x1="794.37" y1="-53.4596" x2="-33.8297" y2="54.4103" gradientUnits="userSpaceOnUse">
<stop stop-color="white"/>
<stop offset="0.57" stop-color="#86D4C9"/>
<stop offset="0.62" stop-color="#82C9D2"/>
<stop offset="0.75" stop-color="#7CB4E3"/>
<stop offset="0.88" stop-color="#78A8EE"/>
<stop offset="1" stop-color="#77A4F2"/>
</linearGradient>
<linearGradient id="paint1_linear_2665_22323" x1="797.001" y1="-33.2695" x2="-31.2015" y2="74.6112" gradientUnits="userSpaceOnUse">
<stop stop-color="white"/>
<stop offset="0.57" stop-color="#86D4C9"/>
<stop offset="0.62" stop-color="#82C9D2"/>
<stop offset="0.75" stop-color="#7CB4E3"/>
<stop offset="0.88" stop-color="#78A8EE"/>
<stop offset="1" stop-color="#77A4F2"/>
</linearGradient>
<linearGradient id="paint2_linear_2665_22323" x1="800.321" y1="-7.78988" x2="-27.8917" y2="100.091" gradientUnits="userSpaceOnUse">
<stop stop-color="white"/>
<stop offset="0.57" stop-color="#86D4C9"/>
<stop offset="0.62" stop-color="#82C9D2"/>
<stop offset="0.75" stop-color="#7CB4E3"/>
<stop offset="0.88" stop-color="#78A8EE"/>
<stop offset="1" stop-color="#77A4F2"/>
</linearGradient>
<linearGradient id="paint3_linear_2665_22323" x1="799.181" y1="-16.5799" x2="-29.0317" y2="91.2908" gradientUnits="userSpaceOnUse">
<stop stop-color="white"/>
<stop offset="0.57" stop-color="#86D4C9"/>
<stop offset="0.62" stop-color="#82C9D2"/>
<stop offset="0.75" stop-color="#7CB4E3"/>
<stop offset="0.88" stop-color="#78A8EE"/>
<stop offset="1" stop-color="#77A4F2"/>
</linearGradient>
<linearGradient id="paint4_linear_2665_22323" x1="795.383" y1="-45.7402" x2="-32.8326" y2="62.1412" gradientUnits="userSpaceOnUse">
<stop stop-color="white"/>
<stop offset="0.57" stop-color="#86D4C9"/>
<stop offset="0.62" stop-color="#82C9D2"/>
<stop offset="0.75" stop-color="#7CB4E3"/>
<stop offset="0.88" stop-color="#78A8EE"/>
<stop offset="1" stop-color="#77A4F2"/>
</linearGradient>
<linearGradient id="paint5_linear_2665_22323" x1="796.621" y1="-36.1597" x2="-31.5709" y2="71.7158" gradientUnits="userSpaceOnUse">
<stop stop-color="white"/>
<stop offset="0.57" stop-color="#86D4C9"/>
<stop offset="0.62" stop-color="#82C9D2"/>
<stop offset="0.75" stop-color="#7CB4E3"/>
<stop offset="0.88" stop-color="#78A8EE"/>
<stop offset="1" stop-color="#77A4F2"/>
</linearGradient>
<linearGradient id="paint6_linear_2665_22323" x1="807.33" y1="46.0105" x2="-20.8798" y2="153.88" gradientUnits="userSpaceOnUse">
<stop stop-color="white"/>
<stop offset="0.57" stop-color="#86D4C9"/>
<stop offset="0.62" stop-color="#82C9D2"/>
<stop offset="0.75" stop-color="#7CB4E3"/>
<stop offset="0.88" stop-color="#78A8EE"/>
<stop offset="1" stop-color="#77A4F2"/>
</linearGradient>
<linearGradient id="paint7_linear_2665_22323" x1="802.413" y1="8.32962" x2="-25.7846" y2="116.196" gradientUnits="userSpaceOnUse">
<stop stop-color="white"/>
<stop offset="0.57" stop-color="#86D4C9"/>
<stop offset="0.62" stop-color="#82C9D2"/>
<stop offset="0.75" stop-color="#7CB4E3"/>
<stop offset="0.88" stop-color="#78A8EE"/>
<stop offset="1" stop-color="#77A4F2"/>
</linearGradient>
<linearGradient id="paint8_linear_2665_22323" x1="803.859" y1="19.3603" x2="-24.3351" y2="127.236" gradientUnits="userSpaceOnUse">
<stop stop-color="white"/>
<stop offset="0.57" stop-color="#86D4C9"/>
<stop offset="0.62" stop-color="#82C9D2"/>
<stop offset="0.75" stop-color="#7CB4E3"/>
<stop offset="0.88" stop-color="#78A8EE"/>
<stop offset="1" stop-color="#77A4F2"/>
</linearGradient>
<linearGradient id="paint9_linear_2665_22323" x1="798.724" y1="-20.0496" x2="-29.4695" y2="87.8262" gradientUnits="userSpaceOnUse">
<stop stop-color="white"/>
<stop offset="0.57" stop-color="#86D4C9"/>
<stop offset="0.62" stop-color="#82C9D2"/>
<stop offset="0.75" stop-color="#7CB4E3"/>
<stop offset="0.88" stop-color="#78A8EE"/>
<stop offset="1" stop-color="#77A4F2"/>
</linearGradient>
<linearGradient id="paint10_linear_2665_22323" x1="802.34" y1="7.69975" x2="-25.8698" y2="115.58" gradientUnits="userSpaceOnUse">
<stop stop-color="white"/>
<stop offset="0.57" stop-color="#86D4C9"/>
<stop offset="0.62" stop-color="#82C9D2"/>
<stop offset="0.75" stop-color="#7CB4E3"/>
<stop offset="0.88" stop-color="#78A8EE"/>
<stop offset="1" stop-color="#77A4F2"/>
</linearGradient>
<linearGradient id="paint11_linear_2665_22323" x1="801.32" y1="-0.0996665" x2="-26.8802" y2="107.77" gradientUnits="userSpaceOnUse">
<stop stop-color="white"/>
<stop offset="0.57" stop-color="#86D4C9"/>
<stop offset="0.62" stop-color="#82C9D2"/>
<stop offset="0.75" stop-color="#7CB4E3"/>
<stop offset="0.88" stop-color="#78A8EE"/>
<stop offset="1" stop-color="#77A4F2"/>
</linearGradient>
<linearGradient id="paint12_linear_2665_22323" x1="810.81" y1="72.7104" x2="-17.4" y2="180.59" gradientUnits="userSpaceOnUse">
<stop stop-color="white"/>
<stop offset="0.57" stop-color="#86D4C9"/>
<stop offset="0.62" stop-color="#82C9D2"/>
<stop offset="0.75" stop-color="#7CB4E3"/>
<stop offset="0.88" stop-color="#78A8EE"/>
<stop offset="1" stop-color="#77A4F2"/>
</linearGradient>
<linearGradient id="paint13_linear_2665_22323" x1="800.18" y1="-8.92027" x2="-28.0297" y2="98.9597" gradientUnits="userSpaceOnUse">
<stop stop-color="white"/>
<stop offset="0.57" stop-color="#86D4C9"/>
<stop offset="0.62" stop-color="#82C9D2"/>
<stop offset="0.75" stop-color="#7CB4E3"/>
<stop offset="0.88" stop-color="#78A8EE"/>
<stop offset="1" stop-color="#77A4F2"/>
</linearGradient>
<linearGradient id="paint14_linear_2665_22323" x1="815.749" y1="110.651" x2="-12.4569" y2="218.532" gradientUnits="userSpaceOnUse">
<stop stop-color="white"/>
<stop offset="0.57" stop-color="#86D4C9"/>
<stop offset="0.62" stop-color="#82C9D2"/>
<stop offset="0.75" stop-color="#7CB4E3"/>
<stop offset="0.88" stop-color="#78A8EE"/>
<stop offset="1" stop-color="#77A4F2"/>
</linearGradient>
<linearGradient id="paint15_linear_2665_22323" x1="806.823" y1="42.17" x2="-21.3546" y2="150.042" gradientUnits="userSpaceOnUse">
<stop stop-color="white"/>
<stop offset="0.57" stop-color="#86D4C9"/>
<stop offset="0.62" stop-color="#82C9D2"/>
<stop offset="0.75" stop-color="#7CB4E3"/>
<stop offset="0.88" stop-color="#78A8EE"/>
<stop offset="1" stop-color="#77A4F2"/>
</linearGradient>
<linearGradient id="paint16_linear_2665_22323" x1="804.321" y1="22.9703" x2="-23.8562" y2="130.842" gradientUnits="userSpaceOnUse">
<stop stop-color="white"/>
<stop offset="0.57" stop-color="#86D4C9"/>
<stop offset="0.62" stop-color="#82C9D2"/>
<stop offset="0.75" stop-color="#7CB4E3"/>
<stop offset="0.88" stop-color="#78A8EE"/>
<stop offset="1" stop-color="#77A4F2"/>
</linearGradient>
<linearGradient id="paint17_linear_2665_22323" x1="808.392" y1="54.1" x2="-19.8282" y2="161.982" gradientUnits="userSpaceOnUse">
<stop stop-color="white"/>
<stop offset="0.57" stop-color="#86D4C9"/>
<stop offset="0.62" stop-color="#82C9D2"/>
<stop offset="0.75" stop-color="#7CB4E3"/>
<stop offset="0.88" stop-color="#78A8EE"/>
<stop offset="1" stop-color="#77A4F2"/>
</linearGradient>
<linearGradient id="paint18_linear_2665_22323" x1="797.54" y1="-29.0898" x2="-30.6372" y2="78.7815" gradientUnits="userSpaceOnUse">
<stop stop-color="white"/>
<stop offset="0.57" stop-color="#86D4C9"/>
<stop offset="0.62" stop-color="#82C9D2"/>
<stop offset="0.75" stop-color="#7CB4E3"/>
<stop offset="0.88" stop-color="#78A8EE"/>
<stop offset="1" stop-color="#77A4F2"/>
</linearGradient>
<linearGradient id="paint19_linear_2665_22323" x1="795.917" y1="-41.7394" x2="-32.3232" y2="66.1487" gradientUnits="userSpaceOnUse">
<stop stop-color="white"/>
<stop offset="0.57" stop-color="#86D4C9"/>
<stop offset="0.62" stop-color="#82C9D2"/>
<stop offset="0.75" stop-color="#7CB4E3"/>
<stop offset="0.88" stop-color="#78A8EE"/>
<stop offset="1" stop-color="#77A4F2"/>
</linearGradient>
<linearGradient id="paint20_linear_2665_22323" x1="795.011" y1="-48.7098" x2="-33.2287" y2="59.1778" gradientUnits="userSpaceOnUse">
<stop stop-color="white"/>
<stop offset="0.57" stop-color="#86D4C9"/>
<stop offset="0.62" stop-color="#82C9D2"/>
<stop offset="0.75" stop-color="#7CB4E3"/>
<stop offset="0.88" stop-color="#78A8EE"/>
<stop offset="1" stop-color="#77A4F2"/>
</linearGradient>
<linearGradient id="paint21_linear_2665_22323" x1="806.439" y1="39.1507" x2="-21.7697" y2="147.021" gradientUnits="userSpaceOnUse">
<stop stop-color="white"/>
<stop offset="0.57" stop-color="#86D4C9"/>
<stop offset="0.62" stop-color="#82C9D2"/>
<stop offset="0.75" stop-color="#7CB4E3"/>
<stop offset="0.88" stop-color="#78A8EE"/>
<stop offset="1" stop-color="#77A4F2"/>
</linearGradient>
<linearGradient id="paint22_linear_2665_22323" x1="807.65" y1="48.6098" x2="-20.527" y2="156.481" gradientUnits="userSpaceOnUse">
<stop stop-color="white"/>
<stop offset="0.57" stop-color="#86D4C9"/>
<stop offset="0.62" stop-color="#82C9D2"/>
<stop offset="0.75" stop-color="#7CB4E3"/>
<stop offset="0.88" stop-color="#78A8EE"/>
<stop offset="1" stop-color="#77A4F2"/>
</linearGradient>
<linearGradient id="paint23_linear_2665_22323" x1="808.359" y1="53.8907" x2="-19.8495" y2="161.771" gradientUnits="userSpaceOnUse">
<stop stop-color="white"/>
<stop offset="0.57" stop-color="#86D4C9"/>
<stop offset="0.62" stop-color="#82C9D2"/>
<stop offset="0.75" stop-color="#7CB4E3"/>
<stop offset="0.88" stop-color="#78A8EE"/>
<stop offset="1" stop-color="#77A4F2"/>
</linearGradient>
<linearGradient id="paint24_linear_2665_22323" x1="799.278" y1="-15.8995" x2="-28.9618" y2="91.9887" gradientUnits="userSpaceOnUse">
<stop stop-color="white"/>
<stop offset="0.57" stop-color="#86D4C9"/>
<stop offset="0.62" stop-color="#82C9D2"/>
<stop offset="0.75" stop-color="#7CB4E3"/>
<stop offset="0.88" stop-color="#78A8EE"/>
<stop offset="1" stop-color="#77A4F2"/>
</linearGradient>
<linearGradient id="paint25_linear_2665_22323" x1="800.218" y1="-8.59968" x2="-27.9897" y2="99.2801" gradientUnits="userSpaceOnUse">
<stop stop-color="white"/>
<stop offset="0.57" stop-color="#86D4C9"/>
<stop offset="0.62" stop-color="#82C9D2"/>
<stop offset="0.75" stop-color="#7CB4E3"/>
<stop offset="0.88" stop-color="#78A8EE"/>
<stop offset="1" stop-color="#77A4F2"/>
</linearGradient>
<linearGradient id="paint26_linear_2665_22323" x1="793.152" y1="-62.8797" x2="-35.0609" y2="45.0011" gradientUnits="userSpaceOnUse">
<stop stop-color="white"/>
<stop offset="0.57" stop-color="#86D4C9"/>
<stop offset="0.62" stop-color="#82C9D2"/>
<stop offset="0.75" stop-color="#7CB4E3"/>
<stop offset="0.88" stop-color="#78A8EE"/>
<stop offset="1" stop-color="#77A4F2"/>
</linearGradient>
<linearGradient id="paint27_linear_2665_22323" x1="800.131" y1="-9.15976" x2="-28.0537" y2="98.7062" gradientUnits="userSpaceOnUse">
<stop stop-color="white"/>
<stop offset="0.57" stop-color="#86D4C9"/>
<stop offset="0.62" stop-color="#82C9D2"/>
<stop offset="0.75" stop-color="#7CB4E3"/>
<stop offset="0.88" stop-color="#78A8EE"/>
<stop offset="1" stop-color="#77A4F2"/>
</linearGradient>
<linearGradient id="paint28_linear_2665_22323" x1="802.402" y1="8.12993" x2="-25.8109" y2="116.001" gradientUnits="userSpaceOnUse">
<stop stop-color="white"/>
<stop offset="0.57" stop-color="#86D4C9"/>
<stop offset="0.62" stop-color="#82C9D2"/>
<stop offset="0.75" stop-color="#7CB4E3"/>
<stop offset="0.88" stop-color="#78A8EE"/>
<stop offset="1" stop-color="#77A4F2"/>
</linearGradient>
<linearGradient id="paint29_linear_2665_22323" x1="803.465" y1="16.2698" x2="-24.7544" y2="124.152" gradientUnits="userSpaceOnUse">
<stop stop-color="white"/>
<stop offset="0.57" stop-color="#86D4C9"/>
<stop offset="0.62" stop-color="#82C9D2"/>
<stop offset="0.75" stop-color="#7CB4E3"/>
<stop offset="0.88" stop-color="#78A8EE"/>
<stop offset="1" stop-color="#77A4F2"/>
</linearGradient>
<linearGradient id="paint30_linear_2665_22323" x1="794.435" y1="-53.06" x2="-33.7815" y2="54.8216" gradientUnits="userSpaceOnUse">
<stop stop-color="white"/>
<stop offset="0.57" stop-color="#86D4C9"/>
<stop offset="0.62" stop-color="#82C9D2"/>
<stop offset="0.75" stop-color="#7CB4E3"/>
<stop offset="0.88" stop-color="#78A8EE"/>
<stop offset="1" stop-color="#77A4F2"/>
</linearGradient>
<linearGradient id="paint31_linear_2665_22323" x1="799.715" y1="-12.5203" x2="-28.5254" y2="95.3676" gradientUnits="userSpaceOnUse">
<stop stop-color="white"/>
<stop offset="0.57" stop-color="#86D4C9"/>
<stop offset="0.62" stop-color="#82C9D2"/>
<stop offset="0.75" stop-color="#7CB4E3"/>
<stop offset="0.88" stop-color="#78A8EE"/>
<stop offset="1" stop-color="#77A4F2"/>
</linearGradient>
<linearGradient id="paint32_linear_2665_22323" x1="803.071" y1="13.3098" x2="-25.14" y2="121.19" gradientUnits="userSpaceOnUse">
<stop stop-color="white"/>
<stop offset="0.57" stop-color="#86D4C9"/>
<stop offset="0.62" stop-color="#82C9D2"/>
<stop offset="0.75" stop-color="#7CB4E3"/>
<stop offset="0.88" stop-color="#78A8EE"/>
<stop offset="1" stop-color="#77A4F2"/>
</linearGradient>
<linearGradient id="paint33_linear_2665_22323" x1="797.014" y1="-33.0404" x2="-31.1664" y2="74.8343" gradientUnits="userSpaceOnUse">
<stop stop-color="white"/>
<stop offset="0.57" stop-color="#86D4C9"/>
<stop offset="0.62" stop-color="#82C9D2"/>
<stop offset="0.75" stop-color="#7CB4E3"/>
<stop offset="0.88" stop-color="#78A8EE"/>
<stop offset="1" stop-color="#77A4F2"/>
</linearGradient>
<linearGradient id="paint34_linear_2665_22323" x1="806.15" y1="36.9405" x2="-22.0597" y2="144.82" gradientUnits="userSpaceOnUse">
<stop stop-color="white"/>
<stop offset="0.57" stop-color="#86D4C9"/>
<stop offset="0.62" stop-color="#82C9D2"/>
<stop offset="0.75" stop-color="#7CB4E3"/>
<stop offset="0.88" stop-color="#78A8EE"/>
<stop offset="1" stop-color="#77A4F2"/>
</linearGradient>
<linearGradient id="paint35_linear_2665_22323" x1="800.987" y1="-2.63942" x2="-27.209" y2="105.24" gradientUnits="userSpaceOnUse">
<stop stop-color="white"/>
<stop offset="0.57" stop-color="#86D4C9"/>
<stop offset="0.62" stop-color="#82C9D2"/>
<stop offset="0.75" stop-color="#7CB4E3"/>
<stop offset="0.88" stop-color="#78A8EE"/>
<stop offset="1" stop-color="#77A4F2"/>
</linearGradient>
<linearGradient id="paint36_linear_2665_22323" x1="806.633" y1="64.3303" x2="-21.5955" y2="172.215" gradientUnits="userSpaceOnUse">
<stop stop-color="white"/>
<stop offset="0.57" stop-color="#86D4C9"/>
<stop offset="0.62" stop-color="#82C9D2"/>
<stop offset="0.75" stop-color="#7CB4E3"/>
<stop offset="0.88" stop-color="#78A8EE"/>
<stop offset="1" stop-color="#77A4F2"/>
</linearGradient>
<linearGradient id="paint37_linear_2665_22323" x1="801.538" y1="1.55975" x2="-26.6552" y2="109.435" gradientUnits="userSpaceOnUse">
<stop stop-color="white"/>
<stop offset="0.57" stop-color="#86D4C9"/>
<stop offset="0.62" stop-color="#82C9D2"/>
<stop offset="0.75" stop-color="#7CB4E3"/>
<stop offset="0.88" stop-color="#78A8EE"/>
<stop offset="1" stop-color="#77A4F2"/>
</linearGradient>
<linearGradient id="paint38_linear_2665_22323" x1="803.631" y1="17.5103" x2="-24.5971" y2="125.395" gradientUnits="userSpaceOnUse">
<stop stop-color="white"/>
<stop offset="0.57" stop-color="#86D4C9"/>
<stop offset="0.62" stop-color="#82C9D2"/>
<stop offset="0.75" stop-color="#7CB4E3"/>
<stop offset="0.88" stop-color="#78A8EE"/>
<stop offset="1" stop-color="#77A4F2"/>
</linearGradient>
<linearGradient id="paint39_linear_2665_22323" x1="797.994" y1="-25.6995" x2="-30.2212" y2="82.1818" gradientUnits="userSpaceOnUse">
<stop stop-color="white"/>
<stop offset="0.57" stop-color="#86D4C9"/>
<stop offset="0.62" stop-color="#82C9D2"/>
<stop offset="0.75" stop-color="#7CB4E3"/>
<stop offset="0.88" stop-color="#78A8EE"/>
<stop offset="1" stop-color="#77A4F2"/>
</linearGradient>
<linearGradient id="paint40_linear_2665_22323" x1="798.933" y1="-18.3798" x2="-29.2633" y2="89.4866" gradientUnits="userSpaceOnUse">
<stop stop-color="white"/>
<stop offset="0.57" stop-color="#86D4C9"/>
<stop offset="0.62" stop-color="#82C9D2"/>
<stop offset="0.75" stop-color="#7CB4E3"/>
<stop offset="0.88" stop-color="#78A8EE"/>
<stop offset="1" stop-color="#77A4F2"/>
</linearGradient>
<linearGradient id="paint41_linear_2665_22323" x1="798.268" y1="-23.5697" x2="-29.9392" y2="84.2995" gradientUnits="userSpaceOnUse">
<stop stop-color="white"/>
<stop offset="0.57" stop-color="#86D4C9"/>
<stop offset="0.62" stop-color="#82C9D2"/>
<stop offset="0.75" stop-color="#7CB4E3"/>
<stop offset="0.88" stop-color="#78A8EE"/>
<stop offset="1" stop-color="#77A4F2"/>
</linearGradient>
<linearGradient id="paint42_linear_2665_22323" x1="805.116" y1="29.0104" x2="-23.0785" y2="136.886" gradientUnits="userSpaceOnUse">
<stop stop-color="white"/>
<stop offset="0.57" stop-color="#86D4C9"/>
<stop offset="0.62" stop-color="#82C9D2"/>
<stop offset="0.75" stop-color="#7CB4E3"/>
<stop offset="0.88" stop-color="#78A8EE"/>
<stop offset="1" stop-color="#77A4F2"/>
</linearGradient>
<linearGradient id="paint43_linear_2665_22323" x1="810.811" y1="72.7505" x2="-17.3992" y2="180.634" gradientUnits="userSpaceOnUse">
<stop stop-color="white"/>
<stop offset="0.57" stop-color="#86D4C9"/>
<stop offset="0.62" stop-color="#82C9D2"/>
<stop offset="0.75" stop-color="#7CB4E3"/>
<stop offset="0.88" stop-color="#78A8EE"/>
<stop offset="1" stop-color="#77A4F2"/>
</linearGradient>
<linearGradient id="paint44_linear_2665_22323" x1="794.16" y1="-54.9197" x2="-34.007" y2="52.9517" gradientUnits="userSpaceOnUse">
<stop stop-color="white"/>
<stop offset="0.57" stop-color="#86D4C9"/>
<stop offset="0.62" stop-color="#82C9D2"/>
<stop offset="0.75" stop-color="#7CB4E3"/>
<stop offset="0.88" stop-color="#78A8EE"/>
<stop offset="1" stop-color="#77A4F2"/>
</linearGradient>
<linearGradient id="paint45_linear_2665_22323" x1="801.784" y1="3.3897" x2="-26.4381" y2="111.263" gradientUnits="userSpaceOnUse">
<stop stop-color="white"/>
<stop offset="0.57" stop-color="#86D4C9"/>
<stop offset="0.62" stop-color="#82C9D2"/>
<stop offset="0.75" stop-color="#7CB4E3"/>
<stop offset="0.88" stop-color="#78A8EE"/>
<stop offset="1" stop-color="#77A4F2"/>
</linearGradient>
<linearGradient id="paint46_linear_2665_22323" x1="803.42" y1="15.9998" x2="-24.7894" y2="123.88" gradientUnits="userSpaceOnUse">
<stop stop-color="white"/>
<stop offset="0.57" stop-color="#86D4C9"/>
<stop offset="0.62" stop-color="#82C9D2"/>
<stop offset="0.75" stop-color="#7CB4E3"/>
<stop offset="0.88" stop-color="#78A8EE"/>
<stop offset="1" stop-color="#77A4F2"/>
</linearGradient>
<linearGradient id="paint47_linear_2665_22323" x1="800.071" y1="-15.6498" x2="-28.1419" y2="92.231" gradientUnits="userSpaceOnUse">
<stop stop-color="white"/>
<stop offset="0.57" stop-color="#86D4C9"/>
<stop offset="0.62" stop-color="#82C9D2"/>
<stop offset="0.75" stop-color="#7CB4E3"/>
<stop offset="0.88" stop-color="#78A8EE"/>
<stop offset="1" stop-color="#77A4F2"/>
</linearGradient>
<linearGradient id="paint48_linear_2665_22323" x1="809.1" y1="59.5597" x2="-19.11" y2="167.43" gradientUnits="userSpaceOnUse">
<stop stop-color="white"/>
<stop offset="0.57" stop-color="#86D4C9"/>
<stop offset="0.62" stop-color="#82C9D2"/>
<stop offset="0.75" stop-color="#7CB4E3"/>
<stop offset="0.88" stop-color="#78A8EE"/>
<stop offset="1" stop-color="#77A4F2"/>
</linearGradient>
<linearGradient id="paint49_linear_2665_22323" x1="799.175" y1="-16.6699" x2="-29.0647" y2="91.2183" gradientUnits="userSpaceOnUse">
<stop stop-color="white"/>
<stop offset="0.57" stop-color="#86D4C9"/>
<stop offset="0.62" stop-color="#82C9D2"/>
<stop offset="0.75" stop-color="#7CB4E3"/>
<stop offset="0.88" stop-color="#78A8EE"/>
<stop offset="1" stop-color="#77A4F2"/>
</linearGradient>
<linearGradient id="paint50_linear_2665_22323" x1="806.196" y1="37.3601" x2="-21.989" y2="145.236" gradientUnits="userSpaceOnUse">
<stop stop-color="white"/>
<stop offset="0.57" stop-color="#86D4C9"/>
<stop offset="0.62" stop-color="#82C9D2"/>
<stop offset="0.75" stop-color="#7CB4E3"/>
<stop offset="0.88" stop-color="#78A8EE"/>
<stop offset="1" stop-color="#77A4F2"/>
</linearGradient>
<linearGradient id="paint51_linear_2665_22323" x1="801.423" y1="0.730553" x2="-26.773" y2="108.607" gradientUnits="userSpaceOnUse">
<stop stop-color="white"/>
<stop offset="0.57" stop-color="#86D4C9"/>
<stop offset="0.62" stop-color="#82C9D2"/>
<stop offset="0.75" stop-color="#7CB4E3"/>
<stop offset="0.88" stop-color="#78A8EE"/>
<stop offset="1" stop-color="#77A4F2"/>
</linearGradient>
<linearGradient id="paint52_linear_2665_22323" x1="796.374" y1="-38.0599" x2="-31.8225" y2="69.8165" gradientUnits="userSpaceOnUse">
<stop stop-color="white"/>
<stop offset="0.57" stop-color="#86D4C9"/>
<stop offset="0.62" stop-color="#82C9D2"/>
<stop offset="0.75" stop-color="#7CB4E3"/>
<stop offset="0.88" stop-color="#78A8EE"/>
<stop offset="1" stop-color="#77A4F2"/>
</linearGradient>
<linearGradient id="paint53_linear_2665_22323" x1="805.741" y1="33.7597" x2="-22.4805" y2="141.633" gradientUnits="userSpaceOnUse">
<stop stop-color="white"/>
<stop offset="0.57" stop-color="#86D4C9"/>
<stop offset="0.62" stop-color="#82C9D2"/>
<stop offset="0.75" stop-color="#7CB4E3"/>
<stop offset="0.88" stop-color="#78A8EE"/>
<stop offset="1" stop-color="#77A4F2"/>
</linearGradient>
<linearGradient id="paint54_linear_2665_22323" x1="815.69" y1="110.211" x2="-12.5154" y2="218.089" gradientUnits="userSpaceOnUse">
<stop stop-color="white"/>
<stop offset="0.57" stop-color="#86D4C9"/>
<stop offset="0.62" stop-color="#82C9D2"/>
<stop offset="0.75" stop-color="#7CB4E3"/>
<stop offset="0.88" stop-color="#78A8EE"/>
<stop offset="1" stop-color="#77A4F2"/>
</linearGradient>
<linearGradient id="paint55_linear_2665_22323" x1="817.19" y1="121.69" x2="-11.0154" y2="229.569" gradientUnits="userSpaceOnUse">
<stop stop-color="white"/>
<stop offset="0.57" stop-color="#86D4C9"/>
<stop offset="0.62" stop-color="#82C9D2"/>
<stop offset="0.75" stop-color="#7CB4E3"/>
<stop offset="0.88" stop-color="#78A8EE"/>
<stop offset="1" stop-color="#77A4F2"/>
</linearGradient>
<linearGradient id="paint56_linear_2665_22323" x1="813.062" y1="90.0301" x2="-15.1725" y2="197.91" gradientUnits="userSpaceOnUse">
<stop stop-color="white"/>
<stop offset="0.57" stop-color="#86D4C9"/>
<stop offset="0.62" stop-color="#82C9D2"/>
<stop offset="0.75" stop-color="#7CB4E3"/>
<stop offset="0.88" stop-color="#78A8EE"/>
<stop offset="1" stop-color="#77A4F2"/>
</linearGradient>
<linearGradient id="paint57_linear_2665_22323" x1="803.157" y1="13.9799" x2="-24.9909" y2="121.833" gradientUnits="userSpaceOnUse">
<stop stop-color="white"/>
<stop offset="0.57" stop-color="#86D4C9"/>
<stop offset="0.62" stop-color="#82C9D2"/>
<stop offset="0.75" stop-color="#7CB4E3"/>
<stop offset="0.88" stop-color="#78A8EE"/>
<stop offset="1" stop-color="#77A4F2"/>
</linearGradient>
<linearGradient id="paint58_linear_2665_22323" x1="800.35" y1="-7.6197" x2="-27.8598" y2="100.26" gradientUnits="userSpaceOnUse">
<stop stop-color="white"/>
<stop offset="0.57" stop-color="#86D4C9"/>
<stop offset="0.62" stop-color="#82C9D2"/>
<stop offset="0.75" stop-color="#7CB4E3"/>
<stop offset="0.88" stop-color="#78A8EE"/>
<stop offset="1" stop-color="#77A4F2"/>
</linearGradient>
<linearGradient id="paint59_linear_2665_22323" x1="791.921" y1="-72.3202" x2="-36.29" y2="35.5601" gradientUnits="userSpaceOnUse">
<stop stop-color="white"/>
<stop offset="0.57" stop-color="#86D4C9"/>
<stop offset="0.62" stop-color="#82C9D2"/>
<stop offset="0.75" stop-color="#7CB4E3"/>
<stop offset="0.88" stop-color="#78A8EE"/>
<stop offset="1" stop-color="#77A4F2"/>
</linearGradient>
<linearGradient id="paint60_linear_2665_22323" x1="800.439" y1="-6.93014" x2="-27.7666" y2="100.949" gradientUnits="userSpaceOnUse">
<stop stop-color="white"/>
<stop offset="0.57" stop-color="#86D4C9"/>
<stop offset="0.62" stop-color="#82C9D2"/>
<stop offset="0.75" stop-color="#7CB4E3"/>
<stop offset="0.88" stop-color="#78A8EE"/>
<stop offset="1" stop-color="#77A4F2"/>
</linearGradient>
<linearGradient id="paint61_linear_2665_22323" x1="802.85" y1="11.5897" x2="-25.3606" y2="119.47" gradientUnits="userSpaceOnUse">
<stop stop-color="white"/>
<stop offset="0.57" stop-color="#86D4C9"/>
<stop offset="0.62" stop-color="#82C9D2"/>
<stop offset="0.75" stop-color="#7CB4E3"/>
<stop offset="0.88" stop-color="#78A8EE"/>
<stop offset="1" stop-color="#77A4F2"/>
</linearGradient>
<linearGradient id="paint62_linear_2665_22323" x1="807.75" y1="49.2305" x2="-20.4657" y2="157.112" gradientUnits="userSpaceOnUse">
<stop stop-color="white"/>
<stop offset="0.57" stop-color="#86D4C9"/>
<stop offset="0.62" stop-color="#82C9D2"/>
<stop offset="0.75" stop-color="#7CB4E3"/>
<stop offset="0.88" stop-color="#78A8EE"/>
<stop offset="1" stop-color="#77A4F2"/>
</linearGradient>
<linearGradient id="paint63_linear_2665_22323" x1="796.06" y1="-40.4202" x2="-32.135" y2="67.4461" gradientUnits="userSpaceOnUse">
<stop stop-color="white"/>
<stop offset="0.57" stop-color="#86D4C9"/>
<stop offset="0.62" stop-color="#82C9D2"/>
<stop offset="0.75" stop-color="#7CB4E3"/>
<stop offset="0.88" stop-color="#78A8EE"/>
<stop offset="1" stop-color="#77A4F2"/>
</linearGradient>
<linearGradient id="paint64_linear_2665_22323" x1="792.66" y1="-66.5898" x2="-35.5403" y2="41.2905" gradientUnits="userSpaceOnUse">
<stop stop-color="white"/>
<stop offset="0.57" stop-color="#86D4C9"/>
<stop offset="0.62" stop-color="#82C9D2"/>
<stop offset="0.75" stop-color="#7CB4E3"/>
<stop offset="0.88" stop-color="#78A8EE"/>
<stop offset="1" stop-color="#77A4F2"/>
</linearGradient>
<linearGradient id="paint65_linear_2665_22323" x1="806.07" y1="36.3205" x2="-22.1401" y2="144.2" gradientUnits="userSpaceOnUse">
<stop stop-color="white"/>
<stop offset="0.57" stop-color="#86D4C9"/>
<stop offset="0.62" stop-color="#82C9D2"/>
<stop offset="0.75" stop-color="#7CB4E3"/>
<stop offset="0.88" stop-color="#78A8EE"/>
<stop offset="1" stop-color="#77A4F2"/>
</linearGradient>
<linearGradient id="paint66_linear_2665_22323" x1="794.759" y1="-50.4894" x2="-33.4497" y2="57.3905" gradientUnits="userSpaceOnUse">
<stop stop-color="white"/>
<stop offset="0.57" stop-color="#86D4C9"/>
<stop offset="0.62" stop-color="#82C9D2"/>
<stop offset="0.75" stop-color="#7CB4E3"/>
<stop offset="0.88" stop-color="#78A8EE"/>
<stop offset="1" stop-color="#77A4F2"/>
</linearGradient>
<linearGradient id="paint67_linear_2665_22323" x1="794.185" y1="-54.8397" x2="-34.0082" y2="53.0357" gradientUnits="userSpaceOnUse">
<stop stop-color="white"/>
<stop offset="0.57" stop-color="#86D4C9"/>
<stop offset="0.62" stop-color="#82C9D2"/>
<stop offset="0.75" stop-color="#7CB4E3"/>
<stop offset="0.88" stop-color="#78A8EE"/>
<stop offset="1" stop-color="#77A4F2"/>
</linearGradient>
<linearGradient id="paint68_linear_2665_22323" x1="804.931" y1="27.5601" x2="-23.28" y2="135.43" gradientUnits="userSpaceOnUse">
<stop stop-color="white"/>
<stop offset="0.57" stop-color="#86D4C9"/>
<stop offset="0.62" stop-color="#82C9D2"/>
<stop offset="0.75" stop-color="#7CB4E3"/>
<stop offset="0.88" stop-color="#78A8EE"/>
<stop offset="1" stop-color="#77A4F2"/>
</linearGradient>
<linearGradient id="paint69_linear_2665_22323" x1="805.92" y1="35.1599" x2="-22.2897" y2="143.04" gradientUnits="userSpaceOnUse">
<stop stop-color="white"/>
<stop offset="0.57" stop-color="#86D4C9"/>
<stop offset="0.62" stop-color="#82C9D2"/>
<stop offset="0.75" stop-color="#7CB4E3"/>
<stop offset="0.88" stop-color="#78A8EE"/>
<stop offset="1" stop-color="#77A4F2"/>
</linearGradient>
<linearGradient id="paint70_linear_2665_22323" x1="791.436" y1="-76.0003" x2="-36.7696" y2="31.8785" gradientUnits="userSpaceOnUse">
<stop stop-color="white"/>
<stop offset="0.57" stop-color="#86D4C9"/>
<stop offset="0.62" stop-color="#82C9D2"/>
<stop offset="0.75" stop-color="#7CB4E3"/>
<stop offset="0.88" stop-color="#78A8EE"/>
<stop offset="1" stop-color="#77A4F2"/>
</linearGradient>
<linearGradient id="paint71_linear_2665_22323" x1="792.431" y1="-68.3596" x2="-35.7802" y2="39.5105" gradientUnits="userSpaceOnUse">
<stop stop-color="white"/>
<stop offset="0.57" stop-color="#86D4C9"/>
<stop offset="0.62" stop-color="#82C9D2"/>
<stop offset="0.75" stop-color="#7CB4E3"/>
<stop offset="0.88" stop-color="#78A8EE"/>
<stop offset="1" stop-color="#77A4F2"/>
</linearGradient>
<linearGradient id="paint72_linear_2665_22323" x1="795.231" y1="-46.7293" x2="-32.9464" y2="61.1422" gradientUnits="userSpaceOnUse">
<stop stop-color="white"/>
<stop offset="0.57" stop-color="#86D4C9"/>
<stop offset="0.62" stop-color="#82C9D2"/>
<stop offset="0.75" stop-color="#7CB4E3"/>
<stop offset="0.88" stop-color="#78A8EE"/>
<stop offset="1" stop-color="#77A4F2"/>
</linearGradient>
</defs>
</svg>
</svg>
