<svg viewBox="0 0 1071 162" fill="none" xmlns="http://www.w3.org/2000/svg">
    <path d="M1060.32 11H9.99C4.47268 11 0 15.4727 0 20.99V151.91C0 157.427 4.47268 161.9 9.99 161.9H1060.32C1065.84 161.9 1070.31 157.427 1070.31 151.91V20.99C1070.31 15.4727 1065.84 11 1060.32 11Z"
          fill="url(#paint0_linear_2666_25496)"/>
    <path opacity="0.3"
          d="M8.13 54.2299C12.62 54.2299 16.22 57.9599 16.05 62.4499L15.34 81.4299H15.24V81.4799H0V151.73C0 157.26 4.47 161.73 9.99 161.73H1060.32C1065.84 161.73 1070.31 157.26 1070.31 151.74V78.7199C1070.24 78.5699 1070.18 78.4299 1070.11 78.2899C1070.06 78.1899 1070.01 78.0799 1069.96 77.9799C1069.91 77.8699 1069.84 77.7299 1069.78 77.6199C1069.72 77.4999 1069.62 77.3099 1069.54 77.1599C1069.46 77.0099 1069.4 76.9099 1069.33 76.7899C1069.26 76.6699 1069.21 76.5799 1069.15 76.4799L1068.97 76.1799C1068.87 76.0099 1068.76 75.8699 1068.66 75.6899C1068.6 75.5999 1068.54 75.5199 1068.48 75.4299L1068.23 75.0899C1068.16 74.9899 1068.09 74.8999 1068.02 74.7999L1067.73 74.4399L1067.56 74.2399C1067.43 74.0899 1067.31 73.9499 1067.18 73.8099C1067.13 73.7499 1067.08 73.6999 1067.03 73.6499C1066.98 73.5999 1066.84 73.4499 1066.73 73.3499C1066.68 73.2999 1066.63 73.2499 1066.58 73.2099C1066.44 73.0799 1066.31 72.9599 1066.17 72.8399L1066.03 72.7199C1065.91 72.6199 1065.78 72.5199 1065.66 72.4299L1065.56 72.3499C1065.41 72.2399 1065.25 72.1399 1065.1 72.0399L1064.96 71.9599C1064.8 71.8699 1064.65 71.7699 1064.49 71.6899L1064.42 71.6599C1064.27 71.5799 1064.12 71.5199 1063.97 71.4599L1063.85 71.4099C1063.69 71.3399 1063.54 71.2799 1063.35 71.2299L1063.25 71.1999C1063.1 71.1599 1062.94 71.1199 1062.79 71.0799C1062.76 71.0799 1062.73 71.0699 1062.71 71.0599C1062.54 71.0299 1062.36 70.9999 1062.19 70.9799H1062.07C1061.89 70.9799 1061.71 70.9499 1061.53 70.9499C1061.35 70.9499 1061.17 70.9499 1060.99 70.9799H1060.87C1060.7 70.9999 1060.52 71.0299 1060.35 71.0599L1060.27 71.0799C1060.12 71.1099 1059.96 71.1499 1059.81 71.1999L1059.71 71.2299C1059.54 71.2799 1059.38 71.3399 1059.21 71.4099L1059.09 71.4599C1058.94 71.5199 1058.78 71.5899 1058.64 71.6599L1058.57 71.6899C1058.5 71.7299 1058.43 71.7699 1058.36 71.8099C1058.24 71.8599 1058.11 71.9099 1058.01 71.9699L1057.94 71.9999C1057.78 72.0799 1057.63 72.1699 1057.47 72.2699L1057.33 72.3499C1057.18 72.4499 1057.02 72.5499 1056.87 72.6599L1056.77 72.7399C1056.65 72.8299 1056.52 72.9299 1056.4 73.0299L1056.26 73.1499C1056.12 73.2699 1055.98 73.3899 1055.85 73.5199L1055.7 73.6599C1055.6 73.7599 1055.5 73.8499 1055.41 73.9599C1055.32 74.0599 1055.31 74.0699 1055.25 74.1299C1055.12 74.2699 1055 74.4099 1054.88 74.5599L1054.71 74.7599L1054.42 75.1199L1054.2 75.4099L1053.96 75.7499C1053.9 75.8399 1053.84 75.9199 1053.78 76.0099C1053.67 76.1699 1053.57 76.3199 1053.47 76.4999L1053.29 76.7999C1053.23 76.8999 1053.17 77.0099 1053.11 77.1099C1053.05 77.2199 1052.97 77.3599 1052.9 77.4799C1052.83 77.6099 1052.74 77.7899 1052.65 77.9399L1052.47 78.2999C1052.42 78.3999 1052.37 78.4999 1052.32 78.6099C1052.22 78.8099 1052.13 79.0199 1052.04 79.2199C1051.99 79.3199 1051.95 79.4199 1051.9 79.5299C1051.85 79.6399 1051.78 79.8099 1051.73 79.9499C1051.67 80.0899 1051.65 80.1599 1051.6 80.2599C1051.51 80.4899 1051.42 80.7199 1051.34 80.9499C1051.3 81.0499 1051.27 81.1499 1051.23 81.2599C1051.22 81.2999 1051.2 81.3499 1051.18 81.3999H1036.19C1036.23 80.8099 1036.26 80.1999 1036.28 79.5899C1036.28 79.5599 1036.28 79.5299 1036.28 79.4999C1036.3 78.8999 1036.31 78.2899 1036.31 77.6799C1036.31 71.9099 1035.42 66.6899 1033.97 62.9199C1032.52 59.1499 1030.51 56.7999 1028.32 56.7999C1028.2 56.7999 1028.07 56.8099 1027.95 56.8299H1027.84C1027.75 56.8299 1027.66 56.8599 1027.57 56.8899L1027.47 56.9199C1027.35 56.9499 1027.23 56.9899 1027.11 57.0399L1027.08 57.0599C1026.97 57.0999 1026.87 57.1499 1026.77 57.2099L1026.66 57.2699C1026.66 57.2699 1026.58 57.3199 1026.54 57.3399C1026.52 57.3399 1026.5 57.3499 1026.48 57.3599L1026.45 57.3799C1026.34 57.4199 1026.24 57.4699 1026.14 57.5299L1026.03 57.5899C1025.95 57.6399 1025.86 57.6899 1025.78 57.7399L1025.68 57.8099C1025.56 57.8899 1025.45 57.9699 1025.35 58.0599L1025.28 58.1199C1025.19 58.1999 1025.1 58.2699 1025.02 58.3599L1024.9 58.4699C1024.82 58.5399 1024.75 58.6199 1024.68 58.6999C1024.61 58.7799 1024.6 58.7799 1024.57 58.8199C1024.47 58.9299 1024.37 59.0499 1024.27 59.1699C1024.24 59.2099 1024.2 59.2499 1024.17 59.2999L1023.96 59.5799C1023.92 59.6399 1023.88 59.6999 1023.83 59.7599L1023.65 60.0299L1023.53 60.2199C1023.44 60.3599 1023.35 60.5099 1023.27 60.6599L1023.14 60.8899C1023.09 60.9799 1023.04 61.0699 1022.99 61.1699C1022.94 61.2599 1022.9 61.3499 1022.85 61.4399C1022.8 61.5299 1022.76 61.6199 1022.72 61.7099C1022.68 61.7999 1022.66 61.8199 1022.64 61.8799L1022.37 62.4899L1022.23 62.8399L1022.13 63.0899C1022.08 63.2099 1022.04 63.3299 1021.99 63.4499C1021.95 63.5699 1021.93 63.6099 1021.9 63.6899C1021.74 64.1399 1021.59 64.5899 1021.44 65.0799L1021.37 65.2999C1021.32 65.4499 1021.28 65.6099 1021.24 65.7599L1021.18 65.9599C1021.04 66.4799 1020.91 67.0199 1020.78 67.5799L1020.73 67.7899C1020.69 67.9699 1020.65 68.1399 1020.62 68.3199C1020.62 68.3799 1020.6 68.4399 1020.59 68.4899C1020.53 68.7899 1020.48 69.0999 1020.42 69.4099H1018.79C1018.32 69.4099 1017.89 69.5599 1017.54 69.8199C1016.66 70.0899 1016.03 70.8999 1016.02 71.8599V81.4499H1005.38V74.2299C1005.38 73.9599 1005.16 73.7499 1004.9 73.7499H1004.77C1004.32 73.7499 1003.9 73.8999 1003.56 74.1499C1002.72 74.3999 1002.1 75.1799 1002.1 76.1099V81.4599H996.87V79.1299C996.87 77.8299 995.82 76.7799 994.52 76.7799C994.23 76.7799 993.97 76.9099 993.78 77.1099C993.28 77.1599 992.88 77.5899 992.88 78.1099V81.4699H949.68L949.59 81.3899C949.57 81.1799 949.54 80.9799 949.52 80.7599C949.52 80.6899 949.52 80.6199 949.5 80.5399C949.47 80.3099 949.45 80.0899 949.42 79.8699L949.4 79.6899C949.38 79.4999 949.36 79.2999 949.33 79.1099V78.9899C949.3 78.7599 949.28 78.5399 949.25 78.3199V78.2199C949.23 78.0399 949.21 77.8599 949.19 77.6799L949.17 77.4999C949.15 77.3099 949.13 77.1199 949.11 76.9299V76.8499C949.09 76.6699 949.07 76.4999 949.05 76.3299V76.2399C949.01 75.8599 948.97 75.5099 948.93 75.1699V75.0699C948.91 74.9099 948.9 74.7599 948.88 74.5999C948.88 74.4499 948.85 74.3099 948.84 74.1699V74.0799C948.81 73.8099 948.78 73.5599 948.76 73.3299V73.2499C948.76 73.1399 948.74 73.0299 948.73 72.9399C948.73 72.8399 948.73 72.7499 948.7 72.6699V72.6099C948.7 72.5299 948.7 72.4499 948.68 72.3799L948.64 71.8599V71.6699L948.62 71.3599V68.9199L948.64 68.6399C948.64 68.5799 948.64 68.5199 948.66 68.4599C948.68 68.3999 948.66 68.2699 948.69 68.1699C948.72 68.0799 948.69 68.0599 948.69 68.0099L948.73 67.7199C948.73 67.7199 948.73 67.6299 948.75 67.5799C948.76 67.4799 948.78 67.3799 948.8 67.2899C948.8 67.2499 948.8 67.2099 948.82 67.1599C948.84 67.0599 948.86 66.9599 948.88 66.8599C948.88 66.8199 948.88 66.7799 948.9 66.7499C948.93 66.6499 948.95 66.5499 948.97 66.4499C948.97 66.4199 948.97 66.3899 949 66.3599C949.03 66.2599 949.05 66.1499 949.08 66.0499L949.1 65.9699C949.13 65.8699 949.17 65.7699 949.2 65.6599L949.22 65.6099C949.26 65.4999 949.3 65.3999 949.34 65.2999C949.34 65.2899 949.34 65.2799 949.34 65.2699C949.39 65.1599 949.43 65.0599 949.48 64.9599C949.89 63.9999 950.6 63.2299 951.46 62.7099C951.97 62.4999 952.53 62.3699 953.11 62.3499H967.02C967.64 62.3499 968.21 62.1699 968.69 61.8499C969.85 61.4299 970.68 60.3199 970.68 59.0099C970.68 58.4099 970.5 57.8199 970.17 57.3199C970.12 57.2399 970.06 57.1599 970 57.0899C969.88 56.9399 969.74 56.7999 969.59 56.6799C969.36 56.4899 969.11 56.3399 968.85 56.2199C968.67 56.1399 968.48 56.0899 968.28 56.0399C968.08 55.9999 967.88 55.9799 967.67 55.9799H944.84V43.9499H958.06C958.69 43.9499 959.28 43.7699 959.78 43.4499C960.85 43.0599 961.66 42.0999 961.8 40.8999C961.87 40.1999 961.69 39.4999 961.3 38.9099C961.08 38.5899 960.8 38.3099 960.48 38.0899C959.98 37.7499 959.39 37.5699 958.79 37.5699H955.51C955.51 30.2799 949.6 24.3799 942.32 24.3799C940.07 24.3799 937.95 24.9399 936.1 25.9399C931.7 27.9999 928.63 32.4199 928.51 37.5799H925.85C925.25 37.5799 924.67 37.7599 924.17 38.0899C923.95 38.1699 923.73 38.2699 923.53 38.4099C923.04 38.7399 922.66 39.1999 922.43 39.7399C922.35 39.9199 922.29 40.1099 922.25 40.3099C922.21 40.5099 922.19 40.7099 922.19 40.9199C922.19 41.0199 922.19 41.1299 922.21 41.2299C922.23 41.3399 922.24 41.4299 922.25 41.5399C922.54 42.9499 923.78 43.9599 925.22 43.9599H939.16V55.9899H917.02C916.43 55.9899 915.86 56.1599 915.37 56.4799C915.04 56.5999 914.74 56.7699 914.46 56.9999C914.31 57.1199 914.17 57.2599 914.05 57.4099C913.99 57.4899 913.93 57.5599 913.88 57.6399C913.71 57.8799 913.59 58.1499 913.5 58.4299C913.41 58.7199 913.36 59.0299 913.36 59.3299C913.36 59.7299 913.44 60.1399 913.6 60.5099C914.07 61.6299 915.17 62.3599 916.39 62.3599H930.3C932.16 62.4399 933.81 63.5799 934.55 65.2799C934.6 65.3799 934.64 65.4899 934.69 65.5899C934.69 65.5999 934.69 65.6099 934.69 65.6199C934.73 65.7199 934.77 65.8199 934.81 65.9299L934.83 65.9799C934.86 66.0799 934.9 66.1799 934.93 66.2899C934.93 66.3199 934.93 66.3399 934.95 66.3699C934.98 66.4699 935.01 66.5699 935.03 66.6799C935.03 66.7099 935.05 66.7399 935.06 66.7699C935.09 66.8699 935.11 66.9699 935.13 67.0699C935.13 67.0999 935.15 67.1399 935.16 67.1799L935.22 67.4799C935.22 67.4799 935.24 67.5699 935.24 67.6099C935.26 67.7099 935.27 67.7999 935.29 67.8999L935.31 68.0399L935.35 68.3299L935.37 68.4899L935.4 68.7799V68.9599C935.4 69.0199 935.4 69.1499 935.42 69.2399C935.44 69.3299 935.42 69.3699 935.42 69.4299V71.6899L935.4 71.9999V72.1999C935.4 72.3499 935.38 72.5099 935.37 72.6699C935.37 72.6899 935.37 72.7099 935.37 72.7199C935.37 72.7899 935.37 72.8699 935.35 72.9599V73.0099C935.35 73.0999 935.35 73.1899 935.32 73.2899C935.29 73.3899 935.3 73.4899 935.29 73.5999V73.6799C935.27 73.9099 935.24 74.1599 935.21 74.4299V74.5199C935.2 74.6599 935.18 74.7999 935.16 74.9399C935.16 75.0899 935.13 75.2499 935.11 75.4099V75.5199C935.09 75.6699 935.08 75.8299 935.06 75.9899V76.0299C935.04 76.1999 935.02 76.3699 935 76.5499L934.98 76.7199C934.96 76.8699 934.95 77.0299 934.93 77.1799V77.2899C934.91 77.4699 934.89 77.6599 934.87 77.8499C934.87 77.9299 934.85 77.9999 934.85 78.0799C934.85 78.2099 934.82 78.3399 934.81 78.4699L934.77 78.7799C934.75 78.9599 934.73 79.1299 934.71 79.3099C934.71 79.3799 934.71 79.4399 934.69 79.4999C934.69 79.6499 934.66 79.8099 934.64 79.9699C934.64 80.0499 934.64 80.1199 934.61 80.1999C934.59 80.3999 934.56 80.6099 934.54 80.8299C934.54 80.9299 934.52 81.0299 934.51 81.1399C934.5 81.2599 934.48 81.3799 934.47 81.4999H926.09L925.64 81.5199H925.37L924.94 81.5399L924.68 81.5599L924.25 81.5899L924.01 81.6099L923.58 81.6499L923.37 81.6699L922.91 81.7199L922.74 81.7399L922.23 81.7999H922.14C921.32 81.9099 920.57 82.0399 919.84 82.1999L919.32 82.3199H919.29C919.13 82.3599 918.98 82.3999 918.81 82.4399H918.78L918.32 82.5699H918.3C918.14 82.6099 917.99 82.6599 917.84 82.7099V68.3699C917.84 67.2599 916.94 66.3599 915.83 66.3599H912.19C910.95 66.3599 909.79 66.6899 908.79 67.2499C906.34 68.3199 904.63 70.7599 904.63 73.5999V83.1499L899.18 87.7399C897.71 88.9699 896.87 90.7899 896.86 92.7099V95.6899H871.92C871.92 95.1499 871.69 94.6399 871.29 94.2699L855.08 79.1899C854.71 78.8199 854.12 78.8199 853.75 79.1899C853.74 79.1999 853.73 79.2199 853.71 79.2399C853.49 79.2599 853.28 79.3399 853.12 79.5099C852.93 79.6999 852.83 79.9499 852.84 80.2099V90.8899C852.84 91.9099 852.35 92.8699 851.53 93.4699L848.5 95.6899H785.07C769.41 95.6899 763.83 91.8499 758.9 88.4699C755.05 85.8199 751.4 83.3099 744.07 83.3099H737.81V82.4099C737.81 80.3099 738.96 78.4799 740.66 77.5099C741.33 77.2299 742.07 77.0699 742.84 77.0699H749.28C749.75 77.0699 750.2 76.9199 750.57 76.6499C750.85 76.5599 751.12 76.4299 751.34 76.2299C751.44 76.1499 751.53 76.0599 751.61 75.9599C751.98 75.4999 752.14 74.9099 752.03 74.3299C751.83 73.3299 750.94 72.6199 749.93 72.6299H737.81V69.3499C737.81 69.1599 737.81 68.9599 737.84 68.7699C737.88 68.3999 737.95 68.0299 738.07 67.6699C738.23 67.1499 738.47 66.6499 738.78 66.1899C739.26 65.4699 739.9 64.8899 740.63 64.4599C741.32 64.1699 742.07 64.0099 742.84 64.0099H749.32C749.79 64.0099 750.23 63.8599 750.58 63.5999C751.32 63.3799 751.9 62.7599 752.04 61.9599C752.06 61.8499 752.07 61.7299 752.07 61.6099C752.06 60.4799 751.14 59.5699 750.01 59.5699H747.74V59.3299C747.74 52.7499 742.42 47.4099 735.84 47.4099C733.78 47.4099 731.85 47.9299 730.16 48.8399C726.12 50.7299 723.31 54.8199 723.29 59.5799H721.74C721.28 59.5799 720.83 59.7299 720.45 59.9999C720.11 60.1099 719.79 60.2899 719.54 60.5499C719.5 60.5899 719.45 60.6399 719.41 60.6899C719.16 60.9899 719 61.3599 718.96 61.7499V61.9799C718.96 62.1899 719 62.4099 719.07 62.6099C719.12 62.7399 719.18 62.8699 719.25 62.9999C719.62 63.6299 720.29 64.0099 721.02 64.0099H727.56C730.03 64.0099 732.22 65.6199 732.96 67.9799C733.07 68.3399 733.15 68.7099 733.18 69.0799C733.2 69.2699 733.21 69.4699 733.21 69.6599V72.6399H721.73C721.25 72.6399 720.81 72.7799 720.44 73.0499C719.77 73.2599 719.22 73.7899 719.02 74.4999C718.98 74.6699 718.96 74.8499 718.96 75.0299C718.97 76.1599 719.89 77.0699 721.02 77.0699H727.56C728.69 77.0699 729.79 77.3999 730.72 78.0299C730.87 78.1299 731.01 78.2299 731.15 78.3399C731.57 78.6799 731.94 79.0899 732.24 79.5399C732.87 80.4699 733.21 81.5699 733.2 82.6999V83.2899H688.42V71.0899C688.42 69.9999 687.54 69.1099 686.44 69.1099C685.56 69.1099 684.74 69.3499 684.03 69.7699C682.3 70.4699 681.07 72.1699 681.07 74.1599V83.3099H660.41C660.47 83.0099 660.5 82.7099 660.5 82.4099C660.5 81.4799 659.74 80.7199 658.81 80.7199H641.91V75.5199H655.47C656.3 75.5199 657.07 75.2899 657.73 74.8899C659.35 74.2399 660.5 72.6599 660.5 70.8099C660.5 69.8799 659.74 69.1199 658.81 69.1199H641.91V63.9199H655.47C656.3 63.9199 657.07 63.6899 657.73 63.2899C659.35 62.6399 660.5 61.0599 660.5 59.2099C660.5 58.2799 659.74 57.5199 658.81 57.5199H641.91V52.3199H655.47C656.3 52.3199 657.07 52.0899 657.73 51.6899C659.35 51.0399 660.5 49.4599 660.5 47.6099C660.5 46.6799 659.74 45.9199 658.81 45.9199H641.91V40.2999L655.46 40.3199C656.29 40.3199 657.06 40.0899 657.72 39.6899C659.34 39.0399 660.49 37.4599 660.49 35.6099V35.5899C660.49 34.6599 659.73 33.8999 658.8 33.8999H614.3C613.9 33.8999 613.54 34.0399 613.25 34.2699C612.52 34.4599 611.98 35.1099 611.98 35.8999C611.98 38.3299 613.95 40.2999 616.38 40.2999H626.94C629.07 40.8599 630.3 42.4599 630.84 44.4699C630.87 44.5799 630.89 44.6899 630.92 44.7999C630.92 44.8199 630.93 44.8499 630.94 44.8699C630.96 44.9699 630.98 45.0799 631 45.1799C631 45.2099 631 45.2399 631.02 45.2699C631.04 45.3699 631.05 45.4699 631.07 45.5799V45.6899C631.07 45.7899 631.1 45.8899 631.1 45.9899V46.1099C631.1 46.2099 631.12 46.3099 631.12 46.4199V46.5299C631.14 46.8399 631.14 47.1899 631.12 47.5199V47.6899C631.12 47.7499 631.12 47.8499 631.1 47.9299C631.08 48.0099 631.1 48.0699 631.08 48.1399L631.06 48.3599C631.06 48.4399 631.04 48.5099 631.03 48.5899L631 48.7999C631 48.8799 630.98 48.9599 630.97 49.0399C630.96 49.1199 630.95 49.1799 630.94 49.2399C630.93 49.3099 630.91 49.3999 630.9 49.4899L630.86 49.6799C630.84 49.7699 630.83 49.8599 630.81 49.9399C630.79 50.0199 630.78 50.0599 630.77 50.1199C630.76 50.1799 630.72 50.3099 630.7 50.4099C630.68 50.5099 630.68 50.5099 630.67 50.5499C630.63 50.6899 630.59 50.8299 630.55 50.9699C630.51 51.1099 630.47 51.2099 630.44 51.3399L630.42 51.3999L630.29 51.8199V51.8599L630.14 52.3499C630.14 52.3499 630.12 52.3899 630.12 52.4199L629.97 52.9299C629.97 52.9299 629.95 52.9999 629.94 53.0299C629.89 53.1899 629.84 53.3399 629.79 53.5099C629.79 53.5299 629.77 53.5599 629.76 53.5899C629.71 53.7599 629.65 53.9399 629.6 54.1199C629.57 54.2099 629.55 54.2999 629.52 54.3899L629.1 55.7399C629.1 55.7399 629.1 55.7599 629.1 55.7699C629.05 55.9299 629 56.0799 628.95 56.2599C628.9 56.4399 628.82 56.6899 628.75 56.9099C628.72 57.0099 628.69 57.1099 628.66 57.2199L628.57 57.5299L628.43 57.9999L628.25 58.5799C628.09 59.0899 627.94 59.6099 627.76 60.1499L627.68 60.3999C627.59 60.6799 627.51 60.9599 627.42 61.2499V61.2799C627.32 61.6099 627.21 61.9599 627.11 62.2999C627.11 62.2999 627.11 62.3099 627.11 62.3199C627.03 62.5799 626.94 62.8499 626.86 63.1199C626.81 63.2799 626.76 63.4299 626.71 63.5899C626.63 63.8599 626.54 64.1299 626.46 64.4099C626.43 64.5099 626.4 64.5999 626.37 64.6999L626.17 65.3299C626.11 65.5099 626.06 65.6899 626 65.8699C625.69 66.8799 625.37 67.9099 625.04 68.9799C624.99 69.1399 624.94 69.2899 624.89 69.4499C624.69 70.0999 624.49 70.7499 624.28 71.4099L624.04 72.1799C623.98 72.3699 623.92 72.5599 623.86 72.7499L623.75 73.1099C622.73 76.3899 621.67 79.8299 620.6 83.2899H585.32V78.6499C585.32 77.4999 584.39 76.5699 583.24 76.5699H575.89C575.43 76.5699 575.01 76.7199 574.66 76.9699C573.8 77.2299 573.17 78.0199 573.17 78.9699V83.2499H548.31V69.1099C548.31 68.2599 547.62 67.5699 546.77 67.5699H545.96C544.92 67.5699 543.93 67.8499 543.08 68.3499C541.65 68.9599 540.5 70.1399 539.95 71.6499L536.67 80.6399H528.96C527.95 80.6399 526.99 80.9099 526.15 81.3999C524.93 81.9099 523.91 82.8499 523.31 84.0799L522 86.7199C521.54 87.6499 520.83 88.4099 519.96 88.9099C519.34 89.1699 518.66 89.3099 517.97 89.3099H488.95V77.4599C488.95 74.6399 486.66 72.3499 483.84 72.3499H482.84V69.6099C482.84 63.7699 478.06 58.9899 472.22 58.9899H470.42C470.42 58.9899 470.45 58.9599 470.46 58.9399H470.4C469.29 58.9399 468.38 59.8499 468.38 60.9599V88.3099H448.85V76.2499C448.85 75.7299 448.62 75.2299 448.21 74.8899C447.42 74.2299 446.58 73.9899 445.83 74.0499C445.84 74.0399 445.86 74.0199 445.88 74.0099C444.48 74.1599 443.38 75.3399 443.38 76.7799V84.1199C439.6 84.9099 435.97 86.0999 432.53 87.6399C432.01 87.8799 431.49 88.1199 430.97 88.3699L430.92 88.3899C430.92 88.3899 430.85 88.4199 430.82 88.4399V71.7299C430.82 70.6199 429.91 69.7099 428.8 69.7099H425.97C425.97 69.7099 426 69.6799 426.01 69.6599H425.95C424.84 69.6599 423.93 70.5699 423.93 71.6799V92.4899C416.46 97.6799 410.39 104.73 406.41 112.96C405.9 114 405.07 114.81 404.06 115.31C403.35 115.68 402.54 115.88 401.71 115.88H394.61V106.44C394.61 106 394.43 105.58 394.1 105.29C393.37 104.65 392.6 104.41 391.9 104.44C391.91 104.43 391.93 104.41 391.95 104.4C390.62 104.5 389.57 105.62 389.57 106.96V115.83H389.47V115.88H382.65C382.3 115.88 381.95 115.92 381.61 116C381.63 115.99 381.65 115.98 381.66 115.96C380.52 116.23 379.52 116.93 378.86 117.93L376.69 121.26H376.62L376.59 121.31H374.86C374.86 121.31 374.89 121.28 374.9 121.26H374.77C373.77 121.26 372.95 122.06 372.92 123.06L372.89 124.2H372.79V124.25H364.33C363.93 124.25 363.55 124.3 363.17 124.4C363.19 124.39 363.2 124.38 363.22 124.37C362.37 124.59 361.58 125.02 360.95 125.66L358.13 128.48H358.08L358.03 128.53H342.74L338.92 121.32C338.1 119.78 336.51 118.82 334.77 118.82H324.51V115.17C324.51 114.82 324.31 114.52 324.02 114.36C324.02 114.33 324.02 114.3 324.03 114.27C323.93 114.23 323.82 114.21 323.7 114.21H323.32C322.82 114.21 322.41 114.62 322.41 115.12V118.77H322.31V118.82H313.79C311.61 118.82 309.85 117.05 309.85 114.88V94.7899C309.85 93.4399 308.62 92.4199 307.3 92.6699C306.57 92.8099 305.85 93.0199 305.17 93.2699C305.19 93.2599 305.21 93.2499 305.23 93.2399C300.2 95.1499 296.63 99.9999 296.63 105.7C296.63 105.73 296.63 105.77 296.63 105.8L292.08 108.18C289.37 109.6 287.31 112.01 286.35 114.92L284.51 120.43C284.11 121.64 283.23 122.6 282.14 123.14C281.48 123.48 280.74 123.68 279.97 123.68C278.17 123.68 276.42 124.01 274.79 124.63C274.81 124.62 274.83 124.61 274.85 124.6C272.15 125.64 269.77 127.48 268.08 129.93L263.6 136.42H263.53L264.04 135.68L263.5 136.46H249.53V133.3C249.53 132.77 249.1 132.34 248.57 132.34H248.02C248.02 132.34 248.02 132.31 248.03 132.29H247.35C246.82 132.29 246.39 132.72 246.39 133.25V136.41H246.29V136.46H235.87C234.46 136.46 233.13 135.83 232.23 134.74L226.97 128.33C226.08 127.24 224.74 126.61 223.33 126.61H220.22C219.12 126.61 218.06 126.18 217.27 125.41L210.42 118.77C209.57 117.95 208.44 117.49 207.25 117.49H196.74V109.17C196.74 108.51 196.21 107.98 195.55 107.98C195.32 107.98 195.09 108 194.86 108.04C194.88 108.03 194.9 108.01 194.91 108C193.16 108.34 191.83 109.89 191.83 111.74V114.6H191.73V114.65H185.26V109.34C185.26 107.7 183.93 106.36 182.28 106.36H168.2C167.82 106.36 167.46 106.41 167.1 106.49C167.12 106.48 167.14 106.47 167.15 106.45C165.9 106.76 164.8 107.57 164.14 108.72L159.5 116.85C159.21 117.36 158.75 117.75 158.22 117.97C157.88 118.13 157.51 118.21 157.13 118.21H154.21C153.38 118.21 152.71 117.56 152.66 116.73C151.55 97.2999 136.43 81.6199 117.25 79.6399C116.89 79.5999 116.54 79.6199 116.21 79.6799C116.23 79.6699 116.25 79.6499 116.26 79.6399C114.56 79.9599 113.24 81.4499 113.24 83.2799V92.0899H113.14V92.1399H107.66C107.16 92.1399 106.68 92.2099 106.22 92.3299C106.24 92.3199 106.26 92.3099 106.27 92.2999C104.54 92.7799 103.11 94.0699 102.5 95.8099L100.08 102.65H100L99.98 102.7H93.54C93.36 102.7 93.19 102.71 93.02 102.74C93.04 102.73 93.05 102.72 93.07 102.7C91.9 102.9 90.89 103.7 90.44 104.83L85.91 116.33C85.64 117.03 85.11 117.57 84.46 117.87C84.41 117.89 84.37 117.91 84.32 117.94C83.95 118.11 83.55 118.2 83.13 118.2H77.51C76.82 118.2 76.21 117.76 75.99 117.11L75.69 116.23C75.37 115.3 74.49 114.67 73.51 114.67H68.21L65.81 100.63C65.6 99.4099 64.54 98.5199 63.31 98.5199H56.02C56.02 98.5199 55.93 98.5199 55.89 98.5199C55.9 98.5099 55.92 98.4899 55.94 98.4799C55.03 98.5499 54.22 99.0899 53.83 99.9299L51.87 104.11H51.79L51.77 104.16H33.21L32.98 98.0999H33.08V98.0499H38.18C39.35 98.0499 40.43 97.6999 41.34 97.0999C41.32 97.0999 41.3 97.1099 41.28 97.1199C42.79 96.0899 43.78 94.3599 43.78 92.3999C43.78 91.5699 43.11 90.8999 42.28 90.8999H32.71L32.48 84.8399H32.58V84.7899H38.17C39.34 84.7899 40.42 84.4399 41.33 83.8399C41.31 83.8399 41.29 83.8499 41.27 83.8599C42.78 82.8299 43.77 81.0999 43.77 79.1399C43.77 78.3099 43.1 77.6399 42.27 77.6399H32.2L31.97 71.5799H32.07V71.5299H38.16C39.33 71.5299 40.41 71.1799 41.32 70.5799C41.3 70.5799 41.28 70.5899 41.26 70.5999C42.77 69.5699 43.76 67.8399 43.76 65.8799C43.76 65.0499 43.09 64.3799 42.26 64.3799H31.69L31.62 62.4999C31.5 59.2599 33.34 56.4099 36.06 55.0799C37.13 54.5399 38.35 54.2299 39.64 54.2299H70.22C70.98 54.2299 71.71 53.9499 72.28 53.4599C72.26 53.4599 72.24 53.4599 72.22 53.4699C72.38 53.3299 72.52 53.1699 72.65 52.9999C75.04 49.6899 72.68 45.9899 69.56 46.2099H0V54.2399H8.13V54.2299ZM1050.26 84.8499C1050.18 85.2299 1050.09 85.5799 1050.02 85.9499C1050.02 85.9499 1050.02 85.9899 1050.02 86.0099C1049.95 86.3599 1049.88 86.7099 1049.82 87.0699L1049.8 87.1899C1049.74 87.5299 1049.69 87.8699 1049.64 88.2099L1049.61 88.3999C1049.57 88.7099 1049.53 89.0299 1049.49 89.3599L1049.46 89.6099C1049.43 89.9199 1049.4 90.2199 1049.37 90.5299L1049.34 90.8399C1049.32 91.1399 1049.3 91.4299 1049.28 91.7299C1049.28 91.8299 1049.28 91.9199 1049.26 92.0299C1049.26 92.3099 1049.23 92.7599 1049.22 93.0399V94.5899C1049.22 95.0099 1049.22 95.4999 1049.24 95.9499V96.3399C1049.24 96.6499 1049.27 96.9899 1049.29 97.3199L1049.32 97.7299C1049.34 98.0699 1049.37 98.3999 1049.4 98.7299L1049.43 99.0399C1049.46 99.3599 1049.5 99.6899 1049.54 100.01H1045.05V87.5599C1045.05 86.5399 1044.43 85.6199 1043.48 85.2299L1042.5 84.8399H1050.27L1050.26 84.8499ZM1005.48 84.8499H1016.13L1016.11 100.03H1013.49C1013.49 99.8099 1013.49 99.5999 1013.47 99.3799V99.1999C1013.47 99.0299 1013.46 98.8599 1013.43 98.6999V98.5399C1013.41 98.3299 1013.38 98.1199 1013.35 97.9099C1013.35 97.8699 1013.33 97.8199 1013.33 97.7799C1013.3 97.6099 1013.27 97.4499 1013.24 97.2799L1013.2 97.0899C1013.16 96.9199 1013.12 96.7399 1013.08 96.5699C1013.08 96.5399 1013.08 96.5099 1013.06 96.4799C1013.01 96.2799 1012.95 96.0899 1012.89 95.8899L1012.83 95.7199C1012.78 95.5699 1012.74 95.4299 1012.69 95.2899C1012.67 95.2299 1012.65 95.1699 1012.63 95.1199C1012.56 94.9299 1012.49 94.7499 1012.41 94.5599C1012.39 94.5199 1012.38 94.4799 1012.36 94.4399L1012.16 93.9999L1012.07 93.8099C1012.01 93.6799 1011.94 93.5499 1011.87 93.4199C1011.84 93.3699 1011.82 93.3199 1011.79 93.2599C1011.7 93.0899 1011.6 92.9299 1011.51 92.7599C1011.47 92.6999 1011.43 92.6399 1011.4 92.5799C1011.33 92.4699 1011.26 92.3599 1011.18 92.2499L1011.05 92.0599C1010.97 91.9299 1010.87 91.8099 1010.79 91.6899L1010.64 91.4799L1010.37 91.1399L1010.21 90.9499C1010.13 90.8599 1010.06 90.7699 1009.98 90.6799C1009.9 90.5899 1009.87 90.5499 1009.81 90.4899C1009.69 90.3599 1009.57 90.2299 1009.44 90.0999L1009.26 89.9199L1009.02 89.6899C1008.95 89.6299 1008.88 89.5599 1008.81 89.4999C1008.74 89.4399 1008.64 89.3499 1008.56 89.2799C1008.48 89.2099 1008.36 89.1099 1008.26 89.0399L1007.95 88.7899L1007.71 88.6199L1007.46 88.4499L1007.22 88.2799L1006.91 88.0799L1006.54 87.8599L1006.28 87.7099L1006.01 87.5699L1005.75 87.4299L1005.48 87.2999V84.8399V84.8499ZM996.95 84.8499H1002.18V86.2299C1002.13 86.2299 1002.08 86.2099 1002.04 86.1999L1001.9 86.1699C1001.69 86.1299 1001.47 86.0999 1001.27 86.0699L1001.07 86.0399C1000.86 86.0199 1000.65 85.9999 1000.44 85.9799L1000.23 85.9599C999.96 85.9599 999.69 85.9299 999.42 85.9299C999.2 85.9299 998.98 85.9299 998.76 85.9499C998.62 85.9499 998.49 85.9699 998.35 85.9799L998.14 85.9999C997.96 86.0199 997.78 86.0399 997.6 86.0599H997.54C997.35 86.0899 997.15 86.1199 996.96 86.1499V84.8299L996.95 84.8499ZM992.96 84.8599V87.5299C992.86 87.5799 992.77 87.6199 992.67 87.6799C992.17 87.9199 991.68 88.1799 991.21 88.4799C990.66 88.8299 990.14 89.2199 989.64 89.6399L989.59 89.6799C989.24 89.9799 988.91 90.2899 988.6 90.6199L988.52 90.7099C988.43 90.8099 988.33 90.9099 988.24 91.0199L988.15 91.1299C987.97 91.3299 987.8 91.5499 987.63 91.7599L987.59 91.8199C987.52 91.9099 987.45 92.0099 987.38 92.1099L987.24 92.2999L987.05 92.5799C987 92.6599 986.95 92.7299 986.9 92.8099C986.81 92.9499 986.72 93.0899 986.64 93.2299C986.58 93.3199 986.53 93.4199 986.47 93.5199L986.36 93.7199L986.21 94.0299C986.16 94.1299 986.11 94.2199 986.07 94.3199C985.99 94.4899 985.91 94.6599 985.84 94.8299L985.77 95.0099C985.72 95.1399 985.66 95.2699 985.62 95.3999C985.59 95.4799 985.56 95.5499 985.54 95.6199C985.49 95.7499 985.45 95.8799 985.4 96.0199C985.38 96.0799 985.36 96.1399 985.34 96.2099C985.28 96.3999 985.23 96.5899 985.18 96.7799C985.18 96.8299 985.15 96.8899 985.14 96.9399C985.1 97.0899 985.07 97.2399 985.04 97.3899C985.04 97.4599 985.01 97.5199 985 97.5899C984.97 97.7599 984.93 97.9299 984.91 98.0999C984.91 98.1399 984.91 98.1799 984.89 98.2099C984.86 98.4199 984.83 98.6199 984.81 98.8399V99.0099C984.81 99.1699 984.78 99.3199 984.77 99.4999V100.02H980.79C979.69 100.02 978.63 100.32 977.71 100.85C976.6 101.33 975.64 102.12 974.96 103.17L965.87 117.06H953.99C953.95 116.75 953.92 116.45 953.88 116.15C953.88 116.08 953.86 116.01 953.85 115.95C953.72 114.92 953.6 113.88 953.47 112.84C953.39 112.13 953.3 111.42 953.21 110.71V110.68L953.1 109.74L953.05 109.34L952.9 108.08C952.85 107.68 952.8 107.28 952.76 106.88L952.74 106.72C952.72 106.54 952.7 106.37 952.68 106.2C952.66 106.02 952.63 105.78 952.6 105.57C952.57 105.36 952.56 105.23 952.54 105.06L952.46 104.35C952.44 104.22 952.43 104.09 952.41 103.95L952.33 103.32L952.3 103.09C952.18 102.05 952.05 101.03 951.93 100.01C951.93 99.9999 951.93 99.9799 951.93 99.9699C951.81 98.9599 951.69 97.9599 951.57 96.9699C951.57 96.8999 951.57 96.8299 951.55 96.7599C951.03 92.4699 950.55 88.4099 950.14 84.8499H992.97L992.96 84.8599ZM917.83 86.0599C918.18 85.9399 918.54 85.8199 918.93 85.7199L919.13 85.6699L919.53 85.5699L919.79 85.5099C920 85.4599 920.21 85.4199 920.44 85.3799L920.8 85.3099L921.16 85.2499L921.63 85.1799L921.96 85.1399C922.2 85.1099 922.43 85.0799 922.68 85.0599L922.99 85.0299L923.62 84.9799L923.9 84.9599L924.82 84.9099H925.05L925.85 84.8799H934.05C933.98 85.3899 933.92 85.9299 933.85 86.4899V86.5699C933.75 87.3799 933.66 88.2199 933.55 89.0799L933.52 89.3099C933.42 90.1499 933.32 91.0099 933.21 91.8899C933.21 91.9599 933.21 92.0199 933.19 92.0799L932.76 95.7199C932.76 95.8099 932.74 95.8999 932.73 95.9799C932.66 96.5699 932.59 97.1699 932.52 97.7799C932.52 97.8499 932.5 97.9199 932.49 97.9899C932.05 101.62 931.6 105.4 931.15 109.17L931.13 109.31C931.01 110.29 930.89 111.27 930.78 112.25C930.78 112.33 930.78 112.4 930.75 112.47C930.72 112.74 930.68 113.01 930.65 113.28C930.63 113.44 930.61 113.59 930.59 113.77C930.53 114.29 930.46 114.81 930.4 115.32C930.4 115.46 930.37 115.6 930.35 115.74C930.33 115.88 930.32 116.05 930.3 116.19V116.21H927.46V101.93C927.46 100.77 926.52 99.8299 925.37 99.8299C924.92 99.8299 924.49 99.9799 924.13 100.24C923.61 100.4 923.16 100.76 922.89 101.25C922.86 101.31 922.83 101.37 922.8 101.43C922.69 101.69 922.63 101.97 922.63 102.25V116.21H917.83V86.1099V86.0599ZM871.95 99.0799H896.89V114.75H871.95V99.0799ZM774.97 98.4999C775.12 98.5199 775.28 98.5399 775.43 98.5599H775.46C775.82 98.5999 776.19 98.6399 776.56 98.6799H776.66C777.01 98.7199 777.37 98.7499 777.74 98.7799L777.94 98.7999L778.97 98.8799L779.28 98.8999L780.24 98.9599L780.74 98.9799L781.59 99.0099C781.84 99.0099 782.09 99.0099 782.34 99.0299L783.01 99.0499H846.22L846.25 106.45H824.91C823.54 106.45 822.21 106.8 821.05 107.45C819.86 107.98 818.81 108.81 818 109.87L810.01 120.41H784.07V111.4C784.07 111.05 783.93 110.71 783.68 110.46C783.45 110.23 783.14 110.09 782.81 110.08C782.46 110.08 782.14 110.21 781.89 110.42C781.27 110.54 780.79 111.09 780.79 111.75C780.79 111.76 780.79 111.77 780.79 111.78V120.41H774.96V98.5099L774.97 98.4999ZM737.92 86.6899H743.56C749.91 86.6899 752.87 88.7199 756.61 91.2899L757.16 91.6699L757.3 91.7599L757.77 92.0699L757.91 92.1599C758.33 92.4399 758.75 92.7199 759.19 92.9999H759.21C759.42 93.1299 759.64 93.2699 759.86 93.3999L759.94 93.4499C760.64 93.8799 761.39 94.2999 762.2 94.7099H762.22C762.49 94.8499 762.77 94.9799 763.05 95.1199C763.91 95.5299 764.85 95.9299 765.88 96.2999C766.89 96.6699 767.98 97.0199 769.17 97.3299H769.21C769.6 97.4299 770.01 97.5299 770.42 97.6399L770.4 101.79L763.63 103.95C763.24 104.07 762.87 104.24 762.53 104.44C760.47 105.31 759.1 107.33 759.09 109.6V118.44H754.69V108.83C754.69 107.27 753.42 106 751.86 106H750.72V101.08C750.72 99.2099 749.21 97.6899 747.33 97.6899H745.3C744.96 97.6899 744.66 97.8199 744.43 98.0299C743.83 98.1399 743.37 98.6699 743.37 99.3099V118.46H737.9V86.6899H737.92ZM688.49 86.6899H733.27L733.29 118.46H730.02L727.03 114.08C726.33 113.05 725.96 111.84 725.96 110.6V105.13C725.96 103.86 724.93 102.82 723.65 102.82H723.41C723.16 102.82 722.95 102.94 722.82 103.13H722.78C722.39 103.13 722.07 103.44 722.07 103.84V112.51H699.4V106.93C699.4 105.33 698.53 103.86 697.13 103.09L688.51 98.3399V86.6899H688.49ZM641.99 110.26H655.55C656.38 110.26 657.15 110.03 657.81 109.63C659.43 108.98 660.58 107.4 660.58 105.55C660.58 104.62 659.82 103.86 658.89 103.86H641.99V98.6599H655.55C656.38 98.6599 657.15 98.4299 657.81 98.0299C659.43 97.3799 660.58 95.7999 660.58 93.9499C660.58 93.0199 659.82 92.2599 658.89 92.2599H641.99V87.0599H655.55C656.15 87.0599 656.74 86.9399 657.29 86.6999H681.14V88.4499H677.28C676.55 88.4499 675.86 88.6599 675.28 89.0199C674.13 89.4699 673.23 90.4699 672.94 91.7299L668.09 113.23C667.68 115.04 666.53 116.53 665.01 117.41C664.22 117.75 663.35 117.95 662.44 117.94H642V110.26H641.99ZM585.36 86.6999H619.58C619.36 87.4299 619.13 88.1499 618.9 88.8799C618.87 88.9899 618.83 89.0999 618.8 89.1899C618.68 89.5899 618.55 89.9899 618.43 90.3999C618.35 90.6799 618.26 90.9599 618.17 91.2299L617.92 92.0599C617.58 93.1599 617.24 94.2499 616.91 95.3299C616.91 95.3599 616.89 95.3999 616.88 95.4399L615.47 99.9899C615.43 100.13 615.39 100.27 615.34 100.41L613.95 104.88L612.17 103C611.16 101.93 609.74 101.32 608.27 101.32H593.74V91.1899C593.74 89.9199 592.71 88.8899 591.44 88.8899H585.37V86.6899L585.36 86.6999ZM548.37 98.7399V86.6999H573.23V99.0499C573.23 99.9399 572.79 100.72 572.11 101.19C571.85 101.28 571.57 101.33 571.29 101.33H550.96C549.53 101.33 548.38 100.18 548.37 98.7499V98.7399Z"
          fill="url(#paint1_linear_2666_25496)"/>
    <g opacity="0.5">
        <path opacity="0.5"
              d="M456.67 40.6499C455.69 40.6499 454.89 41.4499 454.89 42.4299C454.89 43.4099 455.69 44.2099 456.67 44.2099C457.65 44.2099 458.45 43.4099 458.45 42.4299C458.45 41.4499 457.65 40.6499 456.67 40.6499Z"
              fill="url(#paint2_linear_2666_25496)"/>
        <path opacity="0.5"
              d="M755.87 23.3198C755.49 23.3198 755.18 23.6298 755.18 24.0098C755.18 24.3898 755.49 24.6998 755.87 24.6998C756.25 24.6998 756.56 24.3898 756.56 24.0098C756.56 23.6298 756.25 23.3198 755.87 23.3198Z"
              fill="url(#paint3_linear_2666_25496)"/>
        <path opacity="0.5"
              d="M860.95 36.3101C860.95 35.9301 860.64 35.6201 860.26 35.6201C859.88 35.6201 859.57 35.9301 859.57 36.3101C859.57 36.6901 859.88 37.0001 860.26 37.0001C860.64 37.0001 860.95 36.6901 860.95 36.3101Z"
              fill="url(#paint4_linear_2666_25496)"/>
        <path opacity="0.5"
              d="M735.61 42.9199C735.23 42.9199 734.92 43.2299 734.92 43.6099C734.92 43.9899 735.23 44.2999 735.61 44.2999C735.99 44.2999 736.3 43.9899 736.3 43.6099C736.3 43.2299 735.99 42.9199 735.61 42.9199Z"
              fill="url(#paint5_linear_2666_25496)"/>
        <path opacity="0.5"
              d="M664.99 22.3101C664.52 22.3101 664.14 22.6901 664.14 23.1601C664.14 23.6301 664.52 24.0101 664.99 24.0101C665.46 24.0101 665.84 23.6301 665.84 23.1601C665.84 22.6901 665.46 22.3101 664.99 22.3101Z"
              fill="url(#paint6_linear_2666_25496)"/>
        <path opacity="0.5"
              d="M681.12 31.35C681.424 31.35 681.67 31.1038 681.67 30.8C681.67 30.4962 681.424 30.25 681.12 30.25C680.816 30.25 680.57 30.4962 680.57 30.8C680.57 31.1038 680.816 31.35 681.12 31.35Z"
              fill="url(#paint7_linear_2666_25496)"/>
        <path opacity="0.5"
              d="M468.99 141.23C468.57 141.23 468.24 141.57 468.24 141.98C468.24 142.39 468.58 142.73 468.99 142.73C469.4 142.73 469.74 142.39 469.74 141.98C469.74 141.57 469.4 141.23 468.99 141.23Z"
              fill="url(#paint8_linear_2666_25496)"/>
        <path opacity="0.5"
              d="M655.3 80.2001C655.742 80.2001 656.1 79.8419 656.1 79.4001C656.1 78.9583 655.742 78.6001 655.3 78.6001C654.858 78.6001 654.5 78.9583 654.5 79.4001C654.5 79.8419 654.858 80.2001 655.3 80.2001Z"
              fill="url(#paint9_linear_2666_25496)"/>
        <path opacity="0.5"
              d="M1021.32 42.1701C1020.92 42.3801 1020.76 42.8701 1020.96 43.2701C1021.16 43.6701 1021.66 43.8301 1022.06 43.6301C1022.46 43.4201 1022.62 42.9301 1022.42 42.5301C1022.21 42.1301 1021.72 41.9701 1021.32 42.1701Z"
              fill="url(#paint10_linear_2666_25496)"/>
        <path opacity="0.5"
              d="M817 28.6999C816.6 28.9099 816.44 29.3999 816.64 29.7999C816.84 30.1999 817.34 30.3599 817.74 30.1599C818.14 29.9499 818.3 29.4599 818.1 29.0599C817.89 28.6599 817.4 28.4999 817 28.6999Z"
              fill="url(#paint11_linear_2666_25496)"/>
        <path opacity="0.5"
              d="M860.95 52.48C861.226 52.48 861.45 52.2561 861.45 51.98C861.45 51.7038 861.226 51.48 860.95 51.48C860.674 51.48 860.45 51.7038 860.45 51.98C860.45 52.2561 860.674 52.48 860.95 52.48Z"
              fill="url(#paint12_linear_2666_25496)"/>
        <path opacity="0.5"
              d="M1035.34 21.8301C1035.62 21.8301 1035.84 21.6062 1035.84 21.3301C1035.84 21.0539 1035.62 20.8301 1035.34 20.8301C1035.06 20.8301 1034.84 21.0539 1034.84 21.3301C1034.84 21.6062 1035.06 21.8301 1035.34 21.8301Z"
              fill="url(#paint13_linear_2666_25496)"/>
        <path opacity="0.5"
              d="M1060.02 91.6499C1059.74 91.6499 1059.52 91.8799 1059.52 92.1499C1059.52 92.4199 1059.75 92.6499 1060.02 92.6499C1060.29 92.6499 1060.52 92.4199 1060.52 92.1499C1060.52 91.8799 1060.29 91.6499 1060.02 91.6499Z"
              fill="url(#paint14_linear_2666_25496)"/>
        <path opacity="0.5"
              d="M710.03 54.23C709.75 54.23 709.53 54.46 709.53 54.73C709.53 55 709.76 55.23 710.03 55.23C710.3 55.23 710.53 55 710.53 54.73C710.53 54.46 710.3 54.23 710.03 54.23Z"
              fill="url(#paint15_linear_2666_25496)"/>
        <path opacity="0.5"
              d="M978.5 140.99C978.31 141.09 978.23 141.32 978.33 141.51C978.43 141.7 978.66 141.78 978.85 141.68C979.04 141.58 979.12 141.35 979.02 141.16C978.92 140.97 978.69 140.89 978.49 140.99H978.5Z"
              fill="url(#paint16_linear_2666_25496)"/>
        <path opacity="0.5"
              d="M917.97 79.2197C917.75 79.2197 917.58 79.3897 917.58 79.6097C917.58 79.8297 917.75 79.9997 917.97 79.9997C918.19 79.9997 918.36 79.8297 918.36 79.6097C918.36 79.3897 918.19 79.2197 917.97 79.2197Z"
              fill="url(#paint17_linear_2666_25496)"/>
        <path opacity="0.5"
              d="M881.02 64.5C880.8 64.5 880.63 64.67 880.63 64.89C880.63 65.11 880.8 65.28 881.02 65.28C881.24 65.28 881.41 65.11 881.41 64.89C881.41 64.67 881.24 64.5 881.02 64.5Z"
              fill="url(#paint18_linear_2666_25496)"/>
        <path opacity="0.5"
              d="M944.11 87.9698C943.92 88.0698 943.84 88.2998 943.94 88.4998C944.04 88.6998 944.27 88.7698 944.46 88.6698C944.65 88.5698 944.73 88.3398 944.63 88.1498C944.53 87.9598 944.3 87.8798 944.11 87.9798V87.9698Z"
              fill="url(#paint19_linear_2666_25496)"/>
        <path opacity="0.5"
              d="M843.15 16.4897C842.93 16.4897 842.76 16.6597 842.76 16.8797C842.76 17.0997 842.93 17.2697 843.15 17.2697C843.37 17.2697 843.54 17.0997 843.54 16.8797C843.54 16.6597 843.37 16.4897 843.15 16.4897Z"
              fill="url(#paint20_linear_2666_25496)"/>
        <path opacity="0.5"
              d="M644.61 29.4897C644.39 29.4897 644.22 29.6597 644.22 29.8797C644.22 30.0997 644.39 30.2697 644.61 30.2697C644.83 30.2697 645 30.0997 645 29.8797C645 29.6597 644.83 29.4897 644.61 29.4897Z"
              fill="url(#paint21_linear_2666_25496)"/>
        <path opacity="0.5"
              d="M515.62 39.9797C515.835 39.9797 516.01 39.8051 516.01 39.5897C516.01 39.3743 515.835 39.1997 515.62 39.1997C515.405 39.1997 515.23 39.3743 515.23 39.5897C515.23 39.8051 515.405 39.9797 515.62 39.9797Z"
              fill="url(#paint22_linear_2666_25496)"/>
        <path opacity="0.5"
              d="M432.64 139.36C432.42 139.36 432.25 139.53 432.25 139.75C432.25 139.97 432.42 140.14 432.64 140.14C432.86 140.14 433.03 139.97 433.03 139.75C433.03 139.53 432.86 139.36 432.64 139.36Z"
              fill="url(#paint23_linear_2666_25496)"/>
        <path opacity="0.5"
              d="M609.23 126.76C609.445 126.76 609.62 126.585 609.62 126.37C609.62 126.155 609.445 125.98 609.23 125.98C609.015 125.98 608.84 126.155 608.84 126.37C608.84 126.585 609.015 126.76 609.23 126.76Z"
              fill="url(#paint24_linear_2666_25496)"/>
        <path opacity="0.5"
              d="M501.99 146.1C502.205 146.1 502.38 145.925 502.38 145.71C502.38 145.494 502.205 145.32 501.99 145.32C501.775 145.32 501.6 145.494 501.6 145.71C501.6 145.925 501.775 146.1 501.99 146.1Z"
              fill="url(#paint25_linear_2666_25496)"/>
        <path opacity="0.5"
              d="M869.06 26.5298C868.84 26.5298 868.67 26.6998 868.67 26.9198C868.67 27.1398 868.84 27.3098 869.06 27.3098C869.28 27.3098 869.45 27.1398 869.45 26.9198C869.45 26.6998 869.28 26.5298 869.06 26.5298Z"
              fill="url(#paint26_linear_2666_25496)"/>
        <path opacity="0.5"
              d="M425.2 91.6201C424.9 91.6201 424.67 91.8601 424.67 92.1501C424.67 92.4401 424.91 92.6801 425.2 92.6801C425.49 92.6801 425.73 92.4401 425.73 92.1501C425.73 91.8601 425.49 91.6201 425.2 91.6201Z"
              fill="url(#paint27_linear_2666_25496)"/>
        <path opacity="0.5"
              d="M534.65 24.0798C535.412 24.0798 536.03 23.462 536.03 22.6998C536.03 21.9377 535.412 21.3198 534.65 21.3198C533.888 21.3198 533.27 21.9377 533.27 22.6998C533.27 23.462 533.888 24.0798 534.65 24.0798Z"
              fill="url(#paint28_linear_2666_25496)"/>
        <path opacity="0.5"
              d="M631.84 66.05C632.602 66.05 633.22 65.4322 633.22 64.67C633.22 63.9079 632.602 63.29 631.84 63.29C631.078 63.29 630.46 63.9079 630.46 64.67C630.46 65.4322 631.078 66.05 631.84 66.05Z"
              fill="url(#paint29_linear_2666_25496)"/>
        <path opacity="0.5"
              d="M529.01 97.03C529.772 97.03 530.39 96.4122 530.39 95.65C530.39 94.8879 529.772 94.27 529.01 94.27C528.248 94.27 527.63 94.8879 527.63 95.65C527.63 96.4122 528.248 97.03 529.01 97.03Z"
              fill="url(#paint30_linear_2666_25496)"/>
        <path opacity="0.5"
              d="M681.67 83.0601C681.13 83.0601 680.69 83.5001 680.69 84.0401C680.69 84.5801 681.13 85.0201 681.67 85.0201C682.21 85.0201 682.65 84.5801 682.65 84.0401C682.65 83.5001 682.21 83.0601 681.67 83.0601Z"
              fill="url(#paint31_linear_2666_25496)"/>
        <path opacity="0.5"
              d="M485.64 39.5898C485.93 39.5898 486.16 39.3598 486.16 39.0698C486.16 38.7798 485.93 38.5498 485.64 38.5498C485.35 38.5498 485.12 38.7798 485.12 39.0698C485.12 39.3598 485.35 39.5898 485.64 39.5898Z"
              fill="url(#paint32_linear_2666_25496)"/>
        <path opacity="0.5"
              d="M963.94 18.52C964.227 18.52 964.46 18.2872 964.46 18C964.46 17.7128 964.227 17.48 963.94 17.48C963.653 17.48 963.42 17.7128 963.42 18C963.42 18.2872 963.653 18.52 963.94 18.52Z"
              fill="url(#paint33_linear_2666_25496)"/>
        <path opacity="0.5"
              d="M495.83 104.63C495.49 104.63 495.22 104.9 495.22 105.24C495.22 105.58 495.49 105.85 495.83 105.85C496.17 105.85 496.44 105.58 496.44 105.24C496.44 104.9 496.17 104.63 495.83 104.63Z"
              fill="url(#paint34_linear_2666_25496)"/>
        <path opacity="0.5"
              d="M433.25 65.6396C432.91 65.6396 432.64 65.9096 432.64 66.2496C432.64 66.5896 432.91 66.8596 433.25 66.8596C433.59 66.8596 433.86 66.5896 433.86 66.2496C433.86 65.9096 433.59 65.6396 433.25 65.6396Z"
              fill="url(#paint35_linear_2666_25496)"/>
        <path opacity="0.5"
              d="M490.15 128.73C489.45 128.73 488.87 129.3 488.87 130.01C488.87 130.72 489.44 131.29 490.15 131.29C490.86 131.29 491.43 130.72 491.43 130.01C491.43 129.3 490.86 128.73 490.15 128.73Z"
              fill="url(#paint36_linear_2666_25496)"/>
        <path opacity="0.5"
              d="M473.02 90.6997C472.31 90.6997 471.73 91.2797 471.73 91.9897C471.73 92.6997 472.31 93.2797 473.02 93.2797C473.73 93.2797 474.31 92.6997 474.31 91.9897C474.31 91.2797 473.73 90.6997 473.02 90.6997Z"
              fill="url(#paint37_linear_2666_25496)"/>
        <path opacity="0.5"
              d="M950.79 96.5101C950.29 96.7601 950.1 97.3701 950.35 97.8701C950.6 98.3701 951.21 98.5601 951.71 98.3101C952.21 98.0601 952.4 97.4501 952.15 96.9501C951.9 96.4501 951.29 96.2601 950.79 96.5101Z"
              fill="url(#paint38_linear_2666_25496)"/>
        <path opacity="0.5"
              d="M1008.4 25.52C1007.84 25.52 1007.39 25.97 1007.39 26.53C1007.39 27.09 1007.84 27.54 1008.4 27.54C1008.96 27.54 1009.41 27.09 1009.41 26.53C1009.41 25.97 1008.96 25.52 1008.4 25.52Z"
              fill="url(#paint39_linear_2666_25496)"/>
        <path opacity="0.5"
              d="M612.89 93.79C612.63 93.79 612.41 94 612.41 94.27C612.41 94.54 612.62 94.75 612.89 94.75C613.16 94.75 613.37 94.54 613.37 94.27C613.37 94 613.16 93.79 612.89 93.79Z"
              fill="url(#paint40_linear_2666_25496)"/>
        <path opacity="0.5"
              d="M485.91 65.5698C485.2 65.5698 484.62 66.1498 484.62 66.8598C484.62 67.5698 485.2 68.1498 485.91 68.1498C486.62 68.1498 487.2 67.5698 487.2 66.8598C487.2 66.1498 486.62 65.5698 485.91 65.5698Z"
              fill="url(#paint41_linear_2666_25496)"/>
        <path opacity="0.5"
              d="M687.25 46.7798C686.54 46.7798 685.96 47.3598 685.96 48.0698C685.96 48.7798 686.54 49.3598 687.25 49.3598C687.96 49.3598 688.54 48.7798 688.54 48.0698C688.54 47.3598 687.96 46.7798 687.25 46.7798Z"
              fill="url(#paint42_linear_2666_25496)"/>
        <path opacity="0.5"
              d="M508.88 66.9801C509.405 66.9801 509.83 66.5547 509.83 66.0301C509.83 65.5054 509.405 65.0801 508.88 65.0801C508.355 65.0801 507.93 65.5054 507.93 66.0301C507.93 66.5547 508.355 66.9801 508.88 66.9801Z"
              fill="url(#paint43_linear_2666_25496)"/>
        <path opacity="0.5"
              d="M901.54 67.4097C901.01 67.4097 900.59 67.8397 900.59 68.3597C900.59 68.8797 901.02 69.3097 901.54 69.3097C902.06 69.3097 902.49 68.8797 902.49 68.3597C902.49 67.8397 902.06 67.4097 901.54 67.4097Z"
              fill="url(#paint44_linear_2666_25496)"/>
        <path opacity="0.5"
              d="M1029.68 95.1997C1029.15 95.1997 1028.73 95.6297 1028.73 96.1497C1028.73 96.6697 1029.16 97.0997 1029.68 97.0997C1030.2 97.0997 1030.63 96.6697 1030.63 96.1497C1030.63 95.6297 1030.2 95.1997 1029.68 95.1997Z"
              fill="url(#paint45_linear_2666_25496)"/>
        <path opacity="0.5"
              d="M596.77 22.25C596.52 22.25 596.32 22.45 596.32 22.7C596.32 22.95 596.52 23.15 596.77 23.15C597.02 23.15 597.22 22.95 597.22 22.7C597.22 22.45 597.02 22.25 596.77 22.25Z"
              fill="url(#paint46_linear_2666_25496)"/>
        <path opacity="0.5"
              d="M841.34 49.23C840.83 49.23 840.42 49.64 840.42 50.15C840.42 50.66 840.83 51.07 841.34 51.07C841.85 51.07 842.26 50.66 842.26 50.15C842.26 49.64 841.85 49.23 841.34 49.23Z"
              fill="url(#paint47_linear_2666_25496)"/>
        <path opacity="0.5"
              d="M992.38 45.08C993.363 45.08 994.16 44.2831 994.16 43.3C994.16 42.317 993.363 41.52 992.38 41.52C991.397 41.52 990.6 42.317 990.6 43.3C990.6 44.2831 991.397 45.08 992.38 45.08Z"
              fill="url(#paint48_linear_2666_25496)"/>
        <path opacity="0.5"
              d="M914.26 22.0797C914.641 22.0797 914.95 21.7708 914.95 21.3897C914.95 21.0086 914.641 20.6997 914.26 20.6997C913.879 20.6997 913.57 21.0086 913.57 21.3897C913.57 21.7708 913.879 22.0797 914.26 22.0797Z"
              fill="url(#paint49_linear_2666_25496)"/>
        <path opacity="0.5"
              d="M930.56 96.1499C930.836 96.1499 931.06 95.926 931.06 95.6499C931.06 95.3738 930.836 95.1499 930.56 95.1499C930.284 95.1499 930.06 95.3738 930.06 95.6499C930.06 95.926 930.284 96.1499 930.56 96.1499Z"
              fill="url(#paint50_linear_2666_25496)"/>
        <path opacity="0.5"
              d="M952.51 14.8799C952.29 14.8799 952.12 15.0499 952.12 15.2699C952.12 15.4899 952.29 15.6599 952.51 15.6599C952.73 15.6599 952.9 15.4899 952.9 15.2699C952.9 15.0499 952.73 14.8799 952.51 14.8799Z"
              fill="url(#paint51_linear_2666_25496)"/>
        <path opacity="0.5"
              d="M883.44 80.1398C883.948 80.1398 884.36 79.7279 884.36 79.2198C884.36 78.7117 883.948 78.2998 883.44 78.2998C882.932 78.2998 882.52 78.7117 882.52 79.2198C882.52 79.7279 882.932 80.1398 883.44 80.1398Z"
              fill="url(#paint52_linear_2666_25496)"/>
        <path opacity="0.5"
              d="M695.31 65.6099C694.84 65.6099 694.45 65.9899 694.45 66.4699C694.45 66.9499 694.83 67.3299 695.31 67.3299C695.79 67.3299 696.17 66.9499 696.17 66.4699C696.17 65.9899 695.79 65.6099 695.31 65.6099Z"
              fill="url(#paint53_linear_2666_25496)"/>
        <path opacity="0.5"
              d="M715.37 23.5498C714.9 23.5498 714.51 23.9298 714.51 24.4098C714.51 24.8898 714.89 25.2698 715.37 25.2698C715.85 25.2698 716.23 24.8898 716.23 24.4098C716.23 23.9298 715.85 23.5498 715.37 23.5498Z"
              fill="url(#paint54_linear_2666_25496)"/>
        <path opacity="0.5"
              d="M1060.88 51.71C1060.45 51.52 1059.95 51.71 1059.76 52.13C1059.57 52.56 1059.76 53.06 1060.18 53.25C1060.6 53.44 1061.11 53.25 1061.3 52.83C1061.49 52.4 1061.3 51.9 1060.88 51.71Z"
              fill="url(#paint55_linear_2666_25496)"/>
        <path opacity="0.5"
              d="M1055.07 130.47C1054.79 130.35 1054.47 130.47 1054.34 130.74C1054.22 131.02 1054.34 131.34 1054.61 131.47C1054.89 131.6 1055.21 131.47 1055.34 131.2C1055.47 130.93 1055.34 130.6 1055.07 130.47Z"
              fill="url(#paint56_linear_2666_25496)"/>
        <path opacity="0.5"
              d="M1044.38 143.54C1044.1 143.42 1043.78 143.54 1043.65 143.81C1043.53 144.09 1043.65 144.41 1043.92 144.54C1044.2 144.67 1044.52 144.54 1044.65 144.27C1044.77 143.99 1044.65 143.67 1044.38 143.54Z"
              fill="url(#paint57_linear_2666_25496)"/>
        <path opacity="0.5"
              d="M1045.41 111.24C1045.16 111.13 1044.86 111.24 1044.74 111.49C1044.63 111.74 1044.74 112.04 1044.99 112.16C1045.24 112.28 1045.54 112.16 1045.66 111.91C1045.77 111.66 1045.66 111.36 1045.41 111.24Z"
              fill="url(#paint58_linear_2666_25496)"/>
        <path opacity="0.5"
              d="M1053.96 32.7897C1053.71 32.6797 1053.41 32.7897 1053.29 33.0397C1053.18 33.2897 1053.29 33.5897 1053.54 33.7097C1053.79 33.8297 1054.09 33.7097 1054.21 33.4597C1054.32 33.2097 1054.21 32.9097 1053.96 32.7897Z"
              fill="url(#paint59_linear_2666_25496)"/>
        <path opacity="0.5"
              d="M988.34 19.0701C987.91 18.8701 987.4 19.0701 987.21 19.5001C987.01 19.9301 987.21 20.4401 987.64 20.6301C988.07 20.8301 988.58 20.6301 988.77 20.2001C988.96 19.7701 988.77 19.2601 988.34 19.0701Z"
              fill="url(#paint60_linear_2666_25496)"/>
        <path opacity="0.5"
              d="M425 27.7598L421.11 27.1798L420.53 22.4698C420.5 22.1898 420.1 22.1898 420.06 22.4698L419.48 27.1798L415.8 27.7598C415.53 27.7998 415.53 28.1798 415.8 28.2198L419.48 28.7998L420.06 33.5098C420.09 33.7898 420.49 33.7898 420.53 33.5098L421.11 28.7998L425 28.2198C425.27 28.1798 425.27 27.7898 425 27.7498V27.7598Z"
              fill="url(#paint61_linear_2666_25496)"/>
        <path opacity="0.5"
              d="M890.41 33.6396L886.52 33.0596L885.94 28.3496C885.91 28.0696 885.51 28.0696 885.47 28.3496L884.89 33.0596L881.21 33.6396C880.94 33.6796 880.94 34.0596 881.21 34.1096L884.89 34.6896L885.47 39.3996C885.5 39.6796 885.9 39.6796 885.94 39.3996L886.52 34.6896L890.41 34.1096C890.68 34.0696 890.68 33.6796 890.41 33.6396Z"
              fill="url(#paint62_linear_2666_25496)"/>
        <path opacity="0.5"
              d="M638.7 85.2598L634.81 84.6798L634.23 79.9698C634.2 79.6898 633.8 79.6898 633.76 79.9698L633.18 84.6798L629.5 85.2598C629.23 85.2998 629.23 85.6798 629.5 85.7198L633.18 86.2998L633.76 91.0098C633.79 91.2898 634.19 91.2898 634.23 91.0098L634.81 86.2998L638.7 85.7198C638.97 85.6798 638.97 85.2898 638.7 85.2498V85.2598Z"
              fill="url(#paint63_linear_2666_25496)"/>
        <path opacity="0.5"
              d="M1049.8 69.9897L1045.91 69.4098L1045.33 64.6997C1045.3 64.4197 1044.9 64.4197 1044.86 64.6997L1044.28 69.4098L1040.6 69.9897C1040.33 70.0297 1040.33 70.4097 1040.6 70.4497L1044.28 71.0297L1044.86 75.7397C1044.89 76.0197 1045.29 76.0197 1045.33 75.7397L1045.91 71.0297L1049.8 70.4497C1050.07 70.4097 1050.07 70.0198 1049.8 69.9798V69.9897Z"
              fill="url(#paint64_linear_2666_25496)"/>
        <path opacity="0.5"
              d="M554.9 42.4399C554.65 42.4399 554.44 42.6499 554.44 42.8999C554.44 43.1499 554.65 43.3599 554.9 43.3599C555.15 43.3599 555.36 43.1499 555.36 42.8999C555.36 42.6499 555.15 42.4399 554.9 42.4399Z"
              fill="url(#paint65_linear_2666_25496)"/>
        <path opacity="0.5"
              d="M500.99 22.6997C500.65 22.6997 500.38 22.9697 500.38 23.3097C500.38 23.6497 500.65 23.9197 500.99 23.9197C501.33 23.9197 501.6 23.6497 501.6 23.3097C501.6 22.9697 501.33 22.6997 500.99 22.6997Z"
              fill="url(#paint66_linear_2666_25496)"/>
        <path opacity="0.5"
              d="M393.38 141.23C392.96 141.23 392.63 141.57 392.63 141.98C392.63 142.39 392.97 142.73 393.38 142.73C393.79 142.73 394.13 142.39 394.13 141.98C394.13 141.57 393.79 141.23 393.38 141.23Z"
              fill="url(#paint67_linear_2666_25496)"/>
        <path opacity="0.5"
              d="M393.7 54.05C393.92 54.05 394.09 53.88 394.09 53.66C394.09 53.44 393.92 53.27 393.7 53.27C393.48 53.27 393.31 53.44 393.31 53.66C393.31 53.88 393.48 54.05 393.7 54.05Z"
              fill="url(#paint68_linear_2666_25496)"/>
        <path opacity="0.5"
              d="M363.72 52.6201C363.43 52.6201 363.2 52.8501 363.2 53.1401C363.2 53.4301 363.43 53.6601 363.72 53.6601C364.01 53.6601 364.24 53.4301 364.24 53.1401C364.24 52.8501 364.01 52.6201 363.72 52.6201Z"
              fill="url(#paint69_linear_2666_25496)"/>
        <path opacity="0.5"
              d="M291.69 145.71C291.35 145.71 291.08 145.98 291.08 146.32C291.08 146.66 291.35 146.93 291.69 146.93C292.03 146.93 292.3 146.66 292.3 146.32C292.3 145.98 292.03 145.71 291.69 145.71Z"
              fill="url(#paint70_linear_2666_25496)"/>
        <path opacity="0.5"
              d="M368.23 142.81C367.53 142.81 366.95 143.38 366.95 144.09C366.95 144.8 367.52 145.37 368.23 145.37C368.94 145.37 369.51 144.8 369.51 144.09C369.51 143.38 368.94 142.81 368.23 142.81Z"
              fill="url(#paint71_linear_2666_25496)"/>
        <path opacity="0.5"
              d="M327.7 35.02C326.99 35.02 326.41 35.6 326.41 36.31C326.41 37.02 326.99 37.6 327.7 37.6C328.41 37.6 328.99 37.02 328.99 36.31C328.99 35.6 328.41 35.02 327.7 35.02Z"
              fill="url(#paint72_linear_2666_25496)"/>
        <path opacity="0.5"
              d="M379.07 36.7798C378.73 36.7798 378.46 37.0498 378.46 37.3898C378.46 37.7298 378.73 37.9998 379.07 37.9998C379.41 37.9998 379.68 37.7298 379.68 37.3898C379.68 37.0498 379.41 36.7798 379.07 36.7798Z"
              fill="url(#paint73_linear_2666_25496)"/>
        <path opacity="0.5"
              d="M620.1 28.3801C620.315 28.3801 620.49 28.2055 620.49 27.9901C620.49 27.7747 620.315 27.6001 620.1 27.6001C619.885 27.6001 619.71 27.7747 619.71 27.9901C619.71 28.2055 619.885 28.3801 620.1 28.3801Z"
              fill="url(#paint74_linear_2666_25496)"/>
    </g>
    <defs>
        <linearGradient id="paint0_linear_2666_25496" x1="0" y1="86.45" x2="1070.31" y2="86.45"
                        gradientUnits="userSpaceOnUse">
            <stop stop-color="#38237C"/>
            <stop offset="0.15" stop-color="#39277D"/>
            <stop offset="0.3" stop-color="#3F3383"/>
            <stop offset="0.45" stop-color="#48488C"/>
            <stop offset="0.6" stop-color="#556598"/>
            <stop offset="0.76" stop-color="#658AA9"/>
            <stop offset="0.92" stop-color="#79B8BC"/>
            <stop offset="1" stop-color="#86D4C9"/>
        </linearGradient>
        <linearGradient id="paint1_linear_2666_25496" x1="0" y1="93.0099" x2="1070.31" y2="93.0099"
                        gradientUnits="userSpaceOnUse">
            <stop stop-color="#160E3F"/>
            <stop offset="0.14" stop-color="#181143"/>
            <stop offset="0.29" stop-color="#1F1B4F"/>
            <stop offset="0.45" stop-color="#2A2D64"/>
            <stop offset="0.6" stop-color="#3A4581"/>
            <stop offset="0.76" stop-color="#4E65A6"/>
            <stop offset="0.91" stop-color="#668AD4"/>
            <stop offset="1" stop-color="#77A4F2"/>
        </linearGradient>
        <linearGradient id="paint2_linear_2666_25496" x1="1085.37" y1="-39.46" x2="257.17" y2="68.4199"
                        gradientUnits="userSpaceOnUse">
            <stop stop-color="white"/>
            <stop offset="0.57" stop-color="#86D4C9"/>
            <stop offset="0.62" stop-color="#82C9D2"/>
            <stop offset="0.75" stop-color="#7CB4E3"/>
            <stop offset="0.88" stop-color="#78A8EE"/>
            <stop offset="1" stop-color="#77A4F2"/>
        </linearGradient>
        <linearGradient id="paint3_linear_2666_25496" x1="1088" y1="-19.2602" x2="259.798" y2="88.6205"
                        gradientUnits="userSpaceOnUse">
            <stop stop-color="white"/>
            <stop offset="0.57" stop-color="#86D4C9"/>
            <stop offset="0.62" stop-color="#82C9D2"/>
            <stop offset="0.75" stop-color="#7CB4E3"/>
            <stop offset="0.88" stop-color="#78A8EE"/>
            <stop offset="1" stop-color="#77A4F2"/>
        </linearGradient>
        <linearGradient id="paint4_linear_2666_25496" x1="1091.32" y1="6.22011" x2="263.108" y2="114.101"
                        gradientUnits="userSpaceOnUse">
            <stop stop-color="white"/>
            <stop offset="0.57" stop-color="#86D4C9"/>
            <stop offset="0.62" stop-color="#82C9D2"/>
            <stop offset="0.75" stop-color="#7CB4E3"/>
            <stop offset="0.88" stop-color="#78A8EE"/>
            <stop offset="1" stop-color="#77A4F2"/>
        </linearGradient>
        <linearGradient id="paint5_linear_2666_25496" x1="1090.18" y1="-2.58012" x2="261.968" y2="105.301"
                        gradientUnits="userSpaceOnUse">
            <stop stop-color="white"/>
            <stop offset="0.57" stop-color="#86D4C9"/>
            <stop offset="0.62" stop-color="#82C9D2"/>
            <stop offset="0.75" stop-color="#7CB4E3"/>
            <stop offset="0.88" stop-color="#78A8EE"/>
            <stop offset="1" stop-color="#77A4F2"/>
        </linearGradient>
        <linearGradient id="paint6_linear_2666_25496" x1="1086.38" y1="-31.73" x2="258.167" y2="76.1515"
                        gradientUnits="userSpaceOnUse">
            <stop stop-color="white"/>
            <stop offset="0.57" stop-color="#86D4C9"/>
            <stop offset="0.62" stop-color="#82C9D2"/>
            <stop offset="0.75" stop-color="#7CB4E3"/>
            <stop offset="0.88" stop-color="#78A8EE"/>
            <stop offset="1" stop-color="#77A4F2"/>
        </linearGradient>
        <linearGradient id="paint7_linear_2666_25496" x1="1087.62" y1="-22.15" x2="259.429" y2="85.7253"
                        gradientUnits="userSpaceOnUse">
            <stop stop-color="white"/>
            <stop offset="0.57" stop-color="#86D4C9"/>
            <stop offset="0.62" stop-color="#82C9D2"/>
            <stop offset="0.75" stop-color="#7CB4E3"/>
            <stop offset="0.88" stop-color="#78A8EE"/>
            <stop offset="1" stop-color="#77A4F2"/>
        </linearGradient>
        <linearGradient id="paint8_linear_2666_25496" x1="1098.33" y1="60.01" x2="270.12" y2="167.89"
                        gradientUnits="userSpaceOnUse">
            <stop stop-color="white"/>
            <stop offset="0.57" stop-color="#86D4C9"/>
            <stop offset="0.62" stop-color="#82C9D2"/>
            <stop offset="0.75" stop-color="#7CB4E3"/>
            <stop offset="0.88" stop-color="#78A8EE"/>
            <stop offset="1" stop-color="#77A4F2"/>
        </linearGradient>
        <linearGradient id="paint9_linear_2666_25496" x1="1093.41" y1="22.3302" x2="265.216" y2="130.207"
                        gradientUnits="userSpaceOnUse">
            <stop stop-color="white"/>
            <stop offset="0.57" stop-color="#86D4C9"/>
            <stop offset="0.62" stop-color="#82C9D2"/>
            <stop offset="0.75" stop-color="#7CB4E3"/>
            <stop offset="0.88" stop-color="#78A8EE"/>
            <stop offset="1" stop-color="#77A4F2"/>
        </linearGradient>
        <linearGradient id="paint10_linear_2666_25496" x1="1094.86" y1="33.3701" x2="266.665" y2="141.246"
                        gradientUnits="userSpaceOnUse">
            <stop stop-color="white"/>
            <stop offset="0.57" stop-color="#86D4C9"/>
            <stop offset="0.62" stop-color="#82C9D2"/>
            <stop offset="0.75" stop-color="#7CB4E3"/>
            <stop offset="0.88" stop-color="#78A8EE"/>
            <stop offset="1" stop-color="#77A4F2"/>
        </linearGradient>
        <linearGradient id="paint11_linear_2666_25496" x1="1089.72" y1="-6.04011" x2="261.531" y2="101.836"
                        gradientUnits="userSpaceOnUse">
            <stop stop-color="white"/>
            <stop offset="0.57" stop-color="#86D4C9"/>
            <stop offset="0.62" stop-color="#82C9D2"/>
            <stop offset="0.75" stop-color="#7CB4E3"/>
            <stop offset="0.88" stop-color="#78A8EE"/>
            <stop offset="1" stop-color="#77A4F2"/>
        </linearGradient>
        <linearGradient id="paint12_linear_2666_25496" x1="1093.34" y1="21.71" x2="265.13" y2="129.59"
                        gradientUnits="userSpaceOnUse">
            <stop stop-color="white"/>
            <stop offset="0.57" stop-color="#86D4C9"/>
            <stop offset="0.62" stop-color="#82C9D2"/>
            <stop offset="0.75" stop-color="#7CB4E3"/>
            <stop offset="0.88" stop-color="#78A8EE"/>
            <stop offset="1" stop-color="#77A4F2"/>
        </linearGradient>
        <linearGradient id="paint13_linear_2666_25496" x1="1092.32" y1="13.9001" x2="264.12" y2="121.78"
                        gradientUnits="userSpaceOnUse">
            <stop stop-color="white"/>
            <stop offset="0.57" stop-color="#86D4C9"/>
            <stop offset="0.62" stop-color="#82C9D2"/>
            <stop offset="0.75" stop-color="#7CB4E3"/>
            <stop offset="0.88" stop-color="#78A8EE"/>
            <stop offset="1" stop-color="#77A4F2"/>
        </linearGradient>
        <linearGradient id="paint14_linear_2666_25496" x1="1101.81" y1="86.7099" x2="273.6" y2="194.59"
                        gradientUnits="userSpaceOnUse">
            <stop stop-color="white"/>
            <stop offset="0.57" stop-color="#86D4C9"/>
            <stop offset="0.62" stop-color="#82C9D2"/>
            <stop offset="0.75" stop-color="#7CB4E3"/>
            <stop offset="0.88" stop-color="#78A8EE"/>
            <stop offset="1" stop-color="#77A4F2"/>
        </linearGradient>
        <linearGradient id="paint15_linear_2666_25496" x1="1091.18" y1="5.08998" x2="262.97" y2="112.97"
                        gradientUnits="userSpaceOnUse">
            <stop stop-color="white"/>
            <stop offset="0.57" stop-color="#86D4C9"/>
            <stop offset="0.62" stop-color="#82C9D2"/>
            <stop offset="0.75" stop-color="#7CB4E3"/>
            <stop offset="0.88" stop-color="#78A8EE"/>
            <stop offset="1" stop-color="#77A4F2"/>
        </linearGradient>
        <linearGradient id="paint16_linear_2666_25496" x1="1106.75" y1="124.66" x2="278.543" y2="232.541"
                        gradientUnits="userSpaceOnUse">
            <stop stop-color="white"/>
            <stop offset="0.57" stop-color="#86D4C9"/>
            <stop offset="0.62" stop-color="#82C9D2"/>
            <stop offset="0.75" stop-color="#7CB4E3"/>
            <stop offset="0.88" stop-color="#78A8EE"/>
            <stop offset="1" stop-color="#77A4F2"/>
        </linearGradient>
        <linearGradient id="paint17_linear_2666_25496" x1="1097.82" y1="56.1797" x2="269.645" y2="164.051"
                        gradientUnits="userSpaceOnUse">
            <stop stop-color="white"/>
            <stop offset="0.57" stop-color="#86D4C9"/>
            <stop offset="0.62" stop-color="#82C9D2"/>
            <stop offset="0.75" stop-color="#7CB4E3"/>
            <stop offset="0.88" stop-color="#78A8EE"/>
            <stop offset="1" stop-color="#77A4F2"/>
        </linearGradient>
        <linearGradient id="paint18_linear_2666_25496" x1="1095.32" y1="36.98" x2="267.144" y2="144.842"
                        gradientUnits="userSpaceOnUse">
            <stop stop-color="white"/>
            <stop offset="0.57" stop-color="#86D4C9"/>
            <stop offset="0.62" stop-color="#82C9D2"/>
            <stop offset="0.75" stop-color="#7CB4E3"/>
            <stop offset="0.88" stop-color="#78A8EE"/>
            <stop offset="1" stop-color="#77A4F2"/>
        </linearGradient>
        <linearGradient id="paint19_linear_2666_25496" x1="1099.39" y1="68.1099" x2="271.172" y2="175.993"
                        gradientUnits="userSpaceOnUse">
            <stop stop-color="white"/>
            <stop offset="0.57" stop-color="#86D4C9"/>
            <stop offset="0.62" stop-color="#82C9D2"/>
            <stop offset="0.75" stop-color="#7CB4E3"/>
            <stop offset="0.88" stop-color="#78A8EE"/>
            <stop offset="1" stop-color="#77A4F2"/>
        </linearGradient>
        <linearGradient id="paint20_linear_2666_25496" x1="1088.54" y1="-15.0803" x2="260.363" y2="92.791"
                        gradientUnits="userSpaceOnUse">
            <stop stop-color="white"/>
            <stop offset="0.57" stop-color="#86D4C9"/>
            <stop offset="0.62" stop-color="#82C9D2"/>
            <stop offset="0.75" stop-color="#7CB4E3"/>
            <stop offset="0.88" stop-color="#78A8EE"/>
            <stop offset="1" stop-color="#77A4F2"/>
        </linearGradient>
        <linearGradient id="paint21_linear_2666_25496" x1="1086.92" y1="-27.7303" x2="258.676" y2="80.1576"
                        gradientUnits="userSpaceOnUse">
            <stop stop-color="white"/>
            <stop offset="0.57" stop-color="#86D4C9"/>
            <stop offset="0.62" stop-color="#82C9D2"/>
            <stop offset="0.75" stop-color="#7CB4E3"/>
            <stop offset="0.88" stop-color="#78A8EE"/>
            <stop offset="1" stop-color="#77A4F2"/>
        </linearGradient>
        <linearGradient id="paint22_linear_2666_25496" x1="1086.01" y1="-34.7002" x2="257.771" y2="73.1779"
                        gradientUnits="userSpaceOnUse">
            <stop stop-color="white"/>
            <stop offset="0.57" stop-color="#86D4C9"/>
            <stop offset="0.62" stop-color="#82C9D2"/>
            <stop offset="0.75" stop-color="#7CB4E3"/>
            <stop offset="0.88" stop-color="#78A8EE"/>
            <stop offset="1" stop-color="#77A4F2"/>
        </linearGradient>
        <linearGradient id="paint23_linear_2666_25496" x1="1097.44" y1="53.15" x2="269.23" y2="161.03"
                        gradientUnits="userSpaceOnUse">
            <stop stop-color="white"/>
            <stop offset="0.57" stop-color="#86D4C9"/>
            <stop offset="0.62" stop-color="#82C9D2"/>
            <stop offset="0.75" stop-color="#7CB4E3"/>
            <stop offset="0.88" stop-color="#78A8EE"/>
            <stop offset="1" stop-color="#77A4F2"/>
        </linearGradient>
        <linearGradient id="paint24_linear_2666_25496" x1="1098.65" y1="62.6201" x2="270.473" y2="170.492"
                        gradientUnits="userSpaceOnUse">
            <stop stop-color="white"/>
            <stop offset="0.57" stop-color="#86D4C9"/>
            <stop offset="0.62" stop-color="#82C9D2"/>
            <stop offset="0.75" stop-color="#7CB4E3"/>
            <stop offset="0.88" stop-color="#78A8EE"/>
            <stop offset="1" stop-color="#77A4F2"/>
        </linearGradient>
        <linearGradient id="paint25_linear_2666_25496" x1="1099.36" y1="67.9" x2="271.15" y2="175.78"
                        gradientUnits="userSpaceOnUse">
            <stop stop-color="white"/>
            <stop offset="0.57" stop-color="#86D4C9"/>
            <stop offset="0.62" stop-color="#82C9D2"/>
            <stop offset="0.75" stop-color="#7CB4E3"/>
            <stop offset="0.88" stop-color="#78A8EE"/>
            <stop offset="1" stop-color="#77A4F2"/>
        </linearGradient>
        <linearGradient id="paint26_linear_2666_25496" x1="1090.28" y1="-1.89017" x2="262.038" y2="105.988"
                        gradientUnits="userSpaceOnUse">
            <stop stop-color="white"/>
            <stop offset="0.57" stop-color="#86D4C9"/>
            <stop offset="0.62" stop-color="#82C9D2"/>
            <stop offset="0.75" stop-color="#7CB4E3"/>
            <stop offset="0.88" stop-color="#78A8EE"/>
            <stop offset="1" stop-color="#77A4F2"/>
        </linearGradient>
        <linearGradient id="paint27_linear_2666_25496" x1="1091.22" y1="5.41032" x2="263.01" y2="113.28"
                        gradientUnits="userSpaceOnUse">
            <stop stop-color="white"/>
            <stop offset="0.57" stop-color="#86D4C9"/>
            <stop offset="0.62" stop-color="#82C9D2"/>
            <stop offset="0.75" stop-color="#7CB4E3"/>
            <stop offset="0.88" stop-color="#78A8EE"/>
            <stop offset="1" stop-color="#77A4F2"/>
        </linearGradient>
        <linearGradient id="paint28_linear_2666_25496" x1="1084.15" y1="-48.8702" x2="255.939" y2="59.0106"
                        gradientUnits="userSpaceOnUse">
            <stop stop-color="white"/>
            <stop offset="0.57" stop-color="#86D4C9"/>
            <stop offset="0.62" stop-color="#82C9D2"/>
            <stop offset="0.75" stop-color="#7CB4E3"/>
            <stop offset="0.88" stop-color="#78A8EE"/>
            <stop offset="1" stop-color="#77A4F2"/>
        </linearGradient>
        <linearGradient id="paint29_linear_2666_25496" x1="1091.13" y1="4.83997" x2="262.946" y2="112.716"
                        gradientUnits="userSpaceOnUse">
            <stop stop-color="white"/>
            <stop offset="0.57" stop-color="#86D4C9"/>
            <stop offset="0.62" stop-color="#82C9D2"/>
            <stop offset="0.75" stop-color="#7CB4E3"/>
            <stop offset="0.88" stop-color="#78A8EE"/>
            <stop offset="1" stop-color="#77A4F2"/>
        </linearGradient>
        <linearGradient id="paint30_linear_2666_25496" x1="1093.4" y1="22.1299" x2="265.189" y2="130.011"
                        gradientUnits="userSpaceOnUse">
            <stop stop-color="white"/>
            <stop offset="0.57" stop-color="#86D4C9"/>
            <stop offset="0.62" stop-color="#82C9D2"/>
            <stop offset="0.75" stop-color="#7CB4E3"/>
            <stop offset="0.88" stop-color="#78A8EE"/>
            <stop offset="1" stop-color="#77A4F2"/>
        </linearGradient>
        <linearGradient id="paint31_linear_2666_25496" x1="1094.46" y1="30.2701" x2="266.246" y2="138.153"
                        gradientUnits="userSpaceOnUse">
            <stop stop-color="white"/>
            <stop offset="0.57" stop-color="#86D4C9"/>
            <stop offset="0.62" stop-color="#82C9D2"/>
            <stop offset="0.75" stop-color="#7CB4E3"/>
            <stop offset="0.88" stop-color="#78A8EE"/>
            <stop offset="1" stop-color="#77A4F2"/>
        </linearGradient>
        <linearGradient id="paint32_linear_2666_25496" x1="1085.43" y1="-39.0603" x2="257.218" y2="68.8214"
                        gradientUnits="userSpaceOnUse">
            <stop stop-color="white"/>
            <stop offset="0.57" stop-color="#86D4C9"/>
            <stop offset="0.62" stop-color="#82C9D2"/>
            <stop offset="0.75" stop-color="#7CB4E3"/>
            <stop offset="0.88" stop-color="#78A8EE"/>
            <stop offset="1" stop-color="#77A4F2"/>
        </linearGradient>
        <linearGradient id="paint33_linear_2666_25496" x1="1090.71" y1="1.48996" x2="262.475" y2="109.378"
                        gradientUnits="userSpaceOnUse">
            <stop stop-color="white"/>
            <stop offset="0.57" stop-color="#86D4C9"/>
            <stop offset="0.62" stop-color="#82C9D2"/>
            <stop offset="0.75" stop-color="#7CB4E3"/>
            <stop offset="0.88" stop-color="#78A8EE"/>
            <stop offset="1" stop-color="#77A4F2"/>
        </linearGradient>
        <linearGradient id="paint34_linear_2666_25496" x1="1094.07" y1="27.3198" x2="265.86" y2="135.19"
                        gradientUnits="userSpaceOnUse">
            <stop stop-color="white"/>
            <stop offset="0.57" stop-color="#86D4C9"/>
            <stop offset="0.62" stop-color="#82C9D2"/>
            <stop offset="0.75" stop-color="#7CB4E3"/>
            <stop offset="0.88" stop-color="#78A8EE"/>
            <stop offset="1" stop-color="#77A4F2"/>
        </linearGradient>
        <linearGradient id="paint35_linear_2666_25496" x1="1088.01" y1="-19.0404" x2="259.833" y2="88.8343"
                        gradientUnits="userSpaceOnUse">
            <stop stop-color="white"/>
            <stop offset="0.57" stop-color="#86D4C9"/>
            <stop offset="0.62" stop-color="#82C9D2"/>
            <stop offset="0.75" stop-color="#7CB4E3"/>
            <stop offset="0.88" stop-color="#78A8EE"/>
            <stop offset="1" stop-color="#77A4F2"/>
        </linearGradient>
        <linearGradient id="paint36_linear_2666_25496" x1="1097.15" y1="50.9501" x2="268.94" y2="158.82"
                        gradientUnits="userSpaceOnUse">
            <stop stop-color="white"/>
            <stop offset="0.57" stop-color="#86D4C9"/>
            <stop offset="0.62" stop-color="#82C9D2"/>
            <stop offset="0.75" stop-color="#7CB4E3"/>
            <stop offset="0.88" stop-color="#78A8EE"/>
            <stop offset="1" stop-color="#77A4F2"/>
        </linearGradient>
        <linearGradient id="paint37_linear_2666_25496" x1="1091.99" y1="11.3696" x2="263.791" y2="119.248"
                        gradientUnits="userSpaceOnUse">
            <stop stop-color="white"/>
            <stop offset="0.57" stop-color="#86D4C9"/>
            <stop offset="0.62" stop-color="#82C9D2"/>
            <stop offset="0.75" stop-color="#7CB4E3"/>
            <stop offset="0.88" stop-color="#78A8EE"/>
            <stop offset="1" stop-color="#77A4F2"/>
        </linearGradient>
        <linearGradient id="paint38_linear_2666_25496" x1="1097.63" y1="78.3401" x2="269.405" y2="186.225"
                        gradientUnits="userSpaceOnUse">
            <stop stop-color="white"/>
            <stop offset="0.57" stop-color="#86D4C9"/>
            <stop offset="0.62" stop-color="#82C9D2"/>
            <stop offset="0.75" stop-color="#7CB4E3"/>
            <stop offset="0.88" stop-color="#78A8EE"/>
            <stop offset="1" stop-color="#77A4F2"/>
        </linearGradient>
        <linearGradient id="paint39_linear_2666_25496" x1="1092.54" y1="15.57" x2="264.345" y2="123.446"
                        gradientUnits="userSpaceOnUse">
            <stop stop-color="white"/>
            <stop offset="0.57" stop-color="#86D4C9"/>
            <stop offset="0.62" stop-color="#82C9D2"/>
            <stop offset="0.75" stop-color="#7CB4E3"/>
            <stop offset="0.88" stop-color="#78A8EE"/>
            <stop offset="1" stop-color="#77A4F2"/>
        </linearGradient>
        <linearGradient id="paint40_linear_2666_25496" x1="1094.63" y1="31.5201" x2="266.403" y2="139.405"
                        gradientUnits="userSpaceOnUse">
            <stop stop-color="white"/>
            <stop offset="0.57" stop-color="#86D4C9"/>
            <stop offset="0.62" stop-color="#82C9D2"/>
            <stop offset="0.75" stop-color="#7CB4E3"/>
            <stop offset="0.88" stop-color="#78A8EE"/>
            <stop offset="1" stop-color="#77A4F2"/>
        </linearGradient>
        <linearGradient id="paint41_linear_2666_25496" x1="1088.99" y1="-11.6902" x2="260.779" y2="96.1911"
                        gradientUnits="userSpaceOnUse">
            <stop stop-color="white"/>
            <stop offset="0.57" stop-color="#86D4C9"/>
            <stop offset="0.62" stop-color="#82C9D2"/>
            <stop offset="0.75" stop-color="#7CB4E3"/>
            <stop offset="0.88" stop-color="#78A8EE"/>
            <stop offset="1" stop-color="#77A4F2"/>
        </linearGradient>
        <linearGradient id="paint42_linear_2666_25496" x1="1089.93" y1="-4.38025" x2="261.737" y2="103.496"
                        gradientUnits="userSpaceOnUse">
            <stop stop-color="white"/>
            <stop offset="0.57" stop-color="#86D4C9"/>
            <stop offset="0.62" stop-color="#82C9D2"/>
            <stop offset="0.75" stop-color="#7CB4E3"/>
            <stop offset="0.88" stop-color="#78A8EE"/>
            <stop offset="1" stop-color="#77A4F2"/>
        </linearGradient>
        <linearGradient id="paint43_linear_2666_25496" x1="1089.27" y1="-9.57" x2="261.061" y2="98.3092"
                        gradientUnits="userSpaceOnUse">
            <stop stop-color="white"/>
            <stop offset="0.57" stop-color="#86D4C9"/>
            <stop offset="0.62" stop-color="#82C9D2"/>
            <stop offset="0.75" stop-color="#7CB4E3"/>
            <stop offset="0.88" stop-color="#78A8EE"/>
            <stop offset="1" stop-color="#77A4F2"/>
        </linearGradient>
        <linearGradient id="paint44_linear_2666_25496" x1="1096.12" y1="43.0197" x2="267.922" y2="150.896"
                        gradientUnits="userSpaceOnUse">
            <stop stop-color="white"/>
            <stop offset="0.57" stop-color="#86D4C9"/>
            <stop offset="0.62" stop-color="#82C9D2"/>
            <stop offset="0.75" stop-color="#7CB4E3"/>
            <stop offset="0.88" stop-color="#78A8EE"/>
            <stop offset="1" stop-color="#77A4F2"/>
        </linearGradient>
        <linearGradient id="paint45_linear_2666_25496" x1="1101.81" y1="86.7597" x2="273.601" y2="194.632"
                        gradientUnits="userSpaceOnUse">
            <stop stop-color="white"/>
            <stop offset="0.57" stop-color="#86D4C9"/>
            <stop offset="0.62" stop-color="#82C9D2"/>
            <stop offset="0.75" stop-color="#7CB4E3"/>
            <stop offset="0.88" stop-color="#78A8EE"/>
            <stop offset="1" stop-color="#77A4F2"/>
        </linearGradient>
        <linearGradient id="paint46_linear_2666_25496" x1="1085.16" y1="-40.91" x2="256.993" y2="66.9514"
                        gradientUnits="userSpaceOnUse">
            <stop stop-color="white"/>
            <stop offset="0.57" stop-color="#86D4C9"/>
            <stop offset="0.62" stop-color="#82C9D2"/>
            <stop offset="0.75" stop-color="#7CB4E3"/>
            <stop offset="0.88" stop-color="#78A8EE"/>
            <stop offset="1" stop-color="#77A4F2"/>
        </linearGradient>
        <linearGradient id="paint47_linear_2666_25496" x1="1092.78" y1="17.39" x2="264.562" y2="125.273"
                        gradientUnits="userSpaceOnUse">
            <stop stop-color="white"/>
            <stop offset="0.57" stop-color="#86D4C9"/>
            <stop offset="0.62" stop-color="#82C9D2"/>
            <stop offset="0.75" stop-color="#7CB4E3"/>
            <stop offset="0.88" stop-color="#78A8EE"/>
            <stop offset="1" stop-color="#77A4F2"/>
        </linearGradient>
        <linearGradient id="paint48_linear_2666_25496" x1="1094.42" y1="30.01" x2="266.21" y2="137.89"
                        gradientUnits="userSpaceOnUse">
            <stop stop-color="white"/>
            <stop offset="0.57" stop-color="#86D4C9"/>
            <stop offset="0.62" stop-color="#82C9D2"/>
            <stop offset="0.75" stop-color="#7CB4E3"/>
            <stop offset="0.88" stop-color="#78A8EE"/>
            <stop offset="1" stop-color="#77A4F2"/>
        </linearGradient>
        <linearGradient id="paint49_linear_2666_25496" x1="1091.07" y1="-1.64026" x2="262.858" y2="106.241"
                        gradientUnits="userSpaceOnUse">
            <stop stop-color="white"/>
            <stop offset="0.57" stop-color="#86D4C9"/>
            <stop offset="0.62" stop-color="#82C9D2"/>
            <stop offset="0.75" stop-color="#7CB4E3"/>
            <stop offset="0.88" stop-color="#78A8EE"/>
            <stop offset="1" stop-color="#77A4F2"/>
        </linearGradient>
        <linearGradient id="paint50_linear_2666_25496" x1="1100.1" y1="73.5599" x2="271.89" y2="181.44"
                        gradientUnits="userSpaceOnUse">
            <stop stop-color="white"/>
            <stop offset="0.57" stop-color="#86D4C9"/>
            <stop offset="0.62" stop-color="#82C9D2"/>
            <stop offset="0.75" stop-color="#7CB4E3"/>
            <stop offset="0.88" stop-color="#78A8EE"/>
            <stop offset="1" stop-color="#77A4F2"/>
        </linearGradient>
        <linearGradient id="paint51_linear_2666_25496" x1="1090.18" y1="-2.66013" x2="261.935" y2="105.228"
                        gradientUnits="userSpaceOnUse">
            <stop stop-color="white"/>
            <stop offset="0.57" stop-color="#86D4C9"/>
            <stop offset="0.62" stop-color="#82C9D2"/>
            <stop offset="0.75" stop-color="#7CB4E3"/>
            <stop offset="0.88" stop-color="#78A8EE"/>
            <stop offset="1" stop-color="#77A4F2"/>
        </linearGradient>
        <linearGradient id="paint52_linear_2666_25496" x1="1097.2" y1="51.3699" x2="269.011" y2="159.246"
                        gradientUnits="userSpaceOnUse">
            <stop stop-color="white"/>
            <stop offset="0.57" stop-color="#86D4C9"/>
            <stop offset="0.62" stop-color="#82C9D2"/>
            <stop offset="0.75" stop-color="#7CB4E3"/>
            <stop offset="0.88" stop-color="#78A8EE"/>
            <stop offset="1" stop-color="#77A4F2"/>
        </linearGradient>
        <linearGradient id="paint53_linear_2666_25496" x1="1092.42" y1="14.7398" x2="264.227" y2="122.616"
                        gradientUnits="userSpaceOnUse">
            <stop stop-color="white"/>
            <stop offset="0.57" stop-color="#86D4C9"/>
            <stop offset="0.62" stop-color="#82C9D2"/>
            <stop offset="0.75" stop-color="#7CB4E3"/>
            <stop offset="0.88" stop-color="#78A8EE"/>
            <stop offset="1" stop-color="#77A4F2"/>
        </linearGradient>
        <linearGradient id="paint54_linear_2666_25496" x1="1087.37" y1="-24.0502" x2="259.177" y2="83.8261"
                        gradientUnits="userSpaceOnUse">
            <stop stop-color="white"/>
            <stop offset="0.57" stop-color="#86D4C9"/>
            <stop offset="0.62" stop-color="#82C9D2"/>
            <stop offset="0.75" stop-color="#7CB4E3"/>
            <stop offset="0.88" stop-color="#78A8EE"/>
            <stop offset="1" stop-color="#77A4F2"/>
        </linearGradient>
        <linearGradient id="paint55_linear_2666_25496" x1="1096.74" y1="47.76" x2="268.519" y2="155.643"
                        gradientUnits="userSpaceOnUse">
            <stop stop-color="white"/>
            <stop offset="0.57" stop-color="#86D4C9"/>
            <stop offset="0.62" stop-color="#82C9D2"/>
            <stop offset="0.75" stop-color="#7CB4E3"/>
            <stop offset="0.88" stop-color="#78A8EE"/>
            <stop offset="1" stop-color="#77A4F2"/>
        </linearGradient>
        <linearGradient id="paint56_linear_2666_25496" x1="1106.69" y1="124.22" x2="278.485" y2="232.099"
                        gradientUnits="userSpaceOnUse">
            <stop stop-color="white"/>
            <stop offset="0.57" stop-color="#86D4C9"/>
            <stop offset="0.62" stop-color="#82C9D2"/>
            <stop offset="0.75" stop-color="#7CB4E3"/>
            <stop offset="0.88" stop-color="#78A8EE"/>
            <stop offset="1" stop-color="#77A4F2"/>
        </linearGradient>
        <linearGradient id="paint57_linear_2666_25496" x1="1108.19" y1="135.69" x2="279.985" y2="243.568"
                        gradientUnits="userSpaceOnUse">
            <stop stop-color="white"/>
            <stop offset="0.57" stop-color="#86D4C9"/>
            <stop offset="0.62" stop-color="#82C9D2"/>
            <stop offset="0.75" stop-color="#7CB4E3"/>
            <stop offset="0.88" stop-color="#78A8EE"/>
            <stop offset="1" stop-color="#77A4F2"/>
        </linearGradient>
        <linearGradient id="paint58_linear_2666_25496" x1="1104.06" y1="104.03" x2="275.827" y2="211.919"
                        gradientUnits="userSpaceOnUse">
            <stop stop-color="white"/>
            <stop offset="0.57" stop-color="#86D4C9"/>
            <stop offset="0.62" stop-color="#82C9D2"/>
            <stop offset="0.75" stop-color="#7CB4E3"/>
            <stop offset="0.88" stop-color="#78A8EE"/>
            <stop offset="1" stop-color="#77A4F2"/>
        </linearGradient>
        <linearGradient id="paint59_linear_2666_25496" x1="1094.16" y1="27.9797" x2="266.009" y2="135.843"
                        gradientUnits="userSpaceOnUse">
            <stop stop-color="white"/>
            <stop offset="0.57" stop-color="#86D4C9"/>
            <stop offset="0.62" stop-color="#82C9D2"/>
            <stop offset="0.75" stop-color="#7CB4E3"/>
            <stop offset="0.88" stop-color="#78A8EE"/>
            <stop offset="1" stop-color="#77A4F2"/>
        </linearGradient>
        <linearGradient id="paint60_linear_2666_25496" x1="1091.35" y1="6.39008" x2="263.14" y2="114.27"
                        gradientUnits="userSpaceOnUse">
            <stop stop-color="white"/>
            <stop offset="0.57" stop-color="#86D4C9"/>
            <stop offset="0.62" stop-color="#82C9D2"/>
            <stop offset="0.75" stop-color="#7CB4E3"/>
            <stop offset="0.88" stop-color="#78A8EE"/>
            <stop offset="1" stop-color="#77A4F2"/>
        </linearGradient>
        <linearGradient id="paint61_linear_2666_25496" x1="1082.92" y1="-58.3102" x2="254.71" y2="49.5601"
                        gradientUnits="userSpaceOnUse">
            <stop stop-color="white"/>
            <stop offset="0.57" stop-color="#86D4C9"/>
            <stop offset="0.62" stop-color="#82C9D2"/>
            <stop offset="0.75" stop-color="#7CB4E3"/>
            <stop offset="0.88" stop-color="#78A8EE"/>
            <stop offset="1" stop-color="#77A4F2"/>
        </linearGradient>
        <linearGradient id="paint62_linear_2666_25496" x1="1091.44" y1="7.07962" x2="263.233" y2="114.959"
                        gradientUnits="userSpaceOnUse">
            <stop stop-color="white"/>
            <stop offset="0.57" stop-color="#86D4C9"/>
            <stop offset="0.62" stop-color="#82C9D2"/>
            <stop offset="0.75" stop-color="#7CB4E3"/>
            <stop offset="0.88" stop-color="#78A8EE"/>
            <stop offset="1" stop-color="#77A4F2"/>
        </linearGradient>
        <linearGradient id="paint63_linear_2666_25496" x1="1093.85" y1="25.5998" x2="265.64" y2="133.48"
                        gradientUnits="userSpaceOnUse">
            <stop stop-color="white"/>
            <stop offset="0.57" stop-color="#86D4C9"/>
            <stop offset="0.62" stop-color="#82C9D2"/>
            <stop offset="0.75" stop-color="#7CB4E3"/>
            <stop offset="0.88" stop-color="#78A8EE"/>
            <stop offset="1" stop-color="#77A4F2"/>
        </linearGradient>
        <linearGradient id="paint64_linear_2666_25496" x1="1098.75" y1="63.2297" x2="270.534" y2="171.111"
                        gradientUnits="userSpaceOnUse">
            <stop stop-color="white"/>
            <stop offset="0.57" stop-color="#86D4C9"/>
            <stop offset="0.62" stop-color="#82C9D2"/>
            <stop offset="0.75" stop-color="#7CB4E3"/>
            <stop offset="0.88" stop-color="#78A8EE"/>
            <stop offset="1" stop-color="#77A4F2"/>
        </linearGradient>
        <linearGradient id="paint65_linear_2666_25496" x1="1087.06" y1="-26.4202" x2="258.865" y2="81.4556"
                        gradientUnits="userSpaceOnUse">
            <stop stop-color="white"/>
            <stop offset="0.57" stop-color="#86D4C9"/>
            <stop offset="0.62" stop-color="#82C9D2"/>
            <stop offset="0.75" stop-color="#7CB4E3"/>
            <stop offset="0.88" stop-color="#78A8EE"/>
            <stop offset="1" stop-color="#77A4F2"/>
        </linearGradient>
        <linearGradient id="paint66_linear_2666_25496" x1="1083.66" y1="-52.5803" x2="255.46" y2="55.3"
                        gradientUnits="userSpaceOnUse">
            <stop stop-color="white"/>
            <stop offset="0.57" stop-color="#86D4C9"/>
            <stop offset="0.62" stop-color="#82C9D2"/>
            <stop offset="0.75" stop-color="#7CB4E3"/>
            <stop offset="0.88" stop-color="#78A8EE"/>
            <stop offset="1" stop-color="#77A4F2"/>
        </linearGradient>
        <linearGradient id="paint67_linear_2666_25496" x1="1097.07" y1="50.33" x2="268.86" y2="158.21"
                        gradientUnits="userSpaceOnUse">
            <stop stop-color="white"/>
            <stop offset="0.57" stop-color="#86D4C9"/>
            <stop offset="0.62" stop-color="#82C9D2"/>
            <stop offset="0.75" stop-color="#7CB4E3"/>
            <stop offset="0.88" stop-color="#78A8EE"/>
            <stop offset="1" stop-color="#77A4F2"/>
        </linearGradient>
        <linearGradient id="paint68_linear_2666_25496" x1="1085.76" y1="-36.4798" x2="257.55" y2="71.4"
                        gradientUnits="userSpaceOnUse">
            <stop stop-color="white"/>
            <stop offset="0.57" stop-color="#86D4C9"/>
            <stop offset="0.62" stop-color="#82C9D2"/>
            <stop offset="0.75" stop-color="#7CB4E3"/>
            <stop offset="0.88" stop-color="#78A8EE"/>
            <stop offset="1" stop-color="#77A4F2"/>
        </linearGradient>
        <linearGradient id="paint69_linear_2666_25496" x1="1085.18" y1="-40.83" x2="256.992" y2="67.0454"
                        gradientUnits="userSpaceOnUse">
            <stop stop-color="white"/>
            <stop offset="0.57" stop-color="#86D4C9"/>
            <stop offset="0.62" stop-color="#82C9D2"/>
            <stop offset="0.75" stop-color="#7CB4E3"/>
            <stop offset="0.88" stop-color="#78A8EE"/>
            <stop offset="1" stop-color="#77A4F2"/>
        </linearGradient>
        <linearGradient id="paint70_linear_2666_25496" x1="1095.93" y1="41.5612" x2="267.72" y2="149.443"
                        gradientUnits="userSpaceOnUse">
            <stop stop-color="white"/>
            <stop offset="0.57" stop-color="#86D4C9"/>
            <stop offset="0.62" stop-color="#82C9D2"/>
            <stop offset="0.75" stop-color="#7CB4E3"/>
            <stop offset="0.88" stop-color="#78A8EE"/>
            <stop offset="1" stop-color="#77A4F2"/>
        </linearGradient>
        <linearGradient id="paint71_linear_2666_25496" x1="1096.92" y1="49.1702" x2="268.71" y2="157.05"
                        gradientUnits="userSpaceOnUse">
            <stop stop-color="white"/>
            <stop offset="0.57" stop-color="#86D4C9"/>
            <stop offset="0.62" stop-color="#82C9D2"/>
            <stop offset="0.75" stop-color="#7CB4E3"/>
            <stop offset="0.88" stop-color="#78A8EE"/>
            <stop offset="1" stop-color="#77A4F2"/>
        </linearGradient>
        <linearGradient id="paint72_linear_2666_25496" x1="1082.44" y1="-61.9999" x2="254.23" y2="45.879"
                        gradientUnits="userSpaceOnUse">
            <stop stop-color="white"/>
            <stop offset="0.57" stop-color="#86D4C9"/>
            <stop offset="0.62" stop-color="#82C9D2"/>
            <stop offset="0.75" stop-color="#7CB4E3"/>
            <stop offset="0.88" stop-color="#78A8EE"/>
            <stop offset="1" stop-color="#77A4F2"/>
        </linearGradient>
        <linearGradient id="paint73_linear_2666_25496" x1="1083.43" y1="-54.3603" x2="255.22" y2="53.5198"
                        gradientUnits="userSpaceOnUse">
            <stop stop-color="white"/>
            <stop offset="0.57" stop-color="#86D4C9"/>
            <stop offset="0.62" stop-color="#82C9D2"/>
            <stop offset="0.75" stop-color="#7CB4E3"/>
            <stop offset="0.88" stop-color="#78A8EE"/>
            <stop offset="1" stop-color="#77A4F2"/>
        </linearGradient>
        <linearGradient id="paint74_linear_2666_25496" x1="1086.23" y1="-32.7198" x2="258.054" y2="75.1417"
                        gradientUnits="userSpaceOnUse">
            <stop stop-color="white"/>
            <stop offset="0.57" stop-color="#86D4C9"/>
            <stop offset="0.62" stop-color="#82C9D2"/>
            <stop offset="0.75" stop-color="#7CB4E3"/>
            <stop offset="0.88" stop-color="#78A8EE"/>
            <stop offset="1" stop-color="#77A4F2"/>
        </linearGradient>
    </defs>
</svg>
