<svg viewBox="0 0 553 162" fill="none" xmlns="http://www.w3.org/2000/svg">
        <path d="M35.74 148.45C25.9 152.59 16.79 157.03 8.34998 161.75H543.57C479.08 129.55 387.58 109.41 286.25 109.41C184.92 109.41 96.44 122.91 35.75 148.45H35.74Z" fill="#77A4F2"/>
        <path d="M8.36002 161.75C16.8 157.03 25.91 152.59 35.75 148.45C96.44 122.91 183.06 109.41 286.25 109.41C389.44 109.41 479.08 129.55 543.57 161.75H552.26C547.78 159.38 543.16 157.06 538.38 154.8C471 122.95 381.46 105.41 286.25 105.41C182.53 105.41 95.37 119.02 34.19 144.77C21.9 149.94 10.64 155.62 0.420044 161.75H8.35001H8.36002Z" fill="#38237C"/>
        <path d="M454.11 161.75H480.79C478.01 74.37 391.81 4 286.24 4C180.67 4 94.48 74.37 91.69 161.75H454.1H454.11Z" fill="url(#paint0_linear_2665_21926)"/>
        <path d="M91.7 161.75C94.48 74.37 180.68 4 286.25 4C391.82 4 478.01 74.37 480.8 161.75H484.8C482.03 72.16 394.02 0 286.25 0C178.48 0 90.47 72.16 87.7 161.75H91.7Z" fill="#38237C"/>
        <path d="M467.07 161.73C467.24 160.57 467.32 159.39 467.32 158.19C467.32 79.6299 386.25 15.9399 286.24 15.9399C186.23 15.9399 105.16 79.6299 105.16 158.19C105.16 159.39 105.25 160.57 105.41 161.73H467.06H467.07Z" fill="url(#paint1_linear_2665_21926)"/>
        <path d="M446.52 106.09C441.72 100.1 435.15 95.7298 427.85 93.5098C441.47 100.36 450.79 114.65 448.88 130.76C447.64 141.09 446.41 151.42 445.18 161.74H450.09L453.88 131.36C454.99 122.36 452.38 113.38 446.52 106.08V106.09Z" fill="white"/>
        <path d="M427.85 93.5199C425.47 92.7999 423 92.2999 420.5 92.0599C412.84 91.3599 405.18 90.7399 397.5 90.1699L391.91 161.76H445.17C446.4 151.43 447.64 141.1 448.87 130.78C450.77 114.67 441.45 100.37 427.84 93.5299L427.85 93.5199ZM404.91 112.78C405.09 110.68 405.96 108.81 407.27 107.36C408.6 105.17 410.94 103.64 413.65 103.3L413.95 100.05C414.05 98.9499 415.03 98.1399 416.13 98.2399C417.23 98.3399 418.04 99.3199 417.94 100.42L417.64 103.67C421.45 104.89 424.03 108.47 423.63 112.41C423.55 113.18 423.36 113.91 423.09 114.59C422.52 119.61 418.11 123.26 413.16 122.8C408.17 122.34 404.48 117.86 404.91 112.77V112.78ZM425.16 144.97C424.88 145.8 424.1 146.32 423.27 146.32C423.06 146.32 422.84 146.29 422.62 146.21C421.59 145.86 420.67 145.54 419.81 145.25C418.3 148.86 414.69 151.23 410.74 150.86C405.85 150.41 402.24 145.94 402.68 140.84C402.84 139.02 403.5 137.38 404.51 136.03C406.35 132.28 410.85 130.38 415.03 131.77C418.88 133.05 421.18 136.69 420.83 140.43C421.8 140.76 422.84 141.11 424.01 141.52C425.05 141.88 425.61 143.01 425.25 144.06C425.29 144.36 425.27 144.67 425.16 144.96V144.97ZM442.68 120.89C441.82 121.73 441.07 122.47 440.36 123.17C441.73 125.23 442.07 127.73 441.38 130.01C441.37 130.17 441.37 130.33 441.35 130.5C440.77 135.58 436.3 139.24 431.37 138.71C426.43 138.18 422.85 133.66 423.36 128.57C423.55 126.71 424.27 125.04 425.35 123.69C425.71 123.03 426.17 122.4 426.74 121.83C429.57 118.99 434.03 118.53 437.44 120.46C438.18 119.73 438.98 118.95 439.89 118.05C440.68 117.28 441.94 117.29 442.72 118.08C443.49 118.87 443.48 120.13 442.69 120.91L442.68 120.89Z" fill="#77A4F2"/>
        <path d="M151.41 92.0602C141.26 93.0402 131.77 98.1502 125.4 106.1C119.55 113.4 116.93 122.38 118.04 131.38L121.83 161.75H176.09C174.13 137.99 172.17 114.23 170.21 90.4702C163.94 90.9602 157.67 91.4802 151.41 92.0502V92.0602ZM129.76 135.13C129.52 133.03 131.1 131.12 133.28 130.87C135.47 130.62 137.43 132.14 137.66 134.24C137.89 136.34 136.31 138.24 134.14 138.49C131.97 138.74 130 137.23 129.76 135.13ZM135.46 150.31C133.3 150.55 131.36 149.05 131.12 146.95C130.88 144.85 132.44 142.94 134.61 142.7C136.78 142.46 138.72 143.97 138.95 146.08C139.18 148.18 137.62 150.08 135.46 150.32V150.31ZM167.16 120.68C165.29 120.84 163.58 120.99 161.98 121.13L164.19 145.19C164.29 146.29 163.48 147.26 162.38 147.36C162.32 147.36 162.26 147.36 162.19 147.36C161.17 147.36 160.3 146.58 160.2 145.54L158.36 125.46L157.99 121.48C154.99 121.76 152.23 122.02 149.23 122.33L151.66 146.37C151.77 147.47 150.97 148.45 149.87 148.56C149.8 148.56 149.73 148.57 149.67 148.57C148.66 148.57 147.79 147.8 147.68 146.77L145.75 127.75L145.24 122.73C143.63 122.9 141.91 123.08 140.03 123.28C139.39 123.35 138.82 122.91 138.76 122.3C138.48 119.67 138.34 118.35 138.05 115.72C137.98 115.11 138.45 114.56 139.09 114.49C140.99 114.29 142.72 114.11 144.34 113.94L143.63 106.97C143.52 105.87 144.32 104.89 145.42 104.78C146.53 104.67 147.5 105.47 147.61 106.57L148.32 113.54C151.34 113.23 154.13 112.97 157.16 112.69L156.52 105.72C156.42 104.62 157.23 103.65 158.33 103.55C159.43 103.44 160.4 104.26 160.5 105.36L161.14 112.34C162.76 112.2 164.48 112.05 166.37 111.88C167.01 111.82 167.58 112.28 167.63 112.89C167.86 115.53 167.97 116.85 168.2 119.49C168.25 120.1 167.78 120.64 167.14 120.7L167.16 120.68Z" fill="#77A4F2"/>
        <path d="M170.21 90.4702C172.17 114.23 174.13 137.99 176.09 161.75H180L174.41 90.1602C173.01 90.2702 171.61 90.3602 170.21 90.4702V90.4702Z" fill="#503EAA"/>
        <path d="M449.64 103.59C442.6 94.81 432.12 89.16 420.87 88.07C413.19 87.37 405.5 86.75 397.81 86.17L399.23 67.95C399.44 65.32 398.57 62.73 396.79 60.66C394.86 58.42 392 57.01 388.94 56.79C320.61 52.21 251.31 52.21 182.96 56.79C179.9 57.01 177.04 58.42 175.12 60.66C173.34 62.73 172.48 65.32 172.68 67.95L174.1 86.17C166.4 86.75 158.71 87.37 151.03 88.07C139.8 89.15 129.32 94.81 122.27 103.59C115.74 111.74 112.82 121.78 114.07 131.87L117.8 161.75H121.83L118.04 131.38C116.93 122.37 119.54 113.39 125.4 106.1C131.77 98.16 141.26 93.04 151.41 92.06C157.67 91.49 163.94 90.97 170.21 90.48C171.61 90.37 173.01 90.27 174.41 90.17L180 161.76H184.01L176.66 67.66C176.61 67.03 176.67 66.4 176.83 65.8C177.06 64.9 177.5 64.04 178.15 63.3C179.39 61.86 181.25 60.95 183.24 60.81C217.32 58.53 251.64 57.38 285.95 57.38C320.26 57.38 354.58 58.52 388.66 60.81C390.66 60.95 392.52 61.86 393.76 63.3C394.84 64.55 395.36 66.1 395.24 67.67L387.89 161.77H391.9L397.49 90.18C405.16 90.76 412.83 91.38 420.49 92.07C422.99 92.31 425.45 92.81 427.84 93.53C435.14 95.74 441.71 100.12 446.51 106.11C452.36 113.41 454.98 122.39 453.87 131.39L450.08 161.77H454.11L457.84 131.88C459.08 121.79 456.17 111.75 449.63 103.6L449.64 103.59Z" fill="#38237C"/>
        <path d="M385.99 65.1001C317.54 60.6201 249.2 60.7601 180.8 65.5101C183.16 97.5901 185.53 129.67 187.89 161.75H383.49C385.62 132.86 388.29 97.9701 390.36 69.7601C390.54 67.3701 388.58 65.2801 385.99 65.1001V65.1001ZM193.16 124.29C193.09 123.31 193.37 122.39 193.87 121.64C194.38 120.22 195.74 119.16 197.39 119.06C199.59 118.92 201.49 120.52 201.62 122.63C201.66 123.32 201.5 123.98 201.2 124.56C200.96 126.52 199.43 128.08 197.47 128.21C195.25 128.35 193.32 126.6 193.17 124.29H193.16ZM226.01 139.61C224.29 139.68 222.56 139.78 220.83 139.86C220.89 141.08 220.95 142.36 221.03 143.95C221.06 144.56 220.58 145.08 219.95 145.11C217.09 145.25 215.66 145.32 212.79 145.48C212.16 145.51 211.63 145.05 211.6 144.43C211.51 142.83 211.44 141.54 211.37 140.32C206.49 140.59 201.62 140.89 196.78 141.21C196.73 141.21 196.69 141.21 196.64 141.21C195.6 141.21 194.72 140.4 194.65 139.34C194.58 138.24 195.41 137.28 196.51 137.21C201.37 136.88 206.26 136.59 211.15 136.32C211.11 135.66 211.08 134.97 211.03 134.19C211 133.58 211.48 133.05 212.11 133.02C214.41 132.9 215.8 132.82 217.73 132.73C217.87 132.73 218.02 132.72 218.17 132.71C218.24 132.71 218.32 132.71 218.39 132.7C218.68 132.69 218.99 132.67 219.32 132.65C219.95 132.62 220.49 133.09 220.52 133.7C220.56 134.49 220.59 135.19 220.62 135.86C222.35 135.78 224.09 135.68 225.81 135.6C226.9 135.53 227.85 136.41 227.89 137.51C227.94 138.61 227.08 139.55 225.98 139.59L226.01 139.61ZM206.41 123.45C206.37 122.72 206.53 122.03 206.81 121.41C207.14 119.71 208.63 118.37 210.51 118.27C212.72 118.15 214.59 119.77 214.7 121.88C214.73 122.41 214.64 122.93 214.46 123.4C214.38 125.53 212.76 127.29 210.67 127.41C208.45 127.53 206.54 125.76 206.4 123.45H206.41ZM227.74 122.38C227.84 124.7 226.12 126.65 223.89 126.75C221.67 126.85 219.78 125.06 219.66 122.75C219.64 122.27 219.71 121.81 219.83 121.37C219.87 119.37 221.51 117.71 223.63 117.61C225.84 117.51 227.7 119.15 227.79 121.26C227.8 121.57 227.77 121.87 227.71 122.16C227.71 122.23 227.74 122.3 227.74 122.37V122.38ZM229.51 93.6601C228.57 104.04 220.43 112.48 209.94 113.2C198.28 114 188.16 104.96 187.34 93.0201C186.99 87.9701 188.38 83.2201 190.95 79.3501C191.73 77.7901 192.69 76.3101 193.86 74.9601C197.49 70.7901 202.53 68.2901 208.04 67.9101C213.55 67.5301 218.88 69.3201 223.05 72.9501C227.22 76.5801 229.72 81.6201 230.1 87.1301C230.25 89.3501 230.04 91.5401 229.5 93.6501L229.51 93.6601ZM275.85 150.64C275.32 152.28 273.88 153.47 272.16 153.49C269.98 153.51 268.19 151.66 268.16 149.34C268.14 148 268.73 146.81 269.65 146.03C270.34 145.03 271.51 144.36 272.84 144.34C275 144.32 276.77 146.02 276.78 148.14C276.78 149.1 276.42 149.96 275.84 150.64H275.85ZM288.93 150.28C288.48 152.08 286.95 153.42 285.12 153.42C282.94 153.42 281.17 151.55 281.16 149.23C281.16 148.07 281.6 147.02 282.31 146.26C282.98 145.09 284.24 144.28 285.71 144.28C287.87 144.28 289.62 146 289.62 148.12C289.62 148.92 289.36 149.67 288.93 150.28V150.28ZM302.01 149.9C301.72 151.93 300.07 153.49 298.08 153.47C295.9 153.45 294.15 151.56 294.16 149.24C294.16 148.35 294.44 147.53 294.89 146.85C295.44 145.37 296.88 144.31 298.58 144.33C300.74 144.35 302.48 146.09 302.45 148.21C302.45 148.82 302.28 149.39 302.01 149.9V149.9ZM331.54 126.56C331.31 133.44 325.38 138.83 318.32 138.66C296.73 138.24 275.18 138.24 253.59 138.66C246.53 138.83 240.6 133.43 240.37 126.56C239.85 110.89 239.32 95.2201 238.8 79.5401C238.57 72.6601 244.43 66.8601 251.87 66.6801C274.6 66.2401 297.3 66.2401 320.04 66.6801C327.47 66.8601 333.33 72.6601 333.11 79.5401L331.54 126.55V126.56ZM351.98 122.71C351.91 124.17 351.86 125.14 351.79 126.75C351.76 127.4 351.73 128.1 351.69 128.92C351.66 129.53 351.12 130 350.49 129.97C349.66 129.93 348.93 129.9 348.24 129.86L347.61 144.08C347.56 145.15 346.68 145.99 345.61 145.99C345.58 145.99 345.55 145.99 345.52 145.99C344.42 145.94 343.56 145.01 343.61 143.9L344.24 129.67C342.95 129.62 341.59 129.56 339.89 129.49C339.26 129.47 338.76 128.95 338.79 128.34C338.9 125.54 338.95 124.14 339.06 121.34C339.08 120.73 339.62 120.25 340.26 120.28C341.98 120.35 343.35 120.4 344.65 120.46L344.87 115.42C344.92 114.32 345.83 113.46 346.96 113.51C348.06 113.56 348.92 114.49 348.87 115.6L348.65 120.64C348.78 120.64 348.91 120.65 349.04 120.66C349.23 120.66 349.42 120.68 349.62 120.69C350.03 120.71 350.46 120.73 350.93 120.75C351.57 120.78 352.06 121.3 352.03 121.91C352.02 122.19 352 122.45 351.99 122.7L351.98 122.71ZM366.1 138.08C366.06 138.83 366.01 139.63 365.95 140.61C365.91 141.22 365.38 141.69 364.75 141.65C363.94 141.6 363.22 141.56 362.53 141.52L362.35 144.85C362.29 145.91 361.41 146.74 360.35 146.74C360.31 146.74 360.28 146.74 360.24 146.74C359.14 146.68 358.29 145.74 358.35 144.63L358.53 141.3C357.25 141.23 355.91 141.16 354.23 141.08C353.6 141.05 353.12 140.53 353.15 139.91C353.29 137.11 353.36 135.71 353.5 132.91C353.53 132.3 354.07 131.83 354.7 131.86C356.4 131.95 357.75 132.02 359.04 132.08L359.92 116.15C359.98 115.05 360.92 114.2 362.03 114.26C363.13 114.32 363.98 115.26 363.92 116.37L363.04 132.3C363.14 132.3 363.25 132.31 363.35 132.32C363.55 132.33 363.75 132.34 363.95 132.35C364.37 132.37 364.8 132.4 365.28 132.43C365.91 132.47 366.4 132.99 366.36 133.61C366.25 135.42 366.19 136.42 366.1 138.08V138.08ZM381.56 129.79L381.52 130.42C381.46 131.21 381.41 131.99 381.34 133.04C381.3 133.64 381.25 134.29 381.2 135.04C381.16 135.65 380.61 136.11 379.98 136.07C379.16 136.01 378.44 135.96 377.74 135.92L377.09 145.77C377.02 146.83 376.14 147.64 375.1 147.64C375.06 147.64 375.01 147.64 374.97 147.64C373.87 147.57 373.03 146.61 373.11 145.51L373.76 135.65C372.48 135.57 371.13 135.48 369.43 135.38C368.8 135.34 368.32 134.81 368.35 134.2C368.52 131.4 368.6 130 368.77 127.21C368.81 126.6 369.35 126.13 369.99 126.17C371.7 126.27 373.06 126.36 374.36 126.44L374.98 117.05C375.05 115.95 376.01 115.11 377.11 115.19C378.21 115.26 379.05 116.22 378.97 117.32L378.35 126.71C378.53 126.72 378.73 126.74 378.93 126.75C379.01 126.75 379.09 126.76 379.17 126.77C379.62 126.8 380.1 126.83 380.62 126.87C381.26 126.91 381.74 127.45 381.69 128.06C381.64 128.73 381.6 129.28 381.57 129.8L381.56 129.79ZM383.49 89.9901L383.38 91.9901H383.28C383.07 93.3701 382.72 94.7001 382.25 95.9801C380.14 106.31 370.92 113.81 360.33 113.22C348.66 112.57 339.74 102.35 340.41 90.4001C340.7 85.2301 342.74 80.5801 345.9 77.0301C349.87 71.3601 356.59 67.7801 364 68.1901C374.72 68.7901 383.09 77.4901 383.51 88.0001H383.61L383.5 90.0001L383.49 89.9901Z" fill="#C0DBFF"/>
        <path d="M176.84 65.78C176.68 66.39 176.62 67.01 176.67 67.64L184.02 161.74H187.89C185.53 129.66 183.16 97.58 180.8 65.5C179.48 65.59 178.16 65.68 176.84 65.77V65.78Z" fill="#77A4F2"/>
        <path d="M268.98 148.22C268.97 147.41 269.22 146.65 269.65 146.03C268.73 146.81 268.14 148 268.16 149.34C268.19 151.66 269.98 153.51 272.16 153.49C273.88 153.47 275.32 152.28 275.85 150.64C275.14 151.46 274.1 152 272.92 152.01C270.77 152.03 269 150.34 268.98 148.22V148.22Z" fill="#77A4F2"/>
        <path d="M285.71 151.95C283.56 151.95 281.81 150.24 281.8 148.12C281.8 147.44 281.99 146.81 282.31 146.26C281.59 147.02 281.15 148.07 281.16 149.23C281.16 151.55 282.94 153.42 285.12 153.42C286.95 153.42 288.48 152.08 288.93 150.28C288.23 151.29 287.05 151.95 285.71 151.95V151.95Z" fill="#77A4F2"/>
        <path d="M298.51 152.01C296.36 151.99 294.63 150.26 294.64 148.15C294.64 147.7 294.74 147.27 294.89 146.87C294.44 147.55 294.17 148.37 294.16 149.26C294.15 151.58 295.9 153.47 298.08 153.49C300.07 153.51 301.72 151.96 302.01 149.92C301.36 151.17 300.04 152.03 298.51 152.02V152.01Z" fill="#77A4F2"/>
        <path d="M201.2 124.56C200.59 125.75 199.36 126.61 197.89 126.71C195.7 126.85 193.81 125.26 193.66 123.15C193.62 122.62 193.7 122.12 193.87 121.65C193.37 122.4 193.09 123.32 193.16 124.3C193.32 126.61 195.24 128.36 197.46 128.22C199.42 128.09 200.96 126.53 201.19 124.57L201.2 124.56Z" fill="#77A4F2"/>
        <path d="M214.46 123.41C213.92 124.81 212.57 125.84 210.93 125.93C208.74 126.05 206.86 124.44 206.74 122.33C206.72 122.02 206.75 121.71 206.81 121.42C206.52 122.04 206.37 122.73 206.41 123.46C206.54 125.77 208.45 127.54 210.68 127.42C212.77 127.3 214.38 125.55 214.47 123.41H214.46Z" fill="#77A4F2"/>
        <path d="M223.98 125.28C221.79 125.38 219.93 123.75 219.82 121.64C219.82 121.55 219.83 121.47 219.83 121.38C219.71 121.82 219.63 122.28 219.66 122.76C219.77 125.07 221.66 126.86 223.89 126.76C226.11 126.66 227.83 124.71 227.74 122.39C227.74 122.32 227.72 122.25 227.71 122.18C227.36 123.88 225.85 125.2 223.98 125.28V125.28Z" fill="#77A4F2"/>
        <path d="M197.89 126.71C199.36 126.62 200.59 125.75 201.2 124.56C201.5 123.98 201.67 123.32 201.62 122.63C201.49 120.52 199.6 118.91 197.39 119.06C195.73 119.17 194.38 120.23 193.87 121.64C193.7 122.11 193.62 122.62 193.66 123.14C193.8 125.25 195.69 126.84 197.89 126.7V126.71Z" fill="#38237C"/>
        <path d="M210.93 125.93C212.57 125.84 213.92 124.81 214.46 123.41C214.64 122.94 214.73 122.42 214.7 121.89C214.59 119.78 212.71 118.15 210.51 118.28C208.63 118.38 207.14 119.72 206.81 121.42C206.75 121.72 206.72 122.02 206.74 122.33C206.86 124.44 208.74 126.05 210.93 125.93V125.93Z" fill="#38237C"/>
        <path d="M223.64 117.62C221.53 117.72 219.89 119.38 219.84 121.38C219.84 121.47 219.82 121.55 219.83 121.64C219.93 123.75 221.79 125.38 223.99 125.28C225.86 125.2 227.37 123.87 227.72 122.18C227.78 121.89 227.82 121.59 227.8 121.28C227.71 119.17 225.85 117.53 223.64 117.63V117.62Z" fill="#38237C"/>
        <path d="M272.84 144.35C271.51 144.36 270.34 145.03 269.65 146.04C269.22 146.66 268.97 147.42 268.98 148.23C269.01 150.35 270.77 152.04 272.92 152.02C274.1 152.01 275.14 151.47 275.85 150.65C276.43 149.97 276.8 149.11 276.79 148.15C276.78 146.03 275.01 144.33 272.85 144.35H272.84Z" fill="#38237C"/>
        <path d="M285.71 144.28C284.24 144.28 282.98 145.08 282.31 146.26C282 146.81 281.8 147.44 281.8 148.12C281.8 150.24 283.56 151.95 285.71 151.95C287.04 151.95 288.22 151.29 288.93 150.28C289.36 149.66 289.62 148.92 289.62 148.12C289.62 146 287.88 144.28 285.71 144.28V144.28Z" fill="#38237C"/>
        <path d="M298.58 144.34C296.88 144.32 295.44 145.38 294.89 146.86C294.74 147.26 294.64 147.69 294.64 148.14C294.63 150.26 296.36 151.98 298.51 152C300.04 152.01 301.36 151.15 302.01 149.9C302.28 149.39 302.44 148.82 302.45 148.21C302.48 146.09 300.74 144.36 298.58 144.33V144.34Z" fill="#38237C"/>
        <path d="M319.94 70.7001C297.27 70.2601 274.63 70.2601 251.97 70.7001C246.92 70.8201 242.95 74.7401 243.09 79.4201C243.56 95.0901 244.04 110.77 244.52 126.44C244.66 131.12 248.68 134.79 253.5 134.68C275.15 134.26 296.77 134.26 318.42 134.68C323.24 134.79 327.26 131.12 327.4 126.44C327.88 110.77 328.35 95.0901 328.83 79.4201C328.97 74.7401 325 70.8201 319.95 70.7001H319.94ZM266.46 81.7301C266.46 81.2301 266.87 80.8201 267.37 80.8201H268.78C269.05 80.8201 269.31 80.9001 269.52 81.0601L285.13 92.3101C285.45 92.5401 285.88 92.5401 286.19 92.3101L301.8 81.0601C302.02 80.9001 302.28 80.8201 302.54 80.8201H303.95C304.45 80.8201 304.86 81.2301 304.86 81.7301V112.61C304.86 113.17 304.41 113.62 303.85 113.62H298.83C298.27 113.62 297.82 113.17 297.82 112.61V93.8901C297.82 93.4001 297.26 93.1201 296.87 93.4201L286.28 101.47C285.92 101.75 285.41 101.75 285.05 101.47L274.46 93.4201C274.07 93.1201 273.51 93.4001 273.51 93.8901V112.61C273.51 113.17 273.06 113.62 272.5 113.62H267.48C266.92 113.62 266.47 113.17 266.47 112.61V81.7301H266.46ZM294.36 101.06V105.85C294.36 106.26 294.18 106.64 293.86 106.9L286.55 112.89C286.03 113.31 285.29 113.31 284.77 112.89L277.46 106.9C277.15 106.64 276.96 106.26 276.96 105.85V101.06C276.96 100.59 277.51 100.33 277.88 100.63L285.05 106.5C285.41 106.79 285.92 106.79 286.28 106.5L293.45 100.63C293.82 100.33 294.37 100.59 294.37 101.06H294.36ZM304.86 123.47C304.86 123.88 304.53 124.22 304.11 124.22H267.2C266.79 124.22 266.45 123.89 266.45 123.47V117.92C266.45 117.51 266.78 117.17 267.2 117.17H304.11C304.52 117.17 304.86 117.5 304.86 117.92V123.47Z" fill="#503EAA"/>
        <path d="M320.04 66.7001C297.31 66.2601 274.61 66.2601 251.87 66.7001C244.44 66.8801 238.57 72.6801 238.8 79.5601C239.32 95.2301 239.85 110.9 240.37 126.58C240.6 133.46 246.53 138.85 253.59 138.68C275.18 138.26 296.73 138.26 318.32 138.68C325.38 138.85 331.31 133.45 331.54 126.58L333.11 79.5701C333.34 72.6901 327.48 66.8901 320.04 66.7101V66.7001ZM327.4 126.44C327.26 131.12 323.24 134.79 318.42 134.68C296.77 134.26 275.15 134.26 253.5 134.68C248.68 134.79 244.66 131.12 244.52 126.44C244.04 110.77 243.57 95.0901 243.09 79.4201C242.95 74.7401 246.92 70.8201 251.97 70.7001C274.64 70.2601 297.27 70.2601 319.94 70.7001C324.98 70.8201 328.96 74.7401 328.82 79.4201C328.34 95.0901 327.87 110.77 327.39 126.44H327.4Z" fill="#38237C"/>
        <path d="M393.76 63.2799C392.52 61.8399 390.66 60.9299 388.66 60.7899C354.59 58.5099 320.27 57.3599 285.95 57.3599C251.63 57.3599 217.31 58.4999 183.24 60.7899C181.25 60.9299 179.39 61.8399 178.15 63.2799C177.51 64.0299 177.06 64.8799 176.83 65.7799C178.15 65.6799 179.47 65.5999 180.79 65.5099C249.19 60.7599 317.53 60.6199 385.98 65.0999C388.57 65.2799 390.53 67.3699 390.35 69.7599C388.28 97.9699 385.61 132.87 383.48 161.75H387.89L395.24 67.6499C395.36 66.0899 394.84 64.5299 393.76 63.2799V63.2799Z" fill="white"/>
        <path d="M134.13 138.49C136.31 138.25 137.88 136.35 137.65 134.24C137.42 132.14 135.46 130.62 133.27 130.87C131.08 131.12 129.5 133.02 129.75 135.13C129.99 137.23 131.95 138.73 134.13 138.49Z" fill="#86D4C9"/>
        <path d="M134.6 142.69C132.43 142.93 130.87 144.84 131.11 146.94C131.35 149.04 133.3 150.55 135.45 150.3C137.61 150.06 139.17 148.16 138.94 146.06C138.71 143.96 136.77 142.44 134.6 142.68V142.69Z" fill="#503EAA"/>
        <path d="M413.16 122.81C418.11 123.27 422.53 119.62 423.09 114.6C421.73 118.01 418.11 120.26 414.12 119.88C409.32 119.43 405.75 115.37 406.15 110.78C406.26 109.53 406.66 108.38 407.28 107.36C405.97 108.81 405.1 110.68 404.92 112.78C404.48 117.87 408.17 122.35 413.17 122.81H413.16Z" fill="#503EAA"/>
        <path d="M427.08 133.6C424.21 130.95 423.6 126.87 425.35 123.66C424.27 125.01 423.55 126.69 423.36 128.54C422.85 133.63 426.44 138.15 431.37 138.68C436.31 139.21 440.77 135.55 441.35 130.47C441.37 130.31 441.37 130.15 441.38 129.98C441 131.23 440.31 132.42 439.3 133.42C435.98 136.71 430.53 136.79 427.06 133.59L427.08 133.6Z" fill="#503EAA"/>
        <path d="M423.36 145.41C423.15 145.41 422.93 145.38 422.71 145.3C421.52 144.89 420.47 144.53 419.49 144.2C417.41 147.35 413.33 148.83 409.53 147.56C405.05 146.07 402.61 141.35 404.1 136.98C404.21 136.65 404.35 136.33 404.5 136.03C403.5 137.38 402.83 139.02 402.67 140.84C402.23 145.93 405.84 150.4 410.73 150.86C414.68 151.23 418.3 148.86 419.8 145.25C420.66 145.54 421.58 145.86 422.61 146.21C422.82 146.28 423.04 146.32 423.26 146.32C424.09 146.32 424.87 145.8 425.15 144.97C425.25 144.67 425.27 144.37 425.24 144.08C424.95 144.9 424.18 145.42 423.35 145.42L423.36 145.41Z" fill="#503EAA"/>
        <path d="M414.11 119.88C418.11 120.25 421.72 118 423.08 114.6C423.35 113.91 423.55 113.19 423.62 112.42C424.01 108.48 421.44 104.9 417.63 103.68L417.93 100.43C418.03 99.3301 417.22 98.3601 416.12 98.2501C415.02 98.1501 414.05 98.9501 413.94 100.06L413.64 103.31C410.93 103.65 408.58 105.18 407.26 107.37C406.64 108.39 406.24 109.54 406.13 110.79C405.73 115.38 409.3 119.44 414.1 119.89L414.11 119.88ZM415.24 107.76C417.46 107.97 419.1 109.85 418.9 111.96C418.7 114.07 416.74 115.6 414.53 115.4C412.32 115.19 410.68 113.32 410.87 111.21C411.06 109.1 413.02 107.56 415.24 107.76Z" fill="#38237C"/>
        <path d="M439.88 118.03C438.97 118.92 438.17 119.71 437.43 120.44C434.02 118.5 429.56 118.97 426.73 121.81C426.16 122.38 425.71 123.01 425.34 123.67C423.58 126.88 424.19 130.96 427.07 133.61C430.54 136.81 435.99 136.73 439.31 133.44C440.32 132.44 441.01 131.26 441.39 130C442.08 127.73 441.74 125.22 440.37 123.16C441.08 122.46 441.83 121.73 442.69 120.88C443.48 120.11 443.49 118.84 442.72 118.05C441.95 117.26 440.68 117.25 439.89 118.02L439.88 118.03ZM437.04 128.02C436.81 130.12 434.85 131.63 432.66 131.4C430.47 131.16 428.88 129.27 429.1 127.17C429.32 125.06 431.28 123.54 433.48 123.78C435.68 124.02 437.27 125.92 437.04 128.02Z" fill="#38237C"/>
        <path d="M424.01 141.52C422.83 141.12 421.8 140.76 420.83 140.43C421.17 136.69 418.88 133.05 415.03 131.77C410.85 130.38 406.35 132.28 404.51 136.03C404.36 136.34 404.22 136.65 404.11 136.98C402.62 141.35 405.06 146.07 409.54 147.56C413.35 148.82 417.42 147.34 419.5 144.2C420.48 144.53 421.53 144.89 422.72 145.3C422.93 145.37 423.15 145.41 423.37 145.41C424.2 145.41 424.97 144.89 425.26 144.07C425.62 143.01 425.06 141.88 424.02 141.52H424.01ZM411.91 143.49C409.74 143.29 408.14 141.42 408.33 139.31C408.52 137.2 410.44 135.65 412.62 135.85C414.8 136.05 416.4 137.93 416.2 140.04C416 142.15 414.08 143.69 411.91 143.48V143.49Z" fill="#38237C"/>
        <path d="M414.53 115.39C416.74 115.6 418.7 114.06 418.9 111.95C419.1 109.84 417.46 107.96 415.24 107.75C413.02 107.54 411.06 109.09 410.87 111.2C410.68 113.31 412.32 115.18 414.53 115.39Z" fill="#77A4F2"/>
        <path d="M433.48 123.77C431.28 123.53 429.32 125.05 429.1 127.16C428.88 129.27 430.47 131.16 432.66 131.39C434.85 131.63 436.81 130.12 437.04 128.01C437.27 125.91 435.68 124 433.48 123.77Z" fill="#FF8486"/>
        <path d="M412.62 135.85C410.44 135.65 408.52 137.2 408.33 139.31C408.14 141.42 409.74 143.29 411.91 143.49C414.08 143.69 416 142.15 416.2 140.05C416.4 137.94 414.8 136.06 412.62 135.86V135.85Z" fill="#86D4C9"/>
        <path d="M350.58 127.99C349.74 127.95 349.01 127.92 348.32 127.88L348.23 129.88C348.93 129.91 349.66 129.95 350.48 129.99C351.11 130.02 351.65 129.55 351.68 128.94C351.72 128.12 351.75 127.42 351.78 126.77V126.94C351.74 127.55 351.2 128.02 350.57 127.99H350.58Z" fill="#77A4F2"/>
        <path d="M342.03 127.61C341.4 127.58 340.9 127.07 340.93 126.45C341.01 124.45 341.05 123.45 341.13 121.45C341.15 120.84 341.69 120.36 342.33 120.39C343.19 120.43 343.94 120.46 344.64 120.49C343.34 120.43 341.97 120.38 340.25 120.31C339.61 120.28 339.08 120.76 339.05 121.37C338.94 124.17 338.89 125.57 338.78 128.37C338.76 128.98 339.25 129.5 339.88 129.52C341.58 129.59 342.94 129.64 344.23 129.7L344.32 127.7C343.63 127.67 342.88 127.64 342.03 127.6V127.61Z" fill="#77A4F2"/>
        <path d="M344.32 127.71L344.23 129.71L343.6 143.94C343.55 145.04 344.41 145.98 345.51 146.03C345.54 146.03 345.57 146.03 345.6 146.03C346.66 146.03 347.55 145.19 347.6 144.12L348.23 129.9L348.32 127.9C346.91 127.84 345.73 127.78 344.32 127.72V127.71Z" fill="#38237C"/>
        <path d="M348.64 120.66L348.86 115.62C348.91 114.52 348.05 113.58 346.95 113.53C345.83 113.48 344.91 114.34 344.86 115.44L344.64 120.48C346.04 120.54 347.23 120.59 348.64 120.66Z" fill="#38237C"/>
        <path d="M350.92 120.77C350.45 120.75 350.02 120.73 349.61 120.71C349.41 120.71 349.22 120.69 349.03 120.68C348.9 120.68 348.76 120.67 348.64 120.66C347.23 120.6 346.05 120.54 344.64 120.48C343.94 120.45 343.19 120.42 342.33 120.38C341.69 120.35 341.16 120.83 341.13 121.44C341.05 123.44 341.01 124.44 340.93 126.44C340.91 127.05 341.4 127.57 342.03 127.6C342.88 127.63 343.63 127.67 344.32 127.7C345.72 127.76 346.91 127.81 348.32 127.88C349 127.91 349.74 127.95 350.58 127.99C351.21 128.02 351.75 127.55 351.78 126.94V126.77C351.87 125.16 351.91 124.19 351.98 122.73C351.99 122.48 352 122.22 352.02 121.94C352.05 121.33 351.56 120.81 350.92 120.78V120.77Z" fill="#503EAA"/>
        <path d="M364.86 139.66C364.03 139.61 363.31 139.57 362.64 139.53L362.53 141.53C363.22 141.57 363.93 141.61 364.75 141.66C365.38 141.7 365.92 141.23 365.95 140.62C366.01 139.65 366.05 138.85 366.1 138.09C366.09 138.26 366.08 138.43 366.07 138.62C366.03 139.23 365.49 139.7 364.87 139.66H364.86Z" fill="#77A4F2"/>
        <path d="M356.39 139.19C355.76 139.16 355.28 138.63 355.31 138.02C355.41 136.02 355.46 135.02 355.57 133.02C355.6 132.41 356.14 131.94 356.77 131.97C357.62 132.01 358.36 132.05 359.05 132.09C357.76 132.02 356.41 131.95 354.71 131.86C354.08 131.83 353.54 132.3 353.51 132.91C353.37 135.71 353.3 137.11 353.16 139.91C353.13 140.52 353.61 141.04 354.24 141.08C355.92 141.16 357.26 141.23 358.54 141.3L358.65 139.3C357.97 139.26 357.23 139.23 356.4 139.18L356.39 139.19Z" fill="#77A4F2"/>
        <path d="M358.65 139.31L358.54 141.31L358.36 144.64C358.3 145.74 359.14 146.69 360.25 146.75C360.29 146.75 360.33 146.75 360.36 146.75C361.41 146.75 362.3 145.93 362.36 144.86L362.54 141.53L362.65 139.53C361.24 139.45 360.06 139.38 358.66 139.31H358.65Z" fill="#38237C"/>
        <path d="M363.04 132.32L363.92 116.39C363.98 115.29 363.14 114.34 362.03 114.28C360.92 114.22 359.98 115.06 359.92 116.17L359.04 132.1C360.44 132.18 361.63 132.24 363.03 132.32H363.04Z" fill="#38237C"/>
        <path d="M365.28 132.45C364.81 132.42 364.37 132.4 363.95 132.37C363.74 132.36 363.54 132.35 363.35 132.34C363.25 132.34 363.14 132.33 363.04 132.32C361.63 132.24 360.45 132.17 359.05 132.1C358.36 132.06 357.62 132.02 356.77 131.98C356.14 131.95 355.6 132.42 355.57 133.03C355.47 135.03 355.42 136.03 355.31 138.03C355.28 138.64 355.76 139.17 356.39 139.2C357.23 139.24 357.96 139.28 358.64 139.32C360.04 139.39 361.23 139.46 362.63 139.54C363.3 139.58 364.03 139.62 364.85 139.67C365.48 139.71 366.02 139.24 366.05 138.63C366.06 138.44 366.07 138.27 366.08 138.1C366.18 136.44 366.24 135.44 366.34 133.63C366.38 133.02 365.89 132.49 365.26 132.45H365.28Z" fill="#503EAA"/>
        <path d="M147.64 106.57C147.53 105.47 146.55 104.67 145.45 104.78C144.35 104.89 143.55 105.87 143.66 106.97L144.37 113.94C145.76 113.8 147.08 113.66 148.35 113.53L147.64 106.56V106.57Z" fill="#38237C"/>
        <path d="M149.74 127.35C149.85 128.45 149.05 129.43 147.95 129.54C147.88 129.54 147.81 129.55 147.75 129.55C146.74 129.55 145.87 128.78 145.76 127.76L147.69 146.78C147.79 147.81 148.66 148.58 149.68 148.58C149.75 148.58 149.82 148.58 149.88 148.57C150.98 148.46 151.78 147.48 151.67 146.38L149.24 122.34L149.75 127.36L149.74 127.35Z" fill="#38237C"/>
        <path d="M162.44 126.15C162.54 127.25 161.73 128.22 160.63 128.32C160.57 128.32 160.51 128.32 160.44 128.32C159.42 128.32 158.55 127.54 158.45 126.5L158.35 125.46L160.19 145.54C160.29 146.58 161.16 147.36 162.18 147.36C162.24 147.36 162.3 147.36 162.37 147.36C163.47 147.26 164.28 146.29 164.18 145.19L161.97 121.13L162.43 126.15H162.44Z" fill="#38237C"/>
        <path d="M160.53 105.35C160.43 104.25 159.46 103.43 158.36 103.54C157.26 103.64 156.45 104.61 156.55 105.71L157.19 112.68C158.46 112.56 159.78 112.44 161.17 112.32L160.53 105.34V105.35Z" fill="#38237C"/>
        <path d="M371.61 133.52C370.98 133.48 370.5 132.95 370.53 132.34C370.65 130.34 370.72 129.34 370.84 127.34C370.88 126.73 371.42 126.26 372.06 126.3C372.91 126.35 373.66 126.4 374.36 126.45C373.06 126.37 371.7 126.28 369.99 126.18C369.35 126.14 368.81 126.61 368.77 127.22C368.6 130.02 368.52 131.42 368.35 134.21C368.31 134.82 368.79 135.35 369.43 135.39C371.12 135.49 372.47 135.58 373.76 135.66L373.89 133.67C373.2 133.63 372.46 133.58 371.62 133.53L371.61 133.52Z" fill="#77A4F2"/>
        <path d="M380.11 134.08C379.28 134.02 378.55 133.97 377.87 133.93L377.74 135.93C378.43 135.98 379.16 136.03 379.98 136.08C380.61 136.12 381.16 135.66 381.2 135.05C381.25 134.3 381.3 133.66 381.34 133.06C381.3 133.67 380.75 134.13 380.12 134.09L380.11 134.08Z" fill="#77A4F2"/>
        <path d="M378.35 126.71L378.97 117.32C379.04 116.22 378.21 115.27 377.11 115.19C376.01 115.12 375.06 115.95 374.98 117.05L374.36 126.44C375.76 126.53 376.95 126.61 378.35 126.71Z" fill="#38237C"/>
        <path d="M373.88 133.66L373.75 135.65L373.1 145.51C373.03 146.61 373.86 147.56 374.96 147.64C375 147.64 375.05 147.64 375.09 147.64C376.13 147.64 377.01 146.83 377.08 145.77L377.73 135.92L377.86 133.92C376.46 133.82 375.27 133.75 373.87 133.66H373.88Z" fill="#38237C"/>
        <path d="M380.61 126.87C380.09 126.83 379.62 126.8 379.16 126.77C379.08 126.77 379 126.76 378.92 126.75C378.73 126.74 378.53 126.72 378.34 126.71C376.94 126.61 375.75 126.54 374.35 126.45C373.66 126.41 372.91 126.36 372.05 126.3C371.41 126.26 370.87 126.72 370.83 127.34C370.71 129.34 370.64 130.34 370.52 132.34C370.48 132.95 370.96 133.48 371.6 133.52C372.45 133.57 373.19 133.62 373.87 133.66C375.27 133.75 376.46 133.83 377.86 133.92C378.54 133.97 379.27 134.02 380.1 134.07C380.73 134.11 381.28 133.65 381.32 133.04C381.39 131.98 381.45 131.21 381.5 130.42L381.54 129.79C381.58 129.27 381.61 128.72 381.66 128.05C381.7 127.44 381.22 126.91 380.59 126.86L380.61 126.87Z" fill="#503EAA"/>
        <path d="M166.4 111.87C164.51 112.03 162.79 112.18 161.17 112.33C159.78 112.45 158.46 112.57 157.19 112.69C154.16 112.97 151.38 113.24 148.35 113.54C147.08 113.67 145.76 113.8 144.37 113.95C142.74 114.12 141.02 114.3 139.12 114.5C138.48 114.57 138.01 115.12 138.08 115.73C138.36 118.36 138.5 119.68 138.79 122.31C138.86 122.92 139.43 123.36 140.06 123.29C141.94 123.09 143.66 122.91 145.27 122.74L145.78 127.75C145.89 128.78 146.75 129.55 147.77 129.55C147.84 129.55 147.91 129.55 147.97 129.54C149.07 129.43 149.87 128.45 149.76 127.35L149.25 122.33C152.25 122.03 155.01 121.76 158.01 121.48L158.38 125.46L158.48 126.5C158.58 127.54 159.45 128.32 160.47 128.32C160.53 128.32 160.59 128.32 160.66 128.32C161.76 128.22 162.57 127.25 162.47 126.15L162.01 121.13C163.62 120.99 165.32 120.84 167.19 120.68C167.83 120.62 168.3 120.09 168.25 119.47C168.02 116.83 167.91 115.51 167.68 112.87C167.63 112.26 167.06 111.81 166.42 111.86L166.4 111.87Z" fill="#86D4C9"/>
        <path d="M220.54 133.72C220.58 134.52 220.61 135.22 220.64 135.88C220.61 135.21 220.57 134.51 220.54 133.72Z" fill="#77A4F2"/>
        <path d="M213.09 134.1C213.06 133.49 213.54 132.96 214.17 132.93C215.63 132.85 216.58 132.8 217.73 132.75C215.8 132.85 214.41 132.92 212.11 133.04C211.48 133.07 210.99 133.6 211.03 134.21C211.07 134.99 211.11 135.68 211.15 136.34C211.84 136.3 212.52 136.28 213.21 136.24C213.18 135.59 213.14 134.89 213.1 134.1H213.09Z" fill="#77A4F2"/>
        <path d="M219.85 143.13C217.8 143.23 216.78 143.28 214.73 143.39C214.1 143.42 213.57 142.95 213.54 142.34C213.5 141.56 213.46 140.87 213.43 140.23C212.74 140.27 212.06 140.29 211.38 140.33C211.45 141.55 211.52 142.84 211.61 144.44C211.64 145.05 212.18 145.52 212.8 145.49C215.66 145.33 217.09 145.26 219.96 145.12C220.59 145.09 221.07 144.57 221.04 143.96C220.96 142.37 220.9 141.08 220.84 139.87C220.87 140.51 220.9 141.19 220.94 141.97C220.97 142.58 220.48 143.1 219.86 143.13H219.85Z" fill="#77A4F2"/>
        <path d="M225.84 135.62C224.12 135.69 222.38 135.79 220.65 135.88C220.72 137.28 220.77 138.46 220.84 139.88C222.56 139.8 224.3 139.7 226.02 139.63C227.12 139.58 227.98 138.65 227.93 137.55C227.88 136.45 226.94 135.57 225.85 135.64L225.84 135.62Z" fill="#38237C"/>
        <path d="M213.21 136.24C212.52 136.28 211.84 136.3 211.15 136.34C206.26 136.61 201.37 136.91 196.51 137.23C195.41 137.3 194.57 138.26 194.65 139.36C194.72 140.42 195.6 141.23 196.64 141.23C196.68 141.23 196.73 141.23 196.78 141.23C201.62 140.91 206.5 140.61 211.37 140.34C212.06 140.3 212.74 140.28 213.42 140.24C213.34 138.83 213.28 137.65 213.21 136.25V136.24Z" fill="#38237C"/>
        <path d="M220.54 133.72C220.51 133.11 219.97 132.64 219.34 132.67C219 132.69 218.7 132.7 218.41 132.72C218.33 132.72 218.26 132.72 218.19 132.73C218.04 132.73 217.89 132.74 217.75 132.75C216.59 132.81 215.65 132.86 214.19 132.93C213.56 132.96 213.07 133.49 213.11 134.1C213.15 134.9 213.19 135.59 213.22 136.24C213.3 137.65 213.36 138.83 213.43 140.23C213.46 140.87 213.5 141.56 213.54 142.34C213.57 142.95 214.11 143.42 214.73 143.39C216.78 143.28 217.8 143.23 219.85 143.13C220.48 143.1 220.96 142.58 220.93 141.97C220.89 141.19 220.86 140.51 220.83 139.87C220.76 138.46 220.71 137.28 220.64 135.87C220.61 135.22 220.57 134.51 220.54 133.71V133.72Z" fill="#503EAA"/>
        <path d="M210.88 109.2C210.4 109.23 209.91 109.25 209.43 109.25C204.44 109.25 199.67 107.47 195.87 104.16C191.7 100.53 189.2 95.4899 188.82 89.9799C188.56 86.2499 189.32 82.6199 190.95 79.3599C188.37 83.2299 186.99 87.9799 187.34 93.0299C188.16 104.97 198.28 114.01 209.94 113.21C220.43 112.49 228.57 104.05 229.51 93.6699C228.72 96.7699 227.23 99.6799 225.06 102.16C221.43 106.33 216.39 108.83 210.88 109.21V109.2Z" fill="#77A4F2"/>
        <path d="M220.43 75.9801C217.36 73.3101 213.52 71.8701 209.49 71.8701C209.1 71.8701 208.71 71.8801 208.32 71.9101C203.87 72.2101 199.81 74.2301 196.88 77.5901C193.95 80.9501 192.51 85.2501 192.81 89.7001C193.11 94.1501 195.13 98.2101 198.49 101.14C201.85 104.07 206.14 105.51 210.6 105.21C215.05 104.9 219.11 102.89 222.04 99.5301C224.97 96.1701 226.41 91.8701 226.11 87.4201C225.8 82.9701 223.79 78.9101 220.43 75.9801ZM199.62 79.9801C199.98 79.5601 200.62 79.5201 201.03 79.8801L202.43 81.1001C202.85 81.4601 202.89 82.0901 202.53 82.5101C202.33 82.7401 202.05 82.8501 201.78 82.8501C201.55 82.8501 201.31 82.7701 201.12 82.6001L199.72 81.3801C199.3 81.0201 199.26 80.3901 199.62 79.9701V79.9801ZM199.35 90.2601L197.5 90.3901C197.5 90.3901 197.45 90.3901 197.43 90.3901C196.91 90.3901 196.47 89.9901 196.43 89.4601C196.39 88.9101 196.81 88.4301 197.36 88.3901L199.21 88.2601C199.76 88.2201 200.24 88.6401 200.28 89.1901C200.32 89.7401 199.9 90.2201 199.35 90.2601ZM203.51 96.9201L202.29 98.3201C202.09 98.5501 201.81 98.6601 201.54 98.6601C201.31 98.6601 201.07 98.5801 200.88 98.4101C200.46 98.0501 200.42 97.4101 200.78 97.0001L202 95.6001C202.36 95.1801 203 95.1401 203.41 95.5001C203.83 95.8601 203.87 96.5001 203.51 96.9101V96.9201ZM211.35 102C211.26 102.44 210.89 102.78 210.44 102.81C210.42 102.81 210.39 102.81 210.37 102.81C209.94 102.81 209.56 102.54 209.42 102.13L204.99 89.1401C204.99 89.1401 204.99 89.1201 204.99 89.1101C204.97 89.0401 204.97 88.9601 204.97 88.8801C204.97 88.8001 204.95 88.7301 204.97 88.6601C204.97 88.6501 204.97 88.6401 204.97 88.6301L207.58 75.1601C207.67 74.7201 208.04 74.3801 208.49 74.3501C208.94 74.3201 209.36 74.6001 209.51 75.0201L213.94 88.0101C213.94 88.0101 213.94 88.0301 213.94 88.0401C213.96 88.1101 213.96 88.1901 213.96 88.2701C213.96 88.3501 213.98 88.4201 213.96 88.4901C213.96 88.5001 213.96 88.5101 213.96 88.5201L211.35 102V102ZM215.41 80.2101L216.63 78.8101C216.99 78.3901 217.63 78.3501 218.04 78.7101C218.46 79.0701 218.5 79.7001 218.14 80.1201L216.92 81.5201C216.72 81.7501 216.44 81.8601 216.17 81.8601C215.94 81.8601 215.7 81.7801 215.51 81.6101C215.09 81.2501 215.05 80.6201 215.41 80.2001V80.2101ZM219.3 97.1401C219.1 97.3701 218.82 97.4801 218.55 97.4801C218.32 97.4801 218.08 97.4001 217.89 97.2301L216.49 96.0101C216.07 95.6501 216.03 95.0201 216.39 94.6001C216.75 94.1801 217.38 94.1401 217.8 94.5001L219.2 95.7201C219.62 96.0801 219.66 96.7101 219.3 97.1301V97.1401ZM221.55 88.7301L219.7 88.8601C219.7 88.8601 219.65 88.8601 219.63 88.8601C219.11 88.8601 218.67 88.4601 218.63 87.9301C218.59 87.3801 219.01 86.9001 219.56 86.8601L221.41 86.7301C221.96 86.6901 222.44 87.1101 222.48 87.6601C222.52 88.2101 222.1 88.6901 221.55 88.7301Z" fill="#86D4C9"/>
        <path d="M223.06 72.97C218.89 69.34 213.57 67.55 208.05 67.93C202.54 68.31 197.5 70.81 193.87 74.98C192.69 76.33 191.73 77.81 190.96 79.37C189.33 82.63 188.57 86.26 188.83 89.99C189.21 95.5 191.71 100.54 195.88 104.17C199.68 107.48 204.45 109.26 209.44 109.26C209.92 109.26 210.4 109.24 210.89 109.21C216.4 108.83 221.44 106.33 225.07 102.16C227.24 99.68 228.73 96.77 229.52 93.67C230.05 91.57 230.27 89.38 230.12 87.15C229.74 81.64 227.24 76.6 223.07 72.97H223.06ZM222.05 99.53C219.12 102.89 215.06 104.91 210.61 105.21C206.15 105.51 201.86 104.07 198.5 101.14C195.14 98.21 193.12 94.15 192.82 89.7C192.52 85.25 193.96 80.95 196.89 77.59C199.82 74.23 203.88 72.21 208.33 71.91C208.72 71.88 209.11 71.87 209.5 71.87C213.53 71.87 217.38 73.31 220.44 75.98C223.8 78.91 225.82 82.97 226.12 87.42C226.42 91.87 224.98 96.17 222.05 99.53V99.53Z" fill="#38237C"/>
        <path d="M211.62 87.4202L208.83 79.2202L207.18 87.7302L209.4 87.5802L211.62 87.4202Z" fill="#FF8486"/>
        <path d="M213.96 88.2699C213.96 88.1899 213.96 88.1199 213.94 88.0399C213.94 88.0299 213.94 88.0199 213.94 88.0099L209.51 75.0199C209.36 74.5899 208.94 74.3199 208.49 74.3499C208.04 74.3799 207.66 74.7099 207.58 75.1599L204.97 88.6299C204.97 88.6299 204.97 88.6499 204.97 88.6599C204.96 88.7299 204.97 88.8099 204.97 88.8799C204.97 88.9599 204.97 89.0299 204.99 89.1099C204.99 89.1199 204.99 89.1299 204.99 89.1399L209.42 102.13C209.56 102.54 209.94 102.81 210.37 102.81C210.39 102.81 210.42 102.81 210.44 102.81C210.89 102.78 211.27 102.45 211.35 102L213.96 88.5199C213.96 88.5199 213.96 88.4999 213.96 88.4899C213.97 88.4199 213.96 88.3399 213.96 88.2699V88.2699ZM208.83 79.2199L211.62 87.4199L209.4 87.5699L207.18 87.7199L208.83 79.2099V79.2199ZM210.11 97.9199L207.32 89.7199L211.76 89.4199L210.11 97.9299V97.9199Z" fill="#38237C"/>
        <path d="M210.11 97.9299L211.76 89.4199L207.31 89.7199L210.11 97.9299Z" fill="white"/>
        <path d="M221.43 86.74L219.58 86.87C219.03 86.91 218.61 87.38 218.65 87.94C218.69 88.47 219.13 88.87 219.65 88.87C219.67 88.87 219.7 88.87 219.72 88.87L221.57 88.74C222.12 88.7 222.54 88.23 222.5 87.67C222.46 87.11 221.99 86.7 221.43 86.74Z" fill="#38237C"/>
        <path d="M199.21 88.2702L197.36 88.4002C196.81 88.4402 196.39 88.9202 196.43 89.4702C196.47 90.0002 196.91 90.4002 197.43 90.4002C197.45 90.4002 197.48 90.4002 197.5 90.4002L199.35 90.2702C199.9 90.2302 200.32 89.7502 200.28 89.2002C200.24 88.6502 199.76 88.2302 199.21 88.2702Z" fill="#38237C"/>
        <path d="M217.82 94.5198C217.4 94.1598 216.77 94.1998 216.41 94.6198C216.05 95.0398 216.09 95.6698 216.51 96.0298L217.91 97.2498C218.1 97.4198 218.33 97.4998 218.57 97.4998C218.85 97.4998 219.13 97.3798 219.32 97.1598C219.68 96.7398 219.64 96.1098 219.22 95.7498L217.82 94.5298V94.5198Z" fill="#38237C"/>
        <path d="M201.12 82.6099C201.31 82.7799 201.54 82.8599 201.78 82.8599C202.06 82.8599 202.34 82.7399 202.53 82.5199C202.89 82.0999 202.85 81.4699 202.43 81.1099L201.03 79.8899C200.61 79.5299 199.98 79.5699 199.62 79.9899C199.26 80.4099 199.3 81.0399 199.72 81.3999L201.12 82.6199V82.6099Z" fill="#38237C"/>
        <path d="M216.93 81.5299L218.15 80.1299C218.51 79.7099 218.47 79.08 218.05 78.72C217.63 78.36 217 78.4 216.64 78.82L215.42 80.22C215.06 80.64 215.1 81.2699 215.52 81.6299C215.71 81.7999 215.94 81.8799 216.18 81.8799C216.46 81.8799 216.74 81.76 216.93 81.54V81.5299Z" fill="#38237C"/>
        <path d="M202.01 95.6L200.79 97C200.43 97.42 200.47 98.05 200.89 98.41C201.08 98.58 201.31 98.66 201.55 98.66C201.83 98.66 202.11 98.54 202.3 98.32L203.52 96.92C203.88 96.5 203.84 95.87 203.42 95.51C203 95.15 202.37 95.19 202.01 95.61V95.6Z" fill="#38237C"/>
        <path d="M362.85 109.53C362.46 109.53 362.07 109.52 361.68 109.5C350.96 108.9 342.59 100.2 342.17 89.69H342.07L342.18 87.69L342.29 85.69H342.39C342.88 82.49 344.12 79.55 345.89 77.02C342.73 80.58 340.69 85.22 340.4 90.39C339.73 102.34 348.65 112.56 360.32 113.21C370.92 113.8 380.14 106.3 382.24 95.97C379.31 103.93 371.64 109.52 362.84 109.52L362.85 109.53Z" fill="#77A4F2"/>
        <path d="M363.77 72.18C355.24 71.71 347.86 77.73 346.41 85.92L359.27 86.64C359.31 86.58 359.34 86.52 359.38 86.47C359.53 86.29 359.97 85.73 367.61 79.5C367.98 79.2 368.43 79.05 368.87 79.05C369.31 79.05 369.75 79.19 370.11 79.48C370.43 79.73 370.64 80.06 370.76 80.43L371.98 79.34C372.39 78.97 373.02 79.01 373.39 79.42C373.76 79.83 373.72 80.46 373.31 80.83L371.12 82.79C370.93 82.96 370.69 83.04 370.45 83.04C370.35 83.04 370.24 83.01 370.14 82.98C369.35 84.59 368.67 85.97 368.08 87.13L379.48 87.77C378.95 79.47 372.27 72.66 363.76 72.18H363.77ZM356.69 81.98C356.5 82.15 356.26 82.23 356.02 82.23C355.75 82.23 355.47 82.12 355.27 81.9L353.31 79.71C352.94 79.3 352.98 78.67 353.39 78.3C353.8 77.93 354.43 77.97 354.8 78.38L356.76 80.57C357.13 80.98 357.09 81.61 356.68 81.98H356.69ZM364.41 78.7C364.38 79.23 363.94 79.64 363.41 79.64C363.39 79.64 363.37 79.64 363.35 79.64C362.8 79.61 362.38 79.14 362.41 78.59L362.57 75.65C362.6 75.1 363.09 74.68 363.62 74.71C364.17 74.74 364.59 75.21 364.56 75.76L364.4 78.7H364.41Z" fill="#86D4C9"/>
        <path d="M364 68.1901C356.59 67.7801 349.88 71.3501 345.9 77.0301C344.13 79.5601 342.89 82.5001 342.4 85.7001H342.3L342.19 87.6901L342.08 89.6901H342.18C342.6 100.21 350.98 108.9 361.69 109.5C362.08 109.52 362.47 109.53 362.86 109.53C371.66 109.53 379.33 103.94 382.26 95.9801C382.73 94.7001 383.08 93.3701 383.29 91.9801H383.39L383.5 89.9901L383.61 87.9901H383.51C383.09 77.4701 374.71 68.7801 364 68.1801V68.1901ZM373.97 101.29C370.65 104.26 366.37 105.77 361.92 105.51C353.41 105.03 346.73 98.2301 346.2 89.9201L358.87 90.6301C359.13 91.2201 359.51 91.7601 360.04 92.1801C360.76 92.7501 361.65 93.0601 362.56 93.0601C363.81 93.0601 364.96 92.5001 365.74 91.5301C365.81 91.4401 365.92 91.2701 366.06 91.0301L379.28 91.7701C378.63 95.4401 376.79 98.7701 373.97 101.29V101.29ZM360.95 87.7201C361.41 87.1401 368.88 81.0501 368.88 81.0501C368.88 81.0501 364.71 89.6001 364.17 90.2801C363.76 90.7901 363.16 91.0601 362.56 91.0601C362.11 91.0601 361.66 90.9101 361.28 90.6101C360.39 89.9001 360.24 88.6101 360.95 87.7201V87.7201ZM368.11 87.1401C368.69 85.9801 369.38 84.6001 370.17 82.9901C370.27 83.0201 370.37 83.0501 370.48 83.0501C370.72 83.0501 370.96 82.9701 371.15 82.8001L373.34 80.8401C373.75 80.4701 373.79 79.8401 373.42 79.4301C373.05 79.0201 372.42 78.9801 372.01 79.3501L370.79 80.4401C370.67 80.0801 370.45 79.7401 370.14 79.4901C369.78 79.2001 369.34 79.0601 368.9 79.0601C368.46 79.0601 368 79.2101 367.64 79.5101C360 85.7401 359.55 86.3001 359.41 86.4801C359.37 86.5301 359.34 86.5901 359.3 86.6501L346.44 85.9301C347.89 77.7401 355.27 71.7201 363.8 72.1901C372.31 72.6701 378.99 79.4701 379.52 87.7801L368.12 87.1401H368.11Z" fill="#38237C"/>
        <path d="M365.73 91.5299C364.96 92.4999 363.8 93.0599 362.55 93.0599C361.64 93.0599 360.74 92.7499 360.03 92.1799C359.5 91.7499 359.11 91.2099 358.86 90.6299L346.19 89.9199C346.72 98.2199 353.4 105.03 361.91 105.51C366.37 105.76 370.64 104.26 373.96 101.29C376.78 98.7699 378.62 95.4399 379.27 91.7699L366.05 91.0299C365.91 91.2599 365.8 91.4399 365.73 91.5299V91.5299Z" fill="#77A4F2"/>
        <path d="M363.63 74.71C363.09 74.68 362.61 75.1 362.58 75.65L362.42 78.59C362.39 79.14 362.81 79.61 363.36 79.64C363.38 79.64 363.4 79.64 363.42 79.64C363.95 79.64 364.39 79.23 364.42 78.7L364.58 75.76C364.61 75.21 364.19 74.74 363.64 74.71H363.63Z" fill="#38237C"/>
        <path d="M362.55 91.0598C363.16 91.0598 363.76 90.7898 364.16 90.2798C364.7 89.5998 368.87 81.0498 368.87 81.0498C368.87 81.0498 361.4 87.1398 360.94 87.7198C360.23 88.6098 360.38 89.9098 361.27 90.6098C361.65 90.9098 362.1 91.0598 362.55 91.0598V91.0598Z" fill="white"/>
        <path d="M354.81 78.3801C354.44 77.9701 353.81 77.9301 353.4 78.3001C352.99 78.6701 352.95 79.3001 353.32 79.7101L355.28 81.9001C355.48 82.1201 355.75 82.2301 356.03 82.2301C356.27 82.2301 356.51 82.1501 356.7 81.9801C357.11 81.6101 357.15 80.9801 356.78 80.5701L354.82 78.3801H354.81Z" fill="#38237C"/>
        <path d="M293.44 100.62L286.27 106.49C285.91 106.78 285.4 106.78 285.04 106.49L277.87 100.62C277.5 100.32 276.95 100.58 276.95 101.05V105.84C276.95 106.25 277.13 106.63 277.45 106.89L284.76 112.88C285.28 113.3 286.02 113.3 286.54 112.88L293.85 106.89C294.16 106.63 294.35 106.25 294.35 105.84V101.05C294.35 100.58 293.8 100.32 293.43 100.62H293.44Z" fill="#86D4C9"/>
        <path d="M267.47 113.62H272.49C273.05 113.62 273.5 113.17 273.5 112.61V93.8898C273.5 93.3998 274.06 93.1198 274.45 93.4198L285.04 101.47C285.4 101.75 285.91 101.75 286.27 101.47L296.86 93.4198C297.25 93.1198 297.81 93.3998 297.81 93.8898V112.61C297.81 113.17 298.26 113.62 298.82 113.62H303.84C304.4 113.62 304.85 113.17 304.85 112.61V81.7298C304.85 81.2298 304.44 80.8198 303.94 80.8198H302.53C302.26 80.8198 302 80.8998 301.79 81.0598L286.18 92.3098C285.86 92.5398 285.43 92.5398 285.12 92.3098L269.51 81.0598C269.29 80.8998 269.03 80.8198 268.77 80.8198H267.36C266.86 80.8198 266.45 81.2298 266.45 81.7298V112.61C266.45 113.17 266.9 113.62 267.46 113.62H267.47Z" fill="#86D4C9"/>
        <path d="M304.11 117.17H267.21C266.796 117.17 266.46 117.506 266.46 117.92V123.47C266.46 123.884 266.796 124.22 267.21 124.22H304.11C304.524 124.22 304.86 123.884 304.86 123.47V117.92C304.86 117.506 304.524 117.17 304.11 117.17Z" fill="#86D4C9"/>
        <defs>
            <linearGradient id="paint0_linear_2665_21926" x1="175.41" y1="245.46" x2="398.49" y2="22.37" gradientUnits="userSpaceOnUse">
                <stop stop-color="#9EE8DB" stop-opacity="0.5"/>
                <stop offset="0.25" stop-color="#98DCD7" stop-opacity="0.53"/>
                <stop offset="0.51" stop-color="#88B9CD" stop-opacity="0.64"/>
                <stop offset="0.78" stop-color="#6E7FBC" stop-opacity="0.81"/>
                <stop offset="1" stop-color="#503EAA"/>
            </linearGradient>
            <linearGradient id="paint1_linear_2665_21926" x1="316.56" y1="13.5899" x2="305.69" y2="63.6999" gradientUnits="userSpaceOnUse">
                <stop stop-color="white" stop-opacity="0.5"/>
                <stop offset="0.1" stop-color="white" stop-opacity="0.41"/>
                <stop offset="0.29" stop-color="white" stop-opacity="0.26"/>
                <stop offset="0.47" stop-color="white" stop-opacity="0.15"/>
                <stop offset="0.65" stop-color="white" stop-opacity="0.07"/>
                <stop offset="0.83" stop-color="white" stop-opacity="0.02"/>
                <stop offset="1" stop-color="white" stop-opacity="0"/>
            </linearGradient>
        </defs>
</svg>

