<svg viewBox="0 0 465 180" fill="none" xmlns="http://www.w3.org/2000/svg">
    <path d="M79.0264 131.619C70.7679 137.736 60.3524 141.087 49.5957 141.087C38.8391 141.087 28.4236 137.736 20.165 131.619C10.5779 138.085 4.03085 147.475 1.78859 157.975C1.57677 158.95 1.61008 159.954 1.88615 160.917C2.16222 161.879 2.67423 162.776 3.38566 163.542C4.09709 164.309 4.99038 164.926 6.00179 165.351C7.01321 165.776 8.11779 165.997 9.23673 165.999H89.9628C91.0818 165.997 92.1864 165.776 93.1978 165.351C94.2092 164.926 95.1025 164.309 95.8139 163.542C96.5253 162.776 97.0374 161.879 97.3134 160.917C97.5895 159.954 97.6228 158.95 97.411 157.975C95.1659 147.474 88.616 138.084 79.0264 131.619Z" fill="#88D1C3"/>
    <path d="M49.6001 144.336C39.7901 144.336 30.2004 141.754 22.0438 136.917C13.8871 132.08 7.52971 125.204 3.7756 117.16C0.0214919 109.116 -0.960756 100.265 0.953073 91.7257C2.8669 83.1862 7.59085 75.3423 14.5275 69.1857C21.4642 63.0292 30.3021 58.8365 39.9236 57.1379C49.5451 55.4393 59.518 56.3111 68.5812 59.643C77.6444 62.9749 85.3909 68.6173 90.841 75.8567C96.2911 83.096 99.2001 91.6072 99.2001 100.314C99.1765 111.983 93.9432 123.168 84.6465 131.419C75.3498 139.67 62.7476 144.315 49.6001 144.336ZM49.6001 62.7365C41.2375 62.7365 33.0627 64.9374 26.1094 69.0609C19.1562 73.1844 13.7368 79.0453 10.5366 85.9025C7.33636 92.7596 6.49904 100.305 8.1305 107.585C9.76196 114.864 13.7889 121.551 19.7022 126.799C25.6154 132.047 33.1494 135.621 41.3513 137.069C49.5532 138.517 58.0547 137.774 65.7807 134.934C73.5067 132.093 80.1103 127.283 84.7563 121.112C89.4023 114.941 91.8821 107.685 91.8821 100.263C91.8606 90.3165 87.399 80.7825 79.4742 73.749C71.5495 66.7154 60.8074 62.7556 49.6001 62.7365Z" fill="#4F457C"/>
    <path d="M224.769 103.143C224.37 103.139 223.981 103.031 223.65 102.832C223.319 102.634 223.062 102.354 222.908 102.026C222.755 101.699 222.713 101.339 222.788 100.991C222.863 100.643 223.052 100.322 223.33 100.068C227.5 96.3634 229.842 91.3408 229.842 86.104C229.842 80.8673 227.5 75.8447 223.33 72.1397C223.136 71.9735 222.981 71.7747 222.874 71.5547C222.767 71.3347 222.71 71.098 222.708 70.8585C222.705 70.6189 222.756 70.3813 222.858 70.1595C222.96 69.9376 223.11 69.736 223.301 69.5664C223.491 69.3967 223.718 69.2625 223.968 69.1715C224.218 69.0804 224.485 69.0344 224.755 69.0362C225.025 69.0379 225.292 69.0873 225.54 69.1816C225.788 69.2758 226.013 69.413 226.2 69.585C231.134 73.9657 233.906 79.9063 233.906 86.1004C233.906 92.2946 231.134 98.2352 226.2 102.616C225.82 102.952 225.306 103.142 224.769 103.143Z" fill="white"/>
    <path d="M218.598 97.6657C218.332 97.6672 218.068 97.6213 217.822 97.5308C217.576 97.4403 217.353 97.3071 217.167 97.1389C216.977 96.9713 216.827 96.7722 216.725 96.553C216.622 96.3338 216.569 96.0988 216.569 95.8615C216.569 95.6242 216.622 95.3892 216.725 95.17C216.827 94.9508 216.977 94.7518 217.167 94.5842C219.701 92.3312 221.125 89.2776 221.125 86.0937C221.125 82.9099 219.701 79.8562 217.167 77.6033C216.82 77.2595 216.636 76.8112 216.65 76.3504C216.665 75.8896 216.877 75.4511 217.245 75.1251C217.612 74.7991 218.106 74.6103 218.625 74.5974C219.144 74.5845 219.65 74.7485 220.037 75.0558C221.671 76.5054 222.968 78.2267 223.852 80.1212C224.737 82.0158 225.192 84.0465 225.192 86.0973C225.192 88.1481 224.737 90.1788 223.852 92.0734C222.968 93.968 221.671 95.6892 220.037 97.1389C219.848 97.3066 219.624 97.4396 219.377 97.53C219.13 97.6204 218.865 97.6665 218.598 97.6657Z" fill="white"/>
    <path d="M212.434 92.1946C212.032 92.1952 211.638 92.0898 211.303 91.8916C210.968 91.6934 210.707 91.4114 210.553 91.0813C210.399 90.7512 210.358 90.388 210.437 90.0376C210.516 89.6872 210.71 89.3654 210.995 89.1131C211.442 88.717 211.796 88.2467 212.037 87.7291C212.279 87.2115 212.403 86.6568 212.403 86.0965C212.403 85.5362 212.279 84.9814 212.037 84.4639C211.796 83.9463 211.442 83.476 210.995 83.0799C210.613 82.7411 210.399 82.2817 210.399 81.8026C210.399 81.3235 210.613 80.864 210.995 80.5252C211.377 80.1864 211.895 79.9961 212.434 79.9961C212.974 79.9961 213.492 80.1864 213.874 80.5252C215.534 82.0049 216.466 84.0082 216.466 86.0965C216.466 88.1848 215.534 90.1881 213.874 91.6678C213.49 92.0039 212.973 92.1931 212.434 92.1946Z" fill="white"/>
    <path d="M167.323 150.7C166.786 150.7 166.271 150.511 165.892 150.174C163.447 148.005 161.509 145.43 160.186 142.596C158.863 139.763 158.182 136.725 158.182 133.658C158.182 130.591 158.863 127.554 160.186 124.72C161.509 121.886 163.447 119.311 165.892 117.143C166.279 116.835 166.784 116.671 167.303 116.684C167.822 116.697 168.316 116.886 168.684 117.212C169.051 117.538 169.264 117.976 169.278 118.437C169.293 118.898 169.108 119.346 168.762 119.69C164.592 123.395 162.25 128.418 162.25 133.654C162.25 138.891 164.592 143.914 168.762 147.619C168.951 147.786 169.101 147.986 169.204 148.205C169.306 148.424 169.359 148.659 169.359 148.896C169.359 149.133 169.306 149.368 169.204 149.588C169.101 149.807 168.951 150.006 168.762 150.174C168.378 150.51 167.862 150.699 167.323 150.7Z" fill="white"/>
    <path d="M173.494 145.223C173.227 145.224 172.962 145.178 172.715 145.088C172.468 144.997 172.244 144.864 172.055 144.696C170.421 143.247 169.124 141.526 168.239 139.631C167.355 137.736 166.899 135.706 166.899 133.655C166.899 131.604 167.355 129.573 168.239 127.679C169.124 125.784 170.421 124.063 172.055 122.613C172.243 122.441 172.467 122.304 172.716 122.21C172.964 122.116 173.23 122.066 173.5 122.065C173.77 122.063 174.038 122.109 174.288 122.2C174.537 122.291 174.764 122.425 174.955 122.595C175.145 122.764 175.296 122.966 175.398 123.188C175.499 123.41 175.551 123.647 175.548 123.887C175.545 124.126 175.489 124.363 175.382 124.583C175.275 124.803 175.12 125.002 174.925 125.168C173.668 126.283 172.671 127.606 171.991 129.063C171.31 130.52 170.96 132.081 170.96 133.659C170.96 135.236 171.31 136.797 171.991 138.254C172.671 139.711 173.668 141.034 174.925 142.149C175.208 142.402 175.399 142.723 175.476 143.072C175.554 143.421 175.513 143.783 175.359 144.111C175.205 144.44 174.945 144.721 174.612 144.919C174.279 145.117 173.887 145.222 173.486 145.223H173.494Z" fill="white"/>
    <path d="M179.658 139.76C179.39 139.761 179.126 139.715 178.879 139.624C178.632 139.534 178.407 139.401 178.218 139.233C176.558 137.754 175.626 135.75 175.626 133.662C175.626 131.574 176.558 129.57 178.218 128.091C178.407 127.923 178.632 127.79 178.879 127.699C179.126 127.608 179.39 127.562 179.658 127.562C179.925 127.562 180.19 127.608 180.436 127.699C180.683 127.79 180.908 127.923 181.097 128.091C181.286 128.258 181.436 128.458 181.538 128.677C181.64 128.896 181.693 129.131 181.693 129.368C181.693 129.605 181.64 129.84 181.538 130.059C181.436 130.278 181.286 130.478 181.097 130.645C180.65 131.041 180.296 131.512 180.055 132.029C179.813 132.547 179.688 133.102 179.688 133.662C179.688 134.222 179.813 134.777 180.055 135.295C180.296 135.812 180.65 136.282 181.097 136.679C181.382 136.931 181.576 137.253 181.655 137.603C181.733 137.953 181.693 138.317 181.539 138.647C181.385 138.977 181.124 139.259 180.789 139.457C180.454 139.655 180.06 139.761 179.658 139.76Z" fill="white"/>
    <path d="M49.5998 78.6055C35.7118 78.6055 24.4583 90.4336 24.4583 105.019C24.4583 119.604 35.7118 131.439 49.5998 131.439C60.6012 131.439 69.3016 121.906 69.3016 110.612L74.7413 109.803C74.7413 89.9645 63.4797 78.6055 49.5998 78.6055ZM54.08 108.677C50.5511 108.677 47.6971 105.488 47.6971 101.555C47.6971 97.6215 50.5511 94.4245 54.08 94.4245C57.609 94.4245 60.4711 97.6143 60.4711 101.555C60.4711 105.495 57.609 108.677 54.08 108.677Z" fill="#88D1C3"/>
    <path d="M43.7375 79.3276C51.8687 76.7945 62.9189 77.4007 64.7485 69.6211C73.587 72.5078 73.9285 83.0009 67.6025 86.5948C61.2764 90.1887 43.7375 79.3276 43.7375 79.3276Z" fill="#88D1C3"/>
    <path d="M24.6699 69.253C24.0361 69.254 23.4128 69.1089 22.8612 68.8318C22.3096 68.5548 21.8485 68.1553 21.5231 67.6725L10.912 51.8896C10.4149 51.1498 10.2693 50.2651 10.5072 49.4301C10.745 48.595 11.3469 47.8781 12.1804 47.4369C13.0139 46.9957 14.0107 46.8665 14.9516 47.0776C15.8924 47.2887 16.7003 47.8229 17.1973 48.5627L27.7678 64.3384C28.0999 64.8312 28.2789 65.3933 28.2865 65.9675C28.2941 66.5416 28.13 67.1073 27.8109 67.6068C27.4919 68.1064 27.0294 68.5219 26.4704 68.8111C25.9115 69.1003 25.2762 69.2527 24.6292 69.253H24.6699Z" fill="#4F457C"/>
    <path d="M14.0587 59.4603C19.8023 59.4603 24.4584 55.3278 24.4584 50.2302C24.4584 45.1325 19.8023 41 14.0587 41C8.31506 41 3.65894 45.1325 3.65894 50.2302C3.65894 55.3278 8.31506 59.4603 14.0587 59.4603Z" fill="#4F457C"/>
    <path d="M188.878 49.3419C189.426 49.3419 189.87 48.9477 189.87 48.4615C189.87 47.9752 189.426 47.5811 188.878 47.5811C188.331 47.5811 187.886 47.9752 187.886 48.4615C187.886 48.9477 188.331 49.3419 188.878 49.3419Z" fill="#88D1C3"/>
    <path d="M120.731 131.469C121.998 131.469 123.024 130.558 123.024 129.434C123.024 128.31 121.998 127.398 120.731 127.398C119.465 127.398 118.438 128.31 118.438 129.434C118.438 130.558 119.465 131.469 120.731 131.469Z" fill="#88D1C3"/>
    <path d="M189.649 125.546C190.559 125.546 191.297 124.808 191.297 123.898C191.297 122.987 190.559 122.249 189.649 122.249C188.738 122.249 188 122.987 188 123.898C188 124.808 188.738 125.546 189.649 125.546Z" fill="#88D1C3"/>
    <path d="M202.448 59.8989C203.477 59.8989 204.31 59.0655 204.31 58.0374C204.31 57.0092 203.477 56.1758 202.448 56.1758C201.42 56.1758 200.587 57.0092 200.587 58.0374C200.587 59.0655 201.42 59.8989 202.448 59.8989Z" fill="#88D1C3"/>
    <path d="M312.756 3.52848C313.731 3.52848 314.521 2.73862 314.521 1.76426C314.521 0.789894 313.731 0 312.756 0C311.782 0 310.992 0.789894 310.992 1.76426C310.992 2.73862 311.782 3.52848 312.756 3.52848Z" fill="#88D1C3"/>
    <path d="M369.218 108.099L381.805 99.3694C376.519 94.9101 366.681 88.9665 358.183 88.4189" fill="#88D1C3"/>
    <path d="M363.167 122.256C367.383 115.15 359.205 102.511 344.901 94.0246C330.598 85.5386 315.585 84.4194 311.369 91.525C307.154 98.6305 315.332 111.27 329.635 119.756C343.939 128.242 358.951 129.361 363.167 122.256Z" fill="#7996C9"/>
    <path d="M384.537 120.632C387.968 122.67 391.606 128.339 392.506 132.239C388.655 133.31 381.933 132.847 378.514 130.803C377.846 130.407 377.263 129.883 376.797 129.261C376.332 128.64 375.993 127.932 375.801 127.18C375.609 126.428 375.567 125.645 375.678 124.876C375.788 124.107 376.049 123.368 376.445 122.7C376.842 122.032 377.366 121.449 377.987 120.983C378.609 120.518 379.316 120.179 380.069 119.987C380.821 119.795 381.604 119.753 382.373 119.864C383.142 119.974 383.881 120.235 384.549 120.632H384.537Z" fill="#FF8080"/>
    <path d="M367.888 114.3C372.104 107.194 363.926 94.5546 349.622 86.0685C335.319 77.5825 320.306 76.4634 316.091 83.5689C311.875 90.6744 320.053 103.314 334.356 111.8C348.66 120.286 363.673 121.405 367.888 114.3Z" fill="white"/>
    <path d="M368.101 113.949C371.254 108.635 363.456 98.1849 350.684 90.6075C337.912 83.03 325.002 81.1951 321.85 86.5091C318.697 91.8231 326.495 102.274 339.267 109.851C352.039 117.428 364.948 119.263 368.101 113.949Z" fill="#88D1C3"/>
    <path d="M319.564 99.1141L315.336 106.232C315.336 106.232 313.468 104.729 312.817 103.379C312.166 102.028 309.343 96.7171 311.533 92.9088C313.724 89.1005 314.63 87.9263 315.226 90.1164C315.822 92.3065 319.564 99.1141 319.564 99.1141Z" fill="white"/>
    <path d="M351.405 118.478C355.895 119.306 357.897 119.154 360.768 118.478C363.639 117.803 363.299 118.91 364.856 120.912C366.414 122.913 370.757 138.104 370.757 138.104C370.757 138.104 364.674 138.621 357.884 134.588C351.095 130.554 334.882 119.008 335.101 115.278C335.32 111.549 336.64 114.475 340.996 115.759C345.352 117.043 351.405 118.478 351.405 118.478Z" fill="#88D1C3"/>
    <path d="M380.223 99.7523C373.136 95.8466 365.154 92.1904 360.573 93.1577C360.573 93.1577 358.225 88.8505 359.016 88.4855C359.807 88.1204 376.251 95.1044 379.408 97.4831C382.566 99.8618 380.223 99.7523 380.223 99.7523Z" fill="white"/>
    <path d="M361.942 106.804C365.745 107.847 369.433 109.274 372.947 111.062C375.685 112.529 376.78 113.082 376.598 114.384C376.415 115.686 373.106 123.321 371.518 124.179C369.93 125.036 367.509 123.728 366.651 121.648C365.793 119.567 365.836 118.466 363.189 115.315C360.543 112.164 355.877 106.384 361.942 106.804Z" fill="#88D1C3"/>
    <path d="M375.734 115.856C371.126 113.043 366.125 110.931 360.896 109.59L362.557 112.851L374.56 119.975L375.734 115.856Z" fill="white"/>
    <path d="M369.267 136.308C364.479 134.428 350.663 128.911 341.933 117.206C341.933 117.206 335.85 112.947 334.925 113.051C334 113.154 340.352 123.679 349.386 128.965C358.42 134.252 370.672 140.104 369.267 136.308Z" fill="white"/>
    <path d="M328.598 88.8688C323.731 97.1182 353.541 114.834 358.456 106.59C359.66 104.629 360.463 102.447 360.816 100.172C361.169 97.8978 361.067 95.5757 360.515 93.3411C359.962 91.1065 358.971 89.004 357.599 87.1559C356.226 85.3079 354.5 83.7512 352.521 82.5763C350.541 81.4015 348.348 80.6319 346.069 80.3125C343.789 79.9931 341.469 80.1301 339.242 80.7157C337.016 81.3012 334.929 82.3236 333.101 83.7233C331.274 85.123 329.743 86.8721 328.598 88.8688Z" fill="#88D1C3"/>
    <path d="M329.419 121.495C334.065 124.287 339.089 126.395 344.336 127.755V127.725C351.767 133.297 360.279 137.256 369.328 139.35C369.462 139.376 369.598 139.391 369.735 139.393C370.072 139.397 370.406 139.322 370.709 139.175C371.013 139.028 371.277 138.812 371.483 138.544C371.688 138.277 371.829 137.966 371.893 137.634C371.957 137.303 371.943 136.962 371.852 136.637L369.565 128.729C371.445 127.719 373.452 125.583 375.229 122.59C377.577 118.624 379.548 112.248 376.567 110.466C375.055 109.57 373.496 108.757 371.895 108.032L382.03 101.006C382.289 100.825 382.502 100.587 382.654 100.311C382.806 100.034 382.892 99.7268 382.906 99.4117C382.919 99.1028 382.86 98.7952 382.733 98.5133C382.606 98.2313 382.416 97.9828 382.176 97.7873C376.628 93.2672 367.32 87.8407 358.979 87.0315C356.738 83.7721 353.52 81.3087 349.788 79.9966C346.056 78.6846 342.004 78.5916 338.216 79.7312C327.473 76.4826 318.785 77.8332 315.488 83.278L310.676 91.3387C305.997 99.2474 314.21 112.479 329.419 121.495ZM333.83 81.5928C331.153 83.1914 328.919 85.4357 327.333 88.1205C324.291 93.2673 331.044 100.391 339.104 105.155C343.971 108.038 349.361 110.107 353.541 110.155C354.89 110.208 356.232 109.942 357.459 109.377L362.715 117.127C356.357 119.196 345.626 116.786 335.698 110.898C329.006 106.913 323.463 101.9 320.136 96.7775C317.015 91.9532 316.242 87.7007 317.97 84.7867C320.16 81.1426 326.189 79.9928 333.836 81.605L333.83 81.5928ZM359.29 99.6368C359.318 96.3772 358.271 93.1994 356.31 90.5949C354.35 87.9904 351.587 86.1044 348.447 85.2289C345.307 84.3534 341.966 84.537 338.941 85.7515C335.916 86.9659 333.376 89.1434 331.713 91.9471C331.441 92.4475 331.286 93.0028 331.258 93.5716C331.231 94.1404 331.332 94.7081 331.555 95.2323C330.435 93.833 328.841 91.357 329.863 89.6353C330.924 87.8362 332.33 86.2648 334 85.0118C335.671 83.7588 337.573 82.8491 339.597 82.335C340.953 81.9921 342.347 81.8245 343.746 81.8362C345.975 81.8696 348.172 82.3712 350.195 83.3085C352.217 84.2458 354.02 85.5978 355.486 87.2769C356.952 88.956 358.049 90.9245 358.706 93.0549C359.362 95.1852 359.563 97.4298 359.296 99.6429L359.29 99.6368ZM370.052 105.72C368.732 101.857 365.927 97.7083 361.894 93.7296C361.635 92.5293 361.258 91.3576 360.768 90.2315C367.113 91.4482 374.274 95.3661 379.347 99.2778L370.052 105.72ZM362.332 98.5113C364.359 100.808 365.983 103.43 367.138 106.268C365.269 105.782 363.365 105.444 361.443 105.258L360.798 105.167C361.716 103.064 362.238 100.81 362.338 98.5174L362.332 98.5113ZM369.309 122.11L367.302 120.893L366.584 118.399C366.308 117.45 365.885 116.551 365.331 115.734L360.087 108.008C360.421 108.05 360.756 108.105 361.097 108.142C364.686 108.574 368.397 109.012 375.089 112.972C375.436 113.489 375.156 116.963 372.722 121.063C372.582 121.3 372.442 121.495 372.303 121.714C371.945 122.142 371.44 122.421 370.887 122.495C370.334 122.569 369.774 122.434 369.315 122.116L369.309 122.11ZM336.519 114.736C343.74 118.618 351.119 120.741 357.203 120.82C359.509 120.885 361.809 120.548 363.998 119.822L368.683 136.193C360.878 134.313 343.941 127.737 336.525 114.742L336.519 114.736ZM334.499 120.917L335.685 118.91C336.709 120.333 337.831 121.683 339.044 122.949C337.529 122.365 336.008 121.684 334.505 120.923L334.499 120.917ZM329.511 118.076L332.425 113.161C333.003 114.487 333.671 115.771 334.426 117.005L332.674 119.962C332.066 119.64 331.5 119.305 330.922 118.958C330.447 118.678 329.985 118.374 329.517 118.107L329.511 118.076ZM324.808 114.761L328.063 109.285C329.03 110.028 330.034 110.751 331.062 111.451L327.789 116.963C326.759 116.249 325.767 115.517 324.814 114.767L324.808 114.761ZM320.422 110.904L323.64 105.483C324.522 106.329 325.465 107.156 326.444 107.971L323.196 113.447C322.228 112.631 321.292 111.767 320.428 110.91L320.422 110.904ZM316.455 106.347L319.6 101.042C320.385 102.034 321.225 103.013 322.143 103.98L318.949 109.364C318.068 108.404 317.238 107.399 316.461 106.353L316.455 106.347ZM313.194 100.598L316.127 95.6581C316.589 96.5975 317.105 97.5095 317.672 98.3896C317.86 98.6817 318.073 98.9676 318.28 99.2535L315.178 104.479C314.392 103.256 313.729 101.958 313.2 100.604L313.194 100.598ZM313.194 92.8475L314.411 90.7851C314.579 91.6475 314.813 92.4956 315.111 93.322L312.434 97.8299C312.097 96.1326 312.368 94.3708 313.2 92.8536L313.194 92.8475Z" fill="#4F457C"/>
    <path d="M406.285 81.8299C406.285 85.3767 401.692 88.2542 396.022 88.2542C390.352 88.2542 385.759 85.3767 385.759 81.8299V79.0254H406.285V81.8299Z" fill="#C6A35D"/>
    <path d="M396.022 85.4438C401.69 85.4438 406.285 82.5703 406.285 79.0256C406.285 75.4809 401.69 72.6074 396.022 72.6074C390.354 72.6074 385.759 75.4809 385.759 79.0256C385.759 82.5703 390.354 85.4438 396.022 85.4438Z" fill="#F2CE7E"/>
    <path d="M295.546 22.9479C298.454 24.9798 298.174 30.3942 294.937 35.0421C291.701 39.6899 286.7 41.8009 283.792 39.769L281.493 38.163L293.264 21.3418L295.546 22.9479Z" fill="#7996C9"/>
    <path d="M292.647 33.4861C295.897 28.8419 296.176 23.4297 293.272 21.3976C290.368 19.3654 285.379 21.4829 282.13 26.1271C278.88 30.7713 278.6 36.1835 281.505 38.2156C284.409 40.2478 289.398 38.1303 292.647 33.4861Z" fill="#88D1C3"/>
    <path d="M375.886 165.948C377.559 169.799 373.72 175.189 367.302 177.982C360.884 180.774 354.326 179.91 352.647 176.053L351.32 173.011L374.56 162.9L375.886 165.948Z" fill="#C6A35D"/>
    <path d="M365.977 174.945C372.395 172.153 376.237 166.763 374.559 162.906C372.881 159.048 366.318 158.184 359.9 160.976C353.483 163.768 349.641 169.158 351.319 173.016C352.997 176.873 359.56 177.737 365.977 174.945Z" fill="#F2CE7E"/>
    <path d="M255.668 150.21C252.839 147.691 254.877 140.786 260.218 134.8C265.56 128.814 272.185 125.991 275.014 128.516L277.958 131.138L258.612 152.838L255.668 150.21Z" fill="#C6A35D"/>
    <path d="M273.405 146.567C278.747 140.575 280.786 133.676 277.96 131.156C275.134 128.636 268.512 131.45 263.17 137.441C257.829 143.432 255.789 150.332 258.616 152.852C261.442 155.372 268.064 152.558 273.405 146.567Z" fill="#F2CE7E"/>
    <path d="M277.429 140.756C277.173 141.267 276.881 141.778 276.565 142.289C279.607 147.04 280.373 151.08 278.798 152.631C277.666 153.763 275.3 153.702 272.306 152.467C269.052 151.116 265.456 148.567 262.177 145.294C255.017 138.183 252.602 130.943 254.84 128.704C256.513 127.031 260.96 127.968 266.089 131.527C266.441 131.09 266.903 130.754 267.427 130.554C261.684 126.454 256.209 125.079 253.721 127.585C250.497 130.809 253.721 139.095 261.058 146.444C264.483 149.863 268.261 152.528 271.704 153.957C273.189 154.621 274.788 154.991 276.413 155.046C277.051 155.081 277.689 154.986 278.29 154.769C278.891 154.551 279.442 154.216 279.911 153.781C282.296 151.39 281.152 146.243 277.429 140.756Z" fill="#C6A35D"/>
    <path d="M365.033 56.9057C362.374 57.8669 358.56 54.0829 356.516 48.4434C354.472 42.8039 354.97 37.4565 357.629 36.4892L360.403 35.4854L367.807 55.9019L365.033 56.9057Z" fill="#4F457C"/>
    <path d="M367.812 55.8599C370.471 54.8952 370.969 49.5426 368.924 43.9048C366.879 38.2669 363.065 34.4787 360.405 35.4435C357.746 36.4083 357.248 41.7608 359.293 47.3986C361.339 53.0365 365.153 56.8247 367.812 55.8599Z" fill="#7996C9"/>
    <path d="M373.221 36.7631C372.004 35.3943 369.717 35.2118 366.815 36.2338C366.113 36.4847 365.426 36.7772 364.759 37.1099C365.196 37.5258 365.603 37.9731 365.976 38.4483C366.462 38.2232 366.937 38.0224 367.399 37.8399C369.541 37.0795 371.244 37.1038 371.956 37.8947C372.668 38.6855 372.503 40.3828 371.53 42.4269C370.107 45.1626 368.176 47.6029 365.842 49.6177C360.415 54.4846 355.001 56.0846 353.541 54.4542C352.829 53.6634 352.987 51.966 353.967 49.9219C354.814 48.2252 355.891 46.6531 357.166 45.2497C356.887 44.5451 356.789 43.7817 356.881 43.0292C355.076 44.8315 353.567 46.9072 352.409 49.1797C351.083 51.96 351.034 54.2413 352.257 55.604C352.656 56.0173 353.138 56.3399 353.673 56.5499C354.207 56.7598 354.78 56.8522 355.354 56.8208C358.426 56.8208 362.8 54.6976 366.992 50.9257C369.49 48.7581 371.554 46.1364 373.075 43.1996C374.383 40.4133 374.438 38.1319 373.221 36.7631Z" fill="#4F457C"/>
    <path d="M436.412 140.926C440.062 142.648 440.11 150.356 436.472 158.143C432.834 165.93 426.897 170.851 423.222 169.13L419.39 167.341L432.579 139.138L436.412 140.926Z" fill="#7996C9"/>
    <path d="M432.615 156.309C436.257 148.52 436.229 140.813 432.552 139.094C428.875 137.374 422.942 142.295 419.301 150.083C415.659 157.872 415.687 165.579 419.364 167.298C423.04 169.017 428.973 164.097 432.615 156.309Z" fill="#88D1C3"/>
    <path d="M407.697 153.063C407.557 155.691 409.674 158.192 413.659 160.096C414.623 160.56 415.615 160.967 416.628 161.312C416.61 160.45 416.657 159.588 416.768 158.733C416.05 158.471 415.356 158.198 414.723 157.893C411.785 156.488 410.082 154.742 410.161 153.215C410.24 151.688 412.126 150.137 415.192 149.048C418.702 147.831 423.338 147.265 428.247 147.527C438.693 148.081 445.792 151.962 445.622 155.095C445.543 156.622 443.663 158.179 440.597 159.262C438.014 160.118 435.327 160.62 432.609 160.753C432.18 161.753 431.504 162.628 430.644 163.296C434.303 163.3 437.939 162.725 441.418 161.592C445.579 160.12 447.946 157.857 448.11 155.229C448.195 153.684 447.502 152.187 446.176 150.885C443.061 147.77 436.478 145.489 428.399 145.063C423.18 144.783 418.203 145.373 414.407 146.724C410.203 148.172 407.837 150.429 407.697 153.063Z" fill="#7996C9"/>
    <path d="M412.977 115.527C412.768 115.527 412.566 115.444 412.418 115.296C412.27 115.147 412.187 114.946 412.187 114.737V112.023C412.187 111.919 412.207 111.817 412.247 111.721C412.286 111.625 412.345 111.537 412.418 111.464C412.492 111.391 412.579 111.332 412.675 111.293C412.771 111.253 412.873 111.232 412.977 111.232C413.081 111.232 413.184 111.253 413.28 111.293C413.376 111.332 413.463 111.391 413.537 111.464C413.61 111.537 413.668 111.625 413.708 111.721C413.748 111.817 413.768 111.919 413.768 112.023V114.724C413.77 114.829 413.751 114.933 413.712 115.031C413.673 115.128 413.615 115.217 413.541 115.292C413.467 115.366 413.38 115.426 413.283 115.466C413.186 115.507 413.082 115.527 412.977 115.527Z" fill="#88D1C3"/>
    <path d="M418.848 118.673H416.153C415.943 118.673 415.742 118.589 415.594 118.441C415.446 118.293 415.362 118.091 415.362 117.882C415.362 117.672 415.446 117.471 415.594 117.322C415.742 117.174 415.943 117.091 416.153 117.091H418.848C419.058 117.091 419.259 117.174 419.407 117.322C419.556 117.471 419.639 117.672 419.639 117.882C419.639 118.091 419.556 118.293 419.407 118.441C419.259 118.589 419.058 118.673 418.848 118.673Z" fill="#88D1C3"/>
    <path d="M412.977 124.525C412.768 124.525 412.566 124.442 412.418 124.293C412.27 124.145 412.187 123.944 412.187 123.734V121.033C412.187 120.929 412.207 120.826 412.247 120.73C412.286 120.634 412.345 120.547 412.418 120.474C412.492 120.4 412.579 120.342 412.675 120.302C412.771 120.263 412.873 120.242 412.977 120.242C413.081 120.242 413.184 120.263 413.28 120.302C413.376 120.342 413.463 120.4 413.537 120.474C413.61 120.547 413.668 120.634 413.708 120.73C413.748 120.826 413.768 120.929 413.768 121.033V123.734C413.768 123.944 413.685 124.145 413.537 124.293C413.388 124.442 413.187 124.525 412.977 124.525Z" fill="#88D1C3"/>
    <path d="M409.826 118.673H407.131C406.921 118.673 406.72 118.589 406.572 118.441C406.424 118.293 406.34 118.091 406.34 117.882C406.34 117.672 406.424 117.471 406.572 117.322C406.72 117.174 406.921 117.091 407.131 117.091H409.826C410.036 117.091 410.237 117.174 410.385 117.322C410.534 117.471 410.617 117.672 410.617 117.882C410.617 118.091 410.534 118.293 410.385 118.441C410.237 118.589 410.036 118.673 409.826 118.673Z" fill="#88D1C3"/>
    <path d="M322.149 146.274C321.94 146.274 321.739 146.191 321.59 146.042C321.442 145.894 321.359 145.693 321.359 145.483V141.115C321.359 140.905 321.442 140.704 321.59 140.556C321.739 140.408 321.94 140.324 322.149 140.324C322.359 140.324 322.56 140.408 322.709 140.556C322.857 140.704 322.94 140.905 322.94 141.115V145.483C322.94 145.693 322.857 145.894 322.709 146.042C322.56 146.191 322.359 146.274 322.149 146.274Z" fill="#7996C9"/>
    <path d="M327.996 149.425H325.295C325.085 149.425 324.884 149.342 324.735 149.194C324.587 149.046 324.504 148.844 324.504 148.635C324.504 148.425 324.587 148.224 324.735 148.075C324.884 147.927 325.085 147.844 325.295 147.844H327.996C328.205 147.844 328.407 147.927 328.555 148.075C328.703 148.224 328.787 148.425 328.787 148.635C328.787 148.844 328.703 149.046 328.555 149.194C328.407 149.342 328.205 149.425 327.996 149.425Z" fill="#7996C9"/>
    <path d="M322.149 156.938C321.94 156.938 321.739 156.855 321.59 156.706C321.442 156.558 321.359 156.357 321.359 156.147V151.779C321.359 151.569 321.442 151.368 321.59 151.22C321.739 151.072 321.94 150.988 322.149 150.988C322.359 150.988 322.56 151.072 322.709 151.22C322.857 151.368 322.94 151.569 322.94 151.779V156.147C322.94 156.357 322.857 156.558 322.709 156.706C322.56 156.855 322.359 156.938 322.149 156.938Z" fill="#7996C9"/>
    <path d="M318.998 149.425H316.297C316.087 149.425 315.886 149.342 315.738 149.194C315.589 149.046 315.506 148.844 315.506 148.635C315.506 148.425 315.589 148.224 315.738 148.075C315.886 147.927 316.087 147.844 316.297 147.844H318.998C319.208 147.844 319.409 147.927 319.557 148.075C319.706 148.224 319.789 148.425 319.789 148.635C319.789 148.844 319.706 149.046 319.557 149.194C319.409 149.342 319.208 149.425 318.998 149.425Z" fill="#7996C9"/>
    <path d="M443.596 73.1978C443.386 73.1978 443.185 73.1145 443.037 72.9662C442.888 72.8178 442.805 72.6167 442.805 72.4069V68.0389C442.805 67.935 442.826 67.8322 442.865 67.7362C442.905 67.6403 442.963 67.5531 443.037 67.4797C443.11 67.4062 443.197 67.348 443.293 67.3082C443.389 67.2685 443.492 67.248 443.596 67.248C443.7 67.248 443.803 67.2685 443.899 67.3082C443.995 67.348 444.082 67.4062 444.155 67.4797C444.229 67.5531 444.287 67.6403 444.327 67.7362C444.366 67.8322 444.387 67.935 444.387 68.0389V72.4069C444.387 72.6167 444.304 72.8178 444.155 72.9662C444.007 73.1145 443.806 73.1978 443.596 73.1978Z" fill="#7996C9"/>
    <path d="M449.443 76.3483H446.742C446.532 76.3483 446.331 76.265 446.182 76.1167C446.034 75.9684 445.951 75.7672 445.951 75.5575C445.951 75.3477 446.034 75.1465 446.182 74.9982C446.331 74.8499 446.532 74.7666 446.742 74.7666H449.443C449.652 74.7666 449.854 74.8499 450.002 74.9982C450.15 75.1465 450.233 75.3477 450.233 75.5575C450.233 75.7672 450.15 75.9684 450.002 76.1167C449.854 76.265 449.652 76.3483 449.443 76.3483Z" fill="#7996C9"/>
    <path d="M443.596 83.8619C443.386 83.8619 443.185 83.7785 443.037 83.6302C442.888 83.4819 442.805 83.2807 442.805 83.071V78.703C442.805 78.5991 442.826 78.4963 442.865 78.4003C442.905 78.3044 442.963 78.2172 443.037 78.1438C443.11 78.0703 443.197 78.012 443.293 77.9723C443.389 77.9326 443.492 77.9121 443.596 77.9121C443.7 77.9121 443.803 77.9326 443.899 77.9723C443.995 78.012 444.082 78.0703 444.155 78.1438C444.229 78.2172 444.287 78.3044 444.327 78.4003C444.366 78.4963 444.387 78.5991 444.387 78.703V83.071C444.387 83.2807 444.304 83.4819 444.155 83.6302C444.007 83.7785 443.806 83.8619 443.596 83.8619Z" fill="#7996C9"/>
    <path d="M440.445 76.3483H437.744C437.534 76.3483 437.333 76.265 437.185 76.1167C437.036 75.9684 436.953 75.7672 436.953 75.5575C436.953 75.3477 437.036 75.1465 437.185 74.9982C437.333 74.8499 437.534 74.7666 437.744 74.7666H440.445C440.655 74.7666 440.856 74.8499 441.004 74.9982C441.153 75.1465 441.236 75.3477 441.236 75.5575C441.236 75.7672 441.153 75.9684 441.004 76.1167C440.856 76.265 440.655 76.3483 440.445 76.3483Z" fill="#7996C9"/>
    <path d="M394.434 41.1368C394.225 41.1368 394.024 41.0535 393.875 40.9052C393.727 40.7569 393.644 40.5557 393.644 40.346V38.162C393.644 37.9522 393.727 37.7511 393.875 37.6028C394.024 37.4544 394.225 37.3711 394.434 37.3711C394.644 37.3711 394.845 37.4544 394.994 37.6028C395.142 37.7511 395.225 37.9522 395.225 38.162V40.346C395.225 40.5557 395.142 40.7569 394.994 40.9052C394.845 41.0535 394.644 41.1368 394.434 41.1368Z" fill="#88D1C3"/>
    <path d="M398.997 43.5154H396.813C396.604 43.5154 396.402 43.432 396.254 43.2837C396.106 43.1354 396.022 42.9342 396.022 42.7245C396.022 42.5147 396.106 42.3136 396.254 42.1653C396.402 42.0169 396.604 41.9336 396.813 41.9336H398.997C399.207 41.9336 399.408 42.0169 399.557 42.1653C399.705 42.3136 399.788 42.5147 399.788 42.7245C399.788 42.9342 399.705 43.1354 399.557 43.2837C399.408 43.432 399.207 43.5154 398.997 43.5154Z" fill="#88D1C3"/>
    <path d="M394.434 48.0783C394.225 48.0783 394.024 47.9949 393.875 47.8466C393.727 47.6983 393.644 47.4971 393.644 47.2874V45.1034C393.644 44.9995 393.664 44.8967 393.704 44.8007C393.744 44.7048 393.802 44.6176 393.875 44.5441C393.949 44.4707 394.036 44.4124 394.132 44.3727C394.228 44.3329 394.331 44.3125 394.434 44.3125C394.538 44.3125 394.641 44.3329 394.737 44.3727C394.833 44.4124 394.92 44.4707 394.994 44.5441C395.067 44.6176 395.125 44.7048 395.165 44.8007C395.205 44.8967 395.225 44.9995 395.225 45.1034V47.2874C395.225 47.4971 395.142 47.6983 394.994 47.8466C394.845 47.9949 394.644 48.0783 394.434 48.0783Z" fill="#88D1C3"/>
    <path d="M392.08 43.5154H389.896C389.687 43.5154 389.485 43.432 389.337 43.2837C389.189 43.1354 389.105 42.9342 389.105 42.7245C389.105 42.5147 389.189 42.3136 389.337 42.1653C389.485 42.0169 389.687 41.9336 389.896 41.9336H392.08C392.29 41.9336 392.491 42.0169 392.64 42.1653C392.788 42.3136 392.871 42.5147 392.871 42.7245C392.871 42.9342 392.788 43.1354 392.64 43.2837C392.491 43.432 392.29 43.5154 392.08 43.5154Z" fill="#88D1C3"/>
    <path d="M254.062 98.6759C253.852 98.6759 253.651 98.5925 253.502 98.4442C253.354 98.2959 253.271 98.0947 253.271 97.885V95.701C253.261 95.5917 253.274 95.4816 253.31 95.3777C253.345 95.2738 253.401 95.1784 253.475 95.0975C253.55 95.0166 253.64 94.952 253.74 94.9078C253.84 94.8636 253.949 94.8408 254.059 94.8408C254.168 94.8408 254.277 94.8636 254.377 94.9078C254.478 94.952 254.568 95.0166 254.642 95.0975C254.716 95.1784 254.772 95.2738 254.808 95.3777C254.843 95.4816 254.856 95.5917 254.846 95.701V97.885C254.847 98.0937 254.764 98.2939 254.617 98.4421C254.47 98.5902 254.27 98.6743 254.062 98.6759Z" fill="#88D1C3"/>
    <path d="M258.624 101.073H256.416C256.206 101.073 256.005 100.99 255.857 100.841C255.709 100.693 255.625 100.492 255.625 100.282C255.625 100.072 255.709 99.8712 255.857 99.7228C256.005 99.5745 256.206 99.4912 256.416 99.4912H258.6C258.81 99.4912 259.011 99.5745 259.159 99.7228C259.308 99.8712 259.391 100.072 259.391 100.282C259.391 100.492 259.308 100.693 259.159 100.841C259.011 100.99 258.81 101.073 258.6 101.073H258.624Z" fill="#88D1C3"/>
    <path d="M254.062 105.617C253.852 105.617 253.651 105.534 253.502 105.385C253.354 105.237 253.271 105.036 253.271 104.826V102.648C253.261 102.539 253.274 102.429 253.31 102.325C253.345 102.221 253.401 102.126 253.475 102.045C253.55 101.964 253.64 101.899 253.74 101.855C253.84 101.811 253.949 101.788 254.059 101.788C254.168 101.788 254.277 101.811 254.377 101.855C254.478 101.899 254.568 101.964 254.642 102.045C254.716 102.126 254.772 102.221 254.808 102.325C254.843 102.429 254.856 102.539 254.846 102.648V104.826C254.847 105.035 254.764 105.235 254.617 105.383C254.47 105.531 254.27 105.615 254.062 105.617Z" fill="#88D1C3"/>
    <path d="M251.677 101.073H249.499C249.289 101.073 249.088 100.99 248.94 100.841C248.792 100.693 248.708 100.492 248.708 100.282C248.708 100.072 248.792 99.8712 248.94 99.7228C249.088 99.5745 249.289 99.4912 249.499 99.4912H251.677C251.887 99.4912 252.088 99.5745 252.236 99.7228C252.385 99.8712 252.468 100.072 252.468 100.282C252.468 100.492 252.385 100.693 252.236 100.841C252.088 100.99 251.887 101.073 251.677 101.073Z" fill="#88D1C3"/>
    <path d="M329.516 58.7918C329.307 58.7918 329.106 58.7085 328.957 58.5602C328.809 58.4119 328.726 58.2107 328.726 58.0009V52.2215C328.726 52.0118 328.809 51.8106 328.957 51.6623C329.106 51.514 329.307 51.4307 329.516 51.4307C329.726 51.4307 329.927 51.514 330.076 51.6623C330.224 51.8106 330.307 52.0118 330.307 52.2215V58.0009C330.307 58.1048 330.287 58.2076 330.247 58.3036C330.207 58.3996 330.149 58.4867 330.076 58.5602C330.002 58.6336 329.915 58.6919 329.819 58.7316C329.723 58.7714 329.62 58.7918 329.516 58.7918Z" fill="#88D1C3"/>
    <path d="M332.406 55.902H326.627C326.417 55.902 326.216 55.8187 326.068 55.6704C325.919 55.5221 325.836 55.3209 325.836 55.1112C325.836 54.9014 325.919 54.7003 326.068 54.5519C326.216 54.4036 326.417 54.3203 326.627 54.3203H332.406C332.616 54.3203 332.817 54.4036 332.965 54.5519C333.114 54.7003 333.197 54.9014 333.197 55.1112C333.197 55.3209 333.114 55.5221 332.965 55.6704C332.817 55.8187 332.616 55.902 332.406 55.902Z" fill="#88D1C3"/>
    <path d="M308.227 83.0403L306.814 85.4209L313.648 89.4749L315.06 87.0943L308.227 83.0403Z" fill="#4F457C"/>
    <path d="M304.86 74.6394C304.542 74.6395 304.237 74.5155 304.01 74.2939C303.783 74.0723 303.651 73.7705 303.643 73.4531V57.6358C303.704 57.367 303.855 57.127 304.071 56.955C304.286 56.7831 304.554 56.6895 304.829 56.6895C305.105 56.6895 305.373 56.7831 305.588 56.955C305.804 57.127 305.954 57.367 306.016 57.6358V73.4531C306.008 73.7603 305.885 74.0533 305.671 74.2733C305.456 74.4934 305.167 74.6242 304.86 74.6394Z" fill="#4F457C"/>
    <path d="M298.004 77.0183C297.69 77.0155 297.389 76.8912 297.164 76.6716L287.321 66.8222C287.099 66.6004 286.974 66.2995 286.974 65.9857C286.974 65.672 287.099 65.3711 287.321 65.1492C287.543 64.9274 287.844 64.8027 288.157 64.8027C288.471 64.8027 288.772 64.9274 288.994 65.1492L298.843 74.9925C298.996 75.1633 299.097 75.3738 299.136 75.5996C299.174 75.8255 299.148 76.0576 299.06 76.2693C298.972 76.481 298.827 76.6636 298.64 76.7961C298.453 76.9286 298.232 77.0056 298.004 77.0183Z" fill="#4F457C"/>
    <path d="M311.716 77.0183C311.487 77.0056 311.267 76.9286 311.08 76.7961C310.893 76.6636 310.747 76.481 310.66 76.2693C310.572 76.0576 310.546 75.8255 310.584 75.5996C310.622 75.3737 310.724 75.1633 310.877 74.9925L318.572 67.3028C318.798 67.097 319.095 66.9862 319.4 66.9935C319.705 67.0008 319.996 67.1257 320.212 67.3422C320.428 67.5586 320.551 67.8499 320.558 68.1553C320.564 68.4608 320.452 68.7569 320.245 68.9819L312.556 76.6716C312.331 76.8912 312.03 77.0155 311.716 77.0183Z" fill="#4F457C"/>
    <path d="M295.625 83.8745H280.659C280.39 83.8133 280.15 83.6625 279.978 83.447C279.807 83.2315 279.713 82.964 279.713 82.6883C279.713 82.4126 279.807 82.145 279.978 81.9295C280.15 81.714 280.39 81.5632 280.659 81.502H295.625C295.894 81.5632 296.134 81.714 296.306 81.9295C296.478 82.145 296.571 82.4126 296.571 82.6883C296.571 82.964 296.478 83.2315 296.306 83.447C296.134 83.6625 295.894 83.8133 295.625 83.8745Z" fill="#4F457C"/>
    <path d="M287.552 101.182C287.324 101.168 287.104 101.091 286.918 100.958C286.732 100.825 286.587 100.642 286.5 100.431C286.413 100.219 286.388 99.9874 286.426 99.762C286.465 99.5367 286.566 99.3267 286.719 99.1563L297.176 88.7047C297.41 88.5567 297.687 88.4926 297.962 88.523C298.236 88.5534 298.493 88.6765 298.688 88.872C298.884 89.0675 299.007 89.3237 299.037 89.5985C299.068 89.8733 299.004 90.1503 298.855 90.3838L288.404 100.835C288.176 101.058 287.87 101.182 287.552 101.182Z" fill="#4F457C"/>
    <path d="M304.86 106.019C304.537 106.019 304.228 105.89 303.999 105.662C303.771 105.434 303.643 105.125 303.643 104.802V91.9473C303.704 91.6785 303.855 91.4385 304.071 91.2665C304.286 91.0946 304.554 91.001 304.829 91.001C305.105 91.001 305.373 91.0946 305.588 91.2665C305.804 91.4385 305.954 91.6785 306.016 91.9473V104.857C306.002 105.16 305.877 105.447 305.663 105.662C305.449 105.876 305.163 106.004 304.86 106.019Z" fill="#4F457C"/>
    <path d="M255.65 62.241C256.943 62.241 257.992 61.1924 257.992 59.8988C257.992 58.6053 256.943 57.5566 255.65 57.5566C254.356 57.5566 253.308 58.6053 253.308 59.8988C253.308 61.1924 254.356 62.241 255.65 62.241Z" fill="#88D1C3"/>
    <path d="M399.63 178.322C400.575 178.322 401.34 177.557 401.34 176.613C401.34 175.669 400.575 174.903 399.63 174.903C398.686 174.903 397.921 175.669 397.921 176.613C397.921 177.557 398.686 178.322 399.63 178.322Z" fill="#88D1C3"/>
    <path d="M312.872 174.903C313.346 174.903 313.73 174.519 313.73 174.045C313.73 173.572 313.346 173.188 312.872 173.188C312.398 173.188 312.014 173.572 312.014 174.045C312.014 174.519 312.398 174.903 312.872 174.903Z" fill="#88D1C3"/>
    <path d="M226.576 148.701C227.05 148.701 227.434 148.317 227.434 147.843C227.434 147.369 227.05 146.985 226.576 146.985C226.102 146.985 225.718 147.369 225.718 147.843C225.718 148.317 226.102 148.701 226.576 148.701Z" fill="#88D1C3"/>
    <path d="M271.832 177.416C273.219 177.416 274.344 176.291 274.344 174.903C274.344 173.516 273.219 172.391 271.832 172.391C270.444 172.391 269.319 173.516 269.319 174.903C269.319 176.291 270.444 177.416 271.832 177.416Z" fill="#88D1C3"/>
    <path d="M462.863 124.342C463.794 124.342 464.548 123.587 464.548 122.657C464.548 121.726 463.794 120.972 462.863 120.972C461.932 120.972 461.178 121.726 461.178 122.657C461.178 123.587 461.932 124.342 462.863 124.342Z" fill="#88D1C3"/>
    <path d="M431.666 32.663C432.829 32.663 433.771 31.7206 433.771 30.5581C433.771 29.3955 432.829 28.4531 431.666 28.4531C430.504 28.4531 429.562 29.3955 429.562 30.5581C429.562 31.7206 430.504 32.663 431.666 32.663Z" fill="#88D1C3"/>
    <path d="M304.86 87.086C307.289 87.086 309.258 85.1167 309.258 82.6875C309.258 80.2583 307.289 78.2891 304.86 78.2891C302.431 78.2891 300.461 80.2583 300.461 82.6875C300.461 85.1167 302.431 87.086 304.86 87.086Z" fill="#F2CE7E"/>
    <path d="M256.836 2.74962C257.404 2.74962 257.864 2.28931 257.864 1.72149C257.864 1.15367 257.404 0.693359 256.836 0.693359C256.268 0.693359 255.808 1.15367 255.808 1.72149C255.808 2.28931 256.268 2.74962 256.836 2.74962Z" fill="#88D1C3"/>
</svg>
