<svg width="602" height="193" viewBox="0 0 602 193" fill="none" xmlns="http://www.w3.org/2000/svg">
<path opacity="0.5" d="M242.451 133.398C242.231 133.398 242.061 133.568 242.061 133.788C242.061 134.008 242.231 134.178 242.451 134.178C242.671 134.178 242.841 134.008 242.841 133.788C242.841 133.568 242.671 133.398 242.451 133.398Z" fill="url(#paint0_linear_8516_11073)"/>
<path opacity="0.5" d="M255.039 150.328C255.315 150.328 255.539 150.104 255.539 149.828C255.539 149.552 255.315 149.328 255.039 149.328C254.763 149.328 254.539 149.552 254.539 149.828C254.539 150.104 254.763 150.328 255.039 150.328Z" fill="url(#paint1_linear_8516_11073)"/>
<path opacity="0.5" d="M207.92 134.32C208.428 134.32 208.84 133.909 208.84 133.4C208.84 132.892 208.428 132.48 207.92 132.48C207.412 132.48 207 132.892 207 133.4C207 133.909 207.412 134.32 207.92 134.32Z" fill="url(#paint2_linear_8516_11073)"/>
<path d="M216.91 165.148H211V170.428H216.91V165.148Z" fill="#8D86EB"/>
<path d="M243.18 165.148H237.27V170.428H243.18V165.148Z" fill="#EBF0FF"/>
<path d="M225.59 165.148H219.91V170.428H225.59V165.148Z" fill="#A5A5F9"/>
<path d="M234.27 165.148H228.59V170.428H234.27V165.148Z" fill="#A5A5F9"/>
<path d="M221.09 173.461H215.18V178.741H221.09V173.461Z" fill="#8D86EB"/>
<path d="M247.359 173.461H241.449V178.741H247.359V173.461Z" fill="#EBF0FF"/>
<path d="M238.45 173.461H232.77V178.741H238.45V173.461Z" fill="#A5A5F9"/>
<path d="M229.77 173.461H224.09V178.741H229.77V173.461Z" fill="#A5A5F9"/>
<path d="M216.91 148.591H215.18C214.97 148.591 214.77 148.571 214.58 148.531H211.01V153.811H216.92V148.591H216.91Z" fill="#8D86EB"/>
<path d="M243.18 148.59H237.27V153.81H243.18V148.59Z" fill="#EBF0FF"/>
<path d="M234.27 148.59H228.59V153.81H234.27V148.59Z" fill="#A5A5F9"/>
<path d="M225.59 148.59H219.91V153.81H225.59V148.59Z" fill="#A5A5F9"/>
<path d="M246.18 148.59H247.36C249.02 148.59 250.36 147.25 250.36 145.59V140.31C250.36 138.65 249.02 137.31 247.36 137.31H246.18C246.18 137.31 246.18 137.29 246.18 137.28V132C246.18 130.34 244.84 129 243.18 129H211C209.34 129 208 130.34 208 132V137.28C208 138.94 209.34 140.28 211 140.28H212.18C212.18 140.28 212.18 140.3 212.18 140.31V145.53H211C209.34 145.53 208 146.87 208 148.53V153.81C208 155.47 209.34 156.81 211 156.81H212.18C212.18 156.81 212.18 156.83 212.18 156.84V162.12C212.18 162.12 212.18 162.14 212.18 162.15H211C209.34 162.15 208 163.49 208 165.15V170.43C208 172.09 209.34 173.43 211 173.43H212.18C212.18 173.43 212.18 173.45 212.18 173.46V178.74C212.18 180.4 213.52 181.74 215.18 181.74H247.36C249.02 181.74 250.36 180.4 250.36 178.74V173.46C250.36 171.8 249.02 170.46 247.36 170.46H246.18C246.18 170.46 246.18 170.44 246.18 170.43V165.15C246.18 165.15 246.18 165.13 246.18 165.12H247.36C249.02 165.12 250.36 163.78 250.36 162.12V156.84C250.36 155.18 249.02 153.84 247.36 153.84H246.18C246.18 153.84 246.18 153.82 246.18 153.81V148.59ZM247.36 162.12H241.45V156.84H247.36V162.12ZM211 165.15H216.91V170.43H211V165.15ZM215.18 140.31H221.09V145.59H215.18V140.31ZM228.59 170.43V165.15H234.27V170.43H228.59ZM225.59 170.43H219.91V165.15H225.59V170.43ZM224.09 173.46H229.77V178.74H224.09V173.46ZM232.77 173.46H238.45V178.74H232.77V173.46ZM232.77 145.59V140.31H238.45V145.59H232.77ZM224.09 140.31H229.77V145.59H224.09V140.31ZM234.27 137.28H228.59V132H234.27V137.28ZM225.59 137.28H219.91V132H225.59V137.28ZM232.77 156.84H238.45V162.12H232.77V156.84ZM229.77 162.12H224.09V156.84H229.77V162.12ZM228.59 153.81V148.59H234.27V153.81H228.59ZM225.59 153.81H219.91V148.59H225.59V153.81ZM247.36 145.59H241.45V140.31H247.36V145.59ZM243.18 137.28H237.27V132H243.18V137.28ZM211 132H216.91V137.28H211V132ZM211 148.53H214.57C214.77 148.57 214.97 148.59 215.17 148.59H216.9V153.81H210.99V148.53H211ZM215.18 156.84H221.09V162.12H215.18V156.84ZM215.18 173.46H221.09V178.74H215.18V173.46ZM247.36 178.74H241.45V173.46H247.36V178.74ZM243.18 170.43H237.27V165.15H243.18V170.43ZM237.27 153.81V148.59H243.18V153.81H237.27Z" fill="#38237C"/>
<path d="M221.09 156.84H215.18V162.12H221.09V156.84Z" fill="#8D86EB"/>
<path d="M247.359 156.84H241.449V162.12H247.359V156.84Z" fill="#EBF0FF"/>
<path d="M229.77 156.84H224.09V162.12H229.77V156.84Z" fill="#A5A5F9"/>
<path d="M238.45 156.84H232.77V162.12H238.45V156.84Z" fill="#A5A5F9"/>
<path d="M216.91 132H211V137.28H216.91V132Z" fill="#8D86EB"/>
<path d="M243.18 132H237.27V137.28H243.18V132Z" fill="#EBF0FF"/>
<path d="M225.59 132H219.91V137.28H225.59V132Z" fill="#A5A5F9"/>
<path d="M234.27 132H228.59V137.28H234.27V132Z" fill="#A5A5F9"/>
<path d="M221.09 140.309H215.18V145.589H221.09V140.309Z" fill="#8D86EB"/>
<path d="M247.359 140.309H241.449V145.589H247.359V140.309Z" fill="#EBF0FF"/>
<path d="M238.45 140.309H232.77V145.589H238.45V140.309Z" fill="#A5A5F9"/>
<path d="M229.77 140.309H224.09V145.589H229.77V140.309Z" fill="#A5A5F9"/>
<path opacity="0.5" d="M304.451 133.398C304.231 133.398 304.061 133.568 304.061 133.788C304.061 134.008 304.231 134.178 304.451 134.178C304.671 134.178 304.841 134.008 304.841 133.788C304.841 133.568 304.671 133.398 304.451 133.398Z" fill="url(#paint3_linear_8516_11073)"/>
<path opacity="0.5" d="M317.039 150.328C317.315 150.328 317.539 150.104 317.539 149.828C317.539 149.552 317.315 149.328 317.039 149.328C316.763 149.328 316.539 149.552 316.539 149.828C316.539 150.104 316.763 150.328 317.039 150.328Z" fill="url(#paint4_linear_8516_11073)"/>
<path opacity="0.5" d="M269.92 134.32C270.428 134.32 270.84 133.909 270.84 133.4C270.84 132.892 270.428 132.48 269.92 132.48C269.412 132.48 269 132.892 269 133.4C269 133.909 269.412 134.32 269.92 134.32Z" fill="url(#paint5_linear_8516_11073)"/>
<path d="M278.91 165.148H273V170.428H278.91V165.148Z" fill="#8D86EB"/>
<path d="M305.18 165.148H299.27V170.428H305.18V165.148Z" fill="#EBF0FF"/>
<path d="M287.59 165.148H281.91V170.428H287.59V165.148Z" fill="#A5A5F9"/>
<path d="M296.27 165.148H290.59V170.428H296.27V165.148Z" fill="#A5A5F9"/>
<path d="M283.09 173.461H277.18V178.741H283.09V173.461Z" fill="#8D86EB"/>
<path d="M309.359 173.461H303.449V178.741H309.359V173.461Z" fill="#EBF0FF"/>
<path d="M300.45 173.461H294.77V178.741H300.45V173.461Z" fill="#A5A5F9"/>
<path d="M291.77 173.461H286.09V178.741H291.77V173.461Z" fill="#A5A5F9"/>
<path d="M278.91 148.591H277.18C276.97 148.591 276.77 148.571 276.58 148.531H273.01V153.811H278.92V148.591H278.91Z" fill="#8D86EB"/>
<path d="M305.18 148.59H299.27V153.81H305.18V148.59Z" fill="#EBF0FF"/>
<path d="M296.27 148.59H290.59V153.81H296.27V148.59Z" fill="#A5A5F9"/>
<path d="M287.59 148.59H281.91V153.81H287.59V148.59Z" fill="#A5A5F9"/>
<path d="M308.18 148.59H309.36C311.02 148.59 312.36 147.25 312.36 145.59V140.31C312.36 138.65 311.02 137.31 309.36 137.31H308.18C308.18 137.31 308.18 137.29 308.18 137.28V132C308.18 130.34 306.84 129 305.18 129H273C271.34 129 270 130.34 270 132V137.28C270 138.94 271.34 140.28 273 140.28H274.18C274.18 140.28 274.18 140.3 274.18 140.31V145.53H273C271.34 145.53 270 146.87 270 148.53V153.81C270 155.47 271.34 156.81 273 156.81H274.18C274.18 156.81 274.18 156.83 274.18 156.84V162.12C274.18 162.12 274.18 162.14 274.18 162.15H273C271.34 162.15 270 163.49 270 165.15V170.43C270 172.09 271.34 173.43 273 173.43H274.18C274.18 173.43 274.18 173.45 274.18 173.46V178.74C274.18 180.4 275.52 181.74 277.18 181.74H309.36C311.02 181.74 312.36 180.4 312.36 178.74V173.46C312.36 171.8 311.02 170.46 309.36 170.46H308.18C308.18 170.46 308.18 170.44 308.18 170.43V165.15C308.18 165.15 308.18 165.13 308.18 165.12H309.36C311.02 165.12 312.36 163.78 312.36 162.12V156.84C312.36 155.18 311.02 153.84 309.36 153.84H308.18C308.18 153.84 308.18 153.82 308.18 153.81V148.59ZM309.36 162.12H303.45V156.84H309.36V162.12ZM273 165.15H278.91V170.43H273V165.15ZM277.18 140.31H283.09V145.59H277.18V140.31ZM290.59 170.43V165.15H296.27V170.43H290.59ZM287.59 170.43H281.91V165.15H287.59V170.43ZM286.09 173.46H291.77V178.74H286.09V173.46ZM294.77 173.46H300.45V178.74H294.77V173.46ZM294.77 145.59V140.31H300.45V145.59H294.77ZM286.09 140.31H291.77V145.59H286.09V140.31ZM296.27 137.28H290.59V132H296.27V137.28ZM287.59 137.28H281.91V132H287.59V137.28ZM294.77 156.84H300.45V162.12H294.77V156.84ZM291.77 162.12H286.09V156.84H291.77V162.12ZM290.59 153.81V148.59H296.27V153.81H290.59ZM287.59 153.81H281.91V148.59H287.59V153.81ZM309.36 145.59H303.45V140.31H309.36V145.59ZM305.18 137.28H299.27V132H305.18V137.28ZM273 132H278.91V137.28H273V132ZM273 148.53H276.57C276.77 148.57 276.97 148.59 277.17 148.59H278.9V153.81H272.99V148.53H273ZM277.18 156.84H283.09V162.12H277.18V156.84ZM277.18 173.46H283.09V178.74H277.18V173.46ZM309.36 178.74H303.45V173.46H309.36V178.74ZM305.18 170.43H299.27V165.15H305.18V170.43ZM299.27 153.81V148.59H305.18V153.81H299.27Z" fill="#38237C"/>
<path d="M283.09 156.84H277.18V162.12H283.09V156.84Z" fill="#8D86EB"/>
<path d="M309.359 156.84H303.449V162.12H309.359V156.84Z" fill="#EBF0FF"/>
<path d="M291.77 156.84H286.09V162.12H291.77V156.84Z" fill="#A5A5F9"/>
<path d="M300.45 156.84H294.77V162.12H300.45V156.84Z" fill="#A5A5F9"/>
<path d="M278.91 132H273V137.28H278.91V132Z" fill="#8D86EB"/>
<path d="M305.18 132H299.27V137.28H305.18V132Z" fill="#EBF0FF"/>
<path d="M287.59 132H281.91V137.28H287.59V132Z" fill="#A5A5F9"/>
<path d="M296.27 132H290.59V137.28H296.27V132Z" fill="#A5A5F9"/>
<path d="M283.09 140.309H277.18V145.589H283.09V140.309Z" fill="#8D86EB"/>
<path d="M309.359 140.309H303.449V145.589H309.359V140.309Z" fill="#EBF0FF"/>
<path d="M300.45 140.309H294.77V145.589H300.45V140.309Z" fill="#A5A5F9"/>
<path d="M291.77 140.309H286.09V145.589H291.77V140.309Z" fill="#A5A5F9"/>
<path d="M251.92 168.621H246.01V173.901H251.92V168.621Z" fill="#8D86EB"/>
<path d="M278.189 168.621H272.279V173.901H278.189V168.621Z" fill="#EBF0FF"/>
<path d="M260.6 168.621H254.92V173.901H260.6V168.621Z" fill="#A5A5F9"/>
<path d="M269.28 168.621H263.6V173.901H269.28V168.621Z" fill="#A5A5F9"/>
<path d="M251.92 152H246.01V157.28H251.92V152Z" fill="#8D86EB"/>
<path d="M278.189 152H272.279V157.28H278.189V152Z" fill="#EBF0FF"/>
<path d="M269.28 152H263.6V157.28H269.28V152Z" fill="#A5A5F9"/>
<path d="M260.6 152H254.92V157.28H260.6V152Z" fill="#A5A5F9"/>
<path d="M256.09 160.309H250.18V165.589H256.09V160.309Z" fill="#8D86EB"/>
<path d="M282.359 160.309H276.449V165.589H282.359V160.309Z" fill="#EBF0FF"/>
<path d="M273.45 160.309H267.77V165.589H273.45V160.309Z" fill="#A5A5F9"/>
<path d="M264.77 160.309H259.09V165.589H264.77V160.309Z" fill="#A5A5F9"/>
<path d="M282.36 157.31H281.18C281.18 157.31 281.18 157.29 281.18 157.28V152C281.18 150.34 279.84 149 278.18 149H246C244.34 149 243 150.34 243 152V157.28C243 158.94 244.34 160.28 246 160.28H247.18C247.18 160.28 247.18 160.3 247.18 160.31V165.59C247.18 165.59 247.18 165.61 247.18 165.62H246C244.34 165.62 243 166.96 243 168.62V173.9C243 175.56 244.34 176.9 246 176.9H278.18C279.84 176.9 281.18 175.56 281.18 173.9V168.62C281.18 168.62 281.18 168.6 281.18 168.59H282.36C284.02 168.59 285.36 167.25 285.36 165.59V160.31C285.36 158.65 284.02 157.31 282.36 157.31ZM282.36 165.59H276.45V160.31H282.36V165.59ZM246 168.62H251.91V173.9H246V168.62ZM254.91 168.62H260.59V173.9H254.91V168.62ZM263.59 168.62H269.27V173.9H263.59V168.62ZM264.77 160.31V165.59H259.09V160.31H264.77ZM267.77 160.31H273.45V165.59H267.77V160.31ZM269.27 157.28H263.59V152H269.27V157.28ZM260.59 157.28H254.91V152H260.59V157.28ZM278.18 157.28H272.27V152H278.18V157.28ZM246 152H251.91V157.28H246V152ZM250.18 160.31H256.09V165.59H250.18V160.31ZM278.18 173.9H272.27V168.62H278.18V173.9Z" fill="#38237C"/>
<path d="M359.56 156.749L413.07 180.159C414.08 180.599 414.54 181.779 414.1 182.789C413.77 183.539 413.04 183.989 412.27 183.989C412 183.989 411.73 183.939 411.47 183.819L411.08 183.649L391.52 182.989L338.33 158.109L333.06 159.109L324.21 160.879C324.01 160.919 323.81 160.929 323.61 160.909L306.81 164.099L301.25 162.909L268.06 178.959C267.98 178.999 267.9 179.019 267.82 179.049L259.67 183.529L212.17 172.649H197.46L144.72 152.109L118.93 165.589C118.93 165.589 118.83 165.619 118.78 165.649L109.93 170.449L88.22 169.569L65.93 183.679C65.6 183.889 52.36 191.809 52 191.809H433.78L359.6 156.749H359.56Z" fill="#C0DBFF"/>
<path d="M95.6814 164.84L88.1914 169.58L109.901 170.46L118.751 165.66C118.481 165.78 118.191 165.84 117.891 165.83L95.6714 164.84H95.6814Z" fill="white"/>
<path d="M333.051 159.112L338.331 158.102L391.521 182.992L411.081 183.652L348.101 156.102L333.051 159.112Z" fill="white"/>
<path d="M266.681 179.1L223.991 168.29H209.531C209.291 168.29 209.041 168.25 208.821 168.16L154.081 147.23L144.711 152.13L197.451 172.67H212.161L259.661 183.55L267.811 179.07C267.451 179.19 267.061 179.21 266.681 179.12V179.1Z" fill="white"/>
<path d="M301.23 162.908L306.79 164.098L323.59 160.898L308.63 159.328L301.23 162.908Z" fill="white"/>
<path d="M88.1913 169.57L95.6813 164.83L117.901 165.82C118.201 165.83 118.491 165.77 118.761 165.65C118.811 165.63 118.871 165.62 118.911 165.59L144.701 152.11L154.071 147.21L208.811 168.14C209.041 168.23 209.281 168.27 209.521 168.27H223.981L266.671 179.08C267.041 179.17 267.431 179.15 267.801 179.03C267.881 179 267.961 178.98 268.041 178.94L301.231 162.89L308.641 159.31L323.601 160.88C323.801 160.9 324.001 160.89 324.201 160.85L333.051 159.08L348.101 156.07L411.081 183.62L411.471 183.79C411.731 183.9 412.001 183.96 412.271 183.96C413.041 183.96 413.771 183.51 414.101 182.76C414.541 181.75 414.081 180.57 413.071 180.13L359.561 156.72L349.121 152.15C348.741 151.99 348.331 151.94 347.931 152.02L323.711 156.86L308.481 155.26C308.111 155.22 307.741 155.29 307.401 155.45L266.951 175.01L224.721 164.31C224.561 164.27 224.391 164.25 224.231 164.25H209.891L154.661 143.13C154.121 142.93 153.531 142.96 153.021 143.23L117.541 161.78L95.2313 160.78C94.8313 160.76 94.4213 160.87 94.0713 161.09L63.7613 180.27C62.8313 180.86 62.5513 182.1 63.1413 183.03C63.5213 183.63 64.1713 183.96 64.8313 183.96C65.2013 183.96 65.5613 183.86 65.9013 183.65L88.1913 169.54V169.57Z" fill="#38237C"/>
<path d="M65.2404 184.039C56.0704 184.039 47.6704 187.249 43.6504 192.129H591.81C596.66 192.129 600.7 188.669 601.61 184.089C601.11 184.069 600.61 184.039 600.09 184.039H65.2404Z" fill="url(#paint6_linear_8516_11073)"/>
<path d="M65.24 181.039C53.76 181.039 43.93 185.569 40 192.129H43.65C47.67 187.249 56.07 184.039 65.24 184.039H600.09C600.6 184.039 601.1 184.059 601.61 184.089C601.73 183.459 601.8 182.809 601.8 182.139V181.089C601.23 181.069 600.67 181.049 600.09 181.049H65.24V181.039Z" fill="#38237C"/>
<path d="M157.013 103.113C155.793 103.113 154.803 104.103 154.803 105.323C154.803 106.543 155.793 107.533 157.013 107.533C158.233 107.533 159.223 106.543 159.223 105.323C159.223 104.103 158.233 103.113 157.013 103.113Z" fill="#86D4C9"/>
<path d="M260.882 127.684C260.122 127.684 259.502 128.304 259.502 129.064C259.502 129.824 260.122 130.444 260.882 130.444C261.642 130.444 262.262 129.824 262.262 129.064C262.262 128.304 261.642 127.684 260.882 127.684Z" fill="#86D4C9"/>
<path d="M124.312 124.742C123.552 124.742 122.932 125.362 122.932 126.122C122.932 126.882 123.552 127.502 124.312 127.502C125.072 127.502 125.692 126.882 125.692 126.122C125.692 125.362 125.072 124.742 124.312 124.742Z" fill="#86D4C9"/>
<path d="M477.562 128.242C476.802 128.242 476.182 128.862 476.182 129.622C476.182 130.382 476.802 131.002 477.562 131.002C478.322 131.002 478.942 130.382 478.942 129.622C478.942 128.862 478.322 128.242 477.562 128.242Z" fill="#86D4C9"/>
<path d="M531.38 56C530.62 56 530 56.62 530 57.38C530 58.14 530.62 58.76 531.38 58.76C532.14 58.76 532.76 58.14 532.76 57.38C532.76 56.62 532.14 56 531.38 56Z" fill="#86D4C9"/>
<path d="M434.21 49C432.99 49 432 49.99 432 51.21C432 52.43 432.99 53.42 434.21 53.42C435.43 53.42 436.42 52.43 436.42 51.21C436.42 49.99 435.43 49 434.21 49Z" fill="#86D4C9"/>
<path d="M205.53 99.2709C208.032 99.2709 210.06 97.2428 210.06 94.7409C210.06 92.2391 208.032 90.2109 205.53 90.2109C203.028 90.2109 201 92.2391 201 94.7409C201 97.2428 203.028 99.2709 205.53 99.2709Z" fill="#86D4C9"/>
<path d="M583.762 122.691C581.262 122.691 579.232 124.721 579.232 127.221C579.232 129.721 581.262 131.751 583.762 131.751C586.262 131.751 588.292 129.721 588.292 127.221C588.292 124.721 586.262 122.691 583.762 122.691Z" fill="#86D4C9"/>
<path d="M416.624 141.204C416.674 140.594 416.224 140.054 415.604 140.004C415.544 140.004 415.484 140.004 415.414 140.004H412.994C410.424 140.004 408.334 137.914 408.334 135.344V129.024C408.284 128.414 407.744 127.954 407.134 128.004C406.594 128.054 406.164 128.474 406.114 129.024V135.344C406.114 137.914 404.024 140.004 401.454 140.004H399.024C398.414 140.054 397.954 140.594 398.004 141.204C398.054 141.744 398.474 142.174 399.024 142.224H401.454C404.024 142.224 406.114 144.314 406.114 146.884V153.204C406.164 153.814 406.704 154.274 407.314 154.224C407.854 154.174 408.284 153.754 408.334 153.204V146.884C408.334 144.314 410.424 142.224 412.994 142.224H415.414C416.024 142.274 416.564 141.824 416.614 141.204H416.624Z" fill="#86D4C9"/>
<path d="M226.333 35.6524C226.333 35.6524 226.263 35.6524 226.233 35.6524H224.893C223.463 35.6524 222.303 34.4924 222.303 33.0624V29.5624C222.273 29.2224 221.973 28.9724 221.633 29.0024C221.333 29.0324 221.093 29.2624 221.073 29.5624V33.0624C221.073 34.4924 219.913 35.6524 218.483 35.6524H217.133C216.793 35.6824 216.543 35.9824 216.573 36.3224C216.603 36.6224 216.833 36.8624 217.133 36.8824H218.483C219.913 36.8824 221.073 38.0424 221.073 39.4724V42.9724C221.103 43.3124 221.403 43.5624 221.743 43.5324C222.043 43.5024 222.283 43.2724 222.303 42.9724V39.4724C222.303 38.0424 223.463 36.8824 224.893 36.8824H226.233C226.573 36.9124 226.873 36.6624 226.903 36.3224C226.933 35.9824 226.683 35.6824 226.343 35.6524H226.333Z" fill="#86D4C9"/>
<path d="M551.901 100.152C551.901 100.152 551.831 100.152 551.801 100.152H550.461C549.031 100.152 547.871 98.9924 547.871 97.5624V94.0624C547.841 93.7224 547.541 93.4724 547.201 93.5024C546.901 93.5324 546.661 93.7624 546.641 94.0624V97.5624C546.641 98.9924 545.481 100.152 544.051 100.152H542.701C542.361 100.182 542.111 100.482 542.141 100.822C542.171 101.122 542.401 101.362 542.701 101.382H544.051C545.481 101.382 546.641 102.542 546.641 103.972V107.472C546.671 107.812 546.971 108.062 547.311 108.032C547.611 108.002 547.851 107.772 547.871 107.472V103.972C547.871 102.542 549.031 101.382 550.461 101.382H551.801C552.141 101.412 552.441 101.162 552.471 100.822C552.501 100.482 552.251 100.182 551.911 100.152H551.901Z" fill="#86D4C9"/>
<path d="M109.402 55.7327C109.402 55.7327 109.362 55.7327 109.342 55.7327H108.602C107.812 55.7327 107.172 55.0927 107.172 54.3027V52.3627C107.152 52.1727 106.992 52.0327 106.802 52.0527C106.632 52.0627 106.502 52.2027 106.492 52.3627V54.3027C106.492 55.0927 105.852 55.7327 105.062 55.7327H104.312C104.122 55.7527 103.982 55.9127 104.002 56.1027C104.012 56.2727 104.152 56.4027 104.312 56.4127H105.062C105.852 56.4127 106.492 57.0527 106.492 57.8427V59.7827C106.512 59.9727 106.672 60.1127 106.862 60.0927C107.032 60.0827 107.162 59.9427 107.172 59.7827V57.8427C107.172 57.0527 107.812 56.4127 108.602 56.4127H109.342C109.532 56.4327 109.692 56.2927 109.712 56.1027C109.732 55.9127 109.592 55.7527 109.402 55.7327Z" fill="#86D4C9"/>
<path d="M77.9484 88.5002L57.708 85.2218C55.0353 84.8026 53.77 78.8566 54.8832 71.9661C55.9964 65.0757 59.071 59.8418 61.746 60.2795L81.9978 63.5603C84.6705 63.9795 85.9358 69.9254 84.8226 76.8159C83.7094 83.7064 80.6327 88.9517 77.953 88.5071L77.9484 88.5002Z" fill="#C0DBFF"/>
<path d="M77.9604 88.4903C80.6331 88.9245 83.7227 83.6087 84.8527 76.6239C85.9822 69.6384 84.7385 63.6199 82.0662 63.1864C79.3935 62.7522 76.3036 68.0683 75.1741 75.0538C74.0441 82.0386 75.2881 88.0568 77.9604 88.4903Z" fill="white"/>
<path d="M77.2422 93.7439L58.3016 90.6726C57.1886 90.4903 56.1364 91.2489 55.954 92.3648L49.8938 129.795C49.711 130.911 50.4661 131.962 51.5786 132.144L70.5264 135.211C71.6389 135.393 72.6913 134.634 72.8667 133.523L78.9345 96.0883C79.1168 94.9724 78.3615 93.9209 77.2422 93.7439Z" fill="#C0DBFF"/>
<path d="M75.9465 94.0224L56.5056 90.8762L50.3507 128.853L69.7915 131.999L75.9465 94.0224Z" fill="#77A4F2"/>
<path d="M89.5609 17.8051L70.6942 14.6802C69.5887 14.4939 68.5405 15.2438 68.355 16.3548L62.1763 53.6387C61.9977 54.7451 62.7426 55.7966 63.8551 55.9782L82.7214 59.1033C83.8269 59.2896 84.8751 58.5397 85.0606 57.4286L91.2396 20.1446C91.4187 19.0388 90.6733 17.9867 89.5609 17.8051Z" fill="#C0DBFF"/>
<path d="M88.5764 16.4741L69.2258 13.2695L62.9624 51.0834L82.3132 54.289L88.5764 16.4741Z" fill="#77A4F2"/>
<path d="M53.4684 78.9297L74.5321 82.3464L75.6295 87.5044L54.5657 84.0876L53.4684 78.9297Z" fill="white"/>
<path d="M76.1704 70.5237L56.8295 67.3926L60.2774 61.2981C60.2774 61.2981 64.4138 60.8558 66.2611 61.2381C68.1085 61.6204 79.5393 63.3714 79.5393 63.3714L76.175 70.5306L76.1704 70.5237Z" fill="#77A4F2"/>
<path d="M77.4632 92.4606C79.285 92.76 80.5274 94.4785 80.228 96.3003L74.1652 133.728C73.8658 135.549 72.1544 136.787 70.3326 136.488L51.3975 133.425C49.5688 133.13 48.3309 131.419 48.6256 129.59L54.6885 92.1624C54.9878 90.3407 56.6996 89.1028 58.5213 89.4021L77.4632 92.4606ZM70.7407 133.933L70.7453 133.94C71.165 133.998 71.5446 133.714 71.608 133.301L77.6776 95.8691L77.673 95.8622C77.7433 95.4448 77.4657 95.0606 77.0529 94.9972L58.1132 91.9273L58.1085 91.9204C57.6889 91.8616 57.3093 92.1461 57.2458 92.5589L51.183 129.986L51.1876 129.993C51.1173 130.411 51.3949 130.795 51.8077 130.858L70.7407 133.933Z" fill="#503EAA"/>
<path d="M82.2026 62.2862L81.7832 64.8389C83.206 65.0656 84.6275 69.8862 83.5461 76.6152C82.4647 83.3443 79.5782 87.4713 78.1508 87.2377L77.7381 89.786C81.7552 90.4344 84.9763 83.8515 86.0851 77.0141C87.1984 70.1835 86.2152 62.9277 82.198 62.2793L82.2026 62.2862Z" fill="#503EAA"/>
<path d="M80.0106 84.8306C81.8997 85.1409 84.1424 81.0392 85.0094 75.6767C85.8828 70.3089 85.0515 65.712 83.1555 65.4064C81.2595 65.1008 79.0238 69.1977 78.1504 74.5655C77.2834 79.928 78.1145 84.525 80.0106 84.8306Z" fill="#C0DBFF"/>
<path d="M82.2014 62.2848C78.1842 61.6363 74.9635 68.219 73.8547 75.0564C72.746 81.8939 73.7289 89.15 77.7461 89.7984L78.1588 87.2501C76.7429 87.0188 75.3145 82.2029 76.3959 75.4738C77.4772 68.7448 80.389 64.6107 81.7819 64.8375L82.2014 62.2848Z" fill="#503EAA"/>
<path d="M62.4694 75.9387C62.2678 78.1152 62.3868 80.3069 62.8167 82.4402L58.5506 81.7486C58.1276 79.6106 58.0085 77.4191 58.21 75.2426L62.4647 75.9318L62.4694 75.9387Z" fill="#503EAA"/>
<path d="M54.5406 78.6609L48.3247 80.5977C48.3247 80.5977 45.8831 78.7627 45.9105 74.3715C45.9309 69.9849 47.1155 67.2893 47.1155 67.2893L55.4335 68.636L54.5406 78.6609Z" fill="#C0DBFF"/>
<path d="M68.0664 76.8376C67.8648 79.0141 67.9765 81.2106 68.4042 83.3555L65.9713 82.9655C65.5483 80.8276 65.4295 78.6358 65.6357 76.4662L68.0593 76.8423L68.0664 76.8376Z" fill="#503EAA"/>
<path d="M54.9328 69.9055L46.8903 68.134C46.8903 68.134 46.7731 67.362 48.096 64.6938C49.4119 62.0302 51.7199 59.802 53.5338 60.597C55.3431 61.3851 56.8877 63.1511 56.6544 64.6685C56.4211 66.1858 54.9328 69.9055 54.9328 69.9055Z" fill="#77A4F2"/>
<path d="M53.9847 77.5062L46.5186 78.3699L50.0006 82.3391L54.171 79.9328L53.9847 77.5062Z" fill="white"/>
<path d="M86.1077 77.015C84.9943 83.8456 81.7779 90.4354 77.7607 89.7869L57.5135 86.513C53.4964 85.8646 52.5088 78.6017 53.6176 71.7642C54.7263 64.9268 57.9471 58.3441 61.9642 58.9925L82.1976 62.2757C86.2147 62.9241 87.2164 70.1775 86.1077 77.015ZM78.1574 87.2294C79.5803 87.4561 82.4526 83.3385 83.534 76.6095C84.6153 69.8804 83.187 65.0645 81.7711 64.8332L61.5309 61.5546C60.1081 61.3279 57.2287 65.4502 56.1473 72.1792C55.066 78.9083 56.4943 83.7242 57.9103 83.9555L78.1621 87.2363L78.1574 87.2294Z" fill="#503EAA"/>
<path d="M82.5969 71.2747C80.8328 70.9867 79.0312 73.0153 78.5823 75.8079C78.1335 78.6006 79.1934 81.0919 80.9575 81.3799L83.1922 81.7426C83.2245 80.0299 83.3629 78.326 83.6142 76.6265C83.9995 74.2167 84.274 73.4923 84.6861 71.6149L82.5969 71.2747Z" fill="#503EAA"/>
<path d="M62.9008 70.4636L60.3873 70.0576C59.4764 69.908 58.9572 68.8652 59.2285 67.7327C59.4951 66.5933 60.4563 65.7887 61.3672 65.9383L63.881 66.344C64.7919 66.4937 65.3109 67.5366 65.0328 68.6737C64.7546 69.8109 63.8049 70.6178 62.8987 70.475L62.9008 70.4636Z" fill="#503EAA"/>
<path d="M68.023 71.2982C68.8421 71.5945 69.8288 70.9469 70.2187 69.8569C70.615 68.7616 70.2632 67.6407 69.4441 67.3444C68.625 67.0481 67.6386 67.6955 67.2487 68.7855C66.852 69.8801 67.2039 71.002 68.023 71.2982Z" fill="#503EAA"/>
<path d="M53.726 59.3148C49.8726 58.6867 45.9992 63.5355 44.8904 70.343C43.7816 77.1505 45.9387 82.9787 49.7806 83.6046C50.9175 83.7928 54.3592 82.1654 55.5025 81.3187L53.9662 79.2368C52.7582 80.0169 51.4483 80.615 50.0733 81.0267C48.092 80.5342 46.55 76.2948 47.4433 70.7626C48.3365 65.2303 51.1485 61.6936 53.1774 61.8541C54.3575 62.6738 55.4089 63.6599 56.3085 64.7777L58.4228 63.29C57.6037 62.1281 54.8583 59.4961 53.726 59.3148Z" fill="#503EAA"/>
<path d="M68.7306 92.3638L66.8209 92.0524L60.0981 133.525L62.0081 133.836L68.7306 92.3638Z" fill="#503EAA"/>
<path d="M74.3837 124.222L51.4033 120.499L51.0942 122.41L74.0671 126.137L74.3837 124.222Z" fill="#503EAA"/>
<path d="M76.0556 113.851L53.0819 110.123L52.766 112.039L75.7457 115.762L76.0556 113.851Z" fill="#503EAA"/>
<path d="M77.7427 103.475L54.763 99.7522L54.4531 101.663L77.4335 105.387L77.7427 103.475Z" fill="#503EAA"/>
<path d="M89.9753 15.2151C91.7971 15.5145 93.0281 17.2306 92.7288 19.0524L86.6797 56.4705C86.3804 58.2923 84.6686 59.5302 82.8468 59.2309L63.9121 56.1676C62.0903 55.8683 60.8523 54.1567 61.1448 52.3395L67.196 14.91C67.4953 13.0882 69.207 11.8503 71.0288 12.1497L89.9639 15.2127L89.9753 15.2151ZM83.2344 56.6895L83.239 56.6964C83.6587 56.7552 84.0383 56.4706 84.1017 56.0578L90.1759 18.6329L90.1713 18.626C90.2416 18.2086 89.964 17.8244 89.5512 17.761L70.6115 14.6911L70.6069 14.6841C70.1872 14.6253 69.8076 14.9099 69.7442 15.3227L63.6813 52.75L63.6859 52.757C63.6156 53.1744 63.8932 53.5585 64.306 53.6219L83.2457 56.6919L83.2344 56.6895Z" fill="#503EAA"/>
<path d="M81.2501 15.1138L79.3401 14.8026L72.6176 56.2746L74.5273 56.5861L81.2501 15.1138Z" fill="#503EAA"/>
<path d="M86.6347 48.1492L63.7504 44.3592L63.4349 46.2619L86.3195 50.0516L86.6347 48.1492Z" fill="#503EAA"/>
<path d="M88.3051 37.8413L65.4199 34.0508L65.1048 35.9533L87.9899 39.7437L88.3051 37.8413Z" fill="#503EAA"/>
<path d="M90.2548 26.2415L67.2744 22.518L66.9652 24.4295L89.9449 28.1525L90.2548 26.2415Z" fill="#503EAA"/>
<path d="M70.7772 87.8208L66.3181 87.0955L65.6741 91.0447L70.14 91.7654L70.7772 87.8208Z" fill="#503EAA"/>
<path d="M75.6683 57.6301L71.202 56.9086L70.565 60.853L75.0246 61.579L75.6683 57.6301Z" fill="#503EAA"/>
<path d="M96.7837 100.459C87.7278 98.9969 81.9179 88.3335 83.8134 76.6556C85.7043 64.9708 94.5796 56.6878 103.633 58.1616C107.8 58.8396 109.641 68.8523 107.746 80.5302C105.85 92.2081 100.937 101.147 96.7813 100.471L96.7837 100.459Z" fill="#C0DBFF"/>
<path d="M84.7628 77.1881C84.1447 83.9067 88.4666 89.1139 91.6247 91.7492L93.1089 99.2896C93.1089 99.2896 81.2151 91.715 84.7695 77.1836L84.7628 77.1881Z" fill="white"/>
<path d="M84.8769 76.4526C86.4174 69.886 92.1496 66.3024 95.9788 64.8053L99.7664 58.1128C99.7664 58.1128 86.0907 61.5495 84.8769 76.4526Z" fill="#77A4F2"/>
<path d="M97.1577 99.804C101.222 100.433 105.942 91.7141 107.704 80.3291C109.465 68.9434 107.598 59.2045 103.533 58.5756C99.4693 57.9466 94.7488 66.6657 92.9871 78.0507C91.2254 89.4357 93.0936 99.1751 97.1577 99.804Z" fill="#77A4F2"/>
<path d="M103.837 56.8842C98.1132 55.9592 93.1478 67.0139 91.393 77.8869C89.6267 88.7577 90.8486 100.817 96.5584 101.751L96.9665 99.1958C94.3467 98.7511 91.9322 90.6139 93.9274 78.3088C95.918 65.9968 100.798 59.0223 103.415 59.4486L103.841 56.8911L103.837 56.8842Z" fill="#503EAA"/>
<path d="M95.4546 95.4459C98.7181 95.9703 102.554 89.0063 104.033 79.8854C105.511 70.7645 104.069 62.9429 100.813 62.4139C97.5559 61.8849 93.7133 68.8535 92.2345 77.9744C90.7558 87.0953 92.198 94.917 95.4546 95.4459Z" fill="#503EAA"/>
<path d="M109.016 80.7363C107.256 91.6024 102.296 102.664 96.5719 101.739C86.8265 100.159 80.5285 88.8118 82.5305 76.4421C84.5371 64.0793 94.0981 55.2965 103.832 56.8745C109.549 57.8042 110.771 69.8632 109.016 80.7363ZM106.468 80.3236C108.458 68.0116 106.041 59.856 103.428 59.4366C95.0875 58.0853 86.8609 65.9033 85.0879 76.8685C83.315 87.8338 88.6552 97.8417 96.9847 99.1907C99.5974 99.6101 104.475 92.6472 106.472 80.3305L106.468 80.3236Z" fill="#503EAA"/>
<path d="M123.968 84.1148L122.488 81.9963L98.573 98.7255L100.054 100.844L123.968 84.1148Z" fill="#503EAA"/>
<path d="M124.274 82.2724L106.857 58.8501L104.787 60.3893L122.197 83.8161L124.274 82.2724Z" fill="#503EAA"/>
<path d="M124.342 81.9231L94.1428 77.0293L93.731 79.579L123.93 84.4728L124.342 81.9231Z" fill="#503EAA"/>
<path d="M122.014 85.9615C123.397 88.024 126.188 88.5756 128.252 87.1916C130.316 85.8077 130.866 83.0156 129.483 80.9531C128.1 78.8906 125.308 78.339 123.244 79.723C121.18 81.1069 120.631 83.899 122.014 85.9615Z" fill="#503EAA"/>
<path d="M407.293 60.8974C408.414 61.1266 409.151 62.2435 408.907 63.4359C408.799 63.9658 408.496 64.456 408.017 64.7722C397.353 71.8229 394.417 86.178 401.458 96.8491C402.09 97.8064 401.881 99.144 400.926 99.7687C399.969 100.401 398.633 100.193 398.009 99.2372L397.96 99.1621C389.655 86.5764 393.131 69.5794 405.722 61.2013C406.194 60.8757 406.763 60.7891 407.293 60.8974Z" fill="#503EAA"/>
<path d="M412.284 68.4606C412.813 68.5689 413.303 68.872 413.619 69.3506C414.25 70.3079 413.98 71.6328 413.024 72.2575C406.581 76.5177 404.794 85.2538 409.034 91.7717C409.653 92.7913 409.25 94.0891 408.307 94.6515C407.365 95.2139 406.174 94.9703 405.536 94.0847C399.962 85.6379 402.287 74.2676 410.715 68.7568C411.191 68.4483 411.762 68.354 412.284 68.4606Z" fill="#503EAA"/>
<path d="M417.283 76.0288C418.404 76.258 419.141 77.3749 418.912 78.4971C418.803 79.027 418.5 79.5172 418.022 79.8335C415.715 81.3589 415.079 84.4684 416.602 86.7772C417.234 87.7345 416.963 89.0594 416.008 89.6841C415.051 90.3166 413.727 90.0459 413.104 89.0902C410.33 84.8045 411.493 79.1154 415.726 76.2626C416.183 76.0149 416.754 75.9205 417.283 76.0288Z" fill="#503EAA"/>
<path d="M147.61 109.176C146.488 108.947 145.752 107.83 145.996 106.638C146.104 106.108 146.407 105.618 146.885 105.301C157.55 98.2514 160.487 83.8965 153.446 73.2249C152.815 72.2676 153.023 70.93 153.979 70.3054C154.935 69.6729 156.272 69.8813 156.896 70.837L156.945 70.9121C165.249 83.4984 161.772 100.495 149.181 108.872C148.708 109.198 148.139 109.285 147.61 109.176Z" fill="#86D4C9"/>
<path d="M142.619 101.613C142.089 101.505 141.599 101.202 141.284 100.723C140.652 99.7658 140.923 98.4409 141.878 97.8163C148.322 93.5565 150.109 84.8204 145.87 78.3023C145.251 77.2826 145.654 75.9849 146.597 75.4226C147.539 74.8603 148.73 75.1039 149.368 75.9895C154.941 84.4366 152.616 95.8068 144.188 101.317C143.711 101.626 143.14 101.72 142.619 101.613Z" fill="#86D4C9"/>
<path d="M137.621 94.0452C136.5 93.8159 135.763 92.699 135.993 91.5768C136.101 91.0468 136.404 90.5567 136.883 90.2405C139.19 88.7151 139.826 85.6057 138.303 83.2968C137.671 82.3394 137.942 81.0146 138.897 80.39C139.854 79.7575 141.178 80.0282 141.802 80.984C144.575 85.2699 143.412 90.9589 139.178 93.8115C138.722 94.0592 138.151 94.1535 137.621 94.0452Z" fill="#86D4C9"/>
<path d="M327.512 55.127C327.422 57.257 327.942 59.217 328.962 60.857C328.732 59.787 328.692 58.597 328.872 57.327C328.872 57.257 328.892 57.187 328.902 57.117C329.202 55.197 329.862 53.247 330.802 51.347C330.122 50.627 329.462 49.917 328.832 49.207C328.082 51.057 327.622 52.977 327.522 54.907V55.127H327.512Z" fill="white"/>
<path d="M346.621 38.348C346.691 38.338 346.761 38.318 346.821 38.308C347.751 38.118 348.661 38.048 349.511 38.088C350.301 38.128 351.031 38.278 351.711 38.508C350.381 37.518 348.791 36.898 347.051 36.718C346.691 36.678 346.331 36.668 345.961 36.668C345.591 36.668 345.201 36.688 344.821 36.728L344.611 36.748C340.311 37.238 336.161 39.408 332.911 42.858C331.901 43.938 331.031 45.098 330.291 46.308C330.951 47.088 331.641 47.868 332.371 48.658C333.171 47.468 334.071 46.318 335.091 45.238C338.451 41.678 342.541 39.238 346.611 38.348H346.621Z" fill="white"/>
<path d="M358.142 45.0156C358.192 45.5956 358.212 46.1756 358.192 46.7756V47.0256C358.142 47.7856 358.042 48.5356 357.912 49.2756L359.882 51.1256C359.962 48.9056 359.382 46.8356 358.232 45.1356C358.202 45.0956 358.172 45.0556 358.142 45.0156Z" fill="#8D86EB"/>
<path d="M357.131 52.3984C356.621 53.9084 355.941 55.3684 355.121 56.7384L357.631 59.1084C358.431 57.6484 359.041 56.1084 359.421 54.5384L357.141 52.3984H357.131Z" fill="#8D86EB"/>
<path d="M346.901 64.957C345.991 65.497 345.041 65.997 344.061 66.397L346.351 68.547C347.591 68.147 348.801 67.607 349.951 66.937C348.951 66.317 347.921 65.657 346.901 64.957Z" fill="#8D86EB"/>
<path d="M342.802 69.2789L343.002 69.2589H343.012L341.012 67.3789C340.222 67.5689 339.422 67.7289 338.612 67.8289L338.362 67.8589C337.882 67.9089 337.402 67.9289 336.932 67.9289C336.822 67.9289 336.712 67.9189 336.602 67.9089C336.642 67.9389 336.682 67.9689 336.732 67.9889C338.492 69.0389 340.602 69.4889 342.812 69.2789H342.802Z" fill="#8D86EB"/>
<path d="M356.072 61.4977L353.522 59.0977C352.602 60.2877 351.562 61.3977 350.432 62.3977L352.992 64.7977C353.552 64.3177 354.092 63.8177 354.602 63.2777C355.132 62.7077 355.622 62.1177 356.082 61.5077L356.072 61.4977Z" fill="#8D86EB"/>
<path d="M349.521 38.0888C348.661 38.0388 347.751 38.1188 346.831 38.3088C346.761 38.3188 346.691 38.3388 346.631 38.3488C342.561 39.2288 338.471 41.6788 335.111 45.2388C334.091 46.3188 333.181 47.4788 332.391 48.6588C334.791 51.2488 337.571 53.8888 340.601 56.4388C342.761 58.2588 344.951 59.9488 347.101 61.4688C348.121 60.7188 349.091 59.8788 349.991 58.9188C353.241 55.4688 355.161 51.1888 355.391 46.8688V46.6588C355.521 43.6888 354.491 41.0188 352.511 39.1588C352.261 38.9288 352.001 38.7188 351.731 38.5088C351.061 38.2788 350.321 38.1288 349.531 38.0888H349.521Z" fill="#FF8486"/>
<path d="M328.87 57.3159C328.69 58.5859 328.73 59.7759 328.96 60.8459C329.36 61.4959 329.84 62.0959 330.4 62.6159C332.38 64.4759 335.1 65.3459 338.07 65.0459L338.29 65.0259C340.38 64.7859 342.43 64.1459 344.37 63.1659C342.47 61.7859 340.56 60.2959 338.66 58.6959C335.8 56.2859 333.16 53.7959 330.81 51.3359C329.86 53.2359 329.21 55.1759 328.91 57.1059C328.9 57.1759 328.89 57.2459 328.88 57.3159H328.87Z" fill="#FF8486"/>
<path d="M368.042 71.0884C369.362 69.5684 369.962 66.3384 365.352 59.5784C364.842 58.8384 363.882 58.5584 363.162 58.9384C362.812 59.1184 362.572 59.4384 362.482 59.8184C362.382 60.2384 362.472 60.7084 362.732 61.0984C365.832 65.6484 366.162 68.1584 365.492 68.9284C364.822 69.6984 362.252 69.7784 357.202 67.4584C356.582 67.1684 355.942 66.8584 355.292 66.5284C359.552 62.6784 362.422 57.2384 362.692 51.4784V51.2284C362.802 48.4084 362.062 45.7484 360.562 43.5584C358.322 40.2684 354.922 37.5684 354.782 37.4484L354.662 37.3484C354.582 37.2684 354.512 37.1884 354.432 37.1084C351.852 34.6784 348.342 33.5384 344.542 33.9284L344.302 33.9584C337.882 34.6884 332.032 38.6284 328.422 43.9984C327.902 43.3184 327.412 42.6484 326.962 41.9884C323.862 37.4384 323.532 34.9284 324.202 34.1584C324.872 33.3884 327.442 33.3084 332.492 35.6284C332.922 35.8284 333.402 35.8384 333.812 35.6684C334.172 35.5184 334.442 35.2384 334.572 34.8684C334.842 34.0984 334.412 33.1884 333.592 32.8184C326.112 29.3884 322.972 30.4784 321.662 31.9984C320.342 33.5184 319.742 36.7484 324.352 43.5084C325.082 44.5784 325.922 45.6884 326.832 46.8184C325.632 49.2984 324.872 51.9884 324.732 54.7584V55.0084C324.562 58.8084 325.902 62.2384 328.492 64.6684C328.612 64.7784 328.732 64.8784 328.852 64.9784C329.872 66.0584 332.542 68.7584 335.292 70.3984C336.832 71.3184 338.542 71.8784 340.382 72.0684C340.832 72.1184 341.292 72.1384 341.752 72.1384C342.212 72.1384 342.642 72.1184 343.082 72.0784L343.322 72.0584C346.702 71.6984 349.902 70.4284 352.712 68.5384C353.882 69.1784 355.022 69.7684 356.112 70.2684C358.382 71.3084 360.402 72.0084 362.112 72.3284C362.882 72.4784 363.602 72.5484 364.252 72.5484C365.932 72.5484 367.202 72.0584 368.042 71.0884ZM350.432 62.3984C351.562 61.3984 352.602 60.2884 353.522 59.0984L356.072 61.4984C355.612 62.1084 355.132 62.7084 354.592 63.2684C354.082 63.8084 353.542 64.3084 352.982 64.7884L350.422 62.3884L350.432 62.3984ZM355.122 56.7484C355.942 55.3684 356.632 53.9184 357.132 52.4084L359.412 54.5484C359.032 56.1184 358.432 57.6584 357.622 59.1184L355.112 56.7484H355.122ZM357.922 49.2884C358.052 48.5484 358.142 47.7884 358.192 47.0384V46.7884C358.232 46.1884 358.202 45.6084 358.152 45.0284C358.182 45.0684 358.212 45.1084 358.242 45.1484C359.402 46.8484 359.972 48.9184 359.892 51.1384L357.922 49.2884ZM352.502 39.1684C354.482 41.0384 355.512 43.6984 355.392 46.6684V46.8784C355.152 51.1984 353.232 55.4784 349.982 58.9284C349.082 59.8784 348.112 60.7284 347.092 61.4784C344.942 59.9584 342.752 58.2684 340.592 56.4484C337.552 53.8884 334.782 51.2484 332.382 48.6684C331.652 47.8784 330.952 47.0984 330.302 46.3184C331.042 45.1084 331.912 43.9484 332.922 42.8684C336.172 39.4184 340.332 37.2484 344.622 36.7584L344.832 36.7384C345.212 36.6984 345.592 36.6784 345.972 36.6784C346.352 36.6784 346.702 36.6984 347.062 36.7284C348.802 36.9084 350.392 37.5284 351.722 38.5184C351.992 38.7184 352.252 38.9284 352.502 39.1684ZM330.802 51.3584C333.142 53.8184 335.792 56.3084 338.652 58.7184C340.542 60.3084 342.462 61.7984 344.362 63.1884C342.432 64.1784 340.372 64.8184 338.282 65.0484L338.062 65.0684C335.102 65.3684 332.382 64.4984 330.392 62.6384C329.832 62.1084 329.352 61.5084 328.952 60.8684C327.932 59.2384 327.422 57.2684 327.502 55.1384V54.9184C327.612 52.9884 328.072 51.0584 328.822 49.2184C329.452 49.9284 330.112 50.6384 330.792 51.3584H330.802ZM336.912 67.9384C337.382 67.9384 337.862 67.9184 338.342 67.8684L338.592 67.8384C339.402 67.7484 340.202 67.5884 340.992 67.3884L342.992 69.2684H342.982L342.782 69.2884C340.562 69.4984 338.462 69.0484 336.702 67.9984C336.662 67.9684 336.622 67.9384 336.572 67.9184C336.682 67.9184 336.792 67.9384 336.902 67.9384H336.912ZM344.052 66.4084C345.032 65.9984 345.972 65.5084 346.892 64.9684C347.922 65.6684 348.942 66.3284 349.942 66.9484C348.782 67.6184 347.582 68.1584 346.342 68.5584L344.052 66.4084Z" fill="#38237C"/>
<path d="M236.899 77.9781C236.269 78.0981 235.639 78.2881 235.019 78.5381L234.839 78.6081C231.309 80.1081 228.319 83.0181 226.419 86.7781C224.519 90.5381 223.979 94.6681 224.869 98.4081L224.919 98.5981C225.439 100.628 226.529 102.298 228.029 103.448C227.549 102.578 227.209 101.568 227.029 100.418C227.029 100.358 227.009 100.298 226.999 100.228C226.479 96.5181 227.269 92.3181 229.249 88.3981C231.219 84.4781 234.109 81.3381 237.399 79.5481C237.449 79.5181 237.509 79.4881 237.569 79.4581C238.319 79.0581 239.089 78.7681 239.839 78.5981C240.409 78.4681 240.969 78.4081 241.499 78.4081C240.559 78.0281 239.549 77.8281 238.509 77.8281C237.979 77.8281 237.439 77.8781 236.899 77.9781Z" fill="white"/>
<path d="M248.579 102.608L245.199 100.898C244.449 101.868 243.609 102.758 242.699 103.578L245.889 105.178C246.869 104.438 247.769 103.578 248.579 102.608Z" fill="#8D86EB"/>
<path d="M251.729 97.1284L248.299 95.3984C247.879 96.4884 247.379 97.5384 246.789 98.5384L250.229 100.278C250.459 99.8884 250.689 99.4984 250.889 99.0884C251.209 98.4484 251.479 97.7884 251.729 97.1284Z" fill="#8D86EB"/>
<path d="M249.15 92.6669L252.5 94.3569C252.74 93.1069 252.84 91.8569 252.79 90.6169L249.68 89.0469C249.62 90.2669 249.43 91.4769 249.15 92.6769V92.6669Z" fill="#8D86EB"/>
<path d="M249.43 82.7666C249.2 82.5866 248.97 82.4066 248.73 82.2266C248.89 82.6666 249.04 83.1166 249.16 83.5866L249.21 83.8066C249.37 84.4766 249.48 85.1466 249.56 85.8266L252.25 87.1866C251.74 85.3966 250.77 83.8666 249.43 82.7666Z" fill="#8D86EB"/>
<path d="M242.37 107.197L242.54 107.127C242.7 107.057 242.86 106.977 243.02 106.897L240.19 105.477C239.36 105.997 238.51 106.477 237.6 106.857L237.39 106.947C236.96 107.127 236.52 107.277 236.08 107.397C236.36 107.487 236.63 107.567 236.9 107.637C238.66 108.087 240.55 107.927 242.36 107.197H242.37Z" fill="#8D86EB"/>
<path d="M255.06 86.7081C254.41 84.2281 253.079 82.1081 251.209 80.5781C248.519 78.3881 245.029 76.9381 244.639 76.7881L244.089 76.5681C243.849 76.4281 243.62 76.2781 243.37 76.1481C240.49 74.6981 237.139 74.6181 233.949 75.9281L233.74 76.0181C225.16 79.6681 219.959 90.0081 222.129 99.0781L222.18 99.2981C223.03 102.648 225.089 105.288 227.969 106.738C228.259 106.888 228.56 106.998 228.86 107.118C229.49 107.498 232.959 109.548 236.209 110.378C237.099 110.608 238.01 110.718 238.92 110.718C239.63 110.718 240.349 110.648 241.069 110.518C241.859 110.368 242.65 110.138 243.42 109.828L243.629 109.738C252.179 106.158 257.33 95.9281 255.11 86.9281L255.05 86.7081H255.06ZM252.499 94.3681L249.149 92.6781C249.429 91.4881 249.62 90.2681 249.68 89.0481L252.79 90.6181C252.84 91.8581 252.739 93.1081 252.499 94.3581V94.3681ZM241.499 78.4181C241.699 78.4981 241.91 78.5781 242.1 78.6781C244.24 79.7581 245.779 81.7481 246.439 84.3581L246.469 84.4781C247.369 88.2181 246.82 92.3481 244.92 96.1081C243.03 99.8681 240.029 102.778 236.499 104.278L236.329 104.348C233.899 105.338 231.389 105.298 229.249 104.218C228.819 103.998 228.42 103.738 228.04 103.448C226.53 102.308 225.44 100.628 224.93 98.5981L224.879 98.4081C223.979 94.6681 224.53 90.5381 226.43 86.7781C228.32 83.0181 231.31 80.1081 234.85 78.6081L235.029 78.5381C235.649 78.2881 236.28 78.0981 236.91 77.9781C237.45 77.8781 237.989 77.8281 238.519 77.8281C239.559 77.8281 240.559 78.0281 241.509 78.4081L241.499 78.4181ZM237.399 106.958L237.61 106.868C238.52 106.478 239.369 106.008 240.199 105.488L243.029 106.908C242.869 106.978 242.71 107.068 242.55 107.138L242.379 107.208C240.559 107.938 238.67 108.098 236.92 107.648C236.65 107.578 236.38 107.498 236.1 107.408C236.54 107.278 236.979 107.128 237.41 106.958H237.399ZM242.699 103.588C243.609 102.778 244.439 101.878 245.199 100.908L248.579 102.618C247.769 103.588 246.859 104.448 245.889 105.188L242.699 103.588ZM246.79 98.5581C247.38 97.5481 247.88 96.4981 248.3 95.4181L251.73 97.1481C251.49 97.8081 251.219 98.4681 250.889 99.1081C250.679 99.5181 250.46 99.9081 250.23 100.298L246.79 98.5581ZM249.569 85.8381C249.489 85.1581 249.379 84.4881 249.219 83.8181L249.17 83.5981C249.05 83.1281 248.9 82.6781 248.74 82.2381C248.98 82.4081 249.219 82.5881 249.439 82.7781C250.779 83.8781 251.749 85.3981 252.259 87.1981L249.569 85.8381Z" fill="#38237C"/>
<path d="M239.839 78.598C239.089 78.778 238.319 79.068 237.569 79.458C237.519 79.488 237.459 79.518 237.399 79.548C234.119 81.338 231.219 84.478 229.249 88.398C227.279 92.318 226.479 96.518 226.999 100.228C226.999 100.288 227.019 100.348 227.029 100.418C227.209 101.568 227.549 102.578 228.029 103.448C228.409 103.738 228.809 103.998 229.239 104.218C231.379 105.298 233.899 105.338 236.319 104.348L236.489 104.278C240.029 102.778 243.019 99.868 244.909 96.108C246.809 92.348 247.349 88.218 246.459 84.478L246.429 84.358C245.769 81.758 244.229 79.758 242.089 78.678C241.889 78.578 241.689 78.498 241.489 78.418C240.949 78.418 240.399 78.478 239.829 78.608L239.839 78.598Z" fill="#86D4C9"/>
<path d="M251.101 49.8461C253.021 51.8861 255.461 53.1661 257.991 53.4561H258.111C259.111 53.5661 260.051 53.4361 260.881 53.0961C260.451 53.0961 260.011 53.0561 259.531 52.9461C259.491 52.9461 259.451 52.9261 259.411 52.9161C257.001 52.3361 254.551 50.8361 252.521 48.6761C250.491 46.5261 249.141 43.9961 248.701 41.5561C248.701 41.5161 248.691 41.4761 248.681 41.4361C248.591 40.8761 248.571 40.3461 248.611 39.8361C248.621 39.7161 248.661 39.6061 248.681 39.4961C248.341 40.0561 248.101 40.6861 247.991 41.3661C247.921 41.7661 247.901 42.1961 247.911 42.6161V42.7461C248.051 45.2861 249.181 47.8061 251.101 49.8361V49.8461Z" fill="white"/>
<path d="M268.011 43.9888V43.8788C267.891 41.3488 266.781 38.8588 264.891 36.8488C263.001 34.8388 260.581 33.5888 258.081 33.3188H257.961C256.711 33.1888 255.531 33.4388 254.551 34.0188C254.471 34.0688 254.371 34.1388 254.291 34.1888C260.891 34.9588 266.531 40.9488 266.911 47.5688C266.971 47.4888 267.031 47.4088 267.081 47.3388C267.731 46.3888 268.051 45.2288 268.001 43.9788L268.011 43.9888Z" fill="#8D86EB"/>
<path d="M258.402 30.4071L258.242 30.3871C256.372 30.2171 254.582 30.5971 253.052 31.5071C250.842 32.8271 248.222 35.6371 248.192 35.6571L247.942 35.9371C247.792 36.0571 247.652 36.1671 247.512 36.2971C245.782 37.9271 244.882 40.2171 244.982 42.7471V42.9071C245.342 49.5671 251.022 55.6071 257.662 56.3671L257.812 56.3871C258.132 56.4171 258.452 56.4371 258.762 56.4371C260.912 56.4371 262.892 55.6771 264.402 54.2571C264.542 54.1271 264.652 53.9771 264.772 53.8471H264.782C264.782 53.8471 268.052 51.1371 269.512 48.9971C270.182 48.0071 270.632 46.8871 270.832 45.6771C270.932 45.0971 270.962 44.4971 270.942 43.8971V43.7271C270.622 37.0971 265.002 31.1171 258.402 30.4071ZM266.912 47.5871C266.522 40.9671 260.882 34.9771 254.292 34.2071C254.382 34.1471 254.472 34.0871 254.552 34.0371C255.532 33.4471 256.712 33.2071 257.962 33.3171H258.082C260.582 33.5971 263.002 34.8571 264.892 36.8671C266.782 38.8771 267.882 41.3671 268.002 43.8971V44.0071C268.052 45.2571 267.732 46.4171 267.082 47.3671C267.032 47.4371 266.962 47.5271 266.912 47.5971V47.5871ZM247.982 41.3771C248.092 40.6971 248.342 40.0671 248.672 39.5071C248.902 39.1171 249.182 38.7471 249.512 38.4371C250.612 37.3971 252.132 36.9271 253.792 37.0871H253.922C256.442 37.3871 258.892 38.6671 260.812 40.7071C262.732 42.7471 263.862 45.2671 263.992 47.7971L264.742 47.7571L264.002 47.9271C264.072 49.5971 263.502 51.0871 262.392 52.1171C261.952 52.5371 261.432 52.8571 260.872 53.0871C260.042 53.4271 259.102 53.5671 258.102 53.4571H257.982C255.462 53.1571 253.012 51.8771 251.092 49.8371C249.172 47.7971 248.042 45.2771 247.912 42.7471V42.6171C247.892 42.1871 247.912 41.7671 247.982 41.3671V41.3771Z" fill="#38237C"/>
<path d="M248.682 41.4469C248.682 41.4469 248.692 41.5269 248.702 41.5669C249.132 44.0069 250.492 46.5369 252.522 48.6869C254.552 50.8369 257.002 52.3469 259.412 52.9269C259.452 52.9269 259.492 52.9469 259.532 52.9569C260.002 53.0669 260.452 53.0969 260.882 53.1069C261.442 52.8769 261.962 52.5569 262.402 52.1369C263.502 51.0969 264.072 49.6069 264.012 47.9469L264.752 47.7869L264.002 47.8269C263.872 45.2869 262.742 42.7669 260.822 40.7369C258.902 38.6969 256.462 37.4169 253.932 37.1269H253.802C252.152 36.9469 250.622 37.4269 249.522 38.4569C249.192 38.7669 248.912 39.1369 248.682 39.5269C248.662 39.6469 248.622 39.7469 248.612 39.8669C248.562 40.3669 248.592 40.9069 248.682 41.4669V41.4469Z" fill="#77A4F2"/>
<path d="M519.499 133.869C525.535 133.869 530.424 128.98 530.424 122.944C530.424 116.907 525.535 112.02 519.499 112.02C513.463 112.02 508.574 116.907 508.574 122.944C508.574 128.98 513.463 133.869 519.499 133.869Z" fill="#503EAA"/>
<path d="M464.231 152.241C482.176 157.073 506.037 138.106 513.891 108.916C521.739 79.7157 510.611 51.3359 492.673 46.5149C484.423 44.2885 471.368 66.1602 463.525 95.3438C455.688 124.538 455.999 150.047 464.231 152.241Z" fill="#C0DBFF"/>
<path d="M493.852 103.836C501.981 74.9014 501.716 49.522 493.269 47.1525C484.816 44.7722 471.375 66.2961 463.229 95.2267C455.1 124.162 455.36 149.53 463.813 151.911C472.266 154.291 485.717 132.761 493.852 103.836Z" fill="#77A4F2"/>
<path d="M512.138 107.261C515.58 90.2173 507.071 76.0722 500.507 68.7133L499.31 49.1573C499.31 49.1573 524.769 70.8587 512.128 107.267L512.138 107.261Z" fill="white"/>
<path d="M511.642 109.113C506.086 125.58 491.658 133.597 482.283 136.663L471.449 152.995C471.449 152.995 504.344 146.931 511.625 109.109L511.642 109.113Z" fill="#77A4F2"/>
<path d="M496.46 104.057C501.545 85.1679 500.186 68.3977 493.442 66.5853C486.693 64.7622 477.11 78.5918 472.024 97.4804C466.95 116.363 468.298 133.139 475.042 134.952C481.792 136.775 491.385 122.939 496.46 104.057Z" fill="#503EAA"/>
<path d="M487.077 150.571C479.088 155.176 470.837 156.682 463.571 154.729C461.514 154.177 459.803 152.741 458.496 150.473C453.429 141.682 454.45 119.251 461.056 94.6699C464.902 80.3287 470.126 67.2442 475.751 57.8191C481.994 47.3673 488.077 42.5936 493.36 44.0225C502.919 46.5916 510.947 55.2298 515.392 67.7136C519.902 80.3595 520.253 95.2318 516.386 109.585C512.526 123.949 504.761 136.632 494.519 145.313C492.096 147.364 489.607 149.127 487.083 150.581L487.077 150.571ZM489.329 49.6369C487.051 50.9499 483.888 54.2123 480.155 60.4671C474.773 69.4963 469.747 82.1098 466.002 96.0081C462.889 107.591 460.994 118.813 460.517 128.492C460.072 137.411 460.956 144.482 462.929 147.904C463.533 148.952 464.195 149.582 464.88 149.757C472.776 151.888 482.356 148.832 491.155 141.381C500.602 133.372 507.786 121.609 511.385 108.25C514.984 94.8915 514.665 81.1125 510.507 69.4468C506.638 58.5823 499.881 51.135 491.985 49.0038C491.327 48.8271 490.431 49.002 489.308 49.6493L489.329 49.6369Z" fill="#503EAA"/>
<path d="M491.65 110.989L447.903 94.7129L449.646 88.1949L495.732 95.7994L491.65 110.989Z" fill="#C0DBFF"/>
<path d="M491.649 110.989L447.902 94.7123L448.766 91.465L493.646 103.527L491.649 110.989Z" fill="#77A4F2"/>
<path d="M470.588 153.507C468.139 154.918 465.78 155.323 463.571 154.73C462.199 154.352 461.385 152.94 461.752 151.575C462.13 150.203 463.542 149.389 464.907 149.756C465.75 149.983 466.792 149.738 468.012 149.036C471.616 146.958 475.916 141.417 480.101 133.449C484.578 124.926 488.571 114.376 491.647 102.928C495.381 89.0362 497.288 75.5837 497.011 65.0428C496.839 58.2176 495.412 49.9074 491.989 48.9876C490.618 48.6099 489.804 47.1979 490.171 45.8323C490.549 44.4606 491.96 43.6468 493.326 44.0139C498.789 45.4819 501.844 52.7116 502.163 64.9091C502.446 75.9308 500.477 89.9174 496.621 104.265C490.11 128.492 479.652 148.268 470.582 153.496L470.588 153.507Z" fill="#503EAA"/>
<path d="M492.937 113.226C492.937 113.226 492.873 113.263 492.83 113.288C492.181 113.62 491.437 113.664 490.753 113.417L447 97.1291C445.75 96.6667 445.069 95.3358 445.413 94.0545L447.156 87.5359C447.5 86.2546 448.757 85.4445 450.064 85.6601L496.144 93.2542C496.864 93.3664 497.492 93.788 497.888 94.4005C498.284 95.013 498.4 95.7583 498.21 96.4664L494.127 111.657C493.95 112.315 493.519 112.876 492.931 113.215L492.937 113.226ZM450.998 93.1153L489.898 107.583L492.502 97.8609L451.527 91.1152L450.987 93.1214L450.998 93.1153Z" fill="#503EAA"/>
<path d="M447.117 97.7021C451.48 95.1871 452.976 89.6236 450.461 85.26C447.946 80.8963 442.382 79.4007 438.018 81.9157C433.654 84.4307 432.159 89.9947 434.674 94.3583C437.189 98.722 442.753 100.217 447.117 97.7021Z" fill="#503EAA"/>
<path d="M544.064 175.088H494.934L506.821 135.389C508.5 129.784 513.648 125.945 519.499 125.945C525.35 125.945 530.498 129.784 532.177 135.389L544.064 175.088Z" fill="#C0DBFF"/>
<path d="M527.869 131.007C527.869 131.007 519.586 129.266 517.265 135.932C514.944 142.598 508.39 167.472 508.39 167.472H496.848L506.822 135.402C506.822 135.402 509.118 127.427 514.587 126.612C520.055 125.797 524.684 124.921 527.869 131.007Z" fill="#77A4F2"/>
<path d="M547.52 177.669H491.477L504.352 134.661C506.376 127.921 512.462 123.391 519.498 123.391C526.535 123.391 532.621 127.921 534.645 134.661L547.52 177.669ZM498.39 172.521H540.607L529.707 136.143C528.349 131.6 524.239 128.538 519.498 128.538C514.758 128.538 510.648 131.6 509.29 136.143L498.39 172.521Z" fill="#503EAA"/>
<path d="M556.162 168.645H482.293V177.854H556.162V168.645Z" fill="#C0DBFF"/>
<path d="M503.526 167.469H481.355V178.937H503.526V167.469Z" fill="#77A4F2"/>
<path d="M557.644 167.469H544.51V178.937H557.644V167.469Z" fill="white"/>
<path d="M556.151 168.644V177.853H482.294V168.644H556.163H556.151ZM556.163 163.496H482.294C479.455 163.496 477.146 165.804 477.146 168.644V177.853C477.146 180.692 479.455 183.001 482.294 183.001H556.163C559.002 183.001 561.311 180.692 561.311 177.853V168.644C561.311 165.804 559.002 163.496 556.163 163.496Z" fill="#503EAA"/>
<path d="M523.585 158.928C525.56 158.928 527.153 157.336 527.153 155.361C527.153 153.386 525.56 151.793 523.585 151.793C521.61 151.793 520.018 153.386 520.018 155.361C520.018 157.336 521.61 158.928 523.585 158.928Z" fill="#8D86EB"/>
<path d="M523.585 148.202C525.56 148.202 527.153 146.609 527.153 144.634C527.153 142.659 525.56 141.066 523.585 141.066C521.61 141.066 520.018 142.659 520.018 144.634C520.018 146.609 521.61 148.202 523.585 148.202Z" fill="#FF8486"/>
<path d="M352.286 104.644C352.286 104.644 352.366 104.644 352.406 104.654C354.876 104.914 357.496 106.084 359.786 107.964C362.076 109.834 363.746 112.164 364.496 114.524C364.506 114.564 364.516 114.604 364.536 114.644C364.696 115.184 364.786 115.714 364.806 116.214C364.806 116.334 364.786 116.444 364.786 116.564C365.046 115.964 365.206 115.314 365.226 114.624C365.236 114.214 365.206 113.794 365.136 113.364L365.116 113.254C364.646 110.734 363.206 108.384 361.036 106.614C358.916 104.884 356.386 103.934 353.896 103.934C353.846 103.934 353.796 103.934 353.736 103.934H353.606C352.616 103.964 351.706 104.224 350.926 104.664C351.356 104.614 351.796 104.594 352.276 104.634L352.286 104.644Z" fill="white"/>
<path d="M349.044 121.292C351.174 123.042 353.734 123.992 356.254 123.912H356.374C357.634 123.862 358.764 123.462 359.664 122.752C359.744 122.692 359.824 122.612 359.904 122.552C359.844 122.552 359.794 122.552 359.734 122.552C353.154 122.552 346.884 117.382 345.654 110.922C345.604 111.002 345.554 111.092 345.514 111.172C344.994 112.192 344.834 113.392 345.034 114.622L344.314 114.842L345.054 114.742C345.494 117.212 346.914 119.542 349.044 121.292Z" fill="#8D86EB"/>
<path d="M349.545 105.821C348.585 106.991 348.215 108.541 348.495 110.191L348.515 110.311C348.975 112.811 350.425 115.161 352.585 116.931C354.755 118.701 357.305 119.681 359.885 119.611H360.015C361.675 119.561 363.125 118.891 364.085 117.721C364.375 117.371 364.595 116.971 364.775 116.551C364.775 116.431 364.805 116.321 364.795 116.201C364.775 115.701 364.685 115.171 364.525 114.631C364.515 114.591 364.505 114.551 364.485 114.511C363.745 112.151 362.065 109.821 359.775 107.951C357.485 106.081 354.865 104.911 352.395 104.641C352.355 104.641 352.315 104.641 352.275 104.631C351.795 104.591 351.345 104.611 350.925 104.661C350.395 104.961 349.925 105.351 349.545 105.821Z" fill="#FF8486"/>
<path d="M367.995 112.702C366.785 106.142 360.335 100.882 353.695 101.002H353.535C351.005 101.082 348.785 102.132 347.275 103.972C347.155 104.112 347.065 104.282 346.955 104.432H346.945C346.945 104.432 344.055 107.552 342.885 109.852C342.345 110.922 342.045 112.082 342.005 113.322C341.985 113.912 342.025 114.512 342.125 115.132L342.145 115.272C343.295 121.712 349.485 126.862 356.025 126.862C356.115 126.862 356.215 126.862 356.305 126.862H356.475C358.355 126.792 360.085 126.172 361.475 125.072C363.525 123.452 365.735 120.352 365.755 120.322L365.965 120.012C366.095 119.872 366.225 119.742 366.345 119.592C367.845 117.752 368.445 115.372 368.015 112.882L367.985 112.712L367.995 112.702ZM350.925 104.662C351.705 104.212 352.615 103.962 353.605 103.932H353.735C353.785 103.932 353.835 103.932 353.895 103.932C356.385 103.932 358.915 104.882 361.035 106.612C363.205 108.382 364.645 110.732 365.115 113.252L365.135 113.362C365.205 113.782 365.235 114.202 365.225 114.622C365.205 115.312 365.045 115.962 364.785 116.562C364.605 116.982 364.385 117.382 364.095 117.732C363.135 118.902 361.695 119.572 360.025 119.622H359.895C357.325 119.692 354.765 118.712 352.595 116.942C350.425 115.172 348.985 112.822 348.525 110.322L348.505 110.202C348.225 108.552 348.595 107.002 349.555 105.832C349.945 105.362 350.415 104.972 350.935 104.672L350.925 104.662ZM344.305 114.842L345.025 114.622C344.825 113.382 344.985 112.192 345.505 111.172C345.545 111.092 345.605 111.002 345.645 110.922C346.875 117.382 353.145 122.552 359.725 122.552C359.785 122.552 359.835 122.552 359.895 122.552C359.815 122.622 359.735 122.692 359.655 122.752C358.755 123.462 357.615 123.862 356.365 123.902H356.245C353.725 123.992 351.165 123.032 349.035 121.282C346.905 119.532 345.485 117.212 345.045 114.732L344.305 114.832V114.842Z" fill="#38237C"/>
<defs>
<linearGradient id="paint0_linear_8516_11073" x1="422.303" y1="110.358" x2="-405.874" y2="218.23" gradientUnits="userSpaceOnUse">
<stop stop-color="white"/>
<stop offset="0.57" stop-color="#86D4C9"/>
<stop offset="0.62" stop-color="#82C9D2"/>
<stop offset="0.75" stop-color="#7CB4E3"/>
<stop offset="0.88" stop-color="#78A8EE"/>
<stop offset="1" stop-color="#77A4F2"/>
</linearGradient>
<linearGradient id="paint1_linear_8516_11073" x1="424.579" y1="127.748" x2="-403.631" y2="235.628" gradientUnits="userSpaceOnUse">
<stop stop-color="white"/>
<stop offset="0.57" stop-color="#86D4C9"/>
<stop offset="0.62" stop-color="#82C9D2"/>
<stop offset="0.75" stop-color="#7CB4E3"/>
<stop offset="0.88" stop-color="#78A8EE"/>
<stop offset="1" stop-color="#77A4F2"/>
</linearGradient>
<linearGradient id="paint2_linear_8516_11073" x1="421.676" y1="105.56" x2="-406.509" y2="213.426" gradientUnits="userSpaceOnUse">
<stop stop-color="white"/>
<stop offset="0.57" stop-color="#86D4C9"/>
<stop offset="0.62" stop-color="#82C9D2"/>
<stop offset="0.75" stop-color="#7CB4E3"/>
<stop offset="0.88" stop-color="#78A8EE"/>
<stop offset="1" stop-color="#77A4F2"/>
</linearGradient>
<linearGradient id="paint3_linear_8516_11073" x1="484.303" y1="110.358" x2="-343.874" y2="218.23" gradientUnits="userSpaceOnUse">
<stop stop-color="white"/>
<stop offset="0.57" stop-color="#86D4C9"/>
<stop offset="0.62" stop-color="#82C9D2"/>
<stop offset="0.75" stop-color="#7CB4E3"/>
<stop offset="0.88" stop-color="#78A8EE"/>
<stop offset="1" stop-color="#77A4F2"/>
</linearGradient>
<linearGradient id="paint4_linear_8516_11073" x1="486.579" y1="127.748" x2="-341.631" y2="235.628" gradientUnits="userSpaceOnUse">
<stop stop-color="white"/>
<stop offset="0.57" stop-color="#86D4C9"/>
<stop offset="0.62" stop-color="#82C9D2"/>
<stop offset="0.75" stop-color="#7CB4E3"/>
<stop offset="0.88" stop-color="#78A8EE"/>
<stop offset="1" stop-color="#77A4F2"/>
</linearGradient>
<linearGradient id="paint5_linear_8516_11073" x1="483.676" y1="105.56" x2="-344.509" y2="213.426" gradientUnits="userSpaceOnUse">
<stop stop-color="white"/>
<stop offset="0.57" stop-color="#86D4C9"/>
<stop offset="0.62" stop-color="#82C9D2"/>
<stop offset="0.75" stop-color="#7CB4E3"/>
<stop offset="0.88" stop-color="#78A8EE"/>
<stop offset="1" stop-color="#77A4F2"/>
</linearGradient>
<linearGradient id="paint6_linear_8516_11073" x1="42.0504" y1="188.079" x2="603.22" y2="188.079" gradientUnits="userSpaceOnUse">
<stop stop-color="#503EAA"/>
<stop offset="1" stop-color="#77A4F2"/>
</linearGradient>
</defs>
</svg>
