<svg width="1440" height="1113" viewBox="0 0 1440 1113" fill="none" xmlns="http://www.w3.org/2000/svg">
<g clip-path="url(#clip0_26914_405726)">
<rect width="1440" height="1113" fill="url(#paint0_linear_26914_405726)"/>
<path d="M1440 194H0V943H1440V194Z" fill="url(#paint1_linear_26914_405726)"/>
<path opacity="0.4" d="M-209 502.615V943H1988V682.956C1988 667.556 1977.83 654.036 1962.92 649.686L1934.65 641.457V477.457C1934.65 473.577 1933.12 469.933 1930.51 467.582C1927.91 464.995 1924.48 463.467 1920.58 463.467C1899.05 463.467 1881.54 480.866 1881.54 502.263V583.616L1860.02 591.728C1842.39 598.311 1829.15 613.594 1825.24 632.052L1820.87 652.155H1789.99C1772.01 652.155 1757.58 666.497 1757.58 684.367V723.75H1756.4C1743.39 723.75 1731.21 729.981 1720.92 740.562L1715.24 622.176C1714.76 611.126 1723.52 602.073 1734.52 602.073H1771.54C1776.86 602.073 1781 597.723 1781 592.668C1781 587.613 1776.63 583.263 1771.54 583.263H1766.22C1761.25 583.263 1757.7 578.796 1758.88 573.858C1759.71 569.979 1760.19 565.982 1760.19 561.749C1760.19 530.243 1732.74 504.614 1698.68 504.614C1664.61 504.614 1637.17 530.243 1637.17 561.749C1637.17 565.864 1637.64 569.979 1638.47 573.858C1639.65 578.561 1635.87 583.263 1631.14 583.263H1625.82C1620.49 583.263 1616.12 587.613 1616.12 592.668C1616.12 597.723 1620.49 602.073 1625.58 602.073H1662.72C1673.84 602.073 1682.59 611.243 1682 622.176L1675.61 754.904H1653.85V731.745C1653.85 721.046 1646.75 712.229 1637.05 709.29V693.772C1637.05 684.72 1629.72 677.431 1620.61 677.431H1592.7C1593.41 668.261 1593.88 658.738 1593.88 649.216C1593.88 548.935 1549.29 462.527 1484.94 421.968C1477.13 417.03 1466.84 422.555 1466.84 431.843V533.064C1425.56 534.945 1390.19 567.627 1372.69 614.77H1344.3V582.558C1344.3 579.149 1341.46 576.327 1338.03 576.327H1323.84C1315.91 576.327 1309.17 582.558 1308.7 590.552L1304.79 662.03H1288.71L1235.83 530.478H1264.22C1266.82 530.478 1269.31 529.302 1270.85 527.656C1272.62 525.893 1273.69 523.659 1273.69 521.073C1273.69 515.782 1269.55 511.668 1264.22 511.668H1183.32C1180.71 511.668 1178.23 512.843 1176.69 514.489C1174.92 516.253 1173.85 518.486 1173.85 521.073C1173.85 526.363 1177.99 530.478 1183.32 530.478H1211.7V549.288H1183.32C1180.71 549.288 1178.23 550.463 1176.69 552.109C1174.92 553.873 1173.85 556.106 1173.85 558.693C1173.85 563.983 1177.99 568.098 1183.32 568.098H1211.59V586.908H1183.2C1180.6 586.908 1178.11 588.083 1176.57 589.729C1174.8 591.493 1173.74 593.726 1173.74 596.313C1173.74 601.603 1177.88 605.718 1183.2 605.718H1211.59V624.528H1183.2C1180.6 624.528 1178.11 625.703 1176.57 627.349C1174.8 629.113 1173.74 631.346 1173.74 633.933C1173.74 639.223 1177.88 643.338 1183.2 643.338H1211.59V662.03H1156.58C1148.07 662.03 1141.21 668.966 1141.21 677.313V755.022H1127.01V663.558C1127.01 655.447 1120.39 648.863 1112.23 648.863H1108.8C1106.43 648.863 1104.66 650.744 1104.66 652.978V694.595C1104.66 698.71 1101.35 702.119 1097.09 702.119H1067.04C1057.34 670.377 1039.13 648.863 1018.43 648.863C987.439 648.863 962.244 696.476 962.244 755.257V784.413H927.942V756.668C927.942 753.259 925.222 750.437 921.673 750.437H919.307C917.888 750.437 916.705 751.613 916.705 753.023V784.413H904.404V747.263C904.404 741.385 899.672 736.447 893.64 736.447H878.618C872.704 736.447 867.854 741.15 867.854 747.263V801.107C867.854 805.809 864.069 809.571 859.338 809.571H849.047C849.165 807.572 849.284 805.691 849.284 803.575C849.284 783.59 839.703 767.484 827.992 767.484C816.282 767.484 806.701 783.59 806.701 803.575C806.701 805.574 806.82 807.572 806.938 809.571H786.593V737.623C786.593 733.038 790.378 729.276 794.991 729.276H796.766C803.035 729.276 808.003 724.221 808.003 718.107C808.003 711.994 802.916 706.939 796.766 706.939H790.142C788.249 706.939 786.711 705.411 786.711 703.53V698.592C786.711 694.007 790.497 690.245 795.11 690.245H810.132C816.401 690.245 821.369 685.19 821.369 679.077C821.369 672.963 816.282 667.908 810.132 667.908H740.817C734.548 667.908 729.581 672.963 729.581 679.077C729.581 685.19 734.667 690.245 740.817 690.245H755.839C760.453 690.245 764.238 694.007 764.238 698.592V703.53C764.238 705.411 762.7 706.939 760.807 706.939H754.183C747.914 706.939 742.947 711.994 742.947 718.107C742.947 724.221 748.033 729.276 754.183 729.276H755.958C760.571 729.276 764.356 733.038 764.356 737.623V809.689H718.107V769.952C718.107 761.841 711.483 755.257 703.322 755.257H674.224C671.385 755.257 668.901 752.788 668.901 749.967V745.97C668.901 740.797 664.761 736.565 659.438 736.565H632.943V703.647C632.943 699.062 636.728 695.3 641.341 695.3H643.115C649.384 695.3 654.352 690.245 654.352 684.132C654.352 678.019 649.266 672.963 643.115 672.963H636.491C634.599 672.963 633.061 671.435 633.061 669.554V664.499C633.061 659.914 636.846 656.152 641.459 656.152H656.245C662.514 656.152 667.482 651.097 667.482 644.984C667.482 638.87 662.395 633.815 656.245 633.815H586.93C580.661 633.815 575.694 638.87 575.694 644.984C575.694 651.097 580.78 656.152 586.93 656.152H601.952C606.566 656.152 610.351 659.914 610.351 664.499V669.554C610.351 671.435 608.813 672.963 606.92 672.963H600.297C594.027 672.963 589.06 678.019 589.06 684.132C589.06 690.245 594.146 695.3 600.297 695.3H602.071C606.684 695.3 610.469 699.062 610.469 703.647V798.05H444.872L439.904 650.862C439.431 637.93 449.84 627.114 462.969 627.114H484.733C492.304 627.114 498.336 620.883 498.218 613.594C498.099 606.306 491.83 600.545 484.497 600.545H422.989L421.452 554.813C420.86 538.825 433.635 525.658 449.721 525.658H475.862C481.895 525.658 486.981 521.19 487.454 515.312C487.69 511.903 486.389 508.846 484.26 506.73C482.249 504.614 479.529 503.438 476.454 503.438C474.324 503.438 472.432 501.557 472.314 499.559C472.195 497.56 471.841 495.444 471.604 493.328C466.991 464.172 442.861 441.718 413.882 441.718C384.902 441.718 360.772 464.055 356.159 493.328C355.686 495.327 355.568 497.325 355.449 499.559C355.213 501.675 353.439 503.438 351.31 503.438C345.632 503.438 340.546 507.435 339.836 512.961C338.771 519.897 344.212 525.658 350.955 525.658H377.332C393.3 525.658 406.311 538.942 405.602 554.813L404.064 600.545H341.61C334.04 600.545 328.008 606.776 328.126 614.065C328.244 621.354 334.513 627.114 341.847 627.114H363.138C376.149 627.114 386.558 637.93 386.203 650.862L381.708 787.469L370.826 779.828C368.815 777.712 366.095 776.654 363.138 776.654H342.793C342.793 755.963 332.502 738.798 319.964 738.798C307.426 738.798 297.136 755.61 297.136 776.654H293.705V755.257H293.587V693.067C293.587 684.014 289.802 675.432 283.06 669.201L270.64 658.033L270.758 597.253C270.758 582.205 258.457 569.744 243.317 569.744H239.65C236.574 569.744 234.209 572.212 234.209 575.151V698.71L221.198 707.527C212.326 713.523 206.885 723.515 206.885 734.331V755.375H187.842C185.239 698.239 164.303 653.683 138.636 653.683C123.022 653.683 109.065 670.495 99.9568 696.594H63.4072V541.293C63.4072 535.063 68.4934 530.125 74.6441 530.125H131.657C135.442 530.125 138.636 527.304 138.636 523.424C138.636 522.366 138.517 521.543 138.162 520.72C137.689 519.897 137.334 519.192 136.743 518.604C135.442 517.311 133.904 516.605 132.012 516.605H123.495C116.753 516.605 111.194 511.903 109.893 505.437C104.57 479.103 81.1497 459.235 52.9982 459.235C24.8467 459.235 1.42655 479.103 -3.89621 505.437C-5.19733 511.903 -10.8749 516.605 -17.4988 516.605H-26.0152C-27.3164 516.605 -28.7358 517.076 -29.8003 517.781C-31.5746 518.957 -32.6391 521.073 -32.6391 523.424C-32.6391 527.186 -29.8003 530.125 -25.897 530.125H30.9975C37.2665 530.125 42.2344 535.18 42.2344 541.293V696.594H-10.2835C-16.316 696.594 -21.2839 691.656 -21.2839 685.66V655.917C-21.2839 636.166 -37.3705 620.413 -57.0056 620.413H-64.1026V587.496C-64.1026 577.738 -72.0276 569.861 -82.0817 569.861C-85.3936 569.861 -88.1141 572.565 -88.1141 575.857V620.413H-90.9529C-97.4585 620.413 -102.781 615.123 -102.781 608.657V567.392C-102.781 531.888 -131.879 502.968 -167.601 502.968H-209V502.615Z" fill="url(#paint2_linear_26914_405726)"/>
<path d="M-178 683.292L-178 943H1611.88L1611.88 677.887H1548.69L1546.21 609.968C1545.62 593.987 1558.35 580.709 1574.39 580.709H1612L1611.76 552.037H1355.21C1344.12 551.214 1335.75 564.375 1344.24 576.126C1346.25 579.063 1349.55 580.709 1353.2 580.709H1462.26C1478.18 580.709 1491.03 593.987 1490.44 609.968L1490.09 616.666H1452.36C1449.29 616.666 1446.94 619.133 1446.94 622.071C1446.94 633.234 1456.01 642.282 1467.22 642.282H1488.91L1488.08 663.786H1452.36C1449.29 663.786 1446.94 666.254 1446.94 669.192C1446.94 680.355 1456.01 689.403 1467.22 689.403H1487.38L1486.55 710.907H1452.48C1449.41 710.907 1447.05 713.374 1447.05 716.312C1447.05 727.475 1456.13 736.523 1467.33 736.523H1485.49L1484.67 758.027H1418.4L1411.45 743.221C1409.91 740.048 1406.73 738.051 1403.19 738.051H1377.14C1372.66 738.051 1368.88 741.224 1368.18 745.571L1359.69 795.394H1340.82C1337.29 795.394 1334.1 797.745 1333.04 801.035L1331.98 804.09C1331.16 806.323 1329.03 807.968 1326.56 807.968H1306.51C1302.27 807.968 1298.5 805.383 1296.96 801.505L1280.81 760.612C1278.92 755.912 1274.33 752.857 1269.37 752.857H1246.5L1237.89 728.533C1234.95 720.542 1227.4 715.254 1219.03 715.254H1199.58V683.997C1199.58 676.242 1192.62 670.132 1184.84 670.954C1116.45 678.005 1062.57 733.821 1058.56 802.797C1058.45 805.735 1055.97 808.085 1053.02 808.085H1042.65C1039.23 808.085 1036.16 806.323 1034.51 803.385L1018.01 774.478C1014.94 769.19 1009.28 765.9 1003.15 765.9H952.924C947.146 765.9 942.312 770.6 942.312 776.476V795.277H919.203V785.054C919.203 777.651 913.19 771.54 905.645 771.54C903.286 771.54 901.4 773.421 901.4 775.771V805.383H863.907C859.662 805.383 855.536 807.028 852.588 809.965L828.182 833.584C825.353 836.287 821.58 837.815 817.689 837.815H806.606C801.536 837.815 796.82 840.047 793.637 843.925L774.772 866.721C771.589 870.599 766.755 872.832 761.803 872.832H724.664V861.551C724.664 859.671 723.131 858.143 721.245 858.143H716.529C714.642 858.143 713.109 859.671 713.109 861.551V872.832H663.236L647.202 849.8C637.534 835.699 621.499 827.356 604.403 827.356C597.329 827.356 590.962 822.774 588.604 815.958L582.119 796.452C578.7 786.111 571.39 777.533 561.722 772.48L545.569 764.02V763.667C545.569 740.636 529.063 721.482 507.133 717.252C502.417 716.312 498.055 719.955 498.055 724.773V796.217C498.055 804.09 491.688 810.318 483.906 810.318H453.605V797.392C453.605 795.629 452.19 794.102 450.422 794.102H449.007C447.356 794.102 445.824 795.629 445.824 797.392V810.318H409.156C402.907 810.318 397.248 813.726 394.3 819.248L380.741 844.865H326.152L316.131 834.759C312.829 831.587 308.467 829.707 303.751 829.707H273.568L273.45 825.594C273.332 822.069 270.502 819.248 266.847 819.248H259.891L252.109 807.38C249.162 802.68 243.974 799.86 238.315 799.86H214.027V768.368C214.027 760.965 205.066 755.559 197.52 762.257C196.459 763.315 195.752 764.725 195.752 766.37V799.977H170.403C163.447 799.977 156.962 795.982 154.014 789.754C139.866 760.495 118.172 735.466 91.5258 717.017V642.987C91.5258 638.992 88.3425 635.819 84.3338 635.819H73.8404C69.8317 635.819 66.6484 638.992 66.6484 642.987V702.446C52.7359 695.631 37.7622 690.578 22.199 687.288V661.201C22.199 653.328 12.8847 647.453 4.63152 654.268C3.09879 655.443 2.27347 657.206 2.27347 659.086V684.115C-4.09328 683.527 -10.5779 683.175 -17.1805 683.175H-67.0534V604.915C-67.0534 600.92 -70.2367 597.747 -74.2454 597.747H-81.0838C-102.07 597.747 -119.048 614.786 -119.048 635.584V683.292H-178Z" fill="url(#paint3_linear_26914_405726)"/>
<path d="M992.779 316.036C994.796 316.036 996.431 314.402 996.431 312.386C996.431 310.371 994.796 308.736 992.779 308.736C990.762 308.736 989.127 310.371 989.127 312.386C989.127 314.402 990.762 316.036 992.779 316.036Z" fill="#38237C"/>
<path d="M737.602 290.876C739.619 290.876 741.254 289.242 741.254 287.227C741.254 285.211 739.619 283.577 737.602 283.577C735.586 283.577 733.951 285.211 733.951 287.227C733.951 289.242 735.586 290.876 737.602 290.876Z" fill="#38237C"/>
<path d="M299.514 287.233C300.524 287.233 301.343 286.415 301.343 285.405C301.343 284.395 300.524 283.577 299.514 283.577C298.504 283.577 297.685 284.395 297.685 285.405C297.685 286.415 298.504 287.233 299.514 287.233Z" fill="#38237C"/>
<path d="M952.739 364.721C953.75 364.721 954.569 363.903 954.569 362.893C954.569 361.884 953.75 361.065 952.739 361.065C951.729 361.065 950.91 361.884 950.91 362.893C950.91 363.903 951.729 364.721 952.739 364.721Z" fill="#38237C"/>
<path d="M655.207 289.055C656.217 289.055 657.036 288.236 657.036 287.227C657.036 286.217 656.217 285.398 655.207 285.398C654.197 285.398 653.378 286.217 653.378 287.227C653.378 288.236 654.197 289.055 655.207 289.055Z" fill="#38237C"/>
<path d="M16.1781 863.755C17.1882 863.755 18.0072 862.936 18.0072 861.927C18.0072 860.917 17.1882 860.099 16.1781 860.099C15.1679 860.099 14.3491 860.917 14.3491 861.927C14.3491 862.936 15.1679 863.755 16.1781 863.755Z" fill="#38237C"/>
<path d="M1204.3 841.671C1205.31 841.671 1206.12 840.853 1206.12 839.843C1206.12 838.833 1205.31 838.015 1204.3 838.015C1203.29 838.015 1202.47 838.833 1202.47 839.843C1202.47 840.853 1203.29 841.671 1204.3 841.671Z" fill="#38237C"/>
<path d="M1416.39 440.961C1418.41 440.961 1420.04 439.327 1420.04 437.311C1420.04 435.295 1418.41 433.661 1416.39 433.661C1414.38 433.661 1412.74 435.295 1412.74 437.311C1412.74 439.327 1414.38 440.961 1416.39 440.961Z" fill="#38237C"/>
<path d="M575.297 261.4C577.314 261.4 578.949 259.765 578.949 257.75C578.949 255.734 577.314 254.1 575.297 254.1C573.28 254.1 571.646 255.734 571.646 257.75C571.646 259.765 573.28 261.4 575.297 261.4Z" fill="#38237C"/>
<path d="M123.574 342.246C127.704 342.246 131.052 338.899 131.052 334.771C131.052 330.643 127.704 327.297 123.574 327.297C119.443 327.297 116.095 330.643 116.095 334.771C116.095 338.899 119.443 342.246 123.574 342.246Z" fill="#38237C"/>
<path d="M1326.5 335.223C1330.63 335.223 1333.98 331.876 1333.98 327.748C1333.98 323.62 1330.63 320.273 1326.5 320.273C1322.37 320.273 1319.02 323.62 1319.02 327.748C1319.02 331.876 1322.37 335.223 1326.5 335.223Z" fill="#38237C"/>
<path d="M1175.72 270.751H1173.52C1171.19 270.751 1169.3 268.858 1169.3 266.53V260.806C1169.26 260.249 1168.77 259.84 1168.21 259.886C1167.72 259.924 1167.33 260.313 1167.29 260.806V266.53C1167.29 268.864 1165.4 270.751 1163.07 270.751H1160.87C1160.31 270.796 1159.9 271.282 1159.95 271.84C1159.99 272.333 1160.38 272.721 1160.87 272.76H1163.07C1165.4 272.76 1167.29 274.653 1167.29 276.981V282.705C1167.34 283.262 1167.82 283.671 1168.38 283.625C1168.87 283.587 1169.26 283.198 1169.3 282.705V276.981C1169.3 274.647 1171.2 272.76 1173.52 272.76H1175.72C1176.27 272.806 1176.76 272.397 1176.81 271.84C1176.85 271.282 1176.44 270.796 1175.89 270.751C1175.83 270.751 1175.78 270.751 1175.72 270.751Z" fill="#38237C"/>
<path d="M1092.77 507.869H1090.58C1088.24 507.869 1086.36 505.976 1086.36 503.648V497.924C1086.31 497.367 1085.82 496.958 1085.27 497.003C1084.77 497.042 1084.38 497.431 1084.35 497.924V503.648C1084.35 505.982 1082.45 507.869 1080.12 507.869H1077.92C1077.37 507.914 1076.96 508.4 1077 508.958C1077.04 509.45 1077.43 509.839 1077.92 509.878H1080.12C1082.46 509.878 1084.35 511.771 1084.35 514.099V519.823C1084.39 520.38 1084.88 520.789 1085.44 520.743C1085.93 520.704 1086.32 520.316 1086.36 519.823V514.099C1086.36 511.765 1088.25 509.878 1090.58 509.878H1092.77C1093.33 509.924 1093.82 509.515 1093.86 508.958C1093.91 508.4 1093.5 507.914 1092.94 507.869C1092.88 507.869 1092.83 507.869 1092.77 507.869Z" fill="#38237C"/>
<path d="M202.297 244.875H200.105C197.77 244.875 195.883 242.982 195.883 240.655V234.924C195.837 234.366 195.351 233.958 194.793 234.003C194.3 234.042 193.911 234.431 193.872 234.924V240.648C193.872 242.982 191.978 244.869 189.649 244.869H187.45C186.893 244.914 186.484 245.4 186.529 245.958C186.568 246.45 186.957 246.839 187.45 246.878H189.649C191.984 246.878 193.872 248.771 193.872 251.098V256.823C193.917 257.38 194.404 257.789 194.961 257.743C195.454 257.704 195.844 257.315 195.883 256.823V251.098C195.883 248.765 197.777 246.878 200.105 246.878H202.297C202.855 246.924 203.342 246.515 203.387 245.958C203.433 245.4 203.024 244.914 202.466 244.869C202.408 244.869 202.356 244.869 202.297 244.869V244.875Z" fill="#38237C"/>
<path d="M412.772 412.875H410.579C408.244 412.875 406.357 410.982 406.357 408.655V402.924C406.311 402.366 405.825 401.958 405.267 402.003C404.774 402.042 404.385 402.431 404.346 402.924V408.648C404.346 410.982 402.452 412.869 400.123 412.869H397.925C397.367 412.914 396.958 413.4 397.003 413.958C397.042 414.45 397.432 414.839 397.925 414.878H400.123C402.458 414.878 404.346 416.771 404.346 419.098V424.823C404.391 425.38 404.878 425.789 405.436 425.743C405.929 425.704 406.318 425.315 406.357 424.823V419.098C406.357 416.765 408.251 414.878 410.579 414.878H412.772C413.329 414.924 413.816 414.515 413.861 413.958C413.907 413.4 413.498 412.914 412.94 412.869C412.882 412.869 412.83 412.869 412.772 412.869V412.875Z" fill="#38237C"/>
<path d="M1303.96 842.62H1301.77C1299.44 842.62 1297.55 840.727 1297.55 838.4V832.676C1297.5 832.118 1297.02 831.71 1296.46 831.755C1295.97 831.794 1295.58 832.183 1295.54 832.676V838.4C1295.54 840.734 1293.64 842.62 1291.32 842.62H1289.12C1288.56 842.666 1288.15 843.152 1288.2 843.709C1288.24 844.202 1288.62 844.591 1289.12 844.63H1291.32C1293.65 844.63 1295.54 846.523 1295.54 848.85V854.574C1295.58 855.132 1296.07 855.54 1296.63 855.495C1297.12 855.456 1297.51 855.067 1297.55 854.574V848.85C1297.55 846.516 1299.44 844.63 1301.77 844.63H1303.96C1304.52 844.675 1305.01 844.267 1305.05 843.709C1305.1 843.152 1304.69 842.666 1304.13 842.62C1304.07 842.62 1304.02 842.62 1303.96 842.62Z" fill="#38237C"/>
<path d="M289.652 560.3C291.669 560.3 293.304 558.666 293.304 556.65C293.304 554.634 291.669 553 289.652 553C287.635 553 286 554.634 286 556.65C286 558.666 287.635 560.3 289.652 560.3Z" fill="#38237C"/>
<path d="M331.975 374.375C331.028 374.756 330.487 375.775 330.775 376.645C330.91 377.051 331.206 377.374 331.603 377.556C332.051 377.763 332.592 377.763 333.091 377.556C338.613 375.344 342.765 374.856 343.94 376.28C345.107 377.705 343.678 381.507 340.211 386.203C339.577 387.056 338.892 387.926 338.148 388.812C334.334 381.374 327.248 375.444 318.953 373.663C318.852 373.638 318.742 373.622 318.64 373.597C313.922 372.644 309.348 373.597 305.779 376.272C305.661 376.355 305.559 376.463 305.449 376.545L305.263 376.661C305.069 376.786 300.367 379.751 297.095 383.544C294.922 386.062 293.645 389.251 293.4 392.754C293.4 392.862 293.383 392.961 293.383 393.069C292.909 401.501 297.002 409.833 303.505 415.316C302.625 415.722 301.763 416.095 300.917 416.434C295.395 418.646 291.244 419.134 290.068 417.71C288.901 416.285 290.33 412.483 293.797 407.787C294.11 407.365 294.229 406.851 294.127 406.379C294.034 405.957 293.772 405.601 293.391 405.377C292.588 404.913 291.447 405.186 290.855 405.998C284.868 414.098 285.502 418.099 287.075 420.02C288.157 421.337 289.882 422 292.233 422C292.901 422 293.62 421.95 294.381 421.843C296.545 421.536 299.116 420.791 302.033 419.623C303.496 419.035 305.018 418.347 306.574 417.577C309.238 419.275 312.189 420.517 315.317 421.172C315.419 421.197 315.529 421.213 315.63 421.238C316.772 421.462 317.913 421.569 319.038 421.569C321.363 421.569 323.612 421.097 325.667 420.153C329.405 418.447 333.218 415.374 334.613 414.19C334.783 414.074 334.952 413.966 335.112 413.85C338.681 411.175 340.812 407.108 341.116 402.395C341.116 402.288 341.124 402.188 341.133 402.081C341.302 398.751 340.752 395.43 339.645 392.291C340.938 390.825 342.105 389.392 343.145 387.992C349.132 379.892 348.498 375.891 346.925 373.97C345.344 372.048 341.471 370.557 331.975 374.367V374.375ZM338.165 401.94C338.165 402.031 338.156 402.122 338.148 402.213C337.97 405.021 336.998 407.539 335.383 409.527C334.783 410.264 334.098 410.943 333.32 411.523C330.445 413.676 326.741 414.43 322.877 413.651C322.784 413.635 322.691 413.61 322.598 413.593C320.653 413.179 318.759 412.492 316.958 411.572C319.478 409.916 322.031 408.102 324.551 406.164C328.525 403.108 332.195 399.919 335.408 396.755C336.076 396.101 336.719 395.446 337.345 394.8C338.004 397.152 338.292 399.554 338.173 401.931L338.165 401.94ZM318.04 376.463C318.133 376.479 318.226 376.504 318.319 376.521C323.858 377.705 328.982 381.026 332.753 385.847C334.081 387.553 335.18 389.359 336.034 391.239C335.391 391.934 334.732 392.638 334.038 393.342C330.698 396.747 326.75 400.225 322.42 403.555C319.537 405.775 316.62 407.812 313.761 409.634C311.698 408.16 309.804 406.354 308.172 404.259C304.401 399.43 302.481 393.715 302.76 388.174C302.76 388.083 302.769 387.992 302.777 387.901C303.023 384.049 304.739 380.736 307.614 378.591C307.775 378.467 307.952 378.359 308.121 378.243C310.159 376.877 312.561 376.164 315.131 376.164C316.087 376.164 317.068 376.264 318.057 376.463H318.04ZM300.782 407.961C299.792 406.545 298.955 405.062 298.287 403.53L302.346 400.49C303.065 402.014 303.927 403.48 304.9 404.872L300.773 407.961H300.782ZM300.012 392.945C300.258 394.552 300.655 396.134 301.188 397.666L297.239 400.623C296.765 398.991 296.469 397.326 296.376 395.67L300.021 392.945H300.012ZM299.776 387.727C299.776 387.835 299.767 387.934 299.759 388.042C299.733 388.522 299.733 388.994 299.733 389.474L296.495 391.901C296.85 389.441 297.839 387.23 299.378 385.441C299.683 385.093 299.995 384.753 300.325 384.414C300.038 385.474 299.852 386.584 299.784 387.735L299.776 387.727ZM306.718 407.191C307.825 408.483 309.052 409.676 310.362 410.752L306.303 413.792C304.976 412.765 303.733 411.581 302.591 410.28L306.718 407.191ZM314.117 413.386C315.106 413.966 316.129 414.488 317.186 414.935L313.542 417.66C312.206 417.221 310.903 416.658 309.652 415.979C311.115 415.175 312.611 414.314 314.117 413.386ZM320.535 416.111C321 416.244 321.473 416.36 321.947 416.459C322.048 416.484 322.158 416.5 322.26 416.525C323.409 416.757 324.551 416.873 325.667 416.881C325.244 417.105 324.83 417.32 324.407 417.511C322.243 418.496 319.799 418.853 317.287 418.546L320.526 416.119L320.535 416.111Z" fill="#2E1D6C"/>
<path d="M1222.2 418.538C1223.55 417.018 1224.16 413.788 1219.46 407.028C1218.94 406.288 1217.97 406.008 1217.23 406.388C1216.88 406.568 1216.63 406.888 1216.54 407.268C1216.44 407.688 1216.53 408.158 1216.79 408.548C1219.95 413.098 1220.29 415.608 1219.61 416.378C1218.92 417.148 1216.31 417.228 1211.16 414.908C1210.53 414.618 1209.88 414.308 1209.22 413.978C1213.56 410.128 1216.48 404.688 1216.75 398.928V398.678C1216.87 395.858 1216.11 393.198 1214.58 391.008C1212.3 387.718 1208.84 385.018 1208.7 384.898L1208.58 384.798C1208.49 384.718 1208.42 384.638 1208.34 384.558C1205.71 382.128 1202.14 380.988 1198.27 381.378L1198.03 381.408C1191.49 382.138 1185.53 386.078 1181.85 391.448C1181.32 390.768 1180.82 390.098 1180.37 389.438C1177.21 384.888 1176.87 382.378 1177.56 381.608C1178.24 380.838 1180.86 380.758 1186 383.078C1186.44 383.278 1186.92 383.288 1187.34 383.118C1187.71 382.968 1187.98 382.688 1188.12 382.318C1188.39 381.548 1187.95 380.638 1187.12 380.268C1179.5 376.838 1176.3 377.928 1174.97 379.448C1173.62 380.968 1173.01 384.198 1177.71 390.958C1178.45 392.028 1179.31 393.138 1180.23 394.268C1179.01 396.748 1178.24 399.438 1178.1 402.208V402.458C1177.92 406.258 1179.29 409.688 1181.92 412.118C1182.05 412.228 1182.17 412.328 1182.29 412.428C1183.33 413.508 1186.05 416.208 1188.85 417.848C1190.42 418.768 1192.16 419.328 1194.03 419.518C1194.49 419.568 1194.96 419.588 1195.43 419.588C1195.9 419.588 1196.33 419.568 1196.78 419.528L1197.03 419.508C1200.47 419.148 1203.73 417.878 1206.59 415.988C1207.78 416.628 1208.94 417.218 1210.05 417.718C1212.36 418.758 1214.42 419.458 1216.16 419.778C1216.95 419.928 1217.68 419.998 1218.34 419.998C1220.05 419.998 1221.35 419.508 1222.2 418.538ZM1204.27 409.848C1205.42 408.848 1206.48 407.738 1207.41 406.548L1210.01 408.948C1209.54 409.558 1209.05 410.158 1208.5 410.718C1207.99 411.258 1207.44 411.758 1206.86 412.238L1204.26 409.838L1204.27 409.848ZM1209.04 404.198C1209.88 402.818 1210.58 401.368 1211.09 399.858L1213.41 401.998C1213.03 403.568 1212.42 405.108 1211.59 406.568L1209.03 404.198H1209.04ZM1211.9 396.738C1212.03 395.998 1212.12 395.238 1212.17 394.488V394.238C1212.21 393.638 1212.18 393.058 1212.13 392.478C1212.16 392.518 1212.19 392.558 1212.22 392.598C1213.4 394.298 1213.98 396.368 1213.9 398.588L1211.9 396.738ZM1206.38 386.618C1208.39 388.488 1209.44 391.148 1209.32 394.118V394.328C1209.07 398.648 1207.12 402.928 1203.81 406.378C1202.89 407.328 1201.91 408.178 1200.87 408.928C1198.68 407.408 1196.45 405.718 1194.25 403.898C1191.15 401.338 1188.33 398.698 1185.89 396.118C1185.14 395.328 1184.43 394.548 1183.77 393.768C1184.52 392.558 1185.41 391.398 1186.44 390.318C1189.75 386.868 1193.98 384.698 1198.35 384.208L1198.56 384.188C1198.95 384.148 1199.34 384.128 1199.73 384.128C1200.11 384.128 1200.47 384.148 1200.84 384.178C1202.61 384.358 1204.23 384.978 1205.58 385.968C1205.86 386.168 1206.12 386.378 1206.38 386.618ZM1184.28 398.808C1186.66 401.268 1189.36 403.758 1192.27 406.168C1194.2 407.758 1196.15 409.248 1198.09 410.638C1196.12 411.628 1194.02 412.268 1191.89 412.498L1191.67 412.518C1188.66 412.818 1185.89 411.948 1183.86 410.088C1183.29 409.558 1182.8 408.958 1182.39 408.318C1181.35 406.688 1180.83 404.718 1180.92 402.588V402.368C1181.03 400.438 1181.5 398.508 1182.26 396.668C1182.9 397.378 1183.57 398.088 1184.27 398.808H1184.28ZM1190.5 415.388C1190.98 415.388 1191.47 415.368 1191.96 415.318L1192.21 415.288C1193.04 415.198 1193.85 415.038 1194.65 414.838L1196.69 416.718H1196.68L1196.48 416.738C1194.22 416.948 1192.08 416.498 1190.29 415.448C1190.24 415.418 1190.2 415.388 1190.15 415.368C1190.27 415.368 1190.38 415.388 1190.49 415.388H1190.5ZM1197.77 413.858C1198.77 413.448 1199.73 412.958 1200.66 412.418C1201.71 413.118 1202.75 413.778 1203.77 414.398C1202.59 415.068 1201.37 415.608 1200.1 416.008L1197.77 413.858Z" fill="#38237C"/>
<path d="M218.202 597.538C219.546 596.018 220.157 592.788 215.462 586.028C214.943 585.288 213.965 585.008 213.232 585.388C212.876 585.568 212.631 585.888 212.54 586.268C212.438 586.688 212.529 587.158 212.794 587.548C215.951 592.098 216.287 594.608 215.605 595.378C214.923 596.148 212.305 596.228 207.163 593.908C206.531 593.618 205.879 593.308 205.217 592.978C209.556 589.128 212.479 583.688 212.754 577.928V577.678C212.866 574.858 212.112 572.198 210.584 570.008C208.303 566.718 204.841 564.018 204.698 563.898L204.576 563.798C204.494 563.718 204.423 563.638 204.342 563.558C201.714 561.128 198.14 559.988 194.27 560.378L194.025 560.408C187.487 561.138 181.529 565.078 177.853 570.448C177.323 569.768 176.825 569.098 176.366 568.438C173.209 563.888 172.873 561.378 173.555 560.608C174.238 559.838 176.855 559.758 181.998 562.078C182.436 562.278 182.925 562.288 183.342 562.118C183.709 561.968 183.984 561.688 184.116 561.318C184.391 560.548 183.953 559.638 183.118 559.268C175.501 555.838 172.303 556.928 170.969 558.448C169.624 559.968 169.013 563.198 173.708 569.958C174.452 571.028 175.307 572.138 176.234 573.268C175.012 575.748 174.238 578.438 174.095 581.208V581.458C173.922 585.258 175.287 588.688 177.924 591.118C178.047 591.228 178.169 591.328 178.291 591.428C179.33 592.508 182.049 595.208 184.849 596.848C186.418 597.768 188.159 598.328 190.033 598.518C190.491 598.568 190.96 598.588 191.428 598.588C191.897 598.588 192.335 598.568 192.783 598.528L193.027 598.508C196.469 598.148 199.728 596.878 202.59 594.988C203.781 595.628 204.942 596.218 206.052 596.718C208.364 597.758 210.421 598.458 212.163 598.778C212.947 598.928 213.68 598.998 214.342 598.998C216.053 598.998 217.347 598.508 218.202 597.538ZM200.268 588.848C201.419 587.848 202.478 586.738 203.415 585.548L206.012 587.948C205.543 588.558 205.054 589.158 204.505 589.718C203.985 590.258 203.435 590.758 202.865 591.238L200.258 588.838L200.268 588.848ZM205.044 583.198C205.879 581.818 206.582 580.368 207.091 578.858L209.413 580.998C209.026 582.568 208.415 584.108 207.59 585.568L205.034 583.198H205.044ZM207.896 575.738C208.028 574.998 208.12 574.238 208.171 573.488V573.238C208.211 572.638 208.181 572.058 208.13 571.478C208.161 571.518 208.191 571.558 208.222 571.598C209.403 573.298 209.983 575.368 209.902 577.588L207.896 575.738ZM202.376 565.618C204.392 567.488 205.441 570.148 205.319 573.118V573.328C205.075 577.648 203.119 581.928 199.81 585.378C198.893 586.328 197.905 587.178 196.867 587.928C194.677 586.408 192.447 584.718 190.247 582.898C187.151 580.338 184.33 577.698 181.886 575.118C181.142 574.328 180.43 573.548 179.768 572.768C180.521 571.558 181.407 570.398 182.436 569.318C185.746 565.868 189.982 563.698 194.351 563.208L194.565 563.188C194.952 563.148 195.339 563.128 195.726 563.128C196.113 563.128 196.469 563.148 196.836 563.178C198.608 563.358 200.227 563.978 201.582 564.968C201.857 565.168 202.121 565.378 202.376 565.618ZM180.277 577.808C182.66 580.268 185.359 582.758 188.271 585.168C190.196 586.758 192.151 588.248 194.086 589.638C192.121 590.628 190.023 591.268 187.894 591.498L187.67 591.518C184.656 591.818 181.886 590.948 179.859 589.088C179.289 588.558 178.8 587.958 178.393 587.318C177.354 585.688 176.835 583.718 176.916 581.588V581.368C177.028 579.438 177.497 577.508 178.26 575.668C178.902 576.378 179.574 577.088 180.267 577.808H180.277ZM186.499 594.388C186.978 594.388 187.467 594.368 187.956 594.318L188.21 594.288C189.035 594.198 189.85 594.038 190.654 593.838L192.691 595.718H192.681L192.477 595.738C190.216 595.948 188.078 595.498 186.285 594.448C186.245 594.418 186.204 594.388 186.153 594.368C186.265 594.368 186.377 594.388 186.489 594.388H186.499ZM193.771 592.858C194.769 592.448 195.726 591.958 196.663 591.418C197.712 592.118 198.751 592.778 199.769 593.398C198.588 594.068 197.366 594.608 196.103 595.008L193.771 592.858Z" fill="#352E7F"/>
</g>
<defs>
<linearGradient id="paint0_linear_26914_405726" x1="720" y1="0" x2="720" y2="1113" gradientUnits="userSpaceOnUse">
<stop stop-color="#170F40"/>
<stop offset="1" stop-color="#160F40"/>
</linearGradient>
<linearGradient id="paint1_linear_26914_405726" x1="720" y1="877.833" x2="720" y2="199.233" gradientUnits="userSpaceOnUse">
<stop stop-color="#285A8A"/>
<stop offset="0.37" stop-color="#38237C"/>
<stop offset="0.48" stop-color="#2D1C6A"/>
<stop offset="0.66" stop-color="#221555"/>
<stop offset="0.83" stop-color="#1B1149"/>
<stop offset="1" stop-color="#160E3F"/>
</linearGradient>
<linearGradient id="paint2_linear_26914_405726" x1="889.5" y1="1006.25" x2="889.5" y2="420.11" gradientUnits="userSpaceOnUse">
<stop stop-color="#2F1D6C"/>
<stop offset="1" stop-color="#160E3F"/>
</linearGradient>
<linearGradient id="paint3_linear_26914_405726" x1="717" y1="902.209" x2="717" y2="552.001" gradientUnits="userSpaceOnUse">
<stop stop-color="#160E3F"/>
<stop offset="1" stop-color="#27185D"/>
</linearGradient>
<clipPath id="clip0_26914_405726">
<rect width="1440" height="1113" fill="white"/>
</clipPath>
</defs>
</svg>
