<svg viewBox="0 0 562 168" fill="none" xmlns="http://www.w3.org/2000/svg">
        <path d="M25.2399 159.04C16.0699 159.04 7.6699 162.25 3.6499 167.13H551.81C556.66 167.13 560.7 163.67 561.61 159.09C561.11 159.07 560.61 159.04 560.09 159.04H25.2399Z" fill="url(#paint0_linear_2673_26290)"/>
        <path d="M25.24 156.04C13.76 156.04 3.93 160.57 0 167.13H3.64996C7.66996 162.25 16.07 159.04 25.24 159.04H560.09C560.6 159.04 561.1 159.06 561.61 159.09C561.73 158.46 561.8 157.81 561.8 157.14V156.09C561.23 156.07 560.67 156.05 560.09 156.05H25.24V156.04Z" fill="#38237C"/>
        <path d="M215.49 129.17C215.51 128.98 215.44 128.79 215.31 128.65C215.18 128.51 214.99 128.44 214.8 128.45C214.62 128.45 210.47 128.7 207.6 131.45C207.23 131.8 206.91 132.18 206.62 132.57V113.08C208.62 112.73 210.53 111.89 212.07 110.56L212.17 110.47C213.35 109.43 214.14 108.11 214.45 106.66C214.9 104.6 214.68 102 214.67 101.89V101.85C214.62 99.9199 213.74 98.1299 212.19 96.7799L212.09 96.6899C207.86 93.1199 200.99 93.14 196.77 96.7299L196.67 96.8199C195.14 98.1599 194.29 99.9299 194.23 101.83L194.19 102.26C194.19 102.36 194 104.66 194.46 106.72C194.78 108.17 195.58 109.48 196.76 110.52L196.86 110.61C198.5 112 200.53 112.84 202.65 113.15V119.02C202.3 118.5 201.89 118 201.4 117.53C198.53 114.77 194.38 114.54 194.2 114.53C194.01 114.53 193.82 114.59 193.69 114.73C193.56 114.87 193.49 115.06 193.51 115.25C193.53 115.43 193.93 119.57 196.8 122.32C198.7 124.14 201.15 124.86 202.65 125.14V155.32C202.65 156.41 203.54 157.3 204.63 157.3C205.72 157.3 206.61 156.41 206.61 155.32V139.02C208.12 138.7 210.41 137.97 212.19 136.25C215.06 133.49 215.46 129.35 215.48 129.18L215.49 129.17ZM198.4 98.7999L198.48 98.7299C199.48 97.8799 200.69 97.2899 201.98 96.9699C202.78 96.7699 203.62 96.66 204.46 96.66C206.62 96.66 208.78 97.3399 210.39 98.6999L210.47 98.7699C211.48 99.6499 212.04 100.8 212.04 102.01C212.04 103.22 211.49 104.38 210.49 105.26L210.41 105.33C208.12 107.29 204.69 107.85 201.74 107.03C200.55 106.7 199.44 106.15 198.51 105.37L198.43 105.3C197.42 104.42 196.86 103.27 196.86 102.06C196.86 100.85 197.41 99.6899 198.42 98.8099L198.4 98.7999Z" fill="#38237C"/>
        <path d="M196.85 102.05C196.85 103.26 197.41 104.41 198.42 105.29L198.5 105.36C199.43 106.14 200.54 106.69 201.73 107.02L204.2 106.76C205.78 106.59 207.21 105.99 208.31 105.01L208.37 104.95C209.26 104.15 209.74 103.09 209.74 101.96C209.74 100.84 209.25 99.78 208.36 98.98L208.3 98.92C207.2 97.95 205.79 97.36 204.22 97.19L201.98 96.96C200.69 97.29 199.48 97.87 198.48 98.72L198.4 98.79C197.39 99.67 196.84 100.83 196.84 102.04L196.85 102.05Z" fill="#86D4C9"/>
        <path d="M208.3 98.9302L208.36 98.9902C209.25 99.7902 209.74 100.85 209.74 101.97C209.74 103.09 209.26 104.15 208.37 104.96L208.31 105.02C207.2 106 205.78 106.61 204.2 106.77L201.73 107.03C204.68 107.85 208.11 107.29 210.4 105.33L210.48 105.26C211.48 104.38 212.04 103.23 212.03 102.01C212.03 100.8 211.47 99.6501 210.46 98.7701L210.38 98.7001C208.77 97.3401 206.61 96.6602 204.45 96.6602C203.61 96.6602 202.78 96.7602 201.97 96.9702L204.21 97.2001C205.78 97.3601 207.18 97.9602 208.29 98.9302H208.3Z" fill="white"/>
        <path d="M35 102.05C35 103.26 35.56 104.41 36.57 105.29L36.65 105.36C37.58 106.14 38.69 106.69 39.88 107.02L42.35 106.76C43.93 106.59 45.36 105.99 46.46 105.01L46.52 104.95C47.41 104.15 47.89 103.09 47.89 101.96C47.89 100.84 47.4 99.78 46.51 98.98L46.45 98.92C45.35 97.95 43.94 97.36 42.37 97.19L40.13 96.96C38.84 97.29 37.63 97.87 36.63 98.72L36.55 98.79C35.54 99.67 34.99 100.83 34.99 102.04L35 102.05Z" fill="#86D4C9"/>
        <path d="M46.45 98.9302L46.51 98.9902C47.4 99.7902 47.89 100.85 47.89 101.97C47.89 103.09 47.41 104.15 46.52 104.96L46.46 105.02C45.35 106 43.93 106.61 42.35 106.77L39.88 107.03C42.83 107.85 46.26 107.29 48.55 105.33L48.63 105.26C49.63 104.38 50.19 103.23 50.18 102.01C50.18 100.8 49.62 99.6501 48.61 98.7701L48.53 98.7001C46.92 97.3401 44.76 96.6602 42.6 96.6602C41.76 96.6602 40.93 96.7602 40.12 96.9702L42.36 97.2001C43.93 97.3601 45.33 97.9602 46.44 98.9302H46.45Z" fill="white"/>
        <path d="M53.5099 115.24C53.5299 115.05 53.46 114.86 53.33 114.72C53.2 114.58 53.0099 114.51 52.8199 114.52C52.6399 114.52 48.4899 114.77 45.6199 117.52C45.1399 117.99 44.7299 118.49 44.3699 119.01V113.14C46.5099 112.83 48.5699 111.98 50.2199 110.56L50.3199 110.47C51.4999 109.43 52.2899 108.11 52.5999 106.66C53.0499 104.6 52.8299 102 52.8199 101.89V101.85C52.7699 99.9199 51.8899 98.1299 50.3399 96.7799L50.2399 96.6899C46.0099 93.1199 39.1399 93.14 34.9199 96.7299L34.8199 96.8199C33.2899 98.1599 32.4399 99.9299 32.3799 101.83L32.3399 102.26C32.3399 102.36 32.1499 104.66 32.6099 106.72C32.9299 108.17 33.7299 109.48 34.9099 110.52L35.0099 110.61C36.5399 111.92 38.4299 112.74 40.4099 113.09V155.32C40.4099 156.41 41.2999 157.3 42.3899 157.3C43.4799 157.3 44.3699 156.41 44.3699 155.32V125.14C45.8699 124.86 48.3199 124.14 50.2199 122.32C53.0899 119.56 53.4899 115.42 53.5099 115.25V115.24ZM36.5499 98.7999L36.6299 98.7299C37.6299 97.8799 38.8399 97.2899 40.1299 96.9699C40.9299 96.7699 41.7699 96.66 42.6099 96.66C44.7699 96.66 46.9299 97.3399 48.5399 98.6999L48.6199 98.7699C49.6299 99.6499 50.1899 100.8 50.1899 102.01C50.1899 103.22 49.6399 104.38 48.6399 105.26L48.5599 105.33C46.2699 107.29 42.8399 107.85 39.8899 107.03C38.6999 106.7 37.5899 106.15 36.6599 105.37L36.58 105.3C35.57 104.42 35.0099 103.27 35.0099 102.06C35.0099 100.85 35.5599 99.6899 36.5699 98.8099L36.5499 98.7999Z" fill="#38237C"/>
        <path d="M94.34 111.84C94.29 109.91 93.42 108.12 91.86 106.77L91.76 106.68C87.53 103.11 80.66 103.13 76.44 106.72L76.34 106.81C74.81 108.15 73.96 109.92 73.9 111.82L73.86 112.25C73.86 112.35 73.67 114.65 74.13 116.71C74.45 118.16 75.25 119.47 76.43 120.51L76.53 120.6C78.17 121.99 80.2 122.83 82.32 123.14V128.01C81.97 127.49 81.56 126.99 81.07 126.52C78.2 123.76 74.05 123.53 73.87 123.52C73.68 123.52 73.49 123.58 73.36 123.72C73.23 123.86 73.16 124.05 73.18 124.24C73.2 124.42 73.6 128.56 76.47 131.31C78.37 133.13 80.82 133.85 82.32 134.13V155.31C82.32 156.4 83.21 157.29 84.3 157.29C85.39 157.29 86.28 156.4 86.28 155.31V123.08C88.28 122.73 90.19 121.89 91.73 120.56L91.83 120.47C93.01 119.43 93.8 118.11 94.11 116.66C94.56 114.6 94.34 112 94.33 111.89V111.84H94.34ZM78.08 108.8L78.16 108.73C79.16 107.88 80.37 107.29 81.66 106.97C82.46 106.77 83.3 106.66 84.14 106.66C86.3 106.66 88.46 107.34 90.07 108.7L90.15 108.77C91.16 109.65 91.72 110.8 91.72 112.01C91.72 113.22 91.17 114.38 90.17 115.26L90.09 115.33C87.8 117.29 84.37 117.85 81.42 117.03C80.23 116.7 79.12 116.15 78.19 115.37L78.11 115.3C77.1 114.42 76.54 113.27 76.54 112.06C76.54 110.85 77.09 109.69 78.1 108.81L78.08 108.8Z" fill="#38237C"/>
        <path d="M76.52 112.05C76.52 113.26 77.08 114.41 78.09 115.29L78.17 115.36C79.1 116.14 80.21 116.69 81.4 117.02L83.87 116.76C85.45 116.59 86.88 115.99 87.98 115.01L88.04 114.95C88.93 114.15 89.41 113.09 89.41 111.96C89.41 110.84 88.92 109.78 88.03 108.98L87.97 108.92C86.87 107.95 85.46 107.36 83.89 107.19L81.65 106.96C80.36 107.29 79.15 107.87 78.15 108.72L78.07 108.79C77.06 109.67 76.51 110.83 76.51 112.04L76.52 112.05Z" fill="#86D4C9"/>
        <path d="M87.9699 108.93L88.0299 108.99C88.9199 109.79 89.4099 110.85 89.4099 111.97C89.4099 113.09 88.9299 114.15 88.0399 114.96L87.9799 115.02C86.8699 116 85.4499 116.61 83.8699 116.77L81.3999 117.03C84.3499 117.85 87.7799 117.29 90.0699 115.33L90.1499 115.26C91.1499 114.38 91.71 113.23 91.7 112.01C91.7 110.8 91.1399 109.65 90.1299 108.77L90.0499 108.7C88.4399 107.34 86.2799 106.66 84.1199 106.66C83.2799 106.66 82.45 106.76 81.64 106.97L83.8799 107.2C85.4499 107.36 86.8499 107.96 87.9599 108.93H87.9699Z" fill="white"/>
        <path d="M195.59 140.21C195.41 140.21 191.26 140.46 188.39 143.21C188.02 143.56 187.7 143.94 187.41 144.33V139.42C189.41 139.07 191.32 138.23 192.86 136.9L192.96 136.81C194.14 135.77 194.93 134.45 195.24 133C195.69 130.94 195.47 128.34 195.46 128.23V128.18C195.4 126.26 194.53 124.46 192.98 123.12L192.88 123.03C188.65 119.46 181.78 119.48 177.56 123.07L177.46 123.16C175.93 124.5 175.08 126.27 175.02 128.17L174.98 128.61C174.98 128.71 174.79 131.01 175.25 133.07C175.57 134.52 176.37 135.83 177.56 136.87L177.66 136.96C179.3 138.35 181.33 139.19 183.45 139.5V144.35C183.16 143.96 182.83 143.59 182.47 143.23C179.6 140.47 175.45 140.24 175.27 140.23C175.08 140.23 174.89 140.29 174.76 140.43C174.63 140.57 174.56 140.76 174.58 140.95C174.6 141.13 175 145.27 177.87 148.02C179.66 149.74 181.94 150.47 183.45 150.79V155.86C183.45 156.95 184.34 157.84 185.43 157.84C186.52 157.84 187.41 156.95 187.41 155.86V150.79C188.92 150.47 191.21 149.74 192.99 148.02C195.86 145.26 196.26 141.12 196.28 140.95C196.3 140.76 196.23 140.57 196.1 140.43C195.97 140.29 195.78 140.22 195.59 140.23V140.21ZM179.19 125.14L179.27 125.07C180.27 124.22 181.48 123.63 182.77 123.31C183.57 123.11 184.41 123 185.25 123C187.41 123 189.57 123.68 191.18 125.04L191.26 125.11C192.27 125.99 192.83 127.14 192.83 128.35C192.83 129.56 192.28 130.72 191.27 131.6L191.19 131.67C188.9 133.63 185.47 134.19 182.52 133.37C181.33 133.04 180.22 132.49 179.29 131.71L179.21 131.64C178.2 130.76 177.64 129.61 177.64 128.4C177.64 127.19 178.19 126.03 179.19 125.15V125.14Z" fill="#38237C"/>
        <path d="M177.64 128.38C177.64 129.59 178.2 130.74 179.21 131.62L179.29 131.69C180.22 132.47 181.33 133.02 182.52 133.35L184.99 133.09C186.57 132.92 188 132.32 189.1 131.34L189.17 131.28C190.05 130.48 190.54 129.42 190.53 128.3C190.53 127.18 190.04 126.12 189.15 125.32L189.08 125.26C187.98 124.3 186.57 123.7 185 123.54L182.76 123.31C181.47 123.64 180.26 124.22 179.26 125.07L179.18 125.14C178.18 126.02 177.62 127.17 177.63 128.39L177.64 128.38Z" fill="#86D4C9"/>
        <path d="M189.09 125.26L189.16 125.32C190.05 126.12 190.54 127.18 190.54 128.3C190.54 129.42 190.06 130.48 189.18 131.28L189.11 131.34C188 132.32 186.58 132.93 185 133.09L182.53 133.35C185.48 134.17 188.91 133.61 191.2 131.65L191.28 131.58C192.29 130.7 192.84 129.54 192.84 128.33C192.84 127.12 192.28 125.97 191.27 125.09L191.19 125.02C189.58 123.66 187.42 122.98 185.26 122.98C184.42 122.98 183.59 123.08 182.78 123.29L185.02 123.52C186.59 123.68 187.99 124.28 189.1 125.24L189.09 125.26Z" fill="white"/>
        <path d="M71.56 140.21C71.38 140.21 67.23 140.46 64.36 143.21C63.99 143.56 63.67 143.94 63.38 144.33V139.42C65.38 139.07 67.29 138.23 68.83 136.9L68.93 136.81C70.11 135.77 70.9 134.45 71.21 133C71.66 130.94 71.44 128.34 71.43 128.23V128.18C71.37 126.26 70.5 124.46 68.95 123.12L68.85 123.03C64.62 119.46 57.75 119.48 53.53 123.07L53.43 123.16C51.9 124.5 51.05 126.27 50.99 128.17L50.95 128.61C50.95 128.71 50.76 131.01 51.22 133.07C51.54 134.52 52.34 135.83 53.52 136.87L53.62 136.96C55.26 138.35 57.29 139.19 59.41 139.5V144.35C59.12 143.96 58.79 143.59 58.43 143.23C55.56 140.47 51.41 140.24 51.23 140.23C51.04 140.23 50.85 140.29 50.72 140.43C50.59 140.57 50.52 140.76 50.54 140.95C50.56 141.13 50.96 145.27 53.83 148.02C55.62 149.74 57.9 150.47 59.41 150.79V155.86C59.41 156.95 60.3 157.84 61.39 157.84C62.48 157.84 63.37 156.95 63.37 155.86V150.79C64.88 150.47 67.17 149.74 68.95 148.02C71.82 145.26 72.22 141.12 72.24 140.95C72.26 140.76 72.19 140.57 72.06 140.43C71.93 140.29 71.74 140.22 71.55 140.23L71.56 140.21ZM55.16 125.14L55.24 125.07C56.24 124.22 57.45 123.63 58.74 123.31C59.54 123.11 60.38 123 61.22 123C63.38 123 65.54 123.68 67.15 125.04L67.23 125.11C68.24 125.99 68.8 127.14 68.8 128.35C68.8 129.56 68.25 130.72 67.24 131.6L67.16 131.67C64.87 133.63 61.44 134.19 58.49 133.37C57.3 133.04 56.19 132.49 55.26 131.71L55.18 131.64C54.17 130.76 53.61 129.61 53.61 128.4C53.61 127.19 54.16 126.03 55.16 125.15V125.14Z" fill="#38237C"/>
        <path d="M53.61 128.38C53.61 129.59 54.17 130.74 55.18 131.62L55.26 131.69C56.19 132.47 57.3 133.02 58.49 133.35L60.96 133.09C62.54 132.92 63.97 132.32 65.07 131.34L65.14 131.28C66.02 130.48 66.51 129.42 66.51 128.3C66.51 127.18 66.02 126.12 65.13 125.32L65.06 125.26C63.96 124.3 62.55 123.7 60.98 123.54L58.74 123.31C57.45 123.64 56.24 124.22 55.24 125.07L55.16 125.14C54.16 126.02 53.6 127.17 53.61 128.39V128.38Z" fill="#86D4C9"/>
        <path d="M65.05 125.26L65.12 125.32C66.01 126.12 66.5 127.18 66.5 128.3C66.5 129.42 66.02 130.48 65.13 131.28L65.06 131.34C63.95 132.32 62.53 132.93 60.95 133.09L58.48 133.35C61.43 134.17 64.86 133.61 67.15 131.65L67.23 131.58C68.24 130.7 68.79 129.54 68.79 128.33C68.79 127.12 68.23 125.97 67.22 125.09L67.14 125.02C65.53 123.66 63.37 122.98 61.21 122.98C60.37 122.98 59.54 123.08 58.73 123.29L60.97 123.52C62.54 123.68 63.95 124.28 65.05 125.24V125.26Z" fill="white"/>
        <path d="M34.95 140.21C34.77 140.21 30.62 140.46 27.75 143.21C27.38 143.56 27.06 143.94 26.77 144.33V139.42C28.77 139.07 30.68 138.23 32.22 136.9L32.32 136.81C33.5 135.77 34.29 134.45 34.6 133C35.05 130.94 34.83 128.34 34.82 128.23V128.18C34.76 126.26 33.89 124.46 32.34 123.12L32.24 123.03C28.01 119.46 21.14 119.48 16.92 123.07L16.82 123.16C15.29 124.5 14.44 126.27 14.38 128.17L14.34 128.61C14.34 128.71 14.15 131.01 14.61 133.07C14.93 134.52 15.73 135.83 16.92 136.87L17.02 136.96C18.66 138.35 20.69 139.19 22.81 139.5V144.35C22.52 143.96 22.19 143.59 21.83 143.23C18.96 140.47 14.81 140.24 14.63 140.23C14.44 140.23 14.25 140.29 14.12 140.43C13.99 140.57 13.92 140.76 13.94 140.95C13.96 141.13 14.36 145.27 17.23 148.02C19.02 149.74 21.3 150.47 22.81 150.79V155.86C22.81 156.95 23.7 157.84 24.79 157.84C25.88 157.84 26.77 156.95 26.77 155.86V150.79C28.28 150.47 30.57 149.74 32.35 148.02C35.22 145.26 35.62 141.12 35.64 140.95C35.66 140.76 35.59 140.57 35.46 140.43C35.33 140.29 35.14 140.22 34.95 140.23V140.21ZM18.55 125.14L18.63 125.07C19.63 124.22 20.84 123.63 22.13 123.31C22.93 123.11 23.77 123 24.61 123C26.77 123 28.93 123.68 30.54 125.04L30.62 125.11C31.63 125.99 32.19 127.14 32.19 128.35C32.19 129.56 31.64 130.72 30.63 131.6L30.55 131.67C28.26 133.63 24.83 134.19 21.88 133.37C20.69 133.04 19.58 132.49 18.65 131.71L18.57 131.64C17.56 130.76 17 129.61 17 128.4C17 127.19 17.55 126.03 18.55 125.15V125.14Z" fill="#38237C"/>
        <path d="M17 128.38C17 129.59 17.56 130.74 18.57 131.62L18.65 131.69C19.58 132.47 20.69 133.02 21.88 133.35L24.35 133.09C25.93 132.92 27.36 132.32 28.46 131.34L28.53 131.28C29.41 130.48 29.9 129.42 29.89 128.3C29.89 127.18 29.4 126.12 28.51 125.32L28.44 125.26C27.34 124.3 25.93 123.7 24.36 123.54L22.12 123.31C20.83 123.64 19.62 124.22 18.62 125.07L18.54 125.14C17.54 126.02 16.98 127.17 16.99 128.39L17 128.38Z" fill="#86D4C9"/>
        <path d="M28.45 125.26L28.52 125.32C29.41 126.12 29.9 127.18 29.9 128.3C29.9 129.42 29.42 130.48 28.54 131.28L28.47 131.34C27.36 132.32 25.94 132.93 24.36 133.09L21.89 133.35C24.84 134.17 28.27 133.61 30.56 131.65L30.64 131.58C31.65 130.7 32.2 129.54 32.2 128.33C32.2 127.12 31.64 125.97 30.63 125.09L30.55 125.02C28.94 123.66 26.78 122.98 24.62 122.98C23.78 122.98 22.95 123.08 22.14 123.29L24.38 123.52C25.95 123.68 27.35 124.28 28.46 125.24L28.45 125.26Z" fill="white"/>
        <path d="M306.57 58.1101L283.71 102.66L288.31 104.87L309.63 62.1401C309.67 62.0601 309.74 62.0001 309.79 61.9301L309.96 61.5901L310.39 61.4201C310.39 61.4201 310.45 61.3801 310.48 61.3601L360.83 41.7601C360.83 41.7601 360.9 41.7601 360.94 41.7401L361.41 41.5601V36.8501L306.57 58.1201V58.1101Z" fill="#77A4F2"/>
        <path d="M327.03 117.66V147.62L355.09 132.64L327.03 117.66Z" fill="#C0DBFF"/>
        <path d="M361.46 136.04L335.95 149.66H386.98L361.46 136.04Z" fill="#C0DBFF"/>
        <path d="M367.84 132.64L395.38 147.34V117.93L367.84 132.64Z" fill="#C0DBFF"/>
        <path d="M432.23 108.05V107.74L431.6 108.05H432.23Z" fill="#C0DBFF"/>
        <path d="M335.95 115.61L361.46 129.23L386.98 115.61H335.95Z" fill="#C0DBFF"/>
        <path d="M427.77 109.91L427.54 110.02L407.04 68.3799L361.41 50.6099L315.78 68.3799L295.83 107.03L295.77 155.63H317.94V109.72H315.11C314.23 109.72 313.51 109 313.51 108.12V101.58C313.51 100.7 314.23 99.9799 315.11 99.9799H407.82C408.7 99.9799 409.42 100.7 409.42 101.58V108.12C409.42 109 408.7 109.72 407.82 109.72H404.47V155.63H427.77V109.91V109.91ZM399.49 93.2399C399.49 94.1199 398.77 94.8399 397.89 94.8399H325.04C324.16 94.8399 323.44 94.1199 323.44 93.2399V71.5999C323.44 70.7199 324.16 69.9999 325.04 69.9999H397.89C398.77 69.9999 399.49 70.7199 399.49 71.5999V93.2399Z" fill="#C0DBFF"/>
        <path d="M427.77 109.91V155.63H432.23V108.05H431.6L427.77 109.91Z" fill="white"/>
        <path d="M361.41 36.8501V41.5601L361.46 41.5401L412.97 61.5901L434.56 104.87L439.21 102.65L416.34 58.1201L361.41 36.8501Z" fill="white"/>
        <path d="M315.78 68.3902L361.41 50.6202L407.04 68.3902L427.54 110.03L427.77 109.91L431.6 108.05L432.23 107.74V107.48L410.6 64.1302L361.44 44.9902L312.27 64.1302L290.7 107.37V155.63H295.77L295.82 107.04L315.78 68.3902Z" fill="#77A4F2"/>
        <path d="M442.82 102.68L418.9 56.1102C418.72 55.7602 418.42 55.4902 418.05 55.3502L361.98 33.6402C361.61 33.5002 361.2 33.5002 360.83 33.6402L304.84 55.3502C304.47 55.4902 304.17 55.7602 303.99 56.1102L280.09 102.68C279.89 103.07 279.86 103.52 280 103.93C280.14 104.34 280.44 104.68 280.84 104.86L287.49 108.03V158.84H435.43V107.98L442.07 104.86C442.47 104.68 442.77 104.34 442.91 103.93C443.05 103.52 443.02 103.06 442.82 102.68V102.68ZM402.87 106.45H319.54C319.37 106.45 319.22 106.48 319.06 106.53H316.7V103.19H406.21V106.53H403.34C403.19 106.48 403.03 106.45 402.86 106.45H402.87ZM321.14 109.73H401.27V155.31H321.14V109.73ZM404.47 109.73H407.82C408.7 109.73 409.42 109.01 409.42 108.13V101.59C409.42 100.71 408.7 99.9902 407.82 99.9902H315.11C314.23 99.9902 313.51 100.71 313.51 101.59V108.13C313.51 109.01 314.23 109.73 315.11 109.73H317.94V155.64H290.7V107.37L312.27 64.1302L361.44 44.9902L410.61 64.1302L432.24 107.48V155.64H404.48V109.73H404.47ZM434.56 104.87L412.97 61.6002L361.46 41.5502L361.41 41.5702L360.94 41.7502C360.94 41.7502 360.87 41.7502 360.83 41.7702L310.48 61.3702C310.48 61.3702 310.42 61.4102 310.39 61.4302L309.96 61.6002L309.79 61.9402C309.74 62.0102 309.67 62.0702 309.63 62.1502L288.31 104.88L283.71 102.67L306.57 58.1202L361.41 36.8502L416.34 58.1202L439.22 102.66L434.57 104.87H434.56Z" fill="#38237C"/>
        <path d="M401.27 109.73H321.14V155.31H401.27V109.73ZM327.04 117.66L355.1 132.64L327.04 147.62V117.66V117.66ZM335.96 115.62H386.98L361.47 129.24L335.96 115.62V115.62ZM361.47 136.05L386.98 149.67H335.96L361.47 136.05ZM367.84 132.65L395.38 117.94V147.35L367.84 132.64V132.65Z" fill="white"/>
        <path d="M326.64 91.6402H340.45C341.53 83.4302 350.82 76.9902 362.09 76.9902C373.36 76.9902 382.65 83.4302 383.73 91.6402H396.3V73.2002H326.65V91.6402H326.64Z" fill="#77A4F2"/>
        <path d="M397.89 70H325.04C324.16 70 323.44 70.72 323.44 71.6V93.24C323.44 94.12 324.16 94.84 325.04 94.84H397.89C398.77 94.84 399.49 94.12 399.49 93.24V71.6C399.49 70.72 398.77 70 397.89 70ZM396.29 91.64H383.72C382.64 83.43 373.35 76.99 362.08 76.99C350.81 76.99 341.52 83.43 340.44 91.64H326.63V73.2H396.28V91.64H396.29ZM362.08 80.19C362.9 80.19 363.7 80.24 364.49 80.31C372.83 81.08 379.45 85.75 380.48 91.64H343.67C344.79 85.2 352.62 80.19 362.07 80.19H362.08Z" fill="#38237C"/>
        <path d="M375.04 91.6401H380.49C379.46 85.7501 372.84 81.0801 364.5 80.3101C370.23 82.5401 374.31 86.7201 375.04 91.6401Z" fill="white"/>
        <path d="M364.5 80.3202C363.71 80.2502 362.91 80.2002 362.09 80.2002C352.64 80.2002 344.81 85.2102 343.69 91.6502H375.05C374.32 86.7302 370.24 82.5502 364.51 80.3202H364.5Z" fill="#86D4C9"/>
        <path d="M247.43 61.9902C245.7 62.8102 244.49 64.5502 244.49 66.6002V155.64H247.43V61.9902Z" fill="#A5A5F9"/>
        <path d="M265.55 61.4902H259.69V155.64H265.55V61.4902Z" fill="#A5A5F9"/>
        <path d="M256.49 61.4902H250.63V155.64H256.49V61.4902Z" fill="#A5A5F9"/>
        <path d="M255.41 31.3799C262.47 34.2199 266.45 41.4999 266.88 50.2099H274.1C273.33 40.2299 265.37 32.2299 255.41 31.3799V31.3799Z" fill="white"/>
        <path d="M255.41 31.3803C254.83 31.3303 254.24 31.3003 253.65 31.3003C253.51 31.3003 253.38 31.3203 253.24 31.3203C247.41 34.1103 244.76 41.4503 244.54 50.2103H266.88C266.45 41.5003 262.47 34.2203 255.41 31.3803V31.3803Z" fill="#C0DBFF"/>
        <path d="M253.24 31.3203C242.65 31.5303 234 39.7803 233.19 50.2103H244.54C244.76 41.4403 247.4 34.1003 253.24 31.3203V31.3203Z" fill="#77A4F2"/>
        <path d="M253.65 28.1001C241.06 28.1001 230.73 37.9701 229.98 50.3701H229.93V73.6701H224.74V63.2201C224.74 62.3401 224.02 61.6201 223.14 61.6201C222.26 61.6201 221.54 62.3401 221.54 63.2201V148.89C221.54 149.77 222.26 150.49 223.14 150.49C224.02 150.49 224.74 149.77 224.74 148.89V90.1601H229.93V158.83H277.36V50.3701H277.31C276.56 37.9601 266.23 28.1001 253.64 28.1001H253.65ZM241.58 155.64V53.5701H247.44V155.63H241.58V155.64ZM233.14 53.5801H238.38V155.64H233.14V53.5701V53.5801ZM250.64 61.5001V53.5801H256.5V155.64H250.64V61.4901V61.5001ZM259.7 61.5001V53.5801H265.56V155.64H259.7V61.4901V61.5001ZM266.89 50.2201H233.2C234.01 39.7901 242.66 31.5401 253.25 31.3301C253.39 31.3301 253.52 31.3101 253.66 31.3101C254.25 31.3101 254.84 31.3501 255.42 31.3901C265.38 32.2401 273.34 40.2301 274.11 50.2201H266.89V50.2201ZM268.75 155.64V53.5701H274.17V155.63H268.75V155.64ZM224.75 86.9701V76.8801H229.94V86.9701H224.75Z" fill="#38237C"/>
        <path d="M274.16 61.4902H268.74V155.64H274.16V61.4902Z" fill="white"/>
        <path d="M265.55 53.5703H259.69V61.4903H265.55V53.5703Z" fill="#8D86EB"/>
        <path d="M247.43 61.9903V53.5703H241.57V155.63H244.49V66.5903C244.49 64.5503 245.7 62.8003 247.43 61.9803V61.9903Z" fill="#8D86EB"/>
        <path d="M238.37 53.5703H233.13V155.63H238.37V53.5703Z" fill="#8D86EB"/>
        <path d="M256.49 53.5703H250.63V61.4903H256.49V53.5703Z" fill="#8D86EB"/>
        <path d="M274.16 53.5703H268.74V61.4903H274.16V53.5703Z" fill="#8D86EB"/>
        <path d="M406.22 103.19H316.71V106.53H319.07C319.22 106.48 319.38 106.45 319.55 106.45H402.88C403.05 106.45 403.2 106.48 403.36 106.53H406.23V103.19H406.22Z" fill="#8D86EB"/>
        <path d="M462.71 102.05C462.71 103.26 463.27 104.41 464.28 105.29L464.36 105.36C465.29 106.14 466.4 106.69 467.59 107.02L470.06 106.76C471.64 106.59 473.06 105.99 474.17 105.01L474.23 104.95C475.12 104.15 475.6 103.09 475.6 101.96C475.6 100.84 475.11 99.78 474.22 98.98L474.16 98.92C473.06 97.95 471.65 97.36 470.08 97.19L467.84 96.96C466.55 97.29 465.34 97.87 464.34 98.72L464.26 98.79C463.25 99.67 462.7 100.83 462.7 102.04L462.71 102.05Z" fill="#86D4C9"/>
        <path d="M474.16 98.9302L474.22 98.9902C475.11 99.7902 475.6 100.85 475.6 101.97C475.6 103.09 475.12 104.15 474.23 104.96L474.17 105.02C473.06 106 471.64 106.61 470.06 106.77L467.59 107.03C470.54 107.85 473.97 107.29 476.26 105.33L476.34 105.26C477.34 104.38 477.9 103.23 477.89 102.01C477.89 100.8 477.33 99.6501 476.32 98.7701L476.24 98.7001C474.63 97.3401 472.47 96.6602 470.31 96.6602C469.47 96.6602 468.64 96.7602 467.83 96.9702L470.07 97.2001C471.64 97.3601 473.05 97.9602 474.15 98.9302H474.16Z" fill="white"/>
        <path d="M481.22 115.24C481.24 115.05 481.17 114.86 481.04 114.72C480.91 114.58 480.72 114.51 480.53 114.52C480.35 114.52 476.2 114.77 473.33 117.52C472.85 117.99 472.44 118.49 472.08 119.01V113.14C474.22 112.83 476.28 111.98 477.93 110.56L478.03 110.47C479.21 109.43 480 108.11 480.31 106.66C480.76 104.6 480.54 102 480.53 101.89V101.85C480.48 99.9199 479.6 98.1299 478.05 96.7799L477.95 96.6899C473.72 93.1199 466.85 93.14 462.63 96.7299L462.53 96.8199C461 98.1599 460.15 99.9299 460.09 101.83L460.05 102.26C460.05 102.36 459.86 104.66 460.32 106.72C460.64 108.17 461.44 109.48 462.62 110.52L462.72 110.61C464.25 111.92 466.14 112.74 468.12 113.09V155.32C468.12 156.41 469.01 157.3 470.1 157.3C471.19 157.3 472.08 156.41 472.08 155.32V125.14C473.58 124.86 476.03 124.14 477.93 122.32C480.8 119.56 481.2 115.42 481.22 115.25V115.24ZM464.26 98.7999L464.34 98.7299C465.34 97.8799 466.55 97.2899 467.84 96.9699C468.64 96.7699 469.48 96.66 470.32 96.66C472.48 96.66 474.64 97.3399 476.25 98.6999L476.33 98.7699C477.34 99.6499 477.9 100.8 477.9 102.01C477.9 103.22 477.35 104.38 476.35 105.26L476.27 105.33C473.98 107.29 470.55 107.85 467.6 107.03C466.41 106.7 465.3 106.15 464.37 105.37L464.29 105.3C463.28 104.42 462.72 103.27 462.72 102.06C462.72 100.85 463.27 99.6899 464.28 98.8099L464.26 98.7999Z" fill="#38237C"/>
        <path d="M537.58 87.05C537.58 88.26 538.14 89.41 539.15 90.29L539.23 90.36C540.16 91.14 541.27 91.69 542.46 92.02L544.93 91.76C546.51 91.59 547.93 90.99 549.04 90.01L549.1 89.95C549.99 89.15 550.47 88.09 550.47 86.96C550.47 85.84 549.98 84.78 549.09 83.98L549.03 83.92C547.93 82.95 546.52 82.36 544.95 82.19L542.71 81.96C541.42 82.29 540.21 82.87 539.21 83.72L539.13 83.79C538.12 84.67 537.57 85.83 537.57 87.04L537.58 87.05Z" fill="#86D4C9"/>
        <path d="M549.03 83.9302L549.09 83.9902C549.98 84.7902 550.47 85.8502 550.47 86.9702C550.47 88.0902 549.99 89.1502 549.1 89.9602L549.04 90.0201C547.93 91.0001 546.51 91.6101 544.93 91.7701L542.46 92.0302C545.41 92.8502 548.84 92.2902 551.13 90.3302L551.21 90.2602C552.21 89.3802 552.77 88.2302 552.76 87.0102C552.76 85.8002 552.2 84.6501 551.19 83.7701L551.11 83.7001C549.5 82.3401 547.34 81.6602 545.18 81.6602C544.34 81.6602 543.51 81.7602 542.7 81.9702L544.94 82.2001C546.51 82.3601 547.91 82.9602 549.02 83.9302H549.03Z" fill="white"/>
        <path d="M556.1 115.24C556.12 115.05 556.05 114.86 555.92 114.72C555.79 114.58 555.6 114.51 555.41 114.52C555.23 114.52 551.08 114.77 548.21 117.52C547.73 117.99 547.32 118.49 546.96 119.01V112.17C548.47 111.85 550.72 111.11 552.48 109.41C555.35 106.65 555.75 102.51 555.77 102.34C555.79 102.15 555.72 101.96 555.59 101.82C555.46 101.68 555.27 101.61 555.08 101.62C554.9 101.62 550.75 101.87 547.88 104.62C547.54 104.95 547.23 105.3 546.96 105.65V98.1299C549.1 97.8199 551.16 96.9699 552.81 95.5499L552.91 95.4599C554.09 94.4199 554.88 93.0999 555.19 91.6499C555.64 89.5899 555.42 86.9899 555.41 86.8799V86.8299C555.35 84.8999 554.48 83.1099 552.93 81.7599L552.83 81.6699C548.6 78.0999 541.73 78.1199 537.51 81.7099L537.41 81.7999C535.88 83.1399 535.03 84.9099 534.97 86.8099L534.93 87.2399C534.93 87.3399 534.74 89.6399 535.2 91.6999C535.52 93.1499 536.32 94.4599 537.5 95.4999L537.6 95.5899C539.13 96.8999 541.02 97.7199 543 98.0699V105.82C542.69 105.4 542.35 104.99 541.95 104.61C539.08 101.85 534.93 101.62 534.75 101.61C534.56 101.61 534.37 101.67 534.24 101.81C534.11 101.95 534.04 102.14 534.06 102.33C534.08 102.51 534.48 106.65 537.35 109.4C539.16 111.14 541.49 111.88 543 112.18V155.3C543 156.39 543.89 157.28 544.98 157.28C546.07 157.28 546.96 156.39 546.96 155.3V125.12C548.46 124.84 550.91 124.12 552.81 122.3C555.68 119.54 556.08 115.4 556.1 115.23V115.24ZM539.14 83.7999L539.22 83.7299C540.22 82.8799 541.43 82.2899 542.72 81.9699C543.52 81.7699 544.36 81.6599 545.2 81.6599C547.36 81.6599 549.52 82.3399 551.13 83.6999L551.21 83.7699C552.22 84.6499 552.78 85.7999 552.78 87.0099C552.78 88.2199 552.23 89.3799 551.23 90.2599L551.15 90.3299C548.86 92.2899 545.43 92.8499 542.48 92.0299C541.29 91.6999 540.18 91.1499 539.25 90.3699L539.17 90.2999C538.16 89.4199 537.6 88.2699 537.6 87.0599C537.6 85.8499 538.15 84.6899 539.16 83.8099L539.14 83.7999Z" fill="#38237C"/>
        <path d="M519.45 120.56L519.55 120.47C520.73 119.43 521.52 118.11 521.83 116.66C522.28 114.6 522.06 112 522.05 111.89V111.85C522 109.92 521.12 108.13 519.57 106.78L519.47 106.69C515.24 103.12 508.37 103.14 504.15 106.73L504.05 106.82C502.52 108.16 501.67 109.93 501.61 111.83L501.57 112.26C501.57 112.36 501.38 114.66 501.84 116.72C502.16 118.17 502.96 119.48 504.14 120.52L504.24 120.61C505.88 122 507.91 122.84 510.03 123.15V128.02C509.68 127.5 509.27 127 508.78 126.53C505.91 123.77 501.76 123.54 501.58 123.53C501.39 123.53 501.2 123.59 501.07 123.73C500.94 123.87 500.87 124.06 500.89 124.25C500.91 124.43 501.31 128.57 504.18 131.32C506.08 133.14 508.53 133.86 510.03 134.14V155.32C510.03 156.41 510.92 157.3 512.01 157.3C513.1 157.3 513.99 156.41 513.99 155.32V123.09C515.99 122.74 517.9 121.9 519.44 120.57L519.45 120.56ZM505.79 108.8L505.87 108.73C506.87 107.88 508.08 107.29 509.37 106.97C510.17 106.77 511.01 106.66 511.85 106.66C514.01 106.66 516.17 107.34 517.78 108.7L517.86 108.77C518.87 109.65 519.43 110.8 519.43 112.01C519.43 113.22 518.88 114.38 517.88 115.26L517.8 115.33C515.51 117.29 512.08 117.85 509.13 117.03C507.94 116.7 506.83 116.15 505.9 115.37L505.82 115.3C504.81 114.42 504.25 113.27 504.25 112.06C504.25 110.85 504.8 109.69 505.81 108.81L505.79 108.8Z" fill="#38237C"/>
        <path d="M504.23 112.05C504.23 113.26 504.79 114.41 505.8 115.29L505.88 115.36C506.81 116.14 507.92 116.69 509.11 117.02L511.58 116.76C513.16 116.59 514.58 115.99 515.69 115.01L515.75 114.95C516.64 114.15 517.12 113.09 517.12 111.96C517.12 110.84 516.63 109.78 515.74 108.98L515.68 108.92C514.58 107.95 513.17 107.36 511.6 107.19L509.36 106.96C508.07 107.29 506.86 107.87 505.86 108.72L505.78 108.79C504.77 109.67 504.22 110.83 504.22 112.04L504.23 112.05Z" fill="#86D4C9"/>
        <path d="M515.68 108.93L515.74 108.99C516.63 109.79 517.12 110.85 517.12 111.97C517.12 113.09 516.64 114.15 515.75 114.96L515.69 115.02C514.58 116 513.16 116.61 511.58 116.77L509.11 117.03C512.06 117.85 515.49 117.29 517.78 115.33L517.86 115.26C518.86 114.38 519.42 113.23 519.41 112.01C519.41 110.8 518.85 109.65 517.84 108.77L517.76 108.7C516.15 107.34 513.99 106.66 511.83 106.66C510.99 106.66 510.16 106.76 509.35 106.97L511.59 107.2C513.16 107.36 514.56 107.96 515.67 108.93H515.68Z" fill="white"/>
        <path d="M539.3 140.21C539.12 140.21 534.97 140.46 532.1 143.21C531.73 143.56 531.41 143.94 531.12 144.33V139.42C533.12 139.07 535.03 138.23 536.57 136.9L536.67 136.81C537.85 135.77 538.64 134.45 538.95 133C539.4 130.94 539.18 128.34 539.17 128.23V128.18C539.11 126.26 538.24 124.46 536.69 123.12L536.59 123.03C532.36 119.46 525.49 119.48 521.27 123.07L521.17 123.16C519.64 124.5 518.79 126.27 518.73 128.17L518.69 128.61C518.69 128.71 518.5 131.01 518.96 133.07C519.28 134.52 520.08 135.83 521.26 136.87L521.36 136.96C523 138.35 525.03 139.19 527.15 139.5V144.35C526.86 143.96 526.53 143.59 526.17 143.23C523.3 140.47 519.15 140.24 518.97 140.23C518.78 140.23 518.59 140.29 518.46 140.43C518.33 140.57 518.26 140.76 518.28 140.95C518.3 141.13 518.7 145.27 521.57 148.02C523.36 149.74 525.64 150.47 527.15 150.79V155.86C527.15 156.95 528.04 157.84 529.13 157.84C530.22 157.84 531.11 156.95 531.11 155.86V150.79C532.62 150.47 534.91 149.74 536.69 148.02C539.56 145.26 539.96 141.12 539.98 140.95C540 140.76 539.93 140.57 539.8 140.43C539.67 140.29 539.48 140.22 539.29 140.23L539.3 140.21ZM522.9 125.14L522.98 125.07C523.98 124.22 525.19 123.63 526.48 123.31C527.28 123.11 528.12 123 528.96 123C531.12 123 533.28 123.68 534.89 125.04L534.97 125.11C535.98 125.99 536.54 127.14 536.54 128.35C536.54 129.56 535.99 130.72 534.98 131.6L534.9 131.67C532.61 133.63 529.18 134.19 526.23 133.37C525.04 133.04 523.93 132.49 523 131.71L522.92 131.64C521.91 130.76 521.35 129.61 521.35 128.4C521.35 127.19 521.9 126.03 522.9 125.15V125.14Z" fill="#38237C"/>
        <path d="M521.35 128.38C521.35 129.59 521.91 130.74 522.92 131.62L523 131.69C523.93 132.47 525.04 133.02 526.23 133.35L528.7 133.09C530.28 132.92 531.7 132.32 532.81 131.34L532.88 131.28C533.76 130.48 534.25 129.42 534.25 128.3C534.25 127.18 533.76 126.12 532.87 125.32L532.8 125.26C531.7 124.3 530.29 123.7 528.72 123.54L526.48 123.31C525.19 123.64 523.98 124.22 522.98 125.07L522.9 125.14C521.9 126.02 521.34 127.17 521.35 128.39V128.38Z" fill="#86D4C9"/>
        <path d="M532.8 125.26L532.87 125.32C533.76 126.12 534.25 127.18 534.25 128.3C534.25 129.42 533.77 130.48 532.88 131.28L532.81 131.34C531.7 132.32 530.28 132.93 528.7 133.09L526.23 133.35C529.18 134.17 532.61 133.61 534.9 131.65L534.98 131.58C535.99 130.7 536.54 129.54 536.54 128.33C536.54 127.12 535.98 125.97 534.97 125.09L534.89 125.02C533.28 123.66 531.12 122.98 528.96 122.98C528.12 122.98 527.29 123.08 526.48 123.29L528.72 123.52C530.29 123.68 531.69 124.28 532.8 125.24V125.26Z" fill="white"/>
        <path d="M499.27 140.21C499.09 140.21 494.94 140.46 492.07 143.21C491.7 143.56 491.38 143.94 491.09 144.33V139.42C493.09 139.07 495 138.23 496.54 136.9L496.64 136.81C497.82 135.77 498.61 134.45 498.92 133C499.37 130.94 499.15 128.34 499.14 128.23V128.18C499.08 126.26 498.21 124.46 496.66 123.12L496.56 123.03C492.33 119.46 485.46 119.48 481.24 123.07L481.14 123.16C479.61 124.5 478.76 126.27 478.7 128.17L478.66 128.61C478.66 128.71 478.47 131.01 478.93 133.07C479.25 134.52 480.05 135.83 481.23 136.87L481.33 136.96C482.97 138.35 485 139.19 487.12 139.5V144.35C486.83 143.96 486.5 143.59 486.14 143.23C483.27 140.47 479.12 140.24 478.94 140.23C478.75 140.23 478.56 140.29 478.43 140.43C478.3 140.57 478.23 140.76 478.25 140.95C478.27 141.13 478.67 145.27 481.54 148.02C483.33 149.74 485.61 150.47 487.12 150.79V155.86C487.12 156.95 488.01 157.84 489.1 157.84C490.19 157.84 491.08 156.95 491.08 155.86V150.79C492.59 150.47 494.88 149.74 496.66 148.02C499.53 145.26 499.93 141.12 499.95 140.95C499.97 140.76 499.9 140.57 499.77 140.43C499.64 140.29 499.45 140.22 499.26 140.23L499.27 140.21ZM482.87 125.14L482.95 125.07C483.95 124.22 485.16 123.63 486.45 123.31C487.25 123.11 488.09 123 488.93 123C491.09 123 493.25 123.68 494.86 125.04L494.94 125.11C495.95 125.99 496.51 127.14 496.51 128.35C496.51 129.56 495.96 130.72 494.95 131.6L494.87 131.67C492.58 133.63 489.15 134.19 486.2 133.37C485.01 133.04 483.9 132.49 482.97 131.71L482.89 131.64C481.88 130.76 481.32 129.61 481.32 128.4C481.32 127.19 481.87 126.03 482.87 125.15V125.14Z" fill="#38237C"/>
        <path d="M481.32 128.38C481.32 129.59 481.88 130.74 482.89 131.62L482.97 131.69C483.9 132.47 485.01 133.02 486.2 133.35L488.67 133.09C490.25 132.92 491.68 132.32 492.78 131.34L492.85 131.28C493.73 130.48 494.22 129.42 494.21 128.3C494.21 127.18 493.72 126.12 492.83 125.32L492.76 125.26C491.66 124.3 490.25 123.7 488.68 123.54L486.44 123.31C485.15 123.64 483.94 124.22 482.94 125.07L482.86 125.14C481.86 126.02 481.3 127.17 481.31 128.39L481.32 128.38Z" fill="#86D4C9"/>
        <path d="M492.76 125.26L492.83 125.32C493.72 126.12 494.21 127.18 494.21 128.3C494.21 129.42 493.73 130.48 492.85 131.28L492.78 131.34C491.67 132.32 490.25 132.93 488.67 133.09L486.2 133.35C489.15 134.17 492.58 133.61 494.87 131.65L494.95 131.58C495.96 130.7 496.51 129.54 496.51 128.33C496.51 127.12 495.95 125.97 494.94 125.09L494.86 125.02C493.25 123.66 491.09 122.98 488.93 122.98C488.09 122.98 487.26 123.08 486.45 123.29L488.69 123.52C490.26 123.68 491.66 124.28 492.77 125.24L492.76 125.26Z" fill="white"/>
        <path d="M462.66 140.21C462.48 140.21 458.33 140.46 455.46 143.21C455.09 143.56 454.77 143.94 454.48 144.33V139.42C456.48 139.07 458.39 138.23 459.93 136.9L460.03 136.81C461.21 135.77 462 134.45 462.31 133C462.76 130.94 462.54 128.34 462.53 128.23V128.18C462.47 126.26 461.6 124.46 460.05 123.12L459.95 123.03C455.72 119.46 448.85 119.48 444.63 123.07L444.53 123.16C443 124.5 442.15 126.27 442.09 128.17L442.05 128.61C442.05 128.71 441.86 131.01 442.32 133.07C442.64 134.52 443.44 135.83 444.63 136.87L444.73 136.96C446.37 138.35 448.4 139.19 450.52 139.5V144.35C450.23 143.96 449.9 143.59 449.54 143.23C446.67 140.47 442.52 140.24 442.34 140.23C442.15 140.23 441.96 140.29 441.83 140.43C441.7 140.57 441.63 140.76 441.65 140.95C441.67 141.13 442.07 145.27 444.94 148.02C446.73 149.74 449.01 150.47 450.52 150.79V155.86C450.52 156.95 451.41 157.84 452.5 157.84C453.59 157.84 454.48 156.95 454.48 155.86V150.79C455.99 150.47 458.28 149.74 460.06 148.02C462.93 145.26 463.33 141.12 463.35 140.95C463.37 140.76 463.3 140.57 463.17 140.43C463.04 140.29 462.85 140.22 462.66 140.23V140.21ZM446.26 125.14L446.34 125.07C447.34 124.22 448.55 123.63 449.84 123.31C450.64 123.11 451.48 123 452.32 123C454.48 123 456.64 123.68 458.25 125.04L458.33 125.11C459.34 125.99 459.9 127.14 459.9 128.35C459.9 129.56 459.35 130.72 458.34 131.6L458.26 131.67C455.97 133.63 452.54 134.19 449.59 133.37C448.4 133.04 447.29 132.49 446.36 131.71L446.28 131.64C445.27 130.76 444.71 129.61 444.71 128.4C444.71 127.19 445.26 126.03 446.26 125.15V125.14Z" fill="#38237C"/>
        <path d="M444.71 128.38C444.71 129.59 445.27 130.74 446.28 131.62L446.36 131.69C447.29 132.47 448.4 133.02 449.59 133.35L452.06 133.09C453.64 132.92 455.07 132.32 456.17 131.34L456.24 131.28C457.12 130.48 457.61 129.42 457.61 128.3C457.61 127.18 457.12 126.12 456.23 125.32L456.16 125.26C455.06 124.3 453.65 123.7 452.08 123.54L449.84 123.31C448.55 123.64 447.34 124.22 446.34 125.07L446.26 125.14C445.26 126.02 444.7 127.17 444.71 128.39V128.38Z" fill="#86D4C9"/>
        <path d="M456.16 125.26L456.23 125.32C457.12 126.12 457.61 127.18 457.61 128.3C457.61 129.42 457.13 130.48 456.24 131.28L456.17 131.34C455.06 132.32 453.64 132.93 452.06 133.09L449.59 133.35C452.54 134.17 455.97 133.61 458.26 131.65L458.34 131.58C459.35 130.7 459.9 129.54 459.9 128.33C459.9 127.12 459.34 125.97 458.33 125.09L458.25 125.02C456.64 123.66 454.48 122.98 452.32 122.98C451.48 122.98 450.65 123.08 449.84 123.29L452.08 123.52C453.65 123.68 455.05 124.28 456.16 125.24V125.26Z" fill="white"/>
        <path d="M110.09 129.08C109.58 129.08 109.09 129.05 108.59 129C108.67 133.15 109.42 136.45 110.32 139.03C111.35 138.79 112.41 138.64 113.51 138.64C117.14 138.64 120.44 140.05 122.9 142.34C131.39 144.17 140.93 142.24 140.93 142.24C140.93 142.24 140.73 147.11 142.01 151.77C142.58 151.63 143.2 151.58 143.82 151.6C143.8 151.37 143.77 151.14 143.75 150.92C143.7 150.26 143.67 149.64 143.67 149.06C143.67 146.71 144.07 145 144.77 144.46C145.08 144.22 145.35 144.02 145.63 143.86C145.93 143.7 146.56 143.64 147.17 143.65C147.41 143.65 147.65 143.65 147.88 143.67C148.13 143.48 148.41 143.31 148.72 143.18L148.69 142.27C148.74 140.12 149.73 138.21 151.27 136.93C142.38 131.35 147 124.92 145.27 119.3C143.87 114.77 140.57 112.35 137.32 111.05H123.26C123.68 112.38 123.92 113.79 123.92 115.26C123.92 122.9 117.72 129.1 110.08 129.1L110.09 129.08ZM133.22 119.15C138.74 119.15 143.21 123.62 143.21 129.14C143.21 134.66 138.74 139.13 133.22 139.13C127.7 139.13 123.23 134.66 123.23 129.14C123.23 123.62 127.7 119.15 133.22 119.15V119.15Z" fill="#C0DBFF"/>
        <path d="M136.31 147.49C136.4 148.18 136.51 148.85 136.63 149.5C136.52 148.84 136.42 148.17 136.35 147.48H136.31V147.49Z" fill="#C0DBFF"/>
        <path d="M150.41 148.99C150.31 147.96 150.25 146.84 150.32 145.75C150.19 145.8 150.07 145.86 149.93 145.91C149.19 146.2 148.76 147.28 148.57 148.74C148.6 148.74 148.63 148.74 148.66 148.74C149.26 148.74 149.84 148.85 150.4 149L150.41 148.99Z" fill="#77A4F2"/>
        <path d="M120.28 148.8C120.57 148.76 120.85 148.72 121.14 148.72C121.9 148.72 122.63 148.86 123.32 149.1C123.41 148.43 123.53 147.8 123.68 147.22C122.5 147.04 121.61 146.87 121.13 146.77C120.85 147.04 120.54 147.75 120.27 148.81L120.28 148.8Z" fill="#77A4F2"/>
        <path d="M148.45 150.86C148.45 151.75 148.5 152.69 148.59 153.62C149.52 154.55 150.21 155.73 150.49 157.09L150.7 158.11H151.43C151.29 156.62 150.66 151.91 148.46 150.86H148.45Z" fill="#503EAA"/>
        <path d="M150.24 151C149.75 150.82 149.21 150.72 148.66 150.72C148.59 150.72 148.52 150.74 148.45 150.74C148.45 150.78 148.45 150.82 148.45 150.86C150.65 151.91 151.28 156.63 151.42 158.11H152.11C153.06 158.11 153.77 157.24 153.58 156.31L153.2 154.43C152.87 152.81 151.72 151.54 150.24 151Z" fill="#8D86EB"/>
        <path d="M120.72 150.76C120.44 150.79 120.17 150.84 119.9 150.91C119.79 151.79 119.73 152.8 119.72 153.9C120.51 154.78 121.08 155.87 121.33 157.09L121.54 158.11H123.9C123.75 156.58 123.09 151.59 120.72 150.76V150.76Z" fill="#503EAA"/>
        <path d="M125.69 154.43C125.25 152.27 123.35 150.72 121.15 150.72C121.01 150.72 120.87 150.74 120.73 150.76C123.11 151.59 123.77 156.58 123.91 158.11H124.6C125.55 158.11 126.26 157.24 126.07 156.31L125.69 154.43V154.43Z" fill="#8D86EB"/>
        <path d="M145.65 143.84C145.91 143.69 146.55 143.64 147.19 143.63C146.58 143.62 145.95 143.67 145.65 143.84Z" fill="#77A4F2"/>
        <path d="M146.68 145.02C146.72 144.96 146.77 144.9 146.81 144.84C146.75 144.9 146.71 144.96 146.68 145.02Z" fill="#77A4F2"/>
        <path d="M145.28 119.29C147.01 124.91 142.4 131.34 151.28 136.92C149.74 138.2 148.75 140.11 148.7 142.26L148.73 143.17C148.73 143.17 148.8 143.13 148.84 143.11C151.86 141.94 155.19 140.12 157.61 137.38C157.6 137.38 157.59 137.4 157.57 137.4C156.86 137.73 156.11 137.9 155.35 137.9C154.74 137.9 154.14 137.79 153.55 137.58C152.64 137.25 151.92 136.59 151.51 135.72C151.31 135.28 151.19 134.82 151.17 134.36C150.75 133.94 150.38 133.47 150.06 132.97C148.36 131.7 147.46 129.45 147.46 126.35C147.46 125.56 147.7 124.73 148.2 123.94L145.63 112.71C145.5 112.15 145.4 111.6 145.32 111.05H137.31C140.56 112.35 143.86 114.77 145.26 119.3L145.28 119.29Z" fill="#77A4F2"/>
        <path d="M139.15 144.05L139.22 145.72C139.33 148.13 139.84 150.53 140.38 152.48C140.81 152.15 141.38 151.91 142.01 151.75C140.73 147.1 140.93 142.22 140.93 142.22C140.93 142.22 131.39 144.15 122.9 142.32C120.43 140.03 117.14 138.62 113.51 138.62C112.41 138.62 111.34 138.76 110.32 139.01C109.42 136.43 108.67 133.13 108.59 128.98C109.08 129.03 109.58 129.06 110.09 129.06C117.73 129.06 123.93 122.86 123.93 115.22C123.93 113.75 123.7 112.34 123.27 111.01H120.1C112.12 111.01 106.76 119.93 106.76 128.27C106.76 136.13 108.98 140.8 110.3 143.59C110.52 144.05 110.71 144.46 110.86 144.81L110.98 145.09V145.39C111.01 147.71 111.26 150.21 111.55 152.31C112.48 151.84 113.51 151.56 114.61 151.56C114.72 151.56 114.83 151.58 114.95 151.59C115.16 147.41 116.1 144.17 117.36 144.08C117.93 144.04 118.59 144.18 119.28 144.39C119.95 143.82 120.62 143.69 121.1 143.69L121.45 143.73C121.53 143.75 129.18 145.56 137.5 144.27L139.15 144.02V144.05Z" fill="#77A4F2"/>
        <path d="M133.22 139.14C138.737 139.14 143.21 134.667 143.21 129.15C143.21 123.633 138.737 119.16 133.22 119.16C127.703 119.16 123.23 123.633 123.23 129.15C123.23 134.667 127.703 139.14 133.22 139.14Z" fill="#77A4F2"/>
        <path d="M114.94 151.62C115.58 151.65 116.2 151.76 116.79 151.96C116.99 148.93 117.64 146.17 118.92 144.75C119.04 144.62 119.15 144.51 119.27 144.41C118.58 144.2 117.92 144.06 117.35 144.1C116.09 144.19 115.14 147.43 114.94 151.61V151.62Z" fill="#C0DBFF"/>
        <path d="M147.18 143.64C146.54 143.64 145.91 143.7 145.64 143.85C145.36 144.01 145.08 144.21 144.78 144.45C144.08 144.99 143.68 146.71 143.68 149.05C143.68 149.63 143.71 150.26 143.76 150.91C143.78 151.13 143.8 151.36 143.83 151.59C144.38 151.61 144.93 151.68 145.45 151.83C145.36 149.41 145.61 146.81 146.68 145.02C146.7 144.96 146.75 144.9 146.81 144.84C147.11 144.38 147.47 143.98 147.9 143.66C147.67 143.65 147.43 143.64 147.19 143.64H147.18Z" fill="white"/>
        <path d="M180.71 98.3799C178.91 98.3999 176.23 98.6799 173.72 99.8999C172.84 100.33 172.03 100.84 171.3 101.4C171.73 102.04 172.12 102.7 172.43 103.4C173.02 102.97 173.68 102.56 174.41 102.21C176.13 101.38 177.31 101.02 179.24 100.9C179.98 100.85 180.37 101.1 180.51 101.47C180.93 101.04 181.3 100.61 181.61 100.23C181.98 99.7699 182.1 99.2899 181.92 98.9399C181.75 98.5799 181.3 98.4099 180.71 98.3799V98.3799Z" fill="#C0DBFF"/>
        <path d="M179.24 100.9C177.3 101.02 176.12 101.37 174.41 102.21C173.68 102.56 173.03 102.97 172.43 103.4C172.77 104.16 173.02 104.95 173.21 105.77C174.16 105.54 175.13 105.22 176.08 104.76C177.91 103.88 179.4 102.62 180.51 101.46C180.37 101.09 179.98 100.85 179.24 100.89V100.9Z" fill="#77A4F2"/>
        <path d="M183.72 98.07C183.21 97.01 182.1 96.38 180.74 96.38H180.69C177.77 96.42 175.13 96.99 172.85 98.1C171.82 98.6 170.89 99.19 170.05 99.83C170.02 99.79 169.99 99.75 169.95 99.72L169.35 95.73C169.18 94.56 168.4 93.7 167.37 93.53L165.96 93.3C164.95 93.13 163.92 93.68 163.34 94.7L162.74 95.76C161.84 95.57 160.91 95.44 159.97 95.43H158.84C157.89 95.45 156.96 95.57 156.04 95.77L155.44 94.7C154.86 93.68 153.84 93.12 152.82 93.3L151.41 93.53C150.38 93.7 149.6 94.56 149.43 95.73L148.84 99.71C148.84 99.71 148.79 99.77 148.76 99.8C147.93 99.17 147.02 98.59 146.01 98.1C143.73 97 141.09 96.42 138.17 96.38C136.78 96.39 135.65 96.99 135.14 98.07C134.62 99.14 134.83 100.42 135.7 101.5C137.54 103.77 139.63 105.47 141.91 106.58C143.02 107.12 144.15 107.49 145.24 107.76C145.24 107.85 145.24 107.95 145.23 108.05H120.1C115.79 108.05 111.3 110.39 108.11 114.56V114.52C108.02 114.52 99.5699 114.65 99.3099 126.01C99.2499 128.59 98.8899 130.68 98.3999 132.21C96.8299 132.19 94.09 132.44 91.95 134.12C88.82 136.57 88.35 140.98 88.33 141.17L88.1899 142.6L89.6099 142.8C89.6699 142.8 90.21 142.88 91.02 142.88C92.61 142.88 95.2499 142.59 97.3199 140.97C100.17 138.73 100.81 134.87 100.92 134.07C101.74 132.02 102.23 129.29 102.31 126.07C102.42 121.11 104.32 119.03 105.92 118.16C104.57 121.03 103.76 124.44 103.76 128.3C103.76 136.84 106.25 142.09 107.59 144.91C107.74 145.22 107.87 145.51 107.99 145.76C108.05 148.96 108.49 152.36 108.87 154.72C108.41 155.43 108.06 156.22 107.88 157.09L107.48 159.07C107.26 160.13 107.53 161.21 108.21 162.05C108.89 162.89 109.9 163.36 110.98 163.36H118.24C119.32 163.36 120.33 162.88 121.01 162.05C121.47 161.49 121.72 160.82 121.78 160.12H124.6C125.66 160.12 126.64 159.65 127.31 158.83C127.98 158.01 128.24 156.95 128.03 155.92L127.65 154.04C127.42 152.9 126.9 151.88 126.17 151.05C126.24 149.55 126.45 148.36 126.7 147.58C129.37 147.81 132.72 147.9 136.31 147.5H136.35C136.42 148.18 136.52 148.86 136.63 149.51C136.98 151.52 137.48 153.36 137.95 154.83C137.52 155.51 137.2 156.28 137.03 157.1L136.63 159.08C136.41 160.14 136.68 161.22 137.36 162.06C138.04 162.9 139.05 163.37 140.13 163.37H147.39C148.47 163.37 149.48 162.89 150.16 162.06C150.62 161.5 150.87 160.83 150.93 160.13H152.11C153.17 160.13 154.15 159.66 154.82 158.84C155.49 158.02 155.75 156.96 155.54 155.93L155.16 154.05C154.94 152.96 154.44 151.98 153.76 151.16C153.25 148.55 153.14 145.77 153.56 144.24C157.18 142.28 159.92 139.79 161.69 136.89C164.45 136.86 166.89 135.49 168.41 133.42H168.44V133.37C168.54 133.24 168.63 133.12 168.71 132.98C170.41 131.71 171.31 129.46 171.31 126.36C171.31 125.48 171.06 124.68 170.6 123.95L173.18 112.7C173.56 111.01 173.67 109.36 173.54 107.78C174.66 107.52 175.82 107.14 176.95 106.59C179.23 105.48 181.32 103.78 183.16 101.51C184.03 100.44 184.24 99.16 183.72 98.08V98.07ZM95.4799 138.61C94.3299 139.51 92.8199 139.79 91.6799 139.86C92.0199 138.77 92.6499 137.37 93.7999 136.47C94.9499 135.57 96.4599 135.29 97.5999 135.22C97.2599 136.31 96.6299 137.71 95.4799 138.61ZM165.08 95.69C165.25 95.39 165.49 95.25 165.63 95.27L167.04 95.5C167.17 95.52 167.32 95.71 167.37 96.02L167.64 97.8C166.73 97.2 165.75 96.7 164.72 96.32L165.08 95.68V95.69ZM151.41 96.03C151.46 95.71 151.61 95.53 151.74 95.51L153.15 95.28C153.15 95.28 153.17 95.28 153.18 95.28C153.32 95.28 153.54 95.42 153.7 95.7L154.06 96.34C153.03 96.72 152.05 97.22 151.14 97.82L151.41 96.04V96.03ZM142.78 104.78C140.95 103.9 139.46 102.64 138.35 101.48C137.93 101.05 137.56 100.62 137.25 100.24C136.88 99.78 136.76 99.3 136.94 98.95C137.11 98.6 137.55 98.39 138.12 98.39H138.15C139.95 98.41 142.63 98.69 145.14 99.91C146 100.33 146.79 100.83 147.51 101.37C147.07 102.01 146.68 102.66 146.36 103.36C146.01 104.13 145.76 104.94 145.57 105.77C144.64 105.54 143.7 105.23 142.78 104.78V104.78ZM119.21 161.02C119.12 161.09 119.02 161.15 118.92 161.2C118.71 161.3 118.48 161.36 118.23 161.36H110.97C110.6 161.36 110.26 161.23 109.99 161.02C109.63 160.74 109.41 160.31 109.39 159.83C109.39 159.71 109.39 159.59 109.42 159.47L109.82 157.49C110.25 155.37 112.03 153.83 114.15 153.63C114.3 153.62 114.44 153.59 114.59 153.59C116.9 153.59 118.9 155.22 119.36 157.49L119.76 159.47C119.88 160.08 119.64 160.67 119.19 161.02H119.21ZM124.59 158.12H121.54L121.33 157.1C121.08 155.88 120.51 154.79 119.72 153.91C119.72 152.81 119.79 151.81 119.9 150.92C120.17 150.85 120.44 150.8 120.72 150.77C120.86 150.76 121 150.73 121.14 150.73C123.34 150.73 125.24 152.28 125.68 154.44L126.06 156.32C126.25 157.25 125.54 158.12 124.59 158.12V158.12ZM123.68 147.23C123.52 147.82 123.4 148.45 123.32 149.11C122.63 148.87 121.9 148.73 121.14 148.73C120.85 148.73 120.56 148.77 120.28 148.81C120.54 147.75 120.86 147.05 121.14 146.77C121.62 146.87 122.51 147.05 123.69 147.22L123.68 147.23ZM121.44 143.77L121.09 143.73C120.61 143.73 119.94 143.87 119.27 144.43C119.15 144.53 119.04 144.64 118.92 144.77C117.64 146.18 116.99 148.95 116.79 151.98C116.2 151.78 115.58 151.67 114.94 151.64C114.83 151.64 114.72 151.61 114.6 151.61C113.51 151.61 112.47 151.89 111.54 152.36C111.25 150.26 111 147.76 110.98 145.44V145.14L110.86 144.86C110.71 144.51 110.52 144.1 110.3 143.64C108.97 140.85 106.76 136.18 106.76 128.32C106.76 119.99 112.12 111.06 120.1 111.06H145.33C145.4 111.61 145.51 112.16 145.64 112.72L148.21 123.95C147.7 124.74 147.47 125.57 147.47 126.36C147.47 129.47 148.37 131.71 150.07 132.98C150.39 133.48 150.76 133.95 151.18 134.37C151.2 134.84 151.31 135.3 151.52 135.73C151.93 136.6 152.65 137.27 153.56 137.59C154.15 137.8 154.76 137.91 155.36 137.91C156.12 137.91 156.87 137.74 157.58 137.41C157.59 137.41 157.6 137.39 157.62 137.39C155.2 140.12 151.87 141.94 148.85 143.12C148.81 143.14 148.78 143.16 148.74 143.18C148.43 143.31 148.16 143.48 147.9 143.67C147.47 143.99 147.11 144.39 146.81 144.85C146.77 144.91 146.72 144.97 146.68 145.03C145.61 146.82 145.36 149.42 145.45 151.84C144.93 151.69 144.38 151.62 143.83 151.6C143.21 151.58 142.59 151.63 142.02 151.77C141.39 151.92 140.82 152.17 140.39 152.5C139.84 150.54 139.33 148.14 139.23 145.74L139.16 144.07L137.51 144.32C129.19 145.6 121.54 143.79 121.46 143.78L121.44 143.77ZM158.42 133.76C158.12 134.58 157.52 135.23 156.73 135.6C155.94 135.97 155.05 136.01 154.24 135.71C153.84 135.56 153.51 135.27 153.33 134.88C153.21 134.63 153.17 134.35 153.19 134.08C153.87 134.12 154.57 134.05 155.26 133.87L155.47 133.79C155.47 133.79 157.12 132.93 158.79 132.75L158.42 133.76V133.76ZM149.93 145.92C150.06 145.87 150.19 145.81 150.32 145.76C150.25 146.85 150.3 147.97 150.41 149C149.85 148.84 149.27 148.74 148.67 148.74C148.64 148.74 148.61 148.74 148.58 148.74C148.77 147.28 149.2 146.2 149.94 145.91L149.93 145.92ZM148.37 161.03C148.28 161.1 148.18 161.16 148.08 161.21C147.87 161.31 147.64 161.37 147.39 161.37H140.13C139.76 161.37 139.42 161.24 139.15 161.03C138.79 160.75 138.57 160.32 138.55 159.84C138.55 159.72 138.55 159.6 138.58 159.48L138.98 157.5C139.41 155.38 141.19 153.84 143.31 153.64C143.46 153.63 143.6 153.6 143.75 153.6C146.06 153.6 148.06 155.23 148.52 157.5L148.92 159.48C149.04 160.09 148.8 160.68 148.36 161.03H148.37ZM153.59 156.33C153.78 157.26 153.07 158.13 152.12 158.13H150.7L150.49 157.11C150.21 155.75 149.53 154.57 148.59 153.64C148.5 152.7 148.45 151.76 148.45 150.88C148.45 150.84 148.45 150.8 148.45 150.76C148.52 150.76 148.59 150.74 148.66 150.74C149.21 150.74 149.74 150.84 150.24 151.02C151.72 151.56 152.87 152.83 153.2 154.45L153.58 156.33H153.59ZM161.59 134.89H160.09C160.16 134.74 160.25 134.6 160.3 134.45L160.86 132.91C162.19 133.22 163.31 133.79 163.33 133.8L163.53 133.88C163.92 133.99 164.32 134.04 164.72 134.08C163.79 134.6 162.72 134.9 161.58 134.9L161.59 134.89ZM166.47 131.92C166.29 131.98 166.11 132.02 165.92 132.05C165.36 132.14 164.75 132.11 164.15 131.96C163.64 131.71 161.48 130.71 159.38 130.71C157.28 130.71 155.15 131.71 154.64 131.96C153.84 132.16 153.01 132.15 152.31 131.91C150.43 131.29 149.47 129.41 149.47 126.34C149.47 124.17 152.53 121.97 159.37 121.97C162.07 121.97 164.18 122.31 165.75 122.86C168.17 123.7 169.31 125.02 169.31 126.34C169.31 129.42 168.35 131.29 166.47 131.92V131.92ZM170.25 112.03L168.04 121.7C167.59 121.46 167.09 121.25 166.56 121.06C164.64 120.37 162.21 119.98 159.38 119.98C156.24 119.98 153.84 120.42 152.03 121.12C151.58 121.29 151.16 121.48 150.78 121.68L148.57 112.02C147.49 107.45 148.92 104.37 150.3 102.6C151.11 101.56 152.14 100.69 153.29 100.01C154.95 99.04 156.89 98.47 158.9 98.43H159.93C160.3 98.43 160.68 98.47 161.04 98.51C161.6 98.57 162.15 98.69 162.69 98.83C164.97 99.44 167.02 100.72 168.43 102.52C169.83 104.3 171.29 107.4 170.25 112.02V112.03ZM181.61 100.24C181.3 100.62 180.93 101.04 180.51 101.48C179.39 102.64 177.91 103.9 176.08 104.78C175.13 105.24 174.16 105.56 173.21 105.79C173.02 104.97 172.77 104.17 172.43 103.42C172.12 102.72 171.73 102.05 171.3 101.42C172.03 100.86 172.84 100.35 173.72 99.92C176.23 98.7 178.91 98.42 180.71 98.4C181.3 98.43 181.75 98.6 181.92 98.96C182.09 99.32 181.97 99.8 181.61 100.25V100.24Z" fill="#38237C"/>
        <path d="M153.7 95.6798C153.54 95.3998 153.32 95.2598 153.18 95.2598C153.17 95.2598 153.16 95.2598 153.15 95.2598L151.74 95.4898C151.61 95.5098 151.46 95.6998 151.41 96.0098L151.14 97.7898C152.05 97.1898 153.03 96.6898 154.06 96.3098L153.7 95.6698V95.6798Z" fill="#503EAA"/>
        <path d="M167.37 96.0199C167.32 95.6999 167.17 95.5199 167.04 95.4999L165.63 95.2699C165.48 95.2499 165.25 95.3899 165.08 95.6899L164.72 96.3299C165.75 96.7099 166.73 97.2099 167.64 97.8099L167.37 96.0299V96.0199Z" fill="#503EAA"/>
        <path d="M139.62 100.9C141.56 101.02 142.74 101.37 144.45 102.21C145.14 102.55 145.78 102.94 146.35 103.35C146.66 102.65 147.06 101.99 147.5 101.36C146.78 100.82 146 100.32 145.13 99.8999C142.62 98.6799 139.94 98.3999 138.14 98.3799H138.11C137.54 98.3799 137.1 98.5899 136.93 98.9399C136.76 99.2999 136.88 99.7799 137.24 100.23C137.55 100.61 137.92 101.03 138.34 101.47C138.48 101.1 138.87 100.86 139.61 100.9H139.62Z" fill="#C0DBFF"/>
        <path d="M146.36 103.35C145.79 102.94 145.15 102.55 144.46 102.21C142.74 101.38 141.56 101.02 139.63 100.9C138.89 100.85 138.5 101.1 138.36 101.47C139.48 102.63 140.96 103.89 142.79 104.77C143.71 105.21 144.65 105.53 145.58 105.76C145.77 104.93 146.02 104.12 146.37 103.35H146.36Z" fill="#77A4F2"/>
        <path d="M153.29 100C152.13 100.68 151.11 101.54 150.3 102.59C148.92 104.37 147.5 107.44 148.57 112.01L150.78 121.67C151.16 121.47 151.57 121.28 152.03 121.11L150.03 112.36C148.76 106.98 150.34 102.69 153.3 100.01L153.29 100Z" fill="#77A4F2"/>
        <path d="M158.93 106.79C158.93 103.64 159.73 100.76 161.04 98.4999C160.67 98.4599 160.3 98.4299 159.93 98.4199H158.9C156.89 98.4599 154.95 99.0199 153.29 99.9999C150.34 102.68 148.75 106.97 150.02 112.35L152.02 121.1C153.83 120.4 156.23 119.96 159.37 119.96C162.2 119.96 164.63 120.35 166.55 121.04C166.66 120.59 166.77 120.15 166.88 119.71C162.39 118.84 158.92 113.4 158.92 106.79H158.93ZM153.27 112.8C153.18 112.82 153.09 112.83 153 112.83C152.19 112.83 151.43 112.13 151.24 111.15C151.14 110.63 151.21 110.11 151.43 109.68C151.67 109.23 152.04 108.94 152.49 108.85C152.94 108.76 153.4 108.89 153.79 109.21C154.16 109.52 154.42 109.98 154.53 110.5C154.74 111.59 154.18 112.62 153.27 112.8Z" fill="#C0DBFF"/>
        <path d="M166.88 119.71C167.7 116.33 168.45 113.19 168.72 111.79C169.33 108.7 169.16 102.11 162.68 98.82C162.14 98.68 161.59 98.57 161.03 98.5C159.72 100.76 158.92 103.64 158.92 106.79C158.92 113.39 162.38 118.84 166.88 119.71V119.71ZM164.26 110.5C164.47 109.41 165.39 108.66 166.29 108.85C167.2 109.03 167.76 110.06 167.55 111.15C167.36 112.13 166.6 112.83 165.79 112.83C165.7 112.83 165.61 112.83 165.52 112.8C164.61 112.62 164.05 111.59 164.26 110.5Z" fill="#77A4F2"/>
        <path d="M162.68 98.8198C169.17 102.11 169.34 108.7 168.72 111.79C168.44 113.19 167.7 116.33 166.88 119.71C166.77 120.15 166.66 120.6 166.55 121.04C167.08 121.23 167.58 121.44 168.03 121.68L170.24 112.01C171.27 107.39 169.82 104.29 168.42 102.51C167 100.71 164.96 99.4298 162.68 98.8198V98.8198Z" fill="white"/>
        <path d="M163.33 133.78C163.33 133.78 162.19 133.2 160.86 132.89L160.3 134.43C160.24 134.59 160.16 134.73 160.09 134.87H161.59C162.73 134.87 163.8 134.57 164.73 134.05C164.33 134.02 163.93 133.96 163.54 133.85L163.34 133.77L163.33 133.78Z" fill="#77A4F2"/>
        <path d="M155.26 133.86C154.58 134.05 153.87 134.11 153.19 134.07C153.17 134.34 153.21 134.61 153.33 134.87C153.51 135.26 153.83 135.55 154.24 135.7C155.06 136 155.94 135.96 156.73 135.59C157.52 135.22 158.12 134.57 158.42 133.75L158.79 132.74C157.12 132.92 155.49 133.77 155.47 133.78L155.26 133.86V133.86Z" fill="#FF8486"/>
        <path d="M165.76 122.85C167.24 123.79 168 125 168 126.33C168 128.31 167.58 130.68 165.92 132.04C166.11 132.01 166.3 131.97 166.47 131.91C168.36 131.29 169.31 129.41 169.31 126.33C169.31 125.01 168.17 123.69 165.75 122.85H165.76Z" fill="#C0DBFF"/>
        <path d="M168 126.33C168 125 167.24 123.79 165.76 122.85C164.19 122.3 162.08 121.96 159.38 121.96C152.54 121.96 149.48 124.15 149.48 126.33C149.48 129.41 150.44 131.28 152.32 131.9C153.02 132.13 153.84 132.15 154.65 131.95C155.16 131.7 157.28 130.7 159.39 130.7C161.5 130.7 163.65 131.7 164.16 131.95C164.76 132.1 165.37 132.13 165.93 132.04C167.59 130.68 168.01 128.31 168.01 126.33H168ZM157.53 126.77C157.41 127.52 157.02 128.26 156.42 128.85C155.67 129.6 154.73 129.99 153.87 129.99C153.21 129.99 152.59 129.76 152.12 129.29C151.73 128.9 151.73 128.27 152.12 127.88C152.51 127.49 153.14 127.49 153.53 127.88C153.73 128.08 154.42 128.01 155 127.43C155.29 127.14 155.49 126.78 155.54 126.45C155.56 126.35 155.58 126.09 155.45 125.96C155.06 125.57 155.06 124.94 155.45 124.55C155.84 124.16 156.47 124.16 156.86 124.55C157.41 125.1 157.64 125.9 157.51 126.76L157.53 126.77ZM164.91 129.99C164.76 129.99 164.61 129.98 164.45 129.95C163.7 129.83 162.96 129.44 162.36 128.85C161.03 127.52 160.83 125.64 161.9 124.56C162.29 124.17 162.92 124.17 163.31 124.56C163.7 124.95 163.7 125.58 163.31 125.97C163.11 126.17 163.19 126.86 163.76 127.44C164.05 127.73 164.41 127.93 164.74 127.98C164.84 128 165.1 128.02 165.23 127.89C165.62 127.5 166.25 127.5 166.64 127.89C167.03 128.28 167.03 128.91 166.64 129.3C166.19 129.75 165.57 129.99 164.89 129.99H164.91Z" fill="#77A4F2"/>
        <path d="M155.46 124.56C155.07 124.95 155.07 125.58 155.46 125.97C155.59 126.1 155.57 126.35 155.55 126.46C155.5 126.79 155.3 127.15 155.01 127.44C154.43 128.02 153.74 128.09 153.54 127.89C153.15 127.5 152.52 127.5 152.13 127.89C151.74 128.28 151.74 128.91 152.13 129.3C152.6 129.77 153.22 130 153.88 130C154.74 130 155.67 129.61 156.43 128.86C157.02 128.27 157.42 127.53 157.54 126.78C157.68 125.92 157.44 125.12 156.89 124.57C156.5 124.18 155.87 124.18 155.48 124.57L155.46 124.56Z" fill="#38237C"/>
        <path d="M166.66 127.89C166.27 127.5 165.64 127.5 165.25 127.89C165.12 128.02 164.87 128 164.76 127.98C164.43 127.93 164.07 127.73 163.78 127.44C163.2 126.86 163.13 126.18 163.33 125.97C163.72 125.58 163.72 124.95 163.33 124.56C162.94 124.17 162.31 124.17 161.92 124.56C160.84 125.64 161.04 127.52 162.38 128.85C162.97 129.44 163.72 129.83 164.47 129.95C164.63 129.97 164.78 129.99 164.93 129.99C165.61 129.99 166.23 129.75 166.68 129.3C167.07 128.91 167.07 128.28 166.68 127.89H166.66Z" fill="#38237C"/>
        <path d="M165.52 112.8C165.61 112.82 165.7 112.83 165.79 112.83C166.6 112.83 167.36 112.13 167.55 111.15C167.76 110.06 167.2 109.03 166.29 108.85C165.38 108.66 164.47 109.41 164.26 110.5C164.05 111.59 164.61 112.62 165.52 112.8Z" fill="#38237C"/>
        <path d="M153.79 109.22C153.4 108.9 152.94 108.76 152.49 108.86C152.04 108.95 151.66 109.24 151.43 109.69C151.2 110.12 151.13 110.64 151.24 111.16C151.43 112.14 152.19 112.84 153 112.84C153.09 112.84 153.18 112.84 153.27 112.81C154.18 112.63 154.74 111.6 154.53 110.51C154.43 109.99 154.17 109.54 153.79 109.22Z" fill="#38237C"/>
        <path d="M91.6799 139.85C92.8199 139.78 94.3199 139.5 95.4799 138.6C96.6299 137.7 97.2599 136.3 97.5999 135.21C96.4599 135.28 94.9599 135.56 93.7999 136.46C92.6499 137.36 92.0199 138.76 91.6799 139.85Z" fill="#503EAA"/>
        <path d="M143.32 153.63C141.2 153.82 139.42 155.37 138.99 157.49L138.59 159.47C138.57 159.59 138.56 159.71 138.56 159.83C138.57 160.3 138.8 160.74 139.16 161.02C139.43 161.23 139.77 161.36 140.14 161.36H146.67C146.51 159.75 145.82 154.51 143.32 153.63V153.63Z" fill="#503EAA"/>
        <path d="M148.53 157.49C148.07 155.22 146.07 153.59 143.76 153.59C143.61 153.59 143.46 153.62 143.32 153.63C145.82 154.51 146.51 159.75 146.67 161.36H147.4C147.65 161.36 147.88 161.3 148.09 161.2C148.19 161.15 148.29 161.09 148.38 161.02C148.82 160.67 149.07 160.08 148.94 159.47L148.54 157.49H148.53Z" fill="#8D86EB"/>
        <path d="M114.16 153.63C112.04 153.82 110.26 155.37 109.83 157.49L109.43 159.47C109.41 159.59 109.4 159.71 109.4 159.83C109.41 160.3 109.64 160.74 110 161.02C110.27 161.23 110.61 161.36 110.98 161.36H117.51C117.36 159.75 116.66 154.51 114.16 153.63V153.63Z" fill="#503EAA"/>
        <path d="M119.78 159.47L119.38 157.49C118.92 155.22 116.92 153.59 114.61 153.59C114.46 153.59 114.31 153.62 114.17 153.63C116.67 154.51 117.36 159.75 117.52 161.36H118.25C118.5 161.36 118.73 161.3 118.94 161.2C119.04 161.15 119.14 161.09 119.23 161.02C119.67 160.67 119.92 160.08 119.8 159.47H119.78Z" fill="#8D86EB"/>
        <path opacity="0.7" d="M453.36 55.3599C468.255 55.3599 480.33 43.285 480.33 28.3899C480.33 13.4948 468.255 1.41992 453.36 1.41992C438.465 1.41992 426.39 13.4948 426.39 28.3899C426.39 43.285 438.465 55.3599 453.36 55.3599Z" fill="url(#paint1_radial_2673_26290)"/>
        <path d="M483.77 34.8599C483.79 34.9499 483.81 35.0399 483.82 35.1299C483.85 35.0399 483.88 34.9499 483.91 34.8699H483.77V34.8599Z" fill="#C0DBFF"/>
        <path d="M481.54 62.9102C483.96 61.0602 487.05 60.0802 490.32 60.3902C491.3 60.4902 492.23 60.7002 493.13 61.0002C494.15 58.7502 495.09 55.8602 495.51 52.1502C495.09 52.1502 494.67 52.1302 494.24 52.0902C488.56 51.5402 484.15 47.2602 483.17 41.9102C483.14 42.0202 483.11 42.1302 483.08 42.2502C482.68 43.4602 482.16 44.6602 481.53 45.8302C482.33 47.3402 482.72 49.0902 482.54 50.9202C482.06 55.8802 477.65 59.5102 472.69 59.0302C471.33 58.9002 470.08 58.4602 468.98 57.8102C465.8 59.4302 462.47 60.4002 459.26 60.5802C458.97 60.6002 458.68 60.6002 458.4 60.6102C458.4 60.6402 458.4 60.6702 458.4 60.7002C458.38 60.8802 458.35 61.0502 458.32 61.2202C458.58 61.3602 458.81 61.5202 459.02 61.7002C460.02 61.7502 461.13 62.1002 461.7 62.6402C462.48 63.3802 462.59 65.9602 461.92 69.1902C461.96 69.1902 462.01 69.1902 462.05 69.1902C462.53 69.2402 462.98 69.3502 463.43 69.5002C464.91 65.4902 465.15 61.2602 465.15 61.2602C465.15 61.2602 473.71 63.8802 481.56 62.9002L481.54 62.9102Z" fill="#C0DBFF"/>
        <path d="M450.73 50.23C450.14 50.36 449.54 50.45 448.92 50.45C448.88 50.45 448.83 50.45 448.79 50.45C448.92 51.16 449.66 52.91 450.13 53.94C450.69 53.77 451.28 53.67 451.89 53.66C451.43 52.71 451.05 51.53 450.74 50.23H450.73Z" fill="#C0DBFF"/>
        <path d="M463.47 40.2301C461.6 44.7001 464.43 50.2401 458.49 54.4001C460.7 53.9601 462.82 53.2501 464.81 52.2901C464.56 51.3001 464.46 50.2601 464.57 49.1901C465.05 44.2301 469.46 40.6001 474.42 41.0801C475.1 41.1501 475.75 41.2901 476.37 41.4901C477.6 39.3101 478.54 36.9401 479.12 34.4101L470.97 33.6201C468.05 34.5501 465.05 36.4401 463.46 40.2301H463.47Z" fill="#C0DBFF"/>
        <path d="M448.54 57.1299C447.54 58.2299 446.16 59.1699 444.88 59.8999C445.46 60.6999 445.81 61.6099 445.94 62.5399C447.47 62.1499 449.64 61.4599 451.52 60.3299C450.36 59.3299 449.37 58.2599 448.55 57.1299H448.54Z" fill="#77A4F2"/>
        <path d="M497.76 61.7199C498.55 62.0099 499.37 62.4899 500.19 63.0799C500.39 62.6799 500.62 62.2899 500.91 61.9299C501.26 61.5099 501.66 61.1499 502.1 60.8499C501.17 59.7199 500.15 58.5099 499.19 57.4199C498.77 59.0599 498.27 60.4799 497.76 61.7199V61.7199Z" fill="#77A4F2"/>
        <path d="M488.08 74C488.57 74.06 489.03 74.19 489.46 74.39C489.03 74.19 488.57 74.06 488.08 74Z" fill="#77A4F2"/>
        <path d="M458.39 60.6198C458.3 60.6198 458.22 60.6198 458.13 60.6198C457.78 60.6198 457.45 60.5898 457.11 60.5698C457.49 60.7898 457.88 60.9898 458.26 61.1898C458.28 61.1898 458.29 61.2098 458.31 61.2198C458.34 61.0498 458.37 60.8798 458.39 60.6998C458.39 60.6698 458.39 60.6398 458.39 60.6098V60.6198Z" fill="#77A4F2"/>
        <path d="M453.39 54.8998C455.13 54.8998 456.83 54.7298 458.49 54.3998C464.42 50.2398 461.6 44.6998 463.47 40.2298C465.05 36.4398 468.05 34.5498 470.98 33.6198L465.11 33.0498L458.75 41.6998C458.87 42.5298 458.79 43.3398 458.46 44.0998C457.25 46.8898 455.57 48.5498 453.55 49.0298C453.44 49.0998 453.33 49.1698 453.22 49.2398L453.15 49.3398L453.09 49.3098C452.36 49.7398 451.57 50.0398 450.74 50.2298C451.05 51.5398 451.43 52.7098 451.89 53.6598C451.28 53.6598 450.69 53.7698 450.13 53.9398C450.32 54.3598 450.47 54.6598 450.51 54.7298C450.65 54.7498 450.79 54.7698 450.93 54.7798C451.76 54.8598 452.58 54.8998 453.4 54.8998H453.39Z" fill="#77A4F2"/>
        <path d="M486.8 35.1599L483.91 34.8799C483.87 34.9599 483.85 35.0499 483.82 35.1399C484.12 37.2399 483.91 39.5299 483.17 41.9299C484.15 47.2799 488.56 51.5599 494.24 52.1099C494.67 52.1499 495.09 52.1699 495.51 52.1699C495.09 55.8799 494.15 58.7699 493.13 61.0199C492.24 60.7199 491.3 60.4999 490.32 60.4099C487.05 60.0899 483.96 61.0799 481.54 62.9299C473.69 63.9099 465.13 61.2899 465.13 61.2899C465.13 61.2899 464.89 65.5299 463.41 69.5299C463.94 69.7099 464.45 69.9499 464.91 70.2499C465.54 68.5799 466.17 66.5699 466.46 64.5099L466.69 62.8499L468.31 63.2599C475.67 65.1399 482.65 64.1799 482.72 64.1699L482.9 64.1399L483.08 64.1599C483.53 64.1999 484.14 64.3899 484.71 64.9599C485.36 64.8299 485.98 64.7499 486.49 64.8399C487.64 65.0299 488.2 68.1199 487.99 71.9899C488.05 71.9899 488.12 71.9899 488.18 71.9899C489.11 72.0799 489.97 72.3899 490.74 72.8399C491.18 70.9799 491.63 68.7699 491.85 66.6899L491.88 66.3899L492.02 66.1299C492.19 65.8199 492.4 65.4699 492.64 65.0799C494.07 62.6999 496.46 58.7099 497.14 51.6799C497.86 44.2599 493.87 35.8499 486.79 35.1599H486.8Z" fill="#77A4F2"/>
        <path d="M464.57 49.19C464.47 50.26 464.57 51.3 464.81 52.29C469.64 49.96 473.7 46.2 476.37 41.5C475.75 41.3 475.1 41.15 474.42 41.09C469.46 40.61 465.05 44.24 464.57 49.2V49.19Z" fill="#77A4F2"/>
        <path d="M482.53 50.9298C482.71 49.0998 482.32 47.3498 481.52 45.8398C479.74 49.1498 477.07 52.2498 473.76 54.8098C472.23 55.9898 470.62 56.9898 468.97 57.8298C470.07 58.4798 471.32 58.9098 472.68 59.0498C477.64 59.5298 482.05 55.8998 482.53 50.9398V50.9298Z" fill="#77A4F2"/>
        <path d="M486.5 64.8401C485.99 64.7501 485.37 64.8301 484.72 64.9601C484.83 65.0701 484.94 65.2001 485.05 65.3401C486.09 66.7501 486.45 69.3201 486.36 72.0901C486.75 72.0201 487.15 71.9701 487.57 71.9701C487.71 71.9701 487.86 71.9801 488 71.9901C488.21 68.1301 487.65 65.0401 486.5 64.8401V64.8401Z" fill="#C0DBFF"/>
        <path d="M461.68 62.6402C461.11 62.1102 460 61.7602 459 61.7002C460.84 63.2602 461 66.3802 460.65 69.2302C460.9 69.2002 461.15 69.1702 461.41 69.1702C461.57 69.1702 461.74 69.1802 461.9 69.1902C462.57 65.9502 462.46 63.3702 461.68 62.6402Z" fill="white"/>
        <path d="M516.81 50.5898C517.05 51.5398 517.52 52.6898 518.41 53.4998C519.3 54.2998 520.49 54.6598 521.46 54.8098C521.22 53.8598 520.75 52.7098 519.86 51.8998C518.97 51.0998 517.78 50.7398 516.81 50.5898Z" fill="#503EAA"/>
        <path d="M524.72 56.37C524.72 56.2 524.58 52.13 521.88 49.68C519.41 47.43 515.8 47.46 515.08 47.49C513.11 47.08 510.62 47.05 507.75 47.47C501.97 48.33 500.16 45.69 499.62 44.37C497.82 37.27 492.5 32.7 487.1 32.18L482.79 31.76C482.5 31.16 482.16 30.58 481.76 30.04C482.17 22.89 479.91 15.95 475.33 10.38C470.5 4.51 463.68 0.88 456.12 0.14C455.2 0.05 454.26 0 453.34 0C438.64 0 426.48 11.05 425.06 25.7C424.32 33.26 426.58 40.66 431.41 46.53C435.14 51.07 440.07 54.26 445.61 55.82C444.77 56.5 443.6 57.24 442.3 57.89C441.62 57.62 440.89 57.47 440.15 57.47C439.27 57.47 438.42 57.66 437.63 58.04L436.18 58.73C435.29 59.15 434.65 59.94 434.42 60.89C434.19 61.84 434.39 62.84 434.98 63.62L438.45 68.23C439.07 69.05 440.02 69.52 441.05 69.52C441.98 69.52 442.87 69.12 443.49 68.42L444.55 67.22C444.95 66.77 445.25 66.26 445.49 65.74C447.29 65.36 451.11 64.37 454.09 62.25C454.97 62.82 455.91 63.37 456.92 63.88C458.01 64.43 458.02 67.42 457.4 70.62C456.44 71.4 455.7 72.45 455.32 73.7L454.78 75.44C454.48 76.43 454.63 77.48 455.2 78.34C455.77 79.2 456.69 79.75 457.72 79.85L464.24 80.48C464.35 80.49 464.46 80.5 464.57 80.5C465.54 80.5 466.46 80.09 467.11 79.37C467.76 78.65 468.07 77.69 467.97 76.72L467.78 74.91C467.7 74.14 467.48 73.41 467.15 72.74C467.85 71.09 468.66 68.9 469.16 66.53C475.45 67.85 481.09 67.38 482.71 67.2C483.18 67.88 483.6 70.27 483.27 73.66C482.45 74.41 481.81 75.37 481.46 76.5L480.92 78.24C480.62 79.23 480.77 80.28 481.34 81.14C481.91 82 482.83 82.55 483.86 82.65L490.38 83.28C490.49 83.29 490.6 83.3 490.71 83.3C491.68 83.3 492.6 82.89 493.25 82.17C493.9 81.45 494.21 80.49 494.11 79.52L493.92 77.71C493.83 76.88 493.57 76.11 493.2 75.4C493.75 73.31 494.46 70.25 494.8 67.34C494.92 67.13 495.06 66.89 495.22 66.64C495.57 66.05 496 65.33 496.46 64.48C496.99 64.6 498.17 65.22 499.63 66.51C499.77 67.54 500.17 68.53 500.86 69.38L501.87 70.63C502.49 71.4 503.41 71.84 504.4 71.84C505.39 71.84 506.29 71.41 506.91 70.66L510.59 66.22C511.22 65.46 511.46 64.48 511.27 63.52C511.08 62.56 510.48 61.74 509.61 61.28L508.19 60.53C507.34 60.08 506.39 59.84 505.43 59.84C505.33 59.84 505.23 59.85 505.13 59.86C503.53 57.9 501.49 55.48 499.91 53.79C499.99 53.21 500.07 52.63 500.13 52.01C500.22 51.1 500.24 50.22 500.22 49.36C501.97 50.39 504.49 51.02 508.16 50.48C510.48 50.14 512.31 50.14 513.67 50.32C513.91 51.76 514.57 54.12 516.38 55.76C518.58 57.76 521.68 57.96 522.85 57.96C523.12 57.96 523.28 57.96 523.31 57.95L524.74 57.85L524.7 56.41L524.72 56.37ZM443.92 64.13C443.86 64.41 443.76 64.69 443.63 64.95C443.48 65.28 443.28 65.6 443.03 65.89L441.97 67.09C441.85 67.23 441.71 67.33 441.55 67.4C441.55 67.4 441.53 67.41 441.52 67.41C441.37 67.47 441.21 67.5 441.06 67.51C441.05 67.51 441.04 67.51 441.03 67.51H441.01C440.96 67.51 440.91 67.5 440.86 67.49C440.82 67.49 440.78 67.49 440.74 67.47C440.69 67.46 440.64 67.44 440.58 67.42C440.54 67.41 440.51 67.4 440.47 67.38C440.41 67.35 440.36 67.32 440.31 67.28C440.28 67.26 440.25 67.25 440.23 67.23C440.16 67.17 440.09 67.1 440.03 67.02L436.95 62.92L436.56 62.41C436.18 61.91 436.25 61.24 436.64 60.81C436.65 60.8 436.67 60.79 436.68 60.78C436.73 60.73 436.79 60.68 436.85 60.65C436.91 60.61 436.95 60.56 437.02 60.52L438.11 60L438.34 59.89L438.46 59.83C438.99 59.58 439.56 59.45 440.12 59.45C441.3 59.45 442.46 59.99 443.21 60.99C443.23 61.01 443.23 61.03 443.25 61.05C443.77 61.77 444.02 62.62 443.99 63.47C443.99 63.69 443.96 63.9 443.91 64.12L443.92 64.13ZM427.04 25.89C428.37 12.22 439.88 2 453.33 2C454.19 2 455.05 2.04 455.92 2.13C469.63 3.46 479.86 15.03 479.8 28.54L479.72 30.28C479.7 30.62 479.68 30.96 479.65 31.31C479.65 31.36 479.64 31.41 479.63 31.45L468.63 30.38C470.86 30.28 473.14 29.63 475.42 28.44C476.54 27.86 477.18 26.86 477.13 25.76C477.08 24.67 476.36 23.72 475.2 23.23C472.82 22.23 470.47 21.78 468.23 21.87C468.19 21.87 468.16 21.87 468.12 21.87C468.06 21.55 468.01 21.23 467.93 20.92C467.82 20.52 467.69 20.13 467.54 19.74L468.54 15.97C468.84 14.85 468.47 13.76 467.61 13.21L466.44 12.46C465.59 11.91 464.45 12.01 463.53 12.7L462.61 13.4C461.88 12.88 461.1 12.41 460.28 12.04C460.11 11.96 459.95 11.89 459.77 11.82C459.59 11.75 459.43 11.67 459.26 11.61C458.41 11.26 457.53 11.01 456.64 10.83L456.52 9.68C456.4 8.53 455.68 7.64 454.71 7.39L453.36 7.05C452.36 6.81 451.32 7.28 450.71 8.26L448.66 11.56C448.24 11.73 447.82 11.92 447.42 12.14C447.18 12.27 446.95 12.43 446.72 12.58C446.72 12.57 446.7 12.56 446.69 12.55C445.22 10.85 443.28 9.45 440.93 8.4C439.78 7.88 438.6 8 437.77 8.72C436.94 9.43 436.65 10.59 436.99 11.8C437.69 14.29 438.79 16.41 440.25 18.11C440.63 18.55 441.04 18.96 441.46 19.34C441.16 20.17 440.91 21.04 440.75 21.97L438.71 32.98C438 33.46 437.46 34.09 437.13 34.87C435.92 37.65 435.86 40.01 436.89 41.82C436.92 41.98 436.95 42.14 436.98 42.3V42.35H436.99C437.56 44.83 439.25 47.01 441.75 48.1L445.67 49.8H445.69C445.84 51.29 446.2 52.71 446.79 54.07L446.53 54.02C434.26 50.74 425.8 38.98 427.07 25.92L427.04 25.89ZM450.13 53.94C449.66 52.9 448.92 51.15 448.79 50.45C448.83 50.45 448.88 50.45 448.92 50.45C449.53 50.45 450.14 50.36 450.73 50.23C451.56 50.04 452.35 49.74 453.08 49.31L453.14 49.34L453.21 49.24C453.32 49.17 453.43 49.11 453.54 49.03C455.57 48.55 457.25 46.89 458.45 44.1C458.78 43.34 458.87 42.53 458.74 41.7L465.1 33.05L470.97 33.62L479.12 34.41C478.54 36.94 477.6 39.31 476.37 41.49C473.7 46.19 469.65 49.95 464.81 52.28C462.82 53.24 460.7 53.96 458.49 54.39C456.83 54.72 455.13 54.89 453.39 54.89C452.57 54.89 451.75 54.85 450.92 54.77C450.78 54.75 450.64 54.74 450.5 54.72C450.45 54.65 450.31 54.34 450.12 53.93L450.13 53.94ZM452.34 13.65C454.25 13.38 456.26 13.62 458.13 14.39L459.04 14.79C459.37 14.94 459.68 15.11 459.98 15.28C460.46 15.56 460.92 15.87 461.35 16.21C463.14 17.63 464.46 19.56 465.03 21.7C465.59 23.83 465.69 27.14 462.99 30.86L457.3 38.6C457.02 38.25 456.69 37.91 456.34 37.57C454.87 36.16 452.8 34.86 450.24 33.75C447.65 32.63 445.26 32.01 443.23 31.92C442.78 31.9 442.35 31.9 441.94 31.92L443.69 22.49C444.49 18.01 446.94 15.81 448.86 14.77C449.93 14.18 451.12 13.81 452.34 13.64V13.65ZM451.52 10.75L452.4 9.33C452.56 9.08 452.76 8.97 452.87 9L454.22 9.34C454.34 9.37 454.5 9.58 454.53 9.9L454.6 10.57C453.56 10.51 452.53 10.57 451.52 10.75ZM464.2 14.73L464.74 14.33C465 14.13 465.26 14.1 465.36 14.17L466.53 14.92C466.63 14.98 466.69 15.2 466.61 15.49L466.18 17.11C465.61 16.25 464.95 15.46 464.2 14.74V14.73ZM443.75 15.23C443.21 15.89 442.72 16.61 442.31 17.38C442.13 17.19 441.94 17.01 441.77 16.81C440.76 15.64 439.96 14.22 439.36 12.6C439.2 12.17 439.05 11.73 438.92 11.27C438.79 10.82 438.85 10.44 439.08 10.24C439.19 10.14 439.35 10.09 439.53 10.09C439.71 10.09 439.91 10.14 440.12 10.23C441.53 10.86 443.54 11.99 445.12 13.79C444.63 14.23 444.18 14.71 443.76 15.23H443.75ZM442.04 33.94C444.01 33.79 446.57 34.36 449.44 35.61C451.77 36.62 453.62 37.77 454.91 39C455.22 39.29 455.5 39.58 455.74 39.88C456.44 40.76 457.16 42.06 456.62 43.32C455.44 46.06 453.86 47.34 451.95 47.19C451.8 47.18 451.65 47.15 451.5 47.11C450.94 46.98 450.37 46.72 449.87 46.34C449.51 45.91 447.97 44.18 446.08 43.37C444.2 42.56 441.92 42.62 441.35 42.65C440.56 42.52 439.84 42.19 439.31 41.72C437.88 40.44 437.75 38.41 438.94 35.67C439.49 34.41 440.93 34.04 442.04 33.95V33.94ZM441.17 44.64L441.28 44.66H441.39C441.39 44.66 443.64 44.49 445.29 45.2C446.94 45.92 448.38 47.67 448.39 47.69L448.54 47.84C448.83 48.07 449.14 48.26 449.45 48.44C448.45 48.53 447.42 48.37 446.43 47.95L442.51 46.25C441.53 45.82 440.71 45.17 440.09 44.38C440.44 44.49 440.79 44.58 441.16 44.64H441.17ZM467.63 28.39C467.91 27.56 468.09 26.71 468.2 25.87C468.29 25.21 468.34 24.55 468.33 23.89C470.74 23.79 472.97 24.49 474.42 25.1C474.85 25.28 475.11 25.56 475.13 25.86C475.14 26.16 474.9 26.47 474.49 26.68C474.07 26.9 473.64 27.09 473.22 27.27C471.62 27.95 470.04 28.33 468.5 28.4C468.21 28.41 467.92 28.4 467.63 28.4V28.39ZM445.94 62.55C445.81 61.62 445.46 60.71 444.88 59.91C446.16 59.18 447.54 58.24 448.54 57.14C449.37 58.27 450.36 59.34 451.51 60.34C449.63 61.47 447.47 62.16 445.93 62.55H445.94ZM451.4 56.85C452.23 56.92 453.05 56.96 453.87 56.96C467.46 56.96 479.21 47.04 481.4 33.54C482.23 35.87 482.16 38.66 481.19 41.65C479.8 45.91 476.73 50.02 472.56 53.23C468.39 56.44 463.62 58.35 459.15 58.61C456.08 58.78 453.42 58.16 451.41 56.86L451.4 56.85ZM465.98 76.95C465.98 77.05 465.98 77.15 465.98 77.25C465.98 77.29 465.96 77.32 465.96 77.35C465.95 77.42 465.93 77.48 465.91 77.55C465.9 77.59 465.88 77.62 465.86 77.66C465.84 77.72 465.81 77.77 465.78 77.82C465.76 77.86 465.73 77.89 465.71 77.92C465.68 77.97 465.64 78.01 465.6 78.06C465.57 78.09 465.54 78.12 465.5 78.15C465.46 78.19 465.42 78.22 465.37 78.26C465.33 78.28 465.29 78.3 465.26 78.33C465.21 78.36 465.16 78.38 465.11 78.41C465.07 78.43 465.03 78.44 464.98 78.45C464.93 78.47 464.87 78.48 464.81 78.49C464.76 78.49 464.72 78.5 464.67 78.51C464.64 78.51 464.6 78.52 464.57 78.52C464.52 78.52 464.48 78.52 464.43 78.52L458.63 77.96L457.9 77.89C457.68 77.87 457.47 77.8 457.29 77.69C457.11 77.58 456.96 77.44 456.85 77.27C456.72 77.07 456.64 76.84 456.62 76.6C456.61 76.43 456.62 76.25 456.67 76.07L457.16 74.48L457.21 74.33C457.78 72.47 459.5 71.22 461.41 71.22C461.55 71.22 461.69 71.22 461.84 71.24C461.87 71.24 461.9 71.25 461.92 71.26C462.15 71.29 462.38 71.32 462.59 71.39C463.57 71.66 464.41 72.26 464.98 73.07C465.41 73.67 465.69 74.39 465.78 75.17L465.97 76.98C465.97 76.98 465.97 76.99 465.97 77L465.98 76.95ZM492.13 79.74C492.13 79.84 492.13 79.94 492.13 80.04C492.13 80.08 492.11 80.11 492.11 80.14C492.1 80.21 492.08 80.27 492.06 80.34C492.05 80.38 492.03 80.41 492.01 80.45C491.99 80.51 491.96 80.56 491.93 80.61C491.91 80.65 491.88 80.68 491.86 80.71C491.83 80.76 491.79 80.8 491.75 80.85C491.72 80.88 491.69 80.91 491.65 80.94C491.61 80.98 491.57 81.01 491.52 81.05C491.48 81.07 491.44 81.09 491.41 81.12C491.36 81.15 491.31 81.17 491.26 81.2C491.22 81.22 491.18 81.23 491.13 81.24C491.08 81.26 491.02 81.27 490.96 81.28C490.91 81.28 490.87 81.29 490.82 81.3C490.79 81.3 490.75 81.31 490.72 81.31C490.67 81.31 490.63 81.31 490.58 81.31L487.17 80.98L484.79 80.75L484.06 80.68C483.84 80.66 483.63 80.59 483.45 80.48C483.27 80.37 483.12 80.23 483.01 80.06C482.88 79.86 482.8 79.63 482.78 79.39C482.77 79.22 482.78 79.04 482.83 78.86L483.32 77.27L483.37 77.12C483.94 75.26 485.66 74.01 487.57 74.01C487.71 74.01 487.85 74.01 488 74.03C488.03 74.03 488.06 74.04 488.08 74.05C488.57 74.11 489.03 74.24 489.46 74.44C490.14 74.76 490.72 75.25 491.15 75.85C491.58 76.45 491.86 77.17 491.95 77.95L492.14 79.76C492.14 79.76 492.14 79.77 492.14 79.78L492.13 79.74ZM496.56 64.27L496.59 64.21L496.61 64.23C496.61 64.23 496.57 64.25 496.55 64.27H496.56ZM497.15 51.68C496.47 58.71 494.08 62.7 492.65 65.08C492.41 65.48 492.2 65.83 492.03 66.13L491.89 66.39L491.86 66.69C491.64 68.77 491.19 70.98 490.75 72.84C489.98 72.39 489.12 72.08 488.19 71.99C488.13 71.99 488.06 71.99 488 71.99C487.86 71.99 487.71 71.97 487.57 71.97C487.16 71.97 486.76 72.02 486.36 72.09C486.45 69.32 486.09 66.75 485.05 65.34C484.94 65.19 484.83 65.07 484.72 64.96C484.15 64.39 483.54 64.2 483.09 64.16L482.91 64.14L482.73 64.17C482.66 64.17 475.68 65.14 468.32 63.26L466.7 62.85L466.47 64.51C466.18 66.57 465.55 68.58 464.92 70.25C464.46 69.95 463.96 69.71 463.42 69.53C462.98 69.38 462.52 69.27 462.04 69.22C462 69.22 461.95 69.22 461.91 69.22C461.75 69.21 461.58 69.2 461.42 69.2C461.16 69.2 460.91 69.23 460.66 69.26C461.01 66.42 460.85 63.3 459.01 61.73C458.8 61.55 458.57 61.39 458.31 61.25C458.29 61.24 458.28 61.23 458.26 61.22C457.88 61.03 457.5 60.82 457.11 60.6C457.45 60.62 457.78 60.65 458.13 60.65C458.22 60.65 458.3 60.65 458.39 60.65C458.68 60.65 458.96 60.65 459.25 60.62C462.46 60.44 465.79 59.47 468.97 57.85C470.62 57.01 472.23 56.01 473.76 54.83C477.08 52.28 479.74 49.18 481.52 45.86C482.15 44.69 482.67 43.49 483.07 42.28C483.11 42.17 483.13 42.06 483.16 41.94C483.9 39.54 484.11 37.25 483.81 35.15C483.8 35.06 483.78 34.97 483.76 34.88H483.9L486.79 35.18C493.88 35.87 497.86 44.28 497.14 51.7L497.15 51.68ZM502.5 63.16C502.66 62.97 502.83 62.81 503.02 62.66C503.08 62.61 503.15 62.57 503.21 62.52C503.36 62.41 503.52 62.32 503.68 62.24C503.75 62.2 503.83 62.16 503.91 62.13C504.09 62.05 504.28 61.99 504.47 61.94C504.53 61.93 504.58 61.9 504.63 61.89C504.88 61.84 505.13 61.81 505.38 61.81C505.57 61.81 505.75 61.81 505.94 61.84C505.98 61.84 506.02 61.86 506.06 61.86C506.22 61.89 506.37 61.92 506.53 61.97C506.58 61.99 506.64 62 506.69 62.02C506.81 62.06 506.92 62.11 507.04 62.17C507.11 62.19 507.18 62.22 507.25 62.26L508.18 62.76L508.66 63.02C509.01 63.21 509.23 63.53 509.3 63.88C509.37 64.23 509.29 64.62 509.04 64.92L505.77 68.87L505.36 69.37C505.11 69.67 504.75 69.82 504.39 69.82C504.18 69.82 503.97 69.76 503.78 69.65C503.76 69.64 503.74 69.63 503.73 69.62C503.7 69.6 503.66 69.58 503.63 69.56C503.56 69.5 503.49 69.43 503.42 69.36L502.5 68.22L502.42 68.12C502.13 67.76 501.92 67.37 501.77 66.95C501.7 66.74 501.65 66.53 501.61 66.32C501.44 65.25 501.71 64.12 502.45 63.23C502.47 63.21 502.49 63.2 502.5 63.18V63.16ZM502.09 60.86C501.65 61.16 501.25 61.52 500.9 61.94C500.6 62.3 500.38 62.69 500.18 63.09C499.37 62.5 498.54 62.02 497.75 61.73C498.27 60.49 498.76 59.07 499.18 57.43C500.13 58.52 501.15 59.73 502.09 60.86V60.86ZM518.39 53.5C517.5 52.7 517.04 51.54 516.79 50.59C517.76 50.74 518.95 51.09 519.84 51.9C520.73 52.7 521.19 53.86 521.44 54.81C520.47 54.66 519.28 54.31 518.39 53.5Z" fill="#38237C"/>
        <path d="M464.99 73.0102C464.41 72.2102 463.57 71.6102 462.6 71.3302C462.38 71.2702 462.16 71.2302 461.93 71.2002C459.92 71.8502 458.91 76.4202 458.64 77.9202L464.44 78.4802C464.52 78.4802 464.6 78.4802 464.68 78.4802C464.73 78.4802 464.77 78.4802 464.82 78.4602C464.88 78.4602 464.93 78.4402 464.99 78.4202C465.03 78.4102 465.08 78.3902 465.12 78.3802C465.17 78.3602 465.22 78.3302 465.27 78.3002C465.31 78.2802 465.35 78.2602 465.38 78.2302C465.43 78.2002 465.47 78.1602 465.51 78.1202C465.54 78.0902 465.58 78.0702 465.61 78.0302C465.65 77.9902 465.68 77.9402 465.72 77.8902C465.75 77.8602 465.77 77.8202 465.79 77.7902C465.82 77.7402 465.84 77.6802 465.87 77.6302C465.89 77.5902 465.91 77.5602 465.92 77.5202C465.94 77.4602 465.95 77.3902 465.97 77.3202C465.97 77.2902 465.99 77.2502 465.99 77.2202C466 77.1202 466 77.0202 465.99 76.9202C465.99 76.9202 465.99 76.9102 465.99 76.9002L465.8 75.0902C465.72 74.3102 465.44 73.5902 465 72.9902L464.99 73.0102Z" fill="#503EAA"/>
        <path d="M457.17 74.4299L456.68 76.0199C456.62 76.1999 456.61 76.3799 456.63 76.5499C456.63 76.4499 456.63 76.3499 456.66 76.2499L457.17 74.4199V74.4299Z" fill="#503EAA"/>
        <path d="M461.92 71.2099C461.92 71.2099 461.87 71.1999 461.84 71.1899C461.7 71.1799 461.55 71.1699 461.41 71.1699C459.5 71.1699 457.78 72.4199 457.21 74.2799L457.16 74.4299L456.65 76.2599C456.62 76.3599 456.62 76.4599 456.62 76.5599C456.64 76.7999 456.72 77.0299 456.85 77.2299C456.96 77.3999 457.11 77.5499 457.29 77.6499C457.47 77.7599 457.67 77.8299 457.9 77.8499L458.63 77.9199C458.91 76.4299 459.91 71.8499 461.92 71.1999V71.2099Z" fill="#8D86EB"/>
        <path d="M459.14 58.5998C463.61 58.3398 468.37 56.4298 472.55 53.2198C476.72 50.0098 479.79 45.8998 481.18 41.6398C482.16 38.6498 482.22 35.8598 481.39 33.5298C479.2 47.0298 467.45 56.9498 453.86 56.9498C453.04 56.9498 452.22 56.9098 451.39 56.8398C453.4 58.1498 456.06 58.7698 459.13 58.5898L459.14 58.5998Z" fill="#FF8486"/>
        <path d="M472.41 26.4902C472.94 26.6802 473.18 26.9602 473.23 27.2602C473.65 27.0802 474.08 26.8902 474.5 26.6702C474.91 26.4602 475.15 26.1502 475.14 25.8502C475.13 25.5502 474.86 25.2702 474.43 25.0902C472.99 24.4802 470.75 23.7802 468.34 23.8802C468.35 24.5402 468.3 25.2002 468.21 25.8602C469.79 25.8102 470.86 25.9402 472.41 26.5002V26.4902Z" fill="#C0DBFF"/>
        <path d="M472.41 26.4902C470.86 25.9302 469.79 25.8002 468.21 25.8502C468.1 26.7002 467.92 27.5402 467.64 28.3702C467.93 28.3702 468.21 28.3902 468.51 28.3702C470.05 28.3102 471.63 27.9202 473.23 27.2402C473.18 26.9402 472.95 26.6702 472.41 26.4702V26.4902Z" fill="#77A4F2"/>
        <path d="M454.53 9.89994C454.49 9.57994 454.34 9.36994 454.22 9.33994L452.87 8.99994C452.76 8.96994 452.56 9.07994 452.4 9.32994L451.52 10.7499C452.53 10.5799 453.57 10.5199 454.6 10.5699L454.53 9.89994Z" fill="#503EAA"/>
        <path d="M466.61 15.4802C466.69 15.1902 466.63 14.9802 466.53 14.9102L465.36 14.1602C465.25 14.0902 465 14.1202 464.74 14.3202L464.2 14.7202C464.95 15.4402 465.61 16.2402 466.18 17.0902L466.61 15.4702V15.4802Z" fill="#503EAA"/>
        <path d="M440.11 10.2298C439.9 10.1398 439.7 10.0898 439.52 10.0898C439.34 10.0898 439.18 10.1398 439.07 10.2398C438.84 10.4398 438.78 10.8198 438.91 11.2698C439.04 11.7298 439.19 12.1698 439.35 12.5998C439.6 12.4298 439.96 12.4198 440.47 12.6698C441.91 13.3998 442.73 14.0798 443.75 15.2298C444.17 14.7198 444.62 14.2298 445.11 13.7898C443.53 11.9898 441.53 10.8598 440.11 10.2298Z" fill="#C0DBFF"/>
        <path d="M440.47 12.6602C439.97 12.4002 439.6 12.4202 439.35 12.5902C439.95 14.2202 440.75 15.6402 441.76 16.8002C441.93 17.0002 442.12 17.1802 442.3 17.3702C442.71 16.5902 443.2 15.8802 443.74 15.2202C442.72 14.0702 441.9 13.3902 440.46 12.6602H440.47Z" fill="#77A4F2"/>
        <path d="M443.69 22.4999L441.94 31.9299C442.35 31.8999 442.78 31.8999 443.23 31.9299L444.82 23.3699C445.75 18.1499 448.74 14.9499 452.34 13.6499C451.12 13.8199 449.93 14.1899 448.86 14.7799C446.95 15.8299 444.5 18.0199 443.69 22.4999V22.4999Z" fill="#77A4F2"/>
        <path d="M444.82 23.36L443.23 31.92C445.27 32.02 447.66 32.63 450.24 33.75C452.8 34.86 454.87 36.17 456.34 37.57C456.61 37.22 456.87 36.87 457.14 36.52C453.38 34.05 452.35 27.78 454.93 21.83C456.14 19.03 457.95 16.78 459.99 15.27C459.68 15.09 459.37 14.93 459.05 14.78L458.14 14.38C456.28 13.61 454.26 13.37 452.35 13.64C448.75 14.93 445.76 18.14 444.83 23.36H444.82ZM449.4 22.01C449.61 22.43 449.67 22.94 449.56 23.45C449.45 23.95 449.19 24.39 448.82 24.69C448.52 24.93 448.18 25.05 447.84 25.05C447.74 25.05 447.64 25.04 447.54 25.02C447.1 24.93 446.74 24.63 446.52 24.19C446.31 23.77 446.25 23.26 446.36 22.75C446.59 21.69 447.49 20.98 448.38 21.18C448.82 21.27 449.18 21.57 449.4 22.01V22.01Z" fill="#C0DBFF"/>
        <path d="M454.92 21.8398C452.34 27.7998 453.37 34.0598 457.13 36.5298C459.15 33.8498 461.01 31.3598 461.8 30.2298C463.55 27.6898 465.97 21.6798 461.34 16.2098C460.91 15.8698 460.46 15.5498 459.97 15.2798C457.94 16.7898 456.13 19.0398 454.91 21.8398H454.92ZM460.71 26.5298C461.45 27.0398 461.56 28.1898 460.95 29.0798C460.66 29.4998 460.25 29.8098 459.79 29.9498C459.62 29.9998 459.46 30.0198 459.3 30.0198C459 30.0198 458.72 29.9398 458.48 29.7698C458.11 29.5198 457.89 29.0998 457.85 28.6098C457.81 28.1398 457.95 27.6398 458.25 27.2198C458.86 26.3298 459.97 26.0198 460.71 26.5298Z" fill="#77A4F2"/>
        <path d="M461.8 30.2302C461.02 31.3602 459.16 33.8602 457.13 36.5302C456.87 36.8802 456.6 37.2302 456.33 37.5802C456.68 37.9202 457.01 38.2602 457.29 38.6102L462.98 30.8702C465.68 27.1502 465.58 23.8302 465.02 21.7102C464.45 19.5702 463.13 17.6402 461.34 16.2202C465.97 21.6902 463.55 27.7002 461.8 30.2402V30.2302Z" fill="white"/>
        <path d="M442.53 46.2399L446.45 47.9399C447.43 48.3699 448.47 48.5199 449.47 48.4299C449.15 48.2499 448.85 48.0599 448.56 47.8299L448.41 47.6799C448.41 47.6799 446.96 45.9099 445.31 45.1899C443.66 44.4799 441.44 44.6399 441.41 44.6399H441.19C440.82 44.5799 440.47 44.4899 440.12 44.3799C440.74 45.1699 441.56 45.8199 442.54 46.2499L442.53 46.2399Z" fill="#77A4F2"/>
        <path d="M455.47 42.8102C454.71 44.5502 453.46 46.4902 451.5 47.1002C451.65 47.1302 451.8 47.1602 451.95 47.1802C453.86 47.3402 455.43 46.0502 456.62 43.3102C457.17 42.0502 456.44 40.7402 455.74 39.8702C455.5 39.5702 455.22 39.2802 454.91 38.9902C455.79 40.3502 455.96 41.6702 455.47 42.8202V42.8102Z" fill="#C0DBFF"/>
        <path d="M438.94 35.6502C437.76 38.3902 437.88 40.4202 439.31 41.7002C439.84 42.1702 440.56 42.5002 441.35 42.6302C441.91 42.6002 444.19 42.5302 446.08 43.3502C447.96 44.1702 449.5 45.8902 449.87 46.3202C450.37 46.7002 450.94 46.9702 451.5 47.0902C453.46 46.4802 454.71 44.5502 455.47 42.8002C455.97 41.6502 455.79 40.3302 454.91 38.9702C453.62 37.7502 451.77 36.5902 449.44 35.5802C446.56 34.3302 444 33.7702 442.04 33.9102C440.93 34.0002 439.49 34.3702 438.94 35.6302V35.6502ZM449.25 40.5802C449.46 39.7602 449.99 39.1202 450.7 38.8402C451.21 38.6402 451.79 38.8902 452 39.4002C452.2 39.9102 451.95 40.4902 451.44 40.7002C451.29 40.7602 451.21 40.9902 451.19 41.0802C451.11 41.3902 451.15 41.7802 451.29 42.1502C451.58 42.8702 452.15 43.2102 452.39 43.1102C452.91 42.9102 453.49 43.1602 453.69 43.6702C453.89 44.1802 453.64 44.7602 453.13 44.9702C452.85 45.0802 452.57 45.1302 452.29 45.1302C451.14 45.1302 449.98 44.2702 449.43 42.8902C449.13 42.1302 449.06 41.3102 449.25 40.5802V40.5802ZM440.68 38.0302C441.19 37.8302 441.77 38.0802 441.98 38.5902C442.04 38.7502 442.27 38.8202 442.36 38.8402C442.67 38.9202 443.06 38.8802 443.43 38.7402C443.8 38.5902 444.11 38.3602 444.28 38.0802C444.39 37.9102 444.43 37.7402 444.39 37.6402C444.19 37.1302 444.44 36.5502 444.95 36.3402C445.46 36.1402 446.04 36.3902 446.25 36.9002C446.53 37.6102 446.43 38.4302 445.97 39.1502C445.57 39.7802 444.93 40.2902 444.16 40.6002C443.68 40.7902 443.19 40.8802 442.71 40.8802C442.42 40.8802 442.13 40.8402 441.86 40.7702C441.04 40.5602 440.4 40.0302 440.12 39.3202C439.92 38.8102 440.17 38.2302 440.68 38.0202V38.0302Z" fill="#77A4F2"/>
        <path d="M441.85 40.7899C442.12 40.8599 442.41 40.8999 442.7 40.8999C443.18 40.8999 443.68 40.8099 444.15 40.6199C444.92 40.3199 445.56 39.8099 445.96 39.1699C446.42 38.4499 446.52 37.6299 446.24 36.9199C446.04 36.4099 445.46 36.1599 444.94 36.3599C444.43 36.5599 444.17 37.1399 444.38 37.6599C444.42 37.7699 444.38 37.9299 444.27 38.0999C444.1 38.3699 443.79 38.6099 443.42 38.7599C443.05 38.9099 442.66 38.9399 442.35 38.8599C442.26 38.8299 442.03 38.7599 441.97 38.6099C441.77 38.0999 441.19 37.8499 440.67 38.0499C440.16 38.2499 439.9 38.8299 440.11 39.3499C440.39 40.0599 441.02 40.5899 441.85 40.7999V40.7899Z" fill="#38237C"/>
        <path d="M452.29 45.1299C452.57 45.1299 452.86 45.0799 453.13 44.9699C453.64 44.7699 453.89 44.1799 453.69 43.6699C453.49 43.1599 452.91 42.9099 452.39 43.1099C452.14 43.2199 451.57 42.8799 451.29 42.1499C451.14 41.7799 451.11 41.3899 451.19 41.0799C451.21 40.9899 451.29 40.7599 451.44 40.6999C451.95 40.4999 452.2 39.9099 452 39.3999C451.8 38.8899 451.21 38.6399 450.7 38.8399C449.99 39.1199 449.46 39.7599 449.25 40.5799C449.06 41.2999 449.13 42.1199 449.43 42.8899C449.98 44.2699 451.13 45.1299 452.29 45.1299V45.1299Z" fill="#38237C"/>
        <path d="M457.86 28.6098C457.9 29.0998 458.12 29.5098 458.49 29.7698C458.73 29.9398 459.01 30.0198 459.31 30.0198C459.47 30.0198 459.63 29.9998 459.8 29.9498C460.25 29.8198 460.67 29.5098 460.96 29.0798C461.57 28.1898 461.47 27.0398 460.72 26.5298C459.98 26.0198 458.87 26.3298 458.26 27.2198C457.97 27.6398 457.83 28.1398 457.86 28.6098Z" fill="#38237C"/>
        <path d="M446.36 22.76C446.25 23.26 446.31 23.77 446.52 24.2C446.74 24.64 447.11 24.94 447.54 25.03C447.64 25.05 447.74 25.06 447.84 25.06C448.18 25.06 448.52 24.94 448.82 24.7C449.19 24.4 449.45 23.96 449.56 23.46C449.67 22.96 449.61 22.45 449.4 22.02C449.18 21.58 448.81 21.28 448.38 21.19C447.49 20.99 446.59 21.7 446.36 22.76V22.76Z" fill="#38237C"/>
        <path d="M436.95 62.9302L440.03 67.0202C440.09 67.1002 440.16 67.1702 440.23 67.2302C440.26 67.2502 440.28 67.2602 440.31 67.2802C440.36 67.3202 440.41 67.3502 440.47 67.3802C440.5 67.4002 440.54 67.4102 440.58 67.4202C440.63 67.4402 440.68 67.4602 440.74 67.4702C440.78 67.4702 440.82 67.4802 440.86 67.4902C440.91 67.4902 440.96 67.5102 441.01 67.5102C441.03 67.5102 441.05 67.5102 441.07 67.5102C441.23 67.5102 441.39 67.4802 441.53 67.4102C441.53 67.4102 441.55 67.4002 441.56 67.4002C441.71 67.3302 441.86 67.2302 441.98 67.0902L443.04 65.8902C443.29 65.6002 443.49 65.2802 443.64 64.9502C443.76 64.6802 443.87 64.4102 443.93 64.1302C443.97 63.9202 444 63.7002 444.01 63.4802C444.04 62.6402 443.8 61.7902 443.27 61.0602C441.65 60.1402 438.09 62.2102 436.96 62.9202L436.95 62.9302Z" fill="#503EAA"/>
        <path d="M438.35 59.9001L438.12 60.0101L437.03 60.5301C436.96 60.5601 436.92 60.6101 436.86 60.6501L438.35 59.8901V59.9001Z" fill="#503EAA"/>
        <path d="M443.26 61.0702C443.26 61.0702 443.24 61.0302 443.22 61.0102C442.47 60.0102 441.31 59.4702 440.13 59.4702C439.57 59.4702 439 59.5902 438.47 59.8502L438.35 59.9102L436.86 60.6702C436.79 60.7002 436.74 60.7502 436.69 60.8002C436.68 60.8102 436.66 60.8202 436.65 60.8302C436.25 61.2602 436.19 61.9302 436.57 62.4302L436.96 62.9402C438.09 62.2302 441.65 60.1602 443.27 61.0802L443.26 61.0702Z" fill="#8D86EB"/>
        <path d="M505.78 68.8701L509.05 64.9201C509.3 64.6101 509.38 64.2301 509.31 63.8801C509.24 63.5301 509.02 63.2001 508.67 63.0201L508.19 62.7601L507.26 62.2601C507.19 62.2201 507.12 62.2001 507.05 62.1701C506.94 62.1201 506.82 62.0601 506.7 62.0201C506.65 62.0001 506.59 61.9901 506.54 61.9701C506.39 61.9201 506.23 61.8901 506.07 61.8601C506.03 61.8601 505.99 61.8401 505.95 61.8401C505.76 61.8101 505.58 61.8101 505.39 61.8101C505.14 61.8101 504.88 61.8401 504.64 61.8901C504.58 61.9001 504.53 61.9201 504.48 61.9401C504.29 61.9901 504.1 62.0501 503.92 62.1301C503.84 62.1601 503.77 62.2001 503.69 62.2401C503.53 62.3201 503.37 62.4201 503.22 62.5201C503.16 62.5701 503.09 62.6101 503.03 62.6601C502.84 62.8101 502.67 62.9701 502.51 63.1601C502 64.9501 504.83 67.9301 505.79 68.8701H505.78Z" fill="#503EAA"/>
        <path d="M502.51 68.2099L503.43 69.3499C503.49 69.4299 503.56 69.4999 503.64 69.5499C503.67 69.5799 503.71 69.5899 503.74 69.6099C503.76 69.6199 503.78 69.6299 503.79 69.6399C503.72 69.5899 503.65 69.5399 503.59 69.4699L502.51 68.1899V68.2099Z" fill="#503EAA"/>
        <path d="M501.62 66.3002C501.66 66.5102 501.71 66.7302 501.78 66.9302C501.92 67.3502 502.14 67.7402 502.43 68.1002L502.51 68.2002L503.59 69.4802C503.65 69.5502 503.72 69.6002 503.79 69.6502C503.98 69.7602 504.19 69.8202 504.4 69.8202C504.76 69.8202 505.11 69.6702 505.37 69.3702L505.78 68.8702C504.83 67.9302 501.99 64.9502 502.5 63.1602C502.48 63.1802 502.46 63.1902 502.45 63.2102C501.72 64.1002 501.44 65.2302 501.61 66.3002H501.62Z" fill="#8D86EB"/>
        <path d="M491.15 75.8C490.72 75.2 490.14 74.71 489.46 74.39C489.03 74.19 488.57 74.06 488.08 74C486.06 74.65 485.06 79.22 484.79 80.72L487.17 80.95L490.58 81.28C490.66 81.28 490.74 81.28 490.82 81.28C490.87 81.28 490.91 81.28 490.96 81.26C491.02 81.26 491.07 81.24 491.13 81.22C491.17 81.21 491.22 81.19 491.26 81.18C491.31 81.16 491.36 81.13 491.41 81.1C491.45 81.08 491.49 81.06 491.52 81.03C491.57 81 491.61 80.96 491.65 80.92C491.68 80.89 491.72 80.87 491.75 80.83C491.79 80.79 491.82 80.74 491.86 80.69C491.88 80.66 491.91 80.62 491.93 80.59C491.96 80.54 491.98 80.48 492.01 80.43C492.03 80.39 492.05 80.36 492.06 80.32C492.08 80.26 492.09 80.19 492.11 80.12C492.11 80.09 492.13 80.05 492.13 80.02C492.14 79.92 492.14 79.82 492.13 79.72C492.13 79.72 492.13 79.71 492.13 79.7L491.94 77.89C491.86 77.11 491.58 76.39 491.14 75.79L491.15 75.8Z" fill="#503EAA"/>
        <path d="M483.32 77.22L482.83 78.81C482.77 78.99 482.76 79.17 482.78 79.34C482.78 79.24 482.78 79.14 482.81 79.04L483.32 77.21V77.22Z" fill="#503EAA"/>
        <path d="M488.08 74C488.08 74 488.03 73.99 488 73.98C487.86 73.97 487.71 73.96 487.57 73.96C485.66 73.96 483.94 75.21 483.37 77.07L483.32 77.22L482.81 79.05C482.78 79.15 482.78 79.25 482.78 79.35C482.8 79.59 482.88 79.82 483.01 80.02C483.12 80.19 483.27 80.34 483.45 80.44C483.63 80.54 483.83 80.62 484.06 80.64L484.79 80.71C485.07 79.22 486.07 74.64 488.08 73.99V74Z" fill="#8D86EB"/>
        <defs>
            <linearGradient id="paint0_linear_2673_26290" x1="2.0499" y1="163.08" x2="563.22" y2="163.08" gradientUnits="userSpaceOnUse">
                <stop stop-color="#503EAA"/>
                <stop offset="1" stop-color="#77A4F2"/>
            </linearGradient>
            <radialGradient id="paint1_radial_2673_26290" cx="0" cy="0" r="1" gradientUnits="userSpaceOnUse" gradientTransform="translate(466.14 1.35992) scale(49.1)">
                <stop stop-color="#86D4C9"/>
                <stop offset="1" stop-color="#86D4C9" stop-opacity="0"/>
            </radialGradient>
        </defs>
    </svg>
