<svg width="154" height="68" viewBox="0 0 154 68" fill="none" xmlns="http://www.w3.org/2000/svg">
<path d="M22.4664 27.7072C16.8695 28.0139 8.79864 32.5951 5.264 36.7668C9.48531 40.5211 18.2874 44.2171 23.8803 43.9185C24.9802 43.8763 26.0537 43.6206 27.0388 43.1662C28.0234 42.7118 28.8996 42.0682 29.6166 41.2722C30.3336 40.4765 30.8766 39.5443 31.2144 38.5304C31.5523 37.5163 31.6779 36.4405 31.5841 35.3657C31.4903 34.2909 31.1793 33.2385 30.6682 32.2697C30.1576 31.3007 29.4577 30.4349 28.6092 29.7222C27.7608 29.0095 26.7808 28.4642 25.726 28.1183C24.6716 27.7724 23.5634 27.6326 22.4664 27.7072Z" fill="#FF8080"/>
</svg>
