<svg width="154" height="68" viewBox="0 0 154 68" fill="none" xmlns="http://www.w3.org/2000/svg">
<path d="M131.534 27.7072C137.13 28.0139 145.201 32.5951 148.736 36.7668C144.515 40.5211 135.713 44.2171 130.12 43.9185C129.02 43.8763 127.946 43.6206 126.961 43.1662C125.977 42.7118 125.1 42.0682 124.383 41.2722C123.666 40.4765 123.123 39.5443 122.786 38.5304C122.448 37.5163 122.322 36.4405 122.416 35.3657C122.51 34.2909 122.821 33.2385 123.332 32.2697C123.842 31.3007 124.542 30.4349 125.391 29.7222C126.239 29.0095 127.219 28.4642 128.274 28.1183C129.328 27.7724 130.437 27.6326 131.534 27.7072Z" fill="#FF8080"/>
</svg>
