<svg viewBox="0 0 529 157" fill="none" xmlns="http://www.w3.org/2000/svg">
    <path d="M274.3 37.4598C274.2 37.4198 274.1 37.3798 274 37.3398C275.8 39.8298 277.44 43.1298 278.84 47.1798C281.9 56.0198 283.65 67.6098 283.81 79.9798H291.1C290.29 54.4598 280.95 42.6598 274.29 37.4598H274.3Z" fill="#C0DBFF"/>
    <path d="M275.35 48.3902C273.05 41.7402 270.09 37.3202 267.16 35.9702V79.9802H280.11C279.95 68.1502 278.23 56.7302 275.35 48.3902V48.3902Z" fill="#C0DBFF"/>
    <path d="M263.47 35.9702C260.54 37.3202 257.58 41.7402 255.28 48.3902C252.39 56.7302 250.68 68.1602 250.52 79.9802H263.47V35.9702Z" fill="#C0DBFF"/>
    <path d="M291.29 87.0302V83.6802H239.51C239.47 84.7802 239.45 85.9002 239.43 87.0302H291.29Z" fill="#C0DBFF"/>
    <path d="M301.13 104.89H294.41V131.88H301.13V104.89Z" fill="#C0DBFF"/>
    <path d="M313.2 104.89H307.38V131.88H313.2V104.89Z" fill="#C0DBFF"/>
    <path d="M365.73 135.58H208.45V140.63H365.73V135.58Z" fill="#C0DBFF"/>
    <path d="M317.02 79.9799C316.78 75.1099 315.83 70.3799 314.21 65.8799C315.77 70.3799 316.66 75.1199 316.85 79.9799H317.02Z" fill="#C0DBFF"/>
    <path d="M404.12 131.88H404.22V114.3L404.12 114.29V131.88Z" fill="#C0DBFF"/>
    <path d="M420.64 131.9H420.56V140.63H420.64V131.9Z" fill="#C0DBFF"/>
    <path d="M411.48 108.95L411.66 108.1C411.72 107.82 411.73 107.54 411.72 107.26C411.72 107.42 411.72 107.58 411.68 107.75L411.47 108.96L411.48 108.95Z" fill="#C0DBFF"/>
    <path d="M239.69 79.9798H246.81C246.97 67.6098 248.72 56.0198 251.78 47.1798C253.14 43.2498 254.72 40.0298 256.46 37.5698C248.57 43.7798 241.16 57.2598 239.68 79.9898L239.69 79.9798Z" fill="#C0DBFF"/>
    <path d="M338.83 87.3601C338.83 89.2201 337.32 90.7301 335.46 90.7301H330.21V94.9101L330.39 94.9301V90.8001H335.64C337.5 90.8001 339.01 89.2901 339.01 87.4301V83.8801C339.01 83.4101 338.91 82.9601 338.74 82.5601C338.8 82.8101 338.84 83.0701 338.84 83.3401V87.3501L338.83 87.3601Z" fill="#C0DBFF"/>
    <path d="M195.24 90.7302C195.06 90.7302 194.88 90.7002 194.71 90.6802C194.99 90.7502 195.27 90.8002 195.57 90.8002H200.43V90.7302H195.25H195.24Z" fill="#C0DBFF"/>
    <path d="M288.16 104.89H281.44V131.88H288.16V104.89Z" fill="#C0DBFF"/>
    <path d="M232.97 109.95V131.87H236.29V105.21C234.36 105.92 232.97 107.76 232.97 109.94V109.95Z" fill="#C0DBFF"/>
    <path d="M275.19 104.89H268.47V131.88H275.19V104.89Z" fill="#C0DBFF"/>
    <path d="M432.77 140.65H432.7V154.95H432.77V140.65Z" fill="#C0DBFF"/>
    <path d="M249.25 104.89H242.53V131.88H249.25V104.89Z" fill="#C0DBFF"/>
    <path d="M410.13 144.33H182.55V152.43H410.13V144.33Z" fill="#C0DBFF"/>
    <path d="M321.86 109.95V131.87H326.5V104.93C323.91 105.15 321.86 107.3 321.86 109.95Z" fill="#C0DBFF"/>
    <path d="M262.22 104.89H255.5V131.88H262.22V104.89Z" fill="#C0DBFF"/>
    <path d="M208.66 109.95V131.87H213.73V104.88H213.72C210.92 104.88 208.66 107.15 208.66 109.94V109.95Z" fill="#C0DBFF"/>
    <path d="M388.85 120.8C388.9 121.03 388.94 121.26 388.94 121.49V123.41C388.94 125.15 387.53 126.57 385.78 126.57C384.03 126.57 382.63 125.16 382.63 123.41V121.49C382.63 121.02 382.75 120.56 382.96 120.14L368.41 118.51C368.46 118.73 368.49 118.95 368.49 119.18V123.41C368.49 125.15 367.08 126.57 365.33 126.57C363.58 126.57 362.18 125.16 362.18 123.41V119.17C362.18 118.71 362.3 118.26 362.5 117.85L348.03 116.23C348.03 116.23 348.03 116.28 348.03 116.31V123.4C348.03 125.14 346.62 126.56 344.87 126.56C343.12 126.56 341.72 125.15 341.72 123.4V116.3C341.72 116.04 341.77 115.78 341.83 115.53L330.19 114.23V131.86H400.41V122.08L388.84 120.79L388.85 120.8Z" fill="#C0DBFF"/>
    <path d="M291.11 79.98H296.7C296.37 68.32 293 57.06 287.32 48.83C283.6 43.45 279.15 39.59 274.31 37.46C280.96 42.66 290.3 54.46 291.12 79.98H291.11Z" fill="white"/>
    <path d="M283.34 38.9199C285.89 41.0799 288.26 43.6999 290.36 46.7299C296.55 55.6899 300.08 67.4399 300.4 79.9799H313.16C312.69 68.3199 307.77 57.4199 299.19 49.1099C294.58 44.6499 289.2 41.2199 283.34 38.9199V38.9199Z" fill="white"/>
    <path d="M110.14 144.33H101.7V152.43H182.55V144.33H110.14Z" fill="#77A4F2"/>
    <path d="M208.45 135.58H113.84V140.63H208.45V135.58Z" fill="#77A4F2"/>
    <path d="M429 152.43V144.33H420.56H410.13V152.43H429Z" fill="white"/>
    <path d="M416.86 135.58H365.73V140.63H416.86V135.58Z" fill="white"/>
    <path d="M342.65 114.14C343.24 113.56 344.04 113.24 344.88 113.24C345.29 113.24 345.7 113.32 346.09 113.47C346.47 113.63 346.82 113.85 347.11 114.14C347.4 114.43 347.64 114.77 347.79 115.14C347.94 115.49 348.01 115.86 348.02 116.24L362.49 117.86C362.64 117.55 362.84 117.26 363.09 117.01C363.68 116.43 364.48 116.11 365.32 116.11C365.73 116.11 366.14 116.19 366.53 116.34C366.91 116.5 367.26 116.72 367.55 117.01C367.84 117.3 368.08 117.64 368.23 118.01C368.3 118.18 368.35 118.35 368.39 118.52L382.94 120.15C383.09 119.85 383.28 119.57 383.53 119.32C384.12 118.74 384.92 118.42 385.76 118.42C386.17 118.42 386.58 118.5 386.97 118.65C387.35 118.81 387.7 119.03 387.99 119.32C388.28 119.61 388.52 119.95 388.67 120.32C388.74 120.48 388.78 120.64 388.82 120.8L400.39 122.09V113.85L391.07 112.78L330.17 106.12V114.24L341.81 115.54C341.95 115.01 342.22 114.52 342.62 114.13L342.65 114.14Z" fill="#77A4F2"/>
    <path d="M267.2 25.1301H293.11V8.87012H267.2V25.1301ZM285.54 22.8701C285.54 22.9901 285.45 23.0801 285.33 23.0801H274.99C274.87 23.0801 274.78 22.9901 274.78 22.8701V21.3101C274.78 21.1901 274.87 21.1001 274.99 21.1001H285.33C285.45 21.1001 285.54 21.1901 285.54 21.3101V22.8701ZM277.72 17.9301V16.5901C277.72 16.4601 277.87 16.3801 277.98 16.4701L279.99 18.1201C280.09 18.2001 280.23 18.2001 280.33 18.1201L282.34 16.4701C282.44 16.3901 282.6 16.4601 282.6 16.5901V17.9301C282.6 18.0401 282.55 18.1501 282.46 18.2201L280.41 19.9001C280.27 20.0201 280.06 20.0201 279.91 19.9001L277.86 18.2201C277.77 18.1501 277.72 18.0401 277.72 17.9301V17.9301ZM274.78 11.1701C274.78 11.0301 274.89 10.9201 275.03 10.9201H275.43C275.5 10.9201 275.58 10.9401 275.64 10.9901L280.01 14.1401C280.1 14.2001 280.22 14.2001 280.31 14.1401L284.68 10.9901C284.74 10.9501 284.81 10.9201 284.89 10.9201H285.29C285.43 10.9201 285.54 11.0301 285.54 11.1701V19.8201C285.54 19.9801 285.41 20.1001 285.26 20.1001H283.85C283.69 20.1001 283.57 19.9701 283.57 19.8201V14.5701C283.57 14.4301 283.41 14.3601 283.3 14.4401L280.33 16.7001C280.23 16.7801 280.09 16.7801 279.98 16.7001L277.01 14.4401C276.9 14.3601 276.74 14.4401 276.74 14.5701V19.8201C276.74 19.9801 276.61 20.1001 276.46 20.1001H275.05C274.89 20.1001 274.77 19.9701 274.77 19.8201V11.1701H274.78Z" fill="#FF8486"/>
    <path d="M200.43 98.6401L122.69 107.67L123.25 110.93L126.51 110.56V110.5L139.16 109.11L200.43 102.1V98.6401Z" fill="#77A4F2"/>
    <path d="M230.23 79.9799C230.55 67.4399 234.08 55.6899 240.27 46.7299C242.37 43.6899 244.74 41.0799 247.29 38.9199C241.43 41.2199 236.05 44.6599 231.44 49.1099C222.86 57.4199 217.95 68.3199 217.47 79.9799H230.23V79.9799Z" fill="#77A4F2"/>
    <path d="M316.9 131.87H321.87V109.95C321.87 107.3 323.91 105.15 326.51 104.93V90.73H316.91V131.87H316.9Z" fill="#77A4F2"/>
    <path d="M256.46 37.5598C256.51 37.4798 256.57 37.4098 256.62 37.3398C251.66 39.4498 247.1 43.3498 243.31 48.8298C237.63 57.0598 234.25 68.3198 233.93 79.9798H239.69C241.17 57.2598 248.58 43.7798 256.47 37.5598H256.46Z" fill="#77A4F2"/>
    <path d="M204.13 105.4V131.88H208.66V109.96C208.66 107.16 210.93 104.9 213.72 104.9H213.73V90.75H204.13V105.41V105.4Z" fill="#77A4F2"/>
    <path d="M217.43 131.87H223.32V100.28C223.32 99.46 223.65 98.68 224.23 98.11C224.82 97.53 225.61 97.21 226.44 97.21C226.85 97.21 227.26 97.29 227.64 97.44C228.02 97.6 228.36 97.82 228.65 98.11C228.94 98.4 229.17 98.74 229.33 99.11C229.49 99.48 229.57 99.88 229.57 100.29V131.88H232.98V109.96C232.98 107.78 234.37 105.94 236.3 105.23V100.29C236.3 99.47 236.63 98.69 237.22 98.12C237.8 97.54 238.6 97.22 239.43 97.22C240.26 97.22 241.05 97.55 241.64 98.12C242.23 98.7 242.55 99.48 242.55 100.3V104.9H249.27V100.29C249.27 99.47 249.6 98.69 250.19 98.12C250.77 97.54 251.57 97.22 252.4 97.22C253.23 97.22 254.02 97.55 254.61 98.12C255.2 98.7 255.52 99.48 255.52 100.3V104.9H262.24V100.29C262.24 99.47 262.57 98.69 263.16 98.11C263.75 97.53 264.54 97.21 265.37 97.21C266.2 97.21 266.99 97.54 267.58 98.11C268.17 98.69 268.49 99.47 268.49 100.29V104.89H275.21V100.28C275.21 99.46 275.54 98.68 276.13 98.11C276.71 97.53 277.51 97.21 278.34 97.21C279.17 97.21 279.96 97.54 280.55 98.11C281.14 98.69 281.46 99.47 281.46 100.29V104.89H288.18V100.28C288.18 99.46 288.51 98.68 289.1 98.1C289.69 97.52 290.48 97.2 291.31 97.2C292.14 97.2 292.93 97.53 293.52 98.1C294.11 98.68 294.43 99.46 294.43 100.28V104.88H301.15V100.28C301.15 99.46 301.48 98.68 302.06 98.1C302.65 97.52 303.44 97.2 304.27 97.2C305.1 97.2 305.89 97.52 306.48 98.1C307.07 98.68 307.39 99.46 307.39 100.28V104.88H313.21V90.73H217.45V131.87H217.43Z" fill="#77A4F2"/>
    <path d="M200.43 131.88V106.13L139.54 112.79L130.21 113.86V131.88H200.43ZM182.15 116.33C182.15 115.93 182.23 115.52 182.39 115.15C182.55 114.78 182.78 114.44 183.07 114.15C183.36 113.86 183.71 113.64 184.09 113.48C184.47 113.33 184.88 113.25 185.3 113.25C186.14 113.25 186.94 113.58 187.53 114.15C188.12 114.73 188.45 115.51 188.45 116.32V123.42C188.45 125.16 187.04 126.58 185.29 126.58C183.54 126.58 182.14 125.17 182.14 123.42V116.33H182.15ZM161.7 119.19C161.7 118.79 161.78 118.38 161.94 118.01C162.1 117.64 162.33 117.3 162.62 117.01C162.91 116.72 163.26 116.5 163.64 116.34C164.02 116.19 164.43 116.11 164.85 116.11C165.69 116.11 166.49 116.44 167.08 117.01C167.67 117.59 168 118.37 168 119.18V123.42C168 125.16 166.59 126.58 164.84 126.58C163.1 126.58 161.69 125.17 161.69 123.42V119.19H161.7ZM141.49 120.32C141.65 119.95 141.88 119.61 142.17 119.32C142.46 119.03 142.81 118.81 143.19 118.65C143.57 118.5 143.98 118.42 144.4 118.42C145.24 118.42 146.04 118.75 146.63 119.32C147.22 119.9 147.55 120.68 147.55 121.49V123.41C147.55 125.15 146.14 126.57 144.39 126.57C142.64 126.57 141.24 125.16 141.24 123.41V121.49C141.24 121.09 141.32 120.68 141.48 120.31L141.49 120.32Z" fill="#77A4F2"/>
    <path d="M213.73 87.0302H239.42C239.43 85.8902 239.46 84.7702 239.5 83.6802H195.57V87.0302H213.73V87.0302Z" fill="#77A4F2"/>
    <path d="M316.9 87.0302H330.2H335.12V83.6802H316.9H291.29V87.0302H316.9Z" fill="white"/>
    <path d="M330.2 102.1L391.47 109.11L404.12 110.5V110.56L407.38 110.93L407.94 107.67L330.2 98.6401V102.1Z" fill="white"/>
    <path d="M432.7 140.63H420.56V131.87H404.12V114.28H404.22L407.25 114.64C407.43 114.67 407.62 114.69 407.8 114.69C408.43 114.69 409.06 114.5 409.58 114.15C410.29 113.67 410.79 112.9 410.93 112.06L411.46 108.96L411.67 107.75C411.7 107.59 411.7 107.43 411.71 107.26C411.74 105.76 410.72 104.42 409.21 104.1L330.38 94.93L330.2 94.91V90.73H335.45C337.31 90.73 338.82 89.22 338.82 87.36V83.35C338.82 83.08 338.78 82.82 338.72 82.57C338.36 81.09 337.04 79.98 335.45 79.98H316.85C316.67 75.12 315.77 70.38 314.21 65.88C311.71 58.64 307.5 52.01 301.76 46.45C292.46 37.44 280.23 32.31 267.16 31.87V27.9H295.88V6.09H267.67C268.37 5.45 268.82 4.53 268.82 3.51C268.82 1.57 267.25 0 265.31 0C263.37 0 261.8 1.57 261.8 3.51C261.8 4.77 262.47 5.87 263.46 6.49V31.87C250.39 32.31 238.16 37.44 228.86 46.45C219.56 55.46 214.25 67.3 213.78 79.98H195.24C193.38 79.98 191.87 81.49 191.87 83.35V87.36C191.87 89.04 193.1 90.42 194.71 90.68C194.88 90.71 195.06 90.73 195.24 90.73H200.42V94.91L121.58 104.07L121.4 104.1C119.73 104.46 118.65 106.06 118.94 107.75L119.68 112.06C119.83 112.91 120.32 113.67 121.03 114.15C121.56 114.51 122.18 114.69 122.82 114.69C123.01 114.69 123.19 114.67 123.37 114.64L126.5 114.28V131.87H110.13V140.63H97.99V156.13H432.69V140.63H432.7ZM247.28 38.91C244.73 41.07 242.36 43.69 240.26 46.72C234.07 55.68 230.54 67.43 230.22 79.97H217.46C217.93 68.31 222.85 57.41 231.43 49.1C236.04 44.64 241.42 41.21 247.28 38.91V38.91ZM243.31 48.83C247.1 43.34 251.66 39.44 256.62 37.34C256.57 37.41 256.51 37.49 256.46 37.56C254.72 40.03 253.14 43.24 251.78 47.17C248.72 56.01 246.97 67.6 246.81 79.97H233.93C234.26 68.31 237.63 57.05 243.31 48.82V48.83ZM255.27 48.38C257.57 41.73 260.53 37.31 263.46 35.96V79.97H250.51C250.67 68.14 252.39 56.72 255.27 48.38ZM267.16 35.96C270.09 37.31 273.05 41.73 275.35 48.38C278.24 56.72 279.95 68.15 280.11 79.97H267.16V35.97V35.96ZM283.81 79.97C283.65 67.6 281.9 56.01 278.84 47.17C277.44 43.12 275.8 39.83 274 37.33C274.1 37.37 274.2 37.41 274.3 37.45C279.14 39.58 283.6 43.45 287.31 48.82C292.99 57.05 296.37 68.31 296.69 79.97H283.81V79.97ZM300.39 79.97C300.07 67.43 296.54 55.68 290.35 46.72C288.25 43.68 285.88 41.07 283.33 38.91C289.19 41.21 294.57 44.65 299.18 49.1C307.76 57.4 312.67 68.31 313.15 79.97H300.39V79.97ZM195.56 83.67H335.11V87.02H195.56V83.67V83.67ZM407.37 110.92L404.11 110.55V110.49L391.46 109.11L330.19 102.09V98.64L407.93 107.67L407.37 110.93V110.92ZM416.85 140.62H113.84V135.57H416.85V140.62ZM126.51 110.48V110.54L123.25 110.91L122.69 107.65L200.43 98.62V102.07L139.16 109.09L126.51 110.47V110.48ZM139.54 112.78L200.43 106.12V131.87H130.21V113.85L139.54 112.78V112.78ZM313.2 90.72V131.86H307.38V100.27C307.38 99.45 307.05 98.67 306.47 98.09C305.88 97.51 305.09 97.19 304.26 97.19C303.43 97.19 302.64 97.51 302.05 98.09C301.46 98.67 301.14 99.45 301.14 100.27V131.86H294.42V100.27C294.42 99.45 294.09 98.67 293.51 98.09C292.92 97.51 292.13 97.19 291.3 97.19C290.47 97.19 289.68 97.51 289.09 98.09C288.5 98.67 288.17 99.45 288.17 100.27V131.86H281.45V100.27C281.45 99.45 281.12 98.67 280.54 98.09C279.95 97.51 279.16 97.19 278.33 97.19C277.5 97.19 276.71 97.52 276.12 98.09C275.53 98.67 275.21 99.45 275.2 100.26V131.85H268.48V100.26C268.48 99.44 268.15 98.66 267.57 98.08C266.98 97.5 266.19 97.18 265.36 97.18C264.53 97.18 263.74 97.5 263.15 98.08C262.56 98.66 262.23 99.44 262.23 100.26V131.85H255.51V100.26C255.51 99.44 255.18 98.66 254.6 98.08C254.01 97.5 253.22 97.18 252.39 97.18C251.56 97.18 250.77 97.51 250.18 98.08C249.59 98.66 249.27 99.44 249.26 100.25V131.84H242.54V100.25C242.54 99.43 242.21 98.65 241.63 98.07C241.04 97.49 240.25 97.17 239.42 97.17C238.59 97.17 237.8 97.5 237.21 98.07C236.62 98.65 236.3 99.43 236.29 100.24V131.83H229.57V100.24C229.57 99.83 229.49 99.43 229.33 99.06C229.17 98.69 228.94 98.35 228.65 98.06C228.36 97.77 228.02 97.55 227.64 97.39C227.26 97.24 226.85 97.16 226.44 97.16C225.61 97.16 224.82 97.49 224.23 98.06C223.65 98.64 223.32 99.42 223.32 100.23V131.82H217.43V90.68H313.19L313.2 90.72ZM326.5 94.47V131.86H316.9V90.72H326.5V94.47V94.47ZM204.13 90.72H213.73V131.86H204.13V90.72V90.72ZM101.7 152.42V144.32H429V152.42H101.7ZM330.2 131.86V106.11L391.1 112.77L400.42 113.84V131.86H330.2ZM293.11 25.11H267.2V8.87H293.11V25.13V25.11Z" fill="#38237C"/>
    <path d="M367.56 117.01C367.27 116.72 366.92 116.5 366.54 116.34C366.16 116.19 365.75 116.11 365.33 116.11C364.49 116.11 363.69 116.44 363.1 117.01C362.84 117.26 362.65 117.55 362.5 117.86C362.3 118.27 362.18 118.72 362.18 119.18V123.42C362.18 125.16 363.59 126.58 365.33 126.58C367.07 126.58 368.49 125.17 368.49 123.42V119.19C368.49 118.96 368.46 118.74 368.41 118.52C368.37 118.35 368.32 118.17 368.25 118.01C368.09 117.64 367.86 117.3 367.57 117.01H367.56Z" fill="#38237C"/>
    <path d="M388.01 119.32C387.72 119.03 387.37 118.81 386.99 118.65C386.61 118.5 386.2 118.42 385.78 118.42C384.94 118.42 384.14 118.75 383.55 119.32C383.3 119.56 383.11 119.85 382.96 120.15C382.75 120.57 382.63 121.02 382.63 121.5V123.42C382.63 125.16 384.04 126.58 385.78 126.58C387.52 126.58 388.94 125.17 388.94 123.42V121.5C388.94 121.26 388.9 121.03 388.85 120.81C388.81 120.65 388.77 120.48 388.7 120.33C388.54 119.96 388.31 119.62 388.02 119.33L388.01 119.32Z" fill="#38237C"/>
    <path d="M347.11 114.14C346.82 113.85 346.47 113.63 346.09 113.47C345.71 113.32 345.3 113.24 344.88 113.24C344.04 113.24 343.24 113.57 342.65 114.14C342.25 114.53 341.98 115.02 341.84 115.55C341.77 115.8 341.73 116.05 341.73 116.32V123.42C341.73 125.16 343.14 126.58 344.88 126.58C346.62 126.58 348.04 125.17 348.04 123.42V116.33C348.04 116.33 348.04 116.28 348.04 116.25C348.04 115.87 347.96 115.5 347.81 115.15C347.65 114.78 347.42 114.44 347.13 114.15L347.11 114.14Z" fill="#38237C"/>
    <path d="M164.86 126.57C166.6 126.57 168.02 125.16 168.02 123.41V119.17C168.02 118.35 167.69 117.57 167.1 117C166.51 116.42 165.71 116.1 164.87 116.1C164.46 116.1 164.05 116.18 163.66 116.33C163.28 116.49 162.93 116.71 162.64 117C162.35 117.29 162.11 117.63 161.96 118C161.8 118.37 161.72 118.77 161.72 119.18V123.41C161.72 125.15 163.13 126.57 164.87 126.57H164.86Z" fill="#38237C"/>
    <path d="M144.41 126.57C146.15 126.57 147.57 125.16 147.57 123.41V121.49C147.57 120.67 147.24 119.89 146.65 119.32C146.06 118.74 145.26 118.42 144.42 118.42C144.01 118.42 143.6 118.5 143.21 118.65C142.83 118.81 142.48 119.03 142.19 119.32C141.9 119.61 141.66 119.95 141.51 120.32C141.35 120.69 141.27 121.09 141.27 121.5V123.42C141.27 125.16 142.68 126.58 144.42 126.58L144.41 126.57Z" fill="#38237C"/>
    <path d="M185.31 126.57C187.05 126.57 188.47 125.16 188.47 123.41V116.31C188.47 115.49 188.14 114.71 187.55 114.14C186.96 113.56 186.16 113.24 185.32 113.24C184.91 113.24 184.5 113.32 184.11 113.47C183.73 113.63 183.38 113.85 183.09 114.14C182.8 114.43 182.56 114.77 182.41 115.14C182.25 115.51 182.17 115.91 182.17 116.32V123.41C182.17 125.15 183.58 126.57 185.32 126.57H185.31Z" fill="#38237C"/>
    <path d="M280.41 19.9102L282.46 18.2302C282.55 18.1602 282.6 18.0502 282.6 17.9402V16.6002C282.6 16.4702 282.45 16.3902 282.34 16.4802L280.33 18.1302C280.23 18.2102 280.09 18.2102 279.99 18.1302L277.98 16.4802C277.88 16.4002 277.72 16.4702 277.72 16.6002V17.9402C277.72 18.0502 277.77 18.1602 277.86 18.2302L279.91 19.9102C280.05 20.0302 280.26 20.0302 280.41 19.9102V19.9102Z" fill="#38237C"/>
    <path d="M275.06 20.1099H276.47C276.63 20.1099 276.75 19.9799 276.75 19.8299V14.5799C276.75 14.4399 276.91 14.3699 277.02 14.4499L279.99 16.7099C280.09 16.7899 280.23 16.7899 280.34 16.7099L283.31 14.4499C283.42 14.3699 283.58 14.4499 283.58 14.5799V19.8299C283.58 19.9899 283.71 20.1099 283.86 20.1099H285.27C285.43 20.1099 285.55 19.9799 285.55 19.8299V11.1699C285.55 11.0299 285.44 10.9199 285.3 10.9199H284.9C284.83 10.9199 284.75 10.9399 284.69 10.9899L280.32 14.1399C280.23 14.1999 280.11 14.1999 280.02 14.1399L275.65 10.9899C275.59 10.9499 275.52 10.9199 275.44 10.9199H275.04C274.9 10.9199 274.79 11.0299 274.79 11.1699V19.8199C274.79 19.9799 274.92 20.0999 275.07 20.0999L275.06 20.1099Z" fill="#38237C"/>
    <path d="M285.33 21.1099H274.99C274.874 21.1099 274.78 21.2039 274.78 21.3199V22.8699C274.78 22.9858 274.874 23.0799 274.99 23.0799H285.33C285.446 23.0799 285.54 22.9858 285.54 22.8699V21.3199C285.54 21.2039 285.446 21.1099 285.33 21.1099Z" fill="#38237C"/>
    <path d="M497.83 81.6499L499.45 79.6699C497.79 79.8399 496.32 80.1699 495.11 80.5499C496.1 80.8899 497.02 81.2499 497.83 81.6499V81.6499Z" fill="#77A4F2"/>
    <path d="M516.56 82.73C513.64 82.95 511.46 85.68 511.69 88.85C511.92 92.02 514.47 94.42 517.39 94.21C520.96 93.95 526.13 90.63 528.4 87.64C525.72 85.01 520.13 82.46 516.56 82.72V82.73Z" fill="#FF8486"/>
    <path d="M495.11 80.5502C496.33 80.1702 497.8 79.8402 499.45 79.6702L499.53 79.5702C497.42 79.5002 495.07 79.6002 492.71 79.8402C493.55 80.0502 494.35 80.2902 495.1 80.5502H495.11Z" fill="white"/>
    <path d="M501.25 87.48C501.25 87.55 501.26 87.62 501.27 87.69L507.63 93.73C507.63 93.73 507.66 93.66 507.68 93.62C507.91 92.54 508.04 91.07 507.9 89.09C507.83 88.11 507.72 87.27 507.58 86.54L501.25 87.48Z" fill="#77A4F2"/>
    <path d="M505.19 82.1401H505.18C504.83 82.2001 502.84 83.0901 500.63 84.4201C500.74 84.8101 500.87 85.3001 500.98 85.8801L506.63 83.6601C506.02 82.4901 505.38 82.1401 505.18 82.1401H505.19Z" fill="#77A4F2"/>
    <path d="M506.64 83.6602L500.99 85.8801C501.09 86.3601 501.18 86.8902 501.25 87.4902L507.58 86.5502C507.33 85.2602 506.99 84.3302 506.64 83.6602V83.6602Z" fill="white"/>
    <path d="M473.3 92.74C473.12 92.57 473 92.36 472.95 92.14C472.91 91.91 472.95 91.67 473.05 91.46C473.16 91.25 473.34 91.08 473.56 90.97C473.78 90.86 474.02 90.81 474.27 90.81C487.06 91.32 495.89 88.67 498.68 87.69C498.59 86.95 498.45 86.22 498.26 85.49C496.84 84.85 495.3 84.34 493.41 83.98C493.51 84.58 493.58 85.19 493.59 85.81C493.63 87.12 492.25 87.84 488.48 88.46C485.9 88.87 483.27 89.12 480.65 89.22C480 89.24 479.36 89.25 478.71 89.25C476.78 89.25 474.85 89.17 472.93 89C469.03 88.64 467.57 88 467.52 86.65C467.52 86.49 467.52 86.34 467.52 86.18C464.21 87.66 462.11 89.54 460.58 91.24C460.61 91.28 460.64 91.31 460.67 91.34C462.93 92.01 467.91 93.11 474.33 93.62C473.97 93.34 473.62 93.04 473.28 92.73L473.3 92.74Z" fill="#86D4C9"/>
    <path d="M476.57 98.7201C479.18 98.9001 481.75 98.7701 484.2 98.4401C480.74 97.4501 477.27 95.9401 474.35 93.6301C467.93 93.1201 462.95 92.0101 460.69 91.3501C465.09 96.8401 471.73 98.4001 476.56 98.7201H476.57Z" fill="#73BBBF"/>
    <path d="M467.55 86.1804C467.55 85.5704 467.58 84.9604 467.66 84.3604C464.95 85.8704 462.38 88.0403 460.56 91.1703C460.58 91.1903 460.6 91.2104 460.61 91.2304C462.14 89.5304 464.23 87.6503 467.55 86.1703V86.1804Z" fill="white"/>
    <path d="M497.95 84.4002C496.58 83.5002 494.89 82.7902 493.02 82.2402C493.2 82.8102 493.33 83.3802 493.43 83.9702C495.31 84.3302 496.85 84.8402 498.28 85.4802C498.18 85.1202 498.08 84.7602 497.96 84.4002H497.95Z" fill="white"/>
    <path d="M507.55 97.01L499.88 89.73C497.92 90.45 492.22 92.28 483.67 92.92C486.02 94.32 493.43 97.8 507.55 97.01Z" fill="#77A4F2"/>
    <path d="M507.57 97.0299L507.55 97.0099C493.43 97.7999 486.03 94.3099 483.67 92.9199C481.84 93.0599 479.89 93.1399 477.8 93.1499C486.81 98.8099 501.21 98.5199 507.56 97.0299H507.57Z" fill="white"/>
    <path d="M510.81 96.76L509.73 95.74C510.41 94.02 510.66 91.74 510.47 88.93C509.95 81.29 506.81 79.45 505 79.58C504.26 79.63 502.65 80.37 501.04 81.24L502.69 79.22C502.79 79.09 502.85 78.94 502.86 78.8C502.86 78.65 502.81 78.5 502.71 78.37C502.62 78.26 502.49 78.16 502.33 78.09C502.18 78.03 502.02 77.98 501.83 77.97C498.59 77.68 494.75 77.82 490.91 78.32C490.5 77.79 490.05 77.28 489.55 76.82C488.29 75.65 486.83 74.76 485.21 74.16C483.59 73.56 481.88 73.28 480.15 73.34C478.41 73.4 476.73 73.78 475.15 74.49C473.57 75.2 472.17 76.19 470.99 77.43C469.88 78.6 469.04 79.94 468.44 81.42C464.7 83.06 460.98 85.7 458.44 89.92L454.54 90.18C454.36 89.58 454.03 89.05 453.55 88.63C452.88 88.05 452.03 87.77 451.15 87.82C449.33 87.94 447.95 89.52 448.07 91.34C448.13 92.22 448.53 93.03 449.19 93.61C449.8 94.14 450.56 94.43 451.36 94.43C451.44 94.43 451.51 94.43 451.59 94.43C452.47 94.37 453.28 93.97 453.86 93.31C454 93.15 454.12 92.98 454.23 92.79L458.45 92.5C463.39 98.81 470.84 100.6 476.32 100.98C477.17 101.04 478.02 101.06 478.88 101.06C479.74 101.06 480.61 101.03 481.47 100.97C484.22 100.79 487 100.31 489.6 99.62C491.09 99.85 492.52 100 493.83 100.1C495.21 100.2 496.61 100.25 498.01 100.25C498.34 100.25 498.68 100.25 499.01 100.25C503.66 100.17 508.02 99.54 510.38 98.61C510.56 98.54 510.72 98.43 510.85 98.29C510.98 98.15 511.07 97.98 511.11 97.8C511.15 97.62 511.15 97.43 511.09 97.25C511.03 97.08 510.93 96.91 510.79 96.78L510.81 96.76ZM460.61 91.24C460.61 91.24 460.57 91.2 460.56 91.18C462.38 88.05 464.95 85.88 467.66 84.37C467.58 84.97 467.54 85.58 467.55 86.19C467.55 86.35 467.55 86.5 467.55 86.66C467.59 88.01 469.06 88.64 472.96 89.01C474.88 89.17 476.81 89.26 478.74 89.26C479.39 89.26 480.04 89.26 480.68 89.23C483.3 89.14 485.93 88.88 488.51 88.47C492.28 87.84 493.66 87.12 493.62 85.82C493.61 85.2 493.54 84.59 493.44 83.99C493.34 83.41 493.21 82.83 493.03 82.26C494.9 82.8 496.59 83.52 497.96 84.42C498.08 84.78 498.19 85.14 498.28 85.5C498.47 86.22 498.61 86.96 498.7 87.7C495.91 88.68 487.08 91.33 474.29 90.82C474.04 90.82 473.79 90.87 473.58 90.98C473.36 91.1 473.18 91.27 473.07 91.47C472.96 91.68 472.92 91.92 472.97 92.15C473.01 92.38 473.13 92.59 473.32 92.75C473.66 93.06 474.01 93.35 474.37 93.64C477.29 95.95 480.76 97.46 484.22 98.45C481.77 98.79 479.2 98.91 476.59 98.73C471.75 98.4 465.12 96.85 460.72 91.36C460.69 91.32 460.66 91.29 460.63 91.26L460.61 91.24ZM499.54 79.57L499.46 79.67L497.84 81.65C497.02 81.25 496.11 80.89 495.12 80.55C494.36 80.29 493.57 80.06 492.73 79.84C495.09 79.59 497.44 79.49 499.55 79.57H499.54ZM507.68 93.63C507.68 93.63 507.65 93.7 507.63 93.74L501.27 87.7C501.27 87.63 501.26 87.56 501.25 87.49C501.18 86.9 501.09 86.37 500.99 85.88C500.87 85.3 500.75 84.82 500.64 84.42C502.85 83.09 504.84 82.19 505.19 82.14H505.2C505.4 82.14 506.04 82.49 506.65 83.66C507 84.32 507.34 85.26 507.59 86.55C507.73 87.28 507.85 88.12 507.91 89.1C508.04 91.09 507.91 92.55 507.69 93.63H507.68ZM482.56 76.59C476.88 76.78 472.39 81.21 472.56 86.49C472.56 86.57 472.58 86.64 472.63 86.72C471.3 86.58 470.29 86.4 469.82 86.2C469.84 83.51 470.9 80.96 472.82 79.02C474.77 77.03 477.4 75.89 480.22 75.79C482.01 75.73 483.75 76.1 485.32 76.85C484.43 76.65 483.51 76.55 482.55 76.58L482.56 76.59ZM477.81 93.15C479.89 93.15 481.85 93.06 483.68 92.92C492.23 92.28 497.92 90.45 499.89 89.73L507.56 97.01L507.58 97.03C501.23 98.52 486.83 98.81 477.82 93.15H477.81Z" fill="#38237C"/>
    <path d="M472.83 79.0202C470.91 80.9702 469.85 83.5102 469.83 86.2002C470.3 86.3902 471.3 86.5702 472.64 86.7202C472.6 86.6402 472.58 86.5602 472.57 86.4902C472.4 81.2202 476.88 76.7802 482.57 76.5902C483.52 76.5602 484.45 76.6602 485.34 76.8602C483.77 76.1102 482.03 75.7302 480.24 75.8002C477.42 75.8902 474.79 77.0402 472.84 79.0302L472.83 79.0202Z" fill="#77A4F2"/>
    <path d="M478.92 120.66V120.68C481.32 122.4 483.26 124.28 484.58 126.11L489.25 121.66C489.19 121.63 489.13 121.6 489.07 121.58C484.52 120.28 480.99 120.38 478.92 120.66V120.66Z" fill="#77A4F2"/>
    <path d="M501.09 133.33C498.29 132.49 495.27 134.26 494.35 137.3C493.43 140.34 494.95 143.5 497.75 144.35C501.17 145.39 507.19 144.14 510.38 142.17C508.82 138.76 504.51 134.37 501.09 133.33V133.33Z" fill="#FF8486"/>
    <path d="M478.92 120.66C480.99 120.37 484.52 120.28 489.07 121.58C485.99 120.02 482.12 118.93 478.29 118.53C478.56 119.23 478.77 119.94 478.92 120.66Z" fill="white"/>
    <path d="M484.5 134.24C484.31 134.82 484.09 135.39 483.87 135.96L484.66 137.73C485.72 139.25 487.42 140.48 488.45 140.49C488.65 140.49 488.79 140.41 488.9 140.31C489.48 139.42 490.12 138.11 490.72 136.17C491.01 135.23 491.2 134.41 491.33 133.68L485.03 132.27C484.89 132.88 484.71 133.54 484.5 134.25V134.24Z" fill="#77A4F2"/>
    <path d="M490.68 128.7C490.33 128.63 488.12 128.76 485.56 129.21C485.52 129.61 485.45 130.11 485.36 130.69L491.51 130.64C491.35 129.3 490.87 128.75 490.69 128.7H490.68Z" fill="#77A4F2"/>
    <path d="M485.04 132.26L491.34 133.67C491.57 132.38 491.59 131.38 491.5 130.64L485.35 130.69C485.27 131.16 485.17 131.69 485.03 132.27L485.04 132.26Z" fill="white"/>
    <path d="M493.83 129.12C493.23 127.01 491.96 126.41 491.44 126.25C490.86 126.07 489.59 126.12 488.16 126.26L492.27 122.33C492.41 122.2 492.52 122.03 492.59 121.85C492.66 121.67 492.68 121.47 492.67 121.28C492.65 121.09 492.59 120.9 492.49 120.73C492.39 120.56 492.25 120.42 492.08 120.32C488.07 117.8 482.44 116.16 476.92 115.85C475.2 113.27 472.67 111.38 469.62 110.43C467.91 109.91 466.14 109.74 464.37 109.91C462.59 110.08 460.89 110.6 459.32 111.44C457.87 112.21 456.6 113.24 455.52 114.47C451.44 115.13 447.08 116.91 443.17 120.81L439.98 119.82C440.1 118.31 439.17 116.87 437.66 116.4C435.92 115.86 434.06 116.84 433.53 118.58C432.99 120.32 433.97 122.18 435.71 122.71C436.03 122.81 436.36 122.86 436.68 122.86C437.44 122.86 438.16 122.59 438.75 122.12L443.12 123.47C445.25 131.86 451.26 136.43 456.08 138.8C457.62 139.56 459.23 140.2 460.88 140.7C461.4 140.86 461.93 140.98 462.46 141.12C465.67 143.74 469.21 145.62 472.24 146.91C473.83 147.58 475.47 148.18 477.11 148.69C480.88 149.85 484.59 150.52 487.21 150.52C487.68 150.52 488.12 150.5 488.51 150.45C488.71 150.43 488.91 150.36 489.07 150.25C489.24 150.14 489.38 149.99 489.48 149.81C489.58 149.64 489.64 149.44 489.65 149.24C489.66 149.04 489.62 148.83 489.54 148.65L487.76 144.65C488.24 144.48 488.77 144.2 489.33 143.73C490.91 142.42 492.22 140.13 493.21 136.92C494.2 133.71 494.42 131.08 493.85 129.11L493.83 129.12ZM491.34 133.67C491.21 134.4 491.02 135.23 490.73 136.16C490.13 138.1 489.49 139.41 488.91 140.3C488.8 140.41 488.66 140.48 488.46 140.48C487.43 140.48 485.73 139.24 484.67 137.72L483.88 135.95C484.1 135.38 484.32 134.81 484.51 134.23C484.73 133.53 484.9 132.87 485.04 132.25C485.17 131.68 485.28 131.15 485.36 130.67C485.46 130.09 485.52 129.59 485.56 129.19C488.13 128.73 490.34 128.61 490.68 128.68C490.86 128.73 491.34 129.29 491.5 130.62C491.59 131.37 491.57 132.36 491.34 133.65V133.67ZM485.18 147.84C478.24 147.11 465.53 142.86 459.41 134.2C461.15 134.77 462.81 135.24 464.41 135.63C473.12 137.79 479.49 137.56 481.7 137.37L486.39 147.93C486.01 147.91 485.6 147.88 485.18 147.83V147.84ZM445.49 122.39C445.47 122.32 445.45 122.25 445.43 122.17C447.99 119.76 450.76 118.34 453.47 117.55C453.18 118.16 452.92 118.78 452.73 119.43C451.47 123.6 457.32 127.44 463.68 129.4L463.83 129.45C466.65 130.31 469.39 130.76 471.72 130.76C472.19 130.76 472.64 130.74 473.08 130.7C476.11 130.44 478.03 129.26 478.62 127.3C478.69 127.06 478.74 126.82 478.8 126.58C479 125.75 479.13 124.9 479.17 124.06C480.76 125.39 482.11 126.86 483.05 128.43C483 129.07 482.91 129.72 482.8 130.35C482.62 131.41 482.38 132.46 482.06 133.48C482.02 133.59 481.97 133.69 481.94 133.8C481.82 134.14 481.69 134.47 481.56 134.81C478.88 135.03 469.43 135.37 456.99 130.62C456.75 130.53 456.49 130.51 456.24 130.57C455.99 130.63 455.76 130.76 455.59 130.95C455.42 131.14 455.3 131.37 455.26 131.63C455.22 131.88 455.26 132.14 455.37 132.38C456.18 134.09 457.19 135.63 458.33 137.03C457.96 136.87 457.59 136.7 457.22 136.52C452.88 134.38 447.38 130.23 445.54 122.56C445.53 122.51 445.51 122.46 445.5 122.4L445.49 122.39ZM460.52 113.7C462.13 112.84 463.89 112.4 465.67 112.4C466.74 112.4 467.81 112.56 468.86 112.88H468.91C471.11 113.58 473 114.91 474.37 116.71C473.21 115.63 471.82 114.81 470.27 114.34C467.59 113.53 464.75 113.81 462.26 115.13C459.78 116.45 457.93 118.67 457.07 121.37C456.85 122.11 456.97 122.85 457.35 123.56C455.75 122.36 454.9 121.14 455.2 120.18C456.05 117.38 457.94 115.08 460.52 113.71V113.7ZM489.25 121.66L484.58 126.11C483.26 124.28 481.32 122.4 478.93 120.68V120.66C478.78 119.94 478.56 119.22 478.29 118.53C482.12 118.93 485.99 120.02 489.07 121.58C489.13 121.61 489.19 121.63 489.25 121.66V121.66Z" fill="#38237C"/>
    <path d="M481.93 133.8C481.97 133.69 482.02 133.59 482.05 133.48C482.37 132.46 482.62 131.41 482.79 130.35C481.68 129.1 480.44 127.84 478.79 126.58C478.73 126.82 478.68 127.06 478.61 127.3C478.01 129.26 476.1 130.44 473.07 130.7C472.64 130.74 472.18 130.76 471.71 130.76C469.39 130.76 466.64 130.31 463.82 129.45L463.67 129.4C457.31 127.44 451.46 123.6 452.72 119.44C449.66 120.09 447.32 121.32 445.48 122.39C445.49 122.44 445.51 122.49 445.52 122.55C449.15 125.82 463.81 134 481.92 133.8H481.93Z" fill="#86D4C9"/>
    <path d="M457.2 136.51C457.57 136.69 457.94 136.85 458.31 137.02C457.17 135.62 456.16 134.08 455.35 132.37C455.24 132.14 455.2 131.88 455.24 131.62C455.28 131.37 455.39 131.13 455.57 130.94C455.74 130.75 455.97 130.62 456.22 130.56C456.47 130.5 456.73 130.52 456.97 130.61C469.41 135.36 478.86 135.03 481.54 134.8C481.67 134.46 481.81 134.13 481.92 133.79C463.81 133.99 449.15 125.82 445.52 122.54C447.36 130.21 452.85 134.36 457.2 136.5V136.51Z" fill="#73BBBF"/>
    <path d="M452.73 119.44C452.93 118.79 453.18 118.17 453.47 117.56C450.75 118.35 447.98 119.77 445.43 122.18C445.45 122.25 445.47 122.32 445.49 122.4C447.33 121.33 449.68 120.1 452.73 119.45V119.44Z" fill="white"/>
    <path d="M482.79 130.35C482.9 129.71 482.99 129.07 483.04 128.43C482.11 126.86 480.76 125.4 479.16 124.06C479.12 124.9 478.99 125.74 478.79 126.58C480.44 127.84 481.68 129.1 482.79 130.35Z" fill="white"/>
    <path d="M481.69 137.38C479.48 137.56 473.11 137.8 464.4 135.64C465.45 137.08 470.75 143.45 485.17 147.84C485.59 147.88 486 147.92 486.38 147.94L481.69 137.38V137.38Z" fill="#77A4F2"/>
    <path d="M464.4 135.64C462.81 135.25 461.14 134.78 459.4 134.21C465.52 142.86 478.23 147.11 485.17 147.85C470.75 143.46 465.44 137.09 464.4 135.65V135.64Z" fill="white"/>
    <path d="M455.19 120.18C454.89 121.14 455.74 122.36 457.34 123.56C456.96 122.85 456.83 122.11 457.06 121.38C457.92 118.68 459.76 116.46 462.25 115.14C464.74 113.82 467.58 113.54 470.26 114.35C471.82 114.82 473.2 115.64 474.36 116.72C472.99 114.92 471.11 113.59 468.9 112.9H468.85C467.8 112.57 466.73 112.41 465.66 112.41C463.88 112.41 462.12 112.85 460.51 113.71C457.93 115.09 456.04 117.39 455.19 120.18Z" fill="#77A4F2"/>
    <path d="M465.77 48.8103L466.95 46.7603C465.47 47.1603 464.18 47.6903 463.13 48.2203C464.08 48.3803 464.97 48.5703 465.78 48.8103H465.77Z" fill="#77A4F2"/>
    <path d="M485.73 57.4102C488.98 56.6302 493.24 52.7702 494.88 49.6702C492.01 47.6602 486.46 46.1702 483.21 46.9502C480.55 47.6002 478.96 50.4502 479.66 53.3402C480.36 56.2302 483.08 58.0502 485.74 57.4102H485.73Z" fill="#FF8486"/>
    <path d="M463.12 48.2199C464.18 47.6899 465.46 47.1699 466.94 46.7599L466.99 46.6699C465.06 46.9199 462.96 47.3599 460.86 47.9399C461.64 48.0099 462.4 48.0999 463.12 48.2199Z" fill="white"/>
    <path d="M431.11 64.8704C435.6 68.9904 441.18 70.1004 445.85 70.1004C446.92 70.1004 447.94 70.0404 448.9 69.9504C450.49 69.7904 452.09 69.5304 453.65 69.1604C456.16 68.5704 458.66 67.7004 460.96 66.6604C462.36 66.6404 463.7 66.5704 464.92 66.4604C466.52 66.3104 468.14 66.0804 469.72 65.7904C474 65.0004 477.92 63.7604 479.96 62.5404C480.12 62.4404 480.25 62.3204 480.35 62.1704C480.45 62.0204 480.51 61.8504 480.52 61.6704C480.53 61.4904 480.5 61.3204 480.42 61.1604C480.34 61.0104 480.22 60.8704 480.07 60.7704L478.93 60.0004C479.29 58.3104 479.17 56.1704 478.57 53.6104C477.85 50.5504 476.77 48.3304 475.38 47.0004C473.89 45.5804 472.57 45.6904 472.08 45.8104C471.41 45.9704 470.07 46.8804 468.74 47.9004L469.91 45.8504C469.99 45.7104 470.02 45.5604 470 45.4204C469.98 45.2704 469.91 45.1404 469.79 45.0304C469.69 44.9404 469.55 44.8704 469.39 44.8304C469.24 44.7904 469.08 44.7804 468.91 44.7904C465.88 45.0204 462.36 45.7304 458.9 46.7904C458.44 46.3704 457.95 45.9704 457.42 45.6204C456.08 44.7404 454.59 44.1304 453 43.8304C451.41 43.5204 449.8 43.5304 448.2 43.8504C446.61 44.1704 445.11 44.7804 443.76 45.6804C442.41 46.5704 441.27 47.7004 440.37 49.0304C439.53 50.2804 438.95 51.6404 438.63 53.0904C435.44 55.1804 432.41 58.1804 430.71 62.4604L427.17 63.3004C426.55 62.0304 425.11 61.3104 423.67 61.6504C422.86 61.8404 422.18 62.3304 421.74 63.0404C421.3 63.7504 421.17 64.5804 421.36 65.3904C421.7 66.8204 422.98 67.7804 424.38 67.7804C424.62 67.7804 424.86 67.7504 425.1 67.7004C426.14 67.4504 426.93 66.7104 427.29 65.7804L431.11 64.8804V64.8704ZM432.88 63.3204C434.07 60.1704 436.09 57.7904 438.35 55.9904C438.37 56.5504 438.43 57.1104 438.53 57.6604C438.56 57.8004 438.57 57.9504 438.6 58.0904C438.82 59.1804 440.03 59.5204 441.98 59.5204C442.58 59.5204 443.24 59.4904 443.96 59.4404C446.36 59.2504 448.76 58.9204 451.12 58.4604C453.51 57.9704 455.9 57.3404 458.22 56.5604C461.09 55.5804 462.81 54.6904 462.53 53.3104C462.43 52.7404 462.27 52.1904 462.08 51.6504C461.91 51.1504 461.71 50.6504 461.46 50.1804C463.37 50.4104 465.03 50.8204 466.28 51.3704C466.44 51.6804 466.59 51.9904 466.73 52.3004C467.02 52.9404 467.26 53.5904 467.45 54.2604C465.01 55.5904 457.25 59.3804 445.43 60.8704C445.19 60.9004 444.97 60.9904 444.79 61.1304C444.6 61.2704 444.46 61.4604 444.39 61.6704C444.32 61.8904 444.32 62.1204 444.39 62.3304C444.47 62.5404 444.61 62.7204 444.81 62.8404C445.18 63.0704 445.56 63.2704 445.94 63.4804C448.97 65.1504 452.36 66.0204 455.68 66.4004C453.49 67.0704 451.16 67.5804 448.75 67.8104C444.25 68.2504 437.91 67.8304 433.01 63.4604C432.97 63.4304 432.93 63.4004 432.89 63.3604C432.87 63.3504 432.86 63.3304 432.84 63.3204H432.88ZM466.94 46.7604L465.76 48.8104C464.95 48.5704 464.06 48.3804 463.11 48.2204C462.39 48.1004 461.64 48.0104 460.85 47.9404C462.95 47.3604 465.06 46.9204 466.98 46.6704L466.93 46.7604H466.94ZM477.07 61.5104C471.44 63.8504 458.28 66.3004 449.12 62.5004C451.03 62.1804 452.81 61.8004 454.46 61.3904C462.22 59.4904 467.18 56.9404 468.89 55.9704L477.04 61.4904L477.06 61.5104H477.07ZM476.67 58.3604C476.67 58.3604 476.66 58.4104 476.65 58.4404L469.88 53.8604C469.86 53.8004 469.85 53.7304 469.83 53.6704C469.67 53.1304 469.51 52.6604 469.35 52.2304C469.16 51.7204 468.97 51.3004 468.81 50.9504C470.64 49.3904 472.33 48.2604 472.64 48.1604C472.73 48.1304 473.28 48.2204 474 49.0604C474.07 49.1404 474.14 49.2304 474.21 49.3304C474.6 49.8504 475.06 50.6504 475.51 51.8504C475.75 52.5004 475.98 53.2504 476.2 54.1504C476.63 55.9604 476.74 57.3304 476.69 58.3604H476.67ZM450.91 46.4804C448.38 46.9804 446.19 48.3704 444.73 50.3804C443.27 52.4004 442.72 54.8004 443.19 57.1504C443.2 57.2204 443.24 57.2804 443.29 57.3404C442.06 57.4104 441.11 57.4004 440.65 57.3004C440.26 54.8204 440.85 52.3204 442.31 50.2404C443.8 48.1104 446.05 46.6604 448.63 46.1404C450.22 45.8204 451.84 45.8804 453.36 46.3004C452.55 46.2704 451.73 46.3204 450.9 46.4804H450.91Z" fill="#38237C"/>
    <path d="M473.99 49.0603C473.27 48.2303 472.73 48.1303 472.63 48.1603C472.32 48.2703 470.63 49.3903 468.8 50.9503C468.97 51.2903 469.15 51.7203 469.34 52.2303L474.19 49.3303C474.12 49.2303 474.05 49.1403 473.98 49.0603H473.99Z" fill="#77A4F2"/>
    <path d="M475.5 51.8501L469.83 53.6801C469.85 53.7401 469.86 53.8001 469.88 53.8701L476.65 58.4501C476.65 58.4501 476.67 58.4001 476.67 58.3701C476.72 57.3401 476.61 55.9701 476.18 54.1601C475.97 53.2601 475.73 52.5101 475.49 51.8601L475.5 51.8501Z" fill="#77A4F2"/>
    <path d="M474.2 49.3303L469.35 52.2303C469.51 52.6603 469.68 53.1403 469.83 53.6703L475.5 51.8403C475.06 50.6403 474.59 49.8403 474.2 49.3203V49.3303Z" fill="white"/>
    <path d="M445.97 63.4701C445.59 63.2601 445.21 63.0601 444.84 62.8301C444.64 62.7001 444.5 62.5301 444.42 62.3201C444.34 62.1101 444.34 61.8801 444.42 61.6601C444.49 61.4501 444.63 61.2601 444.82 61.1201C445 60.9801 445.23 60.8901 445.46 60.8601C457.28 59.3701 465.04 55.5801 467.48 54.2501C467.28 53.5801 467.05 52.9301 466.76 52.2901C465.36 51.9201 463.87 51.6901 462.1 51.6401C462.29 52.1801 462.44 52.7301 462.55 53.3001C462.83 54.6801 461.1 55.5701 458.24 56.5501C455.92 57.3201 453.53 57.9601 451.14 58.4501C448.79 58.9101 446.38 59.2401 443.98 59.4301C443.25 59.4801 442.59 59.5101 442 59.5101C440.05 59.5101 438.84 59.1701 438.62 58.0801C438.59 57.9401 438.58 57.8001 438.55 57.6501C435.74 59.5101 434.1 61.5601 432.95 63.3501C432.99 63.3801 433.03 63.4101 433.07 63.4501C435.27 63.7201 440.02 63.9701 445.99 63.4501L445.97 63.4701Z" fill="#86D4C9"/>
    <path d="M433.04 63.46C437.93 67.83 444.28 68.25 448.78 67.81C451.19 67.58 453.52 67.07 455.71 66.4C452.39 66.01 448.99 65.14 445.97 63.48C439.99 63.99 435.24 63.74 433.05 63.48L433.04 63.46Z" fill="#73BBBF"/>
    <path d="M466.29 51.3599C465.03 50.8099 463.37 50.3999 461.47 50.1699C461.71 50.6499 461.91 51.1399 462.09 51.6399C463.87 51.6799 465.35 51.9199 466.75 52.2899C466.61 51.9799 466.46 51.6699 466.3 51.3599H466.29Z" fill="white"/>
    <path d="M438.53 57.6602C438.43 57.1102 438.37 56.5502 438.35 55.9902C436.09 57.7902 434.07 60.1802 432.88 63.3202C432.9 63.3302 432.91 63.3502 432.93 63.3602C434.08 61.5702 435.72 59.5202 438.53 57.6602V57.6602Z" fill="white"/>
    <path d="M468.9 55.98C467.19 56.95 462.23 59.5 454.47 61.4C456.87 62.33 464.22 64.36 477.05 61.5L468.9 55.98V55.98Z" fill="#77A4F2"/>
    <path d="M454.47 61.4004C452.81 61.8104 451.04 62.1804 449.13 62.5104C458.29 66.3104 471.45 63.8504 477.08 61.5204L477.06 61.5004C464.23 64.3604 456.88 62.3304 454.48 61.4004H454.47Z" fill="white"/>
    <path d="M448.65 46.1401C446.07 46.6601 443.82 48.1201 442.33 50.2401C440.87 52.3201 440.28 54.8201 440.67 57.3001C441.13 57.4001 442.08 57.4201 443.31 57.3401C443.26 57.2801 443.22 57.2201 443.21 57.1501C442.74 54.8001 443.29 52.3901 444.75 50.3801C446.21 48.3701 448.4 46.9801 450.93 46.4801C451.76 46.3101 452.58 46.2601 453.39 46.3001C451.87 45.8801 450.26 45.8201 448.66 46.1401H448.65Z" fill="#77A4F2"/>
    <path d="M413.09 33.1902L413.83 31.4502C412.7 31.9102 411.72 32.4502 410.93 32.9702C411.7 33.0102 412.42 33.0802 413.09 33.1902Z" fill="#77A4F2"/>
    <path d="M430.46 38.3501C433.07 37.3801 436.2 33.7701 437.25 31.0401C434.68 29.6601 429.94 28.9801 427.34 29.9501C425.21 30.7501 424.18 33.2702 425.04 35.5802C425.9 37.9002 428.33 39.1301 430.47 38.3401L430.46 38.3501Z" fill="#FF8486"/>
    <path d="M410.92 32.9702C411.72 32.4502 412.69 31.9102 413.82 31.4502L413.84 31.4102C412.36 31.7902 410.78 32.3302 409.2 32.9602C409.79 32.9402 410.37 32.9502 410.92 32.9702Z" fill="white"/>
    <path d="M418.73 32.0501C418.5 32.1601 417.22 33.2601 415.89 34.7001C416.06 34.9601 416.24 35.2801 416.45 35.6701L420.1 32.8401C419.41 32.1201 418.87 32.0101 418.73 32.0501V32.0501Z" fill="#77A4F2"/>
    <path d="M421.42 34.79L417 36.83C417 36.83 417.04 36.92 417.05 36.97L423.04 40.05C422.98 39.2 422.75 38.08 422.22 36.63C421.96 35.91 421.69 35.31 421.43 34.8L421.42 34.79Z" fill="#77A4F2"/>
    <path d="M420.1 32.8501L416.45 35.6801C416.63 36.0201 416.81 36.4001 417 36.8301L421.42 34.7901C420.95 33.8801 420.5 33.2601 420.1 32.8501V32.8501Z" fill="white"/>
    <path d="M397.2 46.9302C397.02 46.8402 396.87 46.7002 396.78 46.5302C396.69 46.3502 396.66 46.1602 396.7 45.9602C396.74 45.7702 396.84 45.5902 396.99 45.4502C397.13 45.3102 397.31 45.2102 397.51 45.1602C407.15 42.7502 413.06 38.9302 414.98 37.5502C414.75 37.0102 414.48 36.4902 414.17 35.9902C413.01 35.8402 411.8 35.7902 410.39 35.9302C410.6 36.3602 410.78 36.7902 410.92 37.2502C411.3 38.3902 409.95 39.3102 407.66 40.4102C405.82 41.2802 403.91 42.0502 401.97 42.6902C400.07 43.3102 398.11 43.8202 396.15 44.2202C395.08 44.4302 394.17 44.5602 393.44 44.5602C392.42 44.5602 391.76 44.3002 391.53 43.6102C391.49 43.5002 391.47 43.3902 391.43 43.2802C389.33 45.0802 388.19 46.9002 387.43 48.4802C387.48 48.5202 387.54 48.5502 387.59 48.5902C389.45 48.5902 393.32 48.3202 398.09 47.3302C397.78 47.2002 397.48 47.0802 397.18 46.9302H397.2Z" fill="#86D4C9"/>
    <path d="M400.96 50.5701C402.85 50.1501 404.65 49.5401 406.34 48.8101C403.59 48.8101 400.74 48.4101 398.12 47.3301C393.34 48.3201 389.47 48.5801 387.62 48.5901C392.08 51.6701 397.32 51.3801 400.97 50.5701H400.96Z" fill="#73BBBF"/>
    <path d="M391.45 43.2802C391.32 42.8502 391.22 42.4102 391.15 41.9702C389.5 43.6602 388.1 45.8002 387.44 48.4702H387.45C388.21 46.9002 389.36 45.0702 391.45 43.2802Z" fill="white"/>
    <path d="M414.18 35.9903C414.04 35.7703 413.92 35.5303 413.77 35.3203C412.7 35.0003 411.32 34.8303 409.77 34.8203C410 35.1803 410.21 35.5503 410.39 35.9303C411.81 35.8003 413.02 35.8403 414.17 35.9903H414.18Z" fill="white"/>
    <path d="M423.57 42.6301C423.57 42.6301 423.61 42.6101 423.63 42.6001L416.42 38.8901C415.09 39.8701 411.27 42.4401 405.11 44.7701C407.24 45.3001 413.44 46.1801 423.57 42.6301Z" fill="#77A4F2"/>
    <path d="M423.57 42.6304C413.44 46.1804 407.24 45.3004 405.11 44.7704C403.8 45.2604 402.4 45.7504 400.89 46.2004C408.73 48.3204 419.12 45.1004 423.57 42.6304V42.6304Z" fill="white"/>
    <path d="M426.53 42.82C426.6 42.68 426.63 42.52 426.63 42.37C426.63 42.22 426.57 42.07 426.49 41.94C426.41 41.81 426.29 41.71 426.14 41.64L425.14 41.13C425.25 39.84 425.03 38.14 424.21 35.9C423.31 33.44 422.19 31.7 420.9 30.74C419.51 29.7 418.42 29.93 418.01 30.08C417.47 30.28 416.51 31.12 415.59 32.01L416.28 30.39C416.34 30.26 416.35 30.12 416.31 30C416.28 29.87 416.2 29.76 416.08 29.68C415.98 29.61 415.85 29.57 415.71 29.55C415.58 29.53 415.44 29.54 415.3 29.57C412.82 30.06 409.99 31 407.24 32.21C406.82 31.91 406.38 31.64 405.92 31.4C404.72 30.8 403.43 30.45 402.07 30.35C400.72 30.26 399.38 30.42 398.09 30.85C396.8 31.27 395.62 31.93 394.59 32.81C393.56 33.69 392.73 34.74 392.11 35.93C391.54 37.04 391.2 38.23 391.07 39.46C388.64 41.5 386.45 44.28 385.46 47.98L382.67 49C382.01 48.02 380.75 47.57 379.59 47.99C378.23 48.49 377.53 50 378.03 51.36C378.27 52.02 378.76 52.54 379.39 52.84C379.74 53 380.12 53.08 380.49 53.08C380.8 53.08 381.1 53.03 381.4 52.92C382.24 52.61 382.82 51.92 383.03 51.11L386.07 49.99C389.26 52.26 392.79 53.01 396.01 53.01C397.92 53.01 399.72 52.75 401.27 52.41C402.57 52.12 403.86 51.74 405.12 51.28C407.13 50.54 409.11 49.58 410.91 48.49C412.06 48.34 413.16 48.14 414.16 47.93C415.47 47.65 416.78 47.3 418.06 46.9C421.52 45.82 424.64 44.4 426.21 43.19C426.34 43.09 426.44 42.97 426.51 42.83L426.53 42.82ZM387.45 48.48H387.44C388.11 45.8 389.5 43.66 391.15 41.97C391.22 42.41 391.32 42.85 391.45 43.28C391.48 43.39 391.51 43.5 391.55 43.61C391.78 44.3 392.44 44.56 393.46 44.56C394.19 44.56 395.1 44.43 396.17 44.22C398.13 43.82 400.09 43.31 401.99 42.7C403.92 42.06 405.83 41.29 407.68 40.42C409.97 39.31 411.32 38.4 410.94 37.26C410.8 36.8 410.61 36.37 410.41 35.94C410.23 35.56 410.02 35.19 409.79 34.83C411.34 34.83 412.72 35 413.79 35.33C413.94 35.55 414.06 35.78 414.2 36C414.51 36.51 414.78 37.03 415.01 37.56C413.09 38.94 407.18 42.75 397.54 45.17C397.34 45.22 397.16 45.32 397.02 45.46C396.87 45.6 396.77 45.78 396.73 45.97C396.69 46.17 396.72 46.36 396.81 46.54C396.9 46.71 397.04 46.85 397.23 46.94C397.53 47.08 397.84 47.21 398.14 47.34C400.76 48.41 403.61 48.81 406.36 48.82C404.68 49.55 402.87 50.17 400.98 50.58C397.33 51.39 392.09 51.67 387.63 48.6C387.58 48.56 387.52 48.53 387.47 48.49L387.45 48.48ZM413.83 31.44L413.09 33.18C412.42 33.07 411.7 33 410.93 32.96C410.38 32.93 409.8 32.93 409.21 32.95C410.79 32.31 412.38 31.78 413.85 31.4L413.83 31.44V31.44ZM417.05 36.96C417.05 36.96 417.01 36.87 417 36.82C416.82 36.39 416.63 36.01 416.45 35.67C416.25 35.29 416.06 34.96 415.89 34.7C417.22 33.26 418.5 32.16 418.73 32.05C418.87 32.01 419.4 32.12 420.1 32.84C420.5 33.26 420.95 33.87 421.42 34.78C421.68 35.29 421.95 35.89 422.21 36.61C422.74 38.06 422.97 39.18 423.03 40.03L417.04 36.95L417.05 36.96ZM400.6 32.74C396.37 34.13 393.98 38.45 395.26 42.38C395.27 42.42 395.31 42.45 395.33 42.48C394.37 42.65 393.63 42.73 393.24 42.7C392.69 40.71 392.92 38.61 393.92 36.76C394.94 34.86 396.64 33.44 398.71 32.76C399.85 32.39 401.02 32.27 402.18 32.38C401.65 32.45 401.12 32.57 400.59 32.74H400.6ZM400.89 46.19C402.4 45.74 403.81 45.25 405.11 44.76C411.27 42.43 415.09 39.86 416.42 38.88L423.63 42.59C423.63 42.59 423.59 42.61 423.57 42.62C419.11 45.08 408.72 48.31 400.89 46.19V46.19Z" fill="#38237C"/>
    <path d="M398.72 32.7701C396.65 33.4501 394.95 34.8701 393.93 36.7701C392.94 38.6201 392.7 40.7201 393.25 42.7101C393.64 42.7401 394.38 42.6601 395.34 42.4901C395.31 42.4601 395.28 42.4301 395.27 42.3901C393.98 38.4601 396.37 34.1401 400.61 32.7501C401.14 32.5801 401.67 32.4601 402.2 32.3901C401.05 32.2801 399.87 32.3901 398.73 32.7701H398.72Z" fill="#77A4F2"/>
    <path d="M33.79 80.5499C32.57 80.1699 31.1 79.8399 29.44 79.6699L31.06 81.6499C31.88 81.2499 32.79 80.8899 33.78 80.5499H33.79Z" fill="#77A4F2"/>
    <path d="M12.34 82.7297C8.77003 82.4697 3.18 85.0197 0.5 87.6497C2.77 90.6297 7.94001 93.9597 11.51 94.2197C14.43 94.4297 16.98 92.0297 17.21 88.8597C17.44 85.6897 15.26 82.9497 12.34 82.7397V82.7297Z" fill="#FF8486"/>
    <path d="M36.18 79.8497C33.81 79.5997 31.47 79.4997 29.35 79.5797L29.43 79.6797C31.09 79.8497 32.56 80.1797 33.78 80.5597C34.54 80.2997 35.34 80.0697 36.18 79.8497Z" fill="white"/>
    <path d="M23.68 82.1301C23.49 82.1301 22.86 82.4801 22.25 83.6501L27.91 85.8701C28.03 85.2901 28.15 84.8101 28.26 84.4101C26.05 83.0801 24.06 82.1801 23.69 82.1201L23.68 82.1301Z" fill="#77A4F2"/>
    <path d="M20.99 89.09C20.86 91.08 20.99 92.55 21.21 93.63C21.23 93.66 21.24 93.7 21.26 93.73L27.62 87.69C27.62 87.62 27.63 87.55 27.64 87.48L21.31 86.54C21.17 87.27 21.05 88.11 20.99 89.09V89.09Z" fill="#77A4F2"/>
    <path d="M21.32 86.5502L27.65 87.4902C27.72 86.9002 27.81 86.3701 27.91 85.8801L22.25 83.6602C21.9 84.3302 21.56 85.2602 21.31 86.5502H21.32Z" fill="white"/>
    <path d="M61.35 86.18C61.35 86.34 61.35 86.5 61.35 86.65C61.31 87.99 59.84 88.63 55.94 88.99C54.02 89.15 52.09 89.24 50.16 89.24C49.51 89.24 48.86 89.24 48.22 89.21C45.6 89.12 42.97 88.86 40.39 88.45C36.62 87.82 35.24 87.1 35.28 85.79C35.29 85.17 35.36 84.56 35.46 83.96C33.58 84.32 32.04 84.83 30.62 85.47C30.43 86.19 30.29 86.93 30.2 87.67C32.99 88.65 41.83 91.3 54.61 90.79C54.86 90.79 55.11 90.84 55.32 90.95C55.54 91.07 55.72 91.24 55.83 91.44C55.94 91.65 55.98 91.89 55.93 92.12C55.89 92.35 55.77 92.56 55.58 92.72C55.24 93.03 54.89 93.32 54.53 93.61C60.95 93.1 65.93 91.99 68.19 91.33C68.22 91.29 68.25 91.26 68.28 91.23C66.75 89.53 64.66 87.65 61.34 86.17L61.35 86.18Z" fill="#86D4C9"/>
    <path d="M44.7 98.4298C47.15 98.7698 49.72 98.8898 52.33 98.7098C57.17 98.3798 63.8 96.8298 68.2 91.3398C65.94 92.0098 60.96 93.1099 54.54 93.6199C51.62 95.9199 48.16 97.4398 44.69 98.4298H44.7Z" fill="#73BBBF"/>
    <path d="M61.24 84.3701C61.32 84.9701 61.36 85.5801 61.35 86.1901C64.66 87.6701 66.76 89.5501 68.29 91.2501C68.31 91.2301 68.33 91.2101 68.34 91.1901C66.52 88.0601 63.95 85.8901 61.24 84.3801V84.3701Z" fill="white"/>
    <path d="M35.88 82.25C34.01 82.79 32.32 83.51 30.95 84.41C30.83 84.77 30.72 85.13 30.63 85.49C32.05 84.85 33.59 84.34 35.47 83.98C35.57 83.4 35.7 82.82 35.88 82.25V82.25Z" fill="white"/>
    <path d="M45.22 92.92C36.67 92.28 30.98 90.45 29.01 89.73L21.34 97.01C35.46 97.8 42.86 94.31 45.22 92.92Z" fill="#77A4F2"/>
    <path d="M21.35 97.0099L21.33 97.0299C27.68 98.5199 42.08 98.8099 51.09 93.1499C49.01 93.1499 47.05 93.0599 45.22 92.9199C42.87 94.3199 35.46 97.7999 21.34 97.0099H21.35Z" fill="white"/>
    <path d="M30.88 100.23C32.28 100.23 33.68 100.18 35.06 100.08C36.38 99.9897 37.81 99.8297 39.29 99.5997C41.9 100.29 44.68 100.77 47.42 100.96C48.28 101.02 49.14 101.05 50.01 101.05C50.88 101.05 51.72 101.02 52.57 100.97C58.04 100.6 65.5 98.7997 70.44 92.4897L74.66 92.7797C74.77 92.9597 74.89 93.1297 75.03 93.2997C75.61 93.9697 76.42 94.3597 77.3 94.4197C77.38 94.4197 77.45 94.4197 77.53 94.4197C78.33 94.4197 79.09 94.1297 79.7 93.5997C80.37 93.0197 80.76 92.2097 80.82 91.3297C80.94 89.5097 79.56 87.9297 77.74 87.8097C76.85 87.7497 76.01 88.0397 75.34 88.6197C74.86 89.0397 74.53 89.5797 74.35 90.1697L70.45 89.9097C67.9 85.6897 64.18 83.0497 60.45 81.4097C59.86 79.9397 59.01 78.5897 57.9 77.4197C56.72 76.1697 55.32 75.1797 53.74 74.4797C52.16 73.7697 50.48 73.3897 48.74 73.3297C47 73.2697 45.3 73.5497 43.68 74.1497C42.06 74.7497 40.6 75.6497 39.34 76.8197C38.84 77.2797 38.39 77.7897 37.98 78.3197C34.14 77.8197 30.3 77.6797 27.06 77.9697C26.88 77.9897 26.71 78.0297 26.57 78.0897C26.41 78.1597 26.28 78.2497 26.19 78.3697C26.09 78.4997 26.03 78.6497 26.04 78.7997C26.04 78.9497 26.1 79.0997 26.21 79.2197L27.86 81.2397C26.26 80.3697 24.64 79.6297 23.9 79.5797C22.11 79.4597 18.95 81.2897 18.43 88.9297C18.24 91.7397 18.49 94.0197 19.17 95.7397L18.09 96.7597C17.95 96.8897 17.85 97.0497 17.79 97.2297C17.73 97.4097 17.73 97.5997 17.77 97.7797C17.81 97.9597 17.9 98.1297 18.03 98.2697C18.16 98.4097 18.32 98.5197 18.5 98.5897C20.86 99.5197 25.22 100.15 29.87 100.23C30.2 100.23 30.54 100.23 30.87 100.23H30.88ZM29.36 79.5797C31.48 79.4997 33.82 79.5997 36.19 79.8497C35.35 80.0597 34.55 80.2997 33.79 80.5597C32.8 80.8997 31.88 81.2597 31.07 81.6597L29.45 79.6797L29.37 79.5797H29.36ZM68.29 91.2497C68.29 91.2497 68.23 91.3197 68.2 91.3497C63.8 96.8397 57.16 98.3997 52.33 98.7197C49.72 98.8997 47.15 98.7697 44.7 98.4397C48.16 97.4497 51.63 95.9397 54.55 93.6297C54.91 93.3497 55.26 93.0497 55.6 92.7397C55.78 92.5697 55.9 92.3597 55.95 92.1397C55.99 91.9097 55.95 91.6697 55.85 91.4597C55.74 91.2497 55.56 91.0797 55.34 90.9697C55.12 90.8597 54.88 90.8097 54.63 90.8097C41.85 91.3197 33.01 88.6697 30.22 87.6897C30.31 86.9497 30.45 86.2197 30.64 85.4897C30.74 85.1297 30.84 84.7697 30.96 84.4097C32.33 83.5097 34.02 82.7997 35.89 82.2497C35.71 82.8197 35.58 83.3897 35.48 83.9797C35.38 84.5797 35.31 85.1897 35.3 85.8097C35.26 87.1197 36.64 87.8397 40.41 88.4697C42.99 88.8797 45.62 89.1297 48.24 89.2297C48.89 89.2497 49.53 89.2597 50.18 89.2597C52.11 89.2597 54.04 89.1797 55.96 89.0097C59.86 88.6497 61.32 88.0097 61.37 86.6697C61.37 86.5097 61.37 86.3497 61.37 86.1997C61.37 85.5897 61.34 84.9797 61.26 84.3797C63.97 85.8897 66.54 88.0597 68.36 91.1897C68.34 91.2097 68.32 91.2297 68.31 91.2497H68.29ZM59.07 86.2097C58.6 86.3997 57.6 86.5797 56.26 86.7197C56.3 86.6397 56.32 86.5597 56.32 86.4897C56.49 81.2197 52.01 76.7797 46.32 76.5897C45.37 76.5597 44.45 76.6597 43.56 76.8597C45.13 76.1097 46.87 75.7397 48.65 75.7997C51.47 75.8897 54.1 77.0397 56.05 79.0297C57.97 80.9797 59.03 83.5197 59.05 86.2097H59.07ZM27.91 85.8797C27.81 86.3597 27.72 86.8897 27.65 87.4897C27.65 87.5597 27.64 87.6297 27.63 87.6997L21.27 93.7397C21.27 93.7397 21.24 93.6697 21.22 93.6397C20.99 92.5597 20.86 91.0897 21 89.0997C21.07 88.1197 21.18 87.2797 21.32 86.5497C21.57 85.2597 21.91 84.3297 22.26 83.6597C22.87 82.4897 23.51 82.1397 23.69 82.1397C24.06 82.1997 26.05 83.0997 28.26 84.4297C28.15 84.8197 28.02 85.3097 27.91 85.8897V85.8797ZM29.02 89.7297C30.98 90.4497 36.68 92.2797 45.23 92.9197C47.06 93.0597 49.01 93.1397 51.1 93.1497C42.09 98.8097 27.69 98.5197 21.34 97.0297L21.36 97.0097L29.03 89.7297H29.02Z" fill="#38237C"/>
    <path d="M56.07 79.02C54.12 77.03 51.49 75.89 48.67 75.79C46.89 75.73 45.15 76.1 43.58 76.85C44.46 76.65 45.38 76.55 46.34 76.58C52.02 76.77 56.51 81.2 56.34 86.48C56.34 86.56 56.32 86.63 56.28 86.71C57.61 86.57 58.62 86.39 59.09 86.2C59.07 83.51 58.01 80.96 56.09 79.02H56.07Z" fill="#77A4F2"/>
    <path d="M49.97 120.69V120.67C47.9 120.38 44.37 120.29 39.83 121.59C39.77 121.62 39.71 121.64 39.65 121.67L44.32 126.12C45.64 124.29 47.58 122.41 49.97 120.69Z" fill="#77A4F2"/>
    <path d="M27.81 133.33C24.39 134.37 20.08 138.75 18.52 142.17C21.71 144.14 27.73 145.39 31.15 144.35C33.95 143.5 35.47 140.34 34.55 137.3C33.63 134.26 30.61 132.49 27.81 133.33Z" fill="#FF8486"/>
    <path d="M49.97 120.66C50.12 119.94 50.33 119.22 50.6 118.53C46.77 118.93 42.9 120.02 39.82 121.58C44.37 120.28 47.9 120.38 49.97 120.66Z" fill="white"/>
    <path d="M91.25 116.41C89.75 116.87 88.82 118.32 88.93 119.83L85.74 120.82C81.83 116.92 77.47 115.14 73.39 114.48C72.31 113.25 71.04 112.22 69.59 111.45C68.01 110.61 66.31 110.09 64.54 109.92C62.76 109.75 61 109.92 59.23 110.46C56.23 111.39 53.71 113.28 51.99 115.86C46.46 116.17 40.84 117.81 36.83 120.33C36.67 120.43 36.53 120.58 36.42 120.74C36.32 120.91 36.25 121.09 36.24 121.29C36.22 121.48 36.24 121.68 36.32 121.86C36.39 122.04 36.5 122.21 36.64 122.34L40.75 126.27C39.32 126.12 38.05 126.08 37.47 126.26C36.95 126.42 35.68 127.02 35.08 129.13C34.52 131.11 34.73 133.74 35.72 136.94C36.71 140.15 38.01 142.44 39.6 143.75C40.16 144.22 40.69 144.5 41.17 144.67L39.39 148.67C39.31 148.85 39.27 149.06 39.28 149.26C39.29 149.46 39.35 149.66 39.45 149.83C39.55 150.01 39.69 150.16 39.86 150.27C40.03 150.38 40.22 150.45 40.42 150.47C40.81 150.51 41.25 150.54 41.72 150.54C44.34 150.54 48.05 149.88 51.82 148.71C53.47 148.2 55.11 147.6 56.7 146.93C59.72 145.64 63.27 143.76 66.47 141.14C67 141 67.53 140.88 68.05 140.72C69.69 140.22 71.3 139.58 72.85 138.82C77.66 136.45 83.68 131.88 85.81 123.49L90.18 122.14C90.76 122.6 91.49 122.88 92.25 122.88C92.57 122.88 92.9 122.83 93.22 122.73C94.96 122.19 95.94 120.34 95.4 118.6C94.86 116.86 93.01 115.88 91.27 116.42L91.25 116.41ZM42.51 147.94L47.2 137.38C49.41 137.56 55.78 137.8 64.49 135.64C66.08 135.25 67.75 134.78 69.49 134.21C63.37 142.86 50.66 147.11 43.72 147.85C43.3 147.89 42.89 147.93 42.51 147.95V147.94ZM37.39 130.64C37.54 129.3 38.02 128.76 38.19 128.7C38.56 128.62 40.77 128.75 43.34 129.21C43.38 129.61 43.45 130.11 43.54 130.69C43.62 131.16 43.72 131.69 43.86 132.27C44 132.88 44.18 133.55 44.39 134.25C44.58 134.83 44.79 135.4 45.02 135.97L44.23 137.74C43.17 139.26 41.45 140.51 40.44 140.5C40.24 140.5 40.1 140.42 39.99 140.31C39.41 139.42 38.77 138.11 38.17 136.17C37.88 135.23 37.69 134.41 37.56 133.68C37.33 132.39 37.31 131.39 37.4 130.65L37.39 130.64ZM39.82 121.58C42.9 120.02 46.77 118.93 50.6 118.53C50.33 119.23 50.11 119.94 49.97 120.66V120.68C47.57 122.4 45.63 124.28 44.31 126.11L39.64 121.66C39.7 121.63 39.76 121.6 39.82 121.58ZM73.7 120.18C74 121.14 73.15 122.36 71.55 123.56C71.93 122.85 72.06 122.11 71.83 121.38C70.97 118.68 69.13 116.46 66.64 115.14C64.15 113.82 61.31 113.53 58.63 114.35C57.08 114.82 55.69 115.64 54.53 116.72C55.9 114.92 57.79 113.58 60.03 112.89C62.83 112.04 65.79 112.33 68.37 113.71C70.95 115.09 72.84 117.39 73.69 120.19L73.7 120.18ZM70.58 137.02C71.72 135.62 72.73 134.08 73.54 132.37C73.65 132.14 73.69 131.88 73.65 131.63C73.61 131.38 73.5 131.14 73.32 130.95C73.15 130.76 72.92 130.63 72.67 130.57C72.42 130.51 72.16 130.53 71.92 130.62C59.48 135.37 50.02 135.04 47.35 134.81C47.22 134.47 47.08 134.14 46.97 133.8C46.93 133.69 46.88 133.59 46.85 133.48C46.53 132.46 46.28 131.41 46.1 130.35C45.99 129.71 45.9 129.07 45.85 128.43C46.78 126.86 48.13 125.4 49.73 124.06C49.77 124.9 49.9 125.74 50.1 126.58C50.16 126.82 50.21 127.06 50.28 127.3C50.88 129.26 52.79 130.44 55.82 130.7C56.25 130.74 56.71 130.76 57.18 130.76C59.5 130.76 62.25 130.31 65.07 129.45L65.22 129.4C71.58 127.44 77.43 123.6 76.17 119.44C75.97 118.78 75.72 118.16 75.43 117.56C78.15 118.35 80.92 119.78 83.47 122.18C83.45 122.25 83.43 122.32 83.41 122.4C83.4 122.45 83.38 122.5 83.37 122.56C81.53 130.23 76.04 134.38 71.69 136.52C71.32 136.7 70.95 136.86 70.58 137.03V137.02Z" fill="#38237C"/>
    <path d="M39.99 140.31C40.1 140.42 40.24 140.49 40.44 140.5C41.46 140.5 43.17 139.26 44.23 137.74L45.02 135.97C44.8 135.4 44.58 134.83 44.39 134.25C44.17 133.55 44 132.88 43.86 132.27L37.56 133.68C37.69 134.41 37.88 135.24 38.17 136.17C38.77 138.11 39.41 139.42 39.99 140.31V140.31Z" fill="#77A4F2"/>
    <path d="M43.34 129.21C40.77 128.75 38.56 128.63 38.19 128.7C38.02 128.75 37.54 129.3 37.39 130.64L43.54 130.69C43.44 130.11 43.38 129.61 43.34 129.21V129.21Z" fill="#77A4F2"/>
    <path d="M43.54 130.69L37.39 130.64C37.3 131.39 37.32 132.38 37.55 133.67L43.85 132.26C43.72 131.69 43.61 131.16 43.53 130.68L43.54 130.69Z" fill="white"/>
    <path d="M83.37 122.55C83.38 122.5 83.4 122.45 83.41 122.39C81.57 121.32 79.22 120.09 76.17 119.44C77.43 123.6 71.58 127.44 65.22 129.4L65.07 129.45C62.25 130.31 59.51 130.76 57.18 130.76C56.71 130.76 56.26 130.74 55.82 130.7C52.79 130.44 50.87 129.26 50.28 127.3C50.21 127.06 50.16 126.82 50.1 126.58C48.45 127.84 47.21 129.1 46.1 130.35C46.28 131.41 46.52 132.46 46.85 133.48C46.89 133.59 46.93 133.69 46.97 133.8C65.08 134 79.74 125.83 83.37 122.55V122.55Z" fill="#86D4C9"/>
    <path d="M83.37 122.55C79.74 125.82 65.08 134 46.97 133.8C47.09 134.14 47.22 134.47 47.35 134.81C50.02 135.03 59.48 135.37 71.92 130.62C72.16 130.53 72.42 130.51 72.67 130.57C72.92 130.63 73.15 130.76 73.32 130.95C73.5 131.14 73.61 131.38 73.65 131.63C73.69 131.88 73.65 132.14 73.54 132.37C72.73 134.08 71.71 135.62 70.58 137.02C70.95 136.86 71.32 136.69 71.69 136.51C76.03 134.37 81.53 130.22 83.37 122.55V122.55Z" fill="#73BBBF"/>
    <path d="M50.1 126.58C49.9 125.75 49.77 124.9 49.73 124.06C48.14 125.39 46.79 126.86 45.85 128.43C45.9 129.07 45.99 129.72 46.1 130.35C47.21 129.1 48.45 127.84 50.1 126.58Z" fill="white"/>
    <path d="M83.47 122.18C80.91 119.78 78.14 118.35 75.43 117.56C75.72 118.17 75.98 118.79 76.17 119.44C79.23 120.1 81.57 121.33 83.41 122.4C83.43 122.33 83.45 122.26 83.47 122.18V122.18Z" fill="white"/>
    <path d="M64.5 135.64C55.79 137.8 49.42 137.57 47.21 137.38L42.52 147.94C42.9 147.92 43.31 147.89 43.73 147.84C58.15 143.45 63.46 137.08 64.5 135.64V135.64Z" fill="#77A4F2"/>
    <path d="M69.49 134.21C67.75 134.78 66.09 135.25 64.49 135.64C63.44 137.08 58.14 143.45 43.72 147.84C50.66 147.11 63.37 142.86 69.49 134.2V134.21Z" fill="white"/>
    <path d="M68.38 113.71C65.8 112.33 62.84 112.04 60.04 112.89C57.8 113.58 55.91 114.92 54.54 116.72C55.7 115.64 57.09 114.82 58.64 114.35C61.32 113.54 64.16 113.82 66.65 115.14C69.13 116.46 70.98 118.68 71.84 121.38C72.06 122.12 71.94 122.86 71.56 123.57C73.16 122.37 74.01 121.15 73.71 120.19C72.86 117.39 70.97 115.09 68.39 113.71H68.38Z" fill="#77A4F2"/>
    <path d="M65.78 48.2198C64.72 47.6898 63.44 47.1698 61.96 46.7598L63.14 48.8098C63.95 48.5698 64.84 48.3798 65.79 48.2198H65.78Z" fill="#77A4F2"/>
    <path d="M43.17 57.4097C45.83 58.0497 48.55 56.2297 49.25 53.3397C49.95 50.4497 48.36 47.5997 45.7 46.9497C42.45 46.1697 36.9 47.6597 34.03 49.6697C35.67 52.7697 39.93 56.6297 43.18 57.4097H43.17Z" fill="#FF8486"/>
    <path d="M68.03 47.9399C65.93 47.3599 63.82 46.9199 61.9 46.6699L61.95 46.7599C63.43 47.1599 64.72 47.6899 65.77 48.2199C66.49 48.0999 67.24 48.0099 68.03 47.9399Z" fill="white"/>
    <path d="M105.22 61.6397C103.79 61.2997 102.35 62.0197 101.72 63.2897L98.18 62.4497C96.48 58.1697 93.45 55.1697 90.26 53.0797C89.94 51.6297 89.36 50.2597 88.52 49.0197C87.62 47.6897 86.48 46.5597 85.13 45.6697C83.78 44.7797 82.29 44.1597 80.69 43.8397C79.09 43.5197 77.48 43.5197 75.89 43.8197C74.3 44.1297 72.8099 44.7297 71.4699 45.6097C70.9399 45.9597 70.45 46.3597 69.99 46.7797C66.53 45.7297 63.01 45.0097 59.98 44.7797C59.81 44.7697 59.65 44.7797 59.5 44.8197C59.34 44.8597 59.2099 44.9297 59.0999 45.0197C58.9799 45.1297 58.91 45.2597 58.89 45.3997C58.87 45.5397 58.9 45.6897 58.98 45.8297L60.15 47.8797C58.82 46.8497 57.48 45.9497 56.81 45.7897C56.31 45.6697 55 45.5497 53.51 46.9797C52.12 48.3097 51.04 50.5297 50.32 53.5897C49.72 56.1497 49.6 58.2897 49.96 59.9797L48.82 60.7497C48.67 60.8497 48.5499 60.9897 48.4699 61.1397C48.3899 61.2997 48.35 61.4697 48.37 61.6497C48.38 61.8197 48.4399 61.9997 48.5399 62.1497C48.6399 62.2997 48.77 62.4297 48.93 62.5197C50.97 63.7397 54.89 64.9897 59.17 65.7697C60.75 66.0597 62.3699 66.2797 63.9699 66.4397C65.1899 66.5497 66.53 66.6197 67.93 66.6397C70.23 67.6797 72.73 68.5497 75.24 69.1397C76.8 69.5097 78.4 69.7797 79.99 69.9297C80.94 70.0197 81.96 70.0797 83.04 70.0797C87.71 70.0797 93.29 68.9697 97.78 64.8497L101.6 65.7497C101.96 66.6797 102.75 67.4197 103.79 67.6697C104.03 67.7297 104.27 67.7497 104.51 67.7497C105.08 67.7497 105.64 67.5897 106.14 67.2897C106.85 66.8497 107.34 66.1697 107.53 65.3597C107.72 64.5497 107.59 63.7197 107.15 63.0097C106.71 62.2997 106.03 61.8097 105.22 61.6197V61.6397ZM51.82 61.5097L51.84 61.4897L59.99 55.9697C61.7 56.9397 66.66 59.4897 74.42 61.3897C76.08 61.7997 77.85 62.1697 79.76 62.4997C70.6 66.2897 57.44 63.8397 51.81 61.5097H51.82ZM52.71 54.1497C52.92 53.2497 53.16 52.4997 53.4 51.8497C53.84 50.6497 54.31 49.8497 54.7 49.3297C54.77 49.2297 54.8399 49.1397 54.9099 49.0597C55.6299 48.2197 56.17 48.1397 56.25 48.1497C56.58 48.2597 58.2699 49.3897 60.0999 50.9497C59.9399 51.2897 59.75 51.7197 59.56 52.2297C59.4 52.6597 59.23 53.1397 59.08 53.6697C59.06 53.7297 59.05 53.7997 59.03 53.8597L52.26 58.4397C52.26 58.4397 52.25 58.3897 52.24 58.3697C52.19 57.3397 52.3 55.9697 52.73 54.1497H52.71ZM61.9 46.6697C63.83 46.9197 65.93 47.3597 68.03 47.9397C67.25 48.0097 66.49 48.0997 65.77 48.2197C64.82 48.3797 63.93 48.5697 63.12 48.8097L61.94 46.7597L61.89 46.6697H61.9ZM88.24 57.2997C87.78 57.3997 86.8299 57.4097 85.5999 57.3397C85.6499 57.2797 85.69 57.2197 85.7 57.1497C86.17 54.7997 85.6199 52.3897 84.1599 50.3797C82.6999 48.3697 80.51 46.9797 77.98 46.4797C77.15 46.3097 76.33 46.2597 75.52 46.2997C77.04 45.8797 78.65 45.8197 80.25 46.1397C82.83 46.6597 85.07 48.1197 86.57 50.2397C88.03 52.3197 88.62 54.8197 88.23 57.2997H88.24ZM82.93 63.4597C83.31 63.2497 83.69 63.0497 84.06 62.8197C84.26 62.6897 84.4 62.5197 84.48 62.3097C84.56 62.0997 84.56 61.8697 84.48 61.6497C84.41 61.4397 84.27 61.2497 84.08 61.1097C83.9 60.9697 83.67 60.8797 83.44 60.8497C71.5 59.3497 63.84 55.5797 61.42 54.2397C61.62 53.5697 61.86 52.9197 62.14 52.2797C62.28 51.9697 62.43 51.6597 62.59 51.3497C63.85 50.7997 65.5099 50.3897 67.4099 50.1597C67.1699 50.6397 66.9699 51.1297 66.7899 51.6297C66.5999 52.1697 66.45 52.7197 66.34 53.2897C66.06 54.6797 67.78 55.5597 70.65 56.5397C72.97 57.3097 75.36 57.9497 77.75 58.4397C80.1 58.8997 82.5099 59.2297 84.9099 59.4197C85.6399 59.4697 86.3 59.4997 86.9 59.4997C88.85 59.4997 90.06 59.1597 90.28 58.0697C90.31 57.9297 90.3199 57.7797 90.3499 57.6397C90.4499 57.0897 90.51 56.5297 90.53 55.9697C92.79 57.7697 94.81 60.1597 96 63.2997C95.98 63.3097 95.97 63.3297 95.95 63.3397C95.91 63.3697 95.87 63.3997 95.83 63.4397C90.94 67.8097 84.59 68.2297 80.09 67.7897C77.68 67.5597 75.3499 67.0497 73.1599 66.3797C76.4799 65.9897 79.88 65.1197 82.9 63.4597H82.93Z" fill="#38237C"/>
    <path d="M60.09 50.9599C58.26 49.3999 56.57 48.2699 56.24 48.1599C56.17 48.1499 55.62 48.2299 54.9 49.0699C54.83 49.1499 54.76 49.2399 54.69 49.3399L59.54 52.2399C59.73 51.7299 59.92 51.3099 60.08 50.9599H60.09Z" fill="#77A4F2"/>
    <path d="M59.02 53.8598C59.04 53.7998 59.05 53.7298 59.07 53.6698L53.4 51.8398C53.16 52.4898 52.93 53.2398 52.71 54.1398C52.28 55.9498 52.17 57.3198 52.22 58.3598C52.22 58.3798 52.23 58.4098 52.24 58.4298L59.01 53.8498L59.02 53.8598Z" fill="#77A4F2"/>
    <path d="M59.55 52.2301L54.7 49.3301C54.31 49.8501 53.85 50.6501 53.4 51.8501L59.07 53.6801C59.23 53.1401 59.39 52.6701 59.55 52.2401V52.2301Z" fill="white"/>
    <path d="M95.85 63.4599C95.85 63.4599 95.93 63.3999 95.97 63.3599C94.82 61.5699 93.18 59.5199 90.37 57.6599C90.34 57.7999 90.33 57.9499 90.3 58.0899C90.08 59.1799 88.87 59.5199 86.92 59.5199C86.32 59.5199 85.66 59.4899 84.93 59.4399C82.53 59.2499 80.12 58.9199 77.77 58.4599C75.38 57.9699 72.99 57.3399 70.67 56.5599C67.8 55.5799 66.08 54.6899 66.36 53.3099C66.46 52.7399 66.62 52.1899 66.81 51.6499C65.03 51.6899 63.55 51.9299 62.15 52.2999C61.86 52.9399 61.62 53.5999 61.43 54.2599C63.85 55.5999 71.5 59.3599 83.45 60.8699C83.69 60.8999 83.91 60.9899 84.09 61.1299C84.28 61.2699 84.42 61.4599 84.49 61.6699C84.56 61.8899 84.56 62.1199 84.49 62.3299C84.41 62.5399 84.27 62.7099 84.07 62.8399C83.7 63.0699 83.32 63.2699 82.94 63.4799C88.92 63.9899 93.67 63.7399 95.86 63.4799L95.85 63.4599Z" fill="#86D4C9"/>
    <path d="M95.85 63.4599C93.65 63.7299 88.9 63.9799 82.93 63.4599C79.9 65.1299 76.51 65.9999 73.19 66.3799C75.38 67.0499 77.71 67.5599 80.12 67.7899C84.62 68.2299 90.96 67.8099 95.86 63.4399L95.85 63.4599Z" fill="#73BBBF"/>
    <path d="M95.97 63.3597C95.97 63.3597 96 63.3297 96.02 63.3197C94.83 60.1697 92.81 57.7897 90.55 55.9897C90.53 56.5497 90.47 57.1097 90.37 57.6597C93.18 59.5197 94.82 61.5697 95.97 63.3597V63.3597Z" fill="white"/>
    <path d="M67.43 50.1699C65.52 50.3999 63.86 50.8099 62.61 51.3599C62.45 51.6699 62.3 51.9799 62.16 52.2899C63.56 51.9199 65.05 51.6899 66.82 51.6399C66.99 51.1399 67.19 50.6399 67.44 50.1699H67.43Z" fill="white"/>
    <path d="M74.42 61.4C66.66 59.5 61.7 56.95 59.99 55.98L51.84 61.5C64.67 64.36 72.02 62.33 74.42 61.4V61.4Z" fill="#77A4F2"/>
    <path d="M79.77 62.5001C77.86 62.1801 76.08 61.8001 74.43 61.3901C72.03 62.3201 64.68 64.3501 51.85 61.4901L51.83 61.5101C57.46 63.8501 70.62 66.3001 79.78 62.5001H79.77Z" fill="white"/>
    <path d="M86.57 50.2401C85.07 48.1101 82.83 46.6601 80.25 46.1401C78.66 45.8201 77.04 45.8801 75.52 46.3001C76.32 46.2701 77.15 46.3201 77.98 46.4801C80.51 46.9801 82.7 48.3701 84.16 50.3801C85.62 52.4001 86.17 54.8001 85.7 57.1501C85.69 57.2201 85.65 57.2801 85.6 57.3401C86.83 57.4101 87.78 57.4001 88.24 57.3001C88.63 54.8201 88.04 52.3201 86.58 50.2401H86.57Z" fill="#77A4F2"/>
    <path d="M117.97 32.9697C117.17 32.4497 116.2 31.9097 115.07 31.4497L115.81 33.1897C116.48 33.0797 117.2 33.0097 117.97 32.9697Z" fill="#77A4F2"/>
    <path d="M98.44 38.3499C100.57 39.1399 103 37.9099 103.87 35.5899C104.73 33.2699 103.7 30.7599 101.57 29.9599C98.96 28.9899 94.23 29.6699 91.66 31.0499C92.7 33.7699 95.84 37.3899 98.45 38.3599L98.44 38.3499Z" fill="#FF8486"/>
    <path d="M119.69 32.9499C118.11 32.3099 116.52 31.7799 115.05 31.3999L115.07 31.4399C116.2 31.8999 117.17 32.4399 117.97 32.9599C118.52 32.9299 119.1 32.9299 119.69 32.9499Z" fill="white"/>
    <path d="M149.3 47.9802C148.14 47.5502 146.88 48.0002 146.22 48.9902L143.43 47.9702C142.45 44.2702 140.25 41.4902 137.82 39.4502C137.7 38.2202 137.35 37.0302 136.78 35.9202C136.17 34.7302 135.33 33.6702 134.3 32.8002C133.27 31.9202 132.09 31.2602 130.8 30.8402C129.51 30.4202 128.17 30.2502 126.82 30.3402C125.47 30.4402 124.18 30.7902 122.98 31.3902C122.51 31.6202 122.07 31.9002 121.66 32.2002C118.91 30.9902 116.08 30.0502 113.6 29.5602C113.46 29.5302 113.32 29.5302 113.19 29.5402C113.05 29.5602 112.92 29.6002 112.82 29.6702C112.7 29.7502 112.63 29.8602 112.59 29.9902C112.56 30.1102 112.57 30.2502 112.62 30.3802L113.31 32.0002C112.39 31.1102 111.43 30.2602 110.89 30.0702C110.49 29.9202 109.39 29.6902 108 30.7302C106.71 31.6902 105.6 33.4302 104.69 35.8902C103.87 38.1302 103.65 39.8302 103.76 41.1202L102.76 41.6402C102.62 41.7102 102.5 41.8202 102.42 41.9402C102.33 42.0702 102.28 42.2202 102.28 42.3702C102.28 42.5202 102.31 42.6802 102.38 42.8202C102.45 42.9602 102.55 43.0802 102.68 43.1802C104.24 44.3902 107.37 45.8202 110.83 46.8902C112.11 47.2902 113.43 47.6402 114.73 47.9202C115.73 48.1402 116.83 48.3302 117.98 48.4802C119.78 49.5702 121.75 50.5402 123.77 51.2702C125.02 51.7302 126.32 52.1102 127.62 52.4002C129.17 52.7402 130.97 53.0002 132.88 53.0002C136.1 53.0002 139.63 52.2502 142.82 49.9802L145.86 51.1002C146.07 51.9102 146.65 52.6002 147.49 52.9102C147.79 53.0202 148.09 53.0702 148.4 53.0702C148.78 53.0702 149.15 52.9902 149.5 52.8302C150.14 52.5402 150.62 52.0102 150.86 51.3502C151.36 49.9902 150.66 48.4802 149.3 47.9802V47.9802ZM105.33 42.6302C105.33 42.6302 105.29 42.6102 105.27 42.6002L112.48 38.8902C113.81 39.8702 117.63 42.4402 123.79 44.7702C125.1 45.2602 126.5 45.7502 128.02 46.2002C120.18 48.3202 109.79 45.1002 105.33 42.6302ZM115.05 31.4002C116.53 31.7802 118.11 32.3202 119.69 32.9502C119.1 32.9302 118.52 32.9402 117.97 32.9602C117.2 33.0002 116.48 33.0702 115.81 33.1802L115.07 31.4402L115.05 31.4002ZM135.64 42.7102C135.25 42.7402 134.51 42.6602 133.55 42.4902C133.58 42.4602 133.61 42.4302 133.62 42.3902C134.91 38.4602 132.52 34.1402 128.28 32.7502C127.75 32.5802 127.22 32.4602 126.7 32.3902C127.85 32.2802 129.03 32.3902 130.17 32.7702C132.24 33.4502 133.94 34.8702 134.96 36.7702C135.95 38.6202 136.19 40.7202 135.64 42.7102V42.7102ZM112.44 35.6802C112.26 36.0202 112.08 36.4002 111.89 36.8302C111.87 36.8702 111.85 36.9202 111.84 36.9702L105.85 40.0502C105.91 39.2002 106.14 38.0802 106.67 36.6302C106.93 35.9102 107.2 35.3102 107.46 34.8002C107.93 33.8902 108.38 33.2702 108.78 32.8502C109.47 32.1302 110 32.0102 110.13 32.0502C110.38 32.1702 111.66 33.2702 113 34.7102C112.83 34.9702 112.65 35.2902 112.44 35.6802V35.6802ZM130.77 47.3402C131.08 47.2102 131.38 47.0902 131.68 46.9402C131.86 46.8502 132.01 46.7102 132.1 46.5402C132.19 46.3602 132.22 46.1702 132.18 45.9702C132.14 45.7802 132.04 45.6102 131.89 45.4602C131.75 45.3202 131.57 45.2202 131.37 45.1702C121.77 42.7702 115.82 38.9402 113.9 37.5602C114.13 37.0202 114.4 36.5002 114.71 36.0002C114.85 35.7802 114.97 35.5402 115.12 35.3302C116.19 35.0102 117.57 34.8402 119.12 34.8302C118.89 35.1902 118.68 35.5602 118.5 35.9402C118.3 36.3702 118.11 36.8002 117.97 37.2502C117.59 38.4002 118.94 39.3102 121.23 40.4202C123.07 41.2902 124.98 42.0602 126.91 42.7002C128.81 43.3202 130.77 43.8302 132.73 44.2302C133.8 44.4402 134.71 44.5702 135.44 44.5702C136.46 44.5702 137.12 44.3102 137.34 43.6302C137.38 43.5202 137.4 43.4102 137.44 43.3002C137.57 42.8702 137.67 42.4302 137.74 41.9902C139.39 43.6802 140.79 45.8202 141.45 48.4902H141.44C141.39 48.5402 141.33 48.5702 141.28 48.6102C136.82 51.6902 131.58 51.4002 127.93 50.5902C126.04 50.1702 124.24 49.5602 122.55 48.8302C125.3 48.8302 128.15 48.4302 130.77 47.3502V47.3402Z" fill="#38237C"/>
    <path d="M106.69 36.6198C106.16 38.0698 105.93 39.1898 105.87 40.0398L111.86 36.9598C111.86 36.9598 111.9 36.8698 111.91 36.8198L107.49 34.7798C107.23 35.2898 106.96 35.8898 106.7 36.6098L106.69 36.6198Z" fill="#77A4F2"/>
    <path d="M110.14 32.0501C110.01 32.0101 109.48 32.1201 108.79 32.8501L112.45 35.6801C112.65 35.2901 112.84 34.9701 113.01 34.7101C111.68 33.2701 110.39 32.1701 110.14 32.0501V32.0501Z" fill="#77A4F2"/>
    <path d="M107.48 34.7901L111.9 36.8301C112.08 36.4001 112.27 36.0201 112.45 35.6801L108.79 32.8501C108.39 33.2701 107.94 33.8901 107.47 34.8001L107.48 34.7901Z" fill="white"/>
    <path d="M141.45 48.4801C140.69 46.9001 139.54 45.0701 137.45 43.2801C137.42 43.3901 137.39 43.5001 137.35 43.6101C137.13 44.2901 136.47 44.5501 135.45 44.5501C134.72 44.5501 133.81 44.4201 132.74 44.2101C130.78 43.8101 128.82 43.3001 126.92 42.6801C124.99 42.0401 123.08 41.2701 121.24 40.4001C118.95 39.2901 117.6 38.3801 117.98 37.2301C118.12 36.7801 118.31 36.3401 118.51 35.9201C117.09 35.7901 115.88 35.8301 114.73 35.9801C114.42 36.4801 114.16 37.0001 113.92 37.5401C115.84 38.9201 121.79 42.7501 131.39 45.1501C131.59 45.2001 131.77 45.3001 131.91 45.4401C132.06 45.5801 132.16 45.7601 132.2 45.9501C132.24 46.1501 132.21 46.3401 132.12 46.5201C132.03 46.6901 131.89 46.8301 131.7 46.9201C131.4 47.0601 131.09 47.1901 130.79 47.3201C135.57 48.3101 139.43 48.5701 141.29 48.5801C141.34 48.5401 141.4 48.5101 141.45 48.4701V48.4801Z" fill="#86D4C9"/>
    <path d="M141.29 48.5901C139.43 48.5901 135.56 48.3201 130.79 47.3301C128.17 48.4001 125.32 48.8001 122.57 48.8101C124.25 49.5401 126.06 50.1601 127.95 50.5701C131.6 51.3801 136.84 51.6601 141.3 48.5901H141.29Z" fill="#73BBBF"/>
    <path d="M118.5 35.9298C118.68 35.5498 118.89 35.1798 119.12 34.8198C117.57 34.8198 116.19 34.9898 115.12 35.3198C114.97 35.5398 114.85 35.7698 114.71 35.9898C115.87 35.8398 117.08 35.7898 118.49 35.9298H118.5Z" fill="white"/>
    <path d="M141.45 48.4797H141.46C140.79 45.7997 139.4 43.6597 137.75 41.9697C137.68 42.4097 137.58 42.8497 137.45 43.2797C139.55 45.0797 140.69 46.8997 141.45 48.4797V48.4797Z" fill="white"/>
    <path d="M123.79 44.7701C117.63 42.4401 113.81 39.8701 112.48 38.8901L105.27 42.6001C105.27 42.6001 105.31 42.6201 105.33 42.6301C115.46 46.1801 121.66 45.3001 123.79 44.7701Z" fill="#77A4F2"/>
    <path d="M128.01 46.1999C126.5 45.7499 125.09 45.2599 123.78 44.7699C121.65 45.2999 115.45 46.1799 105.32 42.6299C109.78 45.0899 120.17 48.3199 128.01 46.1999Z" fill="white"/>
    <path d="M134.97 36.7698C133.95 34.8698 132.25 33.4498 130.18 32.7698C129.04 32.3998 127.87 32.2798 126.71 32.3898C127.24 32.4598 127.77 32.5798 128.29 32.7498C132.52 34.1398 134.91 38.4598 133.63 42.3898C133.62 42.4298 133.58 42.4598 133.56 42.4898C134.52 42.6598 135.26 42.7398 135.65 42.7098C136.2 40.7198 135.97 38.6198 134.97 36.7698V36.7698Z" fill="#77A4F2"/>
</svg>
