<svg width="535" height="236" viewBox="0 0 535 236" fill="none" xmlns="http://www.w3.org/2000/svg">
<path d="M0.5 10C0.5 4.7533 4.75329 0.5 10 0.5H525C530.247 0.5 534.5 4.7533 534.5 10V226C534.5 231.247 530.247 235.5 525 235.5H10C4.7533 235.5 0.5 231.247 0.5 226V10Z" fill="url(#paint0_linear_17565_228963)" stroke="#503EAA"/>
<path opacity="0.6" d="M209.948 215.838C208.521 215.838 207.364 214.3 207.364 212.403C207.364 210.506 208.521 208.969 209.948 208.969C211.374 208.969 212.531 210.506 212.531 212.403C212.531 214.3 211.374 215.838 209.948 215.838Z" fill="#77A4F2"/>
<path opacity="0.2" d="M12.1438 78.9944C10.8921 78.9944 9.87737 77.6455 9.87737 75.9816C9.87737 74.3176 10.8921 72.9688 12.1438 72.9688C13.3955 72.9688 14.4102 74.3176 14.4102 75.9816C14.4102 77.6455 13.3955 78.9944 12.1438 78.9944Z" fill="#77A4F2"/>
<path d="M273.033 25.6128C271.861 25.6128 270.911 24.3493 270.911 22.7908C270.911 21.2322 271.861 19.9688 273.033 19.9688C274.206 19.9688 275.156 21.2322 275.156 22.7908C275.156 24.3493 274.206 25.6128 273.033 25.6128Z" fill="#77A4F2"/>
<path d="M247.981 79.9858C247.147 79.9858 246.47 79.0866 246.47 77.9773C246.47 76.868 247.147 75.9688 247.981 75.9688C248.816 75.9688 249.492 76.868 249.492 77.9773C249.492 79.0866 248.816 79.9858 247.981 79.9858Z" fill="#77A4F2"/>
<path d="M436.6 220.805C435.803 220.805 435.157 219.946 435.157 218.887C435.157 217.828 435.803 216.969 436.6 216.969C437.397 216.969 438.043 217.828 438.043 218.887C438.043 219.946 437.397 220.805 436.6 220.805Z" fill="#77A4F2"/>
<path opacity="0.6" d="M62.5206 162.769C61.5234 162.769 60.715 161.695 60.715 160.369C60.715 159.043 61.5234 157.969 62.5206 157.969C63.5178 157.969 64.3262 159.043 64.3262 160.369C64.3262 161.695 63.5178 162.769 62.5206 162.769Z" fill="#77A4F2"/>
<path d="M453.5 42C451.567 42 450 40.433 450 38.5C450 36.567 451.567 35 453.5 35C455.433 35 457 36.567 457 38.5C457 40.433 455.433 42 453.5 42Z" fill="#77A4F2"/>
<path d="M510.446 71.2632C509.612 71.2632 508.935 70.3639 508.935 69.2546C508.935 68.1453 509.612 67.2461 510.446 67.2461C511.281 67.2461 511.957 68.1453 511.957 69.2546C511.957 70.3639 511.281 71.2632 510.446 71.2632Z" fill="#77A4F2"/>
<path d="M517.247 13.0171C516.412 13.0171 515.736 12.1178 515.736 11.0085C515.736 9.89924 516.412 9 517.247 9C518.081 9 518.758 9.89924 518.758 11.0085C518.758 12.1178 518.081 13.0171 517.247 13.0171Z" fill="#77A4F2"/>
<path opacity="0.5" d="M423.473 141.619L422.181 155.679L413.44 157.406C413.317 157.434 413.205 157.519 413.125 157.646C413.044 157.773 413 157.933 413 158.099C413 158.265 413.044 158.426 413.125 158.553C413.205 158.679 413.317 158.764 413.44 158.792L422.181 160.51L423.473 174.569C423.488 174.74 423.55 174.897 423.647 175.011C423.744 175.125 423.868 175.188 423.998 175.188C424.127 175.188 424.252 175.125 424.349 175.011C424.445 174.897 424.507 174.74 424.523 174.569L425.815 160.51L434.125 158.792C434.248 158.764 434.359 158.679 434.44 158.553C434.52 158.426 434.564 158.265 434.564 158.099C434.564 157.933 434.52 157.773 434.44 157.646C434.359 157.519 434.248 157.434 434.125 157.406L425.815 155.679L424.523 141.619C424.507 141.448 424.445 141.291 424.349 141.177C424.252 141.063 424.127 141 423.998 141C423.868 141 423.744 141.063 423.647 141.177C423.55 141.291 423.488 141.448 423.473 141.619Z" fill="#77A4F2"/>
<path opacity="0.3" d="M519.18 219.776C518.162 219.776 517.337 218.679 517.337 217.325C517.337 215.972 518.162 214.875 519.18 214.875C520.198 214.875 521.023 215.972 521.023 217.325C521.023 218.679 520.198 219.776 519.18 219.776Z" fill="#77A4F2"/>
<path opacity="0.4" d="M417.368 104.279C438.161 109.382 456.195 117.394 451.658 131.386C457.196 121.193 452.136 110.538 418.05 102.262L417.368 104.279Z" fill="url(#paint1_linear_17565_228963)"/>
<path opacity="0.4" d="M428.489 64.0977C443.307 68.6765 470.797 78.7155 480.736 88.2002C480.736 88.2002 467.627 77.7082 423.403 65.419L428.489 64.0977Z" fill="url(#paint2_linear_17565_228963)"/>
<path d="M422.741 75.7445L434.758 66.7319C429.402 62.5843 419.512 57.1549 411.149 56.9453" fill="#88D1C3"/>
<path d="M384.356 88.6768C369.991 80.9402 361.478 68.9125 365.342 61.8122C369.206 54.7119 383.983 55.2277 398.348 62.9643C412.713 70.7009 421.225 82.7286 417.361 89.8289C413.497 96.9292 398.72 96.4134 384.356 88.6768Z" fill="#77A4F2"/>
<path d="M388.682 80.7197C374.317 72.9831 365.805 60.9555 369.668 53.8552C373.532 46.7549 388.309 47.2707 402.674 55.0073C417.039 62.7439 425.551 74.7716 421.687 81.8719C417.824 88.9722 403.047 88.4563 388.682 80.7197Z" fill="white"/>
<path d="M393.428 78.6244C380.602 71.7165 372.546 61.8128 375.435 56.5037C378.325 51.1946 391.064 52.4907 403.89 59.3985C416.716 66.3063 424.771 76.2101 421.882 81.5192C418.993 86.8282 406.254 85.5322 393.428 78.6244Z" fill="#88D1C3"/>
<path d="M373.66 68.8913L369.791 76.0055C369.791 76.0055 367.895 74.6069 367.21 73.313C366.525 72.0192 363.539 66.9445 365.541 63.1436C367.542 59.3426 368.377 58.1616 369.062 60.2737C369.746 62.3858 373.66 68.8913 373.66 68.8913Z" fill="white"/>
<path d="M405.661 86.5573C410.117 87.1902 412.058 86.9604 414.854 86.2188C417.649 85.4771 417.353 86.5453 418.958 88.4276C420.562 90.3099 425.416 104.982 425.416 104.982C425.416 104.982 419.476 105.723 412.645 102.043C405.815 98.3632 389.47 87.7182 389.551 84.0704C389.633 80.4226 391.026 83.228 395.353 84.3163C399.68 85.4046 405.661 86.5573 405.661 86.5573Z" fill="#88D1C3"/>
<path d="M433.22 67.1681C426.118 63.6251 418.14 60.3643 413.684 61.4848C413.684 61.4848 411.212 57.3735 411.974 56.9825C412.736 56.5916 429.144 62.7827 432.333 64.9835C435.522 67.1842 433.22 67.1681 433.22 67.1681Z" fill="white"/>
<path d="M415.55 74.754C419.33 75.6117 423.01 76.8543 426.534 78.4623C429.273 79.7884 430.371 80.2882 430.253 81.5619C430.136 82.8356 427.166 90.4294 425.647 91.3242C424.127 92.219 421.692 91.038 420.785 89.0348C419.877 87.0315 419.861 85.9594 417.138 82.9888C414.416 80.0181 409.586 74.5807 415.55 74.754Z" fill="#88D1C3"/>
<path d="M429.436 83.0624C424.807 80.4851 419.817 78.6103 414.631 77.5L416.406 80.6238L428.459 87.1132L429.436 83.0624Z" fill="white"/>
<path d="M423.882 103.28C419.113 101.627 405.342 96.7745 396.331 85.682C396.331 85.682 390.189 81.7763 389.289 81.8891C388.39 82.002 395.026 92.0586 404.098 96.8752C413.169 101.692 425.409 106.932 423.882 103.28Z" fill="white"/>
<path d="M382.137 58.5275C377.652 66.7662 407.662 82.9132 412.118 74.6744C413.23 72.7128 413.938 70.5505 414.201 68.3138C414.464 66.0771 414.276 63.8107 413.65 61.6468C413.023 59.4829 411.969 57.4649 410.55 55.7104C409.131 53.956 407.375 52.5003 405.384 51.4282C403.393 50.3561 401.208 49.6891 398.955 49.4662C396.703 49.2432 394.428 49.4687 392.264 50.1295C390.1 50.7904 388.09 51.8733 386.352 53.3151C384.613 54.757 383.18 56.5289 382.137 58.5275Z" fill="#88D1C3"/>
<path d="M362.802 54.0347L368.697 57.2028L367.324 59.73L361.425 56.5539C360.493 56.2314 361.797 53.4623 362.802 54.0347Z" fill="#77A4F2"/>
<path d="M364.643 61.6361L369.055 53.5344C372.086 48.0849 380.558 46.4363 391.229 49.1893C394.906 47.9349 398.889 47.8745 402.602 49.0169C406.316 50.1593 409.569 52.4455 411.892 55.5457C420.109 56.0133 429.452 60.9549 435.076 65.1549C435.319 65.3369 435.516 65.5732 435.651 65.8448C435.786 66.1164 435.856 66.4157 435.853 66.7188C435.85 67.0275 435.775 67.3314 435.634 67.6067C435.494 67.8821 435.291 68.1216 435.043 68.3069L425.372 75.5621C426.97 76.2174 428.531 76.9588 430.048 77.783C433.042 79.3953 431.356 85.7074 429.201 89.6695C427.58 92.6603 425.688 94.8248 423.881 95.8849L426.434 103.503C426.535 103.816 426.561 104.149 426.511 104.474C426.461 104.8 426.336 105.109 426.145 105.378C425.954 105.647 425.703 105.868 425.411 106.024C425.119 106.18 424.795 106.266 424.464 106.276C424.329 106.281 424.193 106.271 424.059 106.248C418.971 105.442 408.189 102.302 399.081 95.8607V95.897C393.88 94.7714 388.869 92.9048 384.204 90.3548C368.95 82.1281 360.356 69.5201 364.643 61.6361ZM371.555 54.9733C369.971 57.8835 370.891 62.0109 374.144 66.5938C377.608 71.471 383.219 76.1546 389.945 79.7822C399.916 85.1552 410.539 87.0939 416.685 84.8287L411.224 77.4606C410.043 78.0595 408.737 78.3717 407.411 78.3715C403.307 78.4844 397.935 76.6746 393.049 74.0425C384.945 69.6854 378.038 62.9864 380.837 57.8432C382.292 55.163 384.396 52.8866 386.959 51.2208C379.427 49.9471 373.552 51.3054 371.555 54.9733ZM404.563 52.958C402.162 51.6594 399.459 51.013 396.727 51.0837C395.354 51.1243 393.992 51.3424 392.676 51.7327C390.71 52.3087 388.879 53.2669 387.287 54.5517C385.696 55.8365 384.377 57.4224 383.406 59.2177C382.47 60.9428 384.131 63.2967 385.282 64.6228C384.828 63.47 384.783 62.3737 385.31 61.3983C386.832 58.5935 389.241 56.3663 392.165 55.062C395.088 53.7576 398.362 53.4488 401.48 54.1835C404.597 54.9181 407.384 56.6552 409.409 59.1255C411.434 61.5958 412.583 64.6614 412.678 67.8474C412.919 64.8488 412.281 61.845 410.841 59.2001C409.4 56.5552 407.22 54.3827 404.563 52.9459V52.958ZM432.349 66.7389C427.22 63.1113 420.044 59.5723 413.768 58.6211C414.29 59.7035 414.705 60.8332 415.008 61.9948C419.116 65.7232 422.029 69.6531 423.48 73.3896L432.349 66.7389ZM414.372 73.188C414.587 73.188 414.777 73.2324 415.012 73.2485C416.904 73.3591 418.784 73.6165 420.636 74.0184C419.635 71.6483 417.913 69.113 415.62 66.6261C415.618 68.8773 415.197 71.1088 414.38 73.2082L414.372 73.188ZM426.288 88.9481C426.417 88.7304 426.547 88.545 426.693 88.2991C428.921 84.1999 429.059 80.798 428.719 80.3022C422.021 76.6947 418.363 76.4086 414.818 76.1304C414.485 76.1063 414.153 76.0619 413.821 76.0337L419.242 83.4018C419.819 84.1767 420.269 85.0379 420.575 85.9532L421.385 88.3717L423.411 89.4559C423.869 89.7388 424.416 89.8434 424.947 89.7497C425.478 89.6559 425.955 89.3705 426.288 88.9481ZM423.294 103.188L418.067 87.3841C415.949 88.1831 413.708 88.6087 411.443 88.6417C405.475 88.8029 398.154 87.0294 390.913 83.5026C398.696 95.897 415.575 101.653 423.294 103.188ZM393.717 91.4068C392.481 90.215 391.329 88.9396 390.269 87.5897L389.179 89.6051C390.678 90.2782 392.198 90.8787 393.717 91.4068ZM385.614 87.8195C386.197 88.1338 386.784 88.4375 387.372 88.7304L388.993 85.7799C388.205 84.6043 387.5 83.376 386.882 82.1039L384.168 87.0294C384.638 87.2834 385.099 87.5615 385.586 87.8356L385.614 87.8195ZM382.466 85.9774L385.464 80.4634C384.423 79.8226 383.41 79.1575 382.438 78.4683L379.452 83.954C380.397 84.6473 381.392 85.3218 382.438 85.9774H382.466ZM377.823 82.7327L380.752 77.2631C379.763 76.5093 378.803 75.7354 377.916 74.9414L374.966 80.3627C375.854 81.1648 376.802 81.9548 377.794 82.7327H377.823ZM373.459 78.9157L376.389 73.5306C375.449 72.6278 374.586 71.7007 373.779 70.7656L370.895 76.0659C371.701 77.0582 372.557 78.0093 373.459 78.9157ZM369.566 74.2924L372.402 69.0525C372.195 68.7785 371.972 68.5084 371.778 68.2464C371.189 67.4078 370.648 66.5372 370.157 65.6385L367.467 70.5721C368.043 71.8782 368.747 73.1244 369.57 74.2924H369.566ZM366.628 67.9038L369.084 63.3975C368.759 62.6019 368.496 61.7826 368.298 60.9468L367.175 63.0105C366.418 64.4132 366.28 66.0698 366.632 67.9038H366.628Z" fill="#38237C"/>
<path d="M358.504 57.8393C356.016 57.8393 353.999 55.8325 353.999 53.3571C353.999 50.8817 356.016 48.875 358.504 48.875C360.993 48.875 363.01 50.8817 363.01 53.3571C363.01 55.8325 360.993 57.8393 358.504 57.8393Z" fill="#88D1C3"/>
<path d="M451.958 95.5495C443.259 91.6712 439.653 84.3521 436.683 84.1353C435.535 83.8219 434.338 84.0572 433.311 84.7982C432.284 85.5392 431.496 86.7366 431.09 88.1719C430.684 89.6072 430.688 91.1848 431.1 92.6169C431.513 94.049 432.306 95.2402 433.337 95.9731L433.384 96.0049C436.558 98.2763 441.658 96.1084 450.583 100.832C472.192 112.27 483.719 127.795 478.924 149.389C472.514 178.239 405.051 225.758 362.998 235.143H468.468C468.468 235.143 500.263 213.049 506.697 182.132C520.589 115.379 464.249 101.029 451.958 95.5495Z" fill="url(#paint3_linear_17565_228963)"/>
<defs>
<linearGradient id="paint0_linear_17565_228963" x1="267.489" y1="8.38375" x2="267.489" y2="245.062" gradientUnits="userSpaceOnUse">
<stop stop-color="#160E3F"/>
<stop offset="0.796875" stop-color="#26185C"/>
<stop offset="1" stop-color="#321F71"/>
</linearGradient>
<linearGradient id="paint1_linear_17565_228963" x1="423.39" y1="99.4558" x2="463.57" y2="140.209" gradientUnits="userSpaceOnUse">
<stop stop-color="#7FFFE0" stop-opacity="0.5"/>
<stop offset="0.14" stop-color="#7DF7DC" stop-opacity="0.48"/>
<stop offset="0.34" stop-color="#76DFD1" stop-opacity="0.41"/>
<stop offset="0.56" stop-color="#6CB8BF" stop-opacity="0.3"/>
<stop offset="0.81" stop-color="#5E82A6" stop-opacity="0.14"/>
<stop offset="1" stop-color="#50508E" stop-opacity="0"/>
</linearGradient>
<linearGradient id="paint2_linear_17565_228963" x1="433.596" y1="58.1632" x2="480.251" y2="107.741" gradientUnits="userSpaceOnUse">
<stop stop-color="#7FFFE0" stop-opacity="0.5"/>
<stop offset="0.14" stop-color="#7DF7DC" stop-opacity="0.48"/>
<stop offset="0.34" stop-color="#76DFD1" stop-opacity="0.41"/>
<stop offset="0.56" stop-color="#6CB8BF" stop-opacity="0.3"/>
<stop offset="0.81" stop-color="#5E82A6" stop-opacity="0.14"/>
<stop offset="1" stop-color="#50508E" stop-opacity="0"/>
</linearGradient>
<linearGradient id="paint3_linear_17565_228963" x1="429.702" y1="96.6533" x2="443.322" y2="291.41" gradientUnits="userSpaceOnUse">
<stop stop-color="#FF8080"/>
<stop offset="1" stop-color="#FF8080" stop-opacity="0"/>
</linearGradient>
</defs>
</svg>
