<svg width="535" height="236" viewBox="0 0 535 236" fill="none" xmlns="http://www.w3.org/2000/svg">
<path d="M0.5 10C0.5 4.7533 4.75329 0.5 10 0.5H525C530.247 0.5 534.5 4.7533 534.5 10V226C534.5 231.247 530.247 235.5 525 235.5H10C4.7533 235.5 0.5 231.247 0.5 226V10Z" fill="url(#paint0_linear_17565_228963)" stroke="#503EAA"/>
<path d="M460.001 95.905C451.302 92.0266 447.696 84.7075 444.726 84.4907C443.577 84.1773 442.381 84.4126 441.354 85.1536C440.327 85.8947 439.539 87.0921 439.133 88.5274C438.727 89.9627 438.731 91.5403 439.143 92.9724C439.556 94.4045 440.349 95.5957 441.38 96.3286L441.427 96.3604C444.601 98.6317 449.701 96.4638 458.626 101.187C480.235 112.626 491.762 128.151 486.967 149.744C480.557 178.595 413.094 226.113 371.041 235.499H476.511C476.511 235.499 508.306 213.405 514.74 182.487C528.632 115.734 472.292 101.384 460.001 95.905Z" fill="url(#paint1_linear_17565_228963)"/>
<path opacity="0.4" d="M400.37 102.443C421.163 107.546 439.197 115.558 434.66 129.55C440.198 119.357 435.138 108.702 401.052 100.426L400.37 102.443Z" fill="url(#paint2_linear_17565_228963)"/>
<path opacity="0.4" d="M411.49 62.2617C426.309 66.8405 453.799 76.8796 463.738 86.3643C463.738 86.3643 450.629 75.8723 406.405 63.583L411.49 62.2617Z" fill="url(#paint3_linear_17565_228963)"/>
<path d="M405.745 73.9085L417.762 64.8959C412.406 60.7483 402.516 55.319 394.153 55.1094" fill="#88D1C3"/>
<path d="M367.358 86.8408C352.993 79.1042 344.48 67.0765 348.344 59.9762C352.208 52.8759 366.985 53.3918 381.35 61.1284C395.715 68.865 404.227 80.8926 400.363 87.9929C396.499 95.0932 381.722 94.5774 367.358 86.8408Z" fill="#77A4F2"/>
<path d="M371.682 78.8838C357.317 71.1472 348.805 59.1195 352.668 52.0192C356.532 44.9189 371.309 45.4347 385.674 53.1713C400.039 60.9079 408.551 72.9356 404.687 80.0359C400.824 87.1362 386.047 86.6204 371.682 78.8838Z" fill="white"/>
<path d="M376.432 76.7884C363.606 69.8806 355.55 59.9769 358.439 54.6678C361.328 49.3587 374.068 50.6548 386.894 57.5626C399.72 64.4704 407.775 74.3742 404.886 79.6832C401.997 84.9923 389.257 83.6963 376.432 76.7884Z" fill="#88D1C3"/>
<path d="M356.664 67.0554L352.795 74.1696C352.795 74.1696 350.899 72.7709 350.214 71.4771C349.529 70.1832 346.543 65.1086 348.545 61.3076C350.546 57.5067 351.381 56.3257 352.066 58.4378C352.75 60.5499 356.664 67.0554 356.664 67.0554Z" fill="white"/>
<path d="M388.662 84.7214C393.119 85.3542 395.06 85.1245 397.856 84.3828C400.651 83.6412 400.355 84.7093 401.96 86.5916C403.564 88.474 408.418 103.146 408.418 103.146C408.418 103.146 402.478 103.887 395.647 100.207C388.816 96.5273 372.472 85.8822 372.553 82.2345C372.634 78.5867 374.028 81.392 378.355 82.4803C382.682 83.5686 388.662 84.7214 388.662 84.7214Z" fill="#88D1C3"/>
<path d="M416.22 65.3322C409.118 61.7892 401.14 58.5284 396.684 59.6489C396.684 59.6489 394.212 55.5376 394.974 55.1466C395.736 54.7556 412.144 60.9468 415.333 63.1475C418.522 65.3483 416.22 65.3322 416.22 65.3322Z" fill="white"/>
<path d="M398.554 72.9181C402.334 73.7758 406.014 75.0184 409.538 76.6263C412.277 77.9524 413.375 78.4522 413.257 79.7259C413.14 80.9996 410.17 88.5935 408.651 89.4883C407.131 90.3831 404.696 89.2021 403.789 87.1989C402.881 85.1956 402.865 84.1234 400.142 81.1528C397.42 78.1822 392.59 72.7448 398.554 72.9181Z" fill="#88D1C3"/>
<path d="M412.438 81.2264C407.809 78.6492 402.819 76.7744 397.633 75.6641L399.408 78.7879L411.461 85.2773L412.438 81.2264Z" fill="white"/>
<path d="M406.882 101.444C402.113 99.7915 388.342 94.9385 379.331 83.8461C379.331 83.8461 373.189 79.9403 372.289 80.0532C371.39 80.166 378.026 90.2226 387.098 95.0393C396.169 99.856 408.409 105.096 406.882 101.444Z" fill="white"/>
<path d="M365.141 56.6915C360.656 64.9303 390.666 81.0772 395.122 72.8385C396.234 70.8768 396.942 68.7146 397.205 66.4779C397.468 64.2412 397.28 61.9747 396.653 59.8109C396.027 57.647 394.973 55.6289 393.554 53.8745C392.135 52.1201 390.378 50.6643 388.388 49.5923C386.397 48.5202 384.212 47.8532 381.959 47.6302C379.707 47.4072 377.432 47.6328 375.268 48.2936C373.104 48.9544 371.094 50.0374 369.355 51.4792C367.617 52.921 366.184 54.6929 365.141 56.6915Z" fill="#88D1C3"/>
<path d="M345.804 52.1987L351.699 55.3669L350.326 57.8941L344.427 54.7179C343.495 54.3955 344.799 51.6264 345.804 52.1987Z" fill="#77A4F2"/>
<path d="M347.645 59.8001L352.057 51.6984C355.088 46.2489 363.56 44.6004 374.231 47.3533C377.908 46.099 381.891 46.0386 385.604 47.181C389.318 48.3234 392.571 50.6095 394.894 53.7098C403.111 54.1773 412.454 59.1189 418.078 63.3189C418.321 63.501 418.518 63.7373 418.653 64.0089C418.788 64.2805 418.858 64.5798 418.855 64.8828C418.852 65.1916 418.777 65.4954 418.636 65.7708C418.496 66.0461 418.293 66.2857 418.045 66.4709L408.374 73.7262C409.972 74.3814 411.533 75.1228 413.05 75.9471C416.044 77.5594 414.358 83.8714 412.203 87.8336C410.582 90.8244 408.69 92.9889 406.883 94.0489L409.436 101.667C409.537 101.98 409.563 102.313 409.513 102.639C409.463 102.964 409.338 103.273 409.147 103.542C408.956 103.811 408.704 104.032 408.413 104.188C408.121 104.344 407.797 104.43 407.466 104.44C407.331 104.445 407.195 104.435 407.061 104.412C401.973 103.606 391.191 100.466 382.083 94.0248V94.061C376.882 92.9355 371.871 91.0688 367.206 88.5188C351.952 80.2922 343.358 67.6842 347.645 59.8001ZM354.557 53.1374C352.973 56.0476 353.892 60.175 357.146 64.7579C360.61 69.635 366.221 74.3187 372.947 77.9463C382.918 83.3192 393.541 85.258 399.687 82.9927L394.226 75.6246C393.045 76.2236 391.739 76.5357 390.413 76.5356C386.309 76.6484 380.937 74.8387 376.051 72.2066C367.947 67.8494 361.039 61.1504 363.839 56.0072C365.294 53.327 367.398 51.0507 369.961 49.3848C362.429 48.1111 356.554 49.4695 354.557 53.1374ZM387.565 51.122C385.164 49.8235 382.461 49.177 379.729 49.2478C378.356 49.2884 376.994 49.5065 375.678 49.8967C373.712 50.4728 371.881 51.431 370.289 52.7157C368.698 54.0005 367.379 55.5864 366.408 57.3817C365.472 59.1069 367.133 61.4608 368.284 62.7869C367.83 61.6341 367.785 60.5378 368.312 59.5623C369.834 56.7575 372.243 54.5304 375.167 53.226C378.09 51.9217 381.364 51.6129 384.482 52.3475C387.599 53.0822 390.386 54.8192 392.411 57.2895C394.436 59.7598 395.585 62.8255 395.68 66.0114C395.921 63.0129 395.283 60.0091 393.843 57.3642C392.402 54.7193 390.222 52.5468 387.565 51.11V51.122ZM415.351 64.903C410.222 61.2754 403.046 57.7364 396.77 56.7852C397.291 57.8675 397.707 58.9973 398.01 60.1589C402.118 63.8873 405.031 67.8172 406.482 71.5536L415.351 64.903ZM397.374 71.3521C397.589 71.3521 397.779 71.3964 398.014 71.4126C399.906 71.5231 401.786 71.7805 403.638 72.1824C402.637 69.8124 400.915 67.2771 398.622 64.7901C398.619 67.0414 398.199 69.2729 397.382 71.3722L397.374 71.3521ZM409.29 87.1121C409.419 86.8945 409.549 86.709 409.695 86.4632C411.923 82.364 412.061 78.9621 411.721 78.4663C405.023 74.8588 401.365 74.5726 397.82 74.2945C397.487 74.2703 397.155 74.226 396.823 74.1978L402.244 81.5659C402.821 82.3407 403.271 83.2019 403.577 84.1173L404.387 86.5357L406.413 87.62C406.871 87.9028 407.418 88.0074 407.949 87.9137C408.48 87.82 408.957 87.5345 409.29 87.1121ZM406.296 101.353L401.069 85.5482C398.951 86.3472 396.709 86.7728 394.445 86.8058C388.477 86.967 381.156 85.1935 373.915 81.6666C381.698 94.061 398.577 99.8169 406.296 101.353ZM376.719 89.5708C375.483 88.3791 374.331 87.1037 373.271 85.7538L372.181 87.7691C373.68 88.4422 375.2 89.0428 376.719 89.5708ZM368.616 85.9835C369.199 86.2979 369.785 86.6016 370.374 86.8945L371.995 83.944C371.207 82.7683 370.502 81.5401 369.884 80.268L367.169 85.1935C367.639 85.4474 368.101 85.7256 368.588 85.9996L368.616 85.9835ZM365.468 84.1415L368.466 78.6275C367.425 77.9866 366.412 77.3216 365.439 76.6323L362.453 82.1181C363.399 82.8114 364.394 83.4858 365.439 84.1415H365.468ZM360.825 80.8968L363.754 75.4271C362.765 74.6734 361.805 73.8995 360.918 73.1055L357.968 78.5267C358.856 79.3288 359.804 80.1189 360.796 80.8968H360.825ZM356.461 77.0797L359.39 71.6947C358.451 70.7918 357.588 69.8648 356.781 68.9297L353.897 74.23C354.703 75.2223 355.559 76.1734 356.461 77.0797ZM352.568 72.4565L355.404 67.2166C355.197 66.9425 354.974 66.6725 354.78 66.4105C354.191 65.5719 353.65 64.7012 353.159 63.8026L350.469 68.7362C351.045 70.0423 351.749 71.2885 352.572 72.4565H352.568ZM349.63 66.0679L352.085 61.5615C351.76 60.766 351.498 59.9467 351.299 59.1109L350.177 61.1746C349.42 62.5773 349.282 64.2339 349.634 66.0679H349.63Z" fill="#38237C"/>
<path d="M341.506 56.0033C339.018 56.0033 337.001 53.9966 337.001 51.5212C337.001 49.0458 339.018 47.0391 341.506 47.0391C343.995 47.0391 346.012 49.0458 346.012 51.5212C346.012 53.9966 343.995 56.0033 341.506 56.0033Z" fill="#88D1C3"/>
<path opacity="0.6" d="M209.948 215.838C208.521 215.838 207.364 214.3 207.364 212.403C207.364 210.506 208.521 208.969 209.948 208.969C211.374 208.969 212.531 210.506 212.531 212.403C212.531 214.3 211.374 215.838 209.948 215.838Z" fill="#77A4F2"/>
<path opacity="0.2" d="M12.1438 78.9944C10.8921 78.9944 9.87737 77.6455 9.87737 75.9816C9.87737 74.3176 10.8921 72.9688 12.1438 72.9688C13.3955 72.9688 14.4102 74.3176 14.4102 75.9816C14.4102 77.6455 13.3955 78.9944 12.1438 78.9944Z" fill="#77A4F2"/>
<path d="M273.033 25.6128C271.861 25.6128 270.911 24.3493 270.911 22.7908C270.911 21.2322 271.861 19.9688 273.033 19.9688C274.206 19.9688 275.156 21.2322 275.156 22.7908C275.156 24.3493 274.206 25.6128 273.033 25.6128Z" fill="#77A4F2"/>
<path d="M247.981 79.9858C247.147 79.9858 246.47 79.0866 246.47 77.9773C246.47 76.868 247.147 75.9688 247.981 75.9688C248.816 75.9688 249.492 76.868 249.492 77.9773C249.492 79.0866 248.816 79.9858 247.981 79.9858Z" fill="#77A4F2"/>
<path d="M436.6 220.805C435.803 220.805 435.157 219.946 435.157 218.887C435.157 217.828 435.803 216.969 436.6 216.969C437.397 216.969 438.043 217.828 438.043 218.887C438.043 219.946 437.397 220.805 436.6 220.805Z" fill="#77A4F2"/>
<path opacity="0.6" d="M62.5206 162.769C61.5234 162.769 60.715 161.695 60.715 160.369C60.715 159.043 61.5234 157.969 62.5206 157.969C63.5178 157.969 64.3262 159.043 64.3262 160.369C64.3262 161.695 63.5178 162.769 62.5206 162.769Z" fill="#77A4F2"/>
<path d="M453.5 42C451.567 42 450 40.433 450 38.5C450 36.567 451.567 35 453.5 35C455.433 35 457 36.567 457 38.5C457 40.433 455.433 42 453.5 42Z" fill="#77A4F2"/>
<path d="M510.446 71.2632C509.612 71.2632 508.935 70.3639 508.935 69.2546C508.935 68.1453 509.612 67.2461 510.446 67.2461C511.281 67.2461 511.957 68.1453 511.957 69.2546C511.957 70.3639 511.281 71.2632 510.446 71.2632Z" fill="#77A4F2"/>
<path d="M517.247 13.0171C516.412 13.0171 515.736 12.1178 515.736 11.0085C515.736 9.89924 516.412 9 517.247 9C518.081 9 518.758 9.89924 518.758 11.0085C518.758 12.1178 518.081 13.0171 517.247 13.0171Z" fill="#77A4F2"/>
<path opacity="0.5" d="M423.473 141.619L422.181 155.679L413.44 157.406C413.317 157.434 413.205 157.519 413.125 157.646C413.044 157.773 413 157.933 413 158.099C413 158.265 413.044 158.426 413.125 158.553C413.205 158.679 413.317 158.764 413.44 158.792L422.181 160.51L423.473 174.569C423.488 174.74 423.55 174.897 423.647 175.011C423.744 175.125 423.868 175.188 423.998 175.188C424.127 175.188 424.252 175.125 424.349 175.011C424.445 174.897 424.507 174.74 424.523 174.569L425.815 160.51L434.125 158.792C434.248 158.764 434.359 158.679 434.44 158.553C434.52 158.426 434.564 158.265 434.564 158.099C434.564 157.933 434.52 157.773 434.44 157.646C434.359 157.519 434.248 157.434 434.125 157.406L425.815 155.679L424.523 141.619C424.507 141.448 424.445 141.291 424.349 141.177C424.252 141.063 424.127 141 423.998 141C423.868 141 423.744 141.063 423.647 141.177C423.55 141.291 423.488 141.448 423.473 141.619Z" fill="#77A4F2"/>
<path opacity="0.3" d="M519.18 219.776C518.162 219.776 517.337 218.679 517.337 217.325C517.337 215.972 518.162 214.875 519.18 214.875C520.198 214.875 521.023 215.972 521.023 217.325C521.023 218.679 520.198 219.776 519.18 219.776Z" fill="#77A4F2"/>
<defs>
<linearGradient id="paint0_linear_17565_228963" x1="267.489" y1="8.38375" x2="267.489" y2="245.062" gradientUnits="userSpaceOnUse">
<stop stop-color="#160E3F"/>
<stop offset="0.796875" stop-color="#26185C"/>
<stop offset="1" stop-color="#321F71"/>
</linearGradient>
<linearGradient id="paint1_linear_17565_228963" x1="437.745" y1="97.0088" x2="451.365" y2="291.766" gradientUnits="userSpaceOnUse">
<stop stop-color="#FF8080"/>
<stop offset="1" stop-color="#FF8080" stop-opacity="0"/>
</linearGradient>
<linearGradient id="paint2_linear_17565_228963" x1="406.392" y1="97.6199" x2="446.572" y2="138.373" gradientUnits="userSpaceOnUse">
<stop stop-color="#7FFFE0" stop-opacity="0.5"/>
<stop offset="0.14" stop-color="#7DF7DC" stop-opacity="0.48"/>
<stop offset="0.34" stop-color="#76DFD1" stop-opacity="0.41"/>
<stop offset="0.56" stop-color="#6CB8BF" stop-opacity="0.3"/>
<stop offset="0.81" stop-color="#5E82A6" stop-opacity="0.14"/>
<stop offset="1" stop-color="#50508E" stop-opacity="0"/>
</linearGradient>
<linearGradient id="paint3_linear_17565_228963" x1="416.598" y1="56.3272" x2="463.252" y2="105.905" gradientUnits="userSpaceOnUse">
<stop stop-color="#7FFFE0" stop-opacity="0.5"/>
<stop offset="0.14" stop-color="#7DF7DC" stop-opacity="0.48"/>
<stop offset="0.34" stop-color="#76DFD1" stop-opacity="0.41"/>
<stop offset="0.56" stop-color="#6CB8BF" stop-opacity="0.3"/>
<stop offset="0.81" stop-color="#5E82A6" stop-opacity="0.14"/>
<stop offset="1" stop-color="#50508E" stop-opacity="0"/>
</linearGradient>
</defs>
</svg>
