<svg width="80" height="16" viewBox="0 0 80 16" fill="none" xmlns="http://www.w3.org/2000/svg">
<path d="M5.76469 7.54248L2.71143 5.36964C4.01795 4.29451 6.43912 2.86664 8.51883 2.75659" fill="#86D4C9"/>
<path d="M15.4042 10.5229C18.9259 8.48838 20.9605 5.41818 19.953 3.6658C18.9428 1.91342 15.2687 2.14482 11.747 4.17938C8.22536 6.21395 6.19079 9.28415 7.1982 11.0365C8.20842 12.7889 11.8825 12.5575 15.4042 10.5229Z" fill="#77A4F2"/>
<path d="M1.98377 10.5649C1.14004 11.0531 0.234215 12.4302 0 13.384C0.939682 13.6577 2.58483 13.5617 3.42857 13.0736C4.11993 12.6729 4.35697 11.7896 3.95908 11.0954C3.55838 10.4013 2.67513 10.167 1.98377 10.5649Z" fill="#FF8486"/>
<path d="M14.2733 8.55884C17.795 6.52427 19.8296 3.45407 18.8222 1.70169C17.812 -0.0506892 14.1379 0.180704 10.6162 2.21527C7.0945 4.24984 5.05993 7.32003 6.06734 9.07242C7.07757 10.8248 10.7516 10.5934 14.2733 8.55884Z" fill="white"/>
<path d="M13.077 8.06517C16.2205 6.24789 18.1563 3.71385 17.4029 2.4045C16.6466 1.09515 13.4861 1.50714 10.3426 3.32443C7.19901 5.14171 5.26321 7.67575 6.01665 8.9851C6.77291 10.2944 9.9334 9.88245 13.077 8.06517Z" fill="#86D4C9"/>
<path d="M17.9301 5.48546L18.9403 7.24066C18.9403 7.24066 19.4031 6.87664 19.5639 6.5493C19.7248 6.22197 20.4331 4.92955 19.9082 3.98987C19.3833 3.05019 19.166 2.76236 19.0137 3.29569C18.8613 3.82902 17.9272 5.48546 17.9272 5.48546H17.9301Z" fill="white"/>
<path d="M10.088 10.1364C8.9875 10.3255 8.49932 10.2831 7.79949 10.1138C7.09967 9.94735 7.17868 10.2126 6.79209 10.6951C6.40549 11.1777 5.29932 14.8856 5.29932 14.8856C5.29932 14.8856 6.78362 15.0295 8.45699 14.0616C10.1304 13.0937 14.1261 10.317 14.0838 9.40272C14.0415 8.48844 13.7113 9.20237 12.6418 9.50431C11.5723 9.80625 10.0909 10.1364 10.0909 10.1364H10.088Z" fill="#86D4C9"/>
<path d="M3.09901 5.46625C4.84292 4.52939 6.80412 3.66025 7.92158 3.90858C7.92158 3.90858 8.50853 2.86166 8.31664 2.77136C8.12475 2.68106 4.08384 4.34314 3.305 4.91316C2.52617 5.486 3.09901 5.46625 3.09901 5.46625Z" fill="white"/>
<path d="M7.54906 7.24332C6.45135 7.54244 5.52014 7.89518 4.84571 8.24509C4.17411 8.595 3.90321 8.72763 3.94271 9.0465C3.98222 9.36537 4.77234 11.2447 5.15612 11.4592C5.54271 11.6737 6.13813 11.3604 6.34695 10.8525C6.55576 10.3446 6.55576 10.0765 7.21326 9.31175C7.87075 8.54703 9.03619 7.15302 7.55188 7.2405L7.54906 7.24332Z" fill="#86D4C9"/>
<path d="M4.14893 9.42186C4.66251 9.12556 5.90413 8.39188 7.79478 7.92627L7.37997 8.71921L4.42547 10.4293L4.15175 9.42186H4.14893Z" fill="white"/>
<path d="M5.67144 14.4482C6.84534 14.0023 10.24 12.693 12.4072 9.85136C12.4072 9.85136 13.9085 8.82984 14.1342 8.85242C14.36 8.87499 12.7769 11.4401 10.5533 12.7071C8.32964 13.9741 5.3187 15.3709 5.67144 14.4454V14.4482Z" fill="white"/>
<path d="M15.749 2.95172C16.9201 4.98346 9.56913 9.2332 8.39805 7.20145C7.22698 5.16971 7.92116 2.57076 9.9529 1.39687C11.9818 0.222969 14.5779 0.919971 15.749 2.95172Z" fill="#86D4C9"/>
<path d="M22.4882 0.979056C22.1948 0.47112 21.5486 0.296164 21.0406 0.589638C20.6427 0.81821 20.4537 1.26689 20.5327 1.69299L19.0879 2.52826L19.4463 3.1519L20.8911 2.31662C21.2212 2.59599 21.7038 2.65525 22.0988 2.42668C22.6068 2.1332 22.7789 1.48417 22.4854 0.979056H22.4882Z" fill="#38237C"/>
<path d="M20.1253 3.6117L18.9712 1.61099C18.1782 0.26778 16.059 -0.0849541 13.4234 0.676951C12.2438 0.315751 10.9232 0.420161 9.77187 1.0833C9.17927 1.42475 8.69673 1.88471 8.32425 2.40958C6.28403 2.58453 3.99268 3.88259 2.62125 4.97466C2.49991 5.0706 2.43218 5.21452 2.43783 5.36972C2.44347 5.52492 2.52248 5.67166 2.64947 5.76196L5.10449 7.51152C4.7574 7.6639 4.37927 7.85579 3.95599 8.10129C3.21948 8.52457 3.68509 10.0935 4.24947 11.0727C4.67557 11.8092 5.15811 12.3397 5.61525 12.5909L5.03112 14.5182C4.97751 14.696 5.02266 14.8851 5.14682 15.0233C5.24841 15.1362 5.3895 15.1983 5.53906 15.1983C5.57292 15.1983 5.60679 15.1955 5.64065 15.1898C6.90202 14.95 9.56305 14.0921 11.7839 12.4159V12.4216C12.986 12.1394 14.2502 11.623 15.4495 10.9316C19.1913 8.77007 21.2428 5.55314 20.1225 3.60887L20.1253 3.6117ZM18.3588 1.98912C18.7736 2.7087 18.5733 3.74714 17.7944 4.91822C16.9648 6.16266 15.6018 7.37325 13.9482 8.32986C11.5045 9.74362 8.87451 10.2995 7.3253 9.77748L8.63465 7.89529C8.90273 8.03074 9.22442 8.09565 9.59127 8.09565C10.6128 8.09565 11.9362 7.60746 13.1355 6.91328C15.1193 5.76478 16.7955 4.04062 16.0646 2.77078C15.6696 2.08506 15.125 1.54326 14.4957 1.15385C16.3694 0.784182 17.8396 1.0833 18.3645 1.98912H18.3588ZM10.1331 1.70693C10.7313 1.36267 11.3973 1.18489 12.0689 1.18489C12.4047 1.18489 12.7461 1.23004 13.0791 1.31752C14.0809 1.58559 14.919 2.2318 15.4382 3.13198C15.6837 3.55808 15.2858 4.15632 15.0093 4.49776C15.1137 4.20711 15.1193 3.93057 14.981 3.69353C13.9793 1.95526 11.7613 1.35984 10.0258 2.36443C8.86605 3.03603 8.21984 4.24944 8.21419 5.49953C8.05617 4.01522 8.75882 2.5027 10.1302 1.70975L10.1331 1.70693ZM3.31261 5.35279C4.56552 4.41028 6.32636 3.47342 7.88121 3.19124C7.75987 3.46496 7.66393 3.75279 7.5962 4.04626C6.60008 5.00852 5.90308 6.01593 5.56728 6.95843L3.31543 5.35279H3.31261ZM7.83042 6.84838C7.7768 6.85402 7.72319 6.86249 7.6724 6.86813C7.25476 6.91328 6.8089 6.96125 6.27839 7.09953C6.50978 6.49847 6.92178 5.85226 7.47486 5.21452C7.4918 5.76478 7.61031 6.31787 7.83042 6.84838ZM4.97469 10.8724C4.94082 10.8188 4.90696 10.7708 4.8731 10.7115C4.28897 9.70129 4.23254 8.84908 4.32001 8.7221C5.96234 7.77113 6.87098 7.67519 7.75141 7.58207C7.83606 7.5736 7.9179 7.56231 7.99973 7.55102L6.69321 9.42757C6.55493 9.6251 6.45053 9.84521 6.37998 10.0766L6.19656 10.6833C6.04135 10.7736 5.84382 10.8865 5.70273 10.9683C5.48545 11.0953 5.21172 11.1235 4.97751 10.8695L4.97469 10.8724ZM5.8156 14.4195L7.00926 10.4237C7.48897 10.5986 8.05053 10.6889 8.66851 10.6889C10.1528 10.6889 11.9616 10.1895 13.7422 9.26108C11.8911 12.4187 7.73165 13.9821 5.81843 14.4195H5.8156ZM13.0988 11.2646C13.3951 10.957 13.6773 10.6325 13.9313 10.2854L14.2163 10.7792C13.8466 10.9598 13.4713 11.1207 13.0988 11.2618V11.2646ZM15.0967 10.3108C14.9528 10.3926 14.8089 10.4745 14.665 10.5507L14.2474 9.82263C14.4336 9.52633 14.6029 9.21311 14.7496 8.88577L15.4466 10.0964C15.3309 10.1669 15.2181 10.2403 15.0996 10.308L15.0967 10.3108ZM15.8671 9.82827L15.0826 8.46813C15.3366 8.29882 15.5849 8.12669 15.822 7.94609L16.6036 9.30058C16.3694 9.48118 16.1239 9.65614 15.8671 9.82827ZM17.0015 8.98453L16.2227 7.63568C16.4625 7.44097 16.6967 7.24062 16.9168 7.03462L17.6872 8.37219C17.4727 8.57819 17.2414 8.78418 17.0015 8.98453ZM18.0541 7.9997L17.2893 6.6706C17.5179 6.43639 17.7239 6.19935 17.9186 5.95949L18.672 7.26602C18.4886 7.51152 18.2826 7.7542 18.0541 7.99688V7.9997ZM18.9909 6.81452L18.2488 5.52774C18.2996 5.4572 18.3503 5.38665 18.3983 5.31893C18.5479 5.09318 18.672 4.87307 18.7849 4.65579L19.4876 5.87483C19.3662 6.1796 19.1997 6.49565 18.9909 6.81734V6.81452ZM19.6794 5.19476L19.0361 4.08295C19.1151 3.87131 19.1715 3.66531 19.2138 3.46496L19.5073 3.97289C19.7077 4.31998 19.7528 4.73762 19.6766 5.19476H19.6794Z" fill="#38237C"/>
<path d="M34.1145 11.6768C34.1145 11.7727 34.0299 11.8574 33.9226 11.8574H32.6302C32.523 11.8574 32.4383 11.7727 32.4383 11.6768V6.69336L30.7029 9.72405C30.6295 9.85667 30.5703 9.91593 30.4151 9.91593H29.4218C29.2778 9.91593 29.2073 9.85667 29.1339 9.72405L27.3505 6.69336V11.6768C27.3505 11.7727 27.2658 11.8574 27.1586 11.8574H25.8662C25.759 11.8574 25.6743 11.7727 25.6743 11.6768V3.87713C25.6743 3.78119 25.759 3.69653 25.8662 3.69653H27.2292C27.3731 3.69653 27.469 3.72193 27.565 3.88842L29.8874 7.92369L32.2211 3.88842C32.3029 3.72193 32.4017 3.69653 32.5427 3.69653H33.9198C34.0271 3.69653 34.1117 3.78119 34.1117 3.87713V11.6768H34.1145Z" fill="white"/>
<path d="M43.0838 11.6768C43.0838 11.7728 43.002 11.8574 42.9032 11.8574H41.5403C41.4443 11.8574 41.3597 11.7728 41.3597 11.6768V9.50681H38.0948V11.6768C38.0948 11.7728 38.0129 11.8574 37.9142 11.8574H36.5512C36.4553 11.8574 36.3706 11.7728 36.3706 11.6768V6.99253C36.3706 6.01052 36.7516 4.99182 37.5671 4.32022C38.0948 3.87719 38.8115 3.58936 39.7202 3.58936C40.6288 3.58936 41.3597 3.87719 41.8845 4.32022C42.7085 4.99182 43.081 6.01052 43.081 6.99253V11.6768H43.0838ZM38.5971 5.62675C38.2867 5.95126 38.0948 6.41687 38.0948 7.06308V7.97172H41.3597V7.06308C41.3597 6.41687 41.1678 5.94844 40.8687 5.62675C40.5695 5.33891 40.1632 5.195 39.7202 5.195C39.2771 5.195 38.8934 5.33891 38.5971 5.62675Z" fill="white"/>
<path d="M49.2812 11.7137C49.2332 11.8463 49.1486 11.8943 49.0075 11.8943H47.5711C47.4159 11.8943 47.3313 11.8463 47.2833 11.7137L44.3175 3.95354C44.2583 3.80962 44.3062 3.70239 44.4614 3.70239H45.9091C46.0643 3.70239 46.1602 3.76165 46.2082 3.90557L48.2766 9.72708H48.302L50.4438 3.90557C50.4918 3.76165 50.5764 3.70239 50.7429 3.70239H52.1793C52.3232 3.70239 52.3824 3.80962 52.3232 3.95354L49.2868 11.7137H49.2812Z" fill="white"/>
<path d="M58.8725 8.79001L60.6447 11.5442C60.7293 11.6881 60.7406 11.8574 60.5374 11.8574H59.0419C58.8754 11.8574 58.7794 11.832 58.6948 11.6768L57.0919 9.02987H55.5484V11.6768C55.5484 11.7727 55.4778 11.8574 55.3678 11.8574H54.0161C53.9089 11.8574 53.8242 11.7727 53.8242 11.6768V3.87713C53.8242 3.78119 53.9089 3.69653 54.0161 3.69653H57.5096C58.2997 3.69653 59.0165 3.84045 59.5667 4.2468C60.165 4.68983 60.512 5.45738 60.512 6.34345C60.512 7.12228 60.2242 7.81646 59.6034 8.34415C59.3635 8.54733 59.1237 8.67995 58.8725 8.78719V8.79001ZM55.5456 5.15826V7.56532H57.2189C57.662 7.56532 58.0203 7.52863 58.2715 7.36214C58.5593 7.18154 58.7625 6.84856 58.7625 6.36602C58.7625 5.88348 58.5819 5.5759 58.3082 5.38401C58.0457 5.21752 57.7212 5.15826 57.3628 5.15826H55.5427H55.5456Z" fill="white"/>
<path d="M67.4628 3.87713C67.5362 3.75861 67.6067 3.69653 67.7732 3.69653H69.3394C69.5313 3.69653 69.5651 3.84045 69.4579 3.99565L66.4329 8.46267V11.674C66.4329 11.7699 66.3482 11.8546 66.2523 11.8546H64.8893C64.7933 11.8546 64.7087 11.7699 64.7087 11.674V8.45138L61.7062 3.99565C61.599 3.84045 61.6329 3.69653 61.8247 3.69653H63.3909C63.5461 3.69653 63.6194 3.7445 63.69 3.87713L65.5694 6.75262L67.46 3.87713H67.4628Z" fill="white"/>
<path d="M73.3714 8.50218L72.7139 9.17378V11.6768C72.7139 11.7727 72.6434 11.8574 72.5333 11.8574H71.1816C71.0744 11.8574 70.9897 11.7727 70.9897 11.6768V3.87713C70.9897 3.78119 71.0716 3.69653 71.1816 3.69653H72.5333C72.6405 3.69653 72.7139 3.78119 72.7139 3.87713V6.98119L75.5245 3.87713C75.6317 3.75861 75.7502 3.69653 75.8942 3.69653H77.6268C77.782 3.69653 77.8412 3.84045 77.7114 3.97025L74.5763 7.22951L77.8074 11.5413C77.9146 11.674 77.9259 11.8546 77.7114 11.8546H76.1086C75.9534 11.8546 75.8575 11.8066 75.7615 11.674L73.3686 8.49936L73.3714 8.50218Z" fill="white"/>
</svg>
