<svg width="263" height="246" viewBox="0 0 263 246" fill="none" xmlns="http://www.w3.org/2000/svg">
<g clip-path="url(#clip0)">
<path opacity="0.34" fill-rule="evenodd" clip-rule="evenodd" d="M-76.2526 84.7901C-72.9495 124.885 -62.8926 164.63 -34.4024 193.129C-3.1015 224.439 39.5827 253.331 82.9549 244.045C124.617 235.125 133.688 181.847 162.863 150.894C196.013 115.723 259.876 101.571 262.642 53.4066C265.456 4.39235 211.976 -25.7438 174.859 -58.0184C136.272 -91.5701 98.6224 -140.205 47.8645 -133.347C-2.3793 -126.557 -27.5515 -71.2427 -52.5602 -27.2895C-72.2072 7.24014 -79.511 45.2362 -76.2526 84.7901Z" fill="url(#paint0_linear)"/>
<path fill-rule="evenodd" clip-rule="evenodd" d="M78.0447 -84.6885C43.7913 -85.0474 9.30415 -79.6772 -17.0952 -57.8634C-46.0987 -33.8976 -73.946 -0.132744 -69.4784 37.2102C-65.1866 73.0803 -20.7277 84.9195 3.22496 111.978C30.4415 142.723 37.4256 197.746 78.0447 203.861C119.38 210.084 149.13 167.303 179.408 138.502C210.884 108.562 255.074 80.5967 253.245 37.2102C251.434 -5.73753 206.512 -31.3289 171.21 -55.8907C143.477 -75.1865 111.836 -84.3345 78.0447 -84.6885Z" fill="url(#paint1_linear)"/>
<path d="M196.534 8.29639L196.415 9.17046C195.843 13.3791 192.527 16.6887 188.309 17.2598L187.434 17.3785L188.309 17.4973C192.527 18.0684 195.843 21.378 196.415 25.5866L196.534 26.4607L196.653 25.5866C197.225 21.378 200.542 18.0684 204.759 17.4973L205.635 17.3785L204.759 17.2598C200.542 16.6887 197.225 13.3791 196.653 9.17046L196.534 8.29639Z" fill="white"/>
<path d="M98.6917 62L97.4763 70.9397C97.0194 74.299 94.3719 76.9412 91.0058 77.3971L82.0479 78.6105L91.0058 79.8235C94.3719 80.2794 97.0194 82.9216 97.4763 86.2809L98.6917 95.2206L99.9076 86.2809C100.364 82.9216 103.012 80.2794 106.378 79.8235L115.336 78.6105L106.378 77.3971C103.012 76.9412 100.364 74.299 99.9076 70.9397L98.6917 62Z" fill="white"/>
<path d="M23.8687 97.5527L23.2667 101.979C23.0406 103.642 21.7301 104.95 20.0636 105.176L15.6287 105.776L20.0636 106.377C21.7301 106.603 23.0406 107.91 23.2667 109.574L23.8687 113.999L24.4705 109.574C24.6965 107.91 26.0074 106.603 27.6739 106.377L32.1084 105.776L27.6739 105.176C26.0074 104.95 24.6965 103.642 24.4705 101.979L23.8687 97.5527Z" fill="white"/>
<path d="M35.2724 88.2193C33.664 88.2193 32.3602 86.9181 32.3602 85.313C32.3602 83.7079 33.664 82.4067 35.2724 82.4067C36.8807 82.4067 38.1846 83.7079 38.1846 85.313C38.1846 86.9181 36.8807 88.2193 35.2724 88.2193Z" fill="white"/>
<path opacity="0.78" d="M158.483 69.4054C156.875 69.4054 155.571 68.1042 155.571 66.4991C155.571 64.894 156.875 63.5928 158.483 63.5928C160.092 63.5928 161.396 64.894 161.396 66.4991C161.396 68.1042 160.092 69.4054 158.483 69.4054Z" fill="white"/>
<path opacity="0.78" d="M112.809 13.3824C111.804 13.3824 110.989 12.5691 110.989 11.5659C110.989 10.5628 111.804 9.74951 112.809 9.74951C113.814 9.74951 114.629 10.5628 114.629 11.5659C114.629 12.5691 113.814 13.3824 112.809 13.3824Z" fill="white"/>
<path opacity="0.4" d="M217.648 28.6402C216.442 28.6402 215.464 27.6643 215.464 26.4605C215.464 25.2567 216.442 24.2808 217.648 24.2808C218.854 24.2808 219.832 25.2567 219.832 26.4605C219.832 27.6643 218.854 28.6402 217.648 28.6402Z" fill="white"/>
<path opacity="0.9" d="M201.995 39.1758C201.392 39.1758 200.903 38.6879 200.903 38.086C200.903 37.484 201.392 36.9961 201.995 36.9961C202.598 36.9961 203.087 37.484 203.087 38.086C203.087 38.6879 202.598 39.1758 201.995 39.1758Z" fill="white"/>
<path d="M70.9467 152.884C69.7405 152.884 68.7626 151.908 68.7626 150.704C68.7626 149.5 69.7405 148.524 70.9467 148.524C72.153 148.524 73.1309 149.5 73.1309 150.704C73.1309 151.908 72.153 152.884 70.9467 152.884Z" fill="white"/>
<path d="M95.3354 136.173C94.1291 136.173 93.1513 135.197 93.1513 133.993C93.1513 132.789 94.1291 131.813 95.3354 131.813C96.5417 131.813 97.5195 132.789 97.5195 133.993C97.5195 135.197 96.5417 136.173 95.3354 136.173Z" fill="white"/>
<path d="M14.1586 77.3204C12.9524 77.3204 11.9745 76.3445 11.9745 75.1407C11.9745 73.9368 12.9524 72.9609 14.1586 72.9609C15.3649 72.9609 16.3428 73.9368 16.3428 75.1407C16.3428 76.3445 15.3649 77.3204 14.1586 77.3204Z" fill="white"/>
<path opacity="0.34" d="M64.0297 11.9293C62.8235 11.9293 61.8456 10.9534 61.8456 9.74954C61.8456 8.54572 62.8235 7.56982 64.0297 7.56982C65.236 7.56982 66.2139 8.54572 66.2139 9.74954C66.2139 10.9534 65.236 11.9293 64.0297 11.9293Z" fill="white"/>
</g>
<defs>
<linearGradient id="paint0_linear" x1="92.8741" y1="-134" x2="92.8741" y2="245.809" gradientUnits="userSpaceOnUse">
<stop stop-color="#AEEDE1"/>
<stop offset="1" stop-color="#AEEDE1" stop-opacity="0"/>
</linearGradient>
<linearGradient id="paint1_linear" x1="91.6738" y1="-84.7051" x2="91.6738" y2="204.471" gradientUnits="userSpaceOnUse">
<stop stop-color="#AEEDE1"/>
<stop offset="1" stop-color="#AEEDE1" stop-opacity="0"/>
</linearGradient>
<clipPath id="clip0">
<rect width="263" height="246" fill="white"/>
</clipPath>
</defs>
</svg>
