<svg width="45" height="45" viewBox="0 0 45 45" fill="none" xmlns="http://www.w3.org/2000/svg">
<circle cx="22.5" cy="22.5" r="22.5" fill="url(#paint0_linear_22951_365349)"/>
<path d="M29.468 15.1138C30.452 15.3294 30.9644 15.6673 31.2788 16.3316C31.5118 16.8269 31.4943 17.2406 31.1682 18.7555C31.0052 19.4897 30.8771 20.1015 30.8887 20.1073C30.8945 20.1132 31.7039 19.9034 32.6879 19.647C33.672 19.3848 34.493 19.1867 34.5104 19.21C34.5512 19.2508 35.116 21.3426 35.116 21.465C35.116 21.5291 34.5454 21.7039 32.7695 22.1642L30.4287 22.7818L30.4113 23.2712C30.4054 23.5451 30.4229 23.8015 30.452 23.8481C30.4986 23.918 30.9295 23.819 32.9616 23.2771C34.3183 22.9216 35.4304 22.6303 35.4363 22.642C35.4712 22.6827 36.0593 24.9668 36.0418 24.9843C36.0302 24.996 34.9472 25.2873 33.6312 25.6311C32.3211 25.9749 31.2206 26.2779 31.1973 26.3012C31.1333 26.3594 31.7388 26.8372 32.1581 27.0586C32.9034 27.4607 33.9748 27.5772 34.8482 27.35C35.4828 27.1868 35.7099 27.0761 36.3737 26.575L36.9676 26.138L37.841 27.2626L38.7203 28.393L38.0215 28.9115C36.6357 29.937 35.378 30.3799 33.8641 30.3799C32.0824 30.3799 30.4578 29.704 29.206 28.4337C28.9148 28.1424 28.5596 27.7287 28.4199 27.5073C28.2802 27.2917 28.1229 27.1169 28.0705 27.1169C28.024 27.1169 27.6455 27.2101 27.2379 27.3208C26.7022 27.4607 26.4868 27.4956 26.4693 27.449C26.4169 27.2917 25.8637 25.1708 25.8754 25.1591C25.8812 25.1591 26.2015 25.0717 26.5857 24.9668C26.97 24.862 27.3252 24.7687 27.3718 24.7512C27.4533 24.7338 27.4592 24.6522 27.4184 24.1919C27.3893 23.9005 27.3602 23.6442 27.3427 23.6325C27.3311 23.615 26.9468 23.7024 26.4984 23.819C26.0442 23.9413 25.6483 24.0287 25.6075 24.0112C25.5085 23.9821 24.9263 21.733 25.0078 21.6922C25.0427 21.6747 25.6075 21.5174 26.2655 21.3484C26.9235 21.1794 27.4766 21.0221 27.5057 20.9988C27.529 20.9813 27.5873 20.7541 27.628 20.4977C27.6746 20.2472 27.9483 18.9245 28.2394 17.561C28.5305 16.1976 28.7693 15.0614 28.7693 15.0381C28.7693 14.974 28.8741 14.9856 29.468 15.1138Z" fill="white"/>
<path d="M18.952 18.478C17.566 18.478 16.396 19.162 15.946 20.242C15.37 19.144 14.29 18.478 12.976 18.478C11.806 18.478 10.852 19.054 10.384 19.954V18.694H8.188V28H10.384V22.294C10.384 21.16 11.23 20.35 12.418 20.35C13.498 20.35 14.236 21.214 14.236 22.438V28H16.378V22.294C16.378 21.16 17.206 20.35 18.412 20.35C19.474 20.35 20.212 21.214 20.212 22.438V28H22.354V22.078C22.354 19.972 20.896 18.478 18.952 18.478Z" fill="white"/>
<defs>
<linearGradient id="paint0_linear_22951_365349" x1="5" y1="37.5" x2="54.0495" y2="10.5502" gradientUnits="userSpaceOnUse">
<stop stop-color="#193990"/>
<stop offset="0.375834" stop-color="#2E50B3"/>
<stop offset="1" stop-color="#5175ED"/>
</linearGradient>
</defs>
</svg>
