<svg width="60" height="59" viewBox="0 0 60 59" fill="none" xmlns="http://www.w3.org/2000/svg">
<path d="M28.4038 0.559516C36.056 0.616016 42.967 3.85334 47.8299 8.97846C52.0007 13.7328 54.5183 19.9639 54.4666 26.7488C54.354 41.5129 42.195 53.3939 27.3031 53.3069C19.6511 53.2503 12.7401 50.013 7.87732 44.8879C3.70656 40.1336 1.18894 33.9025 1.24066 27.1176C1.35321 12.3532 13.5126 0.449567 28.4038 0.559516Z" fill="url(#paint0_radial_33231_24830)" stroke="url(#paint1_linear_33231_24830)" stroke-width="0.366667"/>
<path d="M28.3294 6.5809C34.2504 6.62462 39.598 9.12945 43.361 13.095C46.5881 16.7739 48.5359 21.5952 48.4959 26.8449C48.4088 38.269 39.0003 47.4628 27.4765 47.3955C21.5555 47.3517 16.208 44.8469 12.4451 40.8814C9.21804 37.2025 7.27022 32.3812 7.31024 27.1315C7.39732 15.7071 16.8061 6.49582 28.3294 6.5809Z" fill="url(#paint2_radial_33231_24830)"/>
<path d="M28.3294 6.5809C34.2504 6.62462 39.598 9.12945 43.361 13.095C46.5881 16.7739 48.5359 21.5952 48.4959 26.8449C48.4088 38.269 39.0003 47.4628 27.4765 47.3955C21.5555 47.3517 16.208 44.8469 12.4451 40.8814C9.21804 37.2025 7.27022 32.3812 7.31024 27.1315C7.39732 15.7071 16.8061 6.49582 28.3294 6.5809Z" fill="url(#paint3_linear_33231_24830)" fill-opacity="0.2"/>
<path d="M28.3294 6.5809C34.2504 6.62462 39.598 9.12945 43.361 13.095C46.5881 16.7739 48.5359 21.5952 48.4959 26.8449C48.4088 38.269 39.0003 47.4628 27.4765 47.3955C21.5555 47.3517 16.208 44.8469 12.4451 40.8814C9.21804 37.2025 7.27022 32.3812 7.31024 27.1315C7.39732 15.7071 16.8061 6.49582 28.3294 6.5809Z" fill="url(#paint4_linear_33231_24830)" fill-opacity="0.2"/>
<path d="M28.3294 6.5809C34.2504 6.62462 39.598 9.12945 43.361 13.095C46.5881 16.7739 48.5359 21.5952 48.4959 26.8449C48.4088 38.269 39.0003 47.4628 27.4765 47.3955C21.5555 47.3517 16.208 44.8469 12.4451 40.8814C9.21804 37.2025 7.27022 32.3812 7.31024 27.1315C7.39732 15.7071 16.8061 6.49582 28.3294 6.5809Z" stroke="url(#paint5_linear_33231_24830)" stroke-width="0.366667"/>
<path d="M28.3294 6.5809C34.2504 6.62462 39.598 9.12945 43.361 13.095C46.5881 16.7739 48.5359 21.5952 48.4959 26.8449C48.4088 38.269 39.0003 47.4628 27.4765 47.3955C21.5555 47.3517 16.208 44.8469 12.4451 40.8814C9.21804 37.2025 7.27022 32.3812 7.31024 27.1315C7.39732 15.7071 16.8061 6.49582 28.3294 6.5809Z" stroke="url(#paint6_linear_33231_24830)" stroke-opacity="0.2" stroke-width="0.366667"/>
<path d="M28.3294 6.5809C34.2504 6.62462 39.598 9.12945 43.361 13.095C46.5881 16.7739 48.5359 21.5952 48.4959 26.8449C48.4088 38.269 39.0003 47.4628 27.4765 47.3955C21.5555 47.3517 16.208 44.8469 12.4451 40.8814C9.21804 37.2025 7.27022 32.3812 7.31024 27.1315C7.39732 15.7071 16.8061 6.49582 28.3294 6.5809Z" stroke="url(#paint7_linear_33231_24830)" stroke-width="0.366667"/>
<path d="M28.3294 6.5809C34.2504 6.62462 39.598 9.12945 43.361 13.095C46.5881 16.7739 48.5359 21.5952 48.4959 26.8449C48.4088 38.269 39.0003 47.4628 27.4765 47.3955C21.5555 47.3517 16.208 44.8469 12.4451 40.8814C9.21804 37.2025 7.27022 32.3812 7.31024 27.1315C7.39732 15.7071 16.8061 6.49582 28.3294 6.5809Z" stroke="url(#paint8_linear_33231_24830)" stroke-width="0.366667"/>
<g filter="url(#filter0_f_33231_24830)">
<path d="M52.0502 15.037C53.5145 18.3954 54.3244 22.0953 54.2946 25.9968C54.1813 40.8639 41.938 52.8249 26.9465 52.7142C17.9377 52.6477 9.98637 48.2255 5.10233 41.4943C5.88413 42.7698 6.78285 43.977 7.77538 45.0925C12.6714 50.2539 19.6305 53.5144 27.3358 53.5713C42.3272 53.682 54.5705 41.721 54.6838 26.8539C54.7393 22.6294 53.7922 18.6053 52.0502 15.037Z" fill="#06017C"/>
</g>
<g clip-path="url(#clip0_33231_24830)">
<g filter="url(#filter1_f_33231_24830)">
<path d="M39.058 42.5296L36.367 42.5094L36.4604 30.0515C36.4635 29.6452 35.9835 29.429 35.6757 29.6925L30.5738 34.0818L30.511 42.4579L27.9155 42.4385L27.9833 33.4016C27.9873 32.8625 27.861 32.3679 27.6044 31.9293C27.3478 31.4869 26.9987 31.1349 26.561 30.8772C26.1272 30.6195 25.6274 30.4867 25.0808 30.4826L24.9852 30.4819C24.4386 30.4778 23.9369 30.6031 23.4992 30.8542C23.0577 31.1053 22.7034 31.452 22.4402 31.8905C22.1808 32.3253 22.0433 32.8179 22.0393 33.357L21.9715 42.3939L19.376 42.3744L19.4438 33.3376C19.4508 32.3997 19.679 31.5357 20.1206 30.7568C20.5661 29.9779 21.2092 29.3524 22.0383 28.8991C22.8636 28.4458 23.8668 28.2179 25.0212 28.2266L25.0709 28.227C26.2215 28.2356 27.2251 28.4748 28.0435 28.9442C28.8656 29.4136 29.5031 30.0487 29.933 30.8304C29.9934 30.9371 30.0461 31.0476 30.0988 31.1582L32.8767 28.7716C32.9459 28.7113 33.0341 28.6778 33.1297 28.6785L38.7794 28.7209C38.9896 28.7225 39.1565 28.8908 39.155 29.0997L39.0543 42.5258L39.058 42.5296Z" fill="#544DE9"/>
</g>
<path d="M37.4917 40.6175L36.0266 40.6065L36.1155 28.7597C36.1177 28.4597 36.0081 28.207 35.8351 28.0207L37.5861 28.0339L37.4917 40.6175ZM32.2546 27.9939L34.2329 28.0087L29.2192 32.3221L29.0087 32.5032L29.0067 32.7808L28.9484 40.5459L27.5751 40.5356L27.6383 32.1098C27.6431 31.4693 27.4922 30.8654 27.1764 30.3252C26.8676 29.7934 26.4441 29.3659 25.916 29.0548C25.3813 28.7374 24.774 28.5799 24.1293 28.5751L24.0337 28.5744C23.389 28.5696 22.7795 28.7179 22.24 29.0272C21.707 29.3306 21.2769 29.752 20.9602 30.2796L20.9593 30.281C20.6423 30.8123 20.4769 31.4121 20.4721 32.0561L20.4089 40.4818L19.0356 40.4715L19.0988 32.0458C19.1051 31.2084 19.3077 30.4474 19.6956 29.7628C20.0826 29.0866 20.6414 28.5402 21.3754 28.139L21.3764 28.1384C22.0925 27.7451 22.9883 27.5333 24.0606 27.5413L24.1103 27.5417C25.1807 27.5497 26.0756 27.7719 26.7834 28.1779L26.7844 28.1785C27.5156 28.596 28.0695 29.1521 28.4415 29.8285L28.4415 29.8285L28.445 29.8347C28.4931 29.9199 28.5369 30.0111 28.5911 30.1248L28.9349 30.846L29.541 30.3253L32.2546 27.9939Z" fill="#E8E7FF" stroke="url(#paint9_linear_33231_24830)" stroke-width="1.22222"/>
</g>
<path opacity="0.3" d="M35.8777 17.333C39.9031 17.333 42.9222 20.4013 42.9222 24.7264V36.8886H38.4868V25.4658C38.4868 22.952 36.9586 21.1776 34.7596 21.1776C32.2623 21.1776 30.5478 22.8411 30.5478 25.17V36.8886H26.1124V25.4658C26.1124 22.952 24.5842 21.1776 22.3479 21.1776C19.8879 21.1776 18.1361 22.8411 18.1361 25.17V36.8886H13.5889V17.7766H18.1361V20.3643C19.1052 18.516 21.0806 17.333 23.5033 17.333C26.2242 17.333 28.4605 18.7008 29.6532 20.9558C30.5851 18.7378 33.0078 17.333 35.8777 17.333Z" fill="white"/>
<defs>
<filter id="filter0_f_33231_24830" x="0.21365" y="10.1482" width="59.3618" height="48.3129" filterUnits="userSpaceOnUse" color-interpolation-filters="sRGB">
<feFlood flood-opacity="0" result="BackgroundImageFix"/>
<feBlend mode="normal" in="SourceGraphic" in2="BackgroundImageFix" result="shape"/>
<feGaussianBlur stdDeviation="2.44444" result="effect1_foregroundBlur_33231_24830"/>
</filter>
<filter id="filter1_f_33231_24830" x="7.15375" y="16.0043" width="44.2237" height="38.7477" filterUnits="userSpaceOnUse" color-interpolation-filters="sRGB">
<feFlood flood-opacity="0" result="BackgroundImageFix"/>
<feBlend mode="normal" in="SourceGraphic" in2="BackgroundImageFix" result="shape"/>
<feGaussianBlur stdDeviation="6.11111" result="effect1_foregroundBlur_33231_24830"/>
</filter>
<radialGradient id="paint0_radial_33231_24830" cx="0" cy="0" r="1" gradientUnits="userSpaceOnUse" gradientTransform="translate(9.24585 0.23472) rotate(63.6872) scale(67.4014 67.7055)">
<stop stop-color="#807AFF"/>
<stop offset="0.435789" stop-color="#6E67FF"/>
<stop offset="0.963542" stop-color="#4D47EB"/>
</radialGradient>
<linearGradient id="paint1_linear_33231_24830" x1="14.7773" y1="7.72101" x2="31.5486" y2="42.0094" gradientUnits="userSpaceOnUse">
<stop stop-color="#9F9FA3"/>
<stop offset="0.432899" stop-color="#4B45E7" stop-opacity="0"/>
</linearGradient>
<radialGradient id="paint2_radial_33231_24830" cx="0" cy="0" r="1" gradientUnits="userSpaceOnUse" gradientTransform="translate(42.0981 47.6868) rotate(-111.329) scale(52.5306 52.8202)">
<stop offset="0.0625" stop-color="#635CFC"/>
<stop offset="1" stop-color="#6862FD"/>
</radialGradient>
<linearGradient id="paint3_linear_33231_24830" x1="13.9702" y1="9.14299" x2="46.0079" y2="24.7893" gradientUnits="userSpaceOnUse">
<stop stop-color="#3B34D0"/>
<stop offset="1" stop-color="#5952F3" stop-opacity="0"/>
</linearGradient>
<linearGradient id="paint4_linear_33231_24830" x1="25.4038" y1="59.2861" x2="30.6577" y2="29.2121" gradientUnits="userSpaceOnUse">
<stop stop-color="#150F96"/>
<stop offset="1" stop-color="#342EC8" stop-opacity="0"/>
</linearGradient>
<linearGradient id="paint5_linear_33231_24830" x1="16.4505" y1="60.8042" x2="27.6467" y2="39.9024" gradientUnits="userSpaceOnUse">
<stop stop-color="#EAE8FF"/>
<stop offset="1" stop-color="#514AF1"/>
</linearGradient>
<linearGradient id="paint6_linear_33231_24830" x1="34.7772" y1="2.64324" x2="27.9753" y2="28.9159" gradientUnits="userSpaceOnUse">
<stop stop-color="#BAB8FF"/>
<stop offset="1" stop-color="#514AF2"/>
</linearGradient>
<linearGradient id="paint7_linear_33231_24830" x1="-1.69606" y1="11.5619" x2="17.5204" y2="28.6478" gradientUnits="userSpaceOnUse">
<stop stop-color="#524BF5"/>
<stop offset="1" stop-color="#150F96" stop-opacity="0"/>
</linearGradient>
<linearGradient id="paint8_linear_33231_24830" x1="52.4708" y1="6.57581" x2="21.8037" y2="25.5729" gradientUnits="userSpaceOnUse">
<stop stop-color="#EAE8FF"/>
<stop offset="1" stop-color="#514AF3" stop-opacity="0"/>
</linearGradient>
<linearGradient id="paint9_linear_33231_24830" x1="20.9463" y1="26.9068" x2="24.4713" y2="30.16" gradientUnits="userSpaceOnUse">
<stop stop-color="white"/>
<stop offset="1" stop-color="#D3D1FD" stop-opacity="0"/>
</linearGradient>
<clipPath id="clip0_33231_24830">
<rect width="19.6806" height="14.199" fill="white" transform="translate(18.5264 26.8667) rotate(0.429754)"/>
</clipPath>
</defs>
</svg>
