<svg width="45" height="45" viewBox="0 0 45 45" fill="none" xmlns="http://www.w3.org/2000/svg">
<circle cx="22.5" cy="22.5" r="21.75" fill="white" stroke="#0D61FF" stroke-width="1.5"/>
<path fill-rule="evenodd" clip-rule="evenodd" d="M25.0704 33V29.9824H26.3554V33H25.0704ZM30.5824 30.1056V33H29.2974V30.1056H30.5824Z" fill="#0D61FF"/>
<path fill-rule="evenodd" clip-rule="evenodd" d="M32.7538 17.0611H23V15.8068H34.1668L34.651 16.8462L31.0394 20.8875C31.5983 20.8385 32.1987 20.8554 32.7963 20.9587C34.4864 21.2508 36.2232 22.2587 36.8074 24.4665C37.3413 26.4489 36.7286 28.2588 35.4207 29.5529C34.1251 30.8348 32.1701 31.5949 30.0029 31.5949V30.3406C31.8735 30.3406 33.4831 29.6842 34.506 28.6721C35.5163 27.6725 35.9762 26.3115 35.5644 24.7842L35.5636 24.7813C35.1381 23.1718 33.9101 22.425 32.5722 22.1937C31.8974 22.077 31.2123 22.0979 30.6311 22.2089C30.0325 22.3233 29.6169 22.5188 29.4233 22.689L28.5094 21.8106L30.6316 19.4358L32.7538 17.0611Z" fill="#0D61FF"/>
<path fill-rule="evenodd" clip-rule="evenodd" d="M25.1959 12H26.4808V25.7332C26.4808 26.8733 27.8455 27.4052 28.6141 26.6944L29.4978 27.6049C27.869 29.1111 25.1959 27.9187 25.1959 25.7332V12ZM29.486 16.3725V12H30.7709V16.3725H29.486Z" fill="#0D61FF"/>
<path d="M18.952 17.478C17.566 17.478 16.396 18.162 15.946 19.242C15.37 18.144 14.29 17.478 12.976 17.478C11.806 17.478 10.852 18.054 10.384 18.954V17.694H8.188V27H10.384V21.294C10.384 20.16 11.23 19.35 12.418 19.35C13.498 19.35 14.236 20.214 14.236 21.438V27H16.378V21.294C16.378 20.16 17.206 19.35 18.412 19.35C19.474 19.35 20.212 20.214 20.212 21.438V27H22.354V21.078C22.354 18.972 20.896 17.478 18.952 17.478Z" fill="#0D61FF"/>
</svg>
