<svg width="45" height="45" viewBox="0 0 45 45" fill="none" xmlns="http://www.w3.org/2000/svg">
<circle cx="22.5" cy="22.5" r="22.5" fill="#50AF95"/>
<path fill-rule="evenodd" clip-rule="evenodd" d="M32.4329 22.6759C32.325 22.6843 31.7672 22.7185 30.5229 22.7185C29.5333 22.7185 28.8307 22.688 28.5842 22.6759C24.7597 22.5029 21.9051 21.8182 21.9051 20.9984C21.9051 20.1785 24.7597 19.4947 28.5842 19.3189V21.994C28.8343 22.0125 29.5504 22.056 30.54 22.056C31.7276 22.056 32.3223 22.0051 32.4293 21.9949V19.3208C36.2457 19.4957 39.094 20.1804 39.094 20.9984C39.094 21.8163 36.2466 22.5011 32.4293 22.675L32.4329 22.6759ZM32.4329 19.0441V16.6503H37.7589V13H23.2582V16.6503H28.5833V19.0432C24.255 19.2477 21 20.1295 21 21.1862C21 22.2429 24.255 23.1238 28.5833 23.3292V31H32.432V23.3264C36.7504 23.1219 40 22.241 40 21.1853C40 20.1295 36.7531 19.2486 32.432 19.0432L32.4329 19.0441Z" fill="white"/>
<path d="M15.952 17.478C14.566 17.478 13.396 18.162 12.946 19.242C12.37 18.144 11.29 17.478 9.976 17.478C8.806 17.478 7.852 18.054 7.384 18.954V17.694H5.188V27H7.384V21.294C7.384 20.16 8.23 19.35 9.418 19.35C10.498 19.35 11.236 20.214 11.236 21.438V27H13.378V21.294C13.378 20.16 14.206 19.35 15.412 19.35C16.474 19.35 17.212 20.214 17.212 21.438V27H19.354V21.078C19.354 18.972 17.896 17.478 15.952 17.478Z" fill="white"/>
</svg>
