<svg width="54" height="54" viewBox="0 0 54 54" fill="none" xmlns="http://www.w3.org/2000/svg">
<circle cx="27" cy="27" r="27" fill="url(#paint0_radial_33231_24798)"/>
<path d="M27.4876 6.56365C33.3905 6.60745 38.7222 9.13892 42.4746 13.1483C45.6924 16.8684 47.6346 21.744 47.5944 27.0534C47.5068 38.6093 38.1214 47.9049 26.6325 47.8376C20.7297 47.7937 15.3981 45.2622 11.6458 41.253C8.42806 37.5328 6.48581 32.6573 6.52606 27.3479C6.61367 15.7916 15.9995 6.47841 27.4876 6.56365Z" fill="url(#paint1_radial_33231_24798)"/>
<path d="M27.4876 6.56365C33.3905 6.60745 38.7222 9.13892 42.4746 13.1483C45.6924 16.8684 47.6346 21.744 47.5944 27.0534C47.5068 38.6093 38.1214 47.9049 26.6325 47.8376C20.7297 47.7937 15.3981 45.2622 11.6458 41.253C8.42806 37.5328 6.48581 32.6573 6.52606 27.3479C6.61367 15.7916 15.9995 6.47841 27.4876 6.56365Z" fill="url(#paint2_linear_33231_24798)" fill-opacity="0.2"/>
<path d="M27.4876 6.56365C33.3905 6.60745 38.7222 9.13892 42.4746 13.1483C45.6924 16.8684 47.6346 21.744 47.5944 27.0534C47.5068 38.6093 38.1214 47.9049 26.6325 47.8376C20.7297 47.7937 15.3981 45.2622 11.6458 41.253C8.42806 37.5328 6.48581 32.6573 6.52606 27.3479C6.61367 15.7916 15.9995 6.47841 27.4876 6.56365Z" fill="url(#paint3_linear_33231_24798)" fill-opacity="0.2"/>
<path d="M27.4876 6.56365C33.3905 6.60745 38.7222 9.13892 42.4746 13.1483C45.6924 16.8684 47.6346 21.744 47.5944 27.0534C47.5068 38.6093 38.1214 47.9049 26.6325 47.8376C20.7297 47.7937 15.3981 45.2622 11.6458 41.253C8.42806 37.5328 6.48581 32.6573 6.52606 27.3479C6.61367 15.7916 15.9995 6.47841 27.4876 6.56365Z" stroke="url(#paint4_linear_33231_24798)" stroke-width="0.50625"/>
<path d="M27.4876 6.56365C33.3905 6.60745 38.7222 9.13892 42.4746 13.1483C45.6924 16.8684 47.6346 21.744 47.5944 27.0534C47.5068 38.6093 38.1214 47.9049 26.6325 47.8376C20.7297 47.7937 15.3981 45.2622 11.6458 41.253C8.42806 37.5328 6.48581 32.6573 6.52606 27.3479C6.61367 15.7916 15.9995 6.47841 27.4876 6.56365Z" stroke="url(#paint5_linear_33231_24798)" stroke-opacity="0.2" stroke-width="0.50625"/>
<path d="M27.4876 6.56365C33.3905 6.60745 38.7222 9.13892 42.4746 13.1483C45.6924 16.8684 47.6346 21.744 47.5944 27.0534C47.5068 38.6093 38.1214 47.9049 26.6325 47.8376C20.7297 47.7937 15.3981 45.2622 11.6458 41.253C8.42806 37.5328 6.48581 32.6573 6.52606 27.3479C6.61367 15.7916 15.9995 6.47841 27.4876 6.56365Z" stroke="url(#paint6_linear_33231_24798)" stroke-width="0.50625"/>
<path d="M27.4876 6.56365C33.3905 6.60745 38.7222 9.13892 42.4746 13.1483C45.6924 16.8684 47.6346 21.744 47.5944 27.0534C47.5068 38.6093 38.1214 47.9049 26.6325 47.8376C20.7297 47.7937 15.3981 45.2622 11.6458 41.253C8.42806 37.5328 6.48581 32.6573 6.52606 27.3479C6.61367 15.7916 15.9995 6.47841 27.4876 6.56365Z" stroke="url(#paint7_linear_33231_24798)" stroke-width="0.50625"/>
<path d="M37.1291 34.244L34.4601 34.224L34.5537 21.8145C34.5567 21.4098 34.0806 21.1945 33.7753 21.4569L28.7149 25.8295L28.652 34.1731L26.0778 34.1539L26.1457 25.1522C26.1497 24.6151 26.0245 24.1225 25.77 23.6856C25.5155 23.2449 25.1694 22.8944 24.7353 22.6377C24.305 22.3811 23.8093 22.2488 23.2672 22.2447L23.1724 22.244C22.6303 22.24 22.1326 22.3649 21.6985 22.6151C21.2606 22.8652 20.9092 23.2106 20.6481 23.6474C20.3908 24.0805 20.2544 24.5712 20.2504 25.1082L20.1825 34.11L17.6083 34.0908L17.6761 25.089C17.6832 24.1548 17.9096 23.2941 18.3477 22.5182C18.7895 21.7423 19.4274 21.1192 20.2497 20.6676C21.0683 20.2161 22.0634 19.989 23.2083 19.9975L23.2576 19.9979C24.3987 20.0064 25.3941 20.2446 26.2057 20.7121C27.0211 21.1796 27.6533 21.8122 28.0797 22.5908C28.1395 22.6972 28.1918 22.8072 28.244 22.9173L30.9994 20.5398C31.068 20.4798 31.1555 20.4464 31.2503 20.4471L36.8537 20.4889C37.0622 20.4905 37.2278 20.6581 37.2262 20.8662L37.1253 34.2401L37.1291 34.244Z" fill="#E8E7FF"/>
<path d="M37.1291 34.244L34.4601 34.224L34.5537 21.8145C34.5567 21.4098 34.0806 21.1945 33.7753 21.4569L28.7149 25.8295L28.652 34.1731L26.0778 34.1539L26.1457 25.1522C26.1497 24.6151 26.0245 24.1225 25.77 23.6856C25.5155 23.2449 25.1694 22.8944 24.7353 22.6377C24.305 22.3811 23.8093 22.2488 23.2672 22.2447L23.1724 22.244C22.6303 22.24 22.1326 22.3649 21.6985 22.6151C21.2606 22.8652 20.9092 23.2106 20.6481 23.6474C20.3908 24.0805 20.2544 24.5712 20.2504 25.1082L20.1825 34.11L17.6083 34.0908L17.6761 25.089C17.6832 24.1548 17.9096 23.2941 18.3477 22.5182C18.7895 21.7423 19.4274 21.1192 20.2497 20.6676C21.0683 20.2161 22.0634 19.989 23.2083 19.9975L23.2576 19.9979C24.3987 20.0064 25.3941 20.2446 26.2057 20.7121C27.0211 21.1796 27.6533 21.8122 28.0797 22.5908C28.1395 22.6972 28.1918 22.8072 28.244 22.9173L30.9994 20.5398C31.068 20.4798 31.1555 20.4464 31.2503 20.4471L36.8537 20.4889C37.0622 20.4905 37.2278 20.6581 37.2262 20.8662L37.1253 34.2401L37.1291 34.244Z" fill="url(#paint8_linear_33231_24798)" fill-opacity="0.2"/>
<path d="M37.1291 34.244L34.4601 34.224L34.5537 21.8145C34.5567 21.4098 34.0806 21.1945 33.7753 21.4569L28.7149 25.8295L28.652 34.1731L26.0778 34.1539L26.1457 25.1522C26.1497 24.6151 26.0245 24.1225 25.77 23.6856C25.5155 23.2449 25.1694 22.8944 24.7353 22.6377C24.305 22.3811 23.8093 22.2488 23.2672 22.2447L23.1724 22.244C22.6303 22.24 22.1326 22.3649 21.6985 22.6151C21.2606 22.8652 20.9092 23.2106 20.6481 23.6474C20.3908 24.0805 20.2544 24.5712 20.2504 25.1082L20.1825 34.11L17.6083 34.0908L17.6761 25.089C17.6832 24.1548 17.9096 23.2941 18.3477 22.5182C18.7895 21.7423 19.4274 21.1192 20.2497 20.6676C21.0683 20.2161 22.0634 19.989 23.2083 19.9975L23.2576 19.9979C24.3987 20.0064 25.3941 20.2446 26.2057 20.7121C27.0211 21.1796 27.6533 21.8122 28.0797 22.5908C28.1395 22.6972 28.1918 22.8072 28.244 22.9173L30.9994 20.5398C31.068 20.4798 31.1555 20.4464 31.2503 20.4471L36.8537 20.4889C37.0622 20.4905 37.2278 20.6581 37.2262 20.8662L37.1253 34.2401L37.1291 34.244Z" fill="url(#paint9_linear_33231_24798)" fill-opacity="0.2"/>
<defs>
<radialGradient id="paint0_radial_33231_24798" cx="0" cy="0" r="1" gradientUnits="userSpaceOnUse" gradientTransform="translate(8.04472 -4.68158e-06) rotate(63.4545) scale(68.4031 68.3396)">
<stop stop-color="#807AFF"/>
<stop offset="0.435789" stop-color="#6E67FF"/>
<stop offset="0.963542" stop-color="#4D47EB"/>
</radialGradient>
<radialGradient id="paint1_radial_33231_24798" cx="0" cy="0" r="1" gradientUnits="userSpaceOnUse" gradientTransform="translate(41.2615 48.1993) rotate(-111.058) scale(53.1955 52.9469)">
<stop offset="0.0625" stop-color="#635CFC"/>
<stop offset="1" stop-color="#6862FD"/>
</radialGradient>
<linearGradient id="paint2_linear_33231_24798" x1="13.1211" y1="9.09684" x2="45.3439" y2="24.6178" gradientUnits="userSpaceOnUse">
<stop stop-color="#3B34D0"/>
<stop offset="1" stop-color="#5952F3" stop-opacity="0"/>
</linearGradient>
<linearGradient id="paint3_linear_33231_24798" x1="24.5575" y1="59.9684" x2="29.9562" y2="29.4815" gradientUnits="userSpaceOnUse">
<stop stop-color="#150F96"/>
<stop offset="1" stop-color="#342EC8" stop-opacity="0"/>
</linearGradient>
<linearGradient id="paint4_linear_33231_24798" x1="15.5994" y1="61.5092" x2="27.0453" y2="40.4344" gradientUnits="userSpaceOnUse">
<stop stop-color="#EAE8FF"/>
<stop offset="1" stop-color="#514AF1"/>
</linearGradient>
<linearGradient id="paint5_linear_33231_24798" x1="33.9396" y1="2.50117" x2="26.9558" y2="29.1101" gradientUnits="userSpaceOnUse">
<stop stop-color="#BAB8FF"/>
<stop offset="1" stop-color="#514AF2"/>
</linearGradient>
<linearGradient id="paint6_linear_33231_24798" x1="-2.55374" y1="11.552" x2="16.9073" y2="28.6167" gradientUnits="userSpaceOnUse">
<stop stop-color="#524BF5"/>
<stop offset="1" stop-color="#150F96" stop-opacity="0"/>
</linearGradient>
<linearGradient id="paint7_linear_33231_24798" x1="51.6424" y1="6.48974" x2="20.7214" y2="25.3784" gradientUnits="userSpaceOnUse">
<stop stop-color="#EAE8FF"/>
<stop offset="1" stop-color="#514AF3" stop-opacity="0"/>
</linearGradient>
<linearGradient id="paint8_linear_33231_24798" x1="19.3149" y1="19.9685" x2="44.5029" y2="48.975" gradientUnits="userSpaceOnUse">
<stop stop-color="#938FF7"/>
<stop offset="1" stop-color="#5F58FF" stop-opacity="0"/>
</linearGradient>
<linearGradient id="paint9_linear_33231_24798" x1="37.037" y1="46.4573" x2="25.8901" y2="30.6709" gradientUnits="userSpaceOnUse">
<stop stop-color="#150F96"/>
<stop offset="1" stop-color="#6059FF" stop-opacity="0"/>
</linearGradient>
</defs>
</svg>
