<svg width="45" height="45" viewBox="0 0 45 45" fill="none" xmlns="http://www.w3.org/2000/svg">
<circle cx="22.5" cy="22.5" r="22.5" fill="#0D61FF"/>
<path d="M36.9961 25.804C36.8222 22.8656 32.9495 21.53 32.5789 21.3928C32.5638 21.3856 32.5638 21.3712 32.5713 21.3567L36.565 17.5304V17.1188C36.565 17.0539 36.5045 16.9961 36.4364 16.9961H29.0769V14L26.3615 14.5415V14.9313H26.5128C26.5128 14.9313 27.1784 14.9313 27.1784 15.5666V16.9889H25.0756C25.0378 16.9889 25 17.025 25 17.0611V17.9635H27.1859C27.1859 17.9635 27.1859 18.9237 27.1859 20.0428V22.8656C27.1859 24.4034 28.2222 25.4719 30.0375 25.3275C30.4232 25.2986 30.7787 25.1542 31.0813 24.9665C31.2174 24.8799 31.3006 24.7427 31.3006 24.5839V24.1001C30.7106 24.4756 30.2114 24.4539 30.2114 24.4539C29.0617 24.4539 29.0844 23.0605 29.0844 23.0605V17.9635H34.3791L30.5669 21.6311C30.5594 22.1148 30.5518 22.4902 30.5518 22.4974C30.5518 22.5118 30.5594 22.5191 30.5745 22.5191C34.069 23.0822 35.0144 25.2408 35.0144 25.8689C35.0144 25.8689 35.3926 28.9228 32.1931 29.1322C32.1931 29.1322 30.098 29.2188 29.7274 28.4174C29.7122 28.3885 29.7274 28.3597 29.7576 28.3452C30.1055 28.1936 30.34 27.8976 30.34 27.5005C30.34 26.9085 29.9618 26.4248 29.1676 26.4248C28.5247 26.4248 27.9953 26.9085 27.9953 27.5005C27.9953 27.5005 27.6927 30.0707 32.1856 29.9985C37.3138 29.9119 36.9961 25.804 36.9961 25.804Z" fill="white"/>
<path d="M19.952 17.478C18.566 17.478 17.396 18.162 16.946 19.242C16.37 18.144 15.29 17.478 13.976 17.478C12.806 17.478 11.852 18.054 11.384 18.954V17.694H9.188V27H11.384V21.294C11.384 20.16 12.23 19.35 13.418 19.35C14.498 19.35 15.236 20.214 15.236 21.438V27H17.378V21.294C17.378 20.16 18.206 19.35 19.412 19.35C20.474 19.35 21.212 20.214 21.212 21.438V27H23.354V21.078C23.354 18.972 21.896 17.478 19.952 17.478Z" fill="white"/>
</svg>
