<svg width="257" height="144" viewBox="0 0 257 144" fill="none" xmlns="http://www.w3.org/2000/svg">
<path d="M141.628 49.7172C143.297 50.284 139.562 49.456 141.628 49.7172C143.221 50.5524 139.938 49.142 141.628 49.7172C134.235 49.5447 120.632 49.2274 120.632 49.2274C122.977 49.9502 117.945 48.959 120.632 49.2274L100.1 112.49L165.153 114.008L141.628 49.7172Z" fill="url(#paint0_linear_4340_15710)"/>
<path d="M110.129 23.3362L110.179 23.4245C110.818 23.2825 112.551 22.9325 114.831 22.7505C113.179 22.8258 111.591 23.0171 110.129 23.3362Z" fill="#77A4F2"/>
<path d="M121.566 25.7467C121.586 25.7088 121.606 25.6709 121.626 25.6329C119.576 24.6875 115.742 23.397 110.217 23.4849L113.929 29.8182C115.83 28.2604 118.476 26.8357 121.561 25.7439L121.566 25.7467Z" fill="#77A4F2"/>
<path d="M95.0479 31.9521C91.2536 32.0123 85.5656 35.2265 82.98 38.2537C85.6593 41.2023 91.4417 44.2399 95.236 44.1796C98.3414 44.1321 100.824 41.3545 100.765 37.9811C100.706 34.6076 98.1559 31.9128 95.045 31.9575L95.0479 31.9521Z" fill="#FF8486"/>
<path d="M123.13 23.3383C120.39 22.8183 117.534 22.6242 114.838 22.7471C112.558 22.9291 110.825 23.2791 110.186 23.4211L110.223 23.4819C115.745 23.3995 119.584 24.6928 121.631 25.63C122.052 24.8228 122.558 24.0527 123.133 23.3329L123.13 23.3383Z" fill="white"/>
<path d="M132.109 51.0057C132.721 51.0217 133.33 51.0294 133.943 51.0181C135.758 50.9866 137.567 50.8074 139.355 50.4857C141.12 50.1663 143.075 49.6562 145.062 48.8596C149.358 47.1382 153.827 44.067 156.96 38.6306L162.113 38.5282C162.704 39.4429 163.727 40.0454 164.897 40.0219C166.687 39.9845 168.115 38.5032 168.077 36.7125C168.04 34.9218 166.559 33.4943 164.768 33.5317C163.147 33.5612 161.841 34.7821 161.629 36.339L157.695 36.416L157.642 36.3194C154.803 31.1927 150.864 28.0967 146.897 26.2546C146.168 24.6815 145.17 23.2514 143.926 22.0439C142.598 20.7583 141.027 19.7392 139.301 19.059C137.583 18.3762 135.738 18.041 133.891 18.0693L133.828 18.071C130.544 18.1428 127.402 19.3566 124.931 21.4785C119.201 20.1498 112.969 20.179 108.133 21.5768C107.971 21.6232 107.824 21.7054 107.702 21.8208C107.58 21.9362 107.482 22.0712 107.422 22.2259C107.362 22.3807 107.337 22.5469 107.353 22.7139C107.369 22.8809 107.416 23.043 107.501 23.1838L110.944 29.0807C109.286 28.3743 107.678 27.8109 106.975 27.8234C105.171 27.8606 102.163 30.0333 102.319 37.9505C102.432 43.7572 104.135 46.3965 105.744 47.3808L102.566 51.1739C102.455 51.3086 102.375 51.4603 102.334 51.6317C102.296 51.7978 102.293 51.9754 102.336 52.1428C102.38 52.3103 102.456 52.4674 102.569 52.595C102.679 52.7281 102.825 52.8317 102.985 52.8946C105.278 53.836 109.778 54.5231 115.035 54.4197C116.867 54.383 118.692 54.2532 120.502 54.033C121.754 53.8797 123.102 53.6597 124.501 53.3696C126.948 52.8543 129.551 52.1039 132.109 51.0057ZM125.558 23.9079C127.745 21.6445 130.736 20.3379 133.88 20.2691L133.935 20.2701C137.086 20.226 140.132 21.4291 142.398 23.6245C144.664 25.8198 145.962 28.8265 146.02 31.9786C146.047 33.4329 144.147 34.7229 141.165 35.5378C142.457 34.7921 143.247 33.8329 143.231 32.6602C143.148 29.7427 141.925 26.975 139.842 24.9578C137.758 22.9405 134.973 21.8321 132.089 21.878C129.304 21.9201 126.645 23.0412 124.646 24.9963C124.934 24.6159 125.235 24.2494 125.567 23.9053L125.558 23.9079ZM120.049 31.4951C120.033 31.79 120.014 32.0903 120.017 32.3882C120.085 36.8686 127.193 38.7649 134.219 38.6538L134.38 38.6484C141.343 38.5116 148.286 36.393 148.212 31.9508C148.21 31.9016 148.206 31.8578 148.204 31.8085C148.185 30.9583 148.088 30.1149 147.914 29.2865C150.597 30.8796 153.154 33.1784 155.179 36.4819C155.262 36.6145 155.347 36.7417 155.43 36.8743C155.41 36.9122 155.39 36.9501 155.37 36.988C155.316 37.091 155.255 37.1828 155.204 37.2803C151.048 44.6913 144.147 47.3899 138.969 48.32C138.176 48.4648 137.379 48.5659 136.58 48.645C138.476 47.4288 140.258 45.9673 141.825 44.1934C141.972 44.0292 142.066 43.8231 142.089 43.6076C142.12 43.3895 142.077 43.1674 141.98 42.9717C141.882 42.776 141.726 42.6121 141.534 42.5049C141.342 42.3977 141.124 42.353 140.902 42.3683C126.487 43.6063 116.7 40.292 114.294 39.3677C114.248 38.9023 114.218 38.4318 114.193 37.964C114.192 37.8738 114.177 37.7834 114.176 37.6932C114.148 36.6104 114.194 35.5318 114.308 34.4542C114.39 33.6631 114.502 32.8807 114.66 32.1018C116.063 30.7732 118.094 29.5238 120.516 28.486C120.251 29.4571 120.097 30.4656 120.047 31.4869L120.049 31.4951ZM110.22 23.4931L110.183 23.4323L110.133 23.344C111.595 23.0249 113.183 22.8336 114.835 22.7583C117.532 22.6353 120.393 22.8322 123.127 23.3495C122.552 24.0692 122.047 24.8394 121.626 25.6465C121.606 25.6845 121.586 25.7224 121.566 25.7603C118.478 26.8576 115.833 28.2823 113.934 29.8346L110.223 23.5013L110.22 23.4931ZM105.224 42.857C104.85 41.6973 104.572 40.1047 104.528 37.9039C104.507 36.8596 104.553 35.953 104.633 35.1537C104.774 33.7596 105.044 32.7148 105.355 31.9468C105.965 30.4733 106.73 30.0246 107.017 30.0159C107.475 30.0484 109.841 30.89 112.399 32.1557C112.315 32.6079 112.217 33.2047 112.133 33.9466C112.078 34.4349 112.031 34.9888 112.001 35.5868C111.968 36.2449 111.95 36.9661 111.967 37.7398C111.993 38.4153 112.045 39.0966 112.115 39.7674L110.695 41.4592C108.763 43.0356 105.911 43.8773 105.216 42.8459L105.224 42.857ZM106.437 51.6014C106.031 51.5206 105.647 51.4374 105.296 51.3439L113.578 41.4679C115.75 42.3116 122.295 44.507 132.117 44.8212C133.997 44.8782 135.997 44.8745 138.111 44.7716C129.015 52.603 113.649 53.0212 106.44 51.596L106.437 51.6014Z" fill="#38237C"/>
<path d="M112.125 39.773C112.058 39.0968 112.004 38.4209 111.977 37.7454C111.961 36.9717 111.978 36.2505 112.012 35.5924L104.635 35.1482C104.556 35.9476 104.513 36.8487 104.53 37.8984C104.574 40.0992 104.853 41.6918 105.226 42.8515C105.919 43.8883 108.773 43.0411 110.705 41.4648L112.125 39.773Z" fill="#77A4F2"/>
<path d="M112.403 32.1501C109.845 30.8843 107.479 30.0428 107.021 30.0103C106.734 30.019 105.963 30.4648 105.359 31.9411L112.143 33.9438C112.226 33.2019 112.322 32.5969 112.409 32.1529L112.403 32.1501Z" fill="#77A4F2"/>
<path d="M112.14 33.9441L105.356 31.9414C105.042 32.7012 104.773 33.746 104.634 35.1483L112.011 35.5926C112.043 34.9891 112.088 34.4406 112.143 33.9524L112.14 33.9441Z" fill="white"/>
<path d="M114.172 37.6984C114.173 37.7886 114.182 37.8763 114.189 37.9693C132.937 43.671 150.637 39.426 155.074 37.1577C153.452 35.4572 151.329 33.4119 148.202 31.8084C148.204 31.8576 148.209 31.9014 148.211 31.9507C148.285 36.3929 141.342 38.5114 134.379 38.6482L134.218 38.6536C127.2 38.7622 120.084 36.8685 120.016 32.3881C120.013 32.0901 120.032 31.7898 120.048 31.495C117.729 32.3732 115.943 33.4055 114.307 34.4677C114.193 35.5453 114.147 36.624 114.174 37.7067L114.172 37.6984Z" fill="#86D4C9"/>
<path d="M155.428 36.8738C155.348 36.7358 155.26 36.614 155.178 36.4814C155.246 36.6548 155.308 36.8253 155.36 36.9902C155.38 36.9523 155.4 36.9144 155.42 36.8764L155.428 36.8738Z" fill="#86D4C9"/>
<path d="M114.188 37.9695C114.213 38.4372 114.243 38.9078 114.29 39.3732C116.701 40.3003 126.482 43.6118 140.898 42.3737C141.114 42.3556 141.337 42.4032 141.529 42.5104C141.722 42.6175 141.877 42.7815 141.975 42.9772C142.073 43.1729 142.11 43.3922 142.084 43.6131C142.053 43.8312 141.962 44.0319 141.82 44.1988C140.254 45.9728 138.471 47.4342 136.575 48.6505C137.369 48.5685 138.166 48.4675 138.964 48.3255C144.143 47.3954 151.049 44.6996 155.199 37.2858C155.159 37.2441 155.119 37.2024 155.079 37.1607C150.642 39.429 132.942 43.674 114.194 37.9723L114.188 37.9695Z" fill="#73BBBF"/>
<path d="M114.304 34.4595C115.942 33.4055 117.726 32.365 120.045 31.4867C120.095 30.4655 120.246 29.4624 120.515 28.4859C118.086 29.5208 116.059 30.7648 114.659 32.1016C114.5 32.8805 114.386 33.6684 114.307 34.4541L114.304 34.4595Z" fill="white"/>
<path d="M155.194 37.2825C155.248 37.1796 155.309 37.0877 155.36 36.9902C155.309 36.8254 155.246 36.6548 155.178 36.4815C153.147 33.1752 150.59 30.8764 147.912 29.2861C148.086 30.1145 148.178 30.9551 148.202 31.8081C151.325 33.417 153.452 35.4569 155.073 37.1574C155.113 37.1991 155.154 37.2408 155.194 37.2825Z" fill="white"/>
<path d="M132.12 44.8158C122.293 44.4988 115.752 42.3062 113.581 41.4625L105.299 51.3385C105.65 51.432 106.034 51.5152 106.44 51.596C106.298 51.5498 106.151 51.5008 106.018 51.4521C124.926 51.3792 132.112 44.8184 132.112 44.8184L132.12 44.8158Z" fill="#77A4F2"/>
<path d="M138.114 44.7664C135.999 44.8693 134.004 44.8759 132.12 44.8161C132.12 44.8161 124.931 51.3823 106.023 51.4551C106.156 51.5039 106.303 51.5529 106.444 51.5991C113.648 53.0214 129.02 52.6061 138.116 44.7747L138.114 44.7664Z" fill="white"/>
<path d="M132.084 21.8754C134.968 21.8295 137.753 22.9379 139.836 24.9552C141.92 26.9725 143.137 29.7373 143.226 32.6576C143.247 33.8331 142.449 34.795 141.16 35.5352C144.142 34.7203 146.044 33.425 146.015 31.976C145.965 28.8214 144.659 25.8172 142.393 23.6219C140.127 21.4265 137.084 20.218 133.929 20.2675L133.875 20.2665C130.731 20.3353 127.74 21.642 125.553 23.9053C125.222 24.2494 124.921 24.6159 124.632 24.9963C126.631 23.0412 129.29 21.9201 132.076 21.878L132.084 21.8754Z" fill="#77A4F2"/>
<path d="M44.8116 86.94C46.0321 86.94 47.0215 85.9506 47.0215 84.73C47.0215 83.5095 46.0321 82.52 44.8116 82.52C43.591 82.52 42.6016 83.5095 42.6016 84.73C42.6016 85.9506 43.591 86.94 44.8116 86.94Z" fill="#86D4C9"/>
<path d="M204.21 116.42C205.431 116.42 206.42 115.431 206.42 114.21C206.42 112.989 205.431 112 204.21 112C202.989 112 202 112.989 202 114.21C202 115.431 202.989 116.42 204.21 116.42Z" fill="#86D4C9"/>
<path d="M224.38 66.76C225.142 66.76 225.76 66.1422 225.76 65.38C225.76 64.6178 225.142 64 224.38 64C223.618 64 223 64.6178 223 65.38C223 66.1422 223.618 66.76 224.38 66.76Z" fill="#86D4C9"/>
<path d="M2.31165 103.87C3.0738 103.87 3.69165 103.253 3.69165 102.49C3.69165 101.728 3.0738 101.11 2.31165 101.11C1.54949 101.11 0.931641 101.728 0.931641 102.49C0.931641 103.253 1.54949 103.87 2.31165 103.87Z" fill="#86D4C9"/>
<path d="M81.38 56.76C82.1422 56.76 82.76 56.1422 82.76 55.38C82.76 54.6178 82.1422 54 81.38 54C80.6179 54 80 54.6178 80 55.38C80 56.1422 80.6179 56.76 81.38 56.76Z" fill="#86D4C9"/>
<path d="M200.38 37.76C201.142 37.76 201.76 37.1422 201.76 36.38C201.76 35.6178 201.142 35 200.38 35C199.618 35 199 35.6178 199 36.38C199 37.1422 199.618 37.76 200.38 37.76Z" fill="#86D4C9"/>
<path d="M177.312 92.3401C178.074 92.3401 178.692 91.7222 178.692 90.9601C178.692 90.1979 178.074 89.5801 177.312 89.5801C176.549 89.5801 175.932 90.1979 175.932 90.9601C175.932 91.7222 176.549 92.3401 177.312 92.3401Z" fill="#86D4C9"/>
<path d="M168.21 60.42C169.431 60.42 170.42 59.4306 170.42 58.21C170.42 56.9895 169.431 56 168.21 56C166.989 56 166 56.9895 166 58.21C166 59.4306 166.989 60.42 168.21 60.42Z" fill="#86D4C9"/>
<path d="M255.662 84.6524H254.322C252.892 84.6524 251.732 83.4924 251.732 82.0624V78.5624C251.702 78.2224 251.402 77.9724 251.062 78.0024C250.762 78.0324 250.522 78.2624 250.502 78.5624V82.0624C250.502 83.4924 249.342 84.6524 247.912 84.6524H246.562C246.222 84.6824 245.972 84.9824 246.002 85.3224C246.032 85.6224 246.262 85.8624 246.562 85.8824H247.912C249.342 85.8824 250.502 87.0424 250.502 88.4724V91.9724C250.532 92.3124 250.832 92.5624 251.172 92.5324C251.472 92.5024 251.712 92.2724 251.732 91.9724V88.4724C251.732 87.0424 252.892 85.8824 254.322 85.8824H255.662C256.002 85.9124 256.302 85.6624 256.332 85.3224C256.362 84.9824 256.112 84.6824 255.772 84.6524C255.742 84.6524 255.702 84.6524 255.672 84.6524H255.662Z" fill="#86D4C9"/>
<path d="M69.7523 104.56H68.4123C66.9823 104.56 65.8223 103.4 65.8223 101.97V98.4702C65.7923 98.1302 65.4923 97.8802 65.1523 97.9102C64.8523 97.9402 64.6123 98.1702 64.5923 98.4702V101.97C64.5923 103.4 63.4323 104.56 62.0023 104.56H60.6523C60.3123 104.59 60.0623 104.89 60.0923 105.23C60.1223 105.53 60.3523 105.77 60.6523 105.79H62.0023C63.4323 105.79 64.5923 106.95 64.5923 108.38V111.88C64.6223 112.22 64.9223 112.47 65.2623 112.44C65.5623 112.41 65.8023 112.18 65.8223 111.88V108.38C65.8223 106.95 66.9823 105.79 68.4123 105.79H69.7523C70.0923 105.82 70.3923 105.57 70.4223 105.23C70.4523 104.89 70.2023 104.59 69.8623 104.56C69.8323 104.56 69.7923 104.56 69.7623 104.56H69.7523Z" fill="#86D4C9"/>
<path d="M36.3419 47.6819H35.6019C34.8119 47.6819 34.1719 47.0419 34.1719 46.2519V44.3119C34.1519 44.1219 33.9919 43.9819 33.8019 44.0019C33.6319 44.0119 33.5019 44.1519 33.4919 44.3119V46.2519C33.4919 47.0419 32.8519 47.6819 32.0619 47.6819H31.3119C31.1219 47.7019 30.9819 47.8619 31.0019 48.0519C31.0119 48.2219 31.1519 48.3519 31.3119 48.3619H32.0619C32.8519 48.3619 33.4919 49.0019 33.4919 49.7919V51.7319C33.5119 51.9219 33.6719 52.0619 33.8619 52.0419C34.0319 52.0319 34.1619 51.8919 34.1719 51.7319V49.7919C34.1719 49.0019 34.8119 48.3619 35.6019 48.3619H36.3419C36.5319 48.3819 36.6919 48.2419 36.7119 48.0519C36.7319 47.8619 36.5919 47.7019 36.4019 47.6819C36.3819 47.6819 36.3619 47.6819 36.3419 47.6819Z" fill="#86D4C9"/>
<defs>
<linearGradient id="paint0_linear_4340_15710" x1="131.065" y1="34.8345" x2="125.191" y2="109.571" gradientUnits="userSpaceOnUse">
<stop stop-color="#86D4C9"/>
<stop offset="1" stop-color="#86D4C9" stop-opacity="0"/>
</linearGradient>
</defs>
</svg>
