<svg width="152" height="127" viewBox="0 0 152 127" fill="none" xmlns="http://www.w3.org/2000/svg">
<g clip-path="url(#clip0)">
<path d="M133.504 47.7072C139.101 48.0139 147.172 52.5951 150.706 56.7668C146.485 60.5211 137.683 64.2171 132.09 63.9185C130.99 63.8763 129.917 63.6206 128.931 63.1662C127.947 62.7118 127.071 62.0682 126.354 61.2722C125.637 60.4765 125.094 59.5443 124.756 58.5304C124.418 57.5163 124.292 56.4405 124.386 55.3657C124.48 54.2909 124.791 53.2385 125.302 52.2697C125.813 51.3007 126.513 50.4349 127.361 49.7222C128.209 49.0095 129.189 48.4642 130.244 48.1183C131.299 47.7724 132.407 47.6326 133.504 47.7072Z" fill="#FF8080"/>
</g>
<defs>
<clipPath id="clip0">
<rect width="151.074" height="126.338" fill="white"/>
</clipPath>
</defs>
</svg>
