<svg width="152" height="127" viewBox="0 0 152 127" fill="none" xmlns="http://www.w3.org/2000/svg">
<path d="M18.4664 47.7072C12.8695 48.0139 4.79864 52.5951 1.264 56.7668C5.48531 60.5211 14.2874 64.2171 19.8803 63.9185C20.9802 63.8763 22.0537 63.6206 23.0388 63.1662C24.0234 62.7118 24.8996 62.0682 25.6166 61.2722C26.3336 60.4765 26.8766 59.5443 27.2144 58.5304C27.5523 57.5163 27.6779 56.4405 27.5841 55.3657C27.4903 54.2909 27.1793 53.2385 26.6682 52.2697C26.1576 51.3007 25.4577 50.4349 24.6092 49.7222C23.7608 49.0095 22.7808 48.4642 21.726 48.1183C20.6716 47.7724 19.5634 47.6326 18.4664 47.7072Z" fill="#FF8080"/>
</svg>
