<svg width="125" height="104" viewBox="0 0 125 104" fill="none" xmlns="http://www.w3.org/2000/svg">
    <path d="M43.2755 56.5544L29.8516 68.1489L31.97 70.2545L45.3939 58.66L43.2755 56.5544Z" fill="#7996C9"/>
    <path d="M81.4289 56.5565L79.3105 58.6621L92.7345 70.2566L94.8529 68.151L81.4289 56.5565Z" fill="#7996C9"/>
    <path d="M30.9101 72.7933C33.0475 72.7933 34.7802 71.1878 34.7802 69.2074C34.7802 67.227 33.0475 65.6216 30.9101 65.6216C28.7727 65.6216 27.04 67.227 27.04 69.2074C27.04 71.1878 28.7727 72.7933 30.9101 72.7933Z" fill="#7996C9"/>
    <path d="M24.0667 20.716L15.1016 2.8526C24.5549 1.3352 40.5013 1.12136 51.0731 6.02311" fill="#88D1C3"/>
    <path d="M63.2603 59.3744C86.3374 59.2363 104.985 50.5138 104.911 39.892C104.837 29.2703 86.0693 20.7716 62.9922 20.9097C39.9152 21.0477 21.2675 29.7703 21.3416 40.392C21.4156 51.0138 40.1833 59.5125 63.2603 59.3744Z" fill="#7996C9"/>
    <path d="M63.1778 47.4745C86.2549 47.3364 104.903 38.6139 104.828 27.9921C104.754 17.3704 85.9868 8.87167 62.9097 9.00975C39.8327 9.14783 21.185 17.8704 21.259 28.4922C21.3331 39.1139 40.1008 47.6126 63.1778 47.4745Z" fill="white"/>
    <path d="M58.6619 42.119C79.2633 41.9957 95.9192 35.4576 95.8639 27.5157C95.8085 19.5738 79.0629 13.2356 58.4614 13.3588C37.86 13.4821 21.2041 20.0202 21.2594 27.9621C21.3148 35.904 38.0604 42.2423 58.6619 42.119Z" fill="#88D1C3"/>
    <path d="M89.8403 42.9555L89.9158 53.5938C89.9158 53.5938 93.2089 53.1373 94.9309 52.0599C96.653 50.9825 103.759 46.9238 103.807 41.2777C103.856 35.6317 103.585 33.74 101.335 35.7797C99.0851 37.8194 89.8403 42.9555 89.8403 42.9555Z" fill="white"/>
    <path d="M38.1402 43.7895C32.1797 41.7868 29.894 40.3229 26.9071 37.7363C23.9202 35.1497 23.5696 36.5767 20.312 37.7774C17.0544 38.9782 1.20557 53.0214 1.20557 53.0214C1.20557 53.0214 8.12027 57.5448 19.087 57.4708C30.0538 57.3968 57.5484 55.1063 59.8962 50.8214C62.244 46.5364 58.618 48.9339 52.4978 47.5316C46.3775 46.1293 38.1402 43.7895 38.1402 43.7895Z" fill="#88D1C3"/>
    <path d="M16.7303 4.30402C27.9501 4.56721 40.0752 5.68984 44.8862 9.73213C44.8862 9.73213 50.7091 6.47938 50.0212 5.56236C49.3333 4.64534 24.7235 1.72567 19.3 2.31783C13.8765 2.90999 16.7303 4.30402 16.7303 4.30402Z" fill="white"/>
    <path d="M33.6926 23.9936C27.4436 22.5091 21.847 21.699 17.5464 21.5469C13.2458 21.3947 11.5416 21.3043 10.8403 22.8587C10.1391 24.4131 8.76768 35.0431 10.0636 37.0252C11.3596 39.0073 15.1809 39.1265 17.6086 37.3501C20.0363 35.5736 20.8129 34.3523 26.192 32.5676C31.5711 30.7829 41.2464 27.4602 33.6926 23.9936Z" fill="#88D1C3"/>
    <path d="M10.8317 25.0963C18.3298 24.9536 25.809 25.8476 33.0226 27.7487L28.7442 30.2941L9.38037 30.4134L10.8317 25.0963Z" fill="white"/>
    <path d="M4.25842 51.9896C11.3063 53.0094 31.7175 55.8469 50.3668 48.5189C50.3668 48.5189 60.6324 47.7664 61.6798 48.4531C62.7272 49.1398 47.735 56.7269 33.2088 56.7392C18.6826 56.7515 -0.0821283 55.2917 4.25842 51.9896Z" fill="white"/>
    <path d="M86.1883 25.7207C86.2726 38.0574 38.1005 38.337 38.0161 26.0127C37.9744 20.0939 40.4719 14.4021 44.9594 10.1895C49.4468 5.97689 55.5566 3.58851 61.9447 3.54979C68.3327 3.51108 74.4757 5.82519 79.0222 9.98305C83.5688 14.1409 86.1465 19.8019 86.1883 25.7207V25.7207Z" fill="#88D1C3"/>
    <path d="M113.294 32.3999L103.823 32.4565L103.85 36.2356L113.32 36.1789L113.294 32.3999Z" fill="#4F457C"/>
    <path d="M105.916 40.1095L105.827 27.9785C105.689 19.787 96.2272 12.6605 81.0841 9.28851C77.3395 5.56867 72.4167 3.04659 67.0255 2.08583C61.6343 1.12506 56.0531 1.77524 51.0864 3.94265C40.5323 -0.580776 25.5845 -0.580773 15.7717 0.829713C15.3466 0.8898 14.9425 1.04121 14.5919 1.27185C14.2413 1.50248 13.9537 1.80594 13.7523 2.15795C13.5489 2.51666 13.4374 2.914 13.4266 3.31909C13.4159 3.72418 13.506 4.12613 13.6901 4.49369L20.9067 18.8864C18.4779 18.6621 16.0376 18.5619 13.5969 18.5862C8.78151 18.615 6.67337 26.9792 6.71331 32.909C6.74438 37.379 7.64533 41.0553 9.19426 43.3951L0.917024 50.6696C0.581397 50.9708 0.325952 51.3402 0.170863 51.7485C0.015773 52.1569 -0.0347124 52.5931 0.0233992 53.0226C0.0815109 53.4522 0.246624 53.8633 0.505698 54.2236C0.764772 54.5839 1.11071 54.8834 1.51618 55.0985C1.68267 55.1868 1.85807 55.2598 2.03989 55.3164C8.92796 57.5041 24.4616 60.506 40.1151 58.635V58.672C47.352 60.5636 54.845 61.4804 62.3638 61.3943C86.8626 61.2421 106 51.9033 105.916 40.1095ZM101.771 28.1101C101.802 32.4608 97.896 36.6881 90.7816 40.0108C83.21 43.5391 73.082 45.5212 62.2573 45.5869C46.2399 45.6856 31.6959 41.3966 25.5268 34.9733L37.2525 29.7837C38.3287 31.2032 39.7502 32.3682 41.4022 33.1845C46.444 35.841 54.3484 37.05 62.1952 37.0007C75.2035 36.9225 88.2962 33.3984 88.2429 25.7085C88.2178 21.7014 87.1134 17.7634 85.0297 14.2519C95.2908 17.4307 101.708 22.6203 101.771 28.1101ZM61.9555 5.43538C65.8146 5.40293 69.6145 6.31505 72.9711 8.07953C74.6554 8.97044 76.2071 10.0612 77.5868 11.3241C79.6517 13.203 81.2945 15.4422 82.4204 17.9125C83.5462 20.3828 84.1329 23.0353 84.1465 25.7168C84.1465 28.2951 80.5205 30.0058 78.1993 30.8365C79.5307 29.7796 80.3207 28.5336 80.3119 27.0861C80.2778 22.8956 78.7542 18.8323 75.9767 15.525C73.1992 12.2176 69.3228 9.85053 64.9472 8.79004C60.5716 7.72955 55.9407 8.03474 51.7712 9.6584C47.6016 11.2821 44.1258 14.1337 41.8815 17.772C43.578 14.1349 46.3783 11.0327 49.942 8.84261C53.5057 6.65251 57.6793 5.4688 61.9555 5.43538V5.43538ZM18.1017 4.34565C26.9204 3.29292 38.2289 3.60134 46.6881 6.36063C45.3136 7.29451 44.0412 8.3509 42.889 9.51469C35.2775 11.3076 29.0152 14.0957 24.7191 17.5253L18.1017 4.34565ZM36.1962 22.9205C35.9166 22.8094 35.637 22.7108 35.3574 22.5997C32.9192 21.5606 30.3964 20.7013 27.8125 20.0296C30.644 17.8954 34.4698 16.012 38.9967 14.5357C37.5147 17.1488 36.5653 19.9926 36.1962 22.9246V22.9205ZM10.8275 33.8631C10.8275 33.53 10.7787 33.2215 10.7787 32.8679C10.7387 26.7407 12.838 22.7025 13.6147 22.353C24.3729 22.2872 29.1484 24.2076 33.733 26.054C34.1768 26.2308 34.6207 26.3871 35.0379 26.5557L23.3432 31.7535C22.1084 32.3012 20.9733 33.024 19.9791 33.8959L17.3694 36.1947L14.1384 36.2152C12.7049 36.2152 11.2802 35.6478 10.8275 33.8672V33.8631ZM5.05786 52.2323L22.1138 37.0994C24.2285 39.328 26.7474 41.1971 29.5567 42.622C36.8841 46.4834 47.2074 48.9096 58.578 49.292C40.5945 58.894 15.7006 55.2136 5.04011 52.2364L5.05786 52.2323ZM49.8215 56.7557C52.1594 56.1354 54.4477 55.3645 56.6696 54.4487V57.4465C54.3351 57.3273 52.0628 57.0929 49.8037 56.7721L49.8215 56.7557ZM62.3416 57.5781C61.4052 57.5781 60.4731 57.5781 59.5411 57.5535L59.5101 53.137C61.279 52.2599 62.9787 51.2677 64.5962 50.1679L64.6495 57.5123C63.8639 57.5699 63.1005 57.6069 62.3239 57.611L62.3416 57.5781ZM67.4988 57.3766L67.4411 49.1317C69.1676 49.0248 70.8763 48.8767 72.5495 48.6793L72.6072 56.8832C70.9325 57.1272 69.2238 57.3026 67.481 57.4095L67.4988 57.3766ZM75.4565 56.4678L75.3988 48.2846C77.1385 48.0173 78.8473 47.713 80.4983 47.347L80.556 55.4521C78.9005 55.8757 77.1918 56.2088 75.4387 56.5007L75.4565 56.4678ZM83.4053 54.6996L83.3476 46.6479C85.1229 46.175 86.8138 45.6322 88.4471 45.04L88.5003 52.9683C86.8305 53.6387 85.1239 54.2276 83.3875 54.7325L83.4053 54.6996ZM91.3452 51.7265L91.2875 43.9133C91.7313 43.7241 92.1752 43.5432 92.619 43.3458C93.9147 42.7365 95.1714 42.0582 96.3826 41.3144L96.4403 48.7163C94.8508 49.8875 93.1379 50.907 91.3275 51.7594L91.3452 51.7265ZM99.2496 46.1462L99.2008 39.4022C100.137 38.681 101.011 37.8932 101.815 37.0459V40.13C101.855 42.2355 100.905 44.2587 99.2496 46.1462Z" fill="#4F457C"/>
    <path d="M118.902 39.8008C122.27 39.8008 125 37.2712 125 34.1507C125 31.0302 122.27 28.5005 118.902 28.5005C115.534 28.5005 112.804 31.0302 112.804 34.1507C112.804 37.2712 115.534 39.8008 118.902 39.8008Z" fill="#88D1C3"/>
    <path d="M82.2381 89.6288C85.5472 89.6288 88.2297 87.1433 88.2297 84.0774C88.2297 81.0114 85.5472 78.5259 82.2381 78.5259C78.9291 78.5259 76.2466 81.0114 76.2466 84.0774C76.2466 87.1433 78.9291 89.6288 82.2381 89.6288Z" fill="#7996C9"/>
    <path d="M32.2061 68.3945L29.6274 70L39.3408 83.3933L41.9195 81.7878L32.2061 68.3945Z" fill="#7996C9"/>
    <path d="M60.939 103.335C52.2579 103.335 45.2367 94.6999 45.2544 84.0821C45.2722 73.4644 52.3245 64.8617 61.0056 64.874H66.753L66.7087 103.344L60.939 103.335Z" fill="#C6A35D"/>
    <path d="M81.9976 84.1343C82.0156 73.5123 74.9921 64.8913 66.3102 64.8787C57.6282 64.866 50.5755 73.4666 50.5575 84.0885C50.5395 94.7105 57.563 103.332 66.245 103.344C74.9269 103.357 81.9796 94.7562 81.9976 84.1343Z" fill="#F2CE7E"/>
    <path d="M79.1051 84.1297C79.1206 74.993 73.3906 67.578 66.3068 67.5677C59.223 67.5573 53.4679 74.9557 53.4524 84.0924C53.4369 93.229 59.1669 100.644 66.2507 100.654C73.3345 100.665 79.0896 93.2664 79.1051 84.1297Z" fill="#C6A35D"/>
    <path d="M69.0069 67.978C74.0265 70.2973 77.6303 76.6424 77.617 84.1267C77.6037 91.6109 73.9821 97.9478 68.9492 100.251C74.7189 98.6592 79.0905 92.0673 79.1038 84.1308C79.1171 76.1942 74.7854 69.5859 69.0069 67.978Z" fill="#9B7B43"/>
    <path d="M57.757 94.6162L72.5761 94.6409C72.8824 94.6409 73.1353 94.3078 73.1353 93.9007V92.1242C73.1353 91.713 72.8868 91.384 72.5761 91.384L57.7614 91.3799C57.4508 91.3799 57.2022 91.7089 57.2022 92.116V93.8966C57.1978 94.2872 57.4463 94.6162 57.757 94.6162Z" fill="#9B7B43"/>
    <path d="M68.2665 73.9115L65.1953 77.9538L62.1374 73.9033C62.076 73.8099 61.991 73.7319 61.8896 73.676C61.7883 73.6201 61.6738 73.588 61.556 73.5825H57.7924C57.4817 73.5825 57.2332 73.9115 57.2287 74.3186L57.2065 88.8511C57.2065 89.2624 57.4551 89.5913 57.7613 89.5913H59.0928C59.4034 89.5913 59.652 89.2623 59.652 88.8552L59.6742 76.8394H60.8503L65.1687 82.5595H66.58L69.5048 76.8517H70.7031V88.8676C70.7031 89.2788 70.9516 89.6078 71.2579 89.6078H72.5893C72.8956 89.6078 73.1485 89.2788 73.1485 88.8717L73.1752 74.3392C73.1752 73.9279 72.9266 73.599 72.616 73.599H68.8524C68.7345 73.6026 68.6195 73.633 68.5173 73.6875C68.4152 73.742 68.329 73.8189 68.2665 73.9115V73.9115Z" fill="#9B7B43"/>
    <path d="M69.5183 79.2897L65.1822 84.9933L62.2752 79.2773H60.8639L60.855 83.8789L65.1733 89.599H66.5847L69.5095 83.8912L70.9297 79.2938L69.5183 79.2897Z" fill="#9B7B43"/>
    <path d="M59.1642 94.6203L73.9878 94.6409C74.294 94.6409 74.547 94.3119 74.547 93.9048V92.1242C74.547 91.713 74.294 91.3881 73.9878 91.3881L59.1642 91.3799C58.8536 91.3799 58.605 91.713 58.6006 92.1201V93.8966C58.6095 94.2872 58.858 94.6203 59.1642 94.6203Z" fill="#F2CE7E"/>
    <path d="M69.6781 73.9123L66.6025 77.9546L63.5446 73.904C63.4834 73.8118 63.3989 73.7348 63.2984 73.6796C63.1978 73.6244 63.0843 73.5928 62.9676 73.5874H59.1996C58.8933 73.5874 58.6404 73.9164 58.6404 74.3276L58.6182 88.8601C58.6182 89.2713 58.8667 89.5962 59.1729 89.5962H60.5044C60.8106 89.5962 61.0636 89.2672 61.0636 88.8601L61.0858 76.8402H62.2708L66.5892 82.5561L70.9253 76.8525H72.1014L72.0792 88.8725C72.0792 89.2837 72.3277 89.6085 72.6384 89.6085H73.9699C74.2761 89.6085 74.5291 89.2796 74.5291 88.8684L74.5513 74.3358C74.5513 73.9246 74.3027 73.5997 73.9965 73.5997H70.2329C70.1205 73.6079 70.0117 73.6404 69.9153 73.6947C69.8189 73.749 69.7377 73.8235 69.6781 73.9123V73.9123Z" fill="#F2CE7E"/>
    <path d="M70.9295 79.2938L66.5934 84.9974L62.275 79.2773L62.2661 83.883L66.5845 89.599L70.9206 83.8953L70.9295 79.2938Z" fill="#F2CE7E"/>
    <path d="M42.4628 89.6288C45.7718 89.6288 48.4543 87.1433 48.4543 84.0774C48.4543 81.0114 45.7718 78.5259 42.4628 78.5259C39.1537 78.5259 36.4712 81.0114 36.4712 84.0774C36.4712 87.1433 39.1537 89.6288 42.4628 89.6288Z" fill="#7996C9"/>
    <path d="M93.791 72.7933C95.9284 72.7933 97.6611 71.1878 97.6611 69.2074C97.6611 67.227 95.9284 65.6216 93.791 65.6216C91.6536 65.6216 89.9209 67.227 89.9209 69.2074C89.9209 71.1878 91.6536 72.7933 93.791 72.7933Z" fill="#7996C9"/>
    <path d="M92.5025 68.4123L82.7891 81.8057L85.3677 83.4112L95.0811 70.0178L92.5025 68.4123Z" fill="#7996C9"/>
</svg>
