<svg width="125" height="103" viewBox="0 0 125 103" fill="none" xmlns="http://www.w3.org/2000/svg">
    <path d="M70.0976 56.2375L81.6118 67.7671L79.7948 69.8609L68.2806 58.3313L70.0976 56.2375Z" fill="#7996C9"/>
    <path d="M37.3734 56.2392L39.1904 58.333L27.6762 69.8626L25.8592 67.7688L37.3734 56.2392Z" fill="#7996C9"/>
    <path d="M80.7044 72.3854C78.8711 72.3854 77.3849 70.789 77.3849 68.8197C77.3849 66.8504 78.8711 65.2539 80.7044 65.2539C82.5377 65.2539 84.0239 66.8504 84.0239 68.8197C84.0239 70.789 82.5377 72.3854 80.7044 72.3854Z" fill="#7996C9"/>
    <path d="M86.5744 20.6004L94.2642 2.83699C86.1557 1.32809 72.4779 1.11545 63.4101 5.98975" fill="#88D1C3"/>
    <path d="M52.9562 59.0432C33.1622 58.9059 17.1674 50.2322 17.2309 39.6699C17.2944 29.1077 33.3921 20.6566 53.1861 20.7939C72.9801 20.9312 88.9749 29.6049 88.9114 40.1672C88.8479 50.7294 72.7502 59.1805 52.9562 59.0432Z" fill="#7996C9"/>
    <path d="M53.028 47.2093C33.2339 47.0719 17.2392 38.3982 17.3027 27.836C17.3662 17.2737 33.4639 8.82257 53.2579 8.95988C73.0519 9.09719 89.0467 17.7709 88.9832 28.3332C88.9197 38.8955 72.822 47.3466 53.028 47.2093Z" fill="white"/>
    <path d="M56.9005 41.884C39.2299 41.7614 24.9435 35.2599 24.991 27.3625C25.0385 19.4651 39.4018 13.1623 57.0724 13.2849C74.743 13.4075 89.0294 19.909 88.9819 27.8064C88.9344 35.7038 74.5711 42.0066 56.9005 41.884Z" fill="#88D1C3"/>
    <path d="M30.1577 42.7155L30.093 53.2942C30.093 53.2942 27.2684 52.8403 25.7913 51.769C24.3143 50.6976 18.2196 46.6616 18.1777 41.0472C18.1359 35.4327 18.3681 33.5517 20.2981 35.5799C22.2282 37.6082 30.1577 42.7155 30.1577 42.7155Z" fill="white"/>
    <path d="M74.5025 43.5448C79.615 41.5534 81.5755 40.0977 84.1375 37.5256C86.6994 34.9535 87.0002 36.3724 89.7944 37.5665C92.5885 38.7605 106.183 52.725 106.183 52.725C106.183 52.725 100.252 57.2231 90.845 57.1495C81.4384 57.0759 57.8553 54.7983 55.8416 50.5373C53.8278 46.2764 56.9379 48.6604 62.1875 47.266C67.4371 45.8716 74.5025 43.5448 74.5025 43.5448Z" fill="#88D1C3"/>
    <path d="M92.8667 4.27977C83.2431 4.54147 72.8429 5.65782 68.7164 9.67748C68.7164 9.67748 63.7219 6.44294 64.3119 5.53105C64.902 4.61917 86.0106 1.71585 90.6625 2.30469C95.3145 2.89353 92.8667 4.27977 92.8667 4.27977Z" fill="white"/>
    <path d="M78.3175 23.8599C83.6775 22.3837 88.4779 21.5781 92.1667 21.4268C95.8555 21.2755 97.3173 21.1855 97.9187 22.7312C98.5202 24.277 99.6965 34.8475 98.5849 36.8185C97.4733 38.7895 94.1957 38.908 92.1134 37.1415C90.0311 35.375 89.3649 34.1605 84.751 32.3858C80.1372 30.6111 71.8384 27.307 78.3175 23.8599Z" fill="#88D1C3"/>
    <path d="M97.9256 24.9556C91.4942 24.8137 85.079 25.7026 78.8916 27.5931L82.5614 30.1243L99.1704 30.2429L97.9256 24.9556Z" fill="white"/>
    <path d="M103.564 51.6987C97.5184 52.7128 80.0109 55.5343 64.0148 48.2474C64.0148 48.2474 55.2096 47.4991 54.3112 48.182C53.4128 48.8649 66.2722 56.4094 78.7318 56.4217C91.1915 56.4339 107.287 54.9823 103.564 51.6987Z" fill="white"/>
    <path d="M33.29 25.5771C33.2176 37.8446 74.5366 38.1227 74.6089 25.8674C74.6448 19.9817 72.5025 14.3218 68.6535 10.1328C64.8044 5.94376 59.5638 3.56876 54.0846 3.53026C48.6054 3.49176 43.3363 5.79292 39.4366 9.92749C35.5368 14.0621 33.3258 19.6914 33.29 25.5771V25.5771Z" fill="#88D1C3"/>
    <path d="M10.0405 32.2181L18.1641 32.2744L18.1415 36.0323L10.0179 35.9759L10.0405 32.2181Z" fill="#4F457C"/>
    <path d="M16.3696 39.8849L16.4457 27.8218C16.5637 19.6762 24.6798 12.5896 37.6686 9.2365C40.8805 5.53748 45.1029 3.02953 49.7271 2.07415C54.3513 1.11876 59.1386 1.7653 63.3987 3.92057C72.4513 -0.577524 85.2726 -0.577521 93.6894 0.825067C94.054 0.884817 94.4005 1.03538 94.7013 1.26473C95.0021 1.49407 95.2487 1.79583 95.4215 2.14587C95.596 2.50257 95.6915 2.89768 95.7008 3.30051C95.71 3.70333 95.6327 4.10302 95.4748 4.46853L89.2849 18.7806C91.3682 18.5576 93.4613 18.4579 95.5547 18.4821C99.6851 18.5108 101.493 26.8281 101.459 32.7247C101.432 37.1697 100.66 40.8254 99.331 43.1521L106.431 50.3859C106.719 50.6854 106.938 51.0527 107.071 51.4588C107.204 51.8648 107.247 52.2986 107.197 52.7257C107.147 53.1529 107.006 53.5617 106.784 53.92C106.561 54.2782 106.265 54.576 105.917 54.7899C105.774 54.8777 105.624 54.9503 105.468 55.0067C99.5595 57.1821 86.2357 60.1672 72.8091 58.3066V58.3434C66.6018 60.2245 60.1748 61.1362 53.7256 61.0505C32.7121 60.8992 16.2972 51.6127 16.3696 39.8849ZM19.9251 27.9527C19.8985 32.279 23.2484 36.4827 29.3507 39.7867C35.8451 43.2953 44.5322 45.2663 53.817 45.3317C67.5557 45.4298 80.0306 41.1648 85.322 34.7775L75.2645 29.617C74.3414 31.0285 73.1221 32.187 71.7051 32.9987C67.3806 35.6403 60.6007 36.8425 53.8703 36.7935C42.7126 36.7158 31.4825 33.2113 31.5282 25.5646C31.5497 21.5799 32.4971 17.664 34.2843 14.1721C25.483 17.3331 19.9784 22.4936 19.9251 27.9527ZM54.0759 5.40495C50.7658 5.37268 47.5065 6.27969 44.6274 8.03428C43.1827 8.92021 41.8518 10.0048 40.6683 11.2607C38.8972 13.129 37.4881 15.3557 36.5224 17.8122C35.5567 20.2687 35.0535 22.9063 35.0419 25.5728C35.0419 28.1367 38.152 29.8378 40.143 30.6638C39.0009 29.6129 38.3233 28.3739 38.331 26.9345C38.3602 22.7674 39.6671 18.7269 42.0494 15.438C44.4317 12.1492 47.7567 9.79537 51.5098 8.74082C55.2629 7.68626 59.2349 7.98975 62.8113 9.60432C66.3877 11.2189 69.369 14.0545 71.294 17.6725C69.8389 14.0557 67.437 10.9709 64.3803 8.79309C61.3236 6.61526 57.7437 5.43818 54.0759 5.40495V5.40495ZM91.6908 4.32132C84.1267 3.27449 74.427 3.58117 67.1712 6.32501C68.3502 7.25366 69.4416 8.30414 70.4299 9.46141C76.9585 11.2443 82.3299 14.0168 86.0149 17.4271L91.6908 4.32132ZM76.1705 22.7921C76.4103 22.6817 76.6502 22.5836 76.89 22.4732C78.9813 21.4399 81.1452 20.5854 83.3615 19.9174C80.9328 17.7952 77.6513 15.9223 73.7684 14.4543C75.0396 17.0527 75.8539 19.8806 76.1705 22.7962V22.7921ZM97.9301 33.6734C97.9301 33.3422 97.972 33.0355 97.972 32.6838C98.0063 26.591 96.2057 22.5754 95.5395 22.2278C86.3118 22.1624 82.2157 24.072 78.2833 25.9081C77.9026 26.0839 77.5219 26.2393 77.1641 26.407L87.195 31.5757C88.2541 32.1203 89.2277 32.8391 90.0805 33.7061L92.3189 35.992L95.0903 36.0124C96.3199 36.0124 97.5419 35.4481 97.9301 33.6775V33.6734ZM102.879 51.9398L88.2495 36.8916C86.4356 39.1078 84.2751 40.9664 81.8655 42.3834C75.5805 46.2231 66.7258 48.6357 56.9728 49.016C72.398 58.5643 93.7503 54.9044 102.894 51.9439L102.879 51.9398ZM64.4836 56.4379C62.4783 55.8211 60.5156 55.0545 58.6098 54.1439V57.1249C60.6121 57.0063 62.5612 56.7732 64.4989 56.4542L64.4836 56.4379ZM53.7447 57.2557C54.5479 57.2557 55.3473 57.2557 56.1468 57.2312L56.1734 52.8394C54.6561 51.9672 53.1983 50.9806 51.8108 49.887L51.7651 57.1903C52.4389 57.2475 53.0937 57.2843 53.7599 57.2884L53.7447 57.2557ZM49.3212 57.0553L49.3707 48.8566C47.8898 48.7502 46.4242 48.603 44.989 48.4067L44.9395 56.5646C46.376 56.8073 47.8416 56.9818 49.3364 57.0881L49.3212 57.0553ZM42.4956 56.1516L42.5451 48.0142C41.0528 47.7484 39.5872 47.4458 38.1711 47.0819L38.1216 55.1416C39.5415 55.5628 41.0071 55.894 42.5108 56.1844L42.4956 56.1516ZM35.6776 54.3933L35.7271 46.3867C34.2044 45.9164 32.754 45.3767 31.3531 44.7878L31.3074 52.6718C32.7397 53.3384 34.2035 53.9239 35.6929 54.426L35.6776 54.3933ZM28.8673 51.4368L28.9167 43.6674C28.5361 43.4793 28.1554 43.2994 27.7747 43.1031C26.6633 42.4972 25.5854 41.8227 24.5466 41.083L24.4971 48.4435C25.8604 49.6081 27.3296 50.6219 28.8825 51.4695L28.8673 51.4368ZM22.0874 45.8878L22.1292 39.1816C21.3262 38.4645 20.5765 37.681 19.887 36.8385V39.9053C19.8528 41.999 20.6674 44.0109 22.0874 45.8878Z" fill="#4F457C"/>
    <path d="M5.23039 39.5779C2.34165 39.5779 -0.000142097 37.0624 -0.000142097 33.9593C-0.000142097 30.8563 2.34165 28.3408 5.23039 28.3408C8.11914 28.3408 10.4609 30.8563 10.4609 33.9593C10.4609 37.0624 8.11914 39.5779 5.23039 39.5779Z" fill="#88D1C3"/>
    <path d="M36.6782 89.1272C33.8399 89.1272 31.539 86.6556 31.539 83.6068C31.539 80.558 33.8399 78.0864 36.6782 78.0864C39.5165 78.0864 41.8174 80.558 41.8174 83.6068C41.8174 86.6556 39.5165 89.1272 36.6782 89.1272Z" fill="#7996C9"/>
    <path d="M79.5934 68.0124L81.8052 69.6089L73.4737 82.9272L71.2619 81.3307L79.5934 68.0124Z" fill="#7996C9"/>
    <path d="M54.9471 102.756C62.3932 102.756 68.4156 94.1691 68.4004 83.6108C68.3851 73.0526 62.3361 64.498 54.89 64.5103H49.9602L49.9983 102.765L54.9471 102.756Z" fill="#D3D1D1"/>
    <path d="M36.8846 83.6641C36.8692 73.1016 42.8935 64.5289 50.3403 64.5163C57.7871 64.5037 63.8365 73.0561 63.8519 83.6186C63.8674 94.1811 57.843 102.754 50.3962 102.766C42.9494 102.779 36.9001 94.2266 36.8846 83.6641Z" fill="#E1E1E1"/>
    <path d="M39.3667 83.6591C39.3535 74.5736 44.2683 67.2001 50.3443 67.1898C56.4203 67.1796 61.3567 74.5365 61.37 83.622C61.3833 92.7075 56.4684 100.081 50.3924 100.091C44.3164 100.102 39.38 92.7446 39.3667 83.6591Z" fill="#D3D1D1"/>
    <path d="M48.0272 67.5972C43.7217 69.9035 40.6306 76.2131 40.642 83.6554C40.6534 91.0977 43.7598 97.3991 48.0767 99.689C43.1278 98.1065 39.3781 91.5516 39.3667 83.6595C39.3553 75.7673 43.0707 69.196 48.0272 67.5972Z" fill="#B6B6B6"/>
    <path d="M57.6764 94.0868L44.9655 94.1114C44.7029 94.1114 44.4859 93.7801 44.4859 93.3753V91.6088C44.4859 91.1999 44.6991 90.8727 44.9655 90.8727L57.6726 90.8687C57.9391 90.8687 58.1523 91.1958 58.1523 91.6006V93.3712C58.1561 93.7597 57.9429 94.0868 57.6764 94.0868Z" fill="#B6B6B6"/>
    <path d="M48.6629 73.4975L51.2972 77.5172L53.9201 73.4894C53.9727 73.3966 54.0456 73.319 54.1326 73.2634C54.2195 73.2078 54.3177 73.1759 54.4187 73.1704H57.6469C57.9134 73.1704 58.1266 73.4975 58.1304 73.9024L58.1494 88.3535C58.1494 88.7624 57.9362 89.0896 57.6736 89.0896H56.5315C56.2651 89.0896 56.0519 88.7624 56.0519 88.3576L56.0328 76.409H55.024L51.32 82.0971H50.1095L47.6008 76.4213H46.5729V88.3699C46.5729 88.7788 46.3598 89.1059 46.0971 89.1059H44.9551C44.6924 89.1059 44.4754 88.7788 44.4754 88.374L44.4526 73.9228C44.4526 73.5139 44.6657 73.1868 44.9322 73.1868H48.1604C48.2614 73.1904 48.3601 73.2206 48.4478 73.2748C48.5354 73.329 48.6093 73.4055 48.6629 73.4975V73.4975Z" fill="#B6B6B6"/>
    <path d="M47.5887 78.8467L51.3079 84.5184L53.8014 78.8345H55.0119L55.0195 83.4103L51.3155 89.0983H50.105L47.5963 83.4225L46.3781 78.8508L47.5887 78.8467Z" fill="#B6B6B6"/>
    <path d="M56.4697 94.0909L43.755 94.1114C43.4923 94.1114 43.2753 93.7842 43.2753 93.3794V91.6088C43.2753 91.1999 43.4923 90.8768 43.755 90.8768L56.4697 90.8687C56.7361 90.8687 56.9493 91.1999 56.9531 91.6047V93.3712C56.9455 93.7597 56.7323 94.0909 56.4697 94.0909Z" fill="#E1E1E1"/>
    <path d="M47.4524 73.4978L50.0905 77.5175L52.7134 73.4897C52.7659 73.3979 52.8384 73.3213 52.9246 73.2665C53.0108 73.2116 53.1082 73.1801 53.2083 73.1748H56.4403C56.7029 73.1748 56.9199 73.5019 56.9199 73.9109L56.939 88.362C56.939 88.7709 56.7258 89.094 56.4631 89.094H55.3211C55.0584 89.094 54.8414 88.7668 54.8414 88.362L54.8224 76.4093H53.806L50.102 82.0933L46.3827 76.4216H45.3739L45.3929 88.3743C45.3929 88.7832 45.1798 89.1062 44.9133 89.1062H43.7713C43.5086 89.1062 43.2916 88.7791 43.2916 88.3702L43.2726 73.919C43.2726 73.5101 43.4857 73.1871 43.7484 73.1871H46.9766C47.073 73.1952 47.1664 73.2275 47.249 73.2815C47.3317 73.3355 47.4014 73.4096 47.4524 73.4978V73.4978Z" fill="#E1E1E1"/>
    <path d="M46.3782 78.8508L50.0975 84.5225L53.8015 78.8345L53.8091 83.4143L50.1051 89.0983L46.3858 83.4266L46.3782 78.8508Z" fill="#E1E1E1"/>
    <path d="M70.7949 89.1272C67.9566 89.1272 65.6557 86.6556 65.6557 83.6068C65.6557 80.558 67.9566 78.0864 70.7949 78.0864C73.6332 78.0864 75.9341 80.558 75.9341 83.6068C75.9341 86.6556 73.6332 89.1272 70.7949 89.1272Z" fill="#7996C9"/>
    <path d="M26.7693 72.3854C24.936 72.3854 23.4498 70.789 23.4498 68.8197C23.4498 66.8504 24.936 65.2539 26.7693 65.2539C28.6027 65.2539 30.0889 66.8504 30.0889 68.8197C30.0889 70.789 28.6027 72.3854 26.7693 72.3854Z" fill="#7996C9"/>
    <path d="M27.8745 68.0284L36.2061 81.3467L33.9943 82.9432L25.6627 69.6249L27.8745 68.0284Z" fill="#7996C9"/>
</svg>
