<svg width="187" height="185" viewBox="0 0 187 185" fill="none" xmlns="http://www.w3.org/2000/svg">
<path d="M109.476 79.2255L134.385 65.3945C137.674 63.5676 144.166 68.9548 148.882 77.4344C153.597 85.9139 154.739 94.2654 151.457 96.0977L126.548 109.929C123.26 111.762 116.768 106.374 112.052 97.8947C107.336 89.4151 106.182 81.0589 109.476 79.2255Z" fill="#B7D0E5"/>
<path d="M126.81 110.415C130.102 108.585 128.896 100.135 124.117 91.541C119.339 82.9473 112.797 77.4642 109.506 79.2943C106.214 81.1243 107.42 89.5745 112.199 98.1683C116.977 106.762 123.519 112.245 126.81 110.415Z" fill="white"/>
<path d="M105.731 72.8926L129.033 59.9356C130.404 59.1729 130.898 57.4428 130.135 56.0713L104.528 10.0189C103.765 8.6473 102.035 8.15369 100.663 8.91635L77.3616 21.8733C75.99 22.636 75.4964 24.3661 76.2591 25.7377L101.867 71.7901C102.629 73.1616 104.36 73.6552 105.731 72.8926Z" fill="#B7D0E5"/>
<path d="M106.218 72.4703L130.178 59.0874L104.026 12.265L80.0656 25.6478L106.218 72.4703Z" fill="#7996C9"/>
<path d="M158.588 167.921L181.89 154.964C183.261 154.201 183.755 152.471 182.992 151.1L157.384 105.047C156.622 103.676 154.892 103.182 153.52 103.945L130.219 116.902C128.847 117.664 128.353 119.394 129.116 120.766L154.724 166.818C155.486 168.19 157.217 168.684 158.588 167.921Z" fill="#B7D0E5"/>
<path d="M159.803 166.541L183.712 153.246L157.732 106.523L133.822 119.818L159.803 166.541Z" fill="#7996C9"/>
<path d="M144.423 68.5946L118.514 83.003L112.882 78.3306L138.79 63.9222L144.423 68.5946Z" fill="white"/>
<path d="M126.905 97.3118L150.678 84.0779L152.167 93.6912C152.167 93.6912 148.036 97.7407 145.697 98.9115C143.358 100.082 129.356 108.006 129.356 108.006L126.905 97.3118Z" fill="#7996C9"/>
<path d="M100.305 72.6831L74.698 26.6402C74.1014 25.5643 73.9561 24.2955 74.2942 23.1126C74.6323 21.9297 75.4261 20.9294 76.5013 20.3313L99.7999 7.37158C100.875 6.77462 102.143 6.6286 103.326 6.96556C104.508 7.30252 105.509 8.09493 106.108 9.16888L131.716 55.2177C132.313 56.2929 132.459 57.5609 132.122 58.7436C131.785 59.9263 130.993 60.927 129.919 61.5261L106.62 74.4858C105.543 75.0828 104.274 75.2282 103.09 74.8903C101.906 74.5523 100.905 73.7586 100.305 72.6831ZM78.2473 23.467C78.0047 23.6028 77.8256 23.829 77.7493 24.0963C77.6729 24.3636 77.7054 24.6502 77.8397 24.8936L103.447 70.9365C103.583 71.1791 103.809 71.3582 104.076 71.4345C104.344 71.5109 104.63 71.4784 104.874 71.3441L128.172 58.3844C128.292 58.3179 128.398 58.2283 128.483 58.1208C128.568 58.0133 128.631 57.89 128.669 57.758C128.706 57.6261 128.717 57.488 128.701 57.3518C128.685 57.2156 128.642 57.0839 128.575 56.9643L102.967 10.9155C102.9 10.7955 102.81 10.6899 102.703 10.6047C102.595 10.5194 102.472 10.4563 102.34 10.4189C102.208 10.3815 102.07 10.3706 101.934 10.3868C101.798 10.403 101.666 10.446 101.547 10.5132L78.2473 23.467Z" fill="#4F457C"/>
<path d="M127.42 111.491L125.675 108.355C123.925 109.324 118.201 105.299 113.624 97.0093C109.047 88.7191 108.599 81.7621 110.348 80.7874L108.602 77.6517C103.654 80.3966 105.804 90.3503 110.483 98.7559C115.161 107.161 122.473 114.241 127.42 111.491Z" fill="#4F457C"/>
<path d="M123.705 108.941C126.032 107.647 124.943 101.246 121.271 94.6434C117.6 88.0409 112.737 83.7376 110.41 85.0316C108.083 86.3255 109.173 92.7268 112.844 99.3292C116.516 105.932 121.378 110.235 123.705 108.941Z" fill="#B7D0E5"/>
<path d="M127.421 111.491C132.363 108.746 130.218 98.7921 125.54 90.3865C120.862 81.9809 113.544 74.9074 108.603 77.6576L110.349 80.7934C112.098 79.8247 117.822 83.8488 122.399 92.139C126.976 100.429 127.424 107.386 125.675 108.361L127.421 111.491Z" fill="#4F457C"/>
<path d="M137.193 79.6201C135.538 77.0773 133.526 74.7867 131.217 72.8193L136.459 69.9077C138.766 71.8727 140.777 74.1617 142.428 76.7031L137.193 79.6201Z" fill="#4F457C"/>
<path d="M143.488 69.823L148.623 62.3579C148.623 62.3579 152.861 62.2585 156.613 67.0644C160.365 71.8702 161.404 75.8232 161.404 75.8232L151.164 81.5145L143.488 69.823Z" fill="#B7D0E5"/>
<path d="M130.321 83.441C128.668 80.8987 126.656 78.6099 124.345 76.6461L127.334 74.9805C129.639 76.9508 131.649 79.2412 133.304 81.7819L130.321 83.441Z" fill="#4F457C"/>
<path d="M145.089 70.6019L152.497 63.227L145.285 61.8961L142.81 68.1106L145.089 70.6019Z" fill="white"/>
<path d="M110.483 98.7616C105.805 90.356 103.655 80.4023 108.603 77.6574L133.511 63.8265C138.453 61.0763 145.776 68.1491 150.449 76.5553C155.121 84.9615 157.271 94.9152 152.33 97.6654L127.421 111.496C122.473 114.241 115.156 107.168 110.483 98.7616ZM110.349 80.7932C108.6 81.7679 109.013 88.7343 113.625 97.015C118.237 105.296 123.925 109.323 125.675 108.361L150.584 94.5297C152.333 93.5609 151.914 86.5951 147.308 78.3137C142.702 70.0324 137.008 65.9994 135.258 66.9682L110.349 80.7932Z" fill="#4F457C"/>
<path d="M119.243 102.018C121.417 100.81 121.628 97.049 119.72 93.6067C117.812 90.1645 114.502 88.3673 112.328 89.5636L106.666 92.7021C108.12 94.6121 109.45 96.6126 110.65 98.6917C112.294 101.646 112.618 102.678 113.795 105.081L119.243 102.018Z" fill="#4F457C"/>
<path d="M141.427 85.961L144.517 84.2375C145.65 83.6169 147.099 84.309 147.784 85.788C148.469 87.2671 148.1 88.9646 147.003 89.5817L143.912 91.2993C142.78 91.9258 141.331 91.2337 140.646 89.7547C139.961 88.2756 140.306 86.5805 141.427 85.961Z" fill="#4F457C"/>
<path d="M136.992 94.9859C138.141 94.6017 138.658 93.051 138.147 91.5221C137.636 89.9933 136.29 89.0653 135.141 89.4495C133.992 89.8336 133.475 91.3844 133.987 92.9132C134.498 94.442 135.843 95.37 136.992 94.9859Z" fill="#4F457C"/>
<path d="M152.485 89.9258L153.51 86.4783C155.454 86.9266 157.452 87.0938 159.444 86.9747C161.802 85.3958 161.816 79.1216 158.032 72.3176C154.248 65.5136 148.908 62.216 146.323 63.3814C145.173 65.0123 144.26 66.7989 143.614 68.6873L140.144 67.7424C140.666 65.8385 143.014 61.1003 144.412 60.3278C149.15 57.6934 156.51 62.1938 161.174 70.571C165.837 78.9482 165.77 87.5754 161.033 90.2157C159.634 90.9882 154.375 90.4903 152.485 89.9258Z" fill="#4F457C"/>
<path d="M90.2041 14.7929L87.8506 16.1016L116.22 67.1208L118.574 65.8121L90.2041 14.7929Z" fill="#4F457C"/>
<path d="M109.605 19.1572L81.3369 34.876L82.6456 37.2295L110.914 21.5107L109.605 19.1572Z" fill="#4F457C"/>
<path d="M117.469 30.9561L89.1401 46.7788L90.4575 49.1374L118.786 33.3147L117.469 30.9561Z" fill="#4F457C"/>
<path d="M123.786 44.6699L95.5181 60.3887L96.8268 62.7422L125.095 47.0234L123.786 44.6699Z" fill="#4F457C"/>
<path d="M153.164 167.717L127.551 121.675C127.253 121.141 127.064 120.554 126.994 119.948C126.923 119.341 126.973 118.726 127.14 118.138C127.308 117.551 127.589 117.002 127.969 116.523C128.348 116.044 128.818 115.645 129.352 115.348L152.652 102.395C153.727 101.798 154.995 101.652 156.178 101.989C157.36 102.325 158.361 103.118 158.96 104.192L184.568 150.241C185.165 151.316 185.311 152.584 184.974 153.767C184.637 154.949 183.845 155.95 182.771 156.549L159.473 169.521C158.397 170.116 157.129 170.26 155.946 169.922C154.764 169.584 153.763 168.791 153.164 167.717ZM131.1 118.502C130.858 118.638 130.679 118.864 130.602 119.131C130.526 119.398 130.558 119.685 130.693 119.928L156.3 165.971C156.437 166.213 156.663 166.391 156.93 166.467C157.197 166.543 157.483 166.512 157.727 166.379L181.025 153.419C181.145 153.353 181.251 153.263 181.336 153.156C181.421 153.048 181.484 152.925 181.522 152.793C181.559 152.661 181.57 152.523 181.554 152.387C181.538 152.25 181.495 152.119 181.427 151.999L155.82 105.95C155.685 105.708 155.46 105.529 155.194 105.452C154.927 105.376 154.641 105.408 154.399 105.542L131.1 118.502Z" fill="#4F457C"/>
<path d="M143.057 109.832L140.704 111.141L169.073 162.16L171.427 160.851L143.057 109.832Z" fill="#4F457C"/>
<path d="M162.453 114.199L134.185 129.917L135.494 132.271L163.762 116.552L162.453 114.199Z" fill="#4F457C"/>
<path d="M169.544 126.957L141.275 142.676L142.584 145.029L170.852 129.311L169.544 126.957Z" fill="#4F457C"/>
<path d="M176.635 139.711L148.367 155.43L149.675 157.784L177.944 142.065L176.635 139.711Z" fill="#4F457C"/>
<path d="M120.702 65.9279L115.206 68.9844L117.907 73.8421L123.404 70.7856L120.702 65.9279Z" fill="#4F457C"/>
<path d="M141.357 103.066L135.86 106.122L138.561 110.98L144.058 107.923L141.357 103.066Z" fill="#4F457C"/>
<path d="M75.5126 84.1371C86.6528 77.9439 102.164 84.5718 110.155 98.9442C118.145 113.317 115.6 129.987 104.46 136.186C99.3369 139.032 88.7048 129.69 80.7083 115.318C72.7118 100.946 70.39 86.989 75.5126 84.1371Z" fill="#B7D0E5"/>
<path d="M108.661 99.1823C103.548 91.3278 94.3658 89.3507 88.6483 89.227L80.5356 82.2686C80.5356 82.2686 100.027 80.2739 108.661 99.1823Z" fill="white"/>
<path d="M109.164 100.088C113.139 108.576 109.976 117.422 107.079 122.352L108.731 132.941C108.731 132.941 120.674 117.408 109.164 100.088Z" fill="#7996C9"/>
<path d="M105.333 137.753C112.375 133.838 108.269 117.507 100.834 104.149C93.3982 90.7908 81.6884 78.6646 74.6412 82.5863L76.3878 85.728C79.6029 83.9383 89.2653 90.7424 97.6922 105.896C106.119 121.049 106.801 132.822 103.595 134.64L105.333 137.753Z" fill="#4F457C"/>
<path d="M106.16 133.537C110.349 131.208 108.459 119.813 101.938 108.086C95.4174 96.3585 86.7351 88.7403 82.5458 91.0697C78.3565 93.3992 80.2467 104.794 86.7676 116.521C93.2885 128.248 101.971 135.867 106.16 133.537Z" fill="#4F457C"/>
<path d="M79.1385 116.167C71.6953 102.791 67.5899 86.461 74.6394 82.563C86.6287 75.8969 103.266 82.8489 111.729 98.0644C120.191 113.28 117.322 131.081 105.333 137.748C98.2863 141.675 86.5789 129.573 79.1385 116.167ZM82.2802 114.42C90.7094 129.597 100.366 136.402 103.596 134.641C113.853 128.936 116.092 113.33 108.596 99.8459C101.1 86.3622 86.6524 80.0346 76.3943 85.7277C73.1704 87.4885 73.8563 99.2966 82.2826 114.444L82.2802 114.42Z" fill="#4F457C"/>
<path d="M71.5863 86.5509L59.9082 125.394L63.3467 126.427L75.0249 87.5847L71.5863 86.5509Z" fill="#4F457C"/>
<path d="M62.0941 124.178L61.1592 127.645L100.32 138.207L101.255 134.74L62.0941 124.178Z" fill="#4F457C"/>
<path d="M96.8225 104.331L59.6699 124.99L61.4177 128.133L98.5704 107.475L96.8225 104.331Z" fill="#4F457C"/>
<path d="M59.1727 133.866C62.6096 133.524 65.1183 130.461 64.7761 127.024C64.4338 123.587 61.3703 121.078 57.9334 121.42C54.4966 121.763 51.9879 124.826 52.3301 128.263C52.6723 131.7 55.7359 134.209 59.1727 133.866Z" fill="#7996C9"/>
<path d="M51.4715 157.915C51.3126 157.93 51.1522 157.92 50.9965 157.884C43.236 156.247 36.441 151.6 32.1012 144.962C27.7614 138.323 26.231 130.235 27.8454 122.469C27.8871 122.269 27.9678 122.079 28.0829 121.91C28.198 121.741 28.3453 121.596 28.5163 121.484C28.6874 121.372 28.8789 121.294 29.0799 121.256C29.2808 121.218 29.4874 121.22 29.6876 121.261C29.8879 121.303 30.078 121.384 30.2471 121.499C30.4162 121.614 30.561 121.761 30.6731 121.932C30.7853 122.103 30.8627 122.295 30.9009 122.496C30.939 122.697 30.9373 122.903 30.8956 123.104C29.4431 130.066 30.8122 137.32 34.7024 143.274C38.5925 149.228 44.686 153.396 51.6455 154.862C52.0103 154.938 52.3359 155.142 52.5632 155.437C52.7905 155.732 52.9044 156.099 52.8844 156.471C52.8643 156.843 52.7116 157.196 52.4539 157.465C52.1962 157.734 51.8506 157.902 51.4798 157.938L51.4715 157.915Z" fill="#7996C9"/>
<path d="M46.5344 172.582C46.3759 172.598 46.216 172.59 46.06 172.558C34.7681 170.175 24.8818 163.412 18.5681 153.751C12.2544 144.091 10.0286 132.321 12.3785 121.022C12.4633 120.618 12.7055 120.264 13.0516 120.037C13.3976 119.811 13.8193 119.732 14.2239 119.817C14.6285 119.902 14.9827 120.144 15.2088 120.49C15.4348 120.836 15.5141 121.258 15.4292 121.662C13.2412 132.155 15.3051 143.088 21.1679 152.061C27.0308 161.034 36.2137 167.314 46.7019 169.525C47.0662 169.6 47.3914 169.804 47.6186 170.099C47.8459 170.393 47.9602 170.759 47.9409 171.131C47.9216 171.502 47.7699 171.855 47.5133 172.124C47.2568 172.393 46.9122 172.562 46.5421 172.6L46.5344 172.582Z" fill="#7996C9"/>
<path d="M54.7415 146.357C54.583 146.373 54.4232 146.364 54.2671 146.333C51.8385 145.824 49.5338 144.842 47.4849 143.442C45.436 142.043 43.683 140.253 42.326 138.176C40.9691 136.098 40.0348 133.774 39.5766 131.335C39.1184 128.897 39.1452 126.392 39.6555 123.963C39.6975 123.763 39.7786 123.573 39.8941 123.404C40.0096 123.235 40.1572 123.09 40.3286 122.978C40.5 122.866 40.6917 122.789 40.8929 122.752C41.094 122.714 41.3006 122.716 41.501 122.758C41.7013 122.8 41.8913 122.881 42.0603 122.997C42.2293 123.112 42.3739 123.26 42.4858 123.431C42.5977 123.602 42.6748 123.794 42.7126 123.995C42.7505 124.196 42.7483 124.403 42.7063 124.603C41.8478 128.7 42.6517 132.969 44.941 136.473C47.2302 139.977 50.8175 142.428 54.9138 143.287C55.2744 143.367 55.5951 143.572 55.8185 143.866C56.042 144.16 56.1537 144.524 56.1337 144.893C56.1137 145.261 55.9634 145.611 55.7094 145.879C55.4555 146.147 55.1146 146.317 54.7474 146.357L54.7415 146.357Z" fill="#7996C9"/>
</svg>
