<svg width="567" height="192" viewBox="0 0 567 192" fill="none" xmlns="http://www.w3.org/2000/svg">
<path d="M103.433 70.1529L91.8956 68.2682C90.3721 68.0272 89.6508 64.6091 90.2854 60.6479C90.9199 56.6867 92.6725 53.678 94.1974 53.9296L105.741 55.8156C107.265 56.0566 107.986 59.4748 107.352 63.4359C106.717 67.3971 104.963 70.4124 103.436 70.1569L103.433 70.1529Z" fill="#C0DBFF"/>
<path d="M103.44 70.1459C104.963 70.3955 106.724 67.3396 107.368 63.3242C108.012 59.3084 107.303 55.8486 105.78 55.5993C104.257 55.3497 102.495 58.4058 101.851 62.4216C101.207 66.437 101.917 69.8967 103.44 70.1459Z" fill="white"/>
<path d="M103.03 73.167L92.2335 71.4014C91.5991 71.2966 90.9993 71.7327 90.8953 72.3742L87.4409 93.892C87.3367 94.5331 87.7671 95.1377 88.4012 95.2421L99.2019 97.0055C99.836 97.11 100.436 96.6738 100.536 96.0349L103.995 74.5147C104.099 73.8732 103.668 73.2687 103.03 73.167Z" fill="#C0DBFF"/>
<path d="M102.291 73.3255L91.2094 71.5169L87.7009 93.3485L98.7826 95.1571L102.291 73.3255Z" fill="#77A4F2"/>
<path d="M110.052 29.5109L99.2976 27.7145C98.6674 27.6074 98.07 28.0385 97.9642 28.6773L94.4422 50.1107C94.3404 50.7468 94.765 51.3512 95.3992 51.4557L106.153 53.2522C106.784 53.3593 107.381 52.9282 107.487 52.2895L111.009 30.8559C111.111 30.2202 110.686 29.6154 110.052 29.5109Z" fill="#C0DBFF"/>
<path d="M109.491 28.7456L98.4612 26.9033L94.891 48.6416L105.921 50.4844L109.491 28.7456Z" fill="#77A4F2"/>
<path d="M89.4788 64.6502L101.486 66.6144L102.111 69.5796L90.1043 67.6153L89.4788 64.6502Z" fill="white"/>
<path d="M102.419 59.8167L91.3941 58.0167L93.3594 54.5131C93.3594 54.5131 95.7173 54.2589 96.7703 54.4786C97.8234 54.6984 104.339 55.705 104.339 55.705L102.421 59.8206L102.419 59.8167Z" fill="#77A4F2"/>
<path d="M103.156 72.4287C104.194 72.6008 104.902 73.5888 104.732 74.6361L101.276 96.1521C101.105 97.1994 100.129 97.9108 99.091 97.7387L88.2975 95.9779C87.2551 95.8085 86.5495 94.8246 86.7175 93.7733L90.1735 72.2573C90.3441 71.21 91.3198 70.4984 92.3583 70.6705L103.156 72.4287ZM99.3236 96.2699L99.3262 96.2738C99.5655 96.3076 99.7818 96.1441 99.818 95.9068L103.278 74.3882L103.275 74.3842C103.315 74.1443 103.157 73.9234 102.922 73.887L92.1256 72.1221L92.123 72.1182C91.8838 72.0844 91.6674 72.2479 91.6312 72.4852L88.1753 94.0012L88.1779 94.0052C88.1378 94.2452 88.2961 94.466 88.5314 94.5025L99.3236 96.2699Z" fill="#503EAA"/>
<path d="M105.858 55.0811L105.619 56.5486C106.43 56.6789 107.24 59.4501 106.624 63.3184C106.007 67.1868 104.362 69.5593 103.548 69.425L103.313 70.89C105.603 71.2627 107.439 67.4784 108.071 63.5477C108.705 59.621 108.145 55.4498 105.855 55.0771L105.858 55.0811Z" fill="#503EAA"/>
<path d="M104.608 68.0428C105.685 68.2212 106.963 65.8633 107.457 62.7805C107.955 59.6947 107.482 57.0521 106.401 56.8764C105.32 56.7007 104.046 59.0559 103.548 62.1417C103.053 65.2244 103.527 67.8672 104.608 68.0428Z" fill="#C0DBFF"/>
<path d="M105.858 55.0806C103.568 54.7079 101.732 58.492 101.1 62.4227C100.468 66.3534 101.028 70.5247 103.318 70.8975L103.553 69.4325C102.746 69.2996 101.932 66.531 102.548 62.6627C103.165 58.7943 104.825 56.4178 105.619 56.5481L105.858 55.0806Z" fill="#503EAA"/>
<path d="M94.609 62.9302C94.4941 64.1814 94.5619 65.4413 94.807 66.6677L92.3752 66.2701C92.1341 65.0411 92.0662 63.7812 92.1811 62.53L94.6064 62.9262L94.609 62.9302Z" fill="#503EAA"/>
<path d="M90.0895 64.4963L86.5463 65.6097C86.5463 65.6097 85.1546 64.5548 85.1702 62.0304C85.1818 59.5087 85.8571 57.9591 85.8571 57.9591L90.5985 58.7333L90.0895 64.4963Z" fill="#C0DBFF"/>
<path d="M97.7994 63.447C97.6845 64.6982 97.7482 65.9609 97.992 67.1939L96.6052 66.9697C96.3641 65.7407 96.2964 64.4807 96.4139 63.2334L97.7954 63.4497L97.7994 63.447Z" fill="#503EAA"/>
<path d="M90.3128 59.4615L85.7283 58.4431C85.7283 58.4431 85.6616 57.9993 86.4156 56.4654C87.1657 54.9342 88.4813 53.6533 89.5153 54.1103C90.5466 54.5633 91.4271 55.5786 91.2941 56.4509C91.1611 57.3232 90.3128 59.4615 90.3128 59.4615Z" fill="#77A4F2"/>
<path d="M89.7725 63.8303L85.5167 64.3269L87.5015 66.6087L89.8787 65.2254L89.7725 63.8303Z" fill="white"/>
<path d="M108.084 63.5506C107.449 67.4773 105.616 71.2656 103.326 70.8929L91.7847 69.0108C89.4949 68.638 88.932 64.4628 89.564 60.5321C90.196 56.6014 92.0319 52.8172 94.3217 53.19L105.855 55.0774C108.145 55.4501 108.716 59.6199 108.084 63.5506ZM103.552 69.4226C104.363 69.5529 106.001 67.1858 106.617 63.3175C107.233 59.4491 106.419 56.6806 105.612 56.5476L94.0747 54.6628C93.2637 54.5325 91.6224 56.9023 91.006 60.7707C90.3896 64.639 91.2038 67.4076 92.0109 67.5405L103.555 69.4266L103.552 69.4226Z" fill="#503EAA"/>
<path d="M106.083 60.2493C105.077 60.0837 104.051 61.2499 103.795 62.8553C103.539 64.4607 104.143 65.893 105.149 66.0585L106.422 66.267C106.441 65.2824 106.52 64.3029 106.663 63.3259C106.883 61.9406 107.039 61.5241 107.274 60.4449L106.083 60.2493Z" fill="#503EAA"/>
<path d="M94.8556 59.7834L93.4229 59.55C92.9037 59.464 92.6077 58.8645 92.7623 58.2135C92.9143 57.5584 93.4622 57.0959 93.9815 57.1819L95.4143 57.4151C95.9336 57.5012 96.2294 58.1007 96.0709 58.7544C95.9123 59.4081 95.371 59.872 94.8544 59.7899L94.8556 59.7834Z" fill="#503EAA"/>
<path d="M97.7749 60.2619C98.2418 60.4323 98.8043 60.0599 99.0265 59.4333C99.2524 58.8037 99.0519 58.1593 98.585 57.989C98.1181 57.8186 97.5558 58.1908 97.3336 58.8174C97.1074 59.4467 97.308 60.0916 97.7749 60.2619Z" fill="#503EAA"/>
<path d="M89.6247 53.3745C87.4282 53.0134 85.2203 55.8009 84.5882 59.7143C83.9562 63.6278 85.1858 66.9783 87.3758 67.3381C88.0238 67.4463 89.9856 66.5107 90.6374 66.024L89.7617 64.8271C89.073 65.2756 88.3264 65.6194 87.5426 65.8561C86.4132 65.573 85.5342 63.1358 86.0434 59.9555C86.5526 56.7752 88.1555 54.742 89.312 54.8343C89.9847 55.3055 90.584 55.8724 91.0968 56.515L92.302 55.6597C91.8351 54.9918 90.2702 53.4787 89.6247 53.3745Z" fill="#503EAA"/>
<path d="M98.1781 72.3725L97.0895 72.1935L93.2574 96.0348L94.3461 96.2137L98.1781 72.3725Z" fill="#503EAA"/>
<path d="M101.401 90.6871L88.3016 88.5466L88.1254 89.6454L101.22 91.7883L101.401 90.6871Z" fill="#503EAA"/>
<path d="M102.354 84.7252L89.2581 82.5821L89.078 83.6835L102.177 85.8238L102.354 84.7252Z" fill="#503EAA"/>
<path d="M103.315 78.7609L90.2166 76.6207L90.0399 77.7192L103.139 79.8598L103.315 78.7609Z" fill="#503EAA"/>
<path d="M110.288 28.0221C111.327 28.1942 112.028 29.1808 111.858 30.2281L108.41 51.7388C108.239 52.7861 107.263 53.4977 106.225 53.3256L95.4316 51.5646C94.3931 51.3925 93.6874 50.4086 93.8541 49.364L97.3034 27.8468C97.4741 26.7995 98.4498 26.0878 99.4883 26.2599L110.282 28.0208L110.288 28.0221ZM106.446 51.8646L106.448 51.8686C106.688 51.9024 106.904 51.7388 106.94 51.5015L110.403 29.9869L110.4 29.9829C110.44 29.743 110.282 29.5221 110.046 29.4857L99.2504 27.7209L99.2477 27.7169C99.0085 27.6831 98.7921 27.8467 98.756 28.084L95.3 49.6L95.3026 49.6039C95.2625 49.8439 95.4208 50.0647 95.6561 50.1012L106.452 51.866L106.446 51.8646Z" fill="#503EAA"/>
<path d="M105.315 27.9634L104.227 27.7844L100.395 51.6256L101.483 51.8046L105.315 27.9634Z" fill="#503EAA"/>
<path d="M108.383 46.9555L95.3389 44.7767L95.159 45.8705L108.204 48.0492L108.383 46.9555Z" fill="#503EAA"/>
<path d="M109.337 41.0291L96.2918 38.8501L96.1121 39.9438L109.157 42.1228L109.337 41.0291Z" fill="#503EAA"/>
<path d="M110.447 34.3609L97.348 32.2204L97.1718 33.3192L110.271 35.4595L110.447 34.3609Z" fill="#503EAA"/>
<path d="M99.3451 69.7605L96.8033 69.3436L96.4362 71.6138L98.9819 72.0281L99.3451 69.7605Z" fill="#503EAA"/>
<path d="M102.133 52.4054L99.5873 51.9907L99.2243 54.2582L101.766 54.6755L102.133 52.4054Z" fill="#503EAA"/>
<path d="M114.169 77.0258C109.007 76.1852 105.695 70.055 106.776 63.3417C107.854 56.6245 112.913 51.8628 118.073 52.7101C120.449 53.0998 121.498 58.8559 120.418 65.5692C119.337 72.2825 116.536 77.421 114.168 77.0325L114.169 77.0258Z" fill="#C0DBFF"/>
<path d="M107.317 63.6491C106.965 67.5114 109.428 70.5049 111.228 72.0199L112.074 76.3546C112.074 76.3546 105.295 72.0002 107.321 63.6465L107.317 63.6491Z" fill="white"/>
<path d="M107.383 63.2245C108.261 59.4496 111.528 57.3894 113.711 56.5288L115.87 52.6814C115.87 52.6814 108.075 54.6571 107.383 63.2245Z" fill="#77A4F2"/>
<path d="M114.382 76.6507C116.698 77.0122 119.389 72 120.393 65.4551C121.397 58.9097 120.333 53.3111 118.016 52.9495C115.699 52.588 113.008 57.6003 112.004 64.1453C111 70.6902 112.065 76.2891 114.382 76.6507Z" fill="#77A4F2"/>
<path d="M118.19 51.9758C114.927 51.444 112.097 57.799 111.097 64.0497C110.09 70.299 110.786 77.2314 114.041 77.7685L114.274 76.2996C112.78 76.0439 111.404 71.3661 112.541 64.2922C113.676 57.2143 116.457 53.2049 117.949 53.45L118.193 51.9797L118.19 51.9758Z" fill="#503EAA"/>
<path d="M113.411 74.1444C115.271 74.4458 117.458 70.4424 118.301 65.199C119.143 59.9557 118.321 55.4592 116.465 55.1551C114.609 54.851 112.418 58.8571 111.575 64.1005C110.732 69.3438 111.555 73.8403 113.411 74.1444Z" fill="#503EAA"/>
<path d="M121.142 65.6891C120.139 71.9358 117.311 78.2948 114.049 77.763C108.494 76.8545 104.904 70.3315 106.045 63.2205C107.189 56.1135 112.639 51.0645 118.187 51.9717C121.446 52.5061 122.142 59.4385 121.142 65.6891ZM119.69 65.4519C120.824 58.3741 119.447 53.6856 117.957 53.4445C113.203 52.6677 108.513 57.162 107.503 63.4657C106.492 69.7693 109.536 75.5226 114.284 76.2981C115.773 76.5392 118.554 72.5364 119.692 65.4559L119.69 65.4519Z" fill="#503EAA"/>
<path d="M129.665 67.6302L128.822 66.4123L115.189 76.0295L116.034 77.2476L129.665 67.6302Z" fill="#503EAA"/>
<path d="M129.84 66.5722L119.912 53.1074L118.732 53.9922L128.656 67.4597L129.84 66.5722Z" fill="#503EAA"/>
<path d="M129.878 66.3716L112.664 63.5582L112.429 65.024L129.643 67.8373L129.878 66.3716Z" fill="#503EAA"/>
<path d="M128.551 68.692C129.34 69.8777 130.931 70.1948 132.107 69.3992C133.284 68.6035 133.597 66.9985 132.809 65.8128C132.02 64.6271 130.429 64.31 129.253 65.1056C128.076 65.9012 127.763 67.5063 128.551 68.692Z" fill="#503EAA"/>
<path d="M143.145 82.0307C142.504 81.8979 142.082 81.2553 142.22 80.5701C142.282 80.2656 142.455 79.9842 142.728 79.8028C148.819 75.7599 150.485 67.5112 146.451 61.371C146.089 60.8202 146.207 60.0515 146.753 59.6933C147.299 59.3306 148.063 59.4516 148.421 60.0015L148.449 60.0447C153.207 67.2866 151.234 77.0533 144.043 81.8575C143.774 82.0442 143.448 82.0935 143.145 82.0307Z" fill="#86D4C9"/>
<path d="M140.3 77.6845C139.997 77.6218 139.717 77.4471 139.536 77.1717C139.175 76.6209 139.328 75.8597 139.874 75.5015C143.553 73.0588 144.567 68.0391 142.138 64.289C141.783 63.7024 142.013 62.9568 142.551 62.6344C143.089 62.3121 143.77 62.4532 144.136 62.9628C147.328 67.8228 146.009 74.356 141.197 77.5157C140.925 77.6926 140.598 77.7463 140.3 77.6845Z" fill="#86D4C9"/>
<path d="M137.45 73.3366C136.81 73.2038 136.388 72.5613 136.518 71.9166C136.579 71.6122 136.752 71.3308 137.025 71.1495C138.342 70.2749 138.703 68.4885 137.83 67.1603C137.469 66.6096 137.622 65.8485 138.168 65.4903C138.714 65.1277 139.47 65.2845 139.827 65.8343C141.415 68.2997 140.755 71.5681 138.339 73.2037C138.079 73.3456 137.753 73.3993 137.45 73.3366Z" fill="#86D4C9"/>
<path d="M55.6405 148.308L44.0084 149.473C42.4744 149.635 40.893 146.52 40.4807 142.529C40.0684 138.539 40.9826 135.179 42.5206 135.028L54.1593 133.862C55.6933 133.7 57.2747 136.815 57.687 140.805C58.0992 144.796 57.1856 148.162 55.6441 148.311L55.6405 148.308Z" fill="#C0DBFF"/>
<path d="M55.6452 148.299C57.1814 148.146 58.0916 144.738 57.6745 140.693C57.2571 136.647 55.6768 133.489 54.1409 133.642C52.6047 133.795 51.6944 137.203 52.1119 141.249C52.5289 145.294 54.1094 148.452 55.6452 148.299Z" fill="white"/>
<path d="M56.0316 151.323L45.1459 152.412C44.506 152.475 44.0395 153.051 44.1051 153.698L46.3376 175.377C46.4029 176.023 46.9751 176.495 47.6147 176.432L58.5038 175.34C59.1433 175.277 59.6099 174.7 59.5411 174.057L57.3122 152.375C57.2465 151.729 56.6742 151.256 56.0316 151.323Z" fill="#C0DBFF"/>
<path d="M55.3589 151.668L44.1867 152.789L46.4482 174.784L57.6204 173.663L55.3589 151.668Z" fill="#77A4F2"/>
<path d="M51.515 107.337L40.6621 108.385C40.0257 108.445 39.5602 109.016 39.6233 109.66L41.7687 131.275C41.835 131.916 42.4016 132.39 43.0412 132.326L53.8939 131.278C54.5304 131.219 54.9959 130.648 54.9327 130.003L52.7875 108.388C52.7216 107.748 52.1546 107.274 51.515 107.337Z" fill="#C0DBFF"/>
<path d="M50.7754 106.743L39.6442 107.818L41.8218 129.74L52.9533 128.665L50.7754 106.743Z" fill="#77A4F2"/>
<path d="M40.7377 146.604L52.8437 145.394L54.2154 148.096L42.1093 149.307L40.7377 146.604Z" fill="white"/>
<path d="M51.9859 138.587L40.871 139.702L41.8626 135.809C41.8626 135.809 44.0743 134.953 45.1483 134.893C46.2223 134.832 52.7766 134.118 52.7766 134.118L51.9895 138.59L51.9859 138.587Z" fill="#77A4F2"/>
<path d="M55.9616 150.578C57.0092 150.475 57.949 151.246 58.0552 152.302L60.2858 173.979C60.392 175.035 59.6339 175.975 58.5862 176.078L47.7049 177.17C46.6541 177.276 45.7179 176.509 45.6081 175.45L43.3775 153.772C43.2713 152.717 44.0296 151.777 45.0772 151.674L55.9616 150.578ZM58.4308 174.599L58.4344 174.602C58.6742 174.572 58.8408 174.358 58.8143 174.12L56.5868 152.439L56.5833 152.436C56.5599 152.194 56.3498 152.021 56.1131 152.047L45.2282 153.137L45.2246 153.133C44.9848 153.163 44.8181 153.377 44.8446 153.615L47.0751 175.293L47.0787 175.296C47.1021 175.538 47.3121 175.71 47.5488 175.685L58.4308 174.599Z" fill="#503EAA"/>
<path d="M54.0818 133.121L54.2306 134.601C55.0478 134.517 56.5477 136.984 56.9535 140.88C57.3593 144.776 56.384 147.493 55.5633 147.574L55.7152 149.05C58.0235 148.818 58.8176 144.687 58.4108 140.727C58.0075 136.77 56.3865 132.886 54.0782 133.118L54.0818 133.121Z" fill="#503EAA"/>
<path d="M56.2295 145.965C57.3158 145.859 57.9403 143.25 57.6198 140.144C57.3021 137.035 56.1604 134.605 55.071 134.715C53.9815 134.825 53.3602 137.43 53.6779 140.539C53.9984 143.645 55.14 146.075 56.2295 145.965Z" fill="#C0DBFF"/>
<path d="M54.0817 133.121C51.7734 133.354 50.9794 137.484 51.3863 141.445C51.7932 145.405 53.414 149.289 55.7223 149.057L55.5704 147.581C54.7564 147.661 53.2533 145.198 52.8475 141.302C52.4417 137.406 53.4299 134.68 54.2305 134.601L54.0817 133.121Z" fill="#503EAA"/>
<path d="M45.2478 143.614C45.4607 144.853 45.8523 146.052 46.4064 147.173L43.9546 147.419C43.4036 146.294 43.0119 145.095 42.7991 143.856L45.2443 143.611L45.2478 143.614Z" fill="#503EAA"/>
<path d="M41.2877 146.297L38.1534 148.29C38.1534 148.29 36.5361 147.631 35.8978 145.189C35.2564 142.75 35.5075 141.078 35.5075 141.078L40.2878 140.599L41.2877 146.297Z" fill="#C0DBFF"/>
<path d="M48.4634 143.288C48.6763 144.527 49.0646 145.73 49.6192 146.858L48.2216 147C47.6706 145.875 47.2791 144.676 47.0698 143.441L48.4602 143.292L48.4634 143.288Z" fill="#503EAA"/>
<path d="M40.2002 141.376L35.5084 141.579C35.5084 141.579 35.3291 141.168 35.6604 139.491C35.9887 137.818 36.9279 136.24 38.045 136.414C39.1584 136.584 40.2716 137.337 40.3689 138.214C40.4662 139.091 40.2002 141.376 40.2002 141.376Z" fill="#77A4F2"/>
<path d="M40.8092 145.737L36.8269 147.318L39.3346 149.008L41.2728 147.057L40.8092 145.737Z" fill="white"/>
<path d="M58.4243 140.727C58.8275 144.684 58.037 148.817 55.7287 149.05L44.0935 150.219C41.7852 150.452 40.1608 146.564 39.754 142.604C39.3471 138.644 40.141 134.513 42.4493 134.281L54.0783 133.119C56.3866 132.886 58.0174 136.766 58.4243 140.727ZM55.5666 147.571C56.3838 147.487 57.3526 144.777 56.9468 140.881C56.541 136.985 55.038 134.521 54.224 134.602L42.592 135.767C41.7748 135.851 40.8028 138.565 41.2086 142.461C41.6144 146.357 43.1174 148.821 43.9314 148.741L55.5702 147.574L55.5666 147.571Z" fill="#503EAA"/>
<path d="M55.6372 138.055C54.623 138.156 53.9329 139.548 54.1013 141.165C54.2696 142.782 55.2239 144.009 56.2381 143.909L57.5225 143.78C57.2854 142.825 57.1081 141.858 56.9936 140.877C56.8472 139.482 56.8905 139.039 56.8381 137.936L55.6372 138.055Z" fill="#503EAA"/>
<path d="M44.6714 140.511L43.2271 140.657C42.7033 140.708 42.2623 140.205 42.2431 139.537C42.2204 138.865 42.6299 138.276 43.1537 138.225L44.5982 138.079C45.122 138.028 45.5629 138.53 45.579 139.203C45.595 139.875 45.1922 140.463 44.672 140.518L44.6714 140.511Z" fill="#503EAA"/>
<path d="M47.6154 140.218C48.1105 140.262 48.5575 139.757 48.6099 139.094C48.6652 138.427 48.3047 137.857 47.8096 137.813C47.3145 137.769 46.8678 138.274 46.8153 138.937C46.7597 139.603 47.1204 140.175 47.6154 140.218Z" fill="#503EAA"/>
<path d="M37.9603 135.675C35.7452 135.894 34.334 139.158 34.7363 143.102C35.1387 147.046 37.1936 149.964 39.402 149.745C40.056 149.681 41.7089 148.27 42.2124 147.631L41.0568 146.702C40.5077 147.313 39.8755 147.839 39.1796 148.27C38.0154 148.289 36.5356 146.162 36.2043 142.958C35.8731 139.755 36.8951 137.376 38.0361 137.166C38.8078 137.447 39.5334 137.839 40.1951 138.327L41.1378 137.189C40.514 136.665 38.6108 135.608 37.9603 135.675Z" fill="#503EAA"/>
<path d="M51.1392 151.812L50.0414 151.921L52.5104 175.941L53.6083 175.832L51.1392 151.812Z" fill="#503EAA"/>
<path d="M58.9927 168.668L45.7856 169.991L45.8998 171.098L59.1033 169.778L58.9927 168.668Z" fill="#503EAA"/>
<path d="M58.3696 162.663L45.1656 163.982L45.2768 165.093L58.4833 163.77L58.3696 162.663Z" fill="#503EAA"/>
<path d="M57.755 156.652L44.5485 157.975L44.6622 159.082L57.8692 157.759L57.755 156.652Z" fill="#503EAA"/>
<path d="M51.3579 105.838C52.4055 105.735 53.3387 106.507 53.4449 107.563L55.6817 129.233C55.7879 130.289 55.0296 131.228 53.982 131.331L43.1008 132.424C42.0532 132.526 41.1169 131.758 41.0075 130.706L38.7702 109.029C38.664 107.974 39.4223 107.034 40.4699 106.931L51.3513 105.838L51.3579 105.838ZM53.8173 129.863L53.8208 129.866C54.0607 129.837 54.2273 129.622 54.2008 129.384L51.9769 107.706L51.9733 107.703C51.95 107.461 51.7399 107.289 51.5032 107.314L40.6183 108.404L40.6147 108.401C40.3749 108.43 40.2082 108.644 40.2347 108.883L42.4652 130.56L42.4688 130.563C42.4922 130.805 42.7022 130.977 42.9389 130.952L53.8239 129.862L53.8173 129.863Z" fill="#503EAA"/>
<path d="M46.5393 107.069L45.4414 107.178L47.9105 131.198L49.0083 131.089L46.5393 107.069Z" fill="#503EAA"/>
<path d="M54.4187 124.62L41.2547 125.891L41.3641 126.994L54.5282 125.722L54.4187 124.62Z" fill="#503EAA"/>
<path d="M53.8053 118.648L40.6408 119.92L40.7503 121.023L53.9148 119.751L53.8053 118.648Z" fill="#503EAA"/>
<path d="M53.1521 111.92L39.9451 113.242L40.0592 114.349L53.2658 113.027L53.1521 111.92Z" fill="#503EAA"/>
<path d="M51.5903 148.987L49.0272 149.242L49.2602 151.53L51.8263 151.271L51.5903 148.987Z" fill="#503EAA"/>
<path d="M49.7918 131.501L47.2253 131.759L47.4615 134.044L50.025 133.789L49.7918 131.501Z" fill="#503EAA"/>
<path d="M67.7899 152.167C62.5861 152.691 57.8006 147.627 57.1067 140.863C56.4093 134.096 60.0636 128.187 65.2678 127.669C67.663 127.431 70.1665 132.719 70.8604 139.484C71.5542 146.248 70.1788 151.936 67.7902 152.174L67.7899 152.167Z" fill="#C0DBFF"/>
<path d="M57.7089 141.02C58.3682 144.842 61.5226 147.096 63.6536 148.093L65.5927 152.061C65.5927 152.061 57.917 149.61 57.7119 141.017L57.7089 141.02Z" fill="white"/>
<path d="M57.6626 140.594C57.5338 136.72 60.1567 133.884 62.0423 132.488L63.132 128.213C63.132 128.213 56.1135 132.139 57.6626 140.594Z" fill="#77A4F2"/>
<path d="M67.8976 151.75C70.2289 151.5 71.5305 145.962 70.8066 139.38C70.0823 132.798 67.605 127.666 65.2738 127.916C62.9425 128.166 61.6407 133.704 62.3646 140.286C63.0886 146.868 65.5663 152.001 67.8976 151.75Z" fill="#77A4F2"/>
<path d="M65.1903 126.931C61.9012 127.262 60.8121 134.133 61.4637 140.429C62.1086 146.726 64.5756 153.242 67.8584 152.918L67.7029 151.439C66.1943 151.579 63.6541 147.417 62.9219 140.29C62.186 133.159 63.835 128.566 65.3395 128.417L65.1939 126.934L65.1903 126.931Z" fill="#503EAA"/>
<path d="M66.3117 149.58C68.1866 149.39 69.2624 144.957 68.7196 139.674C68.1767 134.391 66.2188 130.261 64.347 130.447C62.4752 130.634 61.3963 135.071 61.9392 140.353C62.4821 145.636 64.4399 149.767 66.3117 149.58Z" fill="#503EAA"/>
<path d="M71.591 139.413C72.239 145.706 71.1535 152.58 67.8644 152.911C62.2635 153.471 57.1075 148.1 56.3693 140.936C55.6347 133.775 59.5922 127.487 65.1865 126.928C68.4724 126.6 70.9394 133.116 71.591 139.413ZM70.1266 139.56C69.3907 132.429 66.8465 128.257 65.3455 128.41C60.5519 128.89 57.1856 134.445 57.8409 140.795C58.4962 147.146 62.9256 151.915 67.7125 151.435C69.2135 151.283 70.8629 146.697 70.1302 139.563L70.1266 139.56Z" fill="#503EAA"/>
<path d="M80.326 139.082L79.1958 138.124L68.5172 150.942L69.6479 151.9L80.326 139.082Z" fill="#503EAA"/>
<path d="M80.2208 138.014L67.1459 127.578L66.2351 128.738L79.307 139.178L80.2208 138.014Z" fill="#503EAA"/>
<path d="M80.206 137.811L62.8502 139.549L63.0028 141.025L80.3586 139.288L80.206 137.811Z" fill="#503EAA"/>
<path d="M79.5247 140.395C80.5931 141.336 82.2123 141.23 83.1427 140.157C84.0732 139.084 83.9603 137.453 82.8919 136.512C81.8235 135.571 80.2044 135.676 79.2739 136.749C78.3435 137.822 78.4563 139.454 79.5247 140.395Z" fill="#503EAA"/>
<path d="M97.0742 149.501C96.4205 149.539 95.8463 149.027 95.8027 148.33C95.7833 148.02 95.8774 147.703 96.0943 147.457C100.931 141.976 100.406 133.577 94.9198 128.69C94.4277 128.251 94.3428 127.478 94.7771 126.991C95.211 126.499 95.9804 126.419 96.468 126.857L96.5066 126.892C102.977 132.655 103.599 142.6 97.8966 149.101C97.6844 149.352 97.3829 149.483 97.0742 149.501Z" fill="#86D4C9"/>
<path d="M93.2008 146.039C92.8922 146.057 92.5765 145.961 92.3304 145.742C91.8384 145.303 91.7899 144.528 92.2239 144.041C95.1457 140.729 94.8257 135.618 91.5091 132.625C91.0147 132.15 91.0433 131.37 91.4797 130.92C91.9161 130.469 92.6105 130.429 93.0954 130.827C97.4369 134.695 97.8535 141.347 94.0233 145.644C93.8061 145.886 93.5049 146.022 93.2008 146.039Z" fill="#86D4C9"/>
<path d="M89.323 142.577C88.6698 142.615 88.096 142.103 88.0548 141.447C88.0354 141.137 88.1294 140.82 88.3461 140.574C89.3918 139.389 89.2777 137.57 88.0915 136.513C87.5997 136.074 87.5511 135.299 87.9849 134.812C88.4185 134.321 89.1897 134.277 89.677 134.715C91.8492 136.686 92.0578 140.013 90.1473 142.218C89.9325 142.423 89.6315 142.559 89.323 142.577Z" fill="#86D4C9"/>
<path d="M438.564 55.0037L447.678 47.6826C448.876 46.7106 451.9 48.4591 454.422 51.5789C456.944 54.6987 458.01 58.0135 456.804 58.9794L447.684 66.3044C446.486 67.2764 443.462 65.5279 440.94 62.4081C438.418 59.2883 437.348 55.9682 438.559 55.003L438.564 55.0037Z" fill="#C0DBFF"/>
<path d="M438.565 55.0139C437.361 55.9801 438.456 59.3327 441.012 62.4959C443.568 65.6592 446.616 67.4447 447.819 66.4784C449.023 65.5121 447.928 62.1593 445.371 58.996C442.816 55.8328 439.768 54.0476 438.565 55.0139Z" fill="white"/>
<path d="M436.591 52.6893L445.122 45.8396C445.624 45.4378 445.7 44.7002 445.292 44.1941L431.598 27.2409C431.191 26.7349 430.453 26.6509 429.952 27.0527L421.42 33.9069C420.919 34.3087 420.842 35.0465 421.251 35.5479L434.944 52.5058C435.352 53.0119 436.089 53.0958 436.591 52.6893Z" fill="#C0DBFF"/>
<path d="M436.968 52.0342L445.721 45.0012L431.829 27.7982L423.076 34.8311L436.968 52.0342Z" fill="#77A4F2"/>
<path d="M464.367 87.0943L472.892 80.2966C473.392 79.8995 473.471 79.167 473.067 78.6613L459.48 61.7144C459.075 61.2134 458.342 61.1252 457.84 61.527L449.315 68.3245C448.814 68.7216 448.736 69.4541 449.14 69.9598L462.727 86.907C463.131 87.4078 463.865 87.4961 464.367 87.0943Z" fill="#C0DBFF"/>
<path d="M465.311 87.1896L474.054 80.2174L460.273 63.0308L451.529 70.0027L465.311 87.1896Z" fill="#77A4F2"/>
<path d="M451.984 48.3039L442.497 55.9209L439.874 54.404L449.361 46.787L451.984 48.3039Z" fill="white"/>
<path d="M446.929 61.1584L455.637 54.1621L456.929 57.9659C456.929 57.9659 455.542 59.8894 454.675 60.5257C453.808 61.162 448.703 65.3352 448.703 65.3352L446.924 61.1578L446.929 61.1584Z" fill="#77A4F2"/>
<path d="M437.056 53.2763C436.234 53.9336 435.026 53.7999 434.361 52.9729L420.669 36.0199C420.004 35.1929 420.127 33.9918 420.949 33.3344L429.474 26.4839C430.297 25.8219 431.5 25.9548 432.17 26.7825L445.862 43.7355C446.527 44.5625 446.404 45.7639 445.582 46.4212L437.056 53.2763ZM421.886 34.4893L421.882 34.4887C421.697 34.644 421.674 34.9143 421.826 35.0998L435.517 52.0574L435.522 52.0581C435.674 52.2483 435.944 52.2782 436.128 52.1276L444.658 45.2778L444.662 45.2785C444.847 45.1231 444.87 44.8529 444.718 44.6674L431.026 27.7143L431.021 27.7136C430.869 27.5234 430.599 27.4935 430.415 27.6441L421.886 34.4893Z" fill="#503EAA"/>
<path d="M448.153 66.8824L447.221 65.7235C446.582 66.2397 443.979 64.9898 441.514 61.9455C439.049 58.9012 438.384 56.0916 439.028 55.5761L438.096 54.4219C436.288 55.8758 437.875 59.7711 440.376 62.8686C442.872 65.9655 446.349 68.337 448.157 66.8831L448.153 66.8824Z" fill="#503EAA"/>
<path d="M439.348 57.2889C438.495 57.9706 439.395 60.4976 441.357 62.9258C443.319 65.3589 445.601 66.773 446.455 66.0866C447.308 65.4002 446.408 62.878 444.446 60.445C442.483 58.0167 440.201 56.6025 439.348 57.2889Z" fill="#C0DBFF"/>
<path d="M448.153 66.8827C449.961 65.4288 448.373 61.5337 445.872 58.4362C443.372 55.3386 439.895 52.9669 438.087 54.4208L439.019 55.5751C439.657 55.0637 442.261 56.3088 444.726 59.3531C447.191 62.3974 447.849 65.2205 447.221 65.7238L448.153 66.8827Z" fill="#503EAA"/>
<path d="M449.834 53.2696C448.98 52.3478 447.998 51.556 446.922 50.9185L448.843 49.3756C449.919 50.0179 450.901 50.8095 451.755 51.7314L449.839 53.2703L449.834 53.2696Z" fill="#503EAA"/>
<path d="M451.69 48.8608L453.231 45.4812C453.231 45.4812 454.946 45.1513 456.813 46.8504C458.681 48.5447 459.382 50.0828 459.382 50.0828L455.636 53.0917L451.69 48.8608Z" fill="#C0DBFF"/>
<path d="M447.317 55.2965C446.463 54.3747 445.481 53.578 444.401 52.935L445.495 52.0535C446.57 52.6957 447.553 53.4876 448.402 54.4088L447.317 55.2917L447.317 55.2965Z" fill="#503EAA"/>
<path d="M455.286 52.3922L459.108 49.6634C459.108 49.6634 459.482 49.9104 460.119 51.4965C460.757 53.078 460.83 54.9127 459.799 55.3762C458.772 55.8404 457.429 55.8166 456.869 55.1346C456.309 54.4526 455.286 52.3922 455.286 52.3922Z" fill="#77A4F2"/>
<path d="M452.397 49.0697L454.873 45.5725L451.849 45.5234L451.289 48.2162L452.397 49.0697Z" fill="white"/>
<path d="M440.365 62.8766C437.869 59.7797 436.277 55.8838 438.085 54.4299L447.2 47.1042C449.008 45.6503 452.489 48.0226 454.99 51.1202C457.491 54.2177 459.079 58.1128 457.271 59.5667L448.157 66.883C446.349 68.3369 442.866 65.9742 440.365 62.8766ZM439.027 55.5809C438.388 56.097 439.054 58.897 441.519 61.9413C443.984 64.9856 446.588 66.2307 447.226 65.7193L456.34 58.3984C456.979 57.8823 456.314 55.0775 453.849 52.0332C451.384 48.9889 448.781 47.7438 448.142 48.2552L439.023 55.5802L439.027 55.5809Z" fill="#503EAA"/>
<path d="M444.158 63.5951C444.953 62.9578 444.772 61.4145 443.749 60.151C442.726 58.8876 441.257 58.3795 440.462 59.0168L439.455 59.8248C440.175 60.4967 440.851 61.2101 441.482 61.9697C442.365 63.0591 442.57 63.4539 443.216 64.35L444.158 63.5951Z" fill="#503EAA"/>
<path d="M452.01 55.5565L453.141 54.6469C453.552 54.3183 454.196 54.4988 454.577 55.049C454.962 55.5999 454.94 56.3167 454.529 56.6453L453.398 57.5551C452.987 57.8838 452.343 57.7031 451.963 57.1482C451.583 56.5933 451.599 55.8806 452.006 55.5512L452.01 55.5565Z" fill="#503EAA"/>
<path d="M449.702 57.4075C449.264 57.6409 449.164 58.3082 449.482 58.8923C449.799 59.4812 450.413 59.7628 450.851 59.5294C451.29 59.296 451.389 58.629 451.072 58.0449C450.755 57.4561 450.141 57.1741 449.702 57.4075Z" fill="#503EAA"/>
<path d="M460.273 55.95C462.01 54.5577 461.413 51.0523 458.924 47.9662C456.436 44.8801 453.122 43.5549 451.391 44.9432C450.877 45.3529 450.262 47.4373 450.188 48.2474L451.664 48.3962C451.79 47.5842 452.034 46.7991 452.382 46.0579C453.347 45.4072 455.747 46.3826 457.772 48.8873C459.797 51.3919 460.238 53.9431 459.396 54.7416C458.596 54.9269 457.774 54.9937 456.953 54.9456L456.784 56.4136C457.593 56.5128 459.764 56.3604 460.273 55.95Z" fill="#503EAA"/>
<path d="M440.426 49.6119L441.287 48.9219L426.117 30.1348L425.256 30.8249L440.426 49.6119Z" fill="#503EAA"/>
<path d="M424.65 39.7662L434.998 31.4545L434.299 30.5889L423.951 38.8958L424.65 39.7662Z" fill="#503EAA"/>
<path d="M428.447 44.4605L438.795 36.1534L438.096 35.2832L427.748 43.5948L428.447 44.4605Z" fill="#503EAA"/>
<path d="M432.24 49.1627L442.588 40.8512L441.889 39.9854L431.541 48.2971L432.24 49.1627Z" fill="#503EAA"/>
<path d="M465.316 88.2654C464.494 88.9227 463.291 88.7851 462.626 87.9581L448.932 71.0145C448.268 70.1875 448.391 68.9861 449.213 68.3288L457.737 61.4785C458.559 60.8212 459.763 60.9541 460.429 61.7764L474.126 78.7253C474.791 79.5522 474.668 80.7536 473.846 81.411L465.321 88.2614L465.316 88.2654ZM450.152 69.4697L450.147 69.469C449.962 69.6243 449.939 69.8946 450.091 70.0801L463.778 87.037L463.783 87.0377C463.934 87.2279 464.205 87.2578 464.389 87.1072L472.918 80.2574L472.923 80.2581C473.108 80.1028 473.131 79.8325 472.979 79.647L459.286 62.694L459.282 62.6933C459.13 62.5031 458.86 62.4732 458.676 62.6238L450.146 69.4736L450.152 69.4697Z" fill="#503EAA"/>
<path d="M468.684 84.606L469.545 83.9159L454.374 65.1289L453.514 65.8188L468.684 84.606Z" fill="#503EAA"/>
<path d="M452.507 74.1928L462.847 65.9474L462.154 65.0825L451.814 73.3281L452.507 74.1928Z" fill="#503EAA"/>
<path d="M456.278 78.8636L466.619 70.618L465.926 69.7534L455.585 77.9989L456.278 78.8636Z" fill="#503EAA"/>
<path d="M460.495 84.147L470.844 75.8353L470.144 74.9697L459.796 83.2813L460.495 84.147Z" fill="#503EAA"/>
<path d="M441.588 52.2261L443.597 50.6144L442.154 48.8238L440.144 50.4401L441.588 52.2261Z" fill="#503EAA"/>
<path d="M452.632 65.9009L454.643 64.2846L453.199 62.4988L451.189 64.1105L452.632 65.9009Z" fill="#503EAA"/>
<path d="M426.275 58.3946C430.351 55.1173 437.124 56.752 441.395 62.0432C445.67 67.3351 445.83 74.2808 441.75 77.5527C439.872 79.0588 434.89 75.9916 430.619 70.7004C426.348 65.4092 424.399 59.8912 426.271 58.3891L426.275 58.3946Z" fill="#C0DBFF"/>
<path d="M440.805 62.2405C438.168 59.3967 434.294 59.2279 431.964 59.5541L428.175 57.2857C428.175 57.2857 435.945 55.1541 440.804 62.2451L440.805 62.2405Z" fill="white"/>
<path d="M441.076 62.573C443.297 65.7495 442.645 69.5568 441.826 71.7555L443.244 75.9331C443.244 75.9331 446.986 68.8145 441.076 62.573Z" fill="#77A4F2"/>
<path d="M426.413 58.8038C424.595 60.2851 426.524 65.6367 430.721 70.7587C434.918 75.8806 439.793 78.8314 441.611 77.3501C443.428 75.8688 441.499 70.517 437.303 65.3951C433.106 60.2731 428.23 57.3225 426.413 58.8038Z" fill="#77A4F2"/>
<path d="M442.218 78.1298C444.795 76.0587 441.96 69.7055 437.98 64.7832C434.005 59.857 428.384 55.7409 425.808 57.8025L426.745 58.9575C427.934 58.0177 432.333 60.121 436.834 65.6955C441.34 71.2708 442.462 76.0196 441.283 76.9654L442.214 78.1291L442.218 78.1298Z" fill="#503EAA"/>
<path d="M428.925 59.757C427.457 60.9391 428.973 65.2414 432.31 69.3733C435.646 73.5052 439.54 75.8995 441.007 74.7221C442.474 73.5448 440.959 69.2378 437.622 65.1058C434.286 60.9739 430.392 58.5796 428.925 59.757Z" fill="#503EAA"/>
<path d="M430.046 71.1587C426.07 66.2371 423.231 59.8832 425.807 57.8122C430.196 54.2879 437.448 55.9782 441.974 61.5804C446.495 67.1819 446.607 74.6104 442.223 78.1307C439.647 80.197 434.026 76.081 430.046 71.1587ZM431.193 70.237C435.699 75.8122 440.107 77.9216 441.282 76.975C445.038 73.9582 444.83 67.4662 440.817 62.5008C436.804 57.5354 430.49 55.9535 426.74 58.9664C425.565 59.9129 426.683 64.6563 431.188 70.2363L431.193 70.237Z" fill="#503EAA"/>
<path d="M422.904 76.2005L424.374 76.387L426.334 59.8194L424.864 59.633L422.904 76.2005Z" fill="#503EAA"/>
<path d="M423.575 77.0378L440.226 78.6544L440.357 77.1854L423.706 75.5641L423.575 77.0378Z" fill="#503EAA"/>
<path d="M423.698 77.2002L437.298 66.2778L436.365 65.1235L422.765 76.0458L423.698 77.2002Z" fill="#503EAA"/>
<path d="M422.86 74.6625C421.451 74.4562 420.151 75.4278 419.957 76.8346C419.762 78.2414 420.746 79.5473 422.155 79.7535C423.564 79.9598 424.864 78.9882 425.058 77.5814C425.253 76.1746 424.269 74.8687 422.86 74.6625Z" fill="#503EAA"/>
<path d="M403.184 76.6007C403.711 76.2126 404.471 76.3282 404.888 76.8891C405.074 77.1384 405.167 77.4551 405.12 77.7795C404.055 85.0122 409.076 91.7652 416.34 92.8694C416.991 92.9684 417.484 93.5701 417.386 94.2153C417.29 94.8641 416.689 95.3516 416.042 95.2499L415.99 95.2421C407.424 93.9398 401.479 85.9439 402.712 77.3843C402.754 77.0589 402.935 76.784 403.184 76.6007Z" fill="#86D4C9"/>
<path d="M408.318 77.3902C408.567 77.207 408.884 77.1155 409.21 77.165C409.862 77.2641 410.325 77.8873 410.227 78.5324C409.584 82.9017 412.64 87.0111 417.053 87.7115C417.726 87.8399 418.127 88.5089 418.007 89.1247C417.887 89.7404 417.327 90.1526 416.704 90.0838C410.955 89.2094 406.978 83.861 407.844 78.1699C407.895 77.8493 408.073 77.5707 408.318 77.3902Z" fill="#86D4C9"/>
<path d="M413.457 78.1763C413.984 77.7886 414.743 77.9043 415.136 78.432C415.321 78.6813 415.415 78.9978 415.367 79.322C415.138 80.886 416.225 82.3484 417.796 82.5876C418.447 82.6868 418.911 83.3098 418.813 83.9546C418.717 84.6031 418.095 85.0609 417.448 84.959C414.552 84.4921 412.563 81.8167 412.961 78.9264C413.03 78.6378 413.208 78.3594 413.457 78.1763Z" fill="#86D4C9"/>
<path d="M297.31 68.4598C297.21 68.4198 297.11 68.3798 297.01 68.3398C298.81 70.8298 300.45 74.1298 301.85 78.1798C304.91 87.0198 306.66 98.6098 306.82 110.98H314.11C313.3 85.4598 303.96 73.6598 297.3 68.4598H297.31Z" fill="#C0DBFF"/>
<path d="M298.36 79.3897C296.06 72.7397 293.1 68.3197 290.17 66.9697V110.98H303.12C302.96 99.1497 301.24 87.7297 298.36 79.3897Z" fill="#C0DBFF"/>
<path d="M286.48 66.9697C283.55 68.3197 280.59 72.7397 278.29 79.3897C275.4 87.7297 273.69 99.1597 273.53 110.98H286.48V66.9697Z" fill="#C0DBFF"/>
<path d="M314.3 118.03V114.68H262.52C262.48 115.78 262.46 116.9 262.44 118.03H314.3Z" fill="#C0DBFF"/>
<path d="M324.14 135.89H317.42V162.88H324.14V135.89Z" fill="#C0DBFF"/>
<path d="M336.21 135.89H330.39V162.88H336.21V135.89Z" fill="#C0DBFF"/>
<path d="M388.74 166.58H231.46V171.63H388.74V166.58Z" fill="#C0DBFF"/>
<path d="M340.03 110.98C339.79 106.11 338.84 101.38 337.22 96.8799C338.78 101.38 339.67 106.12 339.86 110.98H340.03Z" fill="#C0DBFF"/>
<path d="M427.13 162.88H427.23V145.3L427.13 145.29V162.88Z" fill="#C0DBFF"/>
<path d="M443.65 162.9H443.57V171.63H443.65V162.9Z" fill="#C0DBFF"/>
<path d="M434.49 139.95L434.67 139.1C434.73 138.82 434.74 138.54 434.73 138.26C434.73 138.42 434.73 138.58 434.69 138.75L434.48 139.96L434.49 139.95Z" fill="#C0DBFF"/>
<path d="M262.7 110.98H269.82C269.98 98.6103 271.73 87.0203 274.79 78.1803C276.15 74.2503 277.73 71.0303 279.47 68.5703C271.58 74.7803 264.17 88.2603 262.69 110.99L262.7 110.98Z" fill="#C0DBFF"/>
<path d="M361.84 118.36C361.84 120.22 360.33 121.73 358.47 121.73H353.22V125.91L353.4 125.93V121.8H358.65C360.51 121.8 362.02 120.29 362.02 118.43V114.88C362.02 114.41 361.92 113.96 361.75 113.56C361.81 113.81 361.85 114.07 361.85 114.34V118.35L361.84 118.36Z" fill="#C0DBFF"/>
<path d="M218.25 121.73C218.07 121.73 217.89 121.7 217.72 121.68C218 121.75 218.28 121.8 218.58 121.8H223.44V121.73H218.26H218.25Z" fill="#C0DBFF"/>
<path d="M311.17 135.89H304.45V162.88H311.17V135.89Z" fill="#C0DBFF"/>
<path d="M255.98 140.95V162.87H259.3V136.21C257.37 136.92 255.98 138.76 255.98 140.94V140.95Z" fill="#C0DBFF"/>
<path d="M298.2 135.89H291.48V162.88H298.2V135.89Z" fill="#C0DBFF"/>
<path d="M455.78 171.65H455.71V185.95H455.78V171.65Z" fill="#C0DBFF"/>
<path d="M272.26 135.89H265.54V162.88H272.26V135.89Z" fill="#C0DBFF"/>
<path d="M433.14 175.33H205.56V183.43H433.14V175.33Z" fill="#C0DBFF"/>
<path d="M344.87 140.95V162.87H349.51V135.93C346.92 136.15 344.87 138.3 344.87 140.95Z" fill="#C0DBFF"/>
<path d="M285.23 135.89H278.51V162.88H285.23V135.89Z" fill="#C0DBFF"/>
<path d="M231.67 140.95V162.87H236.74V135.88H236.73C233.93 135.88 231.67 138.15 231.67 140.94V140.95Z" fill="#C0DBFF"/>
<path d="M411.86 151.8C411.91 152.03 411.95 152.26 411.95 152.49V154.41C411.95 156.15 410.54 157.57 408.79 157.57C407.04 157.57 405.64 156.16 405.64 154.41V152.49C405.64 152.02 405.76 151.56 405.97 151.14L391.42 149.51C391.47 149.73 391.5 149.95 391.5 150.18V154.41C391.5 156.15 390.09 157.57 388.34 157.57C386.59 157.57 385.19 156.16 385.19 154.41V150.17C385.19 149.71 385.31 149.26 385.51 148.85L371.04 147.23C371.04 147.23 371.04 147.28 371.04 147.31V154.4C371.04 156.14 369.63 157.56 367.88 157.56C366.13 157.56 364.73 156.15 364.73 154.4V147.3C364.73 147.04 364.78 146.78 364.84 146.53L353.2 145.23V162.86H423.42V153.08L411.85 151.79L411.86 151.8Z" fill="#C0DBFF"/>
<path d="M314.12 110.98H319.71C319.38 99.32 316.01 88.06 310.33 79.83C306.61 74.45 302.16 70.59 297.32 68.46C303.97 73.66 313.31 85.46 314.13 110.98H314.12Z" fill="white"/>
<path d="M306.35 69.9199C308.9 72.0799 311.27 74.6999 313.37 77.7299C319.56 86.6899 323.09 98.4399 323.41 110.98H336.17C335.7 99.3199 330.78 88.4199 322.2 80.1099C317.59 75.6499 312.21 72.2199 306.35 69.9199Z" fill="white"/>
<path d="M133.15 175.33H124.71V183.43H205.56V175.33H133.15Z" fill="#77A4F2"/>
<path d="M231.46 166.58H136.85V171.63H231.46V166.58Z" fill="#77A4F2"/>
<path d="M452.01 183.43V175.33H443.57H433.14V183.43H452.01Z" fill="white"/>
<path d="M439.87 166.58H388.74V171.63H439.87V166.58Z" fill="white"/>
<path d="M365.66 145.14C366.25 144.56 367.05 144.24 367.89 144.24C368.3 144.24 368.71 144.32 369.1 144.47C369.48 144.63 369.83 144.85 370.12 145.14C370.41 145.43 370.65 145.77 370.8 146.14C370.95 146.49 371.02 146.86 371.03 147.24L385.5 148.86C385.65 148.55 385.85 148.26 386.1 148.01C386.69 147.43 387.49 147.11 388.33 147.11C388.74 147.11 389.15 147.19 389.54 147.34C389.92 147.5 390.27 147.72 390.56 148.01C390.85 148.3 391.09 148.64 391.24 149.01C391.31 149.18 391.36 149.35 391.4 149.52L405.95 151.15C406.1 150.85 406.29 150.57 406.54 150.32C407.13 149.74 407.93 149.42 408.77 149.42C409.18 149.42 409.59 149.5 409.98 149.65C410.36 149.81 410.71 150.03 411 150.32C411.29 150.61 411.53 150.95 411.68 151.32C411.75 151.48 411.79 151.64 411.83 151.8L423.4 153.09V144.85L414.08 143.78L353.18 137.12V145.24L364.82 146.54C364.96 146.01 365.23 145.52 365.63 145.13L365.66 145.14Z" fill="#77A4F2"/>
<path d="M290.21 56.1301H316.12V39.8701H290.21V56.1301ZM308.55 53.8701C308.55 53.9901 308.46 54.0801 308.34 54.0801H298C297.88 54.0801 297.79 53.9901 297.79 53.8701V52.3101C297.79 52.1901 297.88 52.1001 298 52.1001H308.34C308.46 52.1001 308.55 52.1901 308.55 52.3101V53.8701ZM300.73 48.9301V47.5901C300.73 47.4601 300.88 47.3801 300.99 47.4701L303 49.1201C303.1 49.2001 303.24 49.2001 303.34 49.1201L305.35 47.4701C305.45 47.3901 305.61 47.4601 305.61 47.5901V48.9301C305.61 49.0401 305.56 49.1501 305.47 49.2201L303.42 50.9001C303.28 51.0201 303.07 51.0201 302.92 50.9001L300.87 49.2201C300.78 49.1501 300.73 49.0401 300.73 48.9301ZM297.79 42.1701C297.79 42.0301 297.9 41.9201 298.04 41.9201H298.44C298.51 41.9201 298.59 41.9401 298.65 41.9901L303.02 45.1401C303.11 45.2001 303.23 45.2001 303.32 45.1401L307.69 41.9901C307.75 41.9501 307.82 41.9201 307.9 41.9201H308.3C308.44 41.9201 308.55 42.0301 308.55 42.1701V50.8201C308.55 50.9801 308.42 51.1001 308.27 51.1001H306.86C306.7 51.1001 306.58 50.9701 306.58 50.8201V45.5701C306.58 45.4301 306.42 45.3601 306.31 45.4401L303.34 47.7001C303.24 47.7801 303.1 47.7801 302.99 47.7001L300.02 45.4401C299.91 45.3601 299.75 45.4401 299.75 45.5701V50.8201C299.75 50.9801 299.62 51.1001 299.47 51.1001H298.06C297.9 51.1001 297.78 50.9701 297.78 50.8201V42.1701H297.79Z" fill="#FF8486"/>
<path d="M223.44 129.64L145.7 138.67L146.26 141.93L149.52 141.56V141.5L162.17 140.11L223.44 133.1V129.64Z" fill="#77A4F2"/>
<path d="M253.24 110.98C253.56 98.4399 257.09 86.6899 263.28 77.7299C265.38 74.6899 267.75 72.0799 270.3 69.9199C264.44 72.2199 259.06 75.6599 254.45 80.1099C245.87 88.4199 240.96 99.3199 240.48 110.98H253.24Z" fill="#77A4F2"/>
<path d="M339.91 162.87H344.88V140.95C344.88 138.3 346.92 136.15 349.52 135.93V121.73H339.92V162.87H339.91Z" fill="#77A4F2"/>
<path d="M279.47 68.5598C279.52 68.4798 279.58 68.4098 279.63 68.3398C274.67 70.4498 270.11 74.3498 266.32 79.8298C260.64 88.0598 257.26 99.3198 256.94 110.98H262.7C264.18 88.2598 271.59 74.7798 279.48 68.5598H279.47Z" fill="#77A4F2"/>
<path d="M227.14 136.4V162.88H231.67V140.96C231.67 138.16 233.94 135.9 236.73 135.9H236.74V121.75H227.14V136.41V136.4Z" fill="#77A4F2"/>
<path d="M240.44 162.87H246.33V131.28C246.33 130.46 246.66 129.68 247.24 129.11C247.83 128.53 248.62 128.21 249.45 128.21C249.86 128.21 250.27 128.29 250.65 128.44C251.03 128.6 251.37 128.82 251.66 129.11C251.95 129.4 252.18 129.74 252.34 130.11C252.5 130.48 252.58 130.88 252.58 131.29V162.88H255.99V140.96C255.99 138.78 257.38 136.94 259.31 136.23V131.29C259.31 130.47 259.64 129.69 260.23 129.12C260.81 128.54 261.61 128.22 262.44 128.22C263.27 128.22 264.06 128.55 264.65 129.12C265.24 129.7 265.56 130.48 265.56 131.3V135.9H272.28V131.29C272.28 130.47 272.61 129.69 273.2 129.12C273.78 128.54 274.58 128.22 275.41 128.22C276.24 128.22 277.03 128.55 277.62 129.12C278.21 129.7 278.53 130.48 278.53 131.3V135.9H285.25V131.29C285.25 130.47 285.58 129.69 286.17 129.11C286.76 128.53 287.55 128.21 288.38 128.21C289.21 128.21 290 128.54 290.59 129.11C291.18 129.69 291.5 130.47 291.5 131.29V135.89H298.22V131.28C298.22 130.46 298.55 129.68 299.14 129.11C299.72 128.53 300.52 128.21 301.35 128.21C302.18 128.21 302.97 128.54 303.56 129.11C304.15 129.69 304.47 130.47 304.47 131.29V135.89H311.19V131.28C311.19 130.46 311.52 129.68 312.11 129.1C312.7 128.52 313.49 128.2 314.32 128.2C315.15 128.2 315.94 128.53 316.53 129.1C317.12 129.68 317.44 130.46 317.44 131.28V135.88H324.16V131.28C324.16 130.46 324.49 129.68 325.07 129.1C325.66 128.52 326.45 128.2 327.28 128.2C328.11 128.2 328.9 128.52 329.49 129.1C330.08 129.68 330.4 130.46 330.4 131.28V135.88H336.22V121.73H240.46V162.87H240.44Z" fill="#77A4F2"/>
<path d="M223.44 162.88V137.13L162.55 143.79L153.22 144.86V162.88H223.44ZM205.16 147.33C205.16 146.93 205.24 146.52 205.4 146.15C205.56 145.78 205.79 145.44 206.08 145.15C206.37 144.86 206.72 144.64 207.1 144.48C207.48 144.33 207.89 144.25 208.31 144.25C209.15 144.25 209.95 144.58 210.54 145.15C211.13 145.73 211.46 146.51 211.46 147.32V154.42C211.46 156.16 210.05 157.58 208.3 157.58C206.55 157.58 205.15 156.17 205.15 154.42V147.33H205.16ZM184.71 150.19C184.71 149.79 184.79 149.38 184.95 149.01C185.11 148.64 185.34 148.3 185.63 148.01C185.92 147.72 186.27 147.5 186.65 147.34C187.03 147.19 187.44 147.11 187.86 147.11C188.7 147.11 189.5 147.44 190.09 148.01C190.68 148.59 191.01 149.37 191.01 150.18V154.42C191.01 156.16 189.6 157.58 187.85 157.58C186.11 157.58 184.7 156.17 184.7 154.42V150.19H184.71ZM164.5 151.32C164.66 150.95 164.89 150.61 165.18 150.32C165.47 150.03 165.82 149.81 166.2 149.65C166.58 149.5 166.99 149.42 167.41 149.42C168.25 149.42 169.05 149.75 169.64 150.32C170.23 150.9 170.56 151.68 170.56 152.49V154.41C170.56 156.15 169.15 157.57 167.4 157.57C165.65 157.57 164.25 156.16 164.25 154.41V152.49C164.25 152.09 164.33 151.68 164.49 151.31L164.5 151.32Z" fill="#77A4F2"/>
<path d="M236.74 118.03H262.43C262.44 116.89 262.47 115.77 262.51 114.68H218.58V118.03H236.74Z" fill="#77A4F2"/>
<path d="M339.91 118.03H353.21H358.13V114.68H339.91H314.3V118.03H339.91Z" fill="white"/>
<path d="M353.21 133.1L414.48 140.11L427.13 141.5V141.56L430.39 141.93L430.95 138.67L353.21 129.64V133.1Z" fill="white"/>
<path d="M455.71 171.63H443.57V162.87H427.13V145.28H427.23L430.26 145.64C430.44 145.67 430.63 145.69 430.81 145.69C431.44 145.69 432.07 145.5 432.59 145.15C433.3 144.67 433.8 143.9 433.94 143.06L434.47 139.96L434.68 138.75C434.71 138.59 434.71 138.43 434.72 138.26C434.75 136.76 433.73 135.42 432.22 135.1L353.39 125.93L353.21 125.91V121.73H358.46C360.32 121.73 361.83 120.22 361.83 118.36V114.35C361.83 114.08 361.79 113.82 361.73 113.57C361.37 112.09 360.05 110.98 358.46 110.98H339.86C339.68 106.12 338.78 101.38 337.22 96.88C334.72 89.64 330.51 83.01 324.77 77.45C315.47 68.44 303.24 63.31 290.17 62.87V58.9H318.89V37.09H290.68C291.38 36.45 291.83 35.53 291.83 34.51C291.83 32.57 290.26 31 288.32 31C286.38 31 284.81 32.57 284.81 34.51C284.81 35.77 285.48 36.87 286.47 37.49V62.87C273.4 63.31 261.17 68.44 251.87 77.45C242.57 86.46 237.26 98.3 236.79 110.98H218.25C216.39 110.98 214.88 112.49 214.88 114.35V118.36C214.88 120.04 216.11 121.42 217.72 121.68C217.89 121.71 218.07 121.73 218.25 121.73H223.43V125.91L144.59 135.07L144.41 135.1C142.74 135.46 141.66 137.06 141.95 138.75L142.69 143.06C142.84 143.91 143.33 144.67 144.04 145.15C144.57 145.51 145.19 145.69 145.83 145.69C146.02 145.69 146.2 145.67 146.38 145.64L149.51 145.28V162.87H133.14V171.63H121V187.13H455.7V171.63H455.71ZM270.29 69.91C267.74 72.07 265.37 74.69 263.27 77.72C257.08 86.68 253.55 98.43 253.23 110.97H240.47C240.94 99.31 245.86 88.41 254.44 80.1C259.05 75.64 264.43 72.21 270.29 69.91ZM266.32 79.83C270.11 74.34 274.67 70.44 279.63 68.34C279.58 68.41 279.52 68.49 279.47 68.56C277.73 71.03 276.15 74.24 274.79 78.17C271.73 87.01 269.98 98.6 269.82 110.97H256.94C257.27 99.31 260.64 88.05 266.32 79.82V79.83ZM278.28 79.38C280.58 72.73 283.54 68.31 286.47 66.96V110.97H273.52C273.68 99.14 275.4 87.72 278.28 79.38ZM290.17 66.96C293.1 68.31 296.06 72.73 298.36 79.38C301.25 87.72 302.96 99.15 303.12 110.97H290.17V66.97V66.96ZM306.82 110.97C306.66 98.6 304.91 87.01 301.85 78.17C300.45 74.12 298.81 70.83 297.01 68.33C297.11 68.37 297.21 68.41 297.31 68.45C302.15 70.58 306.61 74.45 310.32 79.82C316 88.05 319.38 99.31 319.7 110.97H306.82ZM323.4 110.97C323.08 98.43 319.55 86.68 313.36 77.72C311.26 74.68 308.89 72.07 306.34 69.91C312.2 72.21 317.58 75.65 322.19 80.1C330.77 88.4 335.68 99.31 336.16 110.97H323.4ZM218.57 114.67H358.12V118.02H218.57V114.67ZM430.38 141.92L427.12 141.55V141.49L414.47 140.11L353.2 133.09V129.64L430.94 138.67L430.38 141.93V141.92ZM439.86 171.62H136.85V166.57H439.86V171.62ZM149.52 141.48V141.54L146.26 141.91L145.7 138.65L223.44 129.62V133.07L162.17 140.09L149.52 141.47V141.48ZM162.55 143.78L223.44 137.12V162.87H153.22V144.85L162.55 143.78ZM336.21 121.72V162.86H330.39V131.27C330.39 130.45 330.06 129.67 329.48 129.09C328.89 128.51 328.1 128.19 327.27 128.19C326.44 128.19 325.65 128.51 325.06 129.09C324.47 129.67 324.15 130.45 324.15 131.27V162.86H317.43V131.27C317.43 130.45 317.1 129.67 316.52 129.09C315.93 128.51 315.14 128.19 314.31 128.19C313.48 128.19 312.69 128.51 312.1 129.09C311.51 129.67 311.18 130.45 311.18 131.27V162.86H304.46V131.27C304.46 130.45 304.13 129.67 303.55 129.09C302.96 128.51 302.17 128.19 301.34 128.19C300.51 128.19 299.72 128.52 299.13 129.09C298.54 129.67 298.22 130.45 298.21 131.26V162.85H291.49V131.26C291.49 130.44 291.16 129.66 290.58 129.08C289.99 128.5 289.2 128.18 288.37 128.18C287.54 128.18 286.75 128.5 286.16 129.08C285.57 129.66 285.24 130.44 285.24 131.26V162.85H278.52V131.26C278.52 130.44 278.19 129.66 277.61 129.08C277.02 128.5 276.23 128.18 275.4 128.18C274.57 128.18 273.78 128.51 273.19 129.08C272.6 129.66 272.28 130.44 272.27 131.25V162.84H265.55V131.25C265.55 130.43 265.22 129.65 264.64 129.07C264.05 128.49 263.26 128.17 262.43 128.17C261.6 128.17 260.81 128.5 260.22 129.07C259.63 129.65 259.31 130.43 259.3 131.24V162.83H252.58V131.24C252.58 130.83 252.5 130.43 252.34 130.06C252.18 129.69 251.95 129.35 251.66 129.06C251.37 128.77 251.03 128.55 250.65 128.39C250.27 128.24 249.86 128.16 249.45 128.16C248.62 128.16 247.83 128.49 247.24 129.06C246.66 129.64 246.33 130.42 246.33 131.23V162.82H240.44V121.68H336.2L336.21 121.72ZM349.51 125.47V162.86H339.91V121.72H349.51V125.47ZM227.14 121.72H236.74V162.86H227.14V121.72ZM124.71 183.42V175.32H452.01V183.42H124.71ZM353.21 162.86V137.11L414.11 143.77L423.43 144.84V162.86H353.21ZM316.12 56.11H290.21V39.87H316.12V56.13V56.11Z" fill="#38237C"/>
<path d="M390.57 148.01C390.28 147.72 389.93 147.5 389.55 147.34C389.17 147.19 388.76 147.11 388.34 147.11C387.5 147.11 386.7 147.44 386.11 148.01C385.85 148.26 385.66 148.55 385.51 148.86C385.31 149.27 385.19 149.72 385.19 150.18V154.42C385.19 156.16 386.6 157.58 388.34 157.58C390.08 157.58 391.5 156.17 391.5 154.42V150.19C391.5 149.96 391.47 149.74 391.42 149.52C391.38 149.35 391.33 149.17 391.26 149.01C391.1 148.64 390.87 148.3 390.58 148.01H390.57Z" fill="#38237C"/>
<path d="M411.02 150.32C410.73 150.03 410.38 149.81 410 149.65C409.62 149.5 409.21 149.42 408.79 149.42C407.95 149.42 407.15 149.75 406.56 150.32C406.31 150.56 406.12 150.85 405.97 151.15C405.76 151.57 405.64 152.02 405.64 152.5V154.42C405.64 156.16 407.05 157.58 408.79 157.58C410.53 157.58 411.95 156.17 411.95 154.42V152.5C411.95 152.26 411.91 152.03 411.86 151.81C411.82 151.65 411.78 151.48 411.71 151.33C411.55 150.96 411.32 150.62 411.03 150.33L411.02 150.32Z" fill="#38237C"/>
<path d="M370.12 145.14C369.83 144.85 369.48 144.63 369.1 144.47C368.72 144.32 368.31 144.24 367.89 144.24C367.05 144.24 366.25 144.57 365.66 145.14C365.26 145.53 364.99 146.02 364.85 146.55C364.78 146.8 364.74 147.05 364.74 147.32V154.42C364.74 156.16 366.15 157.58 367.89 157.58C369.63 157.58 371.05 156.17 371.05 154.42V147.33C371.05 147.33 371.05 147.28 371.05 147.25C371.05 146.87 370.97 146.5 370.82 146.15C370.66 145.78 370.43 145.44 370.14 145.15L370.12 145.14Z" fill="#38237C"/>
<path d="M187.87 157.57C189.61 157.57 191.03 156.16 191.03 154.41V150.17C191.03 149.35 190.7 148.57 190.11 148C189.52 147.42 188.72 147.1 187.88 147.1C187.47 147.1 187.06 147.18 186.67 147.33C186.29 147.49 185.94 147.71 185.65 148C185.36 148.29 185.12 148.63 184.97 149C184.81 149.37 184.73 149.77 184.73 150.18V154.41C184.73 156.15 186.14 157.57 187.88 157.57H187.87Z" fill="#38237C"/>
<path d="M167.42 157.57C169.16 157.57 170.58 156.16 170.58 154.41V152.49C170.58 151.67 170.25 150.89 169.66 150.32C169.07 149.74 168.27 149.42 167.43 149.42C167.02 149.42 166.61 149.5 166.22 149.65C165.84 149.81 165.49 150.03 165.2 150.32C164.91 150.61 164.67 150.95 164.52 151.32C164.36 151.69 164.28 152.09 164.28 152.5V154.42C164.28 156.16 165.69 157.58 167.43 157.58L167.42 157.57Z" fill="#38237C"/>
<path d="M208.32 157.57C210.06 157.57 211.48 156.16 211.48 154.41V147.31C211.48 146.49 211.15 145.71 210.56 145.14C209.97 144.56 209.17 144.24 208.33 144.24C207.92 144.24 207.51 144.32 207.12 144.47C206.74 144.63 206.39 144.85 206.1 145.14C205.81 145.43 205.57 145.77 205.42 146.14C205.26 146.51 205.18 146.91 205.18 147.32V154.41C205.18 156.15 206.59 157.57 208.33 157.57H208.32Z" fill="#38237C"/>
<path d="M303.42 50.9098L305.47 49.2298C305.56 49.1598 305.61 49.0498 305.61 48.9398V47.5998C305.61 47.4698 305.46 47.3898 305.35 47.4798L303.34 49.1298C303.24 49.2098 303.1 49.2098 303 49.1298L300.99 47.4798C300.89 47.3998 300.73 47.4698 300.73 47.5998V48.9398C300.73 49.0498 300.78 49.1598 300.87 49.2298L302.92 50.9098C303.06 51.0298 303.27 51.0298 303.42 50.9098Z" fill="#38237C"/>
<path d="M298.07 51.1099H299.48C299.64 51.1099 299.76 50.9799 299.76 50.8299V45.5799C299.76 45.4399 299.92 45.3699 300.03 45.4499L303 47.7099C303.1 47.7899 303.24 47.7899 303.35 47.7099L306.32 45.4499C306.43 45.3699 306.59 45.4499 306.59 45.5799V50.8299C306.59 50.9899 306.72 51.1099 306.87 51.1099H308.28C308.44 51.1099 308.56 50.9799 308.56 50.8299V42.1699C308.56 42.0299 308.45 41.9199 308.31 41.9199H307.91C307.84 41.9199 307.76 41.9399 307.7 41.9899L303.33 45.1399C303.24 45.1999 303.12 45.1999 303.03 45.1399L298.66 41.9899C298.6 41.9499 298.53 41.9199 298.45 41.9199H298.05C297.91 41.9199 297.8 42.0299 297.8 42.1699V50.8199C297.8 50.9799 297.93 51.0999 298.08 51.0999L298.07 51.1099Z" fill="#38237C"/>
<path d="M308.34 52.1104H298C297.884 52.1104 297.79 52.2044 297.79 52.3204V53.8704C297.79 53.9863 297.884 54.0804 298 54.0804H308.34C308.456 54.0804 308.55 53.9863 308.55 53.8704V52.3204C308.55 52.2044 308.456 52.1104 308.34 52.1104Z" fill="#38237C"/>
<path d="M517.434 127.878L529.098 128.67C530.637 128.767 531.677 132.102 531.417 136.105C531.158 140.109 529.696 143.269 528.154 143.162L516.484 142.369C514.944 142.272 513.905 138.937 514.165 134.933C514.424 130.93 515.887 127.763 517.431 127.874L517.434 127.878Z" fill="#C0DBFF"/>
<path d="M517.428 127.886C515.888 127.781 514.422 130.989 514.158 135.047C513.894 139.105 514.925 142.483 516.465 142.588C518.005 142.693 519.472 139.485 519.735 135.427C519.999 131.369 518.968 127.991 517.428 127.886Z" fill="white"/>
<path d="M517.552 124.84L528.467 125.583C529.108 125.628 529.664 125.137 529.708 124.489L531.125 102.741C531.168 102.093 530.683 101.532 530.042 101.487L519.123 100.747C518.482 100.702 517.926 101.193 517.886 101.839L516.465 123.589C516.422 124.237 516.907 124.798 517.552 124.84Z" fill="#C0DBFF"/>
<path d="M518.273 124.613L529.476 125.372L530.917 103.307L519.714 102.548L518.273 124.613Z" fill="#77A4F2"/>
<path d="M514.664 168.962L525.54 169.74C526.177 169.787 526.731 169.302 526.777 168.656L528.269 146.987C528.31 146.344 527.831 145.782 527.19 145.738L516.314 144.96C515.677 144.912 515.123 145.398 515.077 146.043L513.585 167.713C513.543 168.356 514.023 168.918 514.664 168.962Z" fill="#C0DBFF"/>
<path d="M515.294 169.672L526.449 170.47L527.96 148.492L516.806 147.694L515.294 169.672Z" fill="#77A4F2"/>
<path d="M531.844 132.044L519.706 131.217L518.804 128.324L530.942 129.151L531.844 132.044Z" fill="white"/>
<path d="M519.415 138.073L530.561 138.829L528.933 142.502C528.933 142.502 526.61 142.976 525.541 142.857C524.472 142.737 517.89 142.347 517.89 142.347L519.412 138.069L519.415 138.073Z" fill="#77A4F2"/>
<path d="M517.497 125.586C516.447 125.512 515.649 124.595 515.72 123.536L517.139 101.791C517.21 100.732 518.115 99.9322 519.165 100.006L530.076 100.745C531.129 100.815 531.924 101.729 531.856 102.791L530.437 124.537C530.366 125.595 529.461 126.395 528.411 126.322L517.497 125.586ZM519.071 101.49L519.068 101.486C518.827 101.475 518.627 101.658 518.613 101.898L517.191 123.647L517.194 123.65C517.176 123.893 517.355 124.098 517.592 124.112L528.507 124.855L528.51 124.858C528.751 124.869 528.951 124.686 528.965 124.447L530.383 102.701L530.38 102.697C530.398 102.455 530.219 102.25 529.982 102.236L519.071 101.49Z" fill="#503EAA"/>
<path d="M516.437 143.111L516.537 141.628C515.717 141.574 514.65 138.891 514.9 134.982C515.15 131.073 516.565 128.556 517.388 128.613L517.485 127.133C515.17 126.977 513.697 130.917 513.438 134.89C513.175 138.859 514.125 142.959 516.44 143.115L516.437 143.111Z" fill="#503EAA"/>
<path d="M516.463 130.09C515.374 130.014 514.323 132.481 514.121 135.597C513.915 138.716 514.635 141.302 515.728 141.376C516.82 141.449 517.867 138.984 518.073 135.865C518.275 132.75 517.555 130.163 516.463 130.09Z" fill="#C0DBFF"/>
<path d="M516.437 143.111C518.752 143.267 520.224 139.327 520.484 135.354C520.743 131.382 519.794 127.281 517.479 127.125L517.382 128.606C518.198 128.663 519.269 131.342 519.019 135.252C518.769 139.161 517.34 141.683 516.537 141.628L516.437 143.111Z" fill="#503EAA"/>
<path d="M526.898 134.24C526.895 132.984 526.709 131.736 526.35 130.538L528.808 130.705C529.164 131.906 529.35 133.154 529.353 134.411L526.901 134.244L526.898 134.24Z" fill="#503EAA"/>
<path d="M531.25 132.255L534.673 130.813C534.673 130.813 536.158 131.733 536.38 134.248C536.605 136.759 536.079 138.365 536.079 138.365L531.285 138.04L531.25 132.255Z" fill="#C0DBFF"/>
<path d="M523.673 134.025C523.67 132.769 523.488 131.517 523.129 130.313L524.531 130.406C524.886 131.607 525.072 132.855 525.072 134.107L523.677 134.022L523.673 134.025Z" fill="#503EAA"/>
<path d="M531.501 137.289L536.161 137.872C536.161 137.872 536.269 138.308 535.663 139.906C535.06 141.501 533.87 142.9 532.798 142.542C531.729 142.188 530.757 141.26 530.807 140.379C530.858 139.498 531.501 137.289 531.501 137.289Z" fill="#77A4F2"/>
<path d="M531.629 132.888L535.819 131.994L533.629 129.909L531.392 131.509L531.629 132.888Z" fill="white"/>
<path d="M513.424 134.888C513.687 130.919 515.157 126.975 517.471 127.131L529.138 127.92C531.453 128.076 532.406 132.18 532.146 136.153C531.886 140.125 530.414 144.065 528.099 143.91L516.44 143.114C514.125 142.958 513.165 138.861 513.424 134.888ZM517.384 128.616C516.565 128.563 515.157 131.073 514.907 134.982C514.657 138.892 515.728 141.571 516.544 141.628L528.207 142.42C529.027 142.474 530.438 139.96 530.688 136.051C530.938 132.142 529.867 129.462 529.051 129.405L517.381 128.613L517.384 128.616Z" fill="#503EAA"/>
<path d="M515.727 137.987C516.743 138.057 517.656 136.799 517.76 135.177C517.864 133.555 517.128 132.186 516.111 132.115L514.823 132.028C514.897 133.009 514.911 133.992 514.86 134.978C514.772 136.378 514.655 136.807 514.523 137.904L515.727 137.987Z" fill="#503EAA"/>
<path d="M526.948 137.396L528.397 137.493C528.922 137.53 529.273 138.099 529.18 138.762C529.09 139.428 528.588 139.94 528.063 139.903L526.615 139.806C526.09 139.769 525.739 139.2 525.835 138.534C525.932 137.868 526.427 137.356 526.949 137.389L526.948 137.396Z" fill="#503EAA"/>
<path d="M523.997 137.193C523.516 137.068 522.991 137.491 522.829 138.136C522.663 138.784 522.923 139.407 523.404 139.532C523.885 139.658 524.41 139.235 524.572 138.59C524.738 137.942 524.478 137.319 523.997 137.193Z" fill="#503EAA"/>
<path d="M532.758 143.285C534.979 143.438 536.915 140.455 537.177 136.5C537.438 132.544 535.899 129.324 533.685 129.172C533.03 129.125 531.164 130.241 530.561 130.787L531.546 131.896C532.189 131.385 532.9 130.972 533.658 130.663C534.809 130.839 535.913 133.182 535.705 136.397C535.497 139.611 534.092 141.785 532.932 141.802C532.218 141.396 531.568 140.888 530.997 140.297L529.878 141.261C530.406 141.883 532.106 143.242 532.758 143.285Z" fill="#503EAA"/>
<path d="M522.457 125.175L523.558 125.251L525.133 101.155L524.032 101.079L522.457 125.175Z" fill="#503EAA"/>
<path d="M517.527 107.243L530.77 108.143L530.842 107.033L517.604 106.13L517.527 107.243Z" fill="#503EAA"/>
<path d="M517.139 113.269L530.378 114.172L530.454 113.058L517.212 112.159L517.139 113.269Z" fill="#503EAA"/>
<path d="M516.742 119.298L529.984 120.197L530.057 119.087L516.815 118.187L516.742 119.298Z" fill="#503EAA"/>
<path d="M514.569 170.467C513.519 170.393 512.728 169.477 512.799 168.418L514.21 146.678C514.282 145.62 515.186 144.819 516.236 144.893L527.147 145.632C528.197 145.706 528.992 146.619 528.925 147.675L527.513 169.421C527.441 170.48 526.537 171.28 525.487 171.206L514.575 170.467L514.569 170.467ZM516.154 146.368L516.151 146.365C515.909 146.354 515.709 146.537 515.696 146.776L514.27 168.521L514.273 168.525C514.256 168.768 514.434 168.973 514.672 168.987L525.586 169.729L525.589 169.733C525.83 169.744 526.031 169.561 526.044 169.321L527.463 147.576L527.46 147.572C527.477 147.329 527.299 147.124 527.061 147.11L516.147 146.368L516.154 146.368Z" fill="#503EAA"/>
<path d="M519.525 170.057L520.626 170.133L522.2 146.037L521.1 145.961L519.525 170.057Z" fill="#503EAA"/>
<path d="M514.686 151.438L527.877 152.381L527.954 151.275L514.762 150.332L514.686 151.438Z" fill="#503EAA"/>
<path d="M514.294 157.428L527.486 158.371L527.562 157.266L514.37 156.322L514.294 157.428Z" fill="#503EAA"/>
<path d="M513.815 164.171L527.057 165.071L527.13 163.961L513.887 163.061L513.815 164.171Z" fill="#503EAA"/>
<path d="M521.541 127.884L524.111 128.06L524.263 125.765L521.69 125.592L521.541 127.884Z" fill="#503EAA"/>
<path d="M520.396 145.426L522.97 145.599L523.118 143.308L520.548 143.131L520.396 145.426Z" fill="#503EAA"/>
<path d="M506.1 122.045C511.318 122.396 515.191 128.188 514.746 134.973C514.305 141.762 509.715 146.978 504.498 146.62C502.096 146.455 500.511 140.823 500.955 134.038C501.4 127.253 503.706 121.874 506.1 122.038L506.1 122.045Z" fill="#C0DBFF"/>
<path d="M514.179 134.718C514.167 130.839 511.433 128.091 509.498 126.752L508.248 122.516C508.248 122.516 515.407 126.214 514.175 134.721L514.179 134.718Z" fill="white"/>
<path d="M514.153 135.147C513.634 138.988 510.574 141.346 508.482 142.408L506.694 146.441C506.694 146.441 514.27 143.741 514.153 135.147Z" fill="#77A4F2"/>
<path d="M505.924 122.438C503.583 122.296 501.376 127.539 500.991 134.149C500.607 140.76 502.193 146.234 504.533 146.376C506.873 146.518 509.081 141.275 509.466 134.665C509.85 128.054 508.264 122.58 505.924 122.438Z" fill="#77A4F2"/>
<path d="M504.451 147.361C507.749 147.584 509.97 140.991 510.378 134.674C510.793 128.358 509.448 121.522 506.157 121.293L506.064 122.777C507.575 122.891 509.384 127.419 508.917 134.569C508.452 141.722 506.06 145.975 504.552 145.871L504.448 147.358L504.451 147.361Z" fill="#503EAA"/>
<path d="M507.125 124.842C505.245 124.717 503.445 128.908 503.098 134.207C502.752 139.507 503.993 143.906 505.869 144.034C507.746 144.163 509.55 139.969 509.897 134.669C510.243 129.37 509.002 124.97 507.125 124.842Z" fill="#503EAA"/>
<path d="M500.223 133.986C500.635 127.673 502.852 121.076 506.15 121.299C511.766 121.682 515.953 127.838 515.485 135.025C515.015 142.208 510.063 147.747 504.454 147.365C501.16 147.14 499.815 140.303 500.223 133.986ZM501.692 134.086C501.227 141.239 503.039 145.777 504.545 145.877C509.351 146.204 513.597 141.289 514.011 134.918C514.425 128.547 510.854 123.106 506.054 122.78C504.548 122.68 502.157 126.926 501.689 134.082L501.692 134.086Z" fill="#503EAA"/>
<path d="M491.555 132.855L492.51 133.988L505.178 123.132L504.223 121.999L491.555 132.855Z" fill="#503EAA"/>
<path d="M491.481 133.925L502.63 146.397L503.722 145.405L492.576 132.93L491.481 133.925Z" fill="#503EAA"/>
<path d="M491.462 134.128L508.864 135.311L508.96 133.829L491.558 132.646L491.462 134.128Z" fill="#503EAA"/>
<path d="M492.564 131.693C491.668 130.587 490.054 130.421 488.958 131.323C487.861 132.226 487.7 133.853 488.596 134.96C489.493 136.066 491.107 136.232 492.203 135.33C493.3 134.427 493.461 132.8 492.564 131.693Z" fill="#503EAA"/>
<path d="M476.782 119.785C477.432 119.857 477.913 120.457 477.84 121.152C477.807 121.461 477.662 121.758 477.407 121.964C471.723 126.561 470.839 134.93 475.432 140.664C475.844 141.178 475.799 141.955 475.29 142.363C474.78 142.775 474.008 142.726 473.6 142.213L473.568 142.172C468.15 135.41 469.196 125.501 475.904 120.042C476.155 119.831 476.474 119.751 476.782 119.785Z" fill="#86D4C9"/>
<path d="M480.023 123.845C480.33 123.879 480.625 124.027 480.831 124.284C481.243 124.798 481.162 125.571 480.652 125.979C477.219 128.756 476.681 133.849 479.452 137.354C479.86 137.905 479.702 138.669 479.196 139.04C478.691 139.412 477.999 139.335 477.588 138.862C473.953 134.324 474.652 127.696 479.146 124.098C479.4 123.896 479.72 123.812 480.023 123.845Z" fill="#86D4C9"/>
<path d="M483.268 127.905C483.919 127.977 484.399 128.577 484.33 129.231C484.297 129.54 484.152 129.837 483.897 130.043C482.668 131.037 482.477 132.85 483.47 134.09C483.882 134.604 483.801 135.376 483.292 135.784C482.782 136.197 482.014 136.112 481.607 135.598C479.794 133.292 480.144 129.977 482.396 128.121C482.642 127.955 482.961 127.871 483.268 127.905Z" fill="#86D4C9"/>
<path d="M341.206 73.3565C340.065 71.8346 339.62 69.9766 339.954 68.1318L339.119 68C338.75 70.0556 339.244 72.1245 340.517 73.8243C341.791 75.5242 343.683 76.6508 345.861 77L346 76.2094C344.052 75.8931 342.347 74.8851 341.206 73.3631V73.3565Z" fill="#38237C"/>
<path d="M342.735 72.0414C341.959 70.9034 341.654 69.5172 341.879 68.1379L341.083 68C340.824 69.6 341.176 71.2069 342.078 72.531C342.981 73.8552 344.328 74.731 345.867 75L346 74.1724C344.673 73.9379 343.512 73.1793 342.735 72.0414Z" fill="#38237C"/>
<path d="M344.231 70.7033C343.812 69.9578 343.644 69.0542 343.77 68.1506L343.05 68C342.894 69.1446 343.104 70.2967 343.638 71.2379C344.171 72.1792 344.969 72.8117 345.88 73L346 72.0964C345.281 71.9458 344.651 71.4488 344.231 70.7033Z" fill="#38237C"/>
<path d="M376.8 70.8971L369.917 61.2491C369.584 60.7779 368.93 60.6718 368.457 61.0035L366.582 62.324L365.415 60.6917L367.663 59.1058C368.13 58.774 368.236 58.1635 368.11 57.4204C368.623 57.4204 369.237 57.3739 369.43 57.2346C370.431 56.5312 370.231 54.6003 368.977 52.8485C367.723 51.0901 365.962 50.2673 364.962 50.9707C364.762 51.11 364.508 51.6674 364.348 52.1518C363.695 51.7868 363.068 51.6873 362.608 52.0124L360.36 53.5983L359.12 51.8598L360.994 50.5394C361.467 50.2076 361.574 49.5573 361.241 49.0862L354.358 39.4382C354.024 38.9671 353.371 38.8609 352.897 39.1927L347.989 42.6564C347.515 42.9882 347.409 43.6385 347.742 44.1096L354.625 53.7576C354.958 54.2287 355.612 54.3349 356.085 54.0031L357.959 52.6826L359.2 54.4211L357.359 55.7217C356.579 56.2724 356.792 57.6261 357.472 59.0129L356.559 59.6565C354.265 57.427 351.077 56.7966 348.909 58.3228C348.576 58.5617 348.382 58.9266 348.309 59.3845L346.815 67.4333C346.415 67.3139 345.961 67.3736 345.595 67.6324C344.961 68.0836 344.808 68.9595 345.261 69.5899C345.715 70.2202 346.595 70.3729 347.229 69.9216C347.595 69.6629 347.802 69.2581 347.822 68.8401L355.952 70.0942C356.412 70.1738 356.819 70.1207 357.159 69.8818C359.326 68.349 359.78 65.1507 358.426 62.2576L359.34 61.614C360.427 62.7155 361.641 63.3591 362.421 62.8084L364.262 61.5078L365.429 63.1402L363.555 64.4606C363.081 64.7924 362.975 65.4427 363.308 65.9138L370.191 75.5618C370.524 76.0329 371.178 76.1391 371.651 75.8073L376.56 72.3436C377.033 72.0118 377.14 71.3615 376.806 70.8904L376.8 70.8971ZM347.655 67.4134L348.689 61.8462C349.089 62.9876 349.743 64.235 350.53 65.3896L347.655 67.4201V67.4134ZM348.122 68.0703L350.997 66.0399C351.83 67.1546 352.797 68.1898 353.751 68.9396L348.129 68.0703H348.122Z" fill="#38237C"/>
<path d="M207.727 87.6805C207.987 89.8605 207.377 92.0105 206.027 93.7205C204.667 95.4405 202.727 96.5306 200.547 96.7806L200.657 97.7105C203.087 97.4205 205.257 96.2105 206.767 94.3005C208.277 92.3905 208.947 89.9905 208.667 87.5605L207.737 87.6705L207.727 87.6805Z" fill="#38237C"/>
<path d="M204.917 92.8616C206.037 91.4416 206.537 89.6616 206.327 87.8516L205.397 87.9616C205.577 89.5216 205.147 91.0516 204.177 92.2716C203.207 93.5016 201.817 94.2716 200.267 94.4616L200.377 95.3916C202.177 95.1816 203.797 94.2816 204.917 92.8516V92.8616Z" fill="#38237C"/>
<path d="M203.077 91.4011C203.817 90.4711 204.137 89.3011 203.997 88.1211L203.067 88.2311C203.177 89.1611 202.917 90.0811 202.337 90.8211C201.757 91.5611 200.927 92.0211 199.987 92.1311L200.097 93.0611C201.277 92.9211 202.337 92.3311 203.067 91.4011H203.077Z" fill="#38237C"/>
<path d="M200.867 89.6609C201.427 88.9509 201.307 87.9209 200.597 87.3709C200.187 87.0509 199.667 86.9509 199.197 87.0709L197.947 77.6309C197.887 77.1009 197.687 76.6609 197.317 76.3609C194.897 74.4509 191.177 75.0009 188.387 77.4609L187.367 76.6609C188.237 75.0909 188.567 73.5309 187.697 72.8409L185.647 71.2209L187.087 69.3909L189.177 71.0409C189.697 71.4509 190.467 71.3609 190.877 70.8409L199.397 60.0309C199.807 59.5109 199.717 58.7409 199.197 58.3309L193.727 54.0209C193.207 53.6109 192.437 53.7009 192.027 54.2209L183.507 65.0309C183.097 65.5509 183.187 66.3209 183.707 66.7309L185.797 68.3809L184.357 70.2109L181.847 68.2309C181.327 67.8209 180.607 67.9009 179.827 68.2909C179.667 67.7209 179.407 67.0609 179.187 66.8809C178.077 66.0009 175.987 66.8609 174.437 68.8209C172.887 70.7909 172.537 73.0109 173.657 73.8909C173.877 74.0709 174.587 74.1609 175.177 74.1909C174.977 75.0409 175.077 75.7609 175.597 76.1709L178.107 78.1509L176.567 80.1009L174.477 78.4509C173.957 78.0409 173.187 78.1309 172.777 78.6509L164.257 89.4609C163.847 89.9809 163.937 90.7509 164.457 91.1609L169.927 95.4709C170.447 95.8809 171.217 95.7909 171.627 95.2709L180.147 84.4609C180.557 83.9409 180.467 83.1709 179.947 82.7609L177.857 81.1109L179.397 79.1609L181.447 80.7809C182.317 81.4709 183.757 80.7809 185.077 79.5709L186.097 80.3709C184.357 83.6509 184.687 87.4009 187.107 89.3109C187.477 89.6109 187.957 89.7009 188.487 89.6309L197.957 88.6509C197.957 89.1409 198.167 89.6209 198.577 89.9409C199.287 90.5009 200.317 90.3809 200.867 89.6709V89.6609ZM191.107 88.4109C192.247 87.6009 193.427 86.4509 194.457 85.2009L197.657 87.7309L191.107 88.4109ZM195.037 84.4709C196.007 83.1809 196.847 81.7609 197.377 80.4609L198.247 86.9909L195.047 84.4609L195.037 84.4709Z" fill="#38237C"/>
<path d="M43.7274 62.9169C43.9874 65.0969 43.3773 67.2469 42.0273 68.9569C40.6673 70.6769 38.7274 71.7669 36.5474 72.0169L36.6573 72.9469C39.0873 72.6569 41.2573 71.4469 42.7673 69.5369C44.2773 67.6269 44.9474 65.2269 44.6674 62.7969L43.7374 62.9069L43.7274 62.9169Z" fill="#38237C"/>
<path d="M40.9171 68.0979C42.0371 66.6779 42.5371 64.8979 42.3271 63.0879L41.3971 63.1979C41.5771 64.7579 41.1471 66.2879 40.1771 67.5079C39.2071 68.7379 37.8171 69.5079 36.2671 69.6979L36.3771 70.6279C38.1771 70.4179 39.7971 69.5179 40.9171 68.0879V68.0979Z" fill="#38237C"/>
<path d="M39.0773 66.6374C39.8173 65.7074 40.1373 64.5374 39.9973 63.3574L39.0673 63.4674C39.1773 64.3974 38.9173 65.3174 38.3373 66.0574C37.7573 66.7974 36.9273 67.2574 35.9873 67.3674L36.0973 68.2974C37.2773 68.1574 38.3373 67.5674 39.0673 66.6374H39.0773Z" fill="#38237C"/>
<path d="M36.8672 64.8972C37.4272 64.1872 37.3072 63.1572 36.5972 62.6072C36.1872 62.2872 35.6672 62.1872 35.1972 62.3072L33.9472 52.8672C33.8872 52.3372 33.6872 51.8972 33.3172 51.5972C30.8972 49.6872 27.1772 50.2372 24.3872 52.6972L23.3672 51.8972C24.2372 50.3272 24.5672 48.7672 23.6972 48.0772L21.6472 46.4572L23.0872 44.6272L25.1772 46.2772C25.6972 46.6872 26.4672 46.5972 26.8772 46.0772L35.3972 35.2672C35.8072 34.7472 35.7172 33.9772 35.1972 33.5672L29.7272 29.2572C29.2072 28.8472 28.4372 28.9372 28.0272 29.4572L19.5072 40.2672C19.0972 40.7872 19.1872 41.5572 19.7072 41.9672L21.7972 43.6172L20.3572 45.4472L17.8472 43.4672C17.3272 43.0572 16.6072 43.1372 15.8272 43.5272C15.6672 42.9572 15.4072 42.2972 15.1872 42.1172C14.0772 41.2372 11.9872 42.0972 10.4372 44.0572C8.88724 46.0272 8.53722 48.2472 9.65722 49.1272C9.87722 49.3072 10.5872 49.3972 11.1772 49.4272C10.9772 50.2772 11.0772 50.9972 11.5972 51.4072L14.1072 53.3872L12.5672 55.3372L10.4772 53.6872C9.95722 53.2772 9.18721 53.3672 8.77721 53.8872L0.25719 64.6972C-0.15281 65.2172 -0.0627975 65.9872 0.457202 66.3972L5.92723 70.7072C6.44723 71.1172 7.21719 71.0272 7.62719 70.5072L16.1472 59.6972C16.5572 59.1772 16.4672 58.4072 15.9472 57.9972L13.8572 56.3472L15.3972 54.3972L17.4472 56.0172C18.3172 56.7072 19.7572 56.0172 21.0772 54.8072L22.0972 55.6072C20.3572 58.8872 20.6872 62.6372 23.1072 64.5472C23.4772 64.8472 23.9572 64.9372 24.4872 64.8672L33.9572 63.8872C33.9572 64.3772 34.1672 64.8572 34.5772 65.1772C35.2872 65.7372 36.3172 65.6172 36.8672 64.9072V64.8972ZM27.1072 63.6472C28.2472 62.8372 29.4272 61.6872 30.4572 60.4372L33.6572 62.9672L27.1072 63.6472ZM31.0372 59.7072C32.0072 58.4172 32.8472 56.9972 33.3772 55.6972L34.2472 62.2272L31.0472 59.6972L31.0372 59.7072Z" fill="#38237C"/>
</svg>
