<svg width="220" height="207" viewBox="0 0 220 207" fill="none" xmlns="http://www.w3.org/2000/svg">
<path d="M92.5506 122.472L98.1831 119.289C99.4171 121.161 100.844 122.888 102.42 124.478L106.604 122.116C105.037 120.531 103.61 118.803 102.384 116.936L105.58 115.105C106.814 116.977 108.237 118.712 109.813 120.303L116.968 116.257C114.68 113.82 112.5 110.806 110.683 107.585C109.471 105.445 108.418 103.204 107.58 101.008L101.388 104.509C101.453 104.638 101.51 104.763 101.557 104.903C102.122 106.554 101.574 108.221 100.341 108.649C99.2154 109.033 97.913 108.237 97.2619 106.84L94.4166 108.447C95.1185 110.017 94.7542 111.805 93.5776 112.473L90.2525 114.347C89.0715 115.023 87.525 114.312 86.7525 112.776L84.2199 114.21C84.9532 116.255 85.9573 118.49 87.2767 120.814C89.3515 124.478 91.6232 127.344 93.7043 129.398L96.7917 127.653C95.2164 126.063 93.7891 124.335 92.555 122.464L92.5506 122.472Z" fill="#C0DBFF"/>
<path d="M127.109 117.84L127.143 117.817C127.381 117.687 127.573 117.449 127.728 117.128C128.184 116.18 128.28 114.464 127.937 112.237C127.728 112.695 127.437 113.056 127.053 113.283C124.554 114.694 119.271 110.087 115.264 102.995C111.663 96.6239 110.315 90.4138 111.892 88.1966C111.262 88.0181 110.751 88.0197 110.388 88.2269L110.354 88.2502C108.559 89.4012 109.054 96.9034 114.056 105.716C119.061 114.541 125.181 118.835 127.109 117.861L127.109 117.84Z" fill="white"/>
<path d="M149.378 154.434L146.771 155.906L153.088 167.089L155.695 165.617L149.378 154.434Z" fill="#C0DBFF"/>
<path d="M162.641 177.908L157.124 168.137L154.516 169.614L159.294 178.075L149.656 183.52L150.956 185.823L162.204 179.469L162.213 179.453C162.763 179.151 162.944 178.459 162.637 177.916L162.641 177.908Z" fill="#C0DBFF"/>
<path d="M134.883 191.867L135.619 193.165L135.635 193.174C135.938 193.724 136.625 193.913 137.167 193.606L148.432 187.241L147.132 184.938L134.887 191.859L134.883 191.867Z" fill="#C0DBFF"/>
<path d="M140.199 138.174L134.673 128.398L134.657 128.389C134.355 127.839 133.668 127.65 133.125 127.957L131.498 128.877L137.591 139.65L140.199 138.174V138.174Z" fill="#C0DBFF"/>
<path d="M141.635 140.724L139.021 142.201L145.337 153.384L147.952 151.907L141.635 140.724Z" fill="#C0DBFF"/>
<path d="M139.042 142.235L129.41 147.678L135.728 158.86L145.36 153.417L139.042 142.235Z" fill="#77A4F2"/>
<path d="M119.333 135.749L108.08 142.11L108.072 142.126C107.521 142.429 107.34 143.121 107.647 143.663L113.181 153.443L125.431 146.513L119.337 135.741L119.333 135.749Z" fill="#77A4F2"/>
<path d="M146.789 155.946L137.157 161.389L143.475 172.571L153.107 167.128L146.789 155.946Z" fill="#77A4F2"/>
<path d="M154.538 169.672L144.906 175.115L149.689 183.578L159.321 178.135L154.538 169.672Z" fill="#77A4F2"/>
<path d="M134.635 162.825L122.38 169.75L128.699 180.931L140.954 174.006L134.635 162.825Z" fill="#77A4F2"/>
<path d="M126.876 149.097L114.622 156.022L120.94 167.204L133.195 160.279L126.876 149.097Z" fill="#77A4F2"/>
<path d="M142.365 176.538L130.119 183.458L134.901 191.922L147.148 185.001L142.365 176.538Z" fill="#77A4F2"/>
<path d="M131.516 128.93L121.884 134.373L127.973 145.149L137.605 139.707L131.516 128.93Z" fill="#77A4F2"/>
<path d="M73.8794 26.7306L79.8964 37.4718L82.4538 36.0303L76.9281 26.2549L76.9121 26.2461C76.694 25.8459 76.2805 25.6509 75.8586 25.6803C75.7136 25.7362 75.5729 25.7841 75.4351 25.8648L73.875 26.7386L73.8794 26.7306Z" fill="#C0DBFF"/>
<path d="M104.488 77.2899C105.022 76.9787 105.211 76.2912 104.904 75.7488L100.272 67.5547L97.5982 69.0573L101.132 75.3603L91.5709 80.7223L93.2233 83.6552L104.463 77.2971L104.472 77.2811L104.488 77.2899Z" fill="#C0DBFF"/>
<path d="M98.8433 65.0351L92.5587 53.9081L89.935 55.3758L96.178 66.5217L98.8433 65.0351Z" fill="#C0DBFF"/>
<path d="M76.7387 89.0276L77.8662 91.0178L77.8822 91.0266C78.1846 91.577 78.8765 91.7577 79.4189 91.451L90.696 85.0821L89.0356 82.1449L76.7467 89.032L76.7387 89.0276Z" fill="#C0DBFF"/>
<path d="M91.1261 51.3873L83.879 38.5581L81.3172 40.0077L88.5148 52.8514L91.1261 51.3873Z" fill="#C0DBFF"/>
<path d="M79.897 37.4722L73.88 26.7309L73.8451 26.6806L64.128 32.1757L70.2135 42.944L79.897 37.4722Z" fill="#77A4F2"/>
<path d="M61.5912 33.597L50.322 39.9703L50.3133 39.9863C49.7629 40.2887 49.5821 40.9806 49.8888 41.523L55.4181 51.3107L67.6802 44.3777L61.5948 33.6094L61.5912 33.597Z" fill="#77A4F2"/>
<path d="M77.7537 62.1971L65.4647 69.0842L71.7574 80.2156L84.0463 73.3285L77.7537 62.1971Z" fill="#77A4F2"/>
<path d="M86.5834 71.9069L96.1779 66.5217L89.9348 55.3758L80.2988 60.78L86.5834 71.9069Z" fill="#77A4F2"/>
<path d="M85.4695 75.8443L73.1806 82.7315L76.739 89.0272L89.028 82.1401L85.4695 75.8443Z" fill="#77A4F2"/>
<path d="M78.8664 58.2594L88.5149 52.8516L81.3174 40.0079L71.6382 45.4717L78.8664 58.2594Z" fill="#77A4F2"/>
<path d="M97.5919 69.0536L88.0062 74.4228L91.5647 80.7186L101.134 75.361L97.5919 69.0536Z" fill="#77A4F2"/>
<path d="M69.1102 46.8981L56.8481 53.8312L64.0414 66.5685L76.3347 59.6734L69.1102 46.8981Z" fill="#77A4F2"/>
<path d="M109.825 120.299C110.557 121.033 111.303 121.742 112.099 122.417L108.887 124.239C108.094 123.576 107.345 122.854 106.62 122.125L102.435 124.487C103.16 125.216 103.906 125.926 104.698 126.588L99.0537 129.775C98.2611 129.112 97.5152 128.402 96.7905 127.673L93.7031 129.418C96.6712 132.342 99.2684 133.586 100.37 132.961L122.253 120.594C120.5 119.615 118.705 118.102 116.976 116.261L109.82 120.307L109.825 120.299Z" fill="white"/>
<path d="M86.7137 112.713C85.9594 111.125 86.3296 109.288 87.531 108.613L90.8524 106.726C92.0538 106.051 93.6404 106.784 94.3867 108.368C94.4019 108.397 94.4012 108.418 94.4164 108.447L97.2617 106.84C97.2014 106.703 97.1368 106.574 97.0889 106.433C96.5248 104.783 97.0725 103.116 98.3056 102.687C99.4353 102.296 100.741 103.104 101.392 104.501L107.584 101C106.21 97.3868 105.421 93.8649 105.507 90.9677L83.6201 103.342C82.235 104.124 82.1453 108.435 84.2153 114.218L86.7479 112.784C86.7479 112.784 86.721 112.738 86.7057 112.709L86.7137 112.713Z" fill="#77A4F2"/>
<path d="M166.041 176.012L138.06 126.505C136.699 124.085 133.639 123.233 131.219 124.594L121.648 130.013L119.665 126.504L128.973 121.243C128.973 121.243 129.035 121.225 129.069 121.201C129.236 121.105 129.395 121.005 129.55 120.892C131.681 119.374 132.354 116.433 131.992 112.853C141.243 120.401 152.842 122.688 161.984 117.731C162.088 117.674 162.2 117.641 162.296 117.579L162.288 117.575L162.297 117.559C163.898 116.666 164.946 115.169 165.544 113.238L165.566 113.198C165.587 113.085 165.628 112.972 165.656 112.863L176.755 75.0361C179.869 76.3235 183.525 75.1185 185.218 72.1009C187.037 68.851 185.886 64.7356 182.628 62.9119C179.378 61.0925 175.263 62.2437 173.439 65.5016C173.036 66.2384 172.778 67.0132 172.659 67.8013L134.786 57.8731C132.584 57.1995 130.532 57.2422 128.771 58.2352C119.584 63.4272 115.451 74.6924 117.178 86.656C114.089 84.3523 111.003 83.4132 108.512 84.8286L99.1206 90.1274L96.8278 86.0639L106.407 80.6494C108.814 79.2922 109.662 76.2393 108.305 73.8321L80.3272 24.3581C78.9743 21.9429 75.9134 21.0905 73.5062 22.4477L48.4521 36.617C46.0448 37.9742 45.1968 41.0271 46.554 43.4343L74.548 92.917C75.9176 95.3206 78.9625 96.1643 81.3697 94.8071L90.9198 89.4079L93.2126 93.4714L81.7394 99.9516C79.357 101.302 78.531 104.2 78.7983 107.801C76.3698 107.523 73.4143 107.467 72.3958 108.055C67.3059 110.93 67.3011 120.24 72.3891 129.256C77.4815 138.264 85.4581 143.064 90.5437 140.196C91.5701 139.613 93.058 137.045 94.0799 134.816C97.03 136.898 99.9381 137.687 102.32 136.338L113.781 129.861L115.764 133.37L106.192 138.789C103.785 140.146 102.937 143.199 104.294 145.606L132.275 195.113C133.641 197.524 136.701 198.377 139.109 197.019L139.117 197.003L164.171 182.855C166.578 181.497 167.426 178.444 166.069 176.037L166.041 176.012ZM92.5575 53.9078L98.8421 65.0347L96.1724 66.5293L86.5823 71.9066L80.2977 60.7796L89.9338 55.3755L92.5575 53.9078ZM83.8797 38.5583L91.1268 51.3875L88.5155 52.8516L78.8714 58.2514L71.6432 45.4637L81.3143 39.9955L83.8761 38.5459L83.8797 38.5583ZM73.8442 26.6801L75.3671 25.8172C75.5173 25.7329 75.6863 25.6901 75.8502 25.6757C76.2721 25.6463 76.6857 25.8414 76.9125 26.2256L76.9285 26.2343L82.4454 36.0257L79.888 37.4673L70.2045 42.9391L64.1191 32.1708L73.8362 26.6757L73.8442 26.6801ZM49.8886 41.5231C49.5774 40.9887 49.7582 40.2968 50.305 39.982L50.3137 39.966L61.5989 33.6015L67.6843 44.3698L55.4222 51.3028L49.8929 41.5151L49.8886 41.5231ZM56.8442 53.8391L69.1062 46.906L76.3308 59.6813L64.0418 66.5684L56.8442 53.8391V53.8391ZM65.4601 69.0923L77.7491 62.2051L84.0336 73.3321L71.7447 80.2192L65.4601 69.0923ZM79.4096 91.4666C78.8753 91.7778 78.1834 91.597 77.8686 91.0502L77.8526 91.0415L76.7338 89.0352L73.1754 82.7395L85.4643 75.8523L89.0228 82.1481L90.6832 85.0853L79.406 91.4542L79.4096 91.4666ZM93.2194 83.6634L91.567 80.7306L88.0085 74.4348L97.5943 69.0656L100.268 67.563L104.901 75.7571C105.212 76.2915 105.031 76.9833 104.484 77.2981L104.475 77.3141L93.2194 83.6634V83.6634ZM149.378 154.432L155.693 165.617L153.086 167.094L143.448 172.538L137.129 161.361L146.766 155.916L149.374 154.44L149.378 154.432ZM141.629 140.714L147.944 151.899L145.336 153.376L135.699 158.821L129.376 147.631L139.013 142.186L141.621 140.71L141.629 140.714ZM131.494 128.885L133.121 127.965C133.663 127.658 134.351 127.847 134.662 128.381L134.678 128.39L140.195 138.181L137.587 139.658L127.949 145.103L121.856 134.33L131.494 128.885V128.885ZM160.387 114.184C160.387 114.184 160.345 114.202 160.329 114.214C158.82 115.012 156.062 114.138 152.687 111.616C153.594 111.727 154.404 111.597 155.092 111.214C159.189 108.898 157.551 98.1593 151.515 86.731L154.752 84.902C163.074 100.369 163.725 112.285 160.391 114.176L160.387 114.184ZM172.792 74.71L165.128 100.837C163.8 95.1996 161.28 88.889 158.123 83.0003L172.792 74.71ZM170.878 71.3426L156.209 79.6329C152.793 73.8939 148.695 68.4892 144.551 64.4431L170.874 71.3507L170.878 71.3426ZM130.664 61.6222L130.673 61.6062C131.306 61.266 132.158 61.2117 133.179 61.4577L133.478 61.5382C138.01 62.8208 145.708 69.5186 152.846 81.539L149.621 83.3644C142.936 72.2268 134.535 65.217 130.413 67.5404C129.762 67.9126 129.254 68.4984 128.887 69.2651C128.523 65.1748 129.216 62.443 130.672 61.6266L130.664 61.6222ZM124.908 66.8387C124.866 69.6151 125.353 72.8153 126.248 76.239C127.788 82.0966 130.523 88.5663 133.871 94.4866C137.218 100.407 141.343 106.086 145.566 110.425C148.038 112.964 150.543 115.041 152.95 116.442C144.268 117.155 134.585 112.087 127.981 102.991C127.114 101.799 126.294 100.539 125.547 99.2039C124.792 97.8647 124.127 96.5125 123.552 95.1473C119.174 84.8138 119.835 73.9065 124.908 66.8387V66.8387ZM88.4474 136.896C87.1717 137.478 85.2635 137.048 83.1721 135.716C80.7058 134.138 77.9875 131.309 75.7521 127.35C75.1197 126.223 74.5928 125.113 74.1424 124.034C71.6785 118.077 71.9804 112.998 74.1175 111.545C75.9069 111.432 77.7047 111.531 79.4622 111.837C80.1053 114.446 81.1466 117.222 82.4642 119.93C82.9198 120.866 83.4119 121.811 83.9295 122.729C85.3979 125.332 87.1084 127.798 88.9126 129.939C89.5819 130.732 90.265 131.48 90.9584 132.172C90.3044 133.843 89.4734 135.438 88.4466 136.916L88.4474 136.896ZM100.37 132.961C99.2684 133.586 96.6713 132.342 93.7032 129.418C91.6221 127.364 89.3504 124.498 87.2756 120.835C85.9562 118.511 84.9521 116.276 84.2188 114.231C82.1444 108.455 82.2341 104.145 83.6236 103.355L105.511 90.9802C105.424 93.8774 106.213 97.3993 107.587 101.012C108.429 103.221 109.486 105.453 110.69 107.589C112.512 110.802 114.688 113.824 116.976 116.261C118.705 118.102 120.5 119.615 122.253 120.594L100.37 132.961V132.961ZM114.06 105.708C109.059 96.8957 108.564 89.3936 110.359 88.2425L110.392 88.2192C110.751 88.02 111.266 88.0104 111.897 88.189C113.599 88.6726 116.164 90.5443 118.847 93.6663C118.887 93.8026 118.94 93.9353 118.992 94.0679L117.394 94.973C115.062 96.2881 114.854 100.357 116.949 104.042C119.039 107.734 122.62 109.652 124.952 108.337L126.546 107.44C126.648 107.558 126.745 107.684 126.847 107.802C127.383 109.427 127.745 110.915 127.95 112.234C128.3 114.465 128.192 116.185 127.741 117.124C127.586 117.446 127.385 117.679 127.155 117.814L127.122 117.837C125.203 118.816 119.074 114.517 114.069 105.692L114.06 105.708ZM107.638 143.679C107.327 143.144 107.507 142.452 108.054 142.138L108.063 142.122L119.331 135.769L125.425 146.541L113.175 153.471L107.641 143.691L107.638 143.679ZM114.593 155.995L126.843 149.065L133.166 160.255L120.921 167.176L114.598 155.987L114.593 155.995ZM122.343 169.713L134.588 162.791L140.908 173.968L128.662 180.89L122.343 169.713ZM137.159 193.622C136.616 193.929 135.929 193.74 135.618 193.206L135.602 193.197L134.874 191.883L130.097 183.422L142.342 176.501L147.119 184.962L148.419 187.265L137.154 193.63L137.159 193.622ZM162.225 179.47L162.216 179.486L150.96 185.835L149.66 183.532L144.882 175.071L154.52 169.626L157.128 168.15L162.645 177.921C162.957 178.455 162.776 179.147 162.229 179.462L162.225 179.47Z" fill="#38237C"/>
<path d="M115.268 102.987C119.283 110.084 124.559 114.686 127.058 113.275C127.446 113.061 127.729 112.696 127.942 112.23C127.733 110.919 127.376 109.423 126.839 107.797C126.737 107.679 126.64 107.553 126.538 107.435L124.944 108.332C122.612 109.647 119.031 107.73 116.941 104.037C114.851 100.345 115.054 96.2834 117.386 94.9684L118.984 94.0633C118.932 93.9306 118.892 93.7944 118.84 93.6617C116.149 90.5353 113.591 88.6679 111.889 88.1843C110.308 90.4095 111.66 96.6115 115.26 102.982L115.268 102.987Z" fill="#C0DBFF"/>
<path d="M92.5503 122.471C93.7843 124.343 95.2116 126.071 96.7869 127.661C97.5117 128.39 98.2575 129.1 99.0501 129.762L104.695 126.576C103.902 125.914 103.156 125.204 102.432 124.474C100.856 122.884 99.4291 121.157 98.195 119.285L92.5627 122.468L92.5503 122.471Z" fill="#38237C"/>
<path d="M83.9215 122.704C83.4039 121.786 82.9155 120.853 82.4562 119.905L74.1345 124.009C74.5805 125.096 75.1117 126.198 75.7441 127.325C77.9795 131.284 80.6979 134.113 83.1642 135.691L88.9009 129.902C87.0968 127.76 85.3863 125.295 83.9178 122.692L83.9215 122.704Z" fill="#C0DBFF"/>
<path d="M102.393 116.94C103.619 118.807 105.046 120.535 106.613 122.121C107.346 122.855 108.087 123.572 108.88 124.235L112.093 122.413C111.3 121.75 110.546 121.036 109.818 120.295C108.243 118.705 106.815 116.977 105.586 115.097L102.389 116.928L102.393 116.94Z" fill="#38237C"/>
<path d="M79.4549 111.812C77.685 111.51 75.8995 111.407 74.1102 111.521C71.9731 112.974 71.6792 118.057 74.1351 124.01L82.4568 119.905C81.1437 117.189 80.1023 114.414 79.4549 111.812V111.812Z" fill="#77A4F2"/>
<path d="M88.9054 129.914L83.1685 135.703C85.2556 137.043 87.1718 137.477 88.4438 136.883C89.4706 135.405 90.3016 133.81 90.9556 132.139C90.2622 131.447 89.579 130.699 88.9097 129.906L88.9054 129.914Z" fill="white"/>
<path d="M90.8524 106.727L87.531 108.614C86.3296 109.289 85.9675 111.13 86.7137 112.714C86.729 112.743 86.7406 112.76 86.7559 112.789C87.5205 114.32 89.067 115.031 90.256 114.36L93.581 112.485C94.7577 111.818 95.1219 110.03 94.4201 108.46C94.4128 108.435 94.4056 108.41 94.3903 108.381C93.644 106.797 92.0618 106.056 90.856 106.739L90.8524 106.727Z" fill="#38237C"/>
<path d="M98.3061 102.688C97.065 103.112 96.5253 104.783 97.0894 106.434C97.1373 106.575 97.2019 106.704 97.2622 106.841C97.9053 108.233 99.2157 109.033 100.341 108.65C101.582 108.226 102.122 106.554 101.558 104.904C101.51 104.763 101.445 104.634 101.389 104.509C100.737 103.113 99.4314 102.305 98.3018 102.696L98.3061 102.688Z" fill="#38237C"/>
<path d="M125.54 99.1996C126.292 100.526 127.111 101.786 127.974 102.986C133.158 108.288 140.307 110.056 145.559 110.421C141.336 106.082 137.211 100.403 133.864 94.4823C130.516 88.562 127.781 82.0923 126.241 76.2346C123.833 80.9212 121.661 87.9735 123.533 95.1466C124.107 96.5118 124.78 97.8684 125.527 99.2032L125.54 99.1996Z" fill="#C0DBFF"/>
<path d="M127.977 102.978C134.582 112.075 144.273 117.147 152.947 116.429C150.54 115.029 148.035 112.951 145.563 110.413C140.303 110.043 133.154 108.276 127.977 102.978V102.978Z" fill="white"/>
<path d="M123.544 95.1432C121.672 87.9702 123.84 80.9258 126.252 76.2312C125.353 72.8156 124.871 69.6074 124.912 66.831C119.831 73.8944 119.171 84.8017 123.556 95.1396L123.544 95.1432Z" fill="#77A4F2"/>
<path d="M154.753 84.9025L151.515 86.7315C157.548 98.1474 159.189 108.899 155.092 111.215C154.4 111.606 153.595 111.727 152.688 111.616C156.075 114.135 158.833 115.009 160.329 114.215C160.346 114.203 160.37 114.196 160.387 114.184C163.721 112.293 163.07 100.377 154.748 84.9105L154.753 84.9025Z" fill="#77A4F2"/>
<path d="M128.879 69.2607C129.246 68.4941 129.754 67.9082 130.405 67.536C134.519 65.2083 142.929 72.2224 149.613 83.3601L152.838 81.5347C145.708 69.5186 138.002 62.8164 133.47 61.5338L133.171 61.4533C132.146 61.2153 131.291 61.2573 130.673 61.6062L130.664 61.6222L130.656 61.6178C129.201 62.4342 128.507 65.1661 128.871 69.2564L128.879 69.2607Z" fill="#77A4F2"/>
</svg>
