<svg viewBox="0 0 1071 161" fill="none" xmlns="http://www.w3.org/2000/svg">
    <g clip-path="url(#clip0_1895_3351)">
        <rect width="1071" height="161" rx="20" fill="white"/>
        <g clip-path="url(#clip1_1895_3351)">
            <path d="M1121 -150H0V487.253H1121V-150Z" fill="#50508E"/>
            <path opacity="0.6" d="M1121 8.84082H0V487.017H1121V8.84082Z" fill="url(#paint0_linear_1895_3351)"/>
            <path opacity="0.6" d="M560.5 290.413C651.851 290.413 725.906 215.572 725.906 123.252C725.906 30.9313 651.851 -43.9092 560.5 -43.9092C469.149 -43.9092 395.094 30.9313 395.094 123.252C395.094 215.572 469.149 290.413 560.5 290.413Z" fill="url(#paint1_linear_1895_3351)"/>
            <g opacity="0.3">
                <path opacity="0.3" d="M239.264 108.559C239.264 105.727 236.987 103.426 234.184 103.426H188.06C185.257 103.426 182.98 105.727 182.98 108.559C182.98 111.391 180.703 113.693 177.9 113.693H164.53C161.728 113.693 159.451 115.994 159.451 118.826C159.451 121.658 161.728 123.96 164.53 123.96H250.824C253.626 123.96 255.903 121.658 255.903 118.826C255.903 115.994 253.626 113.693 250.824 113.693H244.285C241.482 113.693 239.264 111.391 239.264 108.559Z" fill="url(#paint2_linear_1895_3351)"/>
                <path opacity="0.3" d="M1077.56 144.317C1074.82 144.317 1072.6 142.074 1072.6 139.301C1072.6 136.528 1074.82 134.286 1077.56 134.286H1100.45C1103.19 134.286 1105.41 132.044 1105.41 129.27C1105.41 126.497 1107.63 124.255 1110.37 124.255H1120.94V113.811V113.752V103.721H1096.24C1093.5 103.721 1091.28 105.963 1091.28 108.737C1091.28 111.51 1089.06 113.752 1086.32 113.752H1060.57C1057.83 113.752 1055.61 115.994 1055.61 118.767V119.003C1055.61 121.777 1053.39 124.019 1050.65 124.019H1014.5C1011.76 124.019 1009.54 126.261 1009.54 129.034V129.27C1009.54 132.044 1011.76 134.286 1014.5 134.286H1022.1C1024.84 134.286 1027.06 136.528 1027.06 139.301V139.537C1027.06 142.31 1024.84 144.553 1022.1 144.553H960.148C957.404 144.553 955.185 142.31 955.185 139.537V139.301C955.185 136.528 952.967 134.286 950.223 134.286H934.05C931.306 134.286 929.087 132.044 929.087 129.27V129.034C929.087 126.261 931.306 124.019 934.05 124.019H974.102C976.846 124.019 979.065 121.777 979.065 119.003V118.767C979.065 115.994 976.846 113.752 974.102 113.752H877.766C875.022 113.752 872.804 115.994 872.804 118.767V119.003C872.804 121.777 875.022 124.019 877.766 124.019H897.15C899.894 124.019 902.113 126.261 902.113 129.034V129.27C902.113 132.044 899.894 134.286 897.15 134.286H831.233C828.489 134.286 826.27 136.528 826.27 139.301V139.537C826.27 142.31 824.052 144.553 821.308 144.553H721.352C718.608 144.553 716.389 146.795 716.389 149.568V149.804C716.389 152.577 718.608 154.819 721.352 154.819H748.793C751.537 154.819 753.756 157.062 753.756 159.835V160.071C753.756 162.844 751.537 165.086 748.793 165.086H688.306C685.562 165.086 683.343 167.328 683.343 170.102V170.161C683.343 172.934 681.124 175.176 678.38 175.176H634.883C632.139 175.176 629.92 177.418 629.92 180.192V180.605C629.92 183.378 627.702 185.62 624.957 185.62H578.95C576.206 185.62 573.987 183.378 573.987 180.605V180.428C573.987 177.654 576.206 175.412 578.95 175.412H595.765C598.509 175.412 600.728 173.17 600.728 170.397V170.161C600.728 167.387 598.509 165.145 595.765 165.145H521.207C518.462 165.145 516.244 167.387 516.244 170.161V170.397C516.244 173.17 518.462 175.412 521.207 175.412H541.758C544.502 175.412 546.721 177.654 546.721 180.428V180.664C546.721 183.437 544.502 185.679 541.758 185.679H481.037C478.293 185.679 476.075 183.437 476.075 180.664C476.075 177.89 473.856 175.648 471.112 175.648H455.757C453.012 175.648 450.794 173.406 450.794 170.633V170.161C450.794 167.387 448.575 165.145 445.831 165.145H426.038C423.294 165.145 421.076 162.903 421.076 160.13V159.894C421.076 157.121 418.857 154.878 416.113 154.878H382.133C379.388 154.878 377.17 157.121 377.17 159.894V160.189C377.17 162.962 379.388 165.204 382.133 165.204H391.824C394.452 165.204 396.787 167.21 396.962 169.925C397.138 172.875 394.861 175.294 392 175.294H355.1C352.356 175.294 350.137 173.052 350.137 170.279V170.22C350.137 167.446 347.919 165.204 345.175 165.204H314.289C311.545 165.204 309.326 162.962 309.326 160.189V159.953C309.326 157.18 307.107 154.937 304.363 154.937H270.558C267.814 154.937 265.595 152.695 265.595 149.922V149.745C265.595 146.972 267.814 144.73 270.558 144.73H288.891C291.635 144.73 293.854 142.487 293.854 139.714V139.301C293.854 136.528 291.635 134.286 288.891 134.286H209.487C206.743 134.286 204.524 136.528 204.524 139.301V139.714C204.524 142.487 206.743 144.73 209.487 144.73H220.58C223.324 144.73 225.543 146.972 225.543 149.745V149.804C225.543 152.577 223.324 154.819 220.58 154.819H175.156C172.412 154.819 170.193 152.577 170.193 149.804V149.745C170.193 146.972 167.975 144.73 165.231 144.73H81.506C78.7619 144.73 76.5433 142.487 76.5433 139.714V139.301C76.5433 136.528 78.7619 134.286 81.506 134.286H132.301C135.045 134.286 137.264 132.044 137.264 129.27V129.034C137.264 126.261 135.045 124.019 132.301 124.019H101.532C98.7881 124.019 96.5695 121.777 96.5695 119.003V118.767C96.5695 115.994 98.7881 113.752 101.532 113.752H120.975C123.719 113.752 125.937 111.51 125.937 108.737V108.501C125.937 105.727 123.719 103.485 120.975 103.485H80.2799C77.5358 103.485 75.3172 101.243 75.3172 98.4697V98.2337C75.3172 95.4605 73.0985 93.2183 70.3544 93.2183H30.4772C27.7915 93.2183 25.3977 91.1531 25.2225 88.4389C25.0473 85.4296 27.3828 82.9514 30.302 82.9514H45.1319C47.8177 82.9514 50.2115 80.8863 50.3866 78.172C50.5618 75.1628 48.2264 72.6846 45.3071 72.6846H0V83.0104V93.3363V113.988H69.6538C72.3395 113.988 74.6749 116.053 74.8501 118.767C75.0253 121.718 72.6898 124.196 69.829 124.196H0V487.253H1121V144.317H1077.56ZM56.5755 144.553H35.4983C32.6958 144.553 30.4188 142.251 30.4188 139.419C30.4188 136.587 32.6958 134.286 35.4983 134.286H56.5755C59.378 134.286 61.655 136.587 61.655 139.419C61.7134 142.251 59.4364 144.553 56.5755 144.553ZM154.254 175.176H107.604C104.802 175.176 102.525 172.875 102.525 170.043C102.525 167.21 100.248 164.909 97.4453 164.909H89.68C86.8775 164.909 84.6005 162.608 84.6005 159.776C84.6005 156.944 86.8775 154.642 89.68 154.642H118.464C121.267 154.642 123.544 156.944 123.544 159.776C123.544 162.608 125.821 164.909 128.623 164.909H154.254C157.057 164.909 159.334 167.21 159.334 170.043C159.334 172.875 157.057 175.176 154.254 175.176ZM289.942 170.515C289.942 173.347 287.665 175.648 284.862 175.648H259.348C256.546 175.648 254.268 173.347 254.268 170.515C254.268 167.683 256.546 165.381 259.348 165.381H284.862C287.665 165.381 289.942 167.683 289.942 170.515ZM747.333 186.269H713.411C710.609 186.269 708.332 183.968 708.332 181.136C708.332 178.303 710.609 176.002 713.411 176.002H747.333C750.136 176.002 752.413 178.303 752.413 181.136C752.413 183.968 750.136 186.269 747.333 186.269ZM840.984 165.086H781.489C778.686 165.086 776.409 162.785 776.409 159.953C776.409 157.121 778.686 154.819 781.489 154.819H840.984C843.786 154.819 846.063 157.121 846.063 159.953C846.063 162.785 843.728 165.086 840.984 165.086ZM977.372 164.732H961.783C958.98 164.732 956.703 167.033 956.703 169.866C956.703 172.698 954.426 174.999 951.624 174.999H940.005C937.203 174.999 934.926 172.698 934.926 169.866C934.926 167.033 932.649 164.732 929.846 164.732H914.783C911.98 164.732 909.703 162.431 909.703 159.599C909.703 156.767 907.426 154.465 904.624 154.465H897.325C894.523 154.465 892.246 152.164 892.246 149.332C892.246 146.5 894.523 144.199 897.325 144.199H931.247C934.05 144.199 936.327 146.5 936.327 149.332C936.327 152.164 938.604 154.465 941.406 154.465H977.255C980.058 154.465 982.335 156.767 982.335 159.599C982.451 162.431 980.174 164.732 977.372 164.732Z" fill="url(#paint3_linear_1895_3351)"/>
                <path opacity="0.3" d="M795.852 118.826C795.852 121.599 793.633 123.842 790.889 123.842H749.26C746.516 123.842 744.297 126.084 744.297 128.857C744.297 131.63 746.516 133.872 749.26 133.872H797.895C800.639 133.872 802.858 131.63 802.858 128.857C802.858 126.084 805.076 123.842 807.821 123.842H829.073C831.817 123.842 834.036 121.599 834.036 118.826C834.036 116.053 831.817 113.811 829.073 113.811H800.814C798.07 113.752 795.852 115.994 795.852 118.826Z" fill="url(#paint4_linear_1895_3351)"/>
            </g>
            <path opacity="0.6" d="M725.731 131.748C724.68 152.813 719.776 172.875 711.718 191.225C701.384 204.442 630.096 185.384 549.29 147.503C469.711 110.212 409.866 68.2001 411.267 51.2067C420.2 32.3251 432.519 15.4497 447.466 1.28855C360.413 -25.7357 295.839 -30.3971 284.746 -6.32308C273.711 17.7509 318.901 64.5418 395.386 114.224C433.629 139.065 479.753 164.614 530.548 188.452C581.461 212.29 630.621 231.408 674.118 244.861C760.937 271.767 825.336 276.369 836.371 252.295C847.348 228.162 802.157 181.431 725.731 131.748Z" fill="url(#paint5_linear_1895_3351)"/>
            <path opacity="0.2" d="M504.041 -6.50028C511.631 0.226275 507.953 17.0427 495.751 31.1449C483.606 45.188 467.55 51.1475 459.96 44.48C452.37 37.8124 456.049 20.937 468.251 6.83482C480.454 -7.26735 496.451 -13.2268 504.041 -6.50028Z" fill="url(#paint6_linear_1895_3351)"/>
            <path opacity="0.2" d="M443.262 47.9029C445.598 49.26 446.006 53.0954 444.08 56.3996C442.153 59.7039 438.766 61.2971 436.431 59.881C434.096 58.5238 433.687 54.6885 435.614 51.3842C437.54 48.0799 440.927 46.4868 443.262 47.9029Z" fill="url(#paint7_linear_1895_3351)"/>
            <path opacity="0.2" d="M528.33 16.4532C530.256 17.5743 530.432 20.8786 528.738 23.7699C527.045 26.6611 524.126 28.1952 522.258 27.0741C520.331 25.953 520.156 22.6488 521.849 19.7575C523.542 16.8663 526.403 15.3322 528.33 16.4532Z" fill="url(#paint8_linear_1895_3351)"/>
            <path opacity="0.2" d="M491.372 76.4016C489.328 83.1871 483.49 87.3765 478.352 85.8423C473.214 84.2492 470.703 77.4636 472.688 70.6781C474.732 63.8925 480.57 59.7032 485.708 61.2373C490.846 62.8304 493.415 69.616 491.372 76.4016Z" fill="url(#paint9_linear_1895_3351)"/>
            <path opacity="0.6" d="M992.027 12.7946C996.992 12.7946 1001.02 8.72633 1001.02 3.70785C1001.02 -1.31063 996.992 -5.37891 992.027 -5.37891C987.061 -5.37891 983.035 -1.31063 983.035 3.70785C983.035 8.72633 987.061 12.7946 992.027 12.7946Z" fill="url(#paint10_linear_1895_3351)"/>
            <path d="M332.038 107.733C332.586 107.733 333.031 107.284 333.031 106.73C333.031 106.176 332.586 105.727 332.038 105.727C331.49 105.727 331.045 106.176 331.045 106.73C331.045 107.284 331.49 107.733 332.038 107.733Z" fill="#88D1C3"/>
            <path d="M314.288 131.984C314.837 131.984 315.281 131.535 315.281 130.981C315.281 130.427 314.837 129.978 314.288 129.978C313.74 129.978 313.296 130.427 313.296 130.981C313.296 131.535 313.74 131.984 314.288 131.984Z" fill="#88D1C3"/>
            <path d="M357.085 152.459C357.633 152.459 358.078 152.01 358.078 151.456C358.078 150.902 357.633 150.453 357.085 150.453C356.537 150.453 356.093 150.902 356.093 151.456C356.093 152.01 356.537 152.459 357.085 152.459Z" fill="#88D1C3"/>
            <path d="M309.443 74.9855C310.217 74.9855 310.844 74.3515 310.844 73.5694C310.844 72.7873 310.217 72.1533 309.443 72.1533C308.669 72.1533 308.042 72.7873 308.042 73.5694C308.042 74.3515 308.669 74.9855 309.443 74.9855Z" fill="#88D1C3"/>
            <path d="M280.192 127.794C280.74 127.794 281.184 127.345 281.184 126.791C281.184 126.237 280.74 125.788 280.192 125.788C279.644 125.788 279.199 126.237 279.199 126.791C279.199 127.345 279.644 127.794 280.192 127.794Z" fill="#88D1C3"/>
            <path d="M262.268 109.208C262.945 109.208 263.494 108.653 263.494 107.969C263.494 107.284 262.945 106.729 262.268 106.729C261.59 106.729 261.042 107.284 261.042 107.969C261.042 108.653 261.59 109.208 262.268 109.208Z" fill="#88D1C3"/>
            <path d="M232.958 133.991C233.506 133.991 233.95 133.541 233.95 132.987C233.95 132.433 233.506 131.984 232.958 131.984C232.41 131.984 231.965 132.433 231.965 132.987C231.965 133.541 232.41 133.991 232.958 133.991Z" fill="#88D1C3"/>
            <path d="M251.816 66.784C252.074 66.784 252.283 66.5726 252.283 66.3119C252.283 66.0512 252.074 65.8398 251.816 65.8398C251.558 65.8398 251.349 66.0512 251.349 66.3119C251.349 66.5726 251.558 66.784 251.816 66.784Z" fill="#88D1C3"/>
            <path d="M215.734 89.9724C216.412 89.9724 216.96 89.4176 216.96 88.7332C216.96 88.0489 216.412 87.4941 215.734 87.4941C215.057 87.4941 214.508 88.0489 214.508 88.7332C214.508 89.4176 215.057 89.9724 215.734 89.9724Z" fill="#88D1C3"/>
            <path d="M232.14 36.8092C232.624 36.8092 233.016 36.413 233.016 35.9241C233.016 35.4353 232.624 35.0391 232.14 35.0391C231.657 35.0391 231.265 35.4353 231.265 35.9241C231.265 36.413 231.657 36.8092 232.14 36.8092Z" fill="#88D1C3"/>
            <path d="M192.322 107.969C192.644 107.969 192.905 107.705 192.905 107.379C192.905 107.053 192.644 106.789 192.322 106.789C191.999 106.789 191.738 107.053 191.738 107.379C191.738 107.705 191.999 107.969 192.322 107.969Z" fill="#88D1C3"/>
            <path d="M357.377 75.1035C357.796 75.1035 358.136 74.76 358.136 74.3364C358.136 73.9128 357.796 73.5693 357.377 73.5693C356.958 73.5693 356.618 73.9128 356.618 74.3364C356.618 74.76 356.958 75.1035 357.377 75.1035Z" fill="#88D1C3"/>
            <path d="M412.61 13.9744C413.061 13.9744 413.427 13.6045 413.427 13.1483C413.427 12.6921 413.061 12.3223 412.61 12.3223C412.158 12.3223 411.792 12.6921 411.792 13.1483C411.792 13.6045 412.158 13.9744 412.61 13.9744Z" fill="#88D1C3"/>
            <path d="M364.092 16.8069C364.866 16.8069 365.493 16.1728 365.493 15.3907C365.493 14.6086 364.866 13.9746 364.092 13.9746C363.318 13.9746 362.69 14.6086 362.69 15.3907C362.69 16.1728 363.318 16.8069 364.092 16.8069Z" fill="#88D1C3"/>
            <path d="M282.118 161.074C282.634 161.074 283.052 160.651 283.052 160.13C283.052 159.608 282.634 159.186 282.118 159.186C281.602 159.186 281.184 159.608 281.184 160.13C281.184 160.651 281.602 161.074 282.118 161.074Z" fill="#88D1C3"/>
            <path d="M156.414 121.6C157.027 121.6 157.524 121.098 157.524 120.478C157.524 119.859 157.027 119.357 156.414 119.357C155.802 119.357 155.305 119.859 155.305 120.478C155.305 121.098 155.802 121.6 156.414 121.6Z" fill="#88D1C3"/>
            <path d="M166.807 59.5847C167.065 59.5847 167.274 59.3734 167.274 59.1127C167.274 58.852 167.065 58.6406 166.807 58.6406C166.549 58.6406 166.34 58.852 166.34 59.1127C166.34 59.3734 166.549 59.5847 166.807 59.5847Z" fill="#88D1C3"/>
            <path d="M108.188 136.704C108.511 136.704 108.772 136.44 108.772 136.114C108.772 135.789 108.511 135.524 108.188 135.524C107.866 135.524 107.604 135.789 107.604 136.114C107.604 136.44 107.866 136.704 108.188 136.704Z" fill="#88D1C3"/>
            <path d="M138.607 92.2149C138.994 92.2149 139.308 91.8979 139.308 91.5069C139.308 91.1158 138.994 90.7988 138.607 90.7988C138.22 90.7988 137.906 91.1158 137.906 91.5069C137.906 91.8979 138.22 92.2149 138.607 92.2149Z" fill="#88D1C3"/>
            <path d="M56.8676 140.422C57.4157 140.422 57.8601 139.973 57.8601 139.419C57.8601 138.865 57.4157 138.416 56.8676 138.416C56.3194 138.416 55.875 138.865 55.875 139.419C55.875 139.973 56.3194 140.422 56.8676 140.422Z" fill="#88D1C3"/>
            <path d="M76.66 107.969C76.9825 107.969 77.2439 107.705 77.2439 107.379C77.2439 107.053 76.9825 106.789 76.66 106.789C76.3376 106.789 76.0762 107.053 76.0762 107.379C76.0762 107.705 76.3376 107.969 76.66 107.969Z" fill="#88D1C3"/>
            <path d="M106.67 68.1997C107.186 68.1997 107.604 67.777 107.604 67.2556C107.604 66.7342 107.186 66.3115 106.67 66.3115C106.154 66.3115 105.736 66.7342 105.736 67.2556C105.736 67.777 106.154 68.1997 106.67 68.1997Z" fill="#88D1C3"/>
            <path d="M53.3061 67.7276C53.693 67.7276 54.0067 67.4106 54.0067 67.0196C54.0067 66.6285 53.693 66.3115 53.3061 66.3115C52.9192 66.3115 52.6055 66.6285 52.6055 67.0196C52.6055 67.4106 52.9192 67.7276 53.3061 67.7276Z" fill="#88D1C3"/>
            <path d="M162.253 19.6391C162.576 19.6391 162.837 19.3749 162.837 19.049C162.837 18.7232 162.576 18.459 162.253 18.459C161.931 18.459 161.669 18.7232 161.669 19.049C161.669 19.3749 161.931 19.6391 162.253 19.6391Z" fill="#88D1C3"/>
            <path d="M101.241 20.2875C101.563 20.2875 101.824 20.0233 101.824 19.6975C101.824 19.3716 101.563 19.1074 101.241 19.1074C100.918 19.1074 100.657 19.3716 100.657 19.6975C100.657 20.0233 100.918 20.2875 101.241 20.2875Z" fill="#88D1C3"/>
            <path d="M138.49 44.775C138.781 44.775 139.016 44.5372 139.016 44.2439C139.016 43.9507 138.781 43.7129 138.49 43.7129C138.2 43.7129 137.965 43.9507 137.965 44.2439C137.965 44.5372 138.2 44.775 138.49 44.775Z" fill="#88D1C3"/>
            <path d="M222.74 4.53346C223.095 4.53346 223.383 4.24286 223.383 3.8844C223.383 3.52593 223.095 3.23535 222.74 3.23535C222.386 3.23535 222.098 3.52593 222.098 3.8844C222.098 4.24286 222.386 4.53346 222.74 4.53346Z" fill="#88D1C3"/>
            <path d="M82.2068 2.35034C82.4648 2.35034 82.6739 2.13899 82.6739 1.87829C82.6739 1.61758 82.4648 1.40625 82.2068 1.40625C81.9489 1.40625 81.7397 1.61758 81.7397 1.87829C81.7397 2.13899 81.9489 2.35034 82.2068 2.35034Z" fill="#88D1C3"/>
            <path d="M320.011 27.4275C320.268 27.4275 320.478 27.2161 320.478 26.9554C320.478 26.6947 320.268 26.4834 320.011 26.4834C319.753 26.4834 319.543 26.6947 319.543 26.9554C319.543 27.2161 319.753 27.4275 320.011 27.4275Z" fill="#88D1C3"/>
            <path d="M273.244 34.3311C273.437 34.3311 273.594 34.1726 273.594 33.9771C273.594 33.7815 273.437 33.623 273.244 33.623C273.05 33.623 272.894 33.7815 272.894 33.9771C272.894 34.1726 273.05 34.3311 273.244 34.3311Z" fill="#88D1C3"/>
            <path d="M308.042 3.4713C308.332 3.4713 308.567 3.23354 308.567 2.94025C308.567 2.64696 308.332 2.40918 308.042 2.40918C307.751 2.40918 307.516 2.64696 307.516 2.94025C307.516 3.23354 307.751 3.4713 308.042 3.4713Z" fill="#88D1C3"/>
            <path d="M704.187 3.70689C704.832 3.70689 705.355 3.17854 705.355 2.52679C705.355 1.87503 704.832 1.34668 704.187 1.34668C703.542 1.34668 703.019 1.87503 703.019 2.52679C703.019 3.17854 703.542 3.70689 704.187 3.70689Z" fill="#88D1C3"/>
            <path d="M744.122 41.0572C744.122 41.8832 743.48 42.5323 742.663 42.5323C741.845 42.5323 741.203 41.8832 741.203 41.0572C741.203 40.2311 741.845 39.582 742.663 39.582C743.48 39.582 744.122 40.2311 744.122 41.0572Z" fill="#88D1C3"/>
            <path d="M858.558 19.9925C859.106 19.9925 859.55 19.5434 859.55 18.9894C859.55 18.4354 859.106 17.9863 858.558 17.9863C858.01 17.9863 857.565 18.4354 857.565 18.9894C857.565 19.5434 858.01 19.9925 858.558 19.9925Z" fill="#88D1C3"/>
            <path d="M824.052 31.2629C824.052 31.7939 823.585 32.2659 823.059 32.2659C822.534 32.2659 822.067 31.7939 822.067 31.2629C822.067 30.7318 822.534 30.2598 823.059 30.2598C823.585 30.2598 824.052 30.6728 824.052 31.2629Z" fill="#88D1C3"/>
            <path d="M884.189 49.6131C884.64 49.6131 885.006 49.2432 885.006 48.787C885.006 48.3308 884.64 47.9609 884.189 47.9609C883.738 47.9609 883.372 48.3308 883.372 48.787C883.372 49.2432 883.738 49.6131 884.189 49.6131Z" fill="#88D1C3"/>
            <path d="M1014.45 68.0223C1014.67 68.0223 1014.86 67.8374 1014.86 67.6093C1014.86 67.3812 1014.67 67.1963 1014.45 67.1963C1014.22 67.1963 1014.04 67.3812 1014.04 67.6093C1014.04 67.8374 1014.22 68.0223 1014.45 68.0223Z" fill="#88D1C3"/>
            <path d="M1032.31 151.691C1032.54 151.691 1032.72 151.506 1032.72 151.278C1032.72 151.05 1032.54 150.865 1032.31 150.865C1032.09 150.865 1031.9 151.05 1031.9 151.278C1031.9 151.506 1032.09 151.691 1032.31 151.691Z" fill="#88D1C3"/>
            <path d="M837.947 81.3575C838.754 81.3575 839.407 80.697 839.407 79.8823C839.407 79.0677 838.754 78.4072 837.947 78.4072C837.141 78.4072 836.488 79.0677 836.488 79.8823C836.488 80.697 837.141 81.3575 837.947 81.3575Z" fill="#88D1C3"/>
            <path d="M836.897 136.999C837.316 136.999 837.656 136.656 837.656 136.232C837.656 135.808 837.316 135.465 836.897 135.465C836.478 135.465 836.138 135.808 836.138 136.232C836.138 136.656 836.478 136.999 836.897 136.999Z" fill="#88D1C3"/>
            <path d="M760.061 147.738C760.48 147.738 760.82 147.395 760.82 146.971C760.82 146.548 760.48 146.204 760.061 146.204C759.642 146.204 759.302 146.548 759.302 146.971C759.302 147.395 759.642 147.738 760.061 147.738Z" fill="#88D1C3"/>
            <path d="M782.306 111.923C783.145 111.923 783.824 111.236 783.824 110.389C783.824 109.541 783.145 108.854 782.306 108.854C781.468 108.854 780.788 109.541 780.788 110.389C780.788 111.236 781.468 111.923 782.306 111.923Z" fill="#88D1C3"/>
            <path d="M913.498 101.833C914.208 101.833 914.783 101.251 914.783 100.534C914.783 99.8175 914.208 99.2363 913.498 99.2363C912.789 99.2363 912.214 99.8175 912.214 100.534C912.214 101.251 912.789 101.833 913.498 101.833Z" fill="#88D1C3"/>
            <path d="M1008.55 115.227C1009.1 115.227 1009.54 114.778 1009.54 114.224C1009.54 113.67 1009.1 113.221 1008.55 113.221C1008 113.221 1007.56 113.67 1007.56 114.224C1007.56 114.778 1008 115.227 1008.55 115.227Z" fill="#88D1C3"/>
            <path d="M976.204 36.2189C976.978 36.2189 977.605 35.5849 977.605 34.8028C977.605 34.0207 976.978 33.3867 976.204 33.3867C975.43 33.3867 974.803 34.0207 974.803 34.8028C974.803 35.5849 975.43 36.2189 976.204 36.2189Z" fill="#88D1C3"/>
            <path d="M1070.96 136.528C1071.87 136.528 1072.6 135.788 1072.6 134.876C1072.6 133.963 1071.87 133.224 1070.96 133.224C1070.06 133.224 1069.33 133.963 1069.33 134.876C1069.33 135.788 1070.06 136.528 1070.96 136.528Z" fill="#88D1C3"/>
            <path d="M1059.11 66.0165C1059.95 66.0165 1060.63 65.3297 1060.63 64.4824C1060.63 63.6351 1059.95 62.9482 1059.11 62.9482C1058.27 62.9482 1057.59 63.6351 1057.59 64.4824C1057.59 65.3297 1058.27 66.0165 1059.11 66.0165Z" fill="#88D1C3"/>
            <path d="M1039.61 0.402664C1040.16 0.402664 1040.6 -0.0464336 1040.6 -0.600426C1040.6 -1.15442 1040.16 -1.60352 1039.61 -1.60352C1039.06 -1.60352 1038.62 -1.15442 1038.62 -0.600426C1038.62 -0.0464336 1039.06 0.402664 1039.61 0.402664Z" fill="#88D1C3"/>
            <g opacity="0.8">
                <path opacity="0.8" d="M287.957 106.081L288.074 105.373C286.439 105.078 285.038 104.193 284.045 102.836C283.111 101.479 282.702 99.8268 282.994 98.1747L282.293 98.0566C282.001 99.8858 282.41 101.774 283.461 103.249C284.57 104.783 286.147 105.786 287.957 106.081Z" fill="#4F457C"/>
                <path opacity="0.8" d="M288.249 104.311L288.366 103.603C287.198 103.426 286.205 102.777 285.505 101.774C284.804 100.771 284.571 99.5911 284.746 98.411L284.045 98.293C283.812 99.6501 284.104 101.066 284.921 102.187C285.738 103.367 286.906 104.075 288.249 104.311Z" fill="#4F457C"/>
                <path opacity="0.8" d="M288.541 102.541L288.658 101.833C287.957 101.715 287.373 101.302 286.964 100.771C286.556 100.181 286.381 99.4726 286.497 98.7645L285.797 98.6465C285.622 99.5316 285.855 100.417 286.381 101.184C286.906 101.892 287.665 102.423 288.541 102.541Z" fill="#4F457C"/>
                <path opacity="0.8" d="M289.825 100.24C290.176 100.004 290.351 99.6499 290.351 99.2959L297.474 100.417C297.882 100.476 298.233 100.417 298.525 100.24C300.451 98.8829 300.802 96.0507 299.634 93.4544L300.451 92.8644C301.386 93.8675 302.495 94.3985 303.137 93.9265L304.772 92.7464L305.764 94.2215L304.13 95.4016C303.721 95.6966 303.604 96.2867 303.896 96.6997L309.91 105.255C310.202 105.668 310.786 105.786 311.194 105.491L315.515 102.423C315.924 102.128 316.04 101.538 315.748 101.125L309.676 92.5104C309.384 92.0973 308.801 91.9793 308.392 92.2743L306.757 93.4544L305.764 91.9793L307.75 90.5632C308.158 90.2682 308.275 89.7371 308.158 89.0881C308.625 89.0881 309.151 89.0291 309.326 88.9111C310.202 88.262 310.027 86.5509 308.917 85.0167C307.808 83.4826 306.29 82.7155 305.414 83.3646C305.239 83.4826 305.005 84.0136 304.889 84.4267C304.305 84.0726 303.779 84.0137 303.371 84.3087L301.386 85.7248L300.276 84.1907L301.911 83.0106C302.32 82.7155 302.437 82.1255 302.145 81.7125L296.131 73.1567C295.839 72.7437 295.255 72.6257 294.846 72.9207L290.526 75.989C290.117 76.284 290 76.8741 290.292 77.2871L296.306 85.8428C296.598 86.2558 297.182 86.3738 297.591 86.0788L299.225 84.8987L300.335 86.4329L298.7 87.613C297.999 88.085 298.174 89.3241 298.817 90.5632L297.999 91.1532C296.014 89.1471 293.212 88.616 291.285 89.9732C290.993 90.2092 290.818 90.5042 290.759 90.9172L289.475 98.0568C289.125 97.9388 288.716 97.9978 288.424 98.2338C287.84 98.6469 287.723 99.4139 288.132 100.004C288.541 100.594 289.3 100.594 289.825 100.24ZM290.584 98.5879L293.095 96.7587C293.795 97.7618 294.671 98.6469 295.489 99.3549L290.584 98.5879ZM292.686 96.1687L290.176 97.9978L291.051 93.0414C291.46 94.0445 292.044 95.1656 292.686 96.1687Z" fill="#4F457C"/>
            </g>
            <g opacity="0.8">
                <path opacity="0.8" d="M871.169 22.2354L871.11 23.0614C873.095 23.2384 874.847 24.2415 876.131 25.7756C877.358 27.3098 877.941 29.2569 877.766 31.2631L878.584 31.3221C878.817 29.0799 878.175 26.8967 876.774 25.1856C875.372 23.5335 873.387 22.4124 871.169 22.2354Z" fill="#4F457C"/>
                <path opacity="0.8" d="M870.994 24.3594L870.935 25.1854C872.336 25.3035 873.621 26.0115 874.497 27.1326C875.372 28.2537 875.781 29.6108 875.664 31.0859L876.482 31.1449C876.657 29.4928 876.19 27.8997 875.139 26.6016C874.088 25.3034 872.628 24.5364 870.994 24.3594Z" fill="#4F457C"/>
                <path opacity="0.8" d="M870.76 26.4834L870.702 27.3095C871.519 27.3685 872.336 27.7815 872.862 28.4896C873.387 29.1386 873.621 29.9647 873.562 30.8498L874.38 30.9088C874.497 29.8467 874.146 28.7846 873.504 27.8995C872.803 27.1324 871.811 26.6014 870.76 26.4834Z" fill="#4F457C"/>
                <path opacity="0.8" d="M869.417 29.3749C869.067 29.6699 868.892 30.083 868.892 30.555L860.543 29.6109C860.484 29.6109 860.426 29.6109 860.367 29.6109C859.959 29.6109 859.608 29.7879 859.375 30.083C857.39 32.3251 857.039 35.6884 858.324 38.3436L856.047 40.2318L854.879 38.7567C854.529 38.2846 853.828 38.2256 853.361 38.5797L850.617 40.8218L849.041 38.8747L850.909 37.3406C851.376 36.9275 851.434 36.2785 851.084 35.8064L843.202 26.0706C842.793 25.5986 842.151 25.5396 841.684 25.8936L836.78 29.9059C836.313 30.319 836.254 30.968 836.605 31.4401L844.487 41.1759C844.895 41.6479 845.538 41.7069 846.005 41.3529L847.873 39.8188L849.449 41.7659L846.939 43.8311C846.472 44.1851 846.413 44.8932 846.764 45.3652L846.939 45.6012L845.012 46.1913C844.72 46.3093 844.487 46.4863 844.37 46.8404C844.253 47.1354 844.37 47.4894 844.545 47.7254L848.749 52.9179C848.924 53.1539 849.274 53.2719 849.566 53.2719C849.741 53.2719 849.916 53.1539 850.033 53.0949C850.15 53.0359 850.208 52.9179 850.267 52.7999L851.201 50.9707L851.259 51.0887C851.61 51.5607 852.31 51.6198 852.777 51.2657L855.288 49.2006L856.923 51.2067L855.054 52.7408C854.587 53.1539 854.529 53.8029 854.879 54.275L862.761 64.0108C863.17 64.4828 863.812 64.5418 864.279 64.1878L869.184 60.1755C869.651 59.7624 869.709 59.1134 869.359 58.6413L861.477 48.9055C861.068 48.4335 860.426 48.3745 859.959 48.7285L858.09 50.2626L856.456 48.2565L859.2 46.0143C859.667 45.6603 859.725 44.9522 859.375 44.4802L858.149 42.946L860.426 41.0579C862.761 42.887 866.089 43.241 868.658 41.7069C868.717 41.6479 868.775 41.6479 868.833 41.5889C869.067 41.4119 869.242 41.1169 869.3 40.7628C869.3 40.7038 869.3 40.6448 869.3 40.5858L870.059 32.0891C870.468 32.1481 870.935 32.0891 871.286 31.7941C871.928 31.2631 871.986 30.319 871.519 29.6699C871.052 29.0209 870.059 28.8439 869.417 29.3749ZM861.769 30.614L868.658 31.3811L864.922 34.4493L861.769 30.614ZM865.447 35.1574L869.184 32.0891L868.6 39.0517L865.447 35.1574Z" fill="#4F457C"/>
            </g>
        </g>
        <path d="M308.884 85.5127H305.442L300.659 223.238H317.109L312.267 85.5127H308.884Z" fill="#444491"/>
        <path d="M284.267 85.5127C284.267 99.1044 295.292 110.129 308.884 110.129C322.475 110.129 333.5 99.1044 333.5 85.5127H284.267Z" fill="#444491"/>
        <path d="M340.792 87.904H276.917C275.05 87.904 273.534 86.3874 273.534 84.5207V84.229C273.534 82.3624 275.05 80.8457 276.917 80.8457H340.792C342.659 80.8457 344.175 82.3624 344.175 84.229V84.5207C344.175 86.3874 342.659 87.904 340.792 87.904Z" fill="#444491"/>
        <path d="M321.192 124.77H296.575C294.883 124.77 293.483 123.37 293.483 121.679C293.483 119.987 294.883 118.587 296.575 118.587H321.192C322.883 118.587 324.283 119.987 324.283 121.679C324.283 123.37 322.883 124.77 321.192 124.77Z" fill="#444491"/>
        <path d="M304.45 155.104H286.659V219.679H304.45V155.104Z" fill="#444491"/>
        <path d="M193.675 61.5957C179.034 61.5957 167.192 117.712 167.192 187.012H220.159C220.159 117.712 208.259 61.5957 193.675 61.5957Z" fill="#444491"/>
        <path d="M613.734 148.046L607.434 153.821C603.992 156.971 602.067 161.404 602.067 166.071V275.738H646.284V187.188C646.284 181.704 643.542 176.513 638.992 173.479L632.342 168.988V102.779H623.534C618.05 102.779 613.675 107.213 613.675 112.638L613.734 148.046Z" fill="#444491"/>
        <path d="M772.342 100.854H723.867C721.417 100.854 719.317 102.72 719.259 105.17C719.2 107.678 721.184 109.72 723.692 109.72H737.867C740.784 109.72 743.175 112.112 743.175 115.029V118.003C743.175 120.92 740.784 123.312 737.867 123.312H729.7C727.25 123.312 725.15 125.179 725.092 127.629C725.034 130.137 727.017 132.179 729.525 132.179H737.867C740.784 132.179 743.175 134.57 743.175 137.487V228.545V250.945H752.917V228.545V137.37C752.917 134.454 755.309 132.062 758.225 132.062H766.392C768.842 132.062 770.942 130.195 771 127.745C771.059 125.237 769.075 123.195 766.567 123.195H758.225C755.309 123.195 752.917 120.804 752.917 117.887V114.912C752.917 111.995 755.309 109.604 758.225 109.604H772.225C774.675 109.604 776.775 107.737 776.834 105.287C776.834 102.895 774.85 100.854 772.342 100.854Z" fill="#444491"/>
        <path d="M728.65 157.671H697.85V262.146H728.65V157.671Z" fill="#444491"/>
        <path d="M709.75 135.621H690.675V240.096H709.75V135.621Z" fill="#444491"/>
        <path d="M993.017 157.029H964.9V235.138H993.017V157.029Z" fill="#444491"/>
        <path d="M1000.25 95.4873H985.784V231.054H1000.25V95.4873Z" fill="#444491"/>
        <path d="M1017.93 124.537H995.175V217.404H1017.93V124.537Z" fill="#444491"/>
        <path d="M1068.27 65.0957C1054.5 65.0957 1043.36 89.479 1043.36 119.579C1043.36 149.679 1054.5 174.062 1068.27 174.062" fill="#444491"/>
        <path d="M1082.33 87.5537H1066.17V170.329H1082.33V87.5537Z" fill="#444491"/>
        <path d="M408.284 129.846V237.121H437.625V159.129C437.625 142.971 424.5 129.846 408.284 129.846Z" fill="#444491"/>
        <path opacity="0.7" d="M1158.16 199.496V141.571H1108.28V174.937L1092.18 163.271H1082.33V87.554H1068.27V65.0957C1054.5 65.0957 1043.36 89.479 1043.36 119.579C1043.36 137.429 1047.27 153.296 1053.33 163.271H1017.87V124.537H1000.13V95.4874H985.783V157.029H964.9V207.371H912.575V227.087H854.008V209.937H830.85V166.187H824.958L813.642 196.112H796.9V237.121H752.858V228.429V137.371C752.858 134.454 755.25 132.062 758.167 132.062H766.333C768.783 132.062 770.883 130.196 770.942 127.746C771 125.237 769.017 123.196 766.508 123.196H758.167C755.25 123.196 752.858 120.804 752.858 117.887V114.912C752.858 111.996 755.25 109.604 758.167 109.604H772.167C774.617 109.604 776.717 107.737 776.775 105.287C776.833 102.779 774.85 100.737 772.342 100.737H723.867C721.417 100.737 719.317 102.604 719.258 105.054C719.2 107.562 721.183 109.604 723.692 109.604H737.867C740.783 109.604 743.175 111.996 743.175 114.912V117.887C743.175 120.804 740.783 123.196 737.867 123.196H729.7C727.25 123.196 725.15 125.062 725.092 127.512C725.033 130.021 727.017 132.062 729.525 132.062H737.867C740.783 132.062 743.175 134.454 743.175 137.371V228.429V237.121H728.708V157.671H709.808V135.621H690.733V185.729H680.117V242.312L663.608 265.471H646.283V187.187C646.283 181.704 643.542 176.512 638.992 173.479L632.342 168.987V102.779H623.533C618.05 102.779 613.675 107.212 613.675 112.637L613.733 147.987L607.433 153.762C603.992 156.912 602.067 161.346 602.067 166.012V265.412H585.267L573.95 257.071H523.258L495.2 231.929H448.942V215.246H437.683V159.187C437.683 142.971 424.558 129.846 408.342 129.846V166.187H393.175V215.246H357.883V203.287H316.408L313.667 124.829H321.192C322.883 124.829 324.283 123.429 324.283 121.737C324.283 120.046 322.883 118.646 321.192 118.646H313.433L313.142 109.779C323.933 107.912 332.275 98.9873 333.383 87.9623H340.85C342.717 87.9623 344.233 86.4457 344.233 84.579V84.2873C344.233 82.4207 342.717 80.904 340.85 80.904H276.917C275.05 80.904 273.533 82.4207 273.533 84.2873V84.579C273.533 86.4457 275.05 87.9623 276.917 87.9623H284.383C285.433 98.9873 293.833 107.912 304.625 109.779L304.333 118.646H296.575C294.883 118.646 293.483 120.046 293.483 121.737C293.483 123.429 294.883 124.829 296.575 124.829H304.1L303.05 155.104H286.658V203.287H262.275L238.942 181.121H220.1C219.458 114.621 207.85 61.5957 193.675 61.5957C179.5 61.5957 167.892 114.562 167.25 181.121H64L64.1167 313.654H1184.12V199.496H1158.16Z" fill="url(#paint11_linear_1895_3351)"/>
        <path d="M327.755 49.3859C332.087 48.9962 335.353 45.9489 335.05 42.5797C334.747 39.2105 330.989 36.7952 326.657 37.1849C322.326 37.5747 319.06 40.6219 319.363 43.9911C319.666 47.3603 323.423 49.7757 327.755 49.3859Z" fill="#444491"/>
        <path d="M337.536 41.8937L331.145 42.4688L331.228 43.3984L337.619 42.8233L337.536 41.8937Z" fill="#444491"/>
        <path d="M339.1 43.7462C339.938 43.7462 340.617 43.0672 340.617 42.2296C340.617 41.3919 339.938 40.7129 339.1 40.7129C338.263 40.7129 337.583 41.3919 337.583 42.2296C337.583 43.0672 338.263 43.7462 339.1 43.7462Z" fill="#444491"/>
        <path d="M319.325 43.9792L315.242 36.1625C315.242 36.1625 321.133 35.1708 323.933 38.0875L319.325 43.9792Z" fill="#444491"/>
        <path d="M319.325 43.9795L316.758 52.4378C316.758 52.4378 322.708 52.3794 324.925 48.9961L319.325 43.9795Z" fill="#444491"/>
        <g opacity="0.3">
            <path opacity="0.3" d="M313.375 46.3124C305.383 47.1291 297.333 48.2957 289.342 49.6374C281.35 51.0374 273.417 52.6707 265.483 54.4791L259.592 55.9374L253.7 57.5707C252.708 57.8624 251.717 58.0957 250.783 58.3874L247.867 59.2624L244.95 60.1374C243.958 60.4291 243.025 60.7207 242.033 61.0707L236.258 62.9957C235.267 63.2874 234.333 63.6957 233.4 64.0457L230.542 65.0957L227.683 66.1457C226.75 66.4957 225.817 66.9041 224.883 67.3124L219.283 69.704L224.825 67.1374C225.758 66.7291 226.633 66.2624 227.625 65.8541L230.425 64.6874L233.225 63.5207C234.158 63.1124 235.092 62.7624 236.083 62.4124L241.8 60.3124C242.733 59.9624 243.725 59.6124 244.658 59.3207L247.575 58.329L250.492 57.3374C251.483 56.9874 252.417 56.754 253.408 56.4624L259.242 54.7124L265.133 53.079C273.008 50.979 280.942 49.1124 288.933 47.4791C296.925 45.8457 304.917 44.4457 313.083 43.3957C313.9 43.2791 314.6 43.8624 314.717 44.6791C314.833 45.4957 314.25 46.1957 313.433 46.3124C313.433 46.3124 313.433 46.3124 313.375 46.3124Z" fill="url(#paint12_linear_1895_3351)"/>
        </g>
        <path d="M151.967 238.358C151.967 286.25 172.092 325.041 196.942 325.041V151.616C172.092 151.616 151.967 190.466 151.967 238.358Z" fill="#2B2B60"/>
        <path d="M430.275 130.208C452.117 130.208 469.825 112.501 469.825 90.6584C469.825 68.8155 452.117 51.1084 430.275 51.1084C408.432 51.1084 390.725 68.8155 390.725 90.6584C390.725 112.501 408.432 130.208 430.275 130.208Z" fill="#2B2B60"/>
        <path d="M494.033 95.5588H366.458C363.775 95.5588 361.558 93.3421 361.558 90.6588C361.558 87.9754 363.775 85.7588 366.458 85.7588H494.033C496.716 85.7588 498.933 87.9754 498.933 90.6588C498.933 93.4004 496.775 95.5588 494.033 95.5588Z" fill="#2B2B60"/>
        <path d="M433.016 37.6338H427.475V75.6671H433.016V37.6338Z" fill="#2B2B60"/>
        <path d="M430.275 39.7333C435.172 39.7333 439.141 35.7636 439.141 30.8667C439.141 25.9698 435.172 22 430.275 22C425.378 22 421.408 25.9698 421.408 30.8667C421.408 35.7636 425.378 39.7333 430.275 39.7333Z" fill="#2B2B60"/>
        <path d="M439.608 125.309C439.608 123.909 430.275 125.309 430.275 125.309C430.275 125.309 420.942 123.909 420.942 125.309C420.942 228.267 397.783 310.809 397.783 310.809H430.275H462.766C462.766 310.867 439.608 228.267 439.608 125.309Z" fill="#2B2B60"/>
        <path d="M430.275 149.283V139.6H427.533C427.533 142.633 427.475 145.841 427.358 149.283H430.275Z" fill="#2F2F66"/>
        <path d="M427.125 154.066C427.008 156.925 426.833 159.9 426.658 162.933H430.217V154.066H427.125Z" fill="#2F2F66"/>
        <path d="M423.333 55.5996C408.517 58.5163 396.967 70.6496 394.867 85.7579H406.942C406.942 85.7579 409.217 66.5079 423.333 55.5996Z" fill="#2F2F66"/>
        <path d="M423.333 125.716C408.517 122.799 396.967 110.666 394.867 95.5576H406.942C406.942 95.5576 409.217 114.808 423.333 125.716Z" fill="#2F2F66"/>
        <path d="M410.208 85.758H429.05V54.958H428.992C428.058 55.483 414.408 63.708 410.208 85.758Z" fill="#2F2F66"/>
        <path d="M65.4 232.116L59.5083 187.666L45.275 179.266V101.975L30.8667 109.5L25.675 145.666H16.4L12.4333 161.183H1V242.675L65.4 232.116Z" fill="#2B2B60"/>
    </g>
    <defs>
        <linearGradient id="paint0_linear_1895_3351" x1="560.51" y1="206.979" x2="560.51" y2="32.6593" gradientUnits="userSpaceOnUse">
            <stop stop-color="#88D1C3" stop-opacity="0.5"/>
            <stop offset="1" stop-color="#50508E" stop-opacity="0"/>
        </linearGradient>
        <linearGradient id="paint1_linear_1895_3351" x1="462.844" y1="-16.3526" x2="601.005" y2="177.043" gradientUnits="userSpaceOnUse">
            <stop stop-color="#7FFFE0" stop-opacity="0.5"/>
            <stop offset="0.1177" stop-color="#7DF9DD" stop-opacity="0.4412"/>
            <stop offset="0.2768" stop-color="#79E8D5" stop-opacity="0.3616"/>
            <stop offset="0.4597" stop-color="#71CBC8" stop-opacity="0.2702"/>
            <stop offset="0.6603" stop-color="#66A4B5" stop-opacity="0.1699"/>
            <stop offset="0.8728" stop-color="#59729E" stop-opacity="0.0636007"/>
            <stop offset="1" stop-color="#50508E" stop-opacity="0"/>
        </linearGradient>
        <linearGradient id="paint2_linear_1895_3351" x1="207.695" y1="307.546" x2="207.695" y2="-72.8162" gradientUnits="userSpaceOnUse">
            <stop stop-color="#7FFFE0" stop-opacity="0.5"/>
            <stop offset="0.1177" stop-color="#7DF9DD" stop-opacity="0.4412"/>
            <stop offset="0.2768" stop-color="#79E8D5" stop-opacity="0.3616"/>
            <stop offset="0.4597" stop-color="#71CBC8" stop-opacity="0.2702"/>
            <stop offset="0.6603" stop-color="#66A4B5" stop-opacity="0.1699"/>
            <stop offset="0.8728" stop-color="#59729E" stop-opacity="0.0636007"/>
            <stop offset="1" stop-color="#50508E" stop-opacity="0"/>
        </linearGradient>
        <linearGradient id="paint3_linear_1895_3351" x1="560.5" y1="578.665" x2="560.5" y2="-240.308" gradientUnits="userSpaceOnUse">
            <stop stop-color="#7FFFE0" stop-opacity="0.5"/>
            <stop offset="0.1177" stop-color="#7DF9DD" stop-opacity="0.4412"/>
            <stop offset="0.2768" stop-color="#79E8D5" stop-opacity="0.3616"/>
            <stop offset="0.4597" stop-color="#71CBC8" stop-opacity="0.2702"/>
            <stop offset="0.6603" stop-color="#66A4B5" stop-opacity="0.1699"/>
            <stop offset="0.8728" stop-color="#59729E" stop-opacity="0.0636007"/>
            <stop offset="1" stop-color="#50508E" stop-opacity="0"/>
        </linearGradient>
        <linearGradient id="paint4_linear_1895_3351" x1="789.153" y1="307.546" x2="789.153" y2="-72.8157" gradientUnits="userSpaceOnUse">
            <stop stop-color="#7FFFE0" stop-opacity="0.5"/>
            <stop offset="0.1177" stop-color="#7DF9DD" stop-opacity="0.4412"/>
            <stop offset="0.2768" stop-color="#79E8D5" stop-opacity="0.3616"/>
            <stop offset="0.4597" stop-color="#71CBC8" stop-opacity="0.2702"/>
            <stop offset="0.6603" stop-color="#66A4B5" stop-opacity="0.1699"/>
            <stop offset="0.8728" stop-color="#59729E" stop-opacity="0.0636007"/>
            <stop offset="1" stop-color="#50508E" stop-opacity="0"/>
        </linearGradient>
        <linearGradient id="paint5_linear_1895_3351" x1="414.245" y1="207.899" x2="560.162" y2="124.926" gradientUnits="userSpaceOnUse">
            <stop stop-color="#7FFFE0" stop-opacity="0.5"/>
            <stop offset="0.1177" stop-color="#7DF9DD" stop-opacity="0.4412"/>
            <stop offset="0.2768" stop-color="#79E8D5" stop-opacity="0.3616"/>
            <stop offset="0.4597" stop-color="#71CBC8" stop-opacity="0.2702"/>
            <stop offset="0.6603" stop-color="#66A4B5" stop-opacity="0.1699"/>
            <stop offset="0.8728" stop-color="#59729E" stop-opacity="0.0636007"/>
            <stop offset="1" stop-color="#50508E" stop-opacity="0"/>
        </linearGradient>
        <linearGradient id="paint6_linear_1895_3351" x1="467.6" y1="15.843" x2="502.643" y2="23.2455" gradientUnits="userSpaceOnUse">
            <stop stop-color="#50508E" stop-opacity="0.7"/>
            <stop offset="1" stop-color="#50508E" stop-opacity="0"/>
        </linearGradient>
        <linearGradient id="paint7_linear_1895_3351" x1="436.136" y1="53.3912" x2="444.975" y2="52.4329" gradientUnits="userSpaceOnUse">
            <stop stop-color="#50508E" stop-opacity="0.7"/>
            <stop offset="1" stop-color="#50508E" stop-opacity="0"/>
        </linearGradient>
        <linearGradient id="paint8_linear_1895_3351" x1="522.185" y1="21.4712" x2="529.614" y2="20.9801" gradientUnits="userSpaceOnUse">
            <stop stop-color="#50508E" stop-opacity="0.7"/>
            <stop offset="1" stop-color="#50508E" stop-opacity="0"/>
        </linearGradient>
        <linearGradient id="paint9_linear_1895_3351" x1="472.74" y1="70.6934" x2="491.421" y2="76.2988" gradientUnits="userSpaceOnUse">
            <stop stop-color="#50508E" stop-opacity="0.7"/>
            <stop offset="1" stop-color="#50508E" stop-opacity="0"/>
        </linearGradient>
        <linearGradient id="paint10_linear_1895_3351" x1="986.154" y1="-4.07838" x2="997.064" y2="10.1043" gradientUnits="userSpaceOnUse">
            <stop stop-color="#7FFFE0" stop-opacity="0.5"/>
            <stop offset="0.1177" stop-color="#7DF9DD" stop-opacity="0.4412"/>
            <stop offset="0.2768" stop-color="#79E8D5" stop-opacity="0.3616"/>
            <stop offset="0.4597" stop-color="#71CBC8" stop-opacity="0.2702"/>
            <stop offset="0.6603" stop-color="#66A4B5" stop-opacity="0.1699"/>
            <stop offset="0.8728" stop-color="#59729E" stop-opacity="0.0636007"/>
            <stop offset="1" stop-color="#50508E" stop-opacity="0"/>
        </linearGradient>
        <linearGradient id="paint11_linear_1895_3351" x1="624.051" y1="283.157" x2="624.052" y2="148.105" gradientUnits="userSpaceOnUse">
            <stop stop-color="#7FFFE0" stop-opacity="0.2"/>
            <stop offset="0.1148" stop-color="#7DF9DE" stop-opacity="0.177"/>
            <stop offset="0.27" stop-color="#78E8D7" stop-opacity="0.146"/>
            <stop offset="0.4484" stop-color="#70CBCC" stop-opacity="0.1103"/>
            <stop offset="0.644" stop-color="#64A4BD" stop-opacity="0.0712009"/>
            <stop offset="0.8512" stop-color="#5572AA" stop-opacity="0.0297653"/>
            <stop offset="1" stop-color="#49499B" stop-opacity="0"/>
        </linearGradient>
        <linearGradient id="paint12_linear_1895_3351" x1="217.825" y1="56.5938" x2="314.695" y2="56.5938" gradientUnits="userSpaceOnUse">
            <stop stop-color="#50508E" stop-opacity="0"/>
            <stop offset="0.2624" stop-color="#5B7AA2" stop-opacity="0.1312"/>
            <stop offset="0.8509" stop-color="#78E3D3" stop-opacity="0.4255"/>
            <stop offset="1" stop-color="#7FFFE0" stop-opacity="0.5"/>
        </linearGradient>
        <clipPath id="clip0_1895_3351">
            <rect width="1071" height="161" rx="20" fill="white"/>
        </clipPath>
        <clipPath id="clip1_1895_3351">
            <rect width="1121" height="637.253" fill="white" transform="translate(0 -150)"/>
        </clipPath>
    </defs>
</svg>
