<svg width="154" height="68" viewBox="0 0 154 68" fill="none" xmlns="http://www.w3.org/2000/svg">
<g clip-path="url(#clip0)">
<path d="M104.469 25.197L115.071 6.58927C105.645 4.52682 89.5552 3.54292 78.4449 8.25831" fill="#D18888"/>
<path d="M61.5367 64.5831C38.2306 63.3461 20.1375 53.1602 21.1248 41.8321C22.1119 30.5041 41.8058 22.3237 65.1119 23.5607C88.4179 24.7977 106.511 34.9838 105.524 46.3117C104.536 57.6398 84.8427 65.8201 61.5367 64.5831Z" fill="#7996C9"/>
<path d="M62.6384 51.8938C39.3324 50.6568 21.2395 40.4707 22.2266 29.1428C23.2139 17.8147 42.9074 9.63414 66.2135 10.8712C89.5196 12.1082 107.613 22.2941 106.625 33.6222C105.638 44.9503 85.9445 53.1308 62.6384 51.8938Z" fill="white"/>
<path d="M67.6657 46.3924C46.8584 45.2881 30.589 37.5274 31.3271 29.0586C32.0652 20.5897 49.531 14.6195 70.3384 15.7238C91.1455 16.8282 107.415 24.5889 106.677 33.0577C105.939 41.5266 88.4729 47.4968 67.6657 46.3924Z" fill="#D18888"/>
<path d="M36.1002 45.8198L35.1075 57.1646C35.1075 57.1646 31.8158 56.5231 30.1722 55.2902C28.5289 54.0572 21.6923 49.3956 22.1327 43.3708C22.5732 37.3463 23.0107 35.3515 25.1167 37.619C27.2223 39.8865 36.1002 45.8198 36.1002 45.8198Z" fill="white"/>
<path d="M88.2684 49.151C94.4625 47.294 96.9011 45.8413 100.117 43.2302C103.333 40.6194 103.585 42.1512 106.779 43.5846C109.973 45.0176 124.776 60.7484 124.776 60.7484C124.776 60.7484 117.404 65.2399 106.323 64.6523C95.2425 64.0646 67.6621 60.3148 65.66 55.6383C63.658 50.9618 67.1105 53.6807 73.4178 52.4768C79.725 51.2733 88.2684 49.151 88.2684 49.151Z" fill="#D18888"/>
<path d="M113.289 8.04027C101.931 7.79037 89.5782 8.41523 84.3767 12.5009C84.3767 12.5009 78.7674 8.75881 79.5455 7.8074C80.3233 6.85611 105.416 4.91159 110.865 5.80118C116.315 6.69103 113.289 8.04027 113.289 8.04027Z" fill="white"/>
<path d="M94.4584 28.2413C100.902 26.9508 106.627 26.3549 110.988 26.394C115.349 26.4331 117.073 26.4171 117.651 28.1091C118.229 29.8009 118.695 41.2032 117.219 43.2591C115.743 45.315 111.876 45.2528 109.545 43.2469C107.214 41.2409 106.56 39.9 101.282 37.7425C96.0034 35.585 86.5304 31.5819 94.4584 28.2413Z" fill="#D18888"/>
<path d="M117.466 30.4918C109.908 29.9913 102.28 30.5939 94.8341 32.2793L98.9405 35.1954L118.507 36.2295L117.466 30.4918Z" fill="white"/>
<path d="M121.796 59.4842C114.587 60.2423 93.704 62.3148 75.5018 53.6112C75.5018 53.6112 65.1948 52.3225 64.0751 53.0053C62.9555 53.6881 77.4586 62.4901 92.1347 63.1866C106.81 63.8832 125.885 63.2288 121.796 59.4842Z" fill="white"/>
<path d="M41.27 27.6095C40.1238 40.7549 88.7756 43.337 89.9026 30.2061C90.2322 24.0229 88.0899 18.0308 83.9283 13.4953C79.7667 8.95971 73.9113 6.23581 67.5992 5.89883C61.2866 5.56172 55.0115 7.63804 50.0987 11.689C45.1859 15.7402 42.02 21.4488 41.27 27.6095Z" fill="#D18888"/>
<path fill-rule="evenodd" clip-rule="evenodd" d="M20.8256 33.8403L21.2461 29.0807C22.0877 20.3502 32.2592 13.1925 47.8734 10.2988C51.9796 6.51141 57.1709 4.0565 62.7008 3.28724C68.2306 2.51799 73.8138 3.47421 78.6473 6.01827C89.701 1.70508 104.809 2.39317 114.602 4.36333C115.024 4.44992 115.418 4.63134 115.751 4.89367C116.085 5.15588 116.349 5.49192 116.523 5.87553C116.698 6.26823 116.777 6.69808 116.754 7.13132C116.731 7.56457 116.606 7.99007 116.39 8.37462L107.86 23.3654C110.335 23.242 112.811 23.2506 115.277 23.3913C120.141 23.6511 121.55 32.6702 121.003 38.9947C120.583 43.7544 119.356 47.6373 117.593 50.066L125.293 58.2341C125.641 58.6055 125.883 59.0614 125.994 59.5573C126.106 60.0535 126.083 60.5735 125.929 61.0667C125.775 61.56 125.495 62.0101 125.115 62.3735C124.735 62.7371 124.268 63.0014 123.76 63.1416C116.607 65.1474 100.677 67.6085 85.0013 64.8842L85.0192 64.9209C77.5434 66.5983 69.8923 67.2248 62.3008 66.7806C37.5424 65.4602 18.9905 54.5941 20.1049 42.0209L20.4653 37.8824L20.8256 33.8403ZM35.4191 42.6338C28.5119 38.7555 24.9297 34.0653 25.3325 29.4203C25.8461 23.5675 32.7777 18.3346 43.4528 15.4357C41.044 19.0831 39.5907 23.2334 39.2254 27.5078C38.5108 35.7108 51.446 40.1004 64.5731 40.7832C72.5013 41.1979 80.5938 40.2874 85.9168 37.6913C87.6565 36.8992 89.1926 35.7218 90.3984 34.2553L101.787 40.3406C95.002 46.8991 79.9417 50.7879 63.7647 49.9275C52.8207 49.329 42.7672 46.7577 35.4191 42.6338ZM51.1758 12.6735C55.7064 8.81052 61.5681 6.81526 67.4724 7.12645C71.7888 7.36042 75.9043 8.81585 79.318 11.3157C82.7321 13.8157 85.2979 17.2527 86.7035 21.2088C84.7472 17.2189 81.4768 14.0108 77.3994 12.0822C73.3216 10.1535 68.6644 9.61192 64.1494 10.5412C59.6343 11.4703 55.5133 13.8188 52.4252 17.2221C49.3371 20.6255 47.4542 24.8937 47.0684 29.3661C46.9321 30.9103 47.6252 32.2777 48.8855 33.4696C46.6042 32.472 43.0724 30.4749 43.3111 27.7269C43.816 21.9508 46.6447 16.5362 51.1758 12.6735ZM82.8024 8.83996C91.6025 6.28392 103.058 6.49617 111.881 8.03327L104.044 21.7901C99.9976 17.9283 93.9081 14.6584 86.372 12.3825C85.3059 11.0884 84.1103 9.90201 82.8024 8.83996ZM92.8767 26.6901C92.7317 26.7431 92.5861 26.7928 92.4406 26.8422C92.4222 26.8482 92.404 26.8545 92.3858 26.8608C92.2584 26.9043 92.131 26.9477 92.0041 26.9942L92.0254 26.9838C91.8877 23.8413 91.1563 20.7685 89.8675 17.9199C94.3054 19.7026 98.0211 21.8937 100.703 24.3055C98.0399 24.8994 95.4233 25.6969 92.8767 26.6901ZM116.829 38.7884C116.812 39.0342 116.782 39.2562 116.751 39.4771C116.733 39.6047 116.716 39.7319 116.701 39.8633L116.718 39.855C116.105 41.7278 114.613 42.2733 113.151 42.1872L109.904 42.0044L107.484 39.4395C106.554 38.4616 105.468 37.6372 104.266 36.996L92.8775 30.9107C93.0699 30.8426 93.2634 30.7772 93.457 30.7115C93.7151 30.624 93.9732 30.5365 94.2288 30.4437C99.0325 28.6827 104.002 26.8615 114.867 27.4378C115.62 27.8498 117.398 32.2509 116.829 38.7884ZM120.971 59.7245L120.974 59.7282L120.991 59.7198C120.984 59.7213 120.978 59.7229 120.971 59.7245L105.02 42.7823C102.694 45.0564 99.9923 46.9291 97.0352 48.3163C89.2976 52.0901 78.6535 54.1893 67.1327 54.0594C84.4756 65.1489 109.932 62.3943 120.971 59.7245ZM75.334 62.451C75.339 62.4528 75.3441 62.4545 75.3491 62.4562L75.366 62.448C75.3553 62.449 75.3445 62.4501 75.334 62.451C73.029 61.679 70.7882 60.7467 68.6282 59.6612L68.3464 62.8603C70.7291 62.8265 73.0585 62.6834 75.334 62.451ZM65.4579 62.8623C64.5193 62.8442 63.5751 62.8105 62.6245 62.7612L62.6417 62.7529C62.1238 62.7247 61.6124 62.6823 61.0998 62.6393C60.8365 62.6175 60.573 62.5955 60.3079 62.5755L60.9902 54.7274C62.5295 55.9824 64.1595 57.1285 65.8684 58.1577L65.4579 62.8623ZM57.4318 62.2884L57.4306 62.2986L57.4478 62.2902C57.4424 62.2896 57.437 62.2891 57.4318 62.2884L58.1964 53.509C56.459 53.3138 54.7517 53.072 53.0742 52.7835L52.3161 61.5338C53.9879 61.8352 55.6931 62.0867 57.4318 62.2884ZM49.4707 60.9416L49.4698 60.9536L49.4867 60.9453C49.4816 60.944 49.4761 60.9428 49.4707 60.9416L50.2314 52.2315C48.4773 51.8726 46.7962 51.4578 45.1563 50.9872L44.4009 59.6353C46.0373 60.1186 47.7337 60.5528 49.4707 60.9416ZM41.6036 58.6882L41.601 58.7185L41.6081 58.6895L41.6036 58.6882L42.3486 50.1299C40.5985 49.5411 38.9341 48.8803 37.3381 48.1758L36.5998 56.6331C38.2271 57.4042 39.8974 58.0903 41.6036 58.6882ZM33.836 55.1377L33.8331 55.1688L33.8403 55.1401L33.836 55.1377L34.5614 46.8426C34.4018 46.7593 34.2396 46.6779 34.0774 46.5964C33.8021 46.4583 33.5273 46.3206 33.267 46.1735C32.0098 45.4613 30.7972 44.6791 29.6348 43.8305L28.9495 51.7056C30.4504 53.0109 32.0875 54.161 33.836 55.1377ZM26.3105 48.7795L26.3075 48.8138L26.3144 48.7849L26.3105 48.7795L26.9211 41.6014C26.0377 40.7869 25.2213 39.9062 24.4785 38.9667L24.1923 42.254C24.022 44.4813 24.8012 46.6844 26.3105 48.7795Z" fill="#4F457C"/>
<path d="M3.09663 31.0627C2.08457 32.0976 1.472 33.4393 1.36856 34.8473L1.38123 34.8514C1.25224 36.2493 1.63308 37.6316 2.45643 38.7533C3.27953 39.8751 4.49208 40.6638 5.87919 40.9802C7.26617 41.2964 8.73835 41.1196 10.0347 40.4812C11.3313 39.8427 12.3687 38.7838 12.9633 37.4918L20.6473 37.8738L20.9751 33.8537L13.3192 33.4519C12.9637 32.0976 12.1219 30.9256 10.9442 30.1463C9.76656 29.367 8.33014 29.0314 6.892 29.1993C5.45424 29.3674 4.10868 30.0278 3.09663 31.0627Z" fill="#7996C9"/>
</g>
<defs>
<clipPath id="clip0">
<rect width="154" height="68" fill="white" transform="matrix(-1 0 0 1 154 0)"/>
</clipPath>
</defs>
</svg>
