<svg width="154" height="68" viewBox="0 0 154 68" fill="none" xmlns="http://www.w3.org/2000/svg">
<g clip-path="url(#clip0)">
<path d="M49.5313 25.197L38.9287 6.58927C48.3552 4.52682 64.4448 3.54292 75.5551 8.25831" fill="#88D1C3"/>
<path d="M92.4633 64.5831C115.769 63.3461 133.863 53.1602 132.875 41.8321C131.888 30.5041 112.194 22.3237 88.8881 23.5607C65.5821 24.7977 47.4892 34.9838 48.4763 46.3117C49.4636 57.6398 69.1573 65.8201 92.4633 64.5831Z" fill="#7996C9"/>
<path d="M91.3616 51.8938C114.668 50.6568 132.761 40.4707 131.773 29.1428C130.786 17.8147 111.093 9.63414 87.7865 10.8712C64.4804 12.1082 46.3873 22.2941 47.3746 33.6222C48.362 44.9503 68.0555 53.1308 91.3616 51.8938Z" fill="white"/>
<path d="M86.3343 46.3924C107.142 45.2881 123.411 37.5274 122.673 29.0586C121.935 20.5897 104.469 14.6195 83.6616 15.7238C62.8545 16.8282 46.5851 24.5889 47.3232 33.0577C48.0613 41.5266 65.5271 47.4968 86.3343 46.3924Z" fill="#88D1C3"/>
<path d="M117.9 45.8198L118.893 57.1646C118.893 57.1646 122.184 56.5231 123.828 55.2902C125.471 54.0572 132.308 49.3956 131.867 43.3708C131.427 37.3463 130.989 35.3515 128.883 37.619C126.778 39.8865 117.9 45.8198 117.9 45.8198Z" fill="white"/>
<path d="M65.7316 49.151C59.5375 47.294 57.0989 45.8413 53.883 43.2302C50.6672 40.6194 50.4149 42.1512 47.2212 43.5846C44.0274 45.0176 29.2239 60.7484 29.2239 60.7484C29.2239 60.7484 36.596 65.2399 47.6769 64.6523C58.7575 64.0646 86.3379 60.3148 88.34 55.6383C90.342 50.9618 86.8895 53.6807 80.5822 52.4768C74.275 51.2733 65.7316 49.151 65.7316 49.151Z" fill="#88D1C3"/>
<path d="M40.7111 8.04027C52.0692 7.79037 64.4218 8.41523 69.6233 12.5009C69.6233 12.5009 75.2326 8.75881 74.4545 7.8074C73.6767 6.85611 48.5841 4.91159 43.1346 5.80118C37.685 6.69103 40.7111 8.04027 40.7111 8.04027Z" fill="white"/>
<path d="M59.5416 28.2413C53.0976 26.9508 47.3726 26.3549 43.0117 26.394C38.6508 26.4331 36.9271 26.4171 36.3491 28.1091C35.7713 29.8009 35.3046 41.2032 36.7806 43.2591C38.2567 45.315 42.1237 45.2528 44.4548 43.2469C46.7858 41.2409 47.4399 39.9 52.7182 37.7425C57.9966 35.585 67.4696 31.5819 59.5416 28.2413Z" fill="#88D1C3"/>
<path d="M36.5335 30.4918C44.0921 29.9913 51.7198 30.5939 59.1659 32.2793L55.0595 35.1954L35.493 36.2295L36.5335 30.4918Z" fill="white"/>
<path d="M32.2041 59.4842C39.4132 60.2423 60.296 62.3148 78.4982 53.6112C78.4982 53.6112 88.8052 52.3225 89.9249 53.0053C91.0445 53.6881 76.5414 62.4901 61.8653 63.1866C47.1896 63.8832 28.115 63.2288 32.2041 59.4842Z" fill="white"/>
<path d="M112.73 27.6095C113.876 40.7549 65.2244 43.337 64.0974 30.2061C63.7678 24.0229 65.9101 18.0308 70.0717 13.4953C74.2333 8.95971 80.0887 6.23581 86.4008 5.89883C92.7134 5.56172 98.9885 7.63804 103.901 11.689C108.814 15.7402 111.98 21.4488 112.73 27.6095Z" fill="#88D1C3"/>
<path fill-rule="evenodd" clip-rule="evenodd" d="M133.174 33.8403L132.754 29.0807C131.912 20.3502 121.741 13.1925 106.127 10.2988C102.02 6.51141 96.8291 4.0565 91.2992 3.28724C85.7694 2.51799 80.1862 3.47421 75.3527 6.01827C64.299 1.70508 49.1906 2.39317 39.3984 4.36333C38.9758 4.44992 38.5823 4.63134 38.249 4.89367C37.9154 5.15588 37.6513 5.49192 37.4767 5.87553C37.3017 6.26823 37.2226 6.69808 37.2456 7.13132C37.2687 7.56457 37.3935 7.99007 37.6102 8.37462L46.1403 23.3654C43.6649 23.242 41.1887 23.2506 38.7229 23.3913C33.8594 23.6511 32.4499 32.6702 32.9965 38.9947C33.417 43.7544 34.6441 47.6373 36.4067 50.066L28.7075 58.2341C28.359 58.6055 28.1173 59.0614 28.0057 59.5573C27.8942 60.0535 27.9166 60.5735 28.0706 61.0667C28.2246 61.56 28.5051 62.0101 28.8853 62.3735C29.2653 62.7371 29.7318 63.0014 30.2399 63.1416C37.393 65.1474 53.3234 67.6085 68.9987 64.8842L68.9808 64.9209C76.4566 66.5983 84.1077 67.2248 91.6992 66.7806C116.458 65.4602 135.01 54.5941 133.895 42.0209L133.535 37.8824L133.174 33.8403ZM118.581 42.6338C125.488 38.7555 129.07 34.0653 128.667 29.4203C128.154 23.5675 121.222 18.3346 110.547 15.4357C112.956 19.0831 114.409 23.2334 114.775 27.5078C115.489 35.7108 102.554 40.1004 89.4269 40.7832C81.4987 41.1979 73.4062 40.2874 68.0832 37.6913C66.3435 36.8992 64.8074 35.7218 63.6016 34.2553L52.213 40.3406C58.998 46.8991 74.0583 50.7879 90.2353 49.9275C101.179 49.329 111.233 46.7577 118.581 42.6338ZM102.824 12.6735C98.2936 8.81052 92.4319 6.81526 86.5276 7.12645C82.2112 7.36042 78.0957 8.81585 74.682 11.3157C71.2679 13.8157 68.7021 17.2527 67.2965 21.2088C69.2528 17.2189 72.5232 14.0108 76.6006 12.0822C80.6784 10.1535 85.3356 9.61192 89.8506 10.5412C94.3657 11.4703 98.4867 13.8188 101.575 17.2221C104.663 20.6255 106.546 24.8937 106.932 29.3661C107.068 30.9103 106.375 32.2777 105.115 33.4696C107.396 32.472 110.928 30.4749 110.689 27.7269C110.184 21.9508 107.355 16.5362 102.824 12.6735ZM71.1976 8.83996C62.3975 6.28392 50.9417 6.49617 42.1189 8.03327L49.9557 21.7901C54.0024 17.9283 60.0919 14.6584 67.628 12.3825C68.6941 11.0884 69.8897 9.90201 71.1976 8.83996ZM61.1233 26.6901C61.2683 26.7431 61.4139 26.7928 61.5594 26.8422C61.5778 26.8482 61.596 26.8545 61.6142 26.8608C61.7416 26.9043 61.869 26.9477 61.9959 26.9942L61.9746 26.9838C62.1123 23.8413 62.8437 20.7685 64.1325 17.9199C59.6946 19.7026 55.9789 21.8937 53.2974 24.3055C55.9601 24.8994 58.5767 25.6969 61.1233 26.6901ZM37.1708 38.7884C37.1876 39.0342 37.2183 39.2562 37.2488 39.4771C37.2665 39.6047 37.2841 39.7319 37.299 39.8633L37.2821 39.855C37.8949 41.7278 39.3867 42.2733 40.8495 42.1872L44.0963 42.0044L46.516 39.4395C47.4458 38.4616 48.5317 37.6372 49.7339 36.996L61.1225 30.9107C60.9301 30.8426 60.7366 30.7772 60.543 30.7115C60.2849 30.624 60.0268 30.5365 59.7712 30.4437C54.9675 28.6827 49.9981 26.8615 39.1333 27.4378C38.3798 27.8498 36.6017 32.2509 37.1708 38.7884ZM33.029 59.7245L33.026 59.7282L33.0088 59.7198C33.0158 59.7213 33.0224 59.7229 33.029 59.7245L48.9802 42.7823C51.3056 45.0564 54.0077 46.9291 56.9648 48.3163C64.7024 52.0901 75.3465 54.1893 86.8673 54.0594C69.5244 65.1489 44.0683 62.3943 33.029 59.7245ZM78.666 62.451C78.661 62.4528 78.6559 62.4545 78.6509 62.4562L78.634 62.448C78.6447 62.449 78.6555 62.4501 78.666 62.451C80.971 61.679 83.2118 60.7467 85.3718 59.6612L85.6536 62.8603C83.2709 62.8265 80.9415 62.6834 78.666 62.451ZM88.5421 62.8623C89.4807 62.8442 90.4249 62.8105 91.3755 62.7612L91.3583 62.7529C91.8762 62.7247 92.3876 62.6823 92.9002 62.6393C93.1635 62.6175 93.427 62.5955 93.6921 62.5755L93.0098 54.7274C91.4705 55.9824 89.8405 57.1285 88.1316 58.1577L88.5421 62.8623ZM96.5682 62.2884L96.5694 62.2986L96.5522 62.2902C96.5576 62.2896 96.563 62.2891 96.5682 62.2884L95.8036 53.509C97.541 53.3138 99.2483 53.072 100.926 52.7835L101.684 61.5338C100.012 61.8352 98.3069 62.0867 96.5682 62.2884ZM104.529 60.9416L104.53 60.9536L104.513 60.9453C104.518 60.944 104.524 60.9428 104.529 60.9416L103.769 52.2315C105.523 51.8726 107.204 51.4578 108.844 50.9872L109.599 59.6353C107.963 60.1186 106.266 60.5528 104.529 60.9416ZM112.396 58.6882L112.399 58.7185L112.392 58.6895L112.396 58.6882L111.651 50.1299C113.401 49.5411 115.066 48.8803 116.662 48.1758L117.4 56.6331C115.773 57.4042 114.103 58.0903 112.396 58.6882ZM120.164 55.1377L120.167 55.1688L120.16 55.1401L120.164 55.1377L119.439 46.8426C119.598 46.7593 119.76 46.6779 119.923 46.5964C120.198 46.4583 120.473 46.3206 120.733 46.1735C121.99 45.4613 123.203 44.6791 124.365 43.8305L125.051 51.7056C123.55 53.0109 121.913 54.161 120.164 55.1377ZM127.69 48.7795L127.692 48.8138L127.686 48.7849L127.69 48.7795L127.079 41.6014C127.962 40.7869 128.779 39.9062 129.522 38.9667L129.808 42.254C129.978 44.4813 129.199 46.6844 127.69 48.7795Z" fill="#4F457C"/>
<path d="M150.903 31.0627C151.915 32.0976 152.528 33.4393 152.631 34.8473L152.619 34.8514C152.748 36.2493 152.367 37.6316 151.544 38.7533C150.72 39.8751 149.508 40.6638 148.121 40.9802C146.734 41.2964 145.262 41.1196 143.965 40.4812C142.669 39.8427 141.631 38.7838 141.037 37.4918L133.353 37.8738L133.025 33.8537L140.681 33.4519C141.036 32.0976 141.878 30.9256 143.056 30.1463C144.233 29.367 145.67 29.0314 147.108 29.1993C148.546 29.3674 149.891 30.0278 150.903 31.0627Z" fill="#7996C9"/>
</g>
<defs>
<clipPath id="clip0">
<rect width="154" height="68" fill="white"/>
</clipPath>
</defs>
</svg>
