<svg width="154" height="63" viewBox="0 0 154 63" fill="none" xmlns="http://www.w3.org/2000/svg">
<g clip-path="url(#clip0)">
<path d="M48.2593 22.7205L37.3175 4.31021C46.7046 2.07536 62.7735 0.796773 73.9683 5.30777" fill="#88D1C3"/>
<path d="M91.9061 61.3133C115.186 59.6494 133.089 49.1337 131.894 37.8256C130.7 26.5176 110.859 18.6995 87.5797 20.3634C64.3002 22.0273 46.3971 32.5431 47.5916 43.8511C48.7864 55.1592 68.6266 62.9772 91.9061 61.3133Z" fill="#7996C9"/>
<path d="M90.5719 48.6463C113.851 46.9824 131.755 36.4665 130.56 25.1585C129.365 13.8504 109.525 6.03211 86.2457 7.69602C62.9662 9.35992 45.0628 19.8757 46.2575 31.1838C47.4523 42.4919 67.2924 50.3102 90.5719 48.6463Z" fill="white"/>
<path d="M85.4447 43.238C106.228 41.7526 122.353 33.695 121.46 25.2411C120.566 16.7873 102.994 11.1381 82.2105 12.6235C61.4271 14.109 45.3027 22.1666 46.1958 30.6205C47.089 39.0744 64.6613 44.7235 85.4447 43.238Z" fill="#88D1C3"/>
<path d="M116.994 42.0869L118.195 53.4117C118.195 53.4117 121.474 52.7099 123.095 51.4471C124.715 50.1841 131.466 45.398 130.915 39.3824C130.364 33.3669 129.89 31.3804 127.826 33.6862C125.762 35.9919 116.994 42.0869 116.994 42.0869Z" fill="white"/>
<path d="M64.896 46.3735C58.6689 44.6303 56.2041 43.2225 52.9408 40.6708C49.6777 38.1194 49.4536 39.6556 46.2867 41.1472C43.1197 42.6385 28.6069 58.638 28.6069 58.638C28.6069 58.638 36.0601 62.9937 47.1284 62.2031C58.1964 61.4124 85.7034 57.1578 87.6194 52.4454C89.5354 47.733 86.1333 50.5147 79.805 49.4266C73.4769 48.3389 64.896 46.3735 64.896 46.3735Z" fill="#88D1C3"/>
<path d="M39.1263 5.72815C50.478 5.27015 62.8399 5.66854 68.1155 9.65822C68.1155 9.65822 73.6552 5.81394 72.8598 4.87695C72.0647 3.94008 46.9406 2.45572 41.5084 3.44503C36.076 4.4346 39.1263 5.72815 39.1263 5.72815Z" fill="white"/>
<path d="M58.3238 25.5808C51.8573 24.4086 46.1223 23.9178 41.7629 24.0368C37.4034 24.1558 35.6797 24.1714 35.1328 25.8737C34.586 27.5758 34.3284 38.9847 35.8419 41.0132C37.3554 43.0417 41.2206 42.9087 43.5145 40.8604C45.8084 38.812 46.4378 37.4593 51.6757 35.2055C56.9137 32.9516 66.3117 28.7756 58.3238 25.5808Z" fill="#88D1C3"/>
<path d="M35.3608 28.2527C42.9089 27.6138 50.5464 28.0764 58.0221 29.6251L53.9698 32.616L34.4256 34.0085L35.3608 28.2527Z" fill="white"/>
<path d="M31.5634 57.3196C38.7852 57.9455 59.7024 59.6349 77.7421 50.5992C77.7421 50.5992 88.0238 49.1219 89.1558 49.784C90.2877 50.4462 75.9483 59.5125 61.2875 60.4778C46.627 61.4433 27.5436 61.1385 31.5634 57.3196Z" fill="white"/>
<path d="M111.492 23.9743C112.879 37.0965 64.2824 40.5697 62.9149 27.4616C62.4721 21.2855 64.5042 15.2552 68.582 10.6442C72.6598 6.03312 78.4643 3.20237 84.7692 2.74978C91.0745 2.29704 97.3866 4.25802 102.373 8.21826C107.359 12.1788 110.629 17.8284 111.492 23.9743Z" fill="#88D1C3"/>
<path d="M21.3 28.7258C15.7097 29.135 7.72408 33.8633 4.26647 38.0992C8.55587 41.7755 17.4242 45.3095 23.0107 44.9084C24.1097 44.8461 25.1783 44.5708 26.1548 44.0984C27.131 43.6261 27.9952 42.9665 28.6976 42.1575C29.3998 41.3487 29.9256 40.4068 30.2448 39.3869C30.5641 38.3667 30.67 37.2888 30.5565 36.216C30.443 35.1431 30.1128 34.0965 29.584 33.1372C29.0557 32.1778 28.34 31.3249 27.4787 30.6279C26.6173 29.9309 25.6275 29.4036 24.5665 29.0771C23.506 28.7505 22.3954 28.6311 21.3 28.7258Z" fill="#FF8080"/>
<path fill-rule="evenodd" clip-rule="evenodd" d="M132.047 29.8296L131.539 25.0784C130.538 16.3648 120.237 9.39472 104.572 6.78768C100.397 3.07614 95.1618 0.716775 89.6188 0.0489856C84.0758 -0.618804 78.511 0.439571 73.725 3.07178C62.5941 -1.03812 47.5009 -0.0732783 37.7464 2.076C37.3254 2.17032 36.9353 2.35892 36.6069 2.62732C36.2782 2.89559 36.0202 3.23641 35.8528 3.62317C35.6849 4.019 35.6137 4.45023 35.6447 4.88298C35.6757 5.31573 35.8083 5.73887 36.032 6.11939L44.8353 20.9513C42.3582 20.8733 39.8825 20.9273 37.4197 21.1131C32.5618 21.462 31.3178 30.5055 31.9802 36.8189C32.4878 41.57 33.7859 45.4298 35.5928 47.8259L28.0444 56.1337C27.7029 56.5113 27.4696 56.9716 27.367 57.4694C27.2647 57.9677 27.2966 58.4871 27.4596 58.9775C27.6226 59.4678 27.9113 59.9127 28.2981 60.2691C28.6847 60.6257 29.156 60.8814 29.6666 61.0122C36.8552 62.8866 52.828 65.0554 68.4508 62.0442L68.4336 62.0813C75.9389 63.6214 83.6002 64.1076 91.1822 63.5244C115.912 61.7505 134.262 50.5462 132.917 37.9955L132.481 33.8643L132.047 29.8296ZM117.617 38.8889C124.452 34.8847 127.948 30.1297 127.46 25.4929C126.839 19.6504 119.813 14.5455 109.086 11.8426C111.561 15.4454 113.09 19.5683 113.534 23.8352C114.399 32.0238 101.546 36.6497 88.4339 37.573C80.5147 38.1329 72.4068 37.3709 67.0372 34.8727C65.2832 34.1126 63.7258 32.9636 62.4933 31.5194L51.2182 37.8124C58.1222 44.2455 73.2512 47.8576 89.4097 46.701C100.341 45.9019 110.346 43.1468 117.617 38.8889ZM101.314 9.22241C96.7132 5.44316 90.8159 3.55565 84.9183 3.97499C80.6069 4.28802 76.5188 5.81863 73.1514 8.38063C69.7837 10.9428 67.2814 14.4262 65.9485 18.4074C67.8313 14.3823 71.0424 11.1148 75.0838 9.11186C79.1255 7.10875 83.7721 6.48188 88.3033 7.32832C92.8347 8.17449 96.998 10.447 100.148 13.7932C103.298 17.1395 105.259 21.3725 105.726 25.8369C105.891 27.3784 105.223 28.7583 103.985 29.9731C106.248 28.9339 109.742 26.8724 109.453 24.1292C108.842 18.3633 105.915 13.0015 101.314 9.22241ZM69.6222 5.96914C60.7768 3.5748 49.3268 3.99694 40.5337 5.69547L48.6213 19.3063C52.5965 15.3711 58.6251 11.9901 66.1182 9.57648C67.1604 8.26307 68.3341 7.05498 69.6222 5.96914ZM59.8768 24.0009C60.0227 24.0512 60.1692 24.0983 60.3156 24.145C60.3341 24.1507 60.3524 24.1566 60.3707 24.1626C60.4989 24.2037 60.6271 24.2448 60.7549 24.2889L60.7333 24.2789C60.8134 21.1345 61.4884 18.0488 62.7248 15.177C58.3203 17.0408 54.6453 19.2996 52.0085 21.7601C54.6816 22.3051 57.3124 23.0545 59.8768 24.0009ZM36.15 36.5362C36.1713 36.7816 36.206 37.0029 36.2406 37.2233C36.2607 37.3505 36.2806 37.4774 36.2979 37.6085L36.2808 37.6005C36.9278 39.4617 38.4295 39.9798 39.8904 39.8669L43.1333 39.6247L45.5056 37.0158C46.4173 36.0211 47.4879 35.1769 48.6782 34.5138L59.9534 28.2208C59.7597 28.1562 59.565 28.0944 59.3703 28.0322C59.1106 27.9495 58.851 27.8667 58.5937 27.7787C53.7586 26.106 48.7566 24.3761 37.9041 25.1514C37.1583 25.5772 35.4612 30.0101 36.15 36.5362ZM32.3926 57.5446L32.3896 57.5483L32.3723 57.5403C32.3793 57.5416 32.3859 57.5431 32.3926 57.5446L48.0306 40.3129C50.3973 42.544 53.1333 44.3669 56.1153 45.6996C63.9208 49.3311 74.6015 51.2349 86.118 50.8938C68.9812 62.2993 43.479 60.0116 32.3926 57.5446ZM78.0719 59.4344C78.0669 59.4362 78.0619 59.438 78.0569 59.4398L78.0398 59.4319C78.0506 59.4328 78.0614 59.4336 78.0719 59.4344C80.3624 58.6202 82.5856 57.647 84.7254 56.5221L85.0658 59.7155C82.6829 59.7254 80.3513 59.6249 78.0719 59.4344ZM87.9539 59.6645C88.8919 59.6293 89.8354 59.5783 90.7849 59.5116L90.7676 59.5035C91.2849 59.4659 91.7954 59.4141 92.3071 59.3617C92.57 59.3351 92.8331 59.3083 93.0977 59.2834L92.2717 51.4491C90.7557 52.7322 89.147 53.908 87.4572 54.9683L87.9539 59.6645ZM95.9681 58.9436L95.9694 58.9538L95.9521 58.9458C95.9575 58.9451 95.9629 58.9444 95.9681 58.9436L95.0428 50.1798C96.7763 49.9528 98.4789 49.6797 100.151 49.3605L101.069 58.0955C99.4031 58.4274 97.7028 58.7101 95.9681 58.9436ZM103.903 57.4512L103.904 57.4632L103.887 57.4552C103.892 57.4538 103.898 57.4525 103.903 57.4512L102.983 48.7565C104.73 48.3656 106.403 47.92 108.034 47.4194L108.948 56.0523C107.321 56.5655 105.633 57.0306 103.903 57.4512ZM111.728 55.054L111.731 55.0842L111.723 55.0554L111.728 55.054L110.826 46.5108C112.565 45.8901 114.217 45.1988 115.8 44.4652L116.693 52.9075C115.08 53.7084 113.423 54.4249 111.728 55.054ZM119.429 51.3618L119.432 51.3928L119.425 51.3642L119.429 51.3618L118.552 43.0814C118.71 42.9951 118.87 42.9108 119.031 42.8264C119.304 42.6832 119.576 42.5405 119.834 42.3886C121.077 41.6536 122.275 40.8492 123.422 39.9795L124.252 47.8407C122.775 49.1733 121.159 50.3532 119.429 51.3618ZM126.837 44.8667L126.84 44.901L126.833 44.8723L126.837 44.8667L126.095 37.701C126.963 36.8704 127.763 35.9749 128.489 35.022L128.835 38.3035C129.046 40.5273 128.307 42.7444 126.837 44.8667Z" fill="#4F457C"/>
<path d="M149.722 26.7275C150.753 27.7436 151.39 29.0739 151.519 30.4797L151.507 30.4841C151.661 31.8794 151.306 33.2685 150.503 34.405C149.701 35.5417 148.503 36.3525 147.122 36.6943C145.741 37.0358 144.266 36.8861 142.958 36.2715C141.65 35.6569 140.593 34.6172 139.975 33.3363L132.299 33.8591L131.898 29.8457L139.545 29.3036C139.876 27.943 140.696 26.7558 141.859 25.955C143.022 25.1543 144.452 24.7925 145.893 24.934C147.334 25.0756 148.691 25.7113 149.722 26.7275Z" fill="#7996C9"/>
</g>
<defs>
<clipPath id="clip0">
<rect width="154" height="63" fill="white"/>
</clipPath>
</defs>
</svg>
