<svg width="60" height="59" viewBox="0 0 60 59" fill="none" xmlns="http://www.w3.org/2000/svg">
<path d="M28.4029 0.556634C36.056 0.61313 42.968 3.85087 47.8315 8.97665C52.0028 13.7316 54.5207 19.9635 54.469 26.7492C54.3565 41.5153 42.1959 53.3977 27.3022 53.3107C19.6492 53.2541 12.7374 50.0164 7.87396 44.8907C3.70264 40.1358 1.18468 33.9039 1.23639 27.1181C1.34893 12.3518 13.5099 0.446692 28.4029 0.556634Z" fill="url(#paint0_radial_33223_25309)" stroke="url(#paint1_linear_33223_25309)" stroke-width="0.36"/>
<path d="M28.3275 6.57754C34.2495 6.62125 39.598 9.1265 43.3615 13.0927C46.5892 16.7722 48.5373 21.5943 48.4973 26.8449C48.4102 38.2709 39.0003 47.4662 27.4746 47.3988C21.5526 47.3551 16.2042 44.8498 12.4408 40.8837C9.21313 37.2042 7.26496 32.3821 7.30498 27.1315C7.39206 15.7052 16.8024 6.49246 28.3275 6.57754Z" fill="url(#paint2_radial_33223_25309)"/>
<path d="M28.3275 6.57754C34.2495 6.62125 39.598 9.1265 43.3615 13.0927C46.5892 16.7722 48.5373 21.5943 48.4973 26.8449C48.4102 38.2709 39.0003 47.4662 27.4746 47.3988C21.5526 47.3551 16.2042 44.8498 12.4408 40.8837C9.21313 37.2042 7.26496 32.3821 7.30498 27.1315C7.39206 15.7052 16.8024 6.49246 28.3275 6.57754Z" fill="url(#paint3_linear_33223_25309)" fill-opacity="0.2"/>
<path d="M28.3275 6.57754C34.2495 6.62125 39.598 9.1265 43.3615 13.0927C46.5892 16.7722 48.5373 21.5943 48.4973 26.8449C48.4102 38.2709 39.0003 47.4662 27.4746 47.3988C21.5526 47.3551 16.2042 44.8498 12.4408 40.8837C9.21313 37.2042 7.26496 32.3821 7.30498 27.1315C7.39206 15.7052 16.8024 6.49246 28.3275 6.57754Z" fill="url(#paint4_linear_33223_25309)" fill-opacity="0.2"/>
<path d="M28.3275 6.57754C34.2495 6.62125 39.598 9.1265 43.3615 13.0927C46.5892 16.7722 48.5373 21.5943 48.4973 26.8449C48.4102 38.2709 39.0003 47.4662 27.4746 47.3988C21.5526 47.3551 16.2042 44.8498 12.4408 40.8837C9.21313 37.2042 7.26496 32.3821 7.30498 27.1315C7.39206 15.7052 16.8024 6.49246 28.3275 6.57754Z" stroke="url(#paint5_linear_33223_25309)" stroke-width="0.36"/>
<path d="M28.3275 6.57754C34.2495 6.62125 39.598 9.1265 43.3615 13.0927C46.5892 16.7722 48.5373 21.5943 48.4973 26.8449C48.4102 38.2709 39.0003 47.4662 27.4746 47.3988C21.5526 47.3551 16.2042 44.8498 12.4408 40.8837C9.21313 37.2042 7.26496 32.3821 7.30498 27.1315C7.39206 15.7052 16.8024 6.49246 28.3275 6.57754Z" stroke="url(#paint6_linear_33223_25309)" stroke-opacity="0.2" stroke-width="0.36"/>
<path d="M28.3275 6.57754C34.2495 6.62125 39.598 9.1265 43.3615 13.0927C46.5892 16.7722 48.5373 21.5943 48.4973 26.8449C48.4102 38.2709 39.0003 47.4662 27.4746 47.3988C21.5526 47.3551 16.2042 44.8498 12.4408 40.8837C9.21313 37.2042 7.26496 32.3821 7.30498 27.1315C7.39206 15.7052 16.8024 6.49246 28.3275 6.57754Z" stroke="url(#paint7_linear_33223_25309)" stroke-width="0.36"/>
<path d="M28.3275 6.57754C34.2495 6.62125 39.598 9.1265 43.3615 13.0927C46.5892 16.7722 48.5373 21.5943 48.4973 26.8449C48.4102 38.2709 39.0003 47.4662 27.4746 47.3988C21.5526 47.3551 16.2042 44.8498 12.4408 40.8837C9.21313 37.2042 7.26496 32.3821 7.30498 27.1315C7.39206 15.7052 16.8024 6.49246 28.3275 6.57754Z" stroke="url(#paint8_linear_33223_25309)" stroke-width="0.36"/>
<g filter="url(#filter0_f_33223_25309)">
<path d="M52.0482 15.0379C53.5126 18.3964 54.3225 22.0962 54.2927 25.9977C54.1794 40.8649 41.9361 52.8259 26.9446 52.7152C17.9358 52.6487 9.98447 48.2266 5.10042 41.4953C5.88222 42.7709 6.78094 43.978 7.77347 45.0935C12.6695 50.255 19.6286 53.5154 27.3339 53.5723C42.3253 53.683 54.5686 41.722 54.682 26.8548C54.7374 22.6303 53.7903 18.6062 52.0482 15.0379Z" fill="#06017C"/>
</g>
<path d="M20.8107 26.8313L16.6777 23.8888C18.4442 22.4321 21.7254 20.4963 24.542 20.3511" fill="#64DED5"/>
<path d="M33.868 30.8682C38.6398 28.1096 41.3984 23.9524 40.0288 21.5762C38.6592 19.2048 33.6841 19.5145 28.9123 22.2731C24.1405 25.0316 21.3819 29.1888 22.7515 31.5651C24.1211 33.9365 29.0962 33.6267 33.868 30.8682Z" fill="#64DED5"/>
<path d="M15.686 30.9255C14.5438 31.5886 13.3146 33.4518 13 34.744C14.2728 35.1118 16.5038 34.9859 17.646 34.3229C18.5849 33.7809 18.9043 32.5807 18.3622 31.6466C17.8202 30.7078 16.6248 30.3883 15.686 30.9304V30.9255Z" fill="#2D8F88"/>
<path d="M32.3338 28.2109C37.1056 25.4524 39.8642 21.2952 38.4946 18.919C37.125 16.5476 32.1499 16.8573 27.3781 19.6159C22.6063 22.3744 19.8477 26.5316 21.2173 28.9078C22.5869 31.2792 27.562 30.9695 32.3338 28.2109Z" fill="#B1FCF2"/>
<path d="M30.718 27.5429C34.9769 25.0796 37.5999 21.6483 36.5787 19.8722C35.5576 18.0961 31.2746 18.6575 27.0158 21.116C22.7569 23.5793 20.1339 27.0106 21.155 28.7867C22.1762 30.5628 26.4592 30.0014 30.718 27.5429Z" fill="#64DED5"/>
<path d="M37.29 24.049L38.6596 26.4252C38.6596 26.4252 39.2839 25.9316 39.5066 25.4912C39.7243 25.046 40.6874 23.294 39.976 22.0261C39.2646 20.7533 38.9694 20.3613 38.7613 21.0872C38.5532 21.8083 37.29 24.0539 37.29 24.0539V24.049Z" fill="#B1FCF2"/>
<path d="M26.6666 30.345C25.176 30.6015 24.513 30.5435 23.5645 30.316C22.6159 30.0885 22.7272 30.4467 22.1997 31.1048C21.677 31.7582 20.1768 36.7817 20.1768 36.7817C20.1768 36.7817 22.1852 36.9752 24.4549 35.6686C26.7247 34.357 32.1353 30.5967 32.0773 29.3578C32.0192 28.1188 31.5739 29.0867 30.1221 29.4933C28.675 29.9046 26.6666 30.3499 26.6666 30.3499V30.345Z" fill="#64DED5"/>
<path d="M17.1958 24.0198C19.5575 22.7518 22.2145 21.571 23.7292 21.9097C23.7292 21.9097 24.5229 20.4917 24.2664 20.3659C24.0051 20.2401 18.5315 22.4953 17.4765 23.2696C16.4215 24.044 17.1958 24.0198 17.1958 24.0198Z" fill="#B1FCF2"/>
<path d="M23.226 26.4299C21.7402 26.8365 20.4771 27.3156 19.5624 27.7898C18.6526 28.2641 18.2848 28.4432 18.338 28.8787C18.3913 29.3095 19.4608 31.8551 19.9835 32.1455C20.5062 32.4358 21.3144 32.0148 21.5951 31.3227C21.8757 30.6355 21.8758 30.2725 22.7662 29.2369C23.6567 28.2012 25.2344 26.3138 23.226 26.4299Z" fill="#64DED5"/>
<path d="M18.6191 29.3769C19.316 28.9753 21.0002 27.9831 23.5603 27.354L22.9989 28.4284L18.9966 30.7417L18.624 29.3769H18.6191Z" fill="#B1FCF2"/>
<path d="M20.6802 36.1868C22.2724 35.5819 26.87 33.8106 29.8077 29.9632C29.8077 29.9632 31.8403 28.579 32.1452 28.6129C32.4501 28.642 30.3061 32.1168 27.2911 33.8348C24.2809 35.5529 20.2011 37.4451 20.6802 36.1917V36.1868Z" fill="#B1FCF2"/>
<path d="M34.3331 20.618C35.9204 23.3717 25.9606 29.1308 24.3732 26.3771C22.7859 23.6234 23.7296 20.105 26.4784 18.5128C29.2273 16.9254 32.7457 17.8643 34.3331 20.6228V20.618Z" fill="#64DED5"/>
<path d="M43.4599 17.9411C43.063 17.2539 42.187 17.0167 41.4998 17.4136C40.9626 17.7233 40.7061 18.3282 40.8126 18.909L38.8574 20.0414L39.3462 20.8884L41.3014 19.7559C41.7515 20.1334 42.4 20.2157 42.9372 19.9059C43.6244 19.5091 43.8615 18.6283 43.4599 17.9459V17.9411Z" fill="#2D8F88"/>
<path d="M40.2607 21.5129L38.6975 18.8027C37.6231 16.983 34.7533 16.5039 31.1817 17.5347C29.5846 17.0459 27.794 17.1863 26.2356 18.0865C25.4323 18.5511 24.7789 19.1705 24.2756 19.8819C21.5122 20.1191 18.41 21.8807 16.5516 23.3567C16.3871 23.4874 16.2951 23.6858 16.3 23.8939C16.3048 24.1069 16.4113 24.3053 16.5855 24.4263L19.9151 26.7977C19.4457 27.0058 18.9327 27.2623 18.3616 27.5962C17.3647 28.1721 17.9938 30.2967 18.7585 31.6227C19.3344 32.6245 19.9877 33.3408 20.6072 33.6795L19.8184 36.2881C19.7458 36.53 19.8038 36.7865 19.9732 36.9753C20.1087 37.1301 20.3023 37.2124 20.5056 37.2124C20.5491 37.2124 20.5975 37.2124 20.6411 37.1979C22.3494 36.8737 25.9549 35.7122 28.9651 33.4424V33.4521C30.5912 33.0698 32.3093 32.3729 33.9305 31.434C38.9976 28.506 41.7755 24.1456 40.2607 21.5129ZM37.8699 19.3157C38.4313 20.2885 38.1603 21.6968 37.1053 23.2841C35.9825 24.9683 34.1338 26.6138 31.8979 27.9059C28.5877 29.8224 25.0209 30.5774 22.9254 29.866L24.6966 27.3155C25.0596 27.4994 25.4952 27.5865 25.9888 27.5865C27.3729 27.5865 29.1684 26.9235 30.7897 25.9846C33.4756 24.4311 35.7454 22.0936 34.7581 20.3756C34.2209 19.4464 33.4853 18.7108 32.6287 18.1832C35.1646 17.6848 37.1585 18.0865 37.8699 19.3157ZM26.7244 18.9334C27.5375 18.4639 28.4376 18.2268 29.3475 18.2268C29.8024 18.2268 30.267 18.2897 30.7171 18.4059C32.0721 18.7688 33.2094 19.6448 33.916 20.8644C34.2499 21.4403 33.7079 22.2533 33.3353 22.7131C33.4756 22.3211 33.4853 21.9436 33.2966 21.6242C31.9415 19.2721 28.9361 18.4639 26.5841 19.8239C25.016 20.7337 24.1352 22.3743 24.1304 24.0682C23.9175 22.0549 24.866 20.0078 26.7293 18.9334H26.7244ZM17.4857 23.8697C19.1844 22.5921 21.5654 21.3241 23.6706 20.9418C23.5061 21.3144 23.3754 21.7016 23.2835 22.0985C21.9332 23.4003 20.9895 24.7651 20.5346 26.0427L17.4857 23.8697ZM23.6077 25.8975C23.5351 25.9072 23.4625 25.9169 23.3948 25.9217C22.8286 25.9846 22.2236 26.0475 21.5074 26.2363C21.8219 25.4232 22.3785 24.5473 23.1286 23.681C23.148 24.4263 23.3125 25.1764 23.6077 25.8975ZM19.7409 31.3469C19.6974 31.2743 19.649 31.2065 19.6054 31.1291C18.8166 29.7595 18.7391 28.6028 18.8553 28.4335C21.0815 27.1461 22.3107 27.0155 23.5013 26.8896C23.6126 26.8799 23.7239 26.8606 23.8352 26.8461L22.0688 29.3917C21.88 29.6579 21.7397 29.9579 21.6429 30.2676L21.3912 31.0904C21.1783 31.2114 20.9121 31.3662 20.7234 31.4775C20.4281 31.6518 20.0603 31.6905 19.7409 31.3469ZM20.8782 36.1526L22.4946 30.7419C23.1431 30.9791 23.9029 31.1 24.7402 31.1C26.7535 31.1 29.2023 30.4274 31.6124 29.1642C29.1055 33.4424 23.4674 35.5573 20.8782 36.1526ZM30.7413 31.8792C31.1429 31.463 31.5253 31.0226 31.8689 30.5532L32.256 31.2259C31.7527 31.4727 31.2446 31.6905 30.7413 31.8792ZM33.4466 30.5871C33.253 30.6984 33.0594 30.8048 32.861 30.9113L32.2948 29.924C32.5464 29.5224 32.7739 29.0965 32.9723 28.6561L33.916 30.2967C33.7612 30.3935 33.6063 30.4903 33.4466 30.5822V30.5871ZM34.4919 29.9337L33.4321 28.0898C33.7757 27.8624 34.1144 27.6301 34.4338 27.3833L35.4889 29.2175C35.1695 29.4594 34.8404 29.7014 34.4919 29.9337ZM36.0261 28.7916L34.971 26.9622C35.2953 26.696 35.6147 26.425 35.9099 26.1492L36.9553 27.9592C36.6649 28.2399 36.3552 28.5157 36.0261 28.7867V28.7916ZM37.4489 27.4559L36.4132 25.6555C36.723 25.341 37.0037 25.0167 37.265 24.6925L38.2861 26.4637C38.0345 26.7928 37.7586 27.1268 37.4489 27.4559ZM38.7169 25.8491L37.7102 24.1069C37.778 24.0149 37.8506 23.9181 37.9135 23.8262C38.1168 23.5213 38.2813 23.2212 38.4362 22.926L39.3896 24.5763C39.225 24.9877 39.0024 25.4184 38.7169 25.854V25.8491ZM39.6461 23.652L38.7749 22.1469C38.8814 21.8613 38.9588 21.5806 39.0169 21.3096L39.4138 21.9968C39.6848 22.4663 39.7477 23.0325 39.6461 23.652Z" fill="#2D8F88"/>
<defs>
<filter id="filter0_f_33223_25309" x="0.300586" y="10.2381" width="59.184" height="48.1352" filterUnits="userSpaceOnUse" color-interpolation-filters="sRGB">
<feFlood flood-opacity="0" result="BackgroundImageFix"/>
<feBlend mode="normal" in="SourceGraphic" in2="BackgroundImageFix" result="shape"/>
<feGaussianBlur stdDeviation="2.4" result="effect1_foregroundBlur_33223_25309"/>
</filter>
<radialGradient id="paint0_radial_33223_25309" cx="0" cy="0" r="1" gradientUnits="userSpaceOnUse" gradientTransform="translate(9.24489 0.235198) rotate(63.6871) scale(67.4015 67.7056)">
<stop stop-color="#B6ECE4"/>
<stop offset="0.435789" stop-color="#86D4C9"/>
<stop offset="0.963542" stop-color="#4CAFA1"/>
</radialGradient>
<linearGradient id="paint1_linear_33223_25309" x1="14.7764" y1="7.72149" x2="31.5477" y2="42.0099" gradientUnits="userSpaceOnUse">
<stop stop-color="#CAF9F2"/>
<stop offset="0.432899" stop-color="#B6EFE6" stop-opacity="0"/>
</linearGradient>
<radialGradient id="paint2_radial_33223_25309" cx="0" cy="0" r="1" gradientUnits="userSpaceOnUse" gradientTransform="translate(42.0962 47.6868) rotate(-111.33) scale(52.5307 52.8203)">
<stop offset="0.0625" stop-color="#CAF9F2"/>
<stop offset="1" stop-color="#BFFFF5"/>
</radialGradient>
<linearGradient id="paint3_linear_33223_25309" x1="13.9683" y1="9.14298" x2="46.0061" y2="24.7893" gradientUnits="userSpaceOnUse">
<stop stop-color="#F6F6F6"/>
<stop offset="1" stop-color="#21DDC1" stop-opacity="0"/>
</linearGradient>
<linearGradient id="paint4_linear_33223_25309" x1="25.4019" y1="59.2862" x2="30.6558" y2="29.2121" gradientUnits="userSpaceOnUse">
<stop stop-color="#38887C"/>
<stop offset="1" stop-color="#CAF9F2" stop-opacity="0"/>
</linearGradient>
<linearGradient id="paint5_linear_33223_25309" x1="16.4487" y1="60.8042" x2="27.6448" y2="39.9025" gradientUnits="userSpaceOnUse">
<stop stop-color="#CAF9F2"/>
<stop offset="1" stop-color="#69CCBE" stop-opacity="0.145098"/>
</linearGradient>
<linearGradient id="paint6_linear_33223_25309" x1="34.7752" y1="2.6432" x2="27.9734" y2="28.9159" gradientUnits="userSpaceOnUse">
<stop stop-color="#CAF9F2"/>
<stop offset="1" stop-color="#79F6E3"/>
</linearGradient>
<linearGradient id="paint7_linear_33223_25309" x1="-1.69801" y1="11.562" x2="17.5185" y2="28.6478" gradientUnits="userSpaceOnUse">
<stop stop-color="#48CCB9"/>
<stop offset="1" stop-color="#40CAB5" stop-opacity="0"/>
</linearGradient>
<linearGradient id="paint8_linear_33223_25309" x1="52.4689" y1="6.57574" x2="21.8018" y2="25.5729" gradientUnits="userSpaceOnUse">
<stop stop-color="#E6FFFB"/>
<stop offset="1" stop-color="#1AA48F" stop-opacity="0"/>
</linearGradient>
</defs>
</svg>
