<svg viewBox="0 0 1071 161" fill="none" xmlns="http://www.w3.org/2000/svg">
    <g clip-path="url(#clip0_1867_3777)">
        <rect width="1071" height="161" rx="20" fill="white"/>
        <g clip-path="url(#clip1_1867_3777)">
            <path d="M1121 -150H0V487.253H1121V-150Z" fill="#50508E"/>
            <path opacity="0.6" d="M1121 8.84082H0V487.017H1121V8.84082Z" fill="url(#paint0_linear_1867_3777)"/>
            <path opacity="0.6" d="M560.5 290.413C651.851 290.413 725.906 215.572 725.906 123.252C725.906 30.9313 651.851 -43.9092 560.5 -43.9092C469.149 -43.9092 395.094 30.9313 395.094 123.252C395.094 215.572 469.149 290.413 560.5 290.413Z" fill="url(#paint1_linear_1867_3777)"/>
            <g opacity="0.3">
                <path opacity="0.3" d="M239.264 108.559C239.264 105.727 236.987 103.426 234.184 103.426H188.06C185.257 103.426 182.98 105.727 182.98 108.559C182.98 111.391 180.703 113.693 177.9 113.693H164.53C161.728 113.693 159.451 115.994 159.451 118.826C159.451 121.658 161.728 123.96 164.53 123.96H250.824C253.626 123.96 255.903 121.658 255.903 118.826C255.903 115.994 253.626 113.693 250.824 113.693H244.285C241.482 113.693 239.264 111.391 239.264 108.559Z" fill="url(#paint2_linear_1867_3777)"/>
                <path opacity="0.3" d="M1077.56 144.317C1074.82 144.317 1072.6 142.074 1072.6 139.301C1072.6 136.528 1074.82 134.286 1077.56 134.286H1100.45C1103.19 134.286 1105.41 132.044 1105.41 129.27C1105.41 126.497 1107.63 124.255 1110.37 124.255H1120.94V113.811V113.752V103.721H1096.24C1093.5 103.721 1091.28 105.963 1091.28 108.737C1091.28 111.51 1089.06 113.752 1086.32 113.752H1060.57C1057.83 113.752 1055.61 115.994 1055.61 118.767V119.003C1055.61 121.777 1053.39 124.019 1050.65 124.019H1014.5C1011.76 124.019 1009.54 126.261 1009.54 129.034V129.27C1009.54 132.044 1011.76 134.286 1014.5 134.286H1022.1C1024.84 134.286 1027.06 136.528 1027.06 139.301V139.537C1027.06 142.31 1024.84 144.553 1022.1 144.553H960.148C957.404 144.553 955.185 142.31 955.185 139.537V139.301C955.185 136.528 952.967 134.286 950.223 134.286H934.05C931.306 134.286 929.087 132.044 929.087 129.27V129.034C929.087 126.261 931.306 124.019 934.05 124.019H974.102C976.846 124.019 979.065 121.777 979.065 119.003V118.767C979.065 115.994 976.846 113.752 974.102 113.752H877.766C875.022 113.752 872.804 115.994 872.804 118.767V119.003C872.804 121.777 875.022 124.019 877.766 124.019H897.15C899.894 124.019 902.113 126.261 902.113 129.034V129.27C902.113 132.044 899.894 134.286 897.15 134.286H831.233C828.489 134.286 826.27 136.528 826.27 139.301V139.537C826.27 142.31 824.052 144.553 821.308 144.553H721.352C718.608 144.553 716.389 146.795 716.389 149.568V149.804C716.389 152.577 718.608 154.819 721.352 154.819H748.793C751.537 154.819 753.756 157.062 753.756 159.835V160.071C753.756 162.844 751.537 165.086 748.793 165.086H688.306C685.562 165.086 683.343 167.328 683.343 170.102V170.161C683.343 172.934 681.124 175.176 678.38 175.176H634.883C632.139 175.176 629.92 177.418 629.92 180.192V180.605C629.92 183.378 627.702 185.62 624.957 185.62H578.95C576.206 185.62 573.987 183.378 573.987 180.605V180.428C573.987 177.654 576.206 175.412 578.95 175.412H595.765C598.509 175.412 600.728 173.17 600.728 170.397V170.161C600.728 167.387 598.509 165.145 595.765 165.145H521.207C518.462 165.145 516.244 167.387 516.244 170.161V170.397C516.244 173.17 518.462 175.412 521.207 175.412H541.758C544.502 175.412 546.721 177.654 546.721 180.428V180.664C546.721 183.437 544.502 185.679 541.758 185.679H481.037C478.293 185.679 476.075 183.437 476.075 180.664C476.075 177.89 473.856 175.648 471.112 175.648H455.757C453.012 175.648 450.794 173.406 450.794 170.633V170.161C450.794 167.387 448.575 165.145 445.831 165.145H426.038C423.294 165.145 421.076 162.903 421.076 160.13V159.894C421.076 157.121 418.857 154.878 416.113 154.878H382.133C379.388 154.878 377.17 157.121 377.17 159.894V160.189C377.17 162.962 379.388 165.204 382.133 165.204H391.824C394.452 165.204 396.787 167.21 396.962 169.925C397.138 172.875 394.861 175.294 392 175.294H355.1C352.356 175.294 350.137 173.052 350.137 170.279V170.22C350.137 167.446 347.919 165.204 345.175 165.204H314.289C311.545 165.204 309.326 162.962 309.326 160.189V159.953C309.326 157.18 307.107 154.937 304.363 154.937H270.558C267.814 154.937 265.595 152.695 265.595 149.922V149.745C265.595 146.972 267.814 144.73 270.558 144.73H288.891C291.635 144.73 293.854 142.487 293.854 139.714V139.301C293.854 136.528 291.635 134.286 288.891 134.286H209.487C206.743 134.286 204.524 136.528 204.524 139.301V139.714C204.524 142.487 206.743 144.73 209.487 144.73H220.58C223.324 144.73 225.543 146.972 225.543 149.745V149.804C225.543 152.577 223.324 154.819 220.58 154.819H175.156C172.412 154.819 170.193 152.577 170.193 149.804V149.745C170.193 146.972 167.975 144.73 165.231 144.73H81.506C78.7619 144.73 76.5433 142.487 76.5433 139.714V139.301C76.5433 136.528 78.7619 134.286 81.506 134.286H132.301C135.045 134.286 137.264 132.044 137.264 129.27V129.034C137.264 126.261 135.045 124.019 132.301 124.019H101.532C98.7881 124.019 96.5695 121.777 96.5695 119.003V118.767C96.5695 115.994 98.7881 113.752 101.532 113.752H120.975C123.719 113.752 125.937 111.51 125.937 108.737V108.501C125.937 105.727 123.719 103.485 120.975 103.485H80.2799C77.5358 103.485 75.3172 101.243 75.3172 98.4697V98.2337C75.3172 95.4605 73.0985 93.2183 70.3544 93.2183H30.4772C27.7915 93.2183 25.3977 91.1531 25.2225 88.4389C25.0473 85.4296 27.3828 82.9514 30.302 82.9514H45.1319C47.8177 82.9514 50.2115 80.8863 50.3866 78.172C50.5618 75.1628 48.2264 72.6846 45.3071 72.6846H0V83.0104V93.3363V113.988H69.6538C72.3395 113.988 74.6749 116.053 74.8501 118.767C75.0253 121.718 72.6898 124.196 69.829 124.196H0V487.253H1121V144.317H1077.56ZM56.5755 144.553H35.4983C32.6958 144.553 30.4188 142.251 30.4188 139.419C30.4188 136.587 32.6958 134.286 35.4983 134.286H56.5755C59.378 134.286 61.655 136.587 61.655 139.419C61.7134 142.251 59.4364 144.553 56.5755 144.553ZM154.254 175.176H107.604C104.802 175.176 102.525 172.875 102.525 170.043C102.525 167.21 100.248 164.909 97.4453 164.909H89.68C86.8775 164.909 84.6005 162.608 84.6005 159.776C84.6005 156.944 86.8775 154.642 89.68 154.642H118.464C121.267 154.642 123.544 156.944 123.544 159.776C123.544 162.608 125.821 164.909 128.623 164.909H154.254C157.057 164.909 159.334 167.21 159.334 170.043C159.334 172.875 157.057 175.176 154.254 175.176ZM289.942 170.515C289.942 173.347 287.665 175.648 284.862 175.648H259.348C256.546 175.648 254.268 173.347 254.268 170.515C254.268 167.683 256.546 165.381 259.348 165.381H284.862C287.665 165.381 289.942 167.683 289.942 170.515ZM747.333 186.269H713.411C710.609 186.269 708.332 183.968 708.332 181.136C708.332 178.303 710.609 176.002 713.411 176.002H747.333C750.136 176.002 752.413 178.303 752.413 181.136C752.413 183.968 750.136 186.269 747.333 186.269ZM840.984 165.086H781.489C778.686 165.086 776.409 162.785 776.409 159.953C776.409 157.121 778.686 154.819 781.489 154.819H840.984C843.786 154.819 846.063 157.121 846.063 159.953C846.063 162.785 843.728 165.086 840.984 165.086ZM977.372 164.732H961.783C958.98 164.732 956.703 167.033 956.703 169.866C956.703 172.698 954.426 174.999 951.624 174.999H940.005C937.203 174.999 934.926 172.698 934.926 169.866C934.926 167.033 932.649 164.732 929.846 164.732H914.783C911.98 164.732 909.703 162.431 909.703 159.599C909.703 156.767 907.426 154.465 904.624 154.465H897.325C894.523 154.465 892.246 152.164 892.246 149.332C892.246 146.5 894.523 144.199 897.325 144.199H931.247C934.05 144.199 936.327 146.5 936.327 149.332C936.327 152.164 938.604 154.465 941.406 154.465H977.255C980.058 154.465 982.335 156.767 982.335 159.599C982.451 162.431 980.174 164.732 977.372 164.732Z" fill="url(#paint3_linear_1867_3777)"/>
                <path opacity="0.3" d="M795.852 118.826C795.852 121.599 793.633 123.842 790.889 123.842H749.26C746.516 123.842 744.297 126.084 744.297 128.857C744.297 131.63 746.516 133.872 749.26 133.872H797.895C800.639 133.872 802.858 131.63 802.858 128.857C802.858 126.084 805.076 123.842 807.821 123.842H829.073C831.817 123.842 834.036 121.599 834.036 118.826C834.036 116.053 831.817 113.811 829.073 113.811H800.814C798.07 113.752 795.852 115.994 795.852 118.826Z" fill="url(#paint4_linear_1867_3777)"/>
            </g>
            <path opacity="0.6" d="M725.731 131.748C724.68 152.813 719.776 172.875 711.718 191.225C701.384 204.442 630.096 185.384 549.29 147.503C469.711 110.212 409.866 68.2001 411.267 51.2067C420.2 32.3251 432.519 15.4497 447.466 1.28855C360.413 -25.7357 295.839 -30.3971 284.746 -6.32308C273.711 17.7509 318.901 64.5418 395.386 114.224C433.629 139.065 479.753 164.614 530.548 188.452C581.461 212.29 630.621 231.408 674.118 244.861C760.937 271.767 825.336 276.369 836.371 252.295C847.348 228.162 802.157 181.431 725.731 131.748Z" fill="url(#paint5_linear_1867_3777)"/>
            <path opacity="0.2" d="M504.041 -6.50028C511.631 0.226275 507.953 17.0427 495.751 31.1449C483.606 45.188 467.55 51.1475 459.96 44.48C452.37 37.8124 456.049 20.937 468.251 6.83482C480.454 -7.26735 496.451 -13.2268 504.041 -6.50028Z" fill="url(#paint6_linear_1867_3777)"/>
            <path opacity="0.2" d="M443.262 47.9029C445.598 49.26 446.006 53.0954 444.08 56.3996C442.153 59.7039 438.766 61.2971 436.431 59.881C434.096 58.5238 433.687 54.6885 435.614 51.3842C437.54 48.0799 440.927 46.4868 443.262 47.9029Z" fill="url(#paint7_linear_1867_3777)"/>
            <path opacity="0.2" d="M528.33 16.4532C530.256 17.5743 530.432 20.8786 528.738 23.7699C527.045 26.6611 524.126 28.1952 522.258 27.0741C520.331 25.953 520.156 22.6488 521.849 19.7575C523.542 16.8663 526.403 15.3322 528.33 16.4532Z" fill="url(#paint8_linear_1867_3777)"/>
            <path opacity="0.2" d="M491.372 76.4016C489.328 83.1871 483.49 87.3765 478.352 85.8423C473.214 84.2492 470.703 77.4636 472.688 70.6781C474.732 63.8925 480.57 59.7032 485.708 61.2373C490.846 62.8304 493.415 69.616 491.372 76.4016Z" fill="url(#paint9_linear_1867_3777)"/>
            <path opacity="0.6" d="M992.027 12.7946C996.992 12.7946 1001.02 8.72633 1001.02 3.70785C1001.02 -1.31063 996.992 -5.37891 992.027 -5.37891C987.061 -5.37891 983.035 -1.31063 983.035 3.70785C983.035 8.72633 987.061 12.7946 992.027 12.7946Z" fill="url(#paint10_linear_1867_3777)"/>
            <path d="M332.038 107.733C332.586 107.733 333.031 107.284 333.031 106.73C333.031 106.176 332.586 105.727 332.038 105.727C331.49 105.727 331.045 106.176 331.045 106.73C331.045 107.284 331.49 107.733 332.038 107.733Z" fill="#88D1C3"/>
            <path d="M314.288 131.984C314.837 131.984 315.281 131.535 315.281 130.981C315.281 130.427 314.837 129.978 314.288 129.978C313.74 129.978 313.296 130.427 313.296 130.981C313.296 131.535 313.74 131.984 314.288 131.984Z" fill="#88D1C3"/>
            <path d="M357.085 152.459C357.633 152.459 358.078 152.01 358.078 151.456C358.078 150.902 357.633 150.453 357.085 150.453C356.537 150.453 356.093 150.902 356.093 151.456C356.093 152.01 356.537 152.459 357.085 152.459Z" fill="#88D1C3"/>
            <path d="M309.443 74.9855C310.217 74.9855 310.844 74.3515 310.844 73.5694C310.844 72.7873 310.217 72.1533 309.443 72.1533C308.669 72.1533 308.042 72.7873 308.042 73.5694C308.042 74.3515 308.669 74.9855 309.443 74.9855Z" fill="#88D1C3"/>
            <path d="M280.192 127.794C280.74 127.794 281.184 127.345 281.184 126.791C281.184 126.237 280.74 125.788 280.192 125.788C279.644 125.788 279.199 126.237 279.199 126.791C279.199 127.345 279.644 127.794 280.192 127.794Z" fill="#88D1C3"/>
            <path d="M262.268 109.208C262.945 109.208 263.494 108.653 263.494 107.969C263.494 107.284 262.945 106.729 262.268 106.729C261.59 106.729 261.042 107.284 261.042 107.969C261.042 108.653 261.59 109.208 262.268 109.208Z" fill="#88D1C3"/>
            <path d="M232.958 133.991C233.506 133.991 233.95 133.541 233.95 132.987C233.95 132.433 233.506 131.984 232.958 131.984C232.41 131.984 231.965 132.433 231.965 132.987C231.965 133.541 232.41 133.991 232.958 133.991Z" fill="#88D1C3"/>
            <path d="M251.816 66.784C252.074 66.784 252.283 66.5726 252.283 66.3119C252.283 66.0512 252.074 65.8398 251.816 65.8398C251.558 65.8398 251.349 66.0512 251.349 66.3119C251.349 66.5726 251.558 66.784 251.816 66.784Z" fill="#88D1C3"/>
            <path d="M215.734 89.9724C216.412 89.9724 216.96 89.4176 216.96 88.7332C216.96 88.0489 216.412 87.4941 215.734 87.4941C215.057 87.4941 214.508 88.0489 214.508 88.7332C214.508 89.4176 215.057 89.9724 215.734 89.9724Z" fill="#88D1C3"/>
            <path d="M232.14 36.8092C232.624 36.8092 233.016 36.413 233.016 35.9241C233.016 35.4353 232.624 35.0391 232.14 35.0391C231.657 35.0391 231.265 35.4353 231.265 35.9241C231.265 36.413 231.657 36.8092 232.14 36.8092Z" fill="#88D1C3"/>
            <path d="M192.322 107.969C192.644 107.969 192.905 107.705 192.905 107.379C192.905 107.053 192.644 106.789 192.322 106.789C191.999 106.789 191.738 107.053 191.738 107.379C191.738 107.705 191.999 107.969 192.322 107.969Z" fill="#88D1C3"/>
            <path d="M357.377 75.1035C357.796 75.1035 358.136 74.76 358.136 74.3364C358.136 73.9128 357.796 73.5693 357.377 73.5693C356.958 73.5693 356.618 73.9128 356.618 74.3364C356.618 74.76 356.958 75.1035 357.377 75.1035Z" fill="#88D1C3"/>
            <path d="M412.61 13.9744C413.061 13.9744 413.427 13.6045 413.427 13.1483C413.427 12.6921 413.061 12.3223 412.61 12.3223C412.158 12.3223 411.792 12.6921 411.792 13.1483C411.792 13.6045 412.158 13.9744 412.61 13.9744Z" fill="#88D1C3"/>
            <path d="M364.092 16.8069C364.866 16.8069 365.493 16.1728 365.493 15.3907C365.493 14.6086 364.866 13.9746 364.092 13.9746C363.318 13.9746 362.69 14.6086 362.69 15.3907C362.69 16.1728 363.318 16.8069 364.092 16.8069Z" fill="#88D1C3"/>
            <path d="M282.118 161.074C282.634 161.074 283.052 160.651 283.052 160.13C283.052 159.608 282.634 159.186 282.118 159.186C281.602 159.186 281.184 159.608 281.184 160.13C281.184 160.651 281.602 161.074 282.118 161.074Z" fill="#88D1C3"/>
            <path d="M156.414 121.6C157.027 121.6 157.524 121.098 157.524 120.478C157.524 119.859 157.027 119.357 156.414 119.357C155.802 119.357 155.305 119.859 155.305 120.478C155.305 121.098 155.802 121.6 156.414 121.6Z" fill="#88D1C3"/>
            <path d="M166.807 59.5847C167.065 59.5847 167.274 59.3734 167.274 59.1127C167.274 58.852 167.065 58.6406 166.807 58.6406C166.549 58.6406 166.34 58.852 166.34 59.1127C166.34 59.3734 166.549 59.5847 166.807 59.5847Z" fill="#88D1C3"/>
            <path d="M108.188 136.704C108.511 136.704 108.772 136.44 108.772 136.114C108.772 135.789 108.511 135.524 108.188 135.524C107.866 135.524 107.604 135.789 107.604 136.114C107.604 136.44 107.866 136.704 108.188 136.704Z" fill="#88D1C3"/>
            <path d="M138.607 92.2149C138.994 92.2149 139.308 91.8979 139.308 91.5069C139.308 91.1158 138.994 90.7988 138.607 90.7988C138.22 90.7988 137.906 91.1158 137.906 91.5069C137.906 91.8979 138.22 92.2149 138.607 92.2149Z" fill="#88D1C3"/>
            <path d="M56.8676 140.422C57.4157 140.422 57.8601 139.973 57.8601 139.419C57.8601 138.865 57.4157 138.416 56.8676 138.416C56.3194 138.416 55.875 138.865 55.875 139.419C55.875 139.973 56.3194 140.422 56.8676 140.422Z" fill="#88D1C3"/>
            <path d="M76.66 107.969C76.9825 107.969 77.2439 107.705 77.2439 107.379C77.2439 107.053 76.9825 106.789 76.66 106.789C76.3376 106.789 76.0762 107.053 76.0762 107.379C76.0762 107.705 76.3376 107.969 76.66 107.969Z" fill="#88D1C3"/>
            <path d="M106.67 68.1997C107.186 68.1997 107.604 67.777 107.604 67.2556C107.604 66.7342 107.186 66.3115 106.67 66.3115C106.154 66.3115 105.736 66.7342 105.736 67.2556C105.736 67.777 106.154 68.1997 106.67 68.1997Z" fill="#88D1C3"/>
            <path d="M53.3061 67.7276C53.693 67.7276 54.0067 67.4106 54.0067 67.0196C54.0067 66.6285 53.693 66.3115 53.3061 66.3115C52.9192 66.3115 52.6055 66.6285 52.6055 67.0196C52.6055 67.4106 52.9192 67.7276 53.3061 67.7276Z" fill="#88D1C3"/>
            <path d="M162.253 19.6391C162.576 19.6391 162.837 19.3749 162.837 19.049C162.837 18.7232 162.576 18.459 162.253 18.459C161.931 18.459 161.669 18.7232 161.669 19.049C161.669 19.3749 161.931 19.6391 162.253 19.6391Z" fill="#88D1C3"/>
            <path d="M101.241 20.2875C101.563 20.2875 101.824 20.0233 101.824 19.6975C101.824 19.3716 101.563 19.1074 101.241 19.1074C100.918 19.1074 100.657 19.3716 100.657 19.6975C100.657 20.0233 100.918 20.2875 101.241 20.2875Z" fill="#88D1C3"/>
            <path d="M138.49 44.775C138.781 44.775 139.016 44.5372 139.016 44.2439C139.016 43.9507 138.781 43.7129 138.49 43.7129C138.2 43.7129 137.965 43.9507 137.965 44.2439C137.965 44.5372 138.2 44.775 138.49 44.775Z" fill="#88D1C3"/>
            <path d="M222.74 4.53346C223.095 4.53346 223.383 4.24286 223.383 3.8844C223.383 3.52593 223.095 3.23535 222.74 3.23535C222.386 3.23535 222.098 3.52593 222.098 3.8844C222.098 4.24286 222.386 4.53346 222.74 4.53346Z" fill="#88D1C3"/>
            <path d="M82.2068 2.35034C82.4648 2.35034 82.6739 2.13899 82.6739 1.87829C82.6739 1.61758 82.4648 1.40625 82.2068 1.40625C81.9489 1.40625 81.7397 1.61758 81.7397 1.87829C81.7397 2.13899 81.9489 2.35034 82.2068 2.35034Z" fill="#88D1C3"/>
            <path d="M320.011 27.4275C320.268 27.4275 320.478 27.2161 320.478 26.9554C320.478 26.6947 320.268 26.4834 320.011 26.4834C319.753 26.4834 319.543 26.6947 319.543 26.9554C319.543 27.2161 319.753 27.4275 320.011 27.4275Z" fill="#88D1C3"/>
            <path d="M273.244 34.3311C273.437 34.3311 273.594 34.1726 273.594 33.9771C273.594 33.7815 273.437 33.623 273.244 33.623C273.05 33.623 272.894 33.7815 272.894 33.9771C272.894 34.1726 273.05 34.3311 273.244 34.3311Z" fill="#88D1C3"/>
            <path d="M308.042 3.4713C308.332 3.4713 308.567 3.23354 308.567 2.94025C308.567 2.64696 308.332 2.40918 308.042 2.40918C307.751 2.40918 307.516 2.64696 307.516 2.94025C307.516 3.23354 307.751 3.4713 308.042 3.4713Z" fill="#88D1C3"/>
            <path d="M704.187 3.70689C704.832 3.70689 705.355 3.17854 705.355 2.52679C705.355 1.87503 704.832 1.34668 704.187 1.34668C703.542 1.34668 703.019 1.87503 703.019 2.52679C703.019 3.17854 703.542 3.70689 704.187 3.70689Z" fill="#88D1C3"/>
            <path d="M744.122 41.0572C744.122 41.8832 743.48 42.5323 742.663 42.5323C741.845 42.5323 741.203 41.8832 741.203 41.0572C741.203 40.2311 741.845 39.582 742.663 39.582C743.48 39.582 744.122 40.2311 744.122 41.0572Z" fill="#88D1C3"/>
            <path d="M858.558 19.9925C859.106 19.9925 859.55 19.5434 859.55 18.9894C859.55 18.4354 859.106 17.9863 858.558 17.9863C858.01 17.9863 857.565 18.4354 857.565 18.9894C857.565 19.5434 858.01 19.9925 858.558 19.9925Z" fill="#88D1C3"/>
            <path d="M824.052 31.2629C824.052 31.7939 823.585 32.2659 823.059 32.2659C822.534 32.2659 822.067 31.7939 822.067 31.2629C822.067 30.7318 822.534 30.2598 823.059 30.2598C823.585 30.2598 824.052 30.6728 824.052 31.2629Z" fill="#88D1C3"/>
            <path d="M884.189 49.6131C884.64 49.6131 885.006 49.2432 885.006 48.787C885.006 48.3308 884.64 47.9609 884.189 47.9609C883.738 47.9609 883.372 48.3308 883.372 48.787C883.372 49.2432 883.738 49.6131 884.189 49.6131Z" fill="#88D1C3"/>
            <path d="M1014.45 68.0223C1014.67 68.0223 1014.86 67.8374 1014.86 67.6093C1014.86 67.3812 1014.67 67.1963 1014.45 67.1963C1014.22 67.1963 1014.04 67.3812 1014.04 67.6093C1014.04 67.8374 1014.22 68.0223 1014.45 68.0223Z" fill="#88D1C3"/>
            <path d="M1032.31 151.691C1032.54 151.691 1032.72 151.506 1032.72 151.278C1032.72 151.05 1032.54 150.865 1032.31 150.865C1032.09 150.865 1031.9 151.05 1031.9 151.278C1031.9 151.506 1032.09 151.691 1032.31 151.691Z" fill="#88D1C3"/>
            <path d="M837.947 81.3575C838.754 81.3575 839.407 80.697 839.407 79.8823C839.407 79.0677 838.754 78.4072 837.947 78.4072C837.141 78.4072 836.488 79.0677 836.488 79.8823C836.488 80.697 837.141 81.3575 837.947 81.3575Z" fill="#88D1C3"/>
            <path d="M836.897 136.999C837.316 136.999 837.656 136.656 837.656 136.232C837.656 135.808 837.316 135.465 836.897 135.465C836.478 135.465 836.138 135.808 836.138 136.232C836.138 136.656 836.478 136.999 836.897 136.999Z" fill="#88D1C3"/>
            <path d="M760.061 147.738C760.48 147.738 760.82 147.395 760.82 146.971C760.82 146.548 760.48 146.204 760.061 146.204C759.642 146.204 759.302 146.548 759.302 146.971C759.302 147.395 759.642 147.738 760.061 147.738Z" fill="#88D1C3"/>
            <path d="M782.306 111.923C783.145 111.923 783.824 111.236 783.824 110.389C783.824 109.541 783.145 108.854 782.306 108.854C781.468 108.854 780.788 109.541 780.788 110.389C780.788 111.236 781.468 111.923 782.306 111.923Z" fill="#88D1C3"/>
            <path d="M913.498 101.833C914.208 101.833 914.783 101.251 914.783 100.534C914.783 99.8175 914.208 99.2363 913.498 99.2363C912.789 99.2363 912.214 99.8175 912.214 100.534C912.214 101.251 912.789 101.833 913.498 101.833Z" fill="#88D1C3"/>
            <path d="M1008.55 115.227C1009.1 115.227 1009.54 114.778 1009.54 114.224C1009.54 113.67 1009.1 113.221 1008.55 113.221C1008 113.221 1007.56 113.67 1007.56 114.224C1007.56 114.778 1008 115.227 1008.55 115.227Z" fill="#88D1C3"/>
            <path d="M976.204 36.2189C976.978 36.2189 977.605 35.5849 977.605 34.8028C977.605 34.0207 976.978 33.3867 976.204 33.3867C975.43 33.3867 974.803 34.0207 974.803 34.8028C974.803 35.5849 975.43 36.2189 976.204 36.2189Z" fill="#88D1C3"/>
            <path d="M1070.96 136.528C1071.87 136.528 1072.6 135.788 1072.6 134.876C1072.6 133.963 1071.87 133.224 1070.96 133.224C1070.06 133.224 1069.33 133.963 1069.33 134.876C1069.33 135.788 1070.06 136.528 1070.96 136.528Z" fill="#88D1C3"/>
            <path d="M1059.11 66.0165C1059.95 66.0165 1060.63 65.3297 1060.63 64.4824C1060.63 63.6351 1059.95 62.9482 1059.11 62.9482C1058.27 62.9482 1057.59 63.6351 1057.59 64.4824C1057.59 65.3297 1058.27 66.0165 1059.11 66.0165Z" fill="#88D1C3"/>
            <path d="M1039.61 0.402664C1040.16 0.402664 1040.6 -0.0464336 1040.6 -0.600426C1040.6 -1.15442 1040.16 -1.60352 1039.61 -1.60352C1039.06 -1.60352 1038.62 -1.15442 1038.62 -0.600426C1038.62 -0.0464336 1039.06 0.402664 1039.61 0.402664Z" fill="#88D1C3"/>
            <g opacity="0.8">
                <path opacity="0.8" d="M287.957 106.081L288.074 105.373C286.439 105.078 285.038 104.193 284.045 102.836C283.111 101.479 282.702 99.8268 282.994 98.1747L282.293 98.0566C282.001 99.8858 282.41 101.774 283.461 103.249C284.57 104.783 286.147 105.786 287.957 106.081Z" fill="#4F457C"/>
                <path opacity="0.8" d="M288.249 104.311L288.366 103.603C287.198 103.426 286.205 102.777 285.505 101.774C284.804 100.771 284.571 99.5911 284.746 98.411L284.045 98.293C283.812 99.6501 284.104 101.066 284.921 102.187C285.738 103.367 286.906 104.075 288.249 104.311Z" fill="#4F457C"/>
                <path opacity="0.8" d="M288.541 102.541L288.658 101.833C287.957 101.715 287.373 101.302 286.964 100.771C286.556 100.181 286.381 99.4726 286.497 98.7645L285.797 98.6465C285.622 99.5316 285.855 100.417 286.381 101.184C286.906 101.892 287.665 102.423 288.541 102.541Z" fill="#4F457C"/>
                <path opacity="0.8" d="M289.825 100.24C290.176 100.004 290.351 99.6499 290.351 99.2959L297.474 100.417C297.882 100.476 298.233 100.417 298.525 100.24C300.451 98.8829 300.802 96.0507 299.634 93.4544L300.451 92.8644C301.386 93.8675 302.495 94.3985 303.137 93.9265L304.772 92.7464L305.764 94.2215L304.13 95.4016C303.721 95.6966 303.604 96.2867 303.896 96.6997L309.91 105.255C310.202 105.668 310.786 105.786 311.194 105.491L315.515 102.423C315.924 102.128 316.04 101.538 315.748 101.125L309.676 92.5104C309.384 92.0973 308.801 91.9793 308.392 92.2743L306.757 93.4544L305.764 91.9793L307.75 90.5632C308.158 90.2682 308.275 89.7371 308.158 89.0881C308.625 89.0881 309.151 89.0291 309.326 88.9111C310.202 88.262 310.027 86.5509 308.917 85.0167C307.808 83.4826 306.29 82.7155 305.414 83.3646C305.239 83.4826 305.005 84.0136 304.889 84.4267C304.305 84.0726 303.779 84.0137 303.371 84.3087L301.386 85.7248L300.276 84.1907L301.911 83.0106C302.32 82.7155 302.437 82.1255 302.145 81.7125L296.131 73.1567C295.839 72.7437 295.255 72.6257 294.846 72.9207L290.526 75.989C290.117 76.284 290 76.8741 290.292 77.2871L296.306 85.8428C296.598 86.2558 297.182 86.3738 297.591 86.0788L299.225 84.8987L300.335 86.4329L298.7 87.613C297.999 88.085 298.174 89.3241 298.817 90.5632L297.999 91.1532C296.014 89.1471 293.212 88.616 291.285 89.9732C290.993 90.2092 290.818 90.5042 290.759 90.9172L289.475 98.0568C289.125 97.9388 288.716 97.9978 288.424 98.2338C287.84 98.6469 287.723 99.4139 288.132 100.004C288.541 100.594 289.3 100.594 289.825 100.24ZM290.584 98.5879L293.095 96.7587C293.795 97.7618 294.671 98.6469 295.489 99.3549L290.584 98.5879ZM292.686 96.1687L290.176 97.9978L291.051 93.0414C291.46 94.0445 292.044 95.1656 292.686 96.1687Z" fill="#4F457C"/>
            </g>
            <g opacity="0.8">
                <path opacity="0.8" d="M871.169 22.2354L871.11 23.0614C873.095 23.2384 874.847 24.2415 876.131 25.7756C877.358 27.3098 877.941 29.2569 877.766 31.2631L878.584 31.3221C878.817 29.0799 878.175 26.8967 876.774 25.1856C875.372 23.5335 873.387 22.4124 871.169 22.2354Z" fill="#4F457C"/>
                <path opacity="0.8" d="M870.994 24.3594L870.935 25.1854C872.336 25.3035 873.621 26.0115 874.497 27.1326C875.372 28.2537 875.781 29.6108 875.664 31.0859L876.482 31.1449C876.657 29.4928 876.19 27.8997 875.139 26.6016C874.088 25.3034 872.628 24.5364 870.994 24.3594Z" fill="#4F457C"/>
                <path opacity="0.8" d="M870.76 26.4834L870.702 27.3095C871.519 27.3685 872.336 27.7815 872.862 28.4896C873.387 29.1386 873.621 29.9647 873.562 30.8498L874.38 30.9088C874.497 29.8467 874.146 28.7846 873.504 27.8995C872.803 27.1324 871.811 26.6014 870.76 26.4834Z" fill="#4F457C"/>
                <path opacity="0.8" d="M869.417 29.3749C869.067 29.6699 868.892 30.083 868.892 30.555L860.543 29.6109C860.484 29.6109 860.426 29.6109 860.367 29.6109C859.959 29.6109 859.608 29.7879 859.375 30.083C857.39 32.3251 857.039 35.6884 858.324 38.3436L856.047 40.2318L854.879 38.7567C854.529 38.2846 853.828 38.2256 853.361 38.5797L850.617 40.8218L849.041 38.8747L850.909 37.3406C851.376 36.9275 851.434 36.2785 851.084 35.8064L843.202 26.0706C842.793 25.5986 842.151 25.5396 841.684 25.8936L836.78 29.9059C836.313 30.319 836.254 30.968 836.605 31.4401L844.487 41.1759C844.895 41.6479 845.538 41.7069 846.005 41.3529L847.873 39.8188L849.449 41.7659L846.939 43.8311C846.472 44.1851 846.413 44.8932 846.764 45.3652L846.939 45.6012L845.012 46.1913C844.72 46.3093 844.487 46.4863 844.37 46.8404C844.253 47.1354 844.37 47.4894 844.545 47.7254L848.749 52.9179C848.924 53.1539 849.274 53.2719 849.566 53.2719C849.741 53.2719 849.916 53.1539 850.033 53.0949C850.15 53.0359 850.208 52.9179 850.267 52.7999L851.201 50.9707L851.259 51.0887C851.61 51.5607 852.31 51.6198 852.777 51.2657L855.288 49.2006L856.923 51.2067L855.054 52.7408C854.587 53.1539 854.529 53.8029 854.879 54.275L862.761 64.0108C863.17 64.4828 863.812 64.5418 864.279 64.1878L869.184 60.1755C869.651 59.7624 869.709 59.1134 869.359 58.6413L861.477 48.9055C861.068 48.4335 860.426 48.3745 859.959 48.7285L858.09 50.2626L856.456 48.2565L859.2 46.0143C859.667 45.6603 859.725 44.9522 859.375 44.4802L858.149 42.946L860.426 41.0579C862.761 42.887 866.089 43.241 868.658 41.7069C868.717 41.6479 868.775 41.6479 868.833 41.5889C869.067 41.4119 869.242 41.1169 869.3 40.7628C869.3 40.7038 869.3 40.6448 869.3 40.5858L870.059 32.0891C870.468 32.1481 870.935 32.0891 871.286 31.7941C871.928 31.2631 871.986 30.319 871.519 29.6699C871.052 29.0209 870.059 28.8439 869.417 29.3749ZM861.769 30.614L868.658 31.3811L864.922 34.4493L861.769 30.614ZM865.447 35.1574L869.184 32.0891L868.6 39.0517L865.447 35.1574Z" fill="#4F457C"/>
            </g>
        </g>
        <path d="M600.892 107.158H278.309C264.892 107.158 257.542 99.7494 249.725 91.9327C240.684 82.891 231.35 73.4994 210.934 73.4994H138.192V69.416H210.934C233.1 69.416 243.484 79.8577 252.642 89.016C260.109 96.541 266.584 103.016 278.309 103.016H600.834C605.792 103.016 610.459 100.041 615.884 96.5994C623.525 91.7577 633.034 85.691 647.442 85.691H1035.3V89.7744H647.442C634.2 89.7744 625.625 95.2577 618.042 100.041C612.15 103.891 607.017 107.158 600.892 107.158Z" fill="#49499B"/>
        <path d="M287.817 145.542H231.7L219.45 99.4583H203.933L199.558 80.5583H186.492L181.475 95.6667H145.483L145.017 53.6667H135.333L130.667 42.2917H120.925L112.642 72.275H99.8667L96.775 79.7417H86.1583L83.3583 61.3083H72.0417V22.6333H64.1667L57.8083 96.5417H29.6333L22.4 48.0083H17.15V62.1833H11.4333L0 81.025V308H1120V72.275H1070.42V11.9L1035.3 -7V34.5333L1017.92 47.6583V69.9417L996.917 81.725V102.375H974.283V67.2583L940.8 52.9667V97.7666L917.175 108.617V127.225H831.542V26.5417H825.942C825.942 26.5417 823.083 83.0667 813.925 104.417H800.392L793.158 118.65H783.942V61.1333H770.175V33.25H757.692L750.808 78.9833H724.908V102.667H714.408H696.092L687.808 129.558H674.683V111.533H647.792L638.283 149.508H622.883L613.025 136.442H517.883L513.275 68.8333L502.775 63.7V33.1917L490.292 40.075V72.2167L471.567 83.5333V125.942L453.192 148.225V169.75H426.65L425.6 158.433L405.592 148.167L401.683 105.35H384.65V62.7083C384.65 62.7083 358.225 86.6833 358.225 145.483H287.817V145.542Z" fill="#49499B"/>
        <path d="M847 86.6836H823.842V131.367H847V86.6836Z" fill="#49499B"/>
        <path d="M930.3 23.9164H865.958C864.442 23.9164 863.158 22.6914 863.158 21.1164C863.158 19.5997 864.383 18.3164 865.958 18.3164H930.3C931.817 18.3164 933.1 19.5414 933.1 21.1164C933.1 22.6914 931.875 23.9164 930.3 23.9164Z" fill="#49499B"/>
        <path d="M163.45 26.6579C163.45 16.6828 171.558 8.63281 181.475 8.63281C191.391 8.63281 199.5 16.7412 199.5 26.6579" fill="#49499B"/>
        <path d="M204.808 31.4998H158.258C156.566 31.4998 155.167 30.0998 155.167 28.4081C155.167 26.7164 156.566 25.3164 158.258 25.3164H204.808C206.5 25.3164 207.9 26.7164 207.9 28.4081C207.9 30.0998 206.5 31.4998 204.808 31.4998Z" fill="#49499B"/>
        <path d="M183.808 29.1074H181.533H179.2L171.5 106.866H181.533H191.508L183.808 29.1074Z" fill="#49499B"/>
        <path d="M898.158 -5.25C885.092 -5.25 874.533 5.30833 874.533 18.375H921.725C921.783 5.30833 911.167 -5.25 898.158 -5.25Z" fill="#49499B"/>
        <path d="M902.475 20.2998H893.842V140.816H902.475V20.2998Z" fill="#49499B"/>
        <path d="M845.367 22.1084H811.592V27.3H845.367V22.1084Z" fill="#49499B"/>
        <path d="M841.808 35.7578H827.225V47.9495H841.808V35.7578Z" fill="#49499B"/>
        <path d="M841.808 62.8252H815.15V75.0168H841.808V62.8252Z" fill="#49499B"/>
        <path d="M873.133 103.541H859.133V137.899H873.133V103.541Z" fill="#49499B"/>
        <path d="M883.4 116.899H869.167V137.899H883.4V116.899Z" fill="#49499B"/>
        <path d="M830.2 47.9502H815.15V57.5168H830.2V47.9502Z" fill="#49499B"/>
        <path d="M557.317 162.983C571.396 162.983 582.809 151.57 582.809 137.492C582.809 123.413 571.396 112 557.317 112C543.238 112 531.825 123.413 531.825 137.492C531.825 151.57 543.238 162.983 557.317 162.983Z" fill="#49499B"/>
        <path d="M244.767 165.083C256.043 165.083 265.183 150.144 265.183 131.716C265.183 113.288 256.043 98.3496 244.767 98.3496C233.491 98.3496 224.35 113.288 224.35 131.716C224.35 150.144 233.491 165.083 244.767 165.083Z" fill="#49499B"/>
        <path d="M702.042 55.8829C709.645 55.8829 715.808 49.7194 715.808 42.1163C715.808 34.5132 709.645 28.3496 702.042 28.3496C694.438 28.3496 688.275 34.5132 688.275 42.1163C688.275 49.7194 694.438 55.8829 702.042 55.8829Z" fill="#49499B"/>
        <path d="M722.458 44.9164H681.683C680.108 44.9164 678.883 43.6331 678.883 42.1164C678.883 40.5414 680.167 39.3164 681.683 39.3164H722.458C724.033 39.3164 725.258 40.5997 725.258 42.1164C725.258 43.6914 724.033 44.9164 722.458 44.9164Z" fill="#49499B"/>
        <path d="M716.625 64.8666H687.517C686.408 64.8666 685.475 63.9916 685.475 62.8249C685.475 61.7165 686.35 60.7832 687.517 60.7832H716.625C717.733 60.7832 718.667 61.6582 718.667 62.8249C718.667 63.9332 717.733 64.8666 716.625 64.8666Z" fill="#49499B"/>
        <path d="M712.425 76.3583H691.658C690.725 76.3583 689.967 75.6 689.967 74.6666V74.0833C689.967 73.15 690.725 72.3916 691.658 72.3916H712.425C713.358 72.3916 714.117 73.15 714.117 74.0833V74.6666C714.175 75.6 713.417 76.3583 712.425 76.3583Z" fill="#49499B"/>
        <path d="M705.075 52.7334H702.042H699.008C699.008 94.2084 692.592 116.9 692.592 116.9H702.042H711.492C711.492 116.9 705.075 94.1501 705.075 52.7334Z" fill="#49499B"/>
        <path d="M430.558 177.799H424.375V147.349C424.375 145.658 425.775 144.258 427.467 144.258C429.158 144.258 430.558 145.658 430.558 147.349V177.799V177.799Z" fill="#49499B"/>
        <path d="M669.667 82.1328H661.792V121.508H669.667V82.1328Z" fill="#49499B"/>
        <path d="M667.333 95.4336H657.3V124.075H667.333V95.4336Z" fill="#49499B"/>
        <path d="M638.284 124.133H631.575V157.383H638.284V124.133Z" fill="#49499B"/>
        <path d="M743.4 51.0996H735.642V89.5413H743.4V51.0996Z" fill="#49499B"/>
        <path d="M967.108 15.5166H951.533V75.7166H967.108V15.5166Z" fill="#49499B"/>
        <path d="M1010.16 37.4502H1004.62V79.6835H1010.16V37.4502Z" fill="#49499B"/>
        <path d="M126.817 -8.5752V45.7332L139.184 57.2832V-3.20852L126.817 -8.5752Z" fill="#49499B"/>
        <path d="M82.4252 18.5498H53.2002V25.0248H82.4252V18.5498Z" fill="#49499B"/>
        <path d="M82.3668 29.9834H63.5835V36.4584H82.3668V29.9834Z" fill="#49499B"/>
        <path d="M82.4252 41.416H63.5835V47.891H82.4252V41.416Z" fill="#49499B"/>
        <path d="M76.6501 45.1494H67.8418V65.2744H76.6501V45.1494Z" fill="#49499B"/>
        <path d="M234.617 157.033H218.633V63.2917L234.617 50.9834V157.033Z" fill="#49499B"/>
        <path d="M244.708 23.625H231.758V136.908H244.708V23.625Z" fill="#49499B"/>
        <path d="M309.167 104.767H288.4V165.083H309.167V104.767Z" fill="#49499B"/>
        <path d="M296.683 128.916H248.15V162.224H296.683V128.916Z" fill="#49499B"/>
        <path d="M176.4 106.867H158.258V92.9836C158.258 88.5503 161.875 84.9336 166.308 84.9336H176.458V106.867H176.4Z" fill="#49499B"/>
        <path d="M48.9998 104.766H40.4248V76.1831C40.4248 73.8498 42.3498 71.9248 44.6831 71.9248C47.0165 71.9248 48.9415 73.8498 48.9415 76.1831V104.766H48.9998Z" fill="#49499B"/>
        <path d="M329.991 156.041H321.417V133.466C321.417 130.958 323.458 128.975 325.908 128.975H329.991V156.041Z" fill="#49499B"/>
        <path d="M606.433 121.45H598.792V149.742H606.433V121.45Z" fill="#49499B"/>
        <path d="M984.55 94.1494H969.15V109.549H984.55V94.1494Z" fill="#49499B"/>
        <path d="M549.966 103.075H545.066V128.392H549.966V103.075Z" fill="#49499B"/>
        <path d="M574.467 100.158H569.684V129.208H574.467V100.158Z" fill="#49499B"/>
        <path d="M651.117 140.7H628.95V152.484H651.117V140.7Z" fill="#49499B"/>
        <path d="M371.934 131.717H340.317V150.5H371.934V131.717Z" fill="#49499B"/>
        <path d="M1099.7 43.4001V53.2584L1087.92 58.5667V72.2167H1070.42V11.9001L1035.3 -6.99995V34.5334L1017.92 47.6584V69.9417L1010.16 74.3167V37.4501H1004.62V77.4084L996.917 81.725V85.6917H974.283V67.3167L967.167 64.2834V15.4584H951.592V57.6334L940.858 53.0251V85.6917H902.533V23.9167H930.358C931.875 23.9167 933.158 22.6917 933.158 21.1167C933.158 19.6001 931.933 18.3167 930.358 18.3167H921.783C921.783 5.25006 911.225 -5.30827 898.158 -5.30827C885.092 -5.30827 874.533 5.25006 874.533 18.3167H865.958C864.442 18.3167 863.158 19.5417 863.158 21.1167C863.158 22.6334 864.383 23.9167 865.958 23.9167H893.783V85.75H831.483V75.0167H841.75V62.8251H831.483V47.9501H841.75V35.7584H831.483V27.2417H845.308V22.05H811.533V27.2417H825.883C825.767 29.6334 825.3 37.625 824.308 47.8917H815.092V57.4584H823.317C823.142 59.2084 822.908 60.9584 822.675 62.7667H815.033V74.9584H820.983C820.4 78.6334 819.758 82.2501 819.117 85.6917H783.883V61.0751H770.117V33.1917H757.633L750.75 78.925H743.342V51.0417H735.583V78.925H724.85V85.75H706.475C706.183 82.8334 705.95 79.6834 705.717 76.3584H712.367C713.3 76.3584 714.058 75.6 714.058 74.6667V74.0834C714.058 73.15 713.3 72.3917 712.367 72.3917H705.483C705.367 70 705.25 67.4917 705.192 64.925H716.567C717.675 64.925 718.608 64.05 718.608 62.8834C718.608 61.775 717.733 60.8417 716.567 60.8417H705.075C705.017 59.0917 705.017 57.3417 705.017 55.5334C710.267 54.3667 714.35 50.225 715.458 44.9167H722.4C723.975 44.9167 725.2 43.6334 725.2 42.1167C725.2 40.6001 723.917 39.3167 722.4 39.3167H715.458C714.175 33.0751 708.633 28.35 701.983 28.35C695.333 28.35 689.792 33.0167 688.508 39.3167H681.567C679.992 39.3167 678.767 40.6001 678.767 42.1167C678.767 43.6334 680.05 44.9167 681.567 44.9167H688.508C689.617 50.1667 693.7 54.3667 698.95 55.5334C698.95 57.3417 698.892 59.0917 698.892 60.8417H687.4C686.292 60.8417 685.358 61.7167 685.358 62.8834C685.358 63.9917 686.233 64.925 687.4 64.925H698.775C698.717 67.4917 698.6 70 698.483 72.3917H691.6C690.667 72.3917 689.908 73.15 689.908 74.0834V74.6667C689.908 75.6 690.667 76.3584 691.6 76.3584H698.25C698.017 79.6834 697.783 82.775 697.492 85.75H669.667V82.1334H661.792V85.75H647.442C633.033 85.75 623.525 91.8167 615.883 96.6584C610.517 100.1 605.85 103.075 600.833 103.075H574.408V100.158H569.625V103.075H549.908H545.008H515.492L513.158 68.8917L502.658 63.7584V33.25L490.175 40.1334V72.2751L471.45 83.5917V103.075H384.65V62.7667C384.65 62.7667 371.292 74.9001 363.592 103.075H278.308C266.583 103.075 260.108 96.6001 252.642 89.0751C250.192 86.5667 247.625 84.0001 244.767 81.6084V23.6834H231.817V53.2001L218.633 63.35V69.9417C216.242 69.6501 213.675 69.475 210.992 69.475H187.833L184.042 31.5584H204.75C206.442 31.5584 207.842 30.1584 207.842 28.4667C207.842 26.775 206.442 25.375 204.75 25.375H199.5C198.8 16.0417 191.042 8.69173 181.533 8.69173C172.025 8.69173 164.208 16.0417 163.567 25.375H158.317C156.625 25.375 155.225 26.775 155.225 28.4667C155.225 30.1584 156.625 31.5584 158.317 31.5584H179.025L175.233 69.475H145.25L145.075 53.725H139.125V-3.14996L126.758 -8.5166V42.35H120.867L112.583 72.3334H99.8083L96.7167 79.8H86.1L83.3 61.3667H76.5917V48.0667H82.3667V41.4167H71.9833V36.4584H82.3667V29.9834H71.9833V25.0251H82.3667V18.55H53.2V25.0251H63.9333L57.8083 96.5417H49V76.1834C49 73.85 47.075 71.925 44.7417 71.925C42.4083 71.925 40.4833 73.85 40.4833 76.1834V96.5417H29.6333L22.4 48.0084H17.15V62.1834H11.4333L0 81.0251V308H1120V82.3084V72.2167V31.85H1111.31C1104.89 31.85 1099.7 37.0417 1099.7 43.4001ZM873.133 116.9V103.542H859.133V127.283H847V89.8334H893.842V127.283H883.4V116.9H873.133V116.9ZM569.683 107.158V115.15C566.008 113.108 561.808 111.942 557.317 111.942C554.75 111.942 552.3 112.35 549.967 112.992V107.1H569.683V107.158ZM340.317 131.717V145.542H329.992V128.917H325.908C323.4 128.917 321.417 130.958 321.417 133.408V145.483H309.167V107.1H362.483C360.733 114.333 359.392 122.5 358.692 131.658H340.317V131.717ZM249.725 91.9334C257.542 99.75 264.892 107.158 278.308 107.158H288.4V128.917H265.067C264.192 111.825 255.442 98.35 244.767 98.35V87.0334C246.458 88.6667 248.092 90.3 249.725 91.9334ZM145.308 73.5H174.825L173.717 84.875H166.25C161.817 84.875 158.2 88.4917 158.2 92.925V95.6667H145.483L145.308 73.5ZM199.558 80.5584H188.942L188.242 73.5H210.933C213.675 73.5 216.242 73.675 218.575 73.9667V99.4001H203.933L199.558 80.5584ZM453.192 148.225V161.7H443.333V169.75H430.558V147.35C430.558 145.658 429.158 144.258 427.467 144.258C425.775 144.258 424.375 145.658 424.375 147.35V157.792L405.592 148.225L401.8 107.158H471.508V125.942L453.192 148.225ZM515.842 107.158H545.067V115.092C537.425 119.292 532.175 127.225 531.825 136.5H517.883L515.842 107.158ZM613.025 136.5H606.492V121.508H598.85V136.5H582.808C582.517 129.442 579.367 123.083 574.467 118.592V107.158H600.892C607.075 107.158 612.208 103.892 618.1 100.1C625.683 95.2584 634.2 89.8334 647.5 89.8334H661.85V95.4334H657.358V111.533H647.85L640.558 140.758H638.342V124.133H631.633V140.758H629.008V149.567H622.942L613.025 136.5ZM674.683 129.558V111.533H669.667V89.8334H697.2C696.442 97.0084 695.508 102.842 694.75 107.217L687.867 129.558H674.683V129.558ZM714.408 102.667H708.633C708.05 99.05 707.467 94.7334 706.942 89.8334H724.908V102.667H714.408ZM800.392 104.417L793.158 118.65H783.942V89.8334H818.3C817.017 95.4917 815.558 100.567 813.867 104.417H800.392ZM917.175 108.675V127.283H902.475V89.8334H940.8V97.8834L917.175 108.675ZM984.55 102.433V94.1501H974.283V89.8334H996.917V102.433H984.55Z" fill="url(#paint11_linear_1867_3777)"/>
        <path d="M244.767 79.8584H241.325L236.542 217.583H252.992L248.15 79.8584H244.767Z" fill="#444491"/>
        <path d="M220.15 79.8584C220.15 93.4501 231.175 104.475 244.767 104.475C258.359 104.475 269.384 93.4501 269.384 79.8584H220.15Z" fill="#444491"/>
        <path d="M276.675 82.2497H212.8C210.934 82.2497 209.417 80.7331 209.417 78.8664V78.5747C209.417 76.7081 210.934 75.1914 212.8 75.1914H276.675C278.542 75.1914 280.059 76.7081 280.059 78.5747V78.8664C280.059 80.7331 278.542 82.2497 276.675 82.2497Z" fill="#444491"/>
        <path d="M257.075 119.116H232.458C230.767 119.116 229.367 117.716 229.367 116.024C229.367 114.333 230.767 112.933 232.458 112.933H257.075C258.767 112.933 260.167 114.333 260.167 116.024C260.167 117.716 258.767 119.116 257.075 119.116Z" fill="#444491"/>
        <path d="M240.334 149.449H222.542V214.024H240.334V149.449Z" fill="#444491"/>
        <path d="M129.559 55.9414C114.917 55.9414 103.075 112.058 103.075 181.358H156.042C156.042 112.058 144.142 55.9414 129.559 55.9414Z" fill="#444491"/>
        <path d="M549.617 142.392L543.317 148.167C539.875 151.317 537.95 155.75 537.95 160.417V270.083H582.167V181.533C582.167 176.05 579.425 170.858 574.875 167.825L568.225 163.333V97.125H559.417C553.934 97.125 549.559 101.558 549.559 106.983L549.617 142.392Z" fill="#444491"/>
        <path d="M708.225 95.1992H659.75C657.3 95.1992 655.2 97.0659 655.142 99.5159C655.084 102.024 657.067 104.066 659.575 104.066H673.75C676.667 104.066 679.059 106.458 679.059 109.374V112.349C679.059 115.266 676.667 117.658 673.75 117.658H665.584C663.134 117.658 661.034 119.524 660.975 121.974C660.917 124.483 662.9 126.524 665.409 126.524H673.75C676.667 126.524 679.059 128.916 679.059 131.833V222.891V245.291H688.8V222.891V131.716C688.8 128.799 691.192 126.408 694.109 126.408H702.275C704.725 126.408 706.825 124.541 706.884 122.091C706.942 119.583 704.959 117.541 702.45 117.541H694.109C691.192 117.541 688.8 115.149 688.8 112.233V109.258C688.8 106.341 691.192 103.949 694.109 103.949H708.109C710.559 103.949 712.659 102.083 712.717 99.6325C712.717 97.2409 710.734 95.1992 708.225 95.1992Z" fill="#444491"/>
        <path d="M664.533 152.017H633.733V256.492H664.533V152.017Z" fill="#444491"/>
        <path d="M645.634 129.967H626.559V234.442H645.634V129.967Z" fill="#444491"/>
        <path d="M928.9 151.375H900.784V229.483H928.9V151.375Z" fill="#444491"/>
        <path d="M936.134 89.833H921.667V225.4H936.134V89.833Z" fill="#444491"/>
        <path d="M953.809 118.883H931.059V211.749H953.809V118.883Z" fill="#444491"/>
        <path d="M1004.15 59.4414C990.383 59.4414 979.242 83.8247 979.242 113.925C979.242 144.025 990.383 168.408 1004.15 168.408" fill="#444491"/>
        <path d="M1018.21 81.8994H1002.05V164.674H1018.21V81.8994Z" fill="#444491"/>
        <path d="M344.167 124.191V231.466H373.509V153.475C373.509 137.316 360.384 124.191 344.167 124.191Z" fill="#444491"/>
        <path d="M353.967 160.533H329V217.583H353.967V160.533Z" fill="#444491"/>
        <path d="M-0.116699 175.466H174.825L198.158 197.633H293.767V209.591H384.825V226.275H431.083L459.142 251.416H509.833L521.15 259.758H599.375L619.558 231.466H732.783V190.458H749.525L760.842 160.533H766.733V204.283H789.892V221.375H848.458V201.716H914.842L953.808 176.633V157.616H1028.07L1052.22 175.116H1066.97L1084.71 193.841H1120V307.999H-3.25424e-05L-0.116699 175.466Z" fill="#444491"/>
        <path d="M1094.04 135.916H1044.17V200.199H1094.04V135.916Z" fill="#444491"/>
        <path opacity="0.7" d="M1094.04 193.841V135.916H1044.17V169.283L1028.07 157.616H1018.21V81.8997H1004.15V59.4414C990.383 59.4414 979.242 83.8247 979.242 113.925C979.242 131.775 983.15 147.641 989.217 157.616H953.75V118.883H936.017V89.8331H921.667V151.375H900.783V201.716H848.458V221.433H789.892V204.283H766.733V160.533H760.842L749.525 190.458H732.783V231.466H688.742V222.775V131.716C688.742 128.8 691.133 126.408 694.05 126.408H702.217C704.667 126.408 706.767 124.541 706.825 122.091C706.883 119.583 704.9 117.541 702.392 117.541H694.05C691.133 117.541 688.742 115.15 688.742 112.233V109.258C688.742 106.341 691.133 103.95 694.05 103.95H708.05C710.5 103.95 712.6 102.083 712.658 99.633C712.717 97.1247 710.733 95.0831 708.225 95.0831H659.75C657.3 95.0831 655.2 96.9497 655.142 99.3997C655.083 101.908 657.067 103.95 659.575 103.95H673.75C676.667 103.95 679.058 106.341 679.058 109.258V112.233C679.058 115.15 676.667 117.541 673.75 117.541H665.583C663.133 117.541 661.033 119.408 660.975 121.858C660.917 124.366 662.9 126.408 665.408 126.408H673.75C676.667 126.408 679.058 128.8 679.058 131.716V222.775V231.466H664.592V152.016H645.692V129.966H626.617V180.075H616V236.658L599.492 259.816H582.167V181.533C582.167 176.05 579.425 170.858 574.875 167.825L568.225 163.333V97.1247H559.417C553.933 97.1247 549.558 101.558 549.558 106.983L549.617 142.333L543.317 148.108C539.875 151.258 537.95 155.691 537.95 160.358V259.758H521.15L509.833 251.416H459.142L431.083 226.275H384.825V209.591H373.567V153.533C373.567 137.316 360.442 124.191 344.225 124.191V160.533H329.058V209.591H293.767V197.633H252.292L249.55 119.175H257.075C258.767 119.175 260.167 117.775 260.167 116.083C260.167 114.391 258.767 112.991 257.075 112.991H249.317L249.025 104.125C259.817 102.258 268.158 93.333 269.267 82.308H276.733C278.6 82.308 280.117 80.7914 280.117 78.9247V78.633C280.117 76.7664 278.6 75.2497 276.733 75.2497H212.8C210.933 75.2497 209.417 76.7664 209.417 78.633V78.9247C209.417 80.7914 210.933 82.308 212.8 82.308H220.267C221.317 93.333 229.717 102.258 240.508 104.125L240.217 112.991H232.458C230.767 112.991 229.367 114.391 229.367 116.083C229.367 117.775 230.767 119.175 232.458 119.175H239.983L238.933 149.45H222.542V197.633H198.158L174.825 175.466H155.983C155.342 108.966 143.733 55.9414 129.558 55.9414C115.383 55.9414 103.775 108.908 103.133 175.466H-0.116699L-3.25424e-05 308H1120V193.841H1094.04Z" fill="url(#paint12_linear_1867_3777)"/>
        <path d="M263.639 43.7316C267.97 43.3419 271.236 40.2946 270.933 36.9254C270.63 33.5562 266.873 31.1409 262.541 31.5306C258.209 31.9204 254.943 34.9676 255.246 38.3368C255.549 41.706 259.307 44.1214 263.639 43.7316Z" fill="#444491"/>
        <path d="M273.419 36.2394L267.028 36.8145L267.112 37.7441L273.503 37.169L273.419 36.2394Z" fill="#444491"/>
        <path d="M274.983 38.0919C275.821 38.0919 276.5 37.4129 276.5 36.5753C276.5 35.7376 275.821 35.0586 274.983 35.0586C274.146 35.0586 273.467 35.7376 273.467 36.5753C273.467 37.4129 274.146 38.0919 274.983 38.0919Z" fill="#444491"/>
        <path d="M255.208 38.3249L251.125 30.5082C251.125 30.5082 257.017 29.5165 259.817 32.4332L255.208 38.3249Z" fill="#444491"/>
        <path d="M255.208 38.3252L252.642 46.7835C252.642 46.7835 258.592 46.7251 260.808 43.3418L255.208 38.3252Z" fill="#444491"/>
        <g opacity="0.3">
            <path opacity="0.3" d="M249.258 40.6581C241.266 41.4748 233.217 42.6414 225.225 43.9831C217.233 45.3831 209.3 47.0164 201.367 48.8248L195.475 50.2831L189.583 51.9164C188.592 52.2081 187.6 52.4414 186.667 52.7331L183.75 53.6081L180.833 54.4831C179.842 54.7748 178.908 55.0664 177.917 55.4164L172.142 57.3414C171.15 57.6331 170.217 58.0414 169.283 58.3914L166.425 59.4414L163.567 60.4914C162.633 60.8414 161.7 61.2498 160.767 61.6581L155.167 64.0497L160.708 61.4831C161.642 61.0748 162.516 60.6081 163.508 60.1998L166.308 59.0331L169.108 57.8664C170.041 57.4581 170.975 57.1081 171.966 56.7581L177.683 54.6581C178.617 54.3081 179.608 53.9581 180.542 53.6664L183.458 52.6747L186.375 51.6831C187.367 51.3331 188.3 51.0997 189.292 50.8081L195.125 49.0581L201.017 47.4247C208.892 45.3247 216.825 43.4581 224.816 41.8248C232.808 40.1914 240.8 38.7914 248.966 37.7414C249.783 37.6248 250.483 38.2081 250.6 39.0248C250.717 39.8414 250.133 40.5414 249.316 40.6581C249.316 40.6581 249.316 40.6581 249.258 40.6581Z" fill="url(#paint13_linear_1867_3777)"/>
        </g>
        <path d="M509.308 100.1C509.483 99.0496 509.542 97.9413 509.542 96.833C509.542 84.6413 499.625 74.7246 487.433 74.7246C475.242 74.7246 465.325 84.6413 465.325 96.833C465.325 97.9413 465.384 99.0496 465.559 100.1H509.308Z" fill="#393984"/>
        <path d="M851.9 202.474H825.3V109.899H802.025V140.466L787.617 152.599V199.849H740.133V162.808L705.892 130.958V157.849L693.525 166.949V184.449H645.517L625.8 210.349H560V163.741H552.65V175.466L531.65 182.174V206.791H476.525L469 195.708H397.133L393.167 205.799H283.908L254.683 174.941H139.183V112.291H127.4L118.533 136.558H96.775L88.7833 152.599H28.9333V121.099H0V307.999H1120V172.549H935.9L915.25 204.166H860.417L851.9 202.474Z" fill="#393984"/>
        <path d="M341.892 60.8997H264.308C261.158 60.8997 258.65 58.3913 258.65 55.2413C258.65 52.0913 261.158 49.583 264.308 49.583H341.892C345.042 49.583 347.55 52.0913 347.55 55.2413C347.55 58.333 345.042 60.8997 341.892 60.8997Z" fill="#393984"/>
        <path d="M341.892 71.9248H301.642V83.2415H341.892C345.042 83.2415 347.55 80.7331 347.55 77.5831C347.55 74.4331 345.042 71.9248 341.892 71.9248Z" fill="#393984"/>
        <path d="M341.892 93.4492H301.642V104.766H341.892C345.042 104.766 347.55 102.258 347.55 99.1076C347.55 95.9576 345.042 93.4492 341.892 93.4492Z" fill="#393984"/>
        <path d="M341.892 114.975H301.642V126.291H341.892C345.042 126.291 347.55 123.783 347.55 120.633C347.55 117.483 345.042 114.975 341.892 114.975Z" fill="#393984"/>
        <path d="M341.892 136.558H301.642V147.874H341.892C345.042 147.874 347.55 145.366 347.55 142.216C347.55 139.066 345.042 136.558 341.892 136.558Z" fill="#393984"/>
        <path d="M341.892 158.083H301.642V169.4H341.892C345.042 169.4 347.55 166.891 347.55 163.741C347.55 160.591 345.042 158.083 341.892 158.083Z" fill="#393984"/>
        <path d="M313.075 57.2832V209.883H253.167C253.167 209.883 287.933 97.7665 293.183 80.6749C295.867 71.8665 294.058 60.4915 283.267 60.4915C272.475 60.4915 313.075 57.2832 313.075 57.2832Z" fill="#393984"/>
        <path d="M917.875 101.791H823.9C820.809 101.791 818.3 99.2825 818.3 96.1908C818.3 93.0992 820.809 90.5908 823.9 90.5908H917.875C920.967 90.5908 923.475 93.0992 923.475 96.1908C923.475 99.2242 920.967 101.791 917.875 101.791Z" fill="#393984"/>
        <path d="M901.484 67.6082H840.292C837.2 67.6082 834.692 65.0999 834.692 62.0082C834.692 58.9165 837.2 56.4082 840.292 56.4082H901.484C904.575 56.4082 907.084 58.9165 907.084 62.0082C907.084 65.0999 904.575 67.6082 901.484 67.6082Z" fill="#393984"/>
        <path d="M882.583 121.041C881.65 110.366 883.808 101.733 893.2 101.733C900.842 101.733 870.858 96.1914 870.858 96.1914C870.858 96.1914 840.875 101.733 848.517 101.733C857.908 101.733 860.008 110.366 859.133 121.041C858.084 133.641 843.208 254.741 843.208 254.741H870.858H898.508C898.567 254.741 883.692 133.583 882.583 121.041Z" fill="#393984"/>
        <path d="M875.584 59.4414H866.192V91.2914H875.584V59.4414Z" fill="#393984"/>
        <path d="M870.858 31.8496C857.325 31.8496 846.358 42.8163 846.358 56.3496H895.358C895.358 42.8163 884.392 31.8496 870.858 31.8496Z" fill="#393984"/>
        <path d="M513.742 121.508H461.242C459.259 121.508 457.45 122.966 457.275 124.949C457.042 127.224 458.85 129.15 461.067 129.15H473.2C478.975 129.15 483.7 133.875 483.7 139.65V218.749C483.7 220.674 485.1 222.424 487.025 222.599C489.242 222.833 491.109 221.083 491.109 218.924V139.708C491.109 133.933 495.834 129.208 501.609 129.208H513.567C515.55 129.208 517.358 127.749 517.533 125.766C517.825 123.491 516.017 121.508 513.742 121.508Z" fill="#393984"/>
        <path d="M513.742 97.2998H461.242C459.259 97.2998 457.45 98.7582 457.275 100.741C457.042 103.016 458.85 104.941 461.067 104.941H473.2C478.975 104.941 483.7 109.666 483.7 115.441V194.541C483.7 196.466 485.1 198.216 487.025 198.391C489.242 198.625 491.109 196.875 491.109 194.716V115.441C491.109 109.666 495.834 104.941 501.609 104.941H513.567C515.55 104.941 517.358 103.483 517.533 101.5C517.825 99.2248 516.017 97.2998 513.742 97.2998Z" fill="#393984"/>
        <path d="M207.9 128.916H186.55V192.441H207.9V128.916Z" fill="#393984"/>
        <path d="M223.417 151.841H206.15V193.957H223.417V151.841Z" fill="#393984"/>
        <path d="M303.1 83.1828V70.1162L299.425 83.1828H303.1Z" fill="#3E3E93"/>
        <path d="M303.1 147.874V136.558H284.55L281.342 147.874H303.1Z" fill="#3E3E93"/>
        <path d="M290.558 114.975L287.408 126.291H303.1V114.975H290.558Z" fill="#3E3E93"/>
        <path d="M278.483 158.083L273.758 175.116H303.1V158.083H278.483Z" fill="#3E3E93"/>
        <path d="M296.567 93.4492L293.417 104.766H303.1V93.4492H296.567Z" fill="#3E3E93"/>
        <path d="M359.917 208.775L372.925 151.025H386.925V114.975H399.408V169.4L419.65 180.541V209.883H361.025" fill="#393984"/>
        <path d="M487.433 78.8076C477.75 78.8076 469.817 87.6159 469.408 97.1826H483.058C483.058 97.1826 482.358 85.4576 487.433 78.8076Z" fill="#3D3D87"/>
        <path d="M793.042 200.433V156.041L801.558 148.633V200.433H793.042Z" fill="#3D3D87"/>
        <path d="M870.858 113.399V106.341H866.191L865.433 113.399H870.858Z" fill="#3D3D87"/>
        <path d="M864.908 118.532L864.15 125.941H870.858V118.532H864.908Z" fill="#3D3D87"/>
        <path d="M863.625 131.016L862.867 138.424H870.858V131.016H863.625Z" fill="#3D3D87"/>
        <path d="M862.342 143.558L861.583 150.966H870.859V143.558H862.342Z" fill="#3D3D87"/>
        <path d="M861.058 156.041L860.3 163.508H870.858V156.041H861.058Z" fill="#3D3D87"/>
        <path d="M851.958 56.3492H865.433C865.433 43.6325 870.859 37.4492 870.859 37.4492C860.417 37.4492 851.958 45.9659 851.958 56.3492Z" fill="#3D3D87"/>
        <path d="M803.308 170.216H578.9C547.983 170.216 536.375 162.224 526.983 155.749C520.042 150.966 514.558 147.174 502.775 147.174H134.167V141.341H502.775C516.367 141.341 523.133 146.008 530.308 150.908C539.467 157.208 549.85 164.324 578.9 164.324H803.367C807.508 164.324 808.15 162.866 809.55 157.733C811.708 149.858 815.033 137.899 843.967 137.899H1120V143.733H843.908C819.408 143.733 817.133 152.016 815.15 159.308C813.808 164.149 812.117 170.216 803.308 170.216Z" fill="#3A3A8C"/>
        <path d="M1038.04 115.558H1008.99V197.633H1038.04V115.558Z" fill="#393984"/>
        <path d="M1061.55 146.242L1027.95 132.767V214.842H1061.55V146.242Z" fill="#393984"/>
        <path d="M980.992 152.658H973.059V182.525H980.992V152.658Z" fill="#393984"/>
        <path d="M1092.23 205.217C1104.28 205.217 1114.05 185.812 1114.05 161.875C1114.05 137.938 1104.28 118.533 1092.23 118.533C1080.18 118.533 1070.42 137.938 1070.42 161.875C1070.42 185.812 1080.18 205.217 1092.23 205.217Z" fill="#393984"/>
        <path d="M1030.63 169.808C1038.82 169.808 1045.45 152.44 1045.45 131.016C1045.45 109.592 1038.82 92.2246 1030.63 92.2246C1022.45 92.2246 1015.82 109.592 1015.82 131.016C1015.82 152.44 1022.45 169.808 1030.63 169.808Z" fill="#393984"/>
        <path d="M976.85 198.683C991.283 198.683 1002.98 186.982 1002.98 172.549C1002.98 158.116 991.283 146.416 976.85 146.416C962.417 146.416 950.717 158.116 950.717 172.549C950.717 186.982 962.417 198.683 976.85 198.683Z" fill="#393984"/>
        <path d="M972.242 129.208H966V170.158H972.242V129.208Z" fill="#393984"/>
        <path d="M988.05 123.608H983.15V163.508H988.05V123.608Z" fill="#393984"/>
        <path d="M688.683 73.0919C688.275 70.1752 693.525 66.9669 700.525 65.9169C707.525 64.8669 713.475 66.3836 713.942 69.3002C714 69.6502 714.175 71.0503 714.234 71.4003C714.642 74.3169 709.392 77.5253 702.392 78.5753C695.392 79.6253 689.442 78.1086 688.975 75.1919C688.917 74.8419 688.742 73.5002 688.683 73.0919Z" fill="#393984"/>
        <path d="M686.529 75.5285L693.337 74.5098L693.121 73.0675L686.313 74.0862L686.529 75.5285Z" fill="#393984"/>
        <path d="M684.017 77.6993C685.402 77.6993 686.525 76.5763 686.525 75.191C686.525 73.8057 685.402 72.6826 684.017 72.6826C682.631 72.6826 681.508 73.8057 681.508 75.191C681.508 76.5763 682.631 77.6993 684.017 77.6993Z" fill="#393984"/>
        <path d="M700.642 74.4914C704.798 74.4914 708.167 71.1223 708.167 66.9664C708.167 62.8104 704.798 59.4414 700.642 59.4414C696.486 59.4414 693.117 62.8104 693.117 66.9664C693.117 71.1223 696.486 74.4914 700.642 74.4914Z" fill="#393984"/>
        <path d="M703.733 78.3996C703.733 78.3996 709.917 82.3663 716.917 80.9663L712.425 74.7246L703.733 78.3996Z" fill="#393984"/>
        <path d="M710.792 66.4994L713.008 61.6577C713.008 61.6577 706.008 61.4244 703.267 65.5077L710.792 66.4994Z" fill="#393984"/>
        <g opacity="0.3">
            <path opacity="0.3" d="M718.083 67.4916C719.25 67.2 720.359 66.9666 721.525 66.675C722.634 66.4416 723.8 66.2083 724.908 66.0333C727.183 65.625 729.459 65.2166 731.734 64.925C734.009 64.575 736.283 64.3416 738.558 64.0499C740.833 63.7583 743.109 63.5833 745.384 63.3499C754.484 62.5333 763.583 62.125 772.742 61.95L779.567 61.8916L786.392 61.95C790.942 61.95 795.492 62.1833 800.042 62.3583C802.317 62.4166 804.592 62.5916 806.867 62.7083L813.692 63.1166L827.283 64.2249L813.634 63.5833L806.808 63.4083C804.533 63.35 802.258 63.2916 799.983 63.2916C795.433 63.2916 790.883 63.2333 786.333 63.4083L779.509 63.5833L772.683 63.9333C763.642 64.4583 754.6 65.1583 745.617 66.325C743.4 66.675 741.125 66.9083 738.908 67.2583C736.692 67.6083 734.417 67.9583 732.259 68.425C730.042 68.8333 727.825 69.3 725.609 69.7666C724.5 70 723.392 70.2917 722.342 70.525C721.292 70.8167 720.184 71.1083 719.192 71.4H719.134C718.025 71.75 716.917 71.1083 716.567 70.0583C716.217 68.95 716.858 67.8416 717.908 67.4916C718.025 67.4916 718.025 67.4916 718.083 67.4916Z" fill="url(#paint14_linear_1867_3777)"/>
        </g>
        <path d="M803.308 170.216H578.9C547.983 170.216 536.375 162.224 526.983 155.749C520.042 150.966 514.558 147.174 502.775 147.174H134.167V141.341H502.775C516.367 141.341 523.133 146.008 530.308 150.908C539.466 157.208 549.85 164.324 578.9 164.324H803.366C807.508 164.324 808.15 162.866 809.55 157.733C811.708 149.858 815.033 137.899 843.967 137.899H942.258V143.733H843.967C819.467 143.733 817.191 152.016 815.208 159.308C813.808 164.149 812.116 170.216 803.308 170.216Z" fill="#3A3A8C"/>
        <path d="M509.308 100.1C509.483 99.0496 509.542 97.9413 509.542 96.833C509.542 84.6413 499.625 74.7246 487.433 74.7246C475.242 74.7246 465.325 84.6413 465.325 96.833C465.325 97.9413 465.384 99.0496 465.559 100.1H509.308Z" fill="#393984"/>
        <path d="M851.9 202.474H825.3V109.899H802.025V140.466L787.617 152.599V199.849H740.133V162.808L705.892 130.958V157.849L693.525 166.949V184.449H645.517L625.8 210.349H560V163.741H552.65V175.466L531.65 182.174V206.791H476.525L469 195.708H397.133L393.167 205.799H283.908L254.683 174.941H139.183V112.291H127.4L118.533 136.558H96.775L88.7833 152.599H28.9333V121.099H0V307.999H1120V172.549H935.9L915.25 204.166H860.417L851.9 202.474Z" fill="#393984"/>
        <path d="M341.892 60.8997H264.308C261.158 60.8997 258.65 58.3913 258.65 55.2413C258.65 52.0913 261.158 49.583 264.308 49.583H341.892C345.042 49.583 347.55 52.0913 347.55 55.2413C347.55 58.333 345.042 60.8997 341.892 60.8997Z" fill="#393984"/>
        <path d="M341.892 71.9248H301.642V83.2415H341.892C345.042 83.2415 347.55 80.7331 347.55 77.5831C347.55 74.4331 345.042 71.9248 341.892 71.9248Z" fill="#393984"/>
        <path d="M341.892 93.4492H301.642V104.766H341.892C345.042 104.766 347.55 102.258 347.55 99.1076C347.55 95.9576 345.042 93.4492 341.892 93.4492Z" fill="#393984"/>
        <path d="M341.892 114.975H301.642V126.291H341.892C345.042 126.291 347.55 123.783 347.55 120.633C347.55 117.483 345.042 114.975 341.892 114.975Z" fill="#393984"/>
        <path d="M341.892 136.558H301.642V147.874H341.892C345.042 147.874 347.55 145.366 347.55 142.216C347.55 139.066 345.042 136.558 341.892 136.558Z" fill="#393984"/>
        <path d="M341.892 158.083H301.642V169.4H341.892C345.042 169.4 347.55 166.891 347.55 163.741C347.55 160.591 345.042 158.083 341.892 158.083Z" fill="#393984"/>
        <path d="M313.075 57.2832V209.883H253.167C253.167 209.883 287.933 97.7665 293.183 80.6749C295.867 71.8665 294.058 60.4915 283.267 60.4915C272.475 60.4915 313.075 57.2832 313.075 57.2832Z" fill="#393984"/>
        <path d="M917.875 101.791H823.9C820.809 101.791 818.3 99.2825 818.3 96.1908C818.3 93.0992 820.809 90.5908 823.9 90.5908H917.875C920.967 90.5908 923.475 93.0992 923.475 96.1908C923.475 99.2242 920.967 101.791 917.875 101.791Z" fill="#393984"/>
        <path d="M901.484 67.6082H840.292C837.2 67.6082 834.692 65.0999 834.692 62.0082C834.692 58.9165 837.2 56.4082 840.292 56.4082H901.484C904.575 56.4082 907.084 58.9165 907.084 62.0082C907.084 65.0999 904.575 67.6082 901.484 67.6082Z" fill="#393984"/>
        <path d="M882.583 121.041C881.65 110.366 883.808 101.733 893.2 101.733C900.842 101.733 870.858 96.1914 870.858 96.1914C870.858 96.1914 840.875 101.733 848.517 101.733C857.908 101.733 860.008 110.366 859.133 121.041C858.084 133.641 843.208 254.741 843.208 254.741H870.858H898.508C898.567 254.741 883.692 133.583 882.583 121.041Z" fill="#393984"/>
        <path d="M875.584 59.4414H866.192V91.2914H875.584V59.4414Z" fill="#393984"/>
        <path d="M870.858 31.8496C857.325 31.8496 846.358 42.8163 846.358 56.3496H895.358C895.358 42.8163 884.392 31.8496 870.858 31.8496Z" fill="#393984"/>
        <path d="M513.742 121.508H461.242C459.259 121.508 457.45 122.966 457.275 124.949C457.042 127.224 458.85 129.15 461.067 129.15H473.2C478.975 129.15 483.7 133.875 483.7 139.65V218.749C483.7 220.674 485.1 222.424 487.025 222.599C489.242 222.833 491.109 221.083 491.109 218.924V139.708C491.109 133.933 495.834 129.208 501.609 129.208H513.567C515.55 129.208 517.358 127.749 517.533 125.766C517.825 123.491 516.017 121.508 513.742 121.508Z" fill="#393984"/>
        <path d="M513.742 97.2998H461.242C459.259 97.2998 457.45 98.7582 457.275 100.741C457.042 103.016 458.85 104.941 461.067 104.941H473.2C478.975 104.941 483.7 109.666 483.7 115.441V194.541C483.7 196.466 485.1 198.216 487.025 198.391C489.242 198.625 491.109 196.875 491.109 194.716V115.441C491.109 109.666 495.834 104.941 501.609 104.941H513.567C515.55 104.941 517.358 103.483 517.533 101.5C517.825 99.2248 516.017 97.2998 513.742 97.2998Z" fill="#393984"/>
        <path d="M207.9 128.916H186.55V192.441H207.9V128.916Z" fill="#393984"/>
        <path d="M223.417 151.841H206.15V193.957H223.417V151.841Z" fill="#393984"/>
        <path d="M303.1 83.1828V70.1162L299.425 83.1828H303.1Z" fill="#3E3E93"/>
        <path d="M303.1 147.874V136.558H284.55L281.342 147.874H303.1Z" fill="#3E3E93"/>
        <path d="M290.558 114.975L287.408 126.291H303.1V114.975H290.558Z" fill="#3E3E93"/>
        <path d="M278.483 158.083L273.758 175.116H303.1V158.083H278.483Z" fill="#3E3E93"/>
        <path d="M296.567 93.4492L293.417 104.766H303.1V93.4492H296.567Z" fill="#3E3E93"/>
        <path d="M359.917 208.775L372.925 151.025H386.925V114.975H399.408V169.4L419.65 180.541V209.883H361.025" fill="#393984"/>
        <path d="M487.433 78.8076C477.75 78.8076 469.817 87.6159 469.408 97.1826H483.058C483.058 97.1826 482.358 85.4576 487.433 78.8076Z" fill="#3D3D87"/>
        <path d="M793.042 200.433V156.041L801.558 148.633V200.433H793.042Z" fill="#3D3D87"/>
        <path d="M870.858 113.399V106.341H866.191L865.433 113.399H870.858Z" fill="#3D3D87"/>
        <path d="M864.908 118.532L864.15 125.941H870.858V118.532H864.908Z" fill="#3D3D87"/>
        <path d="M863.625 131.016L862.867 138.424H870.858V131.016H863.625Z" fill="#3D3D87"/>
        <path d="M862.342 143.558L861.583 150.966H870.859V143.558H862.342Z" fill="#3D3D87"/>
        <path d="M861.058 156.041L860.3 163.508H870.858V156.041H861.058Z" fill="#3D3D87"/>
        <path d="M851.958 56.3492H865.433C865.433 43.6325 870.859 37.4492 870.859 37.4492C860.417 37.4492 851.958 45.9659 851.958 56.3492Z" fill="#3D3D87"/>
        <path d="M1038.04 115.558H1008.99V197.633H1038.04V115.558Z" fill="#393984"/>
        <path d="M1061.55 146.242L1027.95 132.767V214.842H1061.55V146.242Z" fill="#393984"/>
        <path d="M980.992 152.658H973.059V182.525H980.992V152.658Z" fill="#393984"/>
        <path d="M1092.23 205.217C1104.28 205.217 1114.05 185.812 1114.05 161.875C1114.05 137.938 1104.28 118.533 1092.23 118.533C1080.18 118.533 1070.42 137.938 1070.42 161.875C1070.42 185.812 1080.18 205.217 1092.23 205.217Z" fill="#393984"/>
        <path d="M1030.63 169.808C1038.82 169.808 1045.45 152.44 1045.45 131.016C1045.45 109.592 1038.82 92.2246 1030.63 92.2246C1022.45 92.2246 1015.82 109.592 1015.82 131.016C1015.82 152.44 1022.45 169.808 1030.63 169.808Z" fill="#393984"/>
        <path d="M976.85 198.683C991.283 198.683 1002.98 186.982 1002.98 172.549C1002.98 158.116 991.283 146.416 976.85 146.416C962.417 146.416 950.717 158.116 950.717 172.549C950.717 186.982 962.417 198.683 976.85 198.683Z" fill="#393984"/>
        <path d="M972.242 129.208H966V170.158H972.242V129.208Z" fill="#393984"/>
        <path d="M988.05 123.608H983.15V163.508H988.05V123.608Z" fill="#393984"/>
        <path d="M688.683 73.0919C688.275 70.1752 693.525 66.9669 700.525 65.9169C707.525 64.8669 713.475 66.3836 713.942 69.3002C714 69.6502 714.175 71.0503 714.234 71.4003C714.642 74.3169 709.392 77.5253 702.392 78.5753C695.392 79.6253 689.442 78.1086 688.975 75.1919C688.917 74.8419 688.742 73.5002 688.683 73.0919Z" fill="#393984"/>
        <path d="M686.529 75.5285L693.337 74.5098L693.121 73.0675L686.313 74.0862L686.529 75.5285Z" fill="#393984"/>
        <path d="M684.017 77.6993C685.402 77.6993 686.525 76.5763 686.525 75.191C686.525 73.8057 685.402 72.6826 684.017 72.6826C682.631 72.6826 681.508 73.8057 681.508 75.191C681.508 76.5763 682.631 77.6993 684.017 77.6993Z" fill="#393984"/>
        <path d="M700.642 74.4914C704.798 74.4914 708.167 71.1223 708.167 66.9664C708.167 62.8104 704.798 59.4414 700.642 59.4414C696.486 59.4414 693.117 62.8104 693.117 66.9664C693.117 71.1223 696.486 74.4914 700.642 74.4914Z" fill="#393984"/>
        <path d="M703.733 78.3996C703.733 78.3996 709.917 82.3663 716.917 80.9663L712.425 74.7246L703.733 78.3996Z" fill="#393984"/>
        <path d="M710.792 66.4994L713.008 61.6577C713.008 61.6577 706.008 61.4244 703.267 65.5077L710.792 66.4994Z" fill="#393984"/>
        <g opacity="0.3">
            <path opacity="0.3" d="M718.083 67.4916C719.25 67.2 720.359 66.9666 721.525 66.675C722.634 66.4416 723.8 66.2083 724.908 66.0333C727.183 65.625 729.459 65.2166 731.734 64.925C734.009 64.575 736.283 64.3416 738.558 64.0499C740.833 63.7583 743.109 63.5833 745.384 63.3499C754.484 62.5333 763.583 62.125 772.742 61.95L779.567 61.8916L786.392 61.95C790.942 61.95 795.492 62.1833 800.042 62.3583C802.317 62.4166 804.592 62.5916 806.867 62.7083L813.692 63.1166L827.283 64.2249L813.634 63.5833L806.808 63.4083C804.533 63.35 802.258 63.2916 799.983 63.2916C795.433 63.2916 790.883 63.2333 786.333 63.4083L779.509 63.5833L772.683 63.9333C763.642 64.4583 754.6 65.1583 745.617 66.325C743.4 66.675 741.125 66.9083 738.908 67.2583C736.692 67.6083 734.417 67.9583 732.259 68.425C730.042 68.8333 727.825 69.3 725.609 69.7666C724.5 70 723.392 70.2917 722.342 70.525C721.292 70.8167 720.184 71.1083 719.192 71.4H719.134C718.025 71.75 716.917 71.1083 716.567 70.0583C716.217 68.95 716.858 67.8416 717.908 67.4916C718.025 67.4916 718.025 67.4916 718.083 67.4916Z" fill="url(#paint15_linear_1867_3777)"/>
        </g>
        <path d="M1120 137.9H1110.43C1106.52 126.175 1099.82 118.475 1092.23 118.475C1084.65 118.475 1077.94 126.175 1074.03 137.9H1045.22C1045.39 135.683 1045.45 133.35 1045.45 131.017C1045.45 109.608 1038.8 92.2248 1030.63 92.2248C1024.57 92.2248 1019.32 101.85 1017.04 115.558H1008.99V137.9H988.05V123.55H983.15V137.9H972.242V129.208H966V137.9H942.142H884.45C883.458 129.5 882.817 123.375 882.583 120.983C881.708 110.775 883.633 102.433 892.033 101.733H917.875C920.967 101.733 923.475 99.2249 923.475 96.1332C923.475 93.0415 920.967 90.5332 917.875 90.5332H875.583V67.6082H901.483C904.575 67.6082 907.083 65.0999 907.083 62.0082C907.083 58.9165 904.575 56.4082 901.483 56.4082H895.417C895.417 42.8749 884.45 31.9082 870.917 31.9082C857.383 31.9082 846.417 42.8749 846.417 56.4082H840.35C837.258 56.4082 834.75 58.9165 834.75 62.0082C834.75 65.0999 837.258 67.6082 840.35 67.6082H866.25V90.5332H823.958C820.867 90.5332 818.358 93.0415 818.358 96.1332C818.358 99.2249 820.867 101.733 823.958 101.733H849.8C858.2 102.433 860.125 110.775 859.25 120.983C859.075 123.317 858.375 129.442 857.383 137.9H844.025C836.033 137.9 830.025 138.833 825.417 140.292V109.842H802.142V140.467L787.733 152.6V164.325H740.25V162.75L706.008 130.9V157.792L697.142 164.267H578.9C549.85 164.267 539.467 157.15 530.308 150.85C523.133 145.95 516.367 141.283 502.775 141.283H491.167V139.592C491.167 133.817 495.892 129.092 501.667 129.092H513.625C515.608 129.092 517.417 127.633 517.592 125.65C517.825 123.375 516.017 121.45 513.8 121.45H491.167V115.383C491.167 109.608 495.892 104.883 501.667 104.883H513.625C515.608 104.883 517.417 103.425 517.592 101.442C517.825 99.1665 516.017 97.2415 513.8 97.2415H509.6C509.6 97.0665 509.6 96.9499 509.6 96.7749C509.6 84.5832 499.683 74.6665 487.492 74.6665C475.3 74.6665 465.383 84.5832 465.383 96.7749C465.383 96.9499 465.383 97.0665 465.383 97.2415H461.358C459.375 97.2415 457.567 98.6998 457.392 100.683C457.158 102.958 458.967 104.883 461.183 104.883H473.317C479.092 104.883 483.817 109.608 483.817 115.383V121.45H461.358C459.375 121.45 457.567 122.908 457.392 124.892C457.158 127.167 458.967 129.092 461.183 129.092H473.317C479.092 129.092 483.817 133.817 483.817 139.592V141.283H399.408V114.917H386.925V141.283H347.492C347.083 138.542 344.75 136.5 341.892 136.5H313.017V126.233H341.892C345.042 126.233 347.55 123.725 347.55 120.575C347.55 117.425 345.042 114.917 341.892 114.917H313.017V104.65H341.892C345.042 104.65 347.55 102.142 347.55 98.9915C347.55 95.8415 345.042 93.3332 341.892 93.3332H313.017V83.0665H341.892C345.042 83.0665 347.55 80.5582 347.55 77.4082C347.55 74.2582 345.042 71.7499 341.892 71.7499H313.017V60.7248H341.892C345.042 60.7248 347.55 58.2165 347.55 55.0665C347.55 51.9165 345.042 49.4082 341.892 49.4082H264.308C261.158 49.4082 258.65 51.9165 258.65 55.0665C258.65 58.2165 261.158 60.7248 264.308 60.7248H286.417C294.35 62.7665 295.575 72.6832 293.183 80.4999C290.85 88.0832 282.742 114.333 274.458 141.167H207.958V128.917H186.608V141.342H139.3V112.233H127.517L118.65 136.5H96.8917L88.9583 152.6H28.9333V121.1H0V308H1120V172.55H1113.35C1113.76 169.108 1113.99 165.55 1113.99 161.875C1113.99 155.4 1113.29 149.275 1112.01 143.792H1119.94V137.9H1120ZM983.15 143.733V147.117C981.108 146.592 979.008 146.358 976.85 146.358C975.275 146.358 973.758 146.533 972.242 146.767V143.733H983.15ZM386.925 151.025H372.925L360.558 205.8H313.017V190.983H341.892C345.042 190.983 347.55 188.475 347.55 185.325C347.55 182.175 345.042 179.667 341.892 179.667H313.017V169.4H341.892C345.042 169.4 347.55 166.892 347.55 163.742C347.55 160.592 345.042 158.083 341.892 158.083H313.017V147.817H341.892C342.883 147.817 343.758 147.583 344.575 147.175H386.925V151.025ZM272.592 147.175C268.742 159.658 264.892 171.967 261.683 182.35L254.683 174.942H223.417V151.842H207.9V147.175H272.592V147.175ZM139.183 147.175H186.492V174.942H139.183V147.175ZM469 195.708H468.125V177.742H462.933V195.708H419.65V180.542L399.408 169.4V147.175H483.758V194.542V206.733H476.525L469 195.708ZM531.65 182.175V206.792H522.317V183.633H514.908V168.233H502.425V206.792H491.108V194.775V147.233H502.717C514.5 147.233 519.983 151.025 526.925 155.808C532.992 159.95 539.992 164.792 552.592 167.708V175.525L531.65 182.175ZM645.517 184.45L625.8 210.35H576.917V193.667C576.917 192.325 575.808 191.217 574.467 191.217C573.125 191.217 572.017 192.325 572.017 193.667V210.408H560V168.992C565.367 169.75 571.608 170.217 578.9 170.217H693.525V184.45H645.517ZM740.133 199.85V170.158H787.617V199.85H740.133ZM825.3 146.417C829.383 144.783 835.217 143.733 843.908 143.733H856.625C854.7 160.008 852.075 182.175 849.567 202.475H843.208V175.992C843.208 173.833 841.458 172.083 839.3 172.083C837.142 172.083 835.392 173.833 835.392 175.992V202.475H825.3V146.417ZM935.9 172.55L915.25 204.167H892.383C889.875 183.458 887.133 160.475 885.15 143.792H942.2H966.058V148.75C957.017 152.892 950.775 161.992 950.775 172.55H935.9ZM988.05 148.925V143.792H1008.99V172.55H1002.98C1002.98 162.108 996.858 153.125 988.05 148.925ZM1071.06 172.55H1061.55V146.242L1055.37 143.733H1072.4C1071.12 149.217 1070.42 155.342 1070.42 161.817C1070.42 165.55 1070.65 169.108 1071.06 172.55Z" fill="url(#paint16_linear_1867_3777)"/>
    </g>
    <defs>
        <linearGradient id="paint0_linear_1867_3777" x1="560.51" y1="206.979" x2="560.51" y2="32.6593" gradientUnits="userSpaceOnUse">
            <stop stop-color="#88D1C3" stop-opacity="0.5"/>
            <stop offset="1" stop-color="#50508E" stop-opacity="0"/>
        </linearGradient>
        <linearGradient id="paint1_linear_1867_3777" x1="462.844" y1="-16.3526" x2="601.005" y2="177.043" gradientUnits="userSpaceOnUse">
            <stop stop-color="#7FFFE0" stop-opacity="0.5"/>
            <stop offset="0.1177" stop-color="#7DF9DD" stop-opacity="0.4412"/>
            <stop offset="0.2768" stop-color="#79E8D5" stop-opacity="0.3616"/>
            <stop offset="0.4597" stop-color="#71CBC8" stop-opacity="0.2702"/>
            <stop offset="0.6603" stop-color="#66A4B5" stop-opacity="0.1699"/>
            <stop offset="0.8728" stop-color="#59729E" stop-opacity="0.0636007"/>
            <stop offset="1" stop-color="#50508E" stop-opacity="0"/>
        </linearGradient>
        <linearGradient id="paint2_linear_1867_3777" x1="207.695" y1="307.546" x2="207.695" y2="-72.8162" gradientUnits="userSpaceOnUse">
            <stop stop-color="#7FFFE0" stop-opacity="0.5"/>
            <stop offset="0.1177" stop-color="#7DF9DD" stop-opacity="0.4412"/>
            <stop offset="0.2768" stop-color="#79E8D5" stop-opacity="0.3616"/>
            <stop offset="0.4597" stop-color="#71CBC8" stop-opacity="0.2702"/>
            <stop offset="0.6603" stop-color="#66A4B5" stop-opacity="0.1699"/>
            <stop offset="0.8728" stop-color="#59729E" stop-opacity="0.0636007"/>
            <stop offset="1" stop-color="#50508E" stop-opacity="0"/>
        </linearGradient>
        <linearGradient id="paint3_linear_1867_3777" x1="560.5" y1="578.665" x2="560.5" y2="-240.308" gradientUnits="userSpaceOnUse">
            <stop stop-color="#7FFFE0" stop-opacity="0.5"/>
            <stop offset="0.1177" stop-color="#7DF9DD" stop-opacity="0.4412"/>
            <stop offset="0.2768" stop-color="#79E8D5" stop-opacity="0.3616"/>
            <stop offset="0.4597" stop-color="#71CBC8" stop-opacity="0.2702"/>
            <stop offset="0.6603" stop-color="#66A4B5" stop-opacity="0.1699"/>
            <stop offset="0.8728" stop-color="#59729E" stop-opacity="0.0636007"/>
            <stop offset="1" stop-color="#50508E" stop-opacity="0"/>
        </linearGradient>
        <linearGradient id="paint4_linear_1867_3777" x1="789.153" y1="307.546" x2="789.153" y2="-72.8157" gradientUnits="userSpaceOnUse">
            <stop stop-color="#7FFFE0" stop-opacity="0.5"/>
            <stop offset="0.1177" stop-color="#7DF9DD" stop-opacity="0.4412"/>
            <stop offset="0.2768" stop-color="#79E8D5" stop-opacity="0.3616"/>
            <stop offset="0.4597" stop-color="#71CBC8" stop-opacity="0.2702"/>
            <stop offset="0.6603" stop-color="#66A4B5" stop-opacity="0.1699"/>
            <stop offset="0.8728" stop-color="#59729E" stop-opacity="0.0636007"/>
            <stop offset="1" stop-color="#50508E" stop-opacity="0"/>
        </linearGradient>
        <linearGradient id="paint5_linear_1867_3777" x1="414.245" y1="207.899" x2="560.162" y2="124.926" gradientUnits="userSpaceOnUse">
            <stop stop-color="#7FFFE0" stop-opacity="0.5"/>
            <stop offset="0.1177" stop-color="#7DF9DD" stop-opacity="0.4412"/>
            <stop offset="0.2768" stop-color="#79E8D5" stop-opacity="0.3616"/>
            <stop offset="0.4597" stop-color="#71CBC8" stop-opacity="0.2702"/>
            <stop offset="0.6603" stop-color="#66A4B5" stop-opacity="0.1699"/>
            <stop offset="0.8728" stop-color="#59729E" stop-opacity="0.0636007"/>
            <stop offset="1" stop-color="#50508E" stop-opacity="0"/>
        </linearGradient>
        <linearGradient id="paint6_linear_1867_3777" x1="467.6" y1="15.843" x2="502.643" y2="23.2455" gradientUnits="userSpaceOnUse">
            <stop stop-color="#50508E" stop-opacity="0.7"/>
            <stop offset="1" stop-color="#50508E" stop-opacity="0"/>
        </linearGradient>
        <linearGradient id="paint7_linear_1867_3777" x1="436.136" y1="53.3912" x2="444.975" y2="52.4329" gradientUnits="userSpaceOnUse">
            <stop stop-color="#50508E" stop-opacity="0.7"/>
            <stop offset="1" stop-color="#50508E" stop-opacity="0"/>
        </linearGradient>
        <linearGradient id="paint8_linear_1867_3777" x1="522.185" y1="21.4712" x2="529.614" y2="20.9801" gradientUnits="userSpaceOnUse">
            <stop stop-color="#50508E" stop-opacity="0.7"/>
            <stop offset="1" stop-color="#50508E" stop-opacity="0"/>
        </linearGradient>
        <linearGradient id="paint9_linear_1867_3777" x1="472.74" y1="70.6934" x2="491.421" y2="76.2988" gradientUnits="userSpaceOnUse">
            <stop stop-color="#50508E" stop-opacity="0.7"/>
            <stop offset="1" stop-color="#50508E" stop-opacity="0"/>
        </linearGradient>
        <linearGradient id="paint10_linear_1867_3777" x1="986.154" y1="-4.07838" x2="997.064" y2="10.1043" gradientUnits="userSpaceOnUse">
            <stop stop-color="#7FFFE0" stop-opacity="0.5"/>
            <stop offset="0.1177" stop-color="#7DF9DD" stop-opacity="0.4412"/>
            <stop offset="0.2768" stop-color="#79E8D5" stop-opacity="0.3616"/>
            <stop offset="0.4597" stop-color="#71CBC8" stop-opacity="0.2702"/>
            <stop offset="0.6603" stop-color="#66A4B5" stop-opacity="0.1699"/>
            <stop offset="0.8728" stop-color="#59729E" stop-opacity="0.0636007"/>
            <stop offset="1" stop-color="#50508E" stop-opacity="0"/>
        </linearGradient>
        <linearGradient id="paint11_linear_1867_3777" x1="560" y1="292.76" x2="560" y2="94.8913" gradientUnits="userSpaceOnUse">
            <stop stop-color="#7FFFE0" stop-opacity="0.2"/>
            <stop offset="0.1148" stop-color="#7DF9DE" stop-opacity="0.177"/>
            <stop offset="0.27" stop-color="#78E8D7" stop-opacity="0.146"/>
            <stop offset="0.4484" stop-color="#70CBCC" stop-opacity="0.1103"/>
            <stop offset="0.644" stop-color="#64A4BD" stop-opacity="0.0712009"/>
            <stop offset="0.8512" stop-color="#5572AA" stop-opacity="0.0297653"/>
            <stop offset="1" stop-color="#49499B" stop-opacity="0"/>
        </linearGradient>
        <linearGradient id="paint12_linear_1867_3777" x1="559.935" y1="277.502" x2="559.935" y2="142.451" gradientUnits="userSpaceOnUse">
            <stop stop-color="#7FFFE0" stop-opacity="0.2"/>
            <stop offset="0.1148" stop-color="#7DF9DE" stop-opacity="0.177"/>
            <stop offset="0.27" stop-color="#78E8D7" stop-opacity="0.146"/>
            <stop offset="0.4484" stop-color="#70CBCC" stop-opacity="0.1103"/>
            <stop offset="0.644" stop-color="#64A4BD" stop-opacity="0.0712009"/>
            <stop offset="0.8512" stop-color="#5572AA" stop-opacity="0.0297653"/>
            <stop offset="1" stop-color="#49499B" stop-opacity="0"/>
        </linearGradient>
        <linearGradient id="paint13_linear_1867_3777" x1="153.708" y1="50.9395" x2="250.578" y2="50.9395" gradientUnits="userSpaceOnUse">
            <stop stop-color="#50508E" stop-opacity="0"/>
            <stop offset="0.2624" stop-color="#5B7AA2" stop-opacity="0.1312"/>
            <stop offset="0.8509" stop-color="#78E3D3" stop-opacity="0.4255"/>
            <stop offset="1" stop-color="#7FFFE0" stop-opacity="0.5"/>
        </linearGradient>
        <linearGradient id="paint14_linear_1867_3777" x1="716.545" y1="66.6629" x2="829.217" y2="66.6629" gradientUnits="userSpaceOnUse">
            <stop stop-color="#7FFFE0" stop-opacity="0.5"/>
            <stop offset="0.1177" stop-color="#7DF9DD" stop-opacity="0.4412"/>
            <stop offset="0.2768" stop-color="#79E8D5" stop-opacity="0.3616"/>
            <stop offset="0.4597" stop-color="#71CBC8" stop-opacity="0.2702"/>
            <stop offset="0.6603" stop-color="#66A4B5" stop-opacity="0.1699"/>
            <stop offset="0.8728" stop-color="#59729E" stop-opacity="0.0636007"/>
            <stop offset="1" stop-color="#50508E" stop-opacity="0"/>
        </linearGradient>
        <linearGradient id="paint15_linear_1867_3777" x1="716.545" y1="66.6629" x2="829.217" y2="66.6629" gradientUnits="userSpaceOnUse">
            <stop stop-color="#7FFFE0" stop-opacity="0.5"/>
            <stop offset="0.1177" stop-color="#7DF9DD" stop-opacity="0.4412"/>
            <stop offset="0.2768" stop-color="#79E8D5" stop-opacity="0.3616"/>
            <stop offset="0.4597" stop-color="#71CBC8" stop-opacity="0.2702"/>
            <stop offset="0.6603" stop-color="#66A4B5" stop-opacity="0.1699"/>
            <stop offset="0.8728" stop-color="#59729E" stop-opacity="0.0636007"/>
            <stop offset="1" stop-color="#50508E" stop-opacity="0"/>
        </linearGradient>
        <linearGradient id="paint16_linear_1867_3777" x1="560.015" y1="319.667" x2="560.015" y2="168.638" gradientUnits="userSpaceOnUse">
            <stop stop-color="#7FFFE0" stop-opacity="0.2"/>
            <stop offset="0.1148" stop-color="#7DF9DE" stop-opacity="0.177"/>
            <stop offset="0.27" stop-color="#78E8D7" stop-opacity="0.146"/>
            <stop offset="0.4484" stop-color="#70CBCC" stop-opacity="0.1103"/>
            <stop offset="0.644" stop-color="#64A4BD" stop-opacity="0.0712009"/>
            <stop offset="0.8512" stop-color="#5572AA" stop-opacity="0.0297653"/>
            <stop offset="1" stop-color="#49499B" stop-opacity="0"/>
        </linearGradient>
        <clipPath id="clip0_1867_3777">
            <rect width="1071" height="161" rx="20" fill="white"/>
        </clipPath>
        <clipPath id="clip1_1867_3777">
            <rect width="1121" height="637.253" fill="white" transform="translate(0 -150)"/>
        </clipPath>
    </defs>
</svg>
