<svg viewBox="0 0 572 173" fill="none" xmlns="http://www.w3.org/2000/svg">
        <path d="M336.67 53.7102H393.68V14.9502H336.67V53.7102ZM377.92 48.2402C377.92 48.5102 377.7 48.7402 377.42 48.7402H352.92C352.65 48.7402 352.42 48.5202 352.42 48.2402V44.5602C352.42 44.2902 352.64 44.0602 352.92 44.0602H377.42C377.69 44.0602 377.92 44.2802 377.92 44.5602V48.2402ZM359.4 36.5502V33.3702C359.4 33.0602 359.77 32.8802 360.01 33.0802L364.77 36.9802C365.01 37.1702 365.35 37.1702 365.59 36.9802L370.35 33.0802C370.59 32.8802 370.96 33.0502 370.96 33.3702V36.5502C370.96 36.8202 370.84 37.0702 370.63 37.2502L365.77 41.2302C365.43 41.5102 364.93 41.5102 364.59 41.2302L359.73 37.2502C359.52 37.0802 359.4 36.8202 359.4 36.5502ZM352.43 20.5302C352.43 20.2002 352.7 19.9302 353.03 19.9302H353.97C354.15 19.9302 354.32 19.9902 354.46 20.0902L364.82 27.5602C365.03 27.7102 365.31 27.7102 365.53 27.5602L375.89 20.0902C376.03 19.9902 376.21 19.9302 376.38 19.9302H377.32C377.65 19.9302 377.92 20.2002 377.92 20.5302V41.0302C377.92 41.4002 377.62 41.7002 377.25 41.7002H373.92C373.55 41.7002 373.25 41.4002 373.25 41.0302V28.6102C373.25 28.2902 372.88 28.1002 372.62 28.3002L365.59 33.6402C365.35 33.8202 365.01 33.8202 364.77 33.6402L357.74 28.3002C357.48 28.1002 357.11 28.2902 357.11 28.6102V41.0302C357.11 41.4002 356.81 41.7002 356.44 41.7002H353.11C352.74 41.7002 352.44 41.4002 352.44 41.0302V20.5302H352.43Z" fill="#FF8486"/>
        <path d="M365.76 41.2102L370.62 37.2302C370.83 37.0602 370.95 36.8002 370.95 36.5302V33.3502C370.95 33.0402 370.58 32.8602 370.34 33.0602L365.58 36.9602C365.34 37.1502 365 37.1502 364.76 36.9602L360 33.0602C359.76 32.8602 359.39 33.0302 359.39 33.3502V36.5302C359.39 36.8002 359.51 37.0502 359.72 37.2302L364.58 41.2102C364.92 41.4902 365.42 41.4902 365.76 41.2102Z" fill="#38237C"/>
        <path d="M353.1 41.7002H356.43C356.8 41.7002 357.1 41.4002 357.1 41.0302V28.6102C357.1 28.2902 357.47 28.1002 357.73 28.3002L364.76 33.6402C365 33.8202 365.34 33.8202 365.58 33.6402L372.61 28.3002C372.87 28.1002 373.24 28.2902 373.24 28.6102V41.0302C373.24 41.4002 373.54 41.7002 373.91 41.7002H377.24C377.61 41.7002 377.91 41.4002 377.91 41.0302V20.5302C377.91 20.2002 377.64 19.9302 377.31 19.9302H376.37C376.19 19.9302 376.02 19.9902 375.88 20.0902L365.52 27.5602C365.31 27.7102 365.03 27.7102 364.81 27.5602L354.45 20.0902C354.31 19.9902 354.13 19.9302 353.96 19.9302H353.02C352.69 19.9302 352.42 20.2002 352.42 20.5302V41.0302C352.42 41.4002 352.72 41.7002 353.09 41.7002H353.1Z" fill="#38237C"/>
        <path d="M377.42 44.0498H352.93C352.654 44.0498 352.43 44.2737 352.43 44.5498V48.2298C352.43 48.5059 352.654 48.7298 352.93 48.7298H377.42C377.696 48.7298 377.92 48.5059 377.92 48.2298V44.5498C377.92 44.2737 377.696 44.0498 377.42 44.0498Z" fill="#38237C"/>
        <path d="M395.68 10.95H336.26V6.76004C337.31 5.99004 337.93 4.71004 337.78 3.33004C337.55 1.27004 335.69 -0.199959 333.63 0.0300414C331.57 0.260041 330.1 2.12004 330.33 4.18004C330.45 5.26004 331.03 6.17004 331.85 6.77004V103.66H336.26V57.71H395.68C396.78 57.71 397.68 56.81 397.68 55.71V12.95C397.68 11.85 396.78 10.95 395.68 10.95ZM393.68 53.71H336.67V14.95H393.68V53.71V53.71Z" fill="#38237C"/>
        <path d="M466.01 87.6503C466.01 87.5803 466.03 87.5103 466.04 87.4403C466.34 85.5203 467 83.5703 467.94 81.6703C467.26 80.9503 466.6 80.2403 465.97 79.5303C465.22 81.3803 464.76 83.3003 464.66 85.2303V85.4503C464.56 87.5803 465.08 89.5503 466.1 91.1803C465.87 90.1103 465.83 88.9203 466.01 87.6503V87.6503Z" fill="white"/>
        <path d="M470.06 73.1902C469.05 74.2702 468.18 75.4302 467.44 76.6402C468.1 77.4202 468.79 78.2002 469.52 78.9902C470.32 77.8002 471.22 76.6502 472.24 75.5702C475.6 72.0102 479.69 69.5702 483.76 68.6802C483.83 68.6702 483.9 68.6502 483.96 68.6402C484.89 68.4502 485.8 68.3802 486.66 68.4202C487.45 68.4602 488.18 68.6102 488.86 68.8402C487.53 67.8502 485.94 67.2302 484.2 67.0502C483.84 67.0102 483.48 66.9902 483.11 66.9902C482.74 66.9902 482.35 67.0102 481.97 67.0502L481.76 67.0702C477.46 67.5602 473.31 69.7302 470.06 73.1802V73.1902Z" fill="white"/>
        <path d="M487.57 92.7202L490.13 95.1202C490.69 94.6402 491.23 94.1402 491.74 93.6002C492.27 93.0302 492.76 92.4402 493.22 91.8302L490.67 89.4302C489.75 90.6202 488.71 91.7302 487.58 92.7302L487.57 92.7202Z" fill="#8D86EB"/>
        <path d="M479.94 99.6105L480.15 99.5904L478.15 97.7104C477.36 97.9004 476.56 98.0605 475.75 98.1605L475.5 98.1905C475.02 98.2405 474.55 98.2605 474.08 98.2605C473.97 98.2605 473.86 98.2504 473.75 98.2404C473.79 98.2704 473.83 98.3004 473.88 98.3204C475.65 99.3704 477.75 99.8205 479.96 99.6105H479.94Z" fill="#8D86EB"/>
        <path d="M481.2 96.7203L483.49 98.8703C484.73 98.4803 485.93 97.9303 487.09 97.2603C486.09 96.6403 485.06 95.9803 484.04 95.2803C483.13 95.8203 482.18 96.3103 481.2 96.7203Z" fill="#8D86EB"/>
        <path d="M494.27 82.7202C493.76 84.2302 493.08 85.6902 492.26 87.0602L494.77 89.4302C495.57 87.9702 496.18 86.4302 496.56 84.8602L494.28 82.7202H494.27Z" fill="#8D86EB"/>
        <path d="M495.32 77.3503C495.28 78.1103 495.18 78.8603 495.05 79.6003L497.02 81.4503C497.09 79.2303 496.52 77.1603 495.37 75.4603C495.34 75.4203 495.31 75.3803 495.28 75.3403C495.33 75.9203 495.35 76.5003 495.33 77.1003V77.3503H495.32Z" fill="#8D86EB"/>
        <path d="M467.95 81.6704C467 83.5704 466.35 85.5104 466.05 87.4404C466.04 87.5104 466.03 87.5804 466.02 87.6504C465.84 88.9204 465.88 90.1104 466.11 91.1804C466.51 91.8304 466.99 92.4304 467.55 92.9604C469.53 94.8304 472.25 95.6904 475.21 95.3904L475.42 95.3704C477.51 95.1304 479.56 94.4904 481.5 93.5004C479.6 92.1204 477.69 90.6304 475.79 89.0304C472.93 86.6204 470.29 84.1304 467.94 81.6704H467.95Z" fill="#77A4F2"/>
        <path d="M483.97 68.6303C483.9 68.6403 483.83 68.6603 483.77 68.6703C479.7 69.5503 475.61 72.0003 472.25 75.5603C471.23 76.6403 470.32 77.8003 469.53 78.9803C471.93 81.5703 474.71 84.2103 477.74 86.7603C479.9 88.5803 482.09 90.2703 484.24 91.7903C485.26 91.0403 486.23 90.2003 487.13 89.2403C490.38 85.7903 492.3 81.5103 492.53 77.1903V76.9703C492.66 74.0003 491.63 71.3303 489.65 69.4703C489.4 69.2403 489.14 69.0303 488.87 68.8203C488.2 68.5903 487.46 68.4403 486.67 68.4003C485.81 68.3503 484.9 68.4303 483.97 68.6203V68.6303Z" fill="#77A4F2"/>
        <path d="M502.49 89.9004C501.98 89.1604 501.02 88.8804 500.3 89.2704C499.95 89.4504 499.71 89.7704 499.62 90.1504C499.52 90.5704 499.61 91.0404 499.88 91.4304C502.98 95.9804 503.31 98.4904 502.64 99.2604C501.97 100.03 499.4 100.11 494.35 97.8004C493.73 97.5104 493.09 97.2004 492.44 96.8704C496.71 93.0204 499.57 87.5804 499.84 81.8204V81.5704C499.95 78.7504 499.21 76.0904 497.71 73.9004C495.48 70.6304 492.07 67.9104 491.93 67.7904L491.81 67.6904C491.73 67.6104 491.66 67.5304 491.58 67.4504C489 65.0204 485.49 63.8904 481.71 64.2704L481.46 64.3004C475.04 65.0304 469.19 68.9704 465.58 74.3404C465.06 73.6604 464.57 72.9904 464.12 72.3304C461.02 67.7804 460.69 65.2704 461.36 64.5004C462.03 63.7304 464.6 63.6504 469.65 65.9604C470.08 66.1604 470.56 66.1704 470.97 66.0004C471.33 65.8504 471.6 65.5704 471.72 65.2004C472 64.4304 471.56 63.5204 470.74 63.1504C463.26 59.7204 460.12 60.8104 458.81 62.3304C457.49 63.8504 456.89 67.0804 461.5 73.8404C462.23 74.9104 463.07 76.0204 463.98 77.1504C462.78 79.6404 462.02 82.3204 461.88 85.0904V85.3404C461.72 89.1404 463.05 92.5704 465.64 95.0004C465.75 95.1104 465.88 95.2004 465.99 95.3104C466.99 96.3604 469.68 99.0904 472.44 100.74C473.98 101.66 475.69 102.22 477.53 102.41C477.98 102.46 478.44 102.48 478.9 102.48C479.34 102.48 479.78 102.46 480.23 102.42L480.48 102.39C483.86 102.03 487.06 100.76 489.87 98.8704C491.04 99.5104 492.18 100.1 493.27 100.6C495.55 101.64 497.57 102.34 499.27 102.66C500.04 102.81 500.76 102.88 501.41 102.88C503.09 102.88 504.36 102.39 505.2 101.42C506.52 99.9004 507.12 96.6704 502.51 89.9104L502.49 89.9004ZM481.98 67.0504C482.36 67.0104 482.74 66.9904 483.12 66.9904C483.5 66.9904 483.85 67.0104 484.21 67.0504C485.95 67.2304 487.54 67.8504 488.87 68.8404C489.14 69.0404 489.4 69.2504 489.65 69.4904C491.63 71.3604 492.66 74.0204 492.54 76.9904V77.2104C492.3 81.5304 490.38 85.8104 487.13 89.2604C486.23 90.2104 485.26 91.0604 484.24 91.8104C482.09 90.2904 479.9 88.6004 477.74 86.7804C474.7 84.2204 471.93 81.5804 469.53 79.0004C468.8 78.2104 468.1 77.4304 467.45 76.6504C468.19 75.4404 469.06 74.2804 470.07 73.2004C473.32 69.7504 477.48 67.5804 481.77 67.0904L481.98 67.0704V67.0504ZM495.29 75.3404C495.29 75.3404 495.35 75.4204 495.38 75.4604C496.54 77.1604 497.11 79.2304 497.03 81.4504L495.06 79.6004C495.19 78.8504 495.29 78.1004 495.33 77.3504V77.1004C495.37 76.5004 495.34 75.9204 495.29 75.3404ZM493.21 91.8204C492.75 92.4304 492.27 93.0304 491.73 93.5904C491.22 94.1304 490.68 94.6304 490.12 95.1104L487.56 92.7104C488.69 91.7104 489.73 90.6004 490.65 89.4104L493.2 91.8104L493.21 91.8204ZM492.26 87.0704C493.08 85.6904 493.77 84.2404 494.27 82.7304L496.55 84.8704C496.17 86.4404 495.57 87.9804 494.76 89.4404L492.25 87.0704H492.26ZM483.49 98.8704L481.2 96.7204C482.18 96.3104 483.12 95.8204 484.04 95.2804C485.07 95.9804 486.09 96.6504 487.09 97.2604C485.93 97.9304 484.73 98.4704 483.49 98.8704ZM474.06 98.2504C474.53 98.2504 475.01 98.2304 475.48 98.1804L475.73 98.1504C476.54 98.0604 477.34 97.9004 478.13 97.7004L480.13 99.5804L479.92 99.6004C477.7 99.8104 475.6 99.3604 473.84 98.3104C473.8 98.2804 473.76 98.2504 473.71 98.2304C473.82 98.2304 473.93 98.2504 474.04 98.2504H474.06ZM475.42 95.3604L475.21 95.3804C472.24 95.6704 469.53 94.8104 467.55 92.9504C466.99 92.4204 466.51 91.8204 466.11 91.1704C465.09 89.5404 464.58 87.5704 464.66 85.4404V85.2204C464.77 83.2904 465.23 81.3704 465.98 79.5204C466.61 80.2304 467.27 80.9404 467.95 81.6604C470.29 84.1204 472.94 86.6104 475.8 89.0204C477.69 90.6104 479.61 92.1004 481.51 93.4904C479.58 94.4804 477.52 95.1204 475.43 95.3604H475.42Z" fill="#38237C"/>
        <path d="M198.21 50.1201C198.24 48.4501 198.87 46.6301 199.98 44.9801C201.1 43.3301 202.56 42.0801 204.09 41.4401L204.17 41.4101C204.52 41.2701 204.87 41.1801 205.21 41.1301C205.29 41.1201 205.37 41.1301 205.45 41.1301C205.03 40.9901 204.58 40.9201 204.12 40.9401C203.84 40.9601 203.56 41.0001 203.28 41.0801L203.15 40.6001L203.2 41.1001C201.55 41.5601 200.06 42.6701 199.01 44.2201C197.95 45.7801 197.47 47.5701 197.65 49.2701C197.73 49.9701 197.97 50.5701 198.3 51.0701C198.25 50.8001 198.21 50.5201 198.21 50.2101C198.21 50.1801 198.21 50.1501 198.21 50.1301V50.1201Z" fill="white"/>
        <path d="M209.9 44.18C209.85 44.13 209.79 44.08 209.74 44.02C210.21 48.46 207.1 53.05 202.8 54.27C202.86 54.3 202.93 54.33 202.99 54.35C203.71 54.64 204.52 54.67 205.33 54.47C207.04 54 208.52 52.91 209.56 51.38C210.6 49.85 211.07 48.08 210.88 46.39C210.77 45.47 210.43 44.73 209.9 44.17V44.18Z" fill="#8D86EB"/>
        <path d="M212.81 46.0702C212.65 44.8202 212.14 43.7002 211.32 42.8302C210.13 41.5702 207.91 40.2602 207.89 40.2502L207.67 40.1202C207.57 40.0402 207.47 39.9602 207.37 39.8902C206.05 38.9902 204.42 38.7402 202.78 39.1702L202.67 39.2002C198.35 40.4002 195.22 45.0102 195.69 49.4702V49.5802C195.9 51.2702 196.74 52.6902 198.06 53.5902C198.17 53.6602 198.29 53.7202 198.4 53.7902C198.48 53.8502 200.67 55.5402 202.25 56.1802C202.9 56.4402 203.58 56.5702 204.29 56.5702C204.4 56.5702 204.51 56.5702 204.62 56.5702C205.01 56.5502 205.41 56.4902 205.81 56.3802L205.92 56.3502C210.22 55.1802 213.32 50.6202 212.83 46.1802V46.0702H212.81ZM198.28 51.0702C197.94 50.5702 197.71 49.9702 197.63 49.2702C197.45 47.5702 197.93 45.7802 198.99 44.2202C200.05 42.6602 201.54 41.5502 203.18 41.1002L203.13 40.6002L203.26 41.0802C203.54 41.0102 203.82 40.9602 204.1 40.9402C204.57 40.9202 205.01 40.9802 205.43 41.1302C205.72 41.2302 206 41.3502 206.25 41.5202C207.09 42.0902 207.63 43.0202 207.77 44.2202C207.95 45.9202 207.47 47.7102 206.41 49.2702C205.35 50.8302 203.86 51.9402 202.14 52.4202C201.05 52.7102 199.99 52.5502 199.15 51.9802C198.8 51.7402 198.52 51.4302 198.28 51.0802V51.0702ZM209.54 51.3802C208.5 52.9102 207.02 54.0002 205.31 54.4702C204.5 54.6802 203.69 54.6402 202.97 54.3502C202.91 54.3302 202.85 54.2902 202.78 54.2702C207.08 53.0502 210.19 48.4602 209.72 44.0202C209.77 44.0702 209.83 44.1302 209.88 44.1802C210.41 44.7402 210.74 45.4802 210.86 46.4002C211.05 48.0802 210.58 49.8502 209.54 51.3902V51.3802Z" fill="#38237C"/>
        <path d="M199.16 51.9701C200 52.5401 201.06 52.7001 202.15 52.4101C203.88 51.9301 205.37 50.8201 206.42 49.2601C207.48 47.7001 207.96 45.9101 207.78 44.2101C207.64 43.0101 207.1 42.0801 206.26 41.5101C206.01 41.3401 205.73 41.2101 205.44 41.1201C205.36 41.1201 205.28 41.1201 205.2 41.1201C204.86 41.1601 204.51 41.2601 204.16 41.4001L204.08 41.4301C202.54 42.0701 201.08 43.3301 199.97 44.9701C198.85 46.6201 198.22 48.4401 198.2 50.1101C198.2 50.1401 198.2 50.1701 198.2 50.1901C198.2 50.5001 198.23 50.7801 198.29 51.0501C198.53 51.4001 198.81 51.7101 199.16 51.9501V51.9701Z" fill="#86D4C9"/>
        <path d="M119.55 105.79C119.61 103.19 118.66 100.54 116.86 98.3105C115.07 96.0905 112.67 94.5905 110.12 94.1005L109.99 94.0805C109.6 94.0105 109.22 93.9805 108.84 93.9805C108.79 93.9805 108.73 93.9805 108.68 93.9805C107.73 94.0005 106.85 94.2605 106.07 94.7005C106.39 94.6505 106.73 94.6205 107.09 94.6405C107.59 94.6605 108.12 94.7605 108.66 94.9205C108.7 94.9305 108.74 94.9405 108.78 94.9605C111.14 95.7205 113.45 97.4105 115.31 99.7105C117.16 102.01 118.32 104.64 118.56 107.11V107.23C118.63 107.95 118.58 108.6 118.43 109.2C119.1 108.29 119.49 107.16 119.53 105.91V105.78L119.55 105.79Z" fill="white"/>
        <path d="M100.98 99.3101C100.98 99.1401 101.01 98.9801 101.02 98.8101C100.76 99.0701 100.51 99.3301 100.32 99.5701C99.57 100.51 99.14 101.69 99.09 102.99V103.11C99.01 105.69 99.94 108.32 101.71 110.51C103.48 112.7 105.85 114.17 108.38 114.64L108.5 114.66C109.79 114.88 111.04 114.72 112.11 114.18C112.37 114.05 112.67 113.87 112.97 113.68C112.82 113.66 112.67 113.65 112.52 113.62L112.36 113.59C105.92 112.35 100.81 106.01 100.96 99.4601V99.3001L100.98 99.3101Z" fill="#8D86EB"/>
        <path d="M118.58 107.24V107.12C118.33 104.65 117.17 102.02 115.32 99.7201C113.47 97.4101 111.15 95.7301 108.79 94.9701C108.75 94.9601 108.71 94.9401 108.67 94.9301C108.13 94.7601 107.6 94.6701 107.1 94.6501C106.74 94.6301 106.4 94.6501 106.08 94.7101C105.85 94.8401 105.63 94.9901 105.42 95.1601C104.19 96.1601 103.47 97.6601 103.41 99.4001V99.5301C103.35 102.13 104.3 104.78 106.09 107.01C107.88 109.23 110.28 110.73 112.83 111.22L112.96 111.24C114.68 111.55 116.3 111.17 117.54 110.17C117.89 109.89 118.19 109.57 118.45 109.21C118.6 108.62 118.65 107.96 118.59 107.24H118.58Z" fill="#FF8486"/>
        <path d="M110.58 91.7202L110.42 91.6902C108 91.2602 105.68 91.8102 103.89 93.2602C103.74 93.3802 103.61 93.5102 103.47 93.6402L103.14 93.8602C103.14 93.8602 100 96.0802 98.42 98.0502C97.34 99.3902 96.73 101.07 96.66 102.9V103.05C96.46 109.57 101.52 115.84 107.93 117.03L108.09 117.06C108.6 117.15 109.11 117.19 109.61 117.19C109.68 117.19 109.76 117.19 109.83 117.19C111.03 117.16 112.16 116.88 113.2 116.36C115.48 115.23 118.55 112.41 118.58 112.38L118.6 112.36C118.76 112.25 118.92 112.16 119.07 112.04C120.86 110.6 121.9 108.45 121.99 105.99V105.83C122.15 99.2802 117.04 92.9402 110.6 91.7002L110.58 91.7202ZM117.53 110.17C116.3 111.17 114.67 111.55 112.95 111.24L112.82 111.22C110.27 110.73 107.87 109.23 106.08 107.01C104.29 104.79 103.33 102.13 103.39 99.5302V99.4002C103.46 97.6602 104.17 96.1502 105.41 95.1602C105.62 94.9902 105.84 94.8502 106.07 94.7102C106.84 94.2602 107.73 94.0102 108.68 93.9902C108.73 93.9902 108.79 93.9902 108.84 93.9902C109.22 93.9902 109.6 94.0302 109.99 94.0902L110.12 94.1102C112.67 94.6002 115.07 96.1002 116.86 98.3202C118.65 100.54 119.61 103.2 119.55 105.8V105.93C119.5 107.18 119.11 108.31 118.44 109.22C118.18 109.57 117.88 109.9 117.53 110.18V110.17ZM112.37 113.6L112.53 113.63C112.68 113.66 112.83 113.67 112.98 113.69C112.67 113.89 112.38 114.07 112.12 114.19C111.04 114.73 109.8 114.89 108.51 114.67L108.39 114.65C105.86 114.18 103.49 112.71 101.72 110.52C99.95 108.33 99.02 105.7 99.1 103.12V103C99.16 101.7 99.59 100.51 100.34 99.5802C100.53 99.3402 100.78 99.0802 101.04 98.8202C101.02 98.9902 101 99.1502 101 99.3202V99.4802C100.84 106.03 105.95 112.37 112.39 113.61L112.37 113.6Z" fill="#38237C"/>
        <path d="M413.2 43.9C414.421 43.9 415.41 42.9105 415.41 41.69C415.41 40.4694 414.421 39.48 413.2 39.48C411.979 39.48 410.99 40.4694 410.99 41.69C410.99 42.9105 411.979 43.9 413.2 43.9Z" fill="#86D4C9"/>
        <path d="M142.05 51.9202C142.812 51.9202 143.43 51.3023 143.43 50.5402C143.43 49.778 142.812 49.1602 142.05 49.1602C141.288 49.1602 140.67 49.778 140.67 50.5402C140.67 51.3023 141.288 51.9202 142.05 51.9202Z" fill="#86D4C9"/>
        <path d="M78.76 130.36C79.5222 130.36 80.14 129.742 80.14 128.98C80.14 128.218 79.5222 127.6 78.76 127.6C77.9979 127.6 77.38 128.218 77.38 128.98C77.38 129.742 77.9979 130.36 78.76 130.36Z" fill="#86D4C9"/>
        <path d="M203.91 90.6799C204.672 90.6799 205.29 90.0621 205.29 89.2999C205.29 88.5378 204.672 87.9199 203.91 87.9199C203.148 87.9199 202.53 88.5378 202.53 89.2999C202.53 90.0621 203.148 90.6799 203.91 90.6799Z" fill="#86D4C9"/>
        <path d="M431.25 51.9202C432.012 51.9202 432.63 51.3023 432.63 50.5402C432.63 49.778 432.012 49.1602 431.25 49.1602C430.488 49.1602 429.87 49.778 429.87 50.5402C429.87 51.3023 430.488 51.9202 431.25 51.9202Z" fill="#86D4C9"/>
        <path d="M164.71 78.0802C165.931 78.0802 166.92 77.0907 166.92 75.8702C166.92 74.6496 165.931 73.6602 164.71 73.6602C163.489 73.6602 162.5 74.6496 162.5 75.8702C162.5 77.0907 163.489 78.0802 164.71 78.0802Z" fill="#86D4C9"/>
        <path d="M51.66 79.2301C52.8805 79.2301 53.87 78.2406 53.87 77.0201C53.87 75.7995 52.8805 74.8101 51.66 74.8101C50.4394 74.8101 49.45 75.7995 49.45 77.0201C49.45 78.2406 50.4394 79.2301 51.66 79.2301Z" fill="#86D4C9"/>
        <path d="M532.51 122.8C535.012 122.8 537.04 120.772 537.04 118.27C537.04 115.768 535.012 113.74 532.51 113.74C530.008 113.74 527.98 115.768 527.98 118.27C527.98 120.772 530.008 122.8 532.51 122.8Z" fill="#86D4C9"/>
        <path d="M265.9 52.91H263.48C260.91 52.91 258.82 50.82 258.82 48.25V41.93C258.77 41.32 258.23 40.86 257.62 40.91C257.08 40.96 256.65 41.38 256.6 41.93V48.25C256.6 50.82 254.51 52.91 251.94 52.91H249.51C248.9 52.96 248.44 53.5 248.49 54.11C248.54 54.65 248.96 55.08 249.51 55.13H251.94C254.51 55.13 256.6 57.22 256.6 59.79V66.11C256.65 66.72 257.19 67.18 257.8 67.13C258.34 67.08 258.77 66.66 258.82 66.11V59.79C258.82 57.22 260.91 55.13 263.48 55.13H265.9C266.51 55.18 267.05 54.73 267.1 54.11C267.15 53.5 266.7 52.96 266.08 52.91C266.02 52.91 265.96 52.91 265.89 52.91H265.9Z" fill="#86D4C9"/>
        <path d="M92.52 63.4098H91.18C89.75 63.4098 88.59 62.2498 88.59 60.8198V57.3198C88.56 56.9798 88.26 56.7298 87.92 56.7598C87.62 56.7898 87.38 57.0198 87.36 57.3198V60.8198C87.36 62.2498 86.2 63.4098 84.77 63.4098H83.42C83.08 63.4398 82.83 63.7398 82.86 64.0798C82.89 64.3798 83.12 64.6198 83.42 64.6398H84.77C86.2 64.6398 87.36 65.7998 87.36 67.2298V70.7298C87.39 71.0698 87.69 71.3198 88.03 71.2898C88.33 71.2598 88.57 71.0298 88.59 70.7298V67.2298C88.59 65.7998 89.75 64.6398 91.18 64.6398H92.52C92.86 64.6698 93.16 64.4198 93.19 64.0798C93.22 63.7398 92.97 63.4398 92.63 63.4098C92.6 63.4098 92.56 63.4098 92.53 63.4098H92.52Z" fill="#86D4C9"/>
        <path d="M433.38 74.69H432.04C430.61 74.69 429.45 73.53 429.45 72.1V68.6C429.42 68.26 429.12 68.01 428.78 68.04C428.48 68.07 428.24 68.3 428.22 68.6V72.1C428.22 73.53 427.06 74.69 425.63 74.69H424.28C423.94 74.72 423.69 75.02 423.72 75.36C423.75 75.66 423.98 75.9 424.28 75.92H425.63C427.06 75.92 428.22 77.08 428.22 78.51V82.01C428.25 82.35 428.55 82.6 428.89 82.57C429.19 82.54 429.43 82.31 429.45 82.01V78.51C429.45 77.08 430.61 75.92 432.04 75.92H433.38C433.72 75.95 434.02 75.7 434.05 75.36C434.08 75.02 433.83 74.72 433.49 74.69C433.46 74.69 433.42 74.69 433.39 74.69H433.38Z" fill="#86D4C9"/>
        <path d="M546 45.6599H545.26C544.47 45.6599 543.83 45.0199 543.83 44.2299V42.2899C543.81 42.0999 543.65 41.9599 543.46 41.9799C543.29 41.9899 543.16 42.1299 543.15 42.2899V44.2299C543.15 45.0199 542.51 45.6599 541.72 45.6599H540.97C540.78 45.6799 540.64 45.8399 540.66 46.0299C540.67 46.1999 540.81 46.3299 540.97 46.3399H541.72C542.51 46.3399 543.15 46.9799 543.15 47.7699V49.7099C543.17 49.8999 543.33 50.0399 543.52 50.0199C543.69 50.0099 543.82 49.8699 543.83 49.7099V47.7699C543.83 46.9799 544.47 46.3399 545.26 46.3399H546C546.19 46.3599 546.35 46.2199 546.37 46.0299C546.39 45.8399 546.25 45.6799 546.06 45.6599C546.04 45.6599 546.02 45.6599 546 45.6599Z" fill="#86D4C9"/>
        <path d="M459.59 120.57L434.87 114.44L426.4 113.97L402.71 108.72C402.71 108.72 402.38 108.57 401.86 108.33L401.74 108.28C401.03 107.96 400.01 107.5 398.9 107.01L398.78 106.96C398.53 106.85 398.29 106.74 398.04 106.63L397.85 106.55C397.62 106.45 397.39 106.35 397.17 106.25C397.09 106.21 397.01 106.18 396.93 106.14C396.73 106.05 396.53 105.96 396.33 105.88C396.24 105.84 396.15 105.8 396.06 105.76C395.88 105.68 395.7 105.61 395.53 105.53C395.43 105.49 395.34 105.45 395.25 105.41C395.1 105.35 394.95 105.28 394.81 105.22C394.72 105.18 394.63 105.15 394.54 105.11C394.42 105.06 394.3 105.01 394.19 104.97C394.11 104.94 394.04 104.91 393.97 104.88C393.88 104.84 393.78 104.81 393.7 104.78C393.64 104.76 393.59 104.74 393.54 104.72C393.48 104.7 393.42 104.67 393.37 104.66C393.33 104.65 393.31 104.64 393.29 104.64C393.25 104.64 393.21 104.62 393.21 104.63C393.21 104.63 393.18 104.65 393.15 104.67C393.14 104.67 393.12 104.68 393.11 104.69C393.08 104.7 393.05 104.71 393.02 104.72C393 104.72 392.97 104.74 392.95 104.74C392.91 104.75 392.87 104.76 392.82 104.78C392.79 104.78 392.75 104.8 392.72 104.81C392.67 104.82 392.62 104.84 392.56 104.85C392.52 104.86 392.48 104.87 392.44 104.88C392.38 104.9 392.31 104.91 392.24 104.93C392.2 104.94 392.16 104.95 392.11 104.96C392.04 104.98 391.96 105 391.88 105.01C391.84 105.01 391.79 105.03 391.75 105.04C391.66 105.06 391.56 105.08 391.46 105.1C391.43 105.1 391.39 105.11 391.36 105.12C391.23 105.15 391.09 105.18 390.95 105.2H390.89C390.77 105.23 390.65 105.26 390.54 105.28C390.5 105.28 390.46 105.29 390.41 105.3C390.32 105.32 390.22 105.33 390.13 105.35C390.08 105.35 390.03 105.37 389.98 105.37C389.9 105.38 389.82 105.4 389.74 105.41C389.69 105.41 389.64 105.42 389.58 105.43C389.5 105.44 389.43 105.45 389.36 105.46C389.31 105.46 389.26 105.47 389.21 105.48C389.14 105.48 389.07 105.49 389.01 105.5C388.97 105.5 388.92 105.5 388.88 105.51C388.81 105.51 388.75 105.51 388.69 105.51C388.66 105.51 388.62 105.51 388.59 105.51H388.56C388.51 105.51 388.47 105.51 388.42 105.51C388.4 105.51 388.37 105.51 388.34 105.51C388.27 105.51 388.21 105.49 388.16 105.48C387.36 105.24 375.83 100.32 375.83 100.32L373.99 102.71C373.54 103.83 373.17 104.69 373.21 104.63C373.32 104.47 382.7 108.72 382.7 108.72L406.39 113.97L414.86 114.44L439.58 123.57L494.15 140.58L571.31 156.47L571.48 156.51V149.45L514.15 137.58L459.58 120.57H459.59Z" fill="white"/>
        <path d="M263.97 106.64L260.42 105.67L262.71 106.72C262.71 106.72 263.18 106.69 263.96 106.64H263.97Z" fill="white"/>
        <path d="M122.05 149.92L161.68 126.78L176.16 126.5L200.66 112.83L230.72 111.21L237.86 104.84L248.32 101.6L245.1 99.8198C245.1 99.8198 238.03 101.74 237.74 101.9C237.45 102.06 227.48 103.86 227.48 103.86L216.57 106.05C216.57 106.05 214.94 105.29 213.4 105.29C213.3 105.29 213.19 105.29 213.09 105.3C211.47 105.42 201.13 111.2 201.13 111.2L171.07 119.82L146.57 129.49L132.09 129.77L95.46 149.91L30.77 158.91L8.46997 172.5H36.4L57.37 158.91L122.06 149.91L122.05 149.92Z" fill="#77A4F2"/>
        <path d="M515.16 133.7L460.78 116.75C460.7 116.73 460.63 116.71 460.55 116.69L435.83 110.56C435.59 110.5 435.34 110.46 435.09 110.45L426.95 110L403.99 104.91C394.53 100.63 394.22 100.63 393.24 100.63C392.69 100.63 392.15 100.74 391.66 100.95C391.07 101.11 389.69 101.4 388.93 101.49C387.1 100.75 381.39 98.3398 377.41 96.6398C376.91 96.4298 376.38 96.3198 375.84 96.3198C375.47 96.3198 375.11 96.3698 374.75 96.4698L350.21 103.43L342.12 100.84C341.72 100.71 341.31 100.65 340.9 100.65C340.49 100.65 340.1 100.71 339.71 100.83L319.21 107.21L317.02 106.98C316.88 106.97 316.74 106.96 316.6 106.96C316.04 106.96 315.49 107.08 314.98 107.3C310.22 109.41 304.47 111.79 302.19 112.53C299.49 111.23 291.64 107.04 284.63 103.21C284.03 102.88 283.37 102.72 282.71 102.72C282.23 102.72 281.74 102.81 281.28 102.99L274.83 105.46L255.05 100.07L250.56 98.2898L247.02 96.3398C246.42 96.0098 245.76 95.8398 245.09 95.8398C244.74 95.8398 244.39 95.8899 244.04 95.9799C239.06 97.3299 237.29 97.8398 236.52 98.0998C235.56 98.3198 230.9 99.1898 226.76 99.9398C226.73 99.9398 226.71 99.9398 226.68 99.9498L216.89 101.92C215.97 101.62 214.7 101.31 213.38 101.31C213.18 101.31 212.98 101.31 212.78 101.33C211.98 101.39 210.32 101.51 199.56 107.5L169.94 115.99C169.82 116.03 169.69 116.07 169.57 116.11L145.75 125.52L131.99 125.79C131.34 125.8 130.71 125.97 130.14 126.28L94.16 146.06L30.2 154.96C29.66 155.04 29.14 155.22 28.67 155.51L0.880005 172.52H8.45001L30.75 158.93L95.44 149.93L132.07 129.79L146.55 129.51L171.05 119.84L201.11 111.22C201.11 111.22 211.46 105.44 213.07 105.32C213.17 105.32 213.28 105.31 213.38 105.31C214.92 105.31 216.55 106.07 216.55 106.07L227.46 103.88C227.46 103.88 237.43 102.08 237.72 101.92C238.01 101.76 245.08 99.8398 245.08 99.8398L248.3 101.62L248.84 101.92L253.77 103.88L260.41 105.69L263.96 106.66L275.03 109.68L282.7 106.74C282.7 106.74 300.48 116.46 301.76 116.72C301.79 116.72 301.82 116.72 301.86 116.72C303.61 116.72 316.59 110.98 316.59 110.98L319.6 111.3L321.59 110.68L340.89 104.67L350.13 107.63L375.83 100.34C375.83 100.34 387.36 105.26 388.16 105.5C388.21 105.51 388.27 105.52 388.34 105.53C388.36 105.53 388.39 105.53 388.42 105.53C388.46 105.53 388.51 105.53 388.56 105.53H388.59C388.59 105.53 388.66 105.53 388.69 105.53C388.75 105.53 388.81 105.53 388.88 105.53C388.92 105.53 388.96 105.53 389.01 105.52C389.08 105.52 389.14 105.51 389.21 105.5C389.26 105.5 389.31 105.49 389.36 105.48C389.43 105.48 389.51 105.46 389.58 105.45C389.63 105.45 389.68 105.44 389.74 105.43C389.82 105.42 389.9 105.41 389.98 105.39C390.03 105.39 390.08 105.37 390.13 105.37C390.22 105.35 390.32 105.34 390.41 105.32C390.45 105.32 390.49 105.31 390.54 105.3C390.66 105.28 390.78 105.26 390.89 105.23H390.95C391.09 105.19 391.22 105.16 391.36 105.14C391.39 105.14 391.43 105.13 391.46 105.12C391.56 105.1 391.65 105.08 391.75 105.06C391.79 105.06 391.84 105.04 391.88 105.03C391.96 105.01 392.04 104.99 392.11 104.98C392.15 104.97 392.19 104.96 392.24 104.95C392.31 104.93 392.37 104.92 392.44 104.9C392.48 104.89 392.52 104.88 392.56 104.87C392.62 104.86 392.67 104.84 392.72 104.83C392.75 104.83 392.79 104.81 392.82 104.8C392.87 104.79 392.91 104.77 392.95 104.76C392.98 104.76 393 104.74 393.02 104.74C393.06 104.73 393.09 104.72 393.11 104.71C393.12 104.71 393.14 104.7 393.15 104.69C393.18 104.68 393.21 104.66 393.21 104.65C393.21 104.65 393.21 104.65 393.23 104.65C393.24 104.65 393.28 104.66 393.3 104.67C393.32 104.67 393.35 104.67 393.38 104.69C393.42 104.7 393.49 104.73 393.55 104.75C393.6 104.77 393.65 104.79 393.71 104.81C393.79 104.84 393.88 104.88 393.98 104.91C394.05 104.94 394.12 104.97 394.2 105C394.31 105.04 394.43 105.09 394.55 105.14C394.64 105.18 394.72 105.21 394.82 105.25C394.96 105.31 395.11 105.37 395.26 105.44C395.35 105.48 395.44 105.52 395.54 105.56C395.71 105.63 395.89 105.71 396.07 105.79C396.16 105.83 396.25 105.87 396.34 105.91C396.54 105.99 396.74 106.08 396.94 106.17C397.02 106.21 397.1 106.24 397.18 106.28C397.41 106.38 397.63 106.48 397.86 106.58L398.05 106.66C398.3 106.77 398.55 106.88 398.79 106.99L398.91 107.04C400.01 107.53 401.04 107.99 401.75 108.31L401.87 108.36C402.4 108.6 402.72 108.75 402.72 108.75L426.41 114L434.88 114.47L459.6 120.6L514.17 137.61L571.5 149.48V145.4L515.18 133.74L515.16 133.7Z" fill="#38237C"/>
        <path d="M494.16 140.58L439.59 123.57L414.87 114.44L406.4 113.97L382.71 108.72C382.71 108.72 373.33 104.47 373.22 104.63C373.18 104.69 373.55 103.83 374 102.71L372.51 104.65L351.22 109.28L348.21 108.96C348.21 108.96 334.67 114.96 333.39 114.7C332.67 114.55 326.68 113.39 321.61 110.66L319.62 111.28L316.61 110.96C316.61 110.96 303.64 116.7 301.88 116.7C301.84 116.7 301.81 116.7 301.78 116.7C300.5 116.44 282.72 106.72 282.72 106.72L275.05 109.66L263.98 106.64C263.19 106.69 262.73 106.72 262.73 106.72L260.44 105.67L253.8 103.86L248.87 101.9L248.33 101.6L237.87 104.84L230.73 111.21L200.67 112.83L176.17 126.5L161.69 126.78L122.06 149.92L57.37 158.92L36.4 172.51H561.34C566.86 172.51 571.33 168.04 571.33 162.52V156.47L494.17 140.58H494.16Z" fill="#C0DBFF"/>
        <path d="M348.2 108.96L351.21 109.28L372.5 104.65L373.99 102.71L375.83 100.32L350.13 107.61L340.89 104.65L321.59 110.66C326.66 113.39 332.65 114.55 333.37 114.7C334.65 114.96 348.19 108.96 348.19 108.96H348.2Z" fill="#77A4F2"/>
        <path d="M349.77 134.9H343.86V140.18H349.77V134.9Z" fill="#8D86EB"/>
        <path d="M376.04 134.9H370.13V140.18H376.04V134.9Z" fill="#EBF0FF"/>
        <path d="M358.45 134.9H352.77V140.18H358.45V134.9Z" fill="#A5A5F9"/>
        <path d="M367.13 134.9H361.45V140.18H367.13V134.9Z" fill="#A5A5F9"/>
        <path d="M349.68 126.34H343.77V131.62H349.68V126.34Z" fill="#8D86EB"/>
        <path d="M375.95 126.34H370.04V131.62H375.95V126.34Z" fill="#EBF0FF"/>
        <path d="M358.36 126.34H352.68V131.62H358.36V126.34Z" fill="#A5A5F9"/>
        <path d="M367.04 126.34H361.36V131.62H367.04V126.34Z" fill="#A5A5F9"/>
        <path d="M349.77 151.52H343.86V156.8H349.77V151.52Z" fill="#8D86EB"/>
        <path d="M376.04 151.52H370.13V156.8H376.04V151.52Z" fill="#EBF0FF"/>
        <path d="M358.45 151.52H352.77V156.8H358.45V151.52Z" fill="#A5A5F9"/>
        <path d="M367.13 151.52H361.45V156.8H367.13V151.52Z" fill="#A5A5F9"/>
        <path d="M345.22 143.21H339.31V148.49H345.22V143.21Z" fill="#8D86EB"/>
        <path d="M371.49 143.21H365.58V148.49H371.49V143.21Z" fill="#EBF0FF"/>
        <path d="M362.58 143.21H356.9V148.49H362.58V143.21Z" fill="#A5A5F9"/>
        <path d="M353.9 143.21H348.22V148.49H353.9V143.21Z" fill="#A5A5F9"/>
        <path d="M349.77 93.1201H343.86V98.4001H349.77V93.1201Z" fill="#8D86EB"/>
        <path d="M376.04 93.1201H370.13V98.4001H376.04V93.1201Z" fill="#EBF0FF"/>
        <path d="M367.13 93.1201H361.45V98.4001H367.13V93.1201Z" fill="#A5A5F9"/>
        <path d="M358.45 93.1201H352.77V98.4001H358.45V93.1201Z" fill="#A5A5F9"/>
        <path d="M349.68 84.5601H343.77V89.8401H349.68V84.5601Z" fill="#8D86EB"/>
        <path d="M375.95 84.5601H370.04V89.8401H375.95V84.5601Z" fill="#EBF0FF"/>
        <path d="M358.36 84.5601H352.68V89.8401H358.36V84.5601Z" fill="#A5A5F9"/>
        <path d="M367.04 84.5601H361.36V89.8401H367.04V84.5601Z" fill="#A5A5F9"/>
        <path d="M378.95 89.8401V84.5601C378.95 82.9001 377.61 81.5601 375.95 81.5601H343.77C342.11 81.5601 340.77 82.9001 340.77 84.5601V89.8401C340.77 90.4801 340.97 91.0701 341.31 91.5501C341.03 92.0101 340.86 92.5401 340.86 93.1201V98.4001C340.86 98.4001 340.86 98.4201 340.86 98.4301H339.31C337.65 98.4301 336.31 99.7701 336.31 101.43V106.71C336.31 108.37 337.65 109.71 339.31 109.71H340.86C340.86 109.71 340.86 109.73 340.86 109.74V115.02C340.86 115.02 340.86 115.04 340.86 115.05H339.31C337.65 115.05 336.31 116.39 336.31 118.05V123.33C336.31 124.99 337.65 126.33 339.31 126.33H340.77V131.62C340.77 132.26 340.97 132.85 341.31 133.33C341.03 133.79 340.86 134.32 340.86 134.9V140.18C340.86 140.18 340.86 140.2 340.86 140.21H339.31C337.65 140.21 336.31 141.55 336.31 143.21V148.49C336.31 150.15 337.65 151.49 339.31 151.49H340.86C340.86 151.49 340.86 151.51 340.86 151.52V156.8C340.86 158.46 342.2 159.8 343.86 159.8H376.04C377.7 159.8 379.04 158.46 379.04 156.8V151.52C379.04 149.86 377.7 148.52 376.04 148.52H374.49C374.49 148.52 374.49 148.5 374.49 148.49V143.21C374.49 143.21 374.49 143.19 374.49 143.18H376.04C377.7 143.18 379.04 141.84 379.04 140.18V134.9C379.04 134.26 378.84 133.67 378.5 133.19C378.78 132.73 378.95 132.2 378.95 131.62V126.34C378.95 124.68 377.61 123.34 375.95 123.34H374.49V118.05C374.49 118.05 374.49 118.03 374.49 118.02H376.04C377.7 118.02 379.04 116.68 379.04 115.02V109.74C379.04 108.08 377.7 106.74 376.04 106.74H374.49C374.49 106.74 374.49 106.72 374.49 106.71V101.43C374.49 101.43 374.49 101.41 374.49 101.4H376.04C377.7 101.4 379.04 100.06 379.04 98.4001V93.1201C379.04 92.4801 378.84 91.8901 378.5 91.4101C378.78 90.9501 378.95 90.4201 378.95 89.8401ZM376.04 98.4001H370.13V93.1201H376.04V98.4001ZM376.04 115.02H370.13V109.74H376.04V115.02ZM376.04 140.18H370.13V134.9H376.04V140.18ZM339.31 143.21H345.22V148.49H339.31V143.21ZM339.31 118.05H345.22V123.33H339.31V118.05ZM339.31 101.43H345.22V106.71H339.31V101.43ZM356.9 148.48V143.2H362.58V148.48H356.9ZM353.9 148.48H348.22V143.2H353.9V148.48ZM352.77 151.51H358.45V156.79H352.77V151.51ZM361.45 151.51H367.13V156.79H361.45V151.51ZM352.68 131.61V126.33H358.36V131.61H352.68ZM361.36 131.61V126.33H367.04V131.61H361.36ZM358.45 134.89V140.17H352.77V134.89H358.45ZM361.45 134.89H367.13V140.17H361.45V134.89ZM356.9 123.32V118.04H362.58V123.32H356.9ZM353.9 123.32H348.22V118.04H353.9V123.32ZM343.86 134.89H349.77V140.17H343.86V134.89ZM361.45 109.73H367.13V115.01H361.45V109.73ZM358.45 115.01H352.77V109.73H358.45V115.01ZM356.9 106.7V101.42H362.58V106.7H356.9ZM353.9 106.7H348.22V101.42H353.9V106.7ZM358.45 93.1101V98.3901H352.77V93.1101H358.45ZM361.45 93.1101H367.13V98.3901H361.45V93.1101ZM375.95 89.8301H370.04V84.5501H375.95V89.8301ZM367.04 89.8301H361.36V84.5501H367.04V89.8301ZM358.36 89.8301H352.68V84.5501H358.36V89.8301ZM343.86 93.1101H349.77V98.3901H343.86V93.1101ZM343.77 84.5501H349.68V89.8301H343.77V84.5501ZM343.86 109.73H349.77V115.01H343.86V109.73ZM343.77 126.33H349.68V131.61H343.77V126.33ZM343.86 151.51H349.77V156.79H343.86V151.51ZM376.04 156.79H370.13V151.51H376.04V156.79ZM371.49 148.48H365.58V143.2H371.49V148.48ZM375.95 131.61H370.04V126.33H375.95V131.61ZM371.49 123.32H365.58V118.04H371.49V123.32ZM371.49 106.7H365.58V101.42H371.49V106.7Z" fill="#38237C"/>
        <path d="M349.77 109.74H343.86V115.02H349.77V109.74Z" fill="#8D86EB"/>
        <path d="M376.04 109.74H370.13V115.02H376.04V109.74Z" fill="#EBF0FF"/>
        <path d="M358.45 109.74H352.77V115.02H358.45V109.74Z" fill="#A5A5F9"/>
        <path d="M367.13 109.74H361.45V115.02H367.13V109.74Z" fill="#A5A5F9"/>
        <path d="M345.22 101.43H339.31V106.71H345.22V101.43Z" fill="#8D86EB"/>
        <path d="M371.49 101.43H365.58V106.71H371.49V101.43Z" fill="#EBF0FF"/>
        <path d="M362.58 101.43H356.9V106.71H362.58V101.43Z" fill="#A5A5F9"/>
        <path d="M353.9 101.43H348.22V106.71H353.9V101.43Z" fill="#A5A5F9"/>
        <path d="M345.22 118.05H339.31V123.33H345.22V118.05Z" fill="#8D86EB"/>
        <path d="M371.49 118.05H365.58V123.33H371.49V118.05Z" fill="#EBF0FF"/>
        <path d="M353.9 118.05H348.22V123.33H353.9V118.05Z" fill="#A5A5F9"/>
        <path d="M362.58 118.05H356.9V123.33H362.58V118.05Z" fill="#A5A5F9"/>
        <path d="M243.76 129.41H237.85V134.69H243.76V129.41Z" fill="#8D86EB"/>
        <path d="M270.03 129.41H264.12V134.69H270.03V129.41Z" fill="#EBF0FF"/>
        <path d="M261.12 129.41H255.44V134.69H261.12V129.41Z" fill="#A5A5F9"/>
        <path d="M252.44 129.41H246.76V134.69H252.44V129.41Z" fill="#A5A5F9"/>
        <path d="M247.93 137.71H242.02V142.99H247.93V137.71Z" fill="#8D86EB"/>
        <path d="M274.2 137.71H268.29V142.99H274.2V137.71Z" fill="#EBF0FF"/>
        <path d="M256.61 137.71H250.93V142.99H256.61V137.71Z" fill="#A5A5F9"/>
        <path d="M265.29 137.71H259.61V142.99H265.29V137.71Z" fill="#A5A5F9"/>
        <path d="M243.76 112.79H237.85V118.07H243.76V112.79Z" fill="#8D86EB"/>
        <path d="M270.03 112.79H264.12V118.07H270.03V112.79Z" fill="#EBF0FF"/>
        <path d="M252.44 112.79H246.76V118.07H252.44V112.79Z" fill="#A5A5F9"/>
        <path d="M261.12 112.79H255.44V118.07H261.12V112.79Z" fill="#A5A5F9"/>
        <path d="M247.93 121.1H242.02V126.38H247.93V121.1Z" fill="#8D86EB"/>
        <path d="M274.2 121.1H268.29V126.38H274.2V121.1Z" fill="#EBF0FF"/>
        <path d="M256.61 121.1H250.93V126.38H256.61V121.1Z" fill="#A5A5F9"/>
        <path d="M265.29 121.1H259.61V126.38H265.29V121.1Z" fill="#A5A5F9"/>
        <path d="M274.2 118.1H273.02C273.02 118.1 273.02 118.08 273.02 118.07V112.79C273.02 112.74 273.01 112.69 273 112.63H274.02C275.68 112.63 277.02 111.29 277.02 109.63V104.35C277.02 102.69 275.68 101.35 274.02 101.35H272.84C272.84 101.35 272.84 101.33 272.84 101.32V96.0399C272.84 96.0399 272.84 96.0199 272.84 96.0099H274.02C275.68 96.0099 277.02 94.6699 277.02 93.0099V87.7299C277.02 86.0699 275.68 84.7299 274.02 84.7299H272.84C272.84 84.7299 272.84 84.7099 272.84 84.6999V79.4199C272.84 77.7599 271.5 76.4199 269.84 76.4199H237.66C236 76.4199 234.66 77.7599 234.66 79.4199V84.6999C234.66 86.3599 236 87.6999 237.66 87.6999H238.84C238.84 87.6999 238.84 87.7199 238.84 87.7299V93.0099C238.84 93.0099 238.84 93.0299 238.84 93.0399H237.66C236 93.0399 234.66 94.3799 234.66 96.0399V101.32C234.66 102.98 236 104.32 237.66 104.32H238.84C238.84 104.32 238.84 104.34 238.84 104.35V109.63C238.84 109.68 238.85 109.73 238.86 109.79H237.84C236.18 109.79 234.84 111.13 234.84 112.79V118.07C234.84 119.73 236.18 121.07 237.84 121.07H239.02C239.02 121.07 239.02 121.09 239.02 121.1V126.38C239.02 126.38 239.02 126.4 239.02 126.41H237.84C236.18 126.41 234.84 127.75 234.84 129.41V134.69C234.84 136.35 236.18 137.69 237.84 137.69H239.02C239.02 137.69 239.02 137.71 239.02 137.72V143C239.02 144.66 240.36 146 242.02 146H274.2C275.86 146 277.2 144.66 277.2 143V137.72C277.2 136.06 275.86 134.72 274.2 134.72H273.02C273.02 134.72 273.02 134.7 273.02 134.69V129.41C273.02 129.41 273.02 129.39 273.02 129.38H274.2C275.86 129.38 277.2 128.04 277.2 126.38V121.1C277.2 119.44 275.86 118.1 274.2 118.1ZM274.2 126.38H268.29V121.1H274.2V126.38ZM237.84 129.41H243.75V134.69H237.84V129.41ZM237.84 112.79H243.75V118.07H237.84V112.79ZM237.67 96.0499H243.58V101.33H237.67V96.0499ZM274.03 93.0199H268.12V87.7399H274.03V93.0199ZM274.03 109.64H268.12V104.36H274.03V109.64ZM255.43 134.69V129.41H261.11V134.69H255.43ZM252.43 134.69H246.75V129.41H252.43V134.69ZM250.93 137.72H256.61V143H250.93V137.72ZM259.61 137.72H265.29V143H259.61V137.72ZM256.44 87.7399V93.0199H250.76V87.7399H256.44ZM259.44 87.7399H265.12V93.0199H259.44V87.7399ZM260.94 84.7099H255.26V79.4299H260.94V84.7099ZM252.26 84.7099H246.58V79.4299H252.26V84.7099ZM252.26 101.33H246.58V96.0499H252.26V101.33ZM255.26 96.0499H260.94V101.33H255.26V96.0499ZM256.44 104.36V109.64H250.76V104.36H256.44ZM259.44 104.36H265.12V109.64H259.44V104.36ZM252.43 118.07H246.75V112.79H252.43V118.07ZM255.43 112.79H261.11V118.07H255.43V112.79ZM256.61 121.1V126.38H250.93V121.1H256.61ZM259.61 121.1H265.29V126.38H259.61V121.1ZM270.02 118.07H264.11V112.79H270.02V118.07ZM269.85 101.33H263.94V96.0499H269.85V101.33ZM269.85 84.7099H263.94V79.4299H269.85V84.7099ZM237.67 79.4299H243.58V84.7099H237.67V79.4299ZM241.85 87.7399H247.76V93.0199H241.85V87.7399ZM241.85 104.36H247.76V109.64H241.85V104.36ZM242.02 121.1H247.93V126.38H242.02V121.1ZM242.02 137.72H247.93V143H242.02V137.72ZM274.2 143H268.29V137.72H274.2V143ZM270.02 134.69H264.11V129.41H270.02V134.69Z" fill="#38237C"/>
        <path d="M243.59 96.04H237.68V101.32H243.59V96.04Z" fill="#8D86EB"/>
        <path d="M269.86 96.04H263.95V101.32H269.86V96.04Z" fill="#EBF0FF"/>
        <path d="M260.95 96.04H255.27V101.32H260.95V96.04Z" fill="#A5A5F9"/>
        <path d="M252.27 96.04H246.59V101.32H252.27V96.04Z" fill="#A5A5F9"/>
        <path d="M247.77 104.35H241.86V109.63H247.77V104.35Z" fill="#8D86EB"/>
        <path d="M274.04 104.35H268.13V109.63H274.04V104.35Z" fill="#EBF0FF"/>
        <path d="M265.13 104.35H259.45V109.63H265.13V104.35Z" fill="#A5A5F9"/>
        <path d="M256.45 104.35H250.77V109.63H256.45V104.35Z" fill="#A5A5F9"/>
        <path d="M243.59 79.4199H237.68V84.6999H243.59V79.4199Z" fill="#8D86EB"/>
        <path d="M269.86 79.4199H263.95V84.6999H269.86V79.4199Z" fill="#EBF0FF"/>
        <path d="M252.27 79.4199H246.59V84.6999H252.27V79.4199Z" fill="#A5A5F9"/>
        <path d="M260.95 79.4199H255.27V84.6999H260.95V79.4199Z" fill="#A5A5F9"/>
        <path d="M247.77 87.73H241.86V93.01H247.77V87.73Z" fill="#8D86EB"/>
        <path d="M274.04 87.73H268.13V93.01H274.04V87.73Z" fill="#EBF0FF"/>
        <path d="M265.13 87.73H259.45V93.01H265.13V87.73Z" fill="#A5A5F9"/>
        <path d="M256.45 87.73H250.77V93.01H256.45V87.73Z" fill="#A5A5F9"/>
        <path d="M295.98 134.77H290.07V140.05H295.98V134.77Z" fill="#8D86EB"/>
        <path d="M295.98 109.59H290.07V114.87H295.98V109.59Z" fill="#8D86EB"/>
        <path d="M295.98 92.98H290.07V98.26H295.98V92.98Z" fill="#8D86EB"/>
        <path d="M295.98 84.6099H290.07V89.8899H295.98V84.6099Z" fill="#8D86EB"/>
        <path d="M295.98 67.5098H290.07V72.7698H295.98V67.5098Z" fill="#8D86EB"/>
        <path d="M322.25 134.77H316.34V140.05H322.25V134.77Z" fill="#EBF0FF"/>
        <path d="M313.34 134.77H307.66V140.05H313.34V134.77Z" fill="#A5A5F9"/>
        <path d="M304.66 134.77H298.98V140.05H304.66V134.77Z" fill="#A5A5F9"/>
        <path d="M300.16 126.46H294.25V131.74H300.16V126.46Z" fill="#8D86EB"/>
        <path d="M326.43 126.46H320.52V131.74H326.43V126.46Z" fill="#EBF0FF"/>
        <path d="M317.52 126.46H311.84V131.74H317.52V126.46Z" fill="#A5A5F9"/>
        <path d="M308.84 126.46H303.16V131.74H308.84V126.46Z" fill="#A5A5F9"/>
        <path d="M322.25 109.59H316.34V114.87H322.25V109.59Z" fill="#EBF0FF"/>
        <path d="M304.66 109.59H298.98V114.87H304.66V109.59Z" fill="#A5A5F9"/>
        <path d="M313.34 109.59H307.66V114.87H313.34V109.59Z" fill="#A5A5F9"/>
        <path d="M300.16 117.9H294.25V123.18H300.16V117.9Z" fill="#8D86EB"/>
        <path d="M326.43 117.9H320.52V123.18H326.43V117.9Z" fill="#EBF0FF"/>
        <path d="M308.84 117.9H303.16V123.18H308.84V117.9Z" fill="#A5A5F9"/>
        <path d="M317.52 117.9H311.84V123.18H317.52V117.9Z" fill="#A5A5F9"/>
        <path d="M322.25 92.98H316.34V98.26H322.25V92.98Z" fill="#EBF0FF"/>
        <path d="M313.34 92.98H307.66V98.26H313.34V92.98Z" fill="#A5A5F9"/>
        <path d="M304.66 92.98H298.98V98.26H304.66V92.98Z" fill="#A5A5F9"/>
        <path d="M300.16 101.29H294.25V106.57H300.16V101.29Z" fill="#8D86EB"/>
        <path d="M326.43 101.29H320.52V106.57H326.43V101.29Z" fill="#EBF0FF"/>
        <path d="M308.84 101.29H303.16V106.57H308.84V101.29Z" fill="#A5A5F9"/>
        <path d="M317.52 101.29H311.84V106.57H317.52V101.29Z" fill="#A5A5F9"/>
        <path d="M322.25 84.6099H316.34V89.8899H322.25V84.6099Z" fill="#EBF0FF"/>
        <path d="M313.34 84.6099H307.66V89.8899H313.34V84.6099Z" fill="#A5A5F9"/>
        <path d="M304.66 84.6099H298.98V89.8899H304.66V84.6099Z" fill="#A5A5F9"/>
        <path d="M322.25 67.5098H316.34V72.7698H322.25V67.5098Z" fill="#EBF0FF"/>
        <path d="M313.34 67.5098H307.66V72.7698H313.34V67.5098Z" fill="#A5A5F9"/>
        <path d="M304.66 67.5098H298.98V72.7698H304.66V67.5098Z" fill="#A5A5F9"/>
        <path d="M295.98 59.23H290.07V64.51H295.98V59.23Z" fill="#8D86EB"/>
        <path d="M322.25 59.23H316.34V64.51H322.25V59.23Z" fill="#EBF0FF"/>
        <path d="M313.34 59.23H307.66V64.51H313.34V59.23Z" fill="#A5A5F9"/>
        <path d="M304.66 59.23H298.98V64.51H304.66V59.23Z" fill="#A5A5F9"/>
        <path d="M300.16 76.2998H294.25V81.5798H300.16V76.2998Z" fill="#8D86EB"/>
        <path d="M326.43 76.2998H320.52V81.5798H326.43V76.2998Z" fill="#EBF0FF"/>
        <path d="M308.84 76.2998H303.16V81.5798H308.84V76.2998Z" fill="#A5A5F9"/>
        <path d="M317.52 76.2998H311.84V81.5798H317.52V76.2998Z" fill="#A5A5F9"/>
        <path d="M326.43 73.3H325.2C325.23 73.13 325.25 72.95 325.25 72.77V67.49C325.25 66.95 325.09 66.44 324.84 66C325.09 65.56 325.25 65.06 325.25 64.51V59.23C325.25 57.57 323.91 56.23 322.25 56.23H290.07C288.41 56.23 287.07 57.57 287.07 59.23V64.51C287.07 65.05 287.23 65.56 287.48 66C287.23 66.44 287.07 66.94 287.07 67.49V72.77C287.07 74.43 288.41 75.77 290.07 75.77H291.3C291.27 75.94 291.25 76.12 291.25 76.3V81.58C291.25 81.58 291.25 81.6 291.25 81.61H290.07C288.41 81.61 287.07 82.95 287.07 84.61V89.89C287.07 90.46 287.24 90.98 287.51 91.43C287.24 91.88 287.07 92.41 287.07 92.97V98.25C287.07 99.91 288.41 101.25 290.07 101.25H291.25C291.25 101.25 291.25 101.27 291.25 101.28V106.56C291.25 106.56 291.25 106.58 291.25 106.59H290.07C288.41 106.59 287.07 107.93 287.07 109.59V114.87C287.07 116.53 288.41 117.87 290.07 117.87H291.25C291.25 117.87 291.25 117.89 291.25 117.9V123.18C291.25 123.79 291.43 124.35 291.74 124.82C291.43 125.29 291.25 125.85 291.25 126.46V131.74C291.25 131.74 291.25 131.76 291.25 131.77H290.07C288.41 131.77 287.07 133.11 287.07 134.77V140.05C287.07 141.71 288.41 143.05 290.07 143.05H291.25C291.25 143.05 291.25 143.07 291.25 143.08V148.36C291.25 150.02 292.59 151.36 294.25 151.36H326.43C328.09 151.36 329.43 150.02 329.43 148.36V143.08C329.43 141.42 328.09 140.08 326.43 140.08H325.25C325.25 140.08 325.25 140.06 325.25 140.05V134.77C325.25 134.77 325.25 134.75 325.25 134.74H326.43C328.09 134.74 329.43 133.4 329.43 131.74V126.46C329.43 125.85 329.25 125.29 328.94 124.82C329.25 124.35 329.43 123.79 329.43 123.18V117.9C329.43 116.24 328.09 114.9 326.43 114.9H325.25C325.25 114.9 325.25 114.88 325.25 114.87V109.59C325.25 109.59 325.25 109.57 325.25 109.56H326.43C328.09 109.56 329.43 108.22 329.43 106.56V101.28C329.43 99.62 328.09 98.28 326.43 98.28H325.25C325.25 98.28 325.25 98.26 325.25 98.25V92.97C325.25 92.4 325.08 91.88 324.81 91.43C325.08 90.98 325.25 90.45 325.25 89.89V84.61C325.25 84.61 325.25 84.59 325.25 84.58H326.43C328.09 84.58 329.43 83.24 329.43 81.58V76.3C329.43 74.64 328.09 73.3 326.43 73.3V73.3ZM326.43 81.58H320.52V76.3H326.43V81.58ZM326.43 106.57H320.52V101.29H326.43V106.57ZM290.07 134.78H295.98V140.06H290.07V134.78ZM290.07 109.6H295.98V114.88H290.07V109.6ZM307.66 140.06V134.78H313.34V140.06H307.66ZM304.66 140.06H298.98V134.78H304.66V140.06ZM303.16 143.09H308.84V148.37H303.16V143.09ZM311.84 143.09H317.52V148.37H311.84V143.09ZM308.84 126.47V131.75H303.16V126.47H308.84ZM311.84 126.47H317.52V131.75H311.84V126.47ZM303.16 123.19V117.91H308.84V123.19H303.16ZM311.84 123.19V117.91H317.52V123.19H311.84ZM307.66 114.88V109.6H313.34V114.88H307.66ZM304.66 114.88H298.98V109.6H304.66V114.88ZM300.16 123.19H294.25V117.91H300.16V123.19ZM311.84 101.29H317.52V106.57H311.84V101.29ZM308.84 106.57H303.16V101.29H308.84V106.57ZM304.66 92.98V98.26H298.98V92.98H304.66ZM307.66 98.26V92.98H313.34V98.26H307.66ZM298.98 89.89V84.61H304.66V89.89H298.98ZM307.66 89.89V84.61H313.34V89.89H307.66ZM316.34 92.98H322.25V98.26H316.34V92.98ZM307.66 72.77V67.51H313.34V72.77H307.66ZM304.66 67.51V72.77H298.98V67.51H304.66ZM308.84 76.29V81.57H303.16V76.29H308.84ZM311.84 76.29H317.52V81.57H311.84V76.29ZM313.34 64.51H307.66V59.23H313.34V64.51ZM304.66 64.51H298.98V59.23H304.66V64.51ZM322.25 72.77H316.34V67.51H322.25V72.77ZM322.25 64.51H316.34V59.23H322.25V64.51ZM290.07 59.23H295.98V64.51H290.07V59.23ZM290.07 67.51H295.98V72.77H290.07V67.51ZM294.25 76.29H300.16V81.57H294.25V76.29ZM295.98 84.6V89.88H290.07V84.6H295.98ZM290.07 92.97H295.98V98.25H290.07V92.97ZM294.25 101.28H300.16V106.56H294.25V101.28ZM294.25 126.46H300.16V131.74H294.25V126.46ZM294.25 143.08H300.16V148.36H294.25V143.08ZM326.43 148.36H320.52V143.08H326.43V148.36ZM322.25 140.05H316.34V134.77H322.25V140.05ZM320.52 131.74V126.46H326.43V131.74H320.52ZM326.43 123.18H320.52V117.9H326.43V123.18ZM322.25 114.87H316.34V109.59H322.25V114.87ZM322.25 89.88H316.34V84.6H322.25V89.88Z" fill="#38237C"/>
        <path d="M300.16 143.08H294.25V148.36H300.16V143.08Z" fill="#8D86EB"/>
        <path d="M326.43 143.08H320.52V148.36H326.43V143.08Z" fill="#EBF0FF"/>
        <path d="M317.52 143.08H311.84V148.36H317.52V143.08Z" fill="#A5A5F9"/>
        <path d="M308.84 143.08H303.16V148.36H308.84V143.08Z" fill="#A5A5F9"/>
        <path d="M192.18 137.7H186.27V142.98H192.18V137.7Z" fill="#8D86EB"/>
        <path d="M218.45 137.7H212.54V142.98H218.45V137.7Z" fill="#EBF0FF"/>
        <path d="M200.86 137.7H195.18V142.98H200.86V137.7Z" fill="#A5A5F9"/>
        <path d="M209.54 137.7H203.86V142.98H209.54V137.7Z" fill="#A5A5F9"/>
        <path d="M192.18 121.08H186.27V126.36H192.18V121.08Z" fill="#8D86EB"/>
        <path d="M218.45 121.08H212.54V126.36H218.45V121.08Z" fill="#EBF0FF"/>
        <path d="M209.54 121.08H203.86V126.36H209.54V121.08Z" fill="#A5A5F9"/>
        <path d="M200.86 121.08H195.18V126.36H200.86V121.08Z" fill="#A5A5F9"/>
        <path d="M196.35 129.39H190.44V134.67H196.35V129.39Z" fill="#8D86EB"/>
        <path d="M222.62 129.39H216.71V134.67H222.62V129.39Z" fill="#EBF0FF"/>
        <path d="M213.71 129.39H208.03V134.67H213.71V129.39Z" fill="#A5A5F9"/>
        <path d="M205.03 129.39H199.35V134.67H205.03V129.39Z" fill="#A5A5F9"/>
        <path d="M222.62 126.39H221.44C221.44 126.39 221.44 126.37 221.44 126.36V121.08C221.44 119.42 220.1 118.08 218.44 118.08H186.26C184.6 118.08 183.26 119.42 183.26 121.08V126.36C183.26 128.02 184.6 129.36 186.26 129.36H187.44C187.44 129.36 187.44 129.38 187.44 129.39V134.67C187.44 134.67 187.44 134.69 187.44 134.7H186.26C184.6 134.7 183.26 136.04 183.26 137.7V142.98C183.26 144.64 184.6 145.98 186.26 145.98H218.44C220.1 145.98 221.44 144.64 221.44 142.98V137.7C221.44 137.7 221.44 137.68 221.44 137.67H222.62C224.28 137.67 225.62 136.33 225.62 134.67V129.39C225.62 127.73 224.28 126.39 222.62 126.39V126.39ZM222.62 134.67H216.71V129.39H222.62V134.67ZM186.26 137.7H192.17V142.98H186.26V137.7ZM195.17 137.7H200.85V142.98H195.17V137.7ZM203.85 137.7H209.53V142.98H203.85V137.7ZM205.03 129.39V134.67H199.35V129.39H205.03ZM208.03 129.39H213.71V134.67H208.03V129.39ZM209.53 126.36H203.85V121.08H209.53V126.36ZM200.85 126.36H195.17V121.08H200.85V126.36ZM218.44 126.36H212.53V121.08H218.44V126.36ZM186.26 121.08H192.17V126.36H186.26V121.08ZM190.44 129.39H196.35V134.67H190.44V129.39ZM218.44 142.98H212.53V137.7H218.44V142.98Z" fill="#38237C"/>
        <path d="M393.43 121.74H387.52V127.02H393.43V121.74Z" fill="#8D86EB"/>
        <path d="M419.7 121.74H413.79V127.02H419.7V121.74Z" fill="#EBF0FF"/>
        <path d="M402.11 121.74H396.43V127.02H402.11V121.74Z" fill="#A5A5F9"/>
        <path d="M410.79 121.74H405.11V127.02H410.79V121.74Z" fill="#A5A5F9"/>
        <path d="M397.61 130.05H391.7V135.33H397.61V130.05Z" fill="#8D86EB"/>
        <path d="M423.88 130.05H417.97V135.33H423.88V130.05Z" fill="#EBF0FF"/>
        <path d="M414.97 130.05H409.29V135.33H414.97V130.05Z" fill="#A5A5F9"/>
        <path d="M406.29 130.05H400.61V135.33H406.29V130.05Z" fill="#A5A5F9"/>
        <path d="M393.43 105.18H391.7C391.49 105.18 391.29 105.16 391.1 105.12H387.53V110.4H393.44V105.18H393.43Z" fill="#8D86EB"/>
        <path d="M419.7 105.18H413.79V110.4H419.7V105.18Z" fill="#EBF0FF"/>
        <path d="M410.79 105.18H405.11V110.4H410.79V105.18Z" fill="#A5A5F9"/>
        <path d="M402.11 105.18H396.43V110.4H402.11V105.18Z" fill="#A5A5F9"/>
        <path d="M422.7 105.18H423.88C425.54 105.18 426.88 103.84 426.88 102.18V96.8998C426.88 95.2398 425.54 93.8998 423.88 93.8998H422.7C422.7 93.8998 422.7 93.8799 422.7 93.8699V88.5898C422.7 86.9298 421.36 85.5898 419.7 85.5898H387.52C385.86 85.5898 384.52 86.9298 384.52 88.5898V93.8699C384.52 95.5299 385.86 96.8699 387.52 96.8699H388.7C388.7 96.8699 388.7 96.8898 388.7 96.8998V102.12H387.52C385.86 102.12 384.52 103.46 384.52 105.12V110.4C384.52 112.06 385.86 113.4 387.52 113.4H388.7C388.7 113.4 388.7 113.42 388.7 113.43V118.71C388.7 118.71 388.7 118.73 388.7 118.74H387.52C385.86 118.74 384.52 120.08 384.52 121.74V127.02C384.52 128.68 385.86 130.02 387.52 130.02H388.7C388.7 130.02 388.7 130.04 388.7 130.05V135.33C388.7 136.99 390.04 138.33 391.7 138.33H423.88C425.54 138.33 426.88 136.99 426.88 135.33V130.05C426.88 128.39 425.54 127.05 423.88 127.05H422.7C422.7 127.05 422.7 127.03 422.7 127.02V121.74C422.7 121.74 422.7 121.72 422.7 121.71H423.88C425.54 121.71 426.88 120.37 426.88 118.71V113.43C426.88 111.77 425.54 110.43 423.88 110.43H422.7C422.7 110.43 422.7 110.41 422.7 110.4V105.18ZM423.88 118.71H417.97V113.43H423.88V118.71ZM387.52 121.74H393.43V127.02H387.52V121.74ZM391.7 96.8998H397.61V102.18H391.7V96.8998ZM405.11 127.02V121.74H410.79V127.02H405.11ZM402.11 127.02H396.43V121.74H402.11V127.02ZM400.61 130.05H406.29V135.33H400.61V130.05ZM409.29 130.05H414.97V135.33H409.29V130.05ZM409.29 102.18V96.8998H414.97V102.18H409.29ZM400.61 96.8998H406.29V102.18H400.61V96.8998ZM410.79 93.8699H405.11V88.5898H410.79V93.8699ZM402.11 93.8699H396.43V88.5898H402.11V93.8699ZM409.29 113.43H414.97V118.71H409.29V113.43ZM406.29 118.71H400.61V113.43H406.29V118.71ZM405.11 110.4V105.18H410.79V110.4H405.11ZM402.11 110.4H396.43V105.18H402.11V110.4ZM423.88 102.18H417.97V96.8998H423.88V102.18ZM419.7 93.8699H413.79V88.5898H419.7V93.8699ZM387.52 88.5898H393.43V93.8699H387.52V88.5898ZM387.52 105.12H391.09C391.29 105.16 391.49 105.18 391.69 105.18H393.42V110.4H387.51V105.12H387.52ZM391.7 113.43H397.61V118.71H391.7V113.43ZM391.7 130.05H397.61V135.33H391.7V130.05ZM423.88 135.33H417.97V130.05H423.88V135.33ZM419.7 127.02H413.79V121.74H419.7V127.02ZM413.79 110.4V105.18H419.7V110.4H413.79Z" fill="#38237C"/>
        <path d="M397.61 113.43H391.7V118.71H397.61V113.43Z" fill="#8D86EB"/>
        <path d="M423.88 113.43H417.97V118.71H423.88V113.43Z" fill="#EBF0FF"/>
        <path d="M406.29 113.43H400.61V118.71H406.29V113.43Z" fill="#A5A5F9"/>
        <path d="M414.97 113.43H409.29V118.71H414.97V113.43Z" fill="#A5A5F9"/>
        <path d="M393.43 88.5898H387.52V93.8699H393.43V88.5898Z" fill="#8D86EB"/>
        <path d="M419.7 88.5898H413.79V93.8699H419.7V88.5898Z" fill="#EBF0FF"/>
        <path d="M402.11 88.5898H396.43V93.8699H402.11V88.5898Z" fill="#A5A5F9"/>
        <path d="M410.79 88.5898H405.11V93.8699H410.79V88.5898Z" fill="#A5A5F9"/>
        <path d="M397.61 96.8999H391.7V102.18H397.61V96.8999Z" fill="#8D86EB"/>
        <path d="M423.88 96.8999H417.97V102.18H423.88V96.8999Z" fill="#EBF0FF"/>
        <path d="M414.97 96.8999H409.29V102.18H414.97V96.8999Z" fill="#A5A5F9"/>
        <path d="M406.29 96.8999H400.61V102.18H406.29V96.8999Z" fill="#A5A5F9"/>
        <path d="M442.94 137.45L496.45 160.86C497.46 161.3 497.92 162.48 497.48 163.49C497.15 164.24 496.42 164.69 495.65 164.69C495.38 164.69 495.11 164.64 494.85 164.52L494.46 164.35L474.9 163.69L421.71 138.81L416.44 139.81L407.59 141.58C407.39 141.62 407.19 141.63 406.99 141.61L390.19 144.8L384.63 143.61L351.44 159.66C351.36 159.7 351.28 159.72 351.2 159.75L343.05 164.23L295.55 153.35H280.84L228.1 132.81L202.31 146.29C202.31 146.29 202.21 146.32 202.16 146.35L193.31 151.15L171.6 150.27L149.31 164.38C148.98 164.59 135.74 172.51 135.38 172.51H517.16L442.98 137.45H442.94Z" fill="#C0DBFF"/>
        <path d="M179.06 145.54L171.57 150.28L193.28 151.16L202.13 146.36C201.86 146.48 201.57 146.54 201.27 146.53L179.05 145.54H179.06Z" fill="white"/>
        <path d="M416.43 139.81L421.71 138.8L474.9 163.69L494.46 164.35L431.48 136.8L416.43 139.81Z" fill="white"/>
        <path d="M350.06 159.8L307.37 148.99H292.91C292.67 148.99 292.42 148.95 292.2 148.86L237.46 127.93L228.09 132.83L280.83 153.37H295.54L343.04 164.25L351.19 159.77C350.83 159.89 350.44 159.91 350.06 159.82V159.8Z" fill="white"/>
        <path d="M384.61 143.61L390.17 144.8L406.97 141.6L392.01 140.03L384.61 143.61Z" fill="white"/>
        <path d="M171.57 150.27L179.06 145.53L201.28 146.52C201.58 146.53 201.87 146.47 202.14 146.35C202.19 146.33 202.25 146.32 202.29 146.29L228.08 132.81L237.45 127.91L292.19 148.84C292.42 148.93 292.66 148.97 292.9 148.97H307.36L350.05 159.78C350.42 159.87 350.81 159.85 351.18 159.73C351.26 159.7 351.34 159.68 351.42 159.64L384.61 143.59L392.02 140.01L406.98 141.58C407.18 141.6 407.38 141.59 407.58 141.55L416.43 139.78L431.48 136.77L494.46 164.32L494.85 164.49C495.11 164.6 495.38 164.66 495.65 164.66C496.42 164.66 497.15 164.21 497.48 163.46C497.92 162.45 497.46 161.27 496.45 160.83L442.94 137.42L432.5 132.85C432.12 132.69 431.71 132.64 431.31 132.72L407.09 137.56L391.86 135.96C391.49 135.92 391.12 135.99 390.78 136.15L350.33 155.71L308.1 145.01C307.94 144.97 307.77 144.95 307.61 144.95H293.27L238.04 123.83C237.5 123.63 236.91 123.66 236.4 123.93L200.92 142.48L178.61 141.48C178.21 141.46 177.8 141.57 177.45 141.79L147.14 160.97C146.21 161.56 145.93 162.8 146.52 163.73C146.9 164.33 147.55 164.66 148.21 164.66C148.58 164.66 148.94 164.56 149.28 164.35L171.57 150.24V150.27Z" fill="#38237C"/>
    </svg>
