<svg width="616" height="112" viewBox="0 0 616 112" fill="none" xmlns="http://www.w3.org/2000/svg">
<path d="M162.752 40.8887L162.587 42.101C161.795 47.9384 157.205 52.5287 151.368 53.3208L150.155 53.4856L151.368 53.6503C157.205 54.4424 161.795 59.0327 162.587 64.8701L162.752 66.0825L162.917 64.8701C163.709 59.0327 168.299 54.4424 174.137 53.6503L175.349 53.4856L174.137 53.3208C168.299 52.5287 163.709 47.9384 162.917 42.101L162.752 40.8887Z" fill="white"/>
<path d="M23.0384 0.0234375L21.3556 12.4228C20.7232 17.0822 17.0587 20.7468 12.3992 21.3792L0 23.0622L12.3992 24.7446C17.0587 25.377 20.7232 29.0417 21.3556 33.701L23.0384 46.1004L24.7212 33.701C25.3536 29.0417 29.0181 25.377 33.6776 24.7446L46.0768 23.0622L33.6776 21.3792C29.0181 20.7468 25.3536 17.0822 24.7212 12.4228L23.0384 0.0234375Z" fill="white"/>
<path d="M603.75 14.6865L602.917 20.8253C602.604 23.132 600.789 24.946 598.483 25.2594L592.344 26.0923L598.483 26.9252C600.789 27.2386 602.604 29.0526 602.917 31.3593L603.75 37.498L604.583 31.3593C604.896 29.0526 606.71 27.2386 609.017 26.9252L615.155 26.0923L609.017 25.2594C606.71 24.946 604.896 23.132 604.583 20.8253L603.75 14.6865Z" fill="white"/>
<path d="M59.5349 111.742C57.3086 111.742 55.5039 109.937 55.5039 107.711C55.5039 105.484 57.3086 103.68 59.5349 103.68C61.7612 103.68 63.5659 105.484 63.5659 107.711C63.5659 109.937 61.7612 111.742 59.5349 111.742Z" fill="white"/>
<path opacity="0.78" d="M266.24 54.687C264.014 54.687 262.209 52.8823 262.209 50.656C262.209 48.4297 264.014 46.625 266.24 46.625C268.467 46.625 270.271 48.4297 270.271 50.656C270.271 52.8823 268.467 54.687 266.24 54.687Z" fill="white"/>
<path opacity="0.78" d="M289.915 101.38C288.523 101.38 287.395 100.252 287.395 98.8607C287.395 97.4693 288.523 96.3413 289.915 96.3413C291.306 96.3413 292.434 97.4693 292.434 98.8607C292.434 100.252 291.306 101.38 289.915 101.38Z" fill="white"/>
<path opacity="0.4" d="M511.977 109.106C510.307 109.106 508.953 107.753 508.953 106.083C508.953 104.413 510.307 103.06 511.977 103.06C513.646 103.06 515 104.413 515 106.083C515 107.753 513.646 109.106 511.977 109.106Z" fill="white"/>
<path d="M558.915 81.4313C557.245 81.4313 555.891 80.0777 555.891 78.408C555.891 76.7383 557.245 75.3848 558.915 75.3848C560.584 75.3848 561.938 76.7383 561.938 78.408C561.938 80.0777 560.584 81.4313 558.915 81.4313Z" fill="white"/>
<path d="M212.674 88.2531C211.005 88.2531 209.651 86.8995 209.651 85.2298C209.651 83.5601 211.005 82.2065 212.674 82.2065C214.344 82.2065 215.698 83.5601 215.698 85.2298C215.698 86.8995 214.344 88.2531 212.674 88.2531Z" fill="white"/>
<path d="M130.31 96.6251C128.64 96.6251 127.286 95.2716 127.286 93.6019C127.286 91.9322 128.64 90.5786 130.31 90.5786C131.979 90.5786 133.333 91.9322 133.333 93.6019C133.333 95.2716 131.979 96.6251 130.31 96.6251Z" fill="white"/>
<path opacity="0.34" d="M187.635 13.0465C185.966 13.0465 184.612 11.693 184.612 10.0233C184.612 8.35356 185.966 7 187.635 7C189.305 7 190.659 8.35356 190.659 10.0233C190.659 11.693 189.305 13.0465 187.635 13.0465Z" fill="white"/>
</svg>
