<svg viewBox="0 0 562 162" fill="none" xmlns="http://www.w3.org/2000/svg">
    <path d="M25.2399 153.365C16.0699 153.365 7.6699 156.575 3.6499 161.455H551.81C556.66 161.455 560.7 157.995 561.61 153.415C561.11 153.395 560.61 153.365 560.09 153.365H25.2399Z" fill="url(#paint0_linear_2673_26748)"/>
    <path d="M25.24 150.365C13.76 150.365 3.93 154.895 0 161.455H3.64996C7.66996 156.575 16.07 153.365 25.24 153.365H560.09C560.6 153.365 561.1 153.385 561.61 153.415C561.73 152.785 561.8 152.135 561.8 151.465V150.415C561.23 150.395 560.67 150.375 560.09 150.375H25.24V150.365Z" fill="#38237C"/>
    <path d="M363.11 133.255V83.7651H355.18C356.64 85.9451 357.49 88.5651 357.49 91.3851V133.255H363.11Z" fill="#C0DBFF"/>
    <path d="M285.6 133.255V83.7651H277.34C278.8 85.9451 279.65 88.5651 279.65 91.3851V133.255H285.6Z" fill="#C0DBFF"/>
    <path d="M318.36 133.255H329.97V91.3851C329.97 88.5651 330.82 85.9451 332.28 83.7651H318.36V133.255Z" fill="#C0DBFF"/>
    <path d="M240.86 133.255H252.14V91.3851C252.14 88.5651 252.99 85.9451 254.45 83.7651H240.86V133.255V133.255Z" fill="#C0DBFF"/>
    <path d="M451.15 83.7549V93.6149C451.15 94.4449 450.48 95.1149 449.65 95.1149H442.64C441.81 95.1149 441.14 94.4449 441.14 93.6149V83.7549H433.18V93.6149C433.18 94.4449 432.51 95.1149 431.68 95.1149H424.67C423.84 95.1149 423.17 94.4449 423.17 93.6149V83.7549H415.21V93.6149C415.21 94.4449 414.54 95.1149 413.71 95.1149H406.7C405.87 95.1149 405.2 94.4449 405.2 93.6149V83.7549H395.86V133.245H412.12C412.95 133.245 413.62 133.915 413.62 134.745V140.035H426.2C427.03 140.035 427.7 140.705 427.7 141.535V150.295H459.44V83.7549H451.14H451.15ZM415.21 114.395C415.21 115.225 414.54 115.895 413.71 115.895H406.7C405.87 115.895 405.2 115.225 405.2 114.395V100.225C405.2 99.3949 405.87 98.7249 406.7 98.7249H413.71C414.54 98.7249 415.21 99.3949 415.21 100.225V114.395ZM433.18 114.395C433.18 115.225 432.51 115.895 431.68 115.895H424.67C423.84 115.895 423.17 115.225 423.17 114.395V100.225C423.17 99.3949 423.84 98.7249 424.67 98.7249H431.68C432.51 98.7249 433.18 99.3949 433.18 100.225V114.395ZM451.15 114.395C451.15 115.225 450.48 115.895 449.65 115.895H442.64C441.81 115.895 441.14 115.225 441.14 114.395V100.225C441.14 99.3949 441.81 98.7249 442.64 98.7249H449.65C450.48 98.7249 451.15 99.3949 451.15 100.225V114.395Z" fill="#C0DBFF"/>
    <path d="M413.62 50.795C413.62 51.625 412.95 52.295 412.12 52.295H400.67V59.295C400.67 60.125 400 60.795 399.17 60.795H395.86V64.065H436.33L428.46 45.585H413.62V50.795V50.795Z" fill="#77A4F2"/>
    <path d="M151.53 64.065H213.64V60.795H210.33C209.5 60.795 208.83 60.125 208.83 59.295V52.295H197.38C196.55 52.295 195.88 51.625 195.88 50.795V45.585H159.54L151.53 64.065Z" fill="#77A4F2"/>
    <path d="M323.17 52.2949V59.2949C323.17 60.1249 322.5 60.7949 321.67 60.7949H318.36V64.0649H368.64V60.7949H365.33C364.5 60.7949 363.83 60.1249 363.83 59.2949V52.2949H323.16H323.17Z" fill="#77A4F2"/>
    <path d="M240.86 60.7949V64.0649H291.14V60.7949H287.83C287 60.7949 286.33 60.1249 286.33 59.2949V52.2949H245.66V59.2949C245.66 60.1249 244.99 60.7949 244.16 60.7949H240.85H240.86Z" fill="#77A4F2"/>
    <path d="M181.79 141.545C181.79 140.715 182.46 140.045 183.29 140.045H195.87V134.755C195.87 133.925 196.54 133.255 197.37 133.255H213.63V72.585H150.04V150.315H181.78V141.555L181.79 141.545ZM205 114.395C205 115.225 204.33 115.895 203.5 115.895H196.49C195.66 115.895 194.99 115.225 194.99 114.395V100.225C194.99 99.395 195.66 98.725 196.49 98.725H203.5C204.33 98.725 205 99.395 205 100.225V114.395ZM196.49 77.955H203.5C204.33 77.955 205 78.625 205 79.455V93.625C205 94.455 204.33 95.125 203.5 95.125H196.49C195.66 95.125 194.99 94.455 194.99 93.625V79.455C194.99 78.625 195.66 77.955 196.49 77.955ZM178.52 77.955H185.53C186.36 77.955 187.03 78.625 187.03 79.455V93.625C187.03 94.455 186.36 95.125 185.53 95.125H178.52C177.69 95.125 177.02 94.455 177.02 93.625V79.455C177.02 78.625 177.69 77.955 178.52 77.955ZM169.06 114.395C169.06 115.225 168.39 115.895 167.56 115.895H160.55C159.72 115.895 159.05 115.225 159.05 114.395V100.225C159.05 99.395 159.72 98.725 160.55 98.725H167.56C168.39 98.725 169.06 99.395 169.06 100.225V114.395ZM167.56 95.115H160.55C159.72 95.115 159.05 94.445 159.05 93.615V79.445C159.05 78.615 159.72 77.945 160.55 77.945H167.56C168.39 77.945 169.06 78.615 169.06 79.445V93.615C169.06 94.445 168.39 95.115 167.56 95.115ZM177.02 114.395V100.225C177.02 99.395 177.69 98.725 178.52 98.725H185.53C186.36 98.725 187.03 99.395 187.03 100.225V114.395C187.03 115.225 186.36 115.895 185.53 115.895H178.52C177.69 115.895 177.02 115.225 177.02 114.395Z" fill="#77A4F2"/>
    <path d="M457.97 64.065L449.96 45.585H428.46L436.33 64.065H457.97Z" fill="#C0DBFF"/>
    <path d="M285.6 133.255H291.13V72.585H240.85V83.765H254.44C256.91 80.065 261.12 77.625 265.89 77.625C270.66 77.625 274.87 80.065 277.34 83.765H285.6V133.255V133.255Z" fill="#77A4F2"/>
    <path d="M363.11 133.255H368.64V72.585H318.36V83.765H332.28C334.75 80.065 338.96 77.625 343.73 77.625C348.5 77.625 352.71 80.065 355.18 83.765H363.11V133.255Z" fill="#77A4F2"/>
    <path d="M405.2 79.4552C405.2 78.6252 405.87 77.9552 406.7 77.9552H413.71C414.54 77.9552 415.21 78.6252 415.21 79.4552V83.7552H423.17V79.4552C423.17 78.6252 423.84 77.9552 424.67 77.9552H431.68C432.51 77.9552 433.18 78.6252 433.18 79.4552V83.7552H441.14V79.4552C441.14 78.6252 441.81 77.9552 442.64 77.9552H449.65C450.48 77.9552 451.15 78.6252 451.15 79.4552V83.7552H459.45V72.5752H395.87V83.7552H405.21V79.4552H405.2Z" fill="#77A4F2"/>
    <path d="M291.14 67.0649H240.86V69.5749H291.14V67.0649Z" fill="#77A4F2"/>
    <path d="M368.64 67.0649H318.36V69.5749H368.64V67.0649Z" fill="#77A4F2"/>
    <path d="M437.23 67.0649H395.86V69.5749H437.23V67.0649Z" fill="#77A4F2"/>
    <path d="M213.64 67.0649H143.93V69.5749H213.64V67.0649Z" fill="#77A4F2"/>
    <path d="M465.56 67.0649H437.23V69.5749H465.56V67.0649Z" fill="#C0DBFF"/>
    <path d="M467.07 64.065H461.24L452.32 43.485C452.08 42.935 451.54 42.585 450.94 42.585H421.75C421.79 42.445 421.84 42.315 421.86 42.175C422.22 40.215 421.16 38.355 419.24 37.635L305.22 0.075C304.91 -0.025 304.58 -0.025 304.28 0.075L190.32 37.665C188.82 38.245 187.87 39.575 187.75 41.095C187.75 41.155 187.74 41.205 187.74 41.265C187.73 41.565 187.74 41.875 187.8 42.195C187.83 42.335 187.87 42.465 187.91 42.595H158.56C157.96 42.595 157.42 42.955 157.18 43.495L148.26 64.075H142.43C141.6 64.075 140.93 64.745 140.93 65.575V71.085C140.93 71.915 141.6 72.585 142.43 72.585H147.05V151.815C147.05 152.645 147.72 153.315 148.55 153.315H460.94C461.77 153.315 462.44 152.645 462.44 151.815V72.585H467.06C467.89 72.585 468.56 71.915 468.56 71.085V65.575C468.56 64.745 467.89 64.075 467.06 64.075L467.07 64.065ZM465.57 69.575H395.86V67.065H465.57V69.575ZM143.93 67.065H213.64V69.575H143.93V67.065ZM449.96 45.585L457.97 64.065H395.86V60.795H399.17C400 60.795 400.67 60.125 400.67 59.295V52.295H412.12C412.95 52.295 413.62 51.625 413.62 50.795V45.585H449.96ZM211.83 57.795V52.295H242.66V57.795H211.83ZM198.88 49.295V45.505H410.62V49.295H198.88ZM216.64 60.795H237.86V133.255H234.07V67.155C234.07 66.545 233.83 65.965 233.39 65.535C232.95 65.105 232.36 64.865 231.75 64.865C231.14 64.865 230.54 65.105 230.11 65.535C229.67 65.965 229.43 66.545 229.43 67.155V133.245H225.07V67.155C225.07 66.545 224.83 65.965 224.39 65.535C223.95 65.105 223.36 64.865 222.75 64.865C222.14 64.865 221.54 65.105 221.11 65.535C220.67 65.965 220.43 66.545 220.43 67.155V133.245H216.64V60.795V60.795ZM345.32 80.755C350.5 81.525 354.48 85.995 354.48 91.385V133.255H349.6V90.945C349.6 85.515 347.27 82.415 345.32 80.755ZM355.17 83.765C352.7 80.065 348.49 77.625 343.72 77.625C338.95 77.625 334.74 80.065 332.27 83.765C330.81 85.945 329.96 88.565 329.96 91.385V133.255H318.35V72.585H368.63V133.255H357.48V91.385C357.48 88.565 356.63 85.945 355.17 83.765V83.765ZM311.57 68.195V67.165C311.57 66.555 311.33 65.975 310.89 65.545C310.45 65.115 309.86 64.875 309.25 64.875C308.64 64.875 308.04 65.115 307.61 65.545C307.17 65.975 306.93 66.555 306.93 67.165V133.255H302.57V67.155C302.57 66.545 302.33 65.965 301.89 65.535C301.45 65.105 300.86 64.865 300.25 64.865C299.64 64.865 299.04 65.105 298.61 65.535C298.17 65.965 297.93 66.545 297.93 67.155V133.245H294.14V60.795H315.36V133.255H311.57V68.195V68.195ZM245.67 59.295V52.295H286.34V59.295C286.34 60.125 287.01 60.795 287.84 60.795H291.15V64.065H240.87V60.795H244.18C245.01 60.795 245.68 60.125 245.68 59.295H245.67ZM365.34 60.795H368.65V64.065H318.37V60.795H321.68C322.51 60.795 323.18 60.125 323.18 59.295V52.295H363.85V59.295C363.85 60.125 364.52 60.795 365.35 60.795H365.34ZM240.86 67.065H291.14V69.575H240.86V67.065ZM318.36 69.575V67.065H368.64V69.575H318.36ZM311.69 52.295H320.16V57.795H289.33V52.295H311.69ZM267.49 80.755C272.67 81.525 276.66 85.995 276.66 91.385V133.255H271.78V90.945C271.78 85.515 269.45 82.415 267.5 80.755H267.49ZM277.34 83.765C274.87 80.065 270.66 77.625 265.89 77.625C261.12 77.625 256.91 80.065 254.44 83.765C252.98 85.945 252.13 88.565 252.13 91.385V133.255H240.85V72.585H291.13V133.255H279.64V91.385C279.64 88.565 278.79 85.945 277.33 83.765H277.34ZM389.19 57.805H366.83V52.305H397.66V57.805H389.19ZM198.87 136.265H410.61V140.055H198.87V136.265ZM389.06 133.265V67.155C389.06 66.545 388.82 65.965 388.38 65.535C387.94 65.105 387.35 64.865 386.74 64.865C386.13 64.865 385.53 65.105 385.1 65.535C384.66 65.965 384.42 66.545 384.42 67.155V133.245H380.06V67.155C380.06 66.545 379.82 65.965 379.38 65.535C378.94 65.105 378.35 64.865 377.74 64.865C377.13 64.865 376.53 65.105 376.1 65.535C375.66 65.965 375.42 66.545 375.42 67.155V133.245H371.63V60.795H392.85V133.255H389.06V133.265ZM184.79 143.055H424.7V150.315H184.79V143.055ZM191.32 40.495L304.7 3.085H304.74L418.24 40.455C419.01 40.745 418.94 41.435 418.91 41.635C418.87 41.835 418.69 42.505 417.87 42.505H191.78C190.97 42.505 190.78 41.845 190.74 41.645C190.7 41.445 190.64 40.765 191.33 40.495H191.32ZM195.87 45.595V50.805C195.87 51.635 196.54 52.305 197.37 52.305H208.82V59.305C208.82 60.135 209.49 60.805 210.32 60.805H213.63V64.075H151.52L159.53 45.595H195.87V45.595ZM150.05 72.595H213.64V133.265H197.38C196.55 133.265 195.88 133.935 195.88 134.765V140.055H183.3C182.47 140.055 181.8 140.725 181.8 141.555V150.315H150.06V72.585L150.05 72.595ZM427.7 150.325V141.565C427.7 140.735 427.03 140.065 426.2 140.065H413.62V134.775C413.62 133.945 412.95 133.275 412.12 133.275H395.86V72.605H459.44V150.335H427.7V150.325Z" fill="#38237C"/>
    <path d="M304.72 7.49512L219.41 35.5951C218.05 36.0451 218.37 38.0551 219.81 38.0551H397.31L304.73 7.56512V7.49512H304.72Z" fill="#C0DBFF"/>
    <path d="M237.86 68.1948H234.07V133.255H237.86V68.1948Z" fill="#A5A5F9"/>
    <path d="M227.22 73.2552V133.255H229.43V69.0752C228.1 69.9852 227.22 71.5152 227.22 73.2552V73.2552Z" fill="#A5A5F9"/>
    <path d="M220.43 67.1552C220.43 66.5452 220.67 65.9652 221.11 65.5352C221.55 65.1052 222.14 64.8652 222.75 64.8652C223.36 64.8652 223.96 65.1052 224.39 65.5352C224.83 65.9652 225.07 66.5452 225.07 67.1552V133.245H227.22V73.2452C227.22 71.5052 228.1 69.9752 229.43 69.0652V67.1552C229.43 66.5452 229.67 65.9652 230.11 65.5352C230.55 65.1052 231.14 64.8652 231.75 64.8652C232.36 64.8652 232.96 65.1052 233.39 65.5352C233.83 65.9652 234.07 66.5452 234.07 67.1552V68.1852H237.86V60.7852H216.64V133.245H220.43V67.1552V67.1552Z" fill="#8D86EB"/>
    <path d="M234.19 52.2949H211.83V57.7949H234.19V52.2949Z" fill="#8D86EB"/>
    <path d="M242.66 52.2949H234.19V57.7949H242.66V52.2949Z" fill="#A5A5F9"/>
    <path d="M304.72 73.2552V133.255H306.93V69.0752C305.6 69.9852 304.72 71.5152 304.72 73.2552V73.2552Z" fill="#A5A5F9"/>
    <path d="M315.36 68.1948H311.57V133.255H315.36V68.1948Z" fill="#A5A5F9"/>
    <path d="M315.36 60.7952H294.14V133.255H297.93V67.1552C297.93 66.5452 298.17 65.9652 298.61 65.5352C299.05 65.1052 299.64 64.8652 300.25 64.8652C300.86 64.8652 301.46 65.1052 301.89 65.5352C302.32 65.9652 302.57 66.5452 302.57 67.1552V133.245H304.72V73.2452C304.72 71.5052 305.6 69.9752 306.93 69.0652V67.1552C306.93 66.5452 307.17 65.9652 307.61 65.5352C308.05 65.1052 308.64 64.8652 309.25 64.8652C309.86 64.8652 310.46 65.1052 310.89 65.5352C311.33 65.9652 311.57 66.5452 311.57 67.1552V68.1852H315.36V60.7852V60.7952Z" fill="#8D86EB"/>
    <path d="M311.69 52.2949H289.33V57.7949H311.69V52.2949Z" fill="#8D86EB"/>
    <path d="M320.16 52.2949H311.69V57.7949H320.16V52.2949Z" fill="#A5A5F9"/>
    <path d="M392.86 68.1948H389.07V133.255H392.86V68.1948Z" fill="#A5A5F9"/>
    <path d="M382.22 73.2552V133.255H384.43V69.0752C383.1 69.9852 382.22 71.5152 382.22 73.2552V73.2552Z" fill="#A5A5F9"/>
    <path d="M392.86 60.7952H371.64V133.255H375.43V67.1552C375.43 66.5452 375.67 65.9652 376.11 65.5352C376.55 65.1052 377.14 64.8652 377.75 64.8652C378.36 64.8652 378.96 65.1052 379.39 65.5352C379.83 65.9652 380.07 66.5452 380.07 67.1552V133.245H382.22V73.2452C382.22 71.5052 383.1 69.9752 384.43 69.0652V67.1552C384.43 66.5452 384.67 65.9652 385.11 65.5352C385.55 65.1052 386.14 64.8652 386.75 64.8652C387.36 64.8652 387.96 65.1052 388.39 65.5352C388.83 65.9652 389.07 66.5452 389.07 67.1552V68.1852H392.86V60.7852V60.7952Z" fill="#8D86EB"/>
    <path d="M389.19 52.2949H366.83V57.7949H389.19V52.2949Z" fill="#8D86EB"/>
    <path d="M397.66 52.2949H389.19V57.7949H397.66V52.2949Z" fill="#A5A5F9"/>
    <path d="M410.62 49.2949V49.2449H389.19V45.5049H219.35V49.2449H198.88V49.2949H410.62Z" fill="#C0DBFF"/>
    <path d="M389.19 140.045V136.255H370.14H355.99H331.47H316.86H292.64H278.15H253.63V140.045H389.19Z" fill="#C0DBFF"/>
    <path d="M404.64 143.045H240.27V150.305H404.64V143.045Z" fill="#C0DBFF"/>
    <path d="M166.06 80.9551H162.05V92.1251H166.06V80.9551Z" fill="#503EAA"/>
    <path d="M169.06 79.4551C169.06 78.6251 168.39 77.9551 167.56 77.9551H160.55C159.72 77.9551 159.05 78.6251 159.05 79.4551V93.6251C159.05 94.4551 159.72 95.1251 160.55 95.1251H167.56C168.39 95.1251 169.06 94.4551 169.06 93.6251V79.4551ZM162.05 92.1251V80.9551H166.06V92.1251H162.05Z" fill="#38237C"/>
    <path d="M184.03 80.9551H180.02V92.1251H184.03V80.9551Z" fill="#503EAA"/>
    <path d="M177.02 93.6251C177.02 94.4551 177.69 95.1251 178.52 95.1251H185.53C186.36 95.1251 187.03 94.4551 187.03 93.6251V79.4551C187.03 78.6251 186.36 77.9551 185.53 77.9551H178.52C177.69 77.9551 177.02 78.6251 177.02 79.4551V93.6251ZM184.03 80.9551V92.1251H180.02V80.9551H184.03Z" fill="#38237C"/>
    <path d="M202 80.9551H197.99V92.1251H202V80.9551Z" fill="#503EAA"/>
    <path d="M194.99 93.6251C194.99 94.4551 195.66 95.1251 196.49 95.1251H203.5C204.33 95.1251 205 94.4551 205 93.6251V79.4551C205 78.6251 204.33 77.9551 203.5 77.9551H196.49C195.66 77.9551 194.99 78.6251 194.99 79.4551V93.6251ZM202 80.9551V92.1251H197.99V80.9551H202Z" fill="#38237C"/>
    <path d="M412.21 80.9551H408.2V92.1251H412.21V80.9551Z" fill="#503EAA"/>
    <path d="M413.71 77.9551H406.7C405.87 77.9551 405.2 78.6251 405.2 79.4551V93.6251C405.2 94.4551 405.87 95.1251 406.7 95.1251H413.71C414.54 95.1251 415.21 94.4551 415.21 93.6251V79.4551C415.21 78.6251 414.54 77.9551 413.71 77.9551ZM408.2 92.1251V80.9551H412.21V92.1251H408.2Z" fill="#38237C"/>
    <path d="M430.18 80.9551H426.17V92.1251H430.18V80.9551Z" fill="#503EAA"/>
    <path d="M431.68 77.9551H424.67C423.84 77.9551 423.17 78.6251 423.17 79.4551V93.6251C423.17 94.4551 423.84 95.1251 424.67 95.1251H431.68C432.51 95.1251 433.18 94.4551 433.18 93.6251V79.4551C433.18 78.6251 432.51 77.9551 431.68 77.9551ZM426.17 92.1251V80.9551H430.18V92.1251H426.17Z" fill="#38237C"/>
    <path d="M448.15 80.9551H444.14V92.1251H448.15V80.9551Z" fill="#503EAA"/>
    <path d="M449.65 77.9551H442.64C441.81 77.9551 441.14 78.6251 441.14 79.4551V93.6251C441.14 94.4551 441.81 95.1251 442.64 95.1251H449.65C450.48 95.1251 451.15 94.4551 451.15 93.6251V79.4551C451.15 78.6251 450.48 77.9551 449.65 77.9551ZM444.14 92.1251V80.9551H448.15V92.1251H444.14Z" fill="#38237C"/>
    <path d="M166.06 101.735H162.05V112.905H166.06V101.735Z" fill="#503EAA"/>
    <path d="M167.56 98.7349H160.55C159.72 98.7349 159.05 99.4049 159.05 100.235V114.405C159.05 115.235 159.72 115.905 160.55 115.905H167.56C168.39 115.905 169.06 115.235 169.06 114.405V100.235C169.06 99.4049 168.39 98.7349 167.56 98.7349ZM166.06 112.905H162.05V101.735H166.06V112.905Z" fill="#38237C"/>
    <path d="M184.03 101.735H180.02V112.905H184.03V101.735Z" fill="#503EAA"/>
    <path d="M185.53 115.895C186.36 115.895 187.03 115.225 187.03 114.395V100.225C187.03 99.3951 186.36 98.7251 185.53 98.7251H178.52C177.69 98.7251 177.02 99.3951 177.02 100.225V114.395C177.02 115.225 177.69 115.895 178.52 115.895H185.53ZM180.02 101.725H184.03V112.895H180.02V101.725Z" fill="#38237C"/>
    <path d="M202 101.735H197.99V112.905H202V101.735Z" fill="#503EAA"/>
    <path d="M203.5 98.7349H196.49C195.66 98.7349 194.99 99.4049 194.99 100.235V114.405C194.99 115.235 195.66 115.905 196.49 115.905H203.5C204.33 115.905 205 115.235 205 114.405V100.235C205 99.4049 204.33 98.7349 203.5 98.7349ZM202 112.905H197.99V101.735H202V112.905Z" fill="#38237C"/>
    <path d="M412.21 101.735H408.2V112.905H412.21V101.735Z" fill="#503EAA"/>
    <path d="M413.71 98.7349H406.7C405.87 98.7349 405.2 99.4049 405.2 100.235V114.405C405.2 115.235 405.87 115.905 406.7 115.905H413.71C414.54 115.905 415.21 115.235 415.21 114.405V100.235C415.21 99.4049 414.54 98.7349 413.71 98.7349ZM412.21 112.905H408.2V101.735H412.21V112.905Z" fill="#38237C"/>
    <path d="M430.18 101.735H426.17V112.905H430.18V101.735Z" fill="#503EAA"/>
    <path d="M431.68 98.7349H424.67C423.84 98.7349 423.17 99.4049 423.17 100.235V114.405C423.17 115.235 423.84 115.905 424.67 115.905H431.68C432.51 115.905 433.18 115.235 433.18 114.405V100.235C433.18 99.4049 432.51 98.7349 431.68 98.7349ZM430.18 112.905H426.17V101.735H430.18V112.905Z" fill="#38237C"/>
    <path d="M448.15 101.735H444.14V112.905H448.15V101.735Z" fill="#503EAA"/>
    <path d="M449.65 98.7349H442.64C441.81 98.7349 441.14 99.4049 441.14 100.235V114.405C441.14 115.235 441.81 115.905 442.64 115.905H449.65C450.48 115.905 451.15 115.235 451.15 114.405V100.235C451.15 99.4049 450.48 98.7349 449.65 98.7349ZM448.15 112.905H444.14V101.735H448.15V112.905Z" fill="#38237C"/>
    <path d="M253.63 140.045V136.255H239.36H215.14H198.88V140.045H253.63Z" fill="#77A4F2"/>
    <path d="M187.65 41.1252L187.73 41.2652C187.73 41.2052 187.73 41.1552 187.74 41.0952L187.65 41.1252Z" fill="#77A4F2"/>
    <path d="M191.78 42.5052H410.79L397.3 38.0652H219.8C218.36 38.0652 218.04 36.0552 219.4 35.6052L304.71 7.50522L304.69 3.09521L191.31 40.4952C190.62 40.7652 190.69 41.4452 190.72 41.6452C190.75 41.8452 190.94 42.5052 191.76 42.5052H191.78Z" fill="#77A4F2"/>
    <path d="M240.27 150.315V143.045H197.38H184.79V150.315H240.27Z" fill="#77A4F2"/>
    <path d="M304.72 7.5652L397.3 38.0552L410.79 42.4952H417.88C418.7 42.4952 418.88 41.8352 418.92 41.6252C418.96 41.4252 419.02 40.7352 418.25 40.4452L304.75 3.0752H304.71L304.73 7.4952V7.5652H304.72Z" fill="white"/>
    <path d="M410.62 140.045V136.255H394.36H389.19V140.045H410.62Z" fill="white"/>
    <path d="M410.62 45.5049H389.19V49.2449H410.62V45.5049Z" fill="white"/>
    <path d="M219.36 45.5049H198.88V49.2449H219.36V45.5049Z" fill="#77A4F2"/>
    <path d="M424.7 150.315V143.045H412.12H404.65V150.315H424.7Z" fill="white"/>
    <path d="M276.65 133.255V91.3849C276.65 85.9949 272.66 81.5349 267.48 80.7549C269.43 82.4149 271.76 85.5149 271.76 90.9449V133.255H276.64H276.65Z" fill="#503EAA"/>
    <path d="M354.49 133.255V91.3849C354.49 85.9949 350.5 81.5349 345.33 80.7549C347.28 82.4149 349.61 85.5149 349.61 90.9449V133.255H354.49Z" fill="#503EAA"/>
    <path d="M308.98 23.6952V26.0252C308.98 26.2252 308.89 26.4052 308.74 26.5352L305.18 29.4452C304.93 29.6552 304.57 29.6552 304.32 29.4452L300.76 26.5352C300.61 26.4152 300.52 26.2252 300.52 26.0252V23.6952C300.52 23.4652 300.79 23.3352 300.97 23.4852L304.45 26.3352C304.62 26.4752 304.87 26.4752 305.05 26.3352L308.53 23.4852C308.71 23.3352 308.98 23.4652 308.98 23.6952V23.6952Z" fill="#38237C"/>
    <path d="M314.08 14.3052V29.3152C314.08 29.5852 313.86 29.8052 313.59 29.8052H311.15C310.88 29.8052 310.66 29.5852 310.66 29.3152V20.2152C310.66 19.9752 310.39 19.8452 310.2 19.9852L305.05 23.8952C304.87 24.0252 304.63 24.0252 304.45 23.8952L299.3 19.9852C299.11 19.8452 298.84 19.9852 298.84 20.2152V29.3152C298.84 29.5852 298.62 29.8052 298.35 29.8052H295.91C295.64 29.8052 295.42 29.5852 295.42 29.3152V14.3052C295.42 14.0652 295.62 13.8652 295.86 13.8652H296.55C296.68 13.8652 296.81 13.9052 296.91 13.9852L304.5 19.4552C304.65 19.5652 304.86 19.5652 305.02 19.4552L312.61 13.9852C312.71 13.9052 312.84 13.8652 312.97 13.8652H313.66C313.9 13.8652 314.1 14.0652 314.1 14.3052H314.08Z" fill="#38237C"/>
    <path d="M313.73 31.5254H295.78C295.581 31.5254 295.42 31.6866 295.42 31.8854V34.5854C295.42 34.7842 295.581 34.9454 295.78 34.9454H313.73C313.929 34.9454 314.09 34.7842 314.09 34.5854V31.8854C314.09 31.6866 313.929 31.5254 313.73 31.5254Z" fill="#38237C"/>
    <path d="M485.16 75.1447C483.52 72.8347 482.88 70.0147 483.36 67.2147L482.16 67.0146C481.63 70.1346 482.34 73.2747 484.17 75.8547C486 78.4347 488.72 80.1447 491.85 80.6747L492.05 79.4747C489.25 78.9947 486.8 77.4647 485.16 75.1547V75.1447Z" fill="#38237C"/>
    <path d="M487.64 73.3849C486.47 71.7349 486.01 69.7249 486.35 67.7249L485.15 67.5249C484.76 69.8449 485.29 72.1749 486.65 74.0949C488.01 76.0149 490.04 77.2849 492.36 77.6749L492.56 76.4749C490.56 76.1349 488.81 75.0349 487.64 73.3849V73.3849Z" fill="#38237C"/>
    <path d="M490.12 71.6247C489.42 70.6347 489.14 69.4347 489.35 68.2347L488.15 68.0347C487.89 69.5547 488.24 71.0847 489.13 72.3347C490.02 73.5847 491.35 74.4247 492.87 74.6747L493.07 73.4747C491.87 73.2747 490.82 72.6147 490.12 71.6247Z" fill="#38237C"/>
    <path d="M539.38 72.1949L529.06 57.6549C528.56 56.9449 527.58 56.7849 526.87 57.2849L524.06 59.2749L522.31 56.8149L525.68 54.4249C526.38 53.9249 526.54 53.0049 526.35 51.8849C527.12 51.8849 528.04 51.8149 528.33 51.6049C529.83 50.5449 529.53 47.6349 527.65 44.9949C525.77 42.3449 523.13 41.1049 521.63 42.1649C521.33 42.3749 520.95 43.2149 520.71 43.9449C519.73 43.3949 518.79 43.2449 518.1 43.7349L514.73 46.1249L512.87 43.5049L515.68 41.5149C516.39 41.0149 516.55 40.0349 516.05 39.3249L505.73 24.7849C505.23 24.0749 504.25 23.9149 503.54 24.4149L496.18 29.6349C495.47 30.1349 495.31 31.1149 495.81 31.8249L506.13 46.3649C506.63 47.0749 507.61 47.2349 508.32 46.7349L511.13 44.7449L512.99 47.3649L510.23 49.3249C509.06 50.1549 509.38 52.1949 510.4 54.2849L509.03 55.2549C505.59 51.8949 500.81 50.9449 497.56 53.2449C497.06 53.6049 496.77 54.1549 496.66 54.8449L494.42 66.9749C493.82 66.7949 493.14 66.8849 492.59 67.2749C491.64 67.9549 491.41 69.2749 492.09 70.2249C492.77 71.1749 494.09 71.4049 495.04 70.7249C495.59 70.3349 495.9 69.7249 495.93 69.0949L508.12 70.9849C508.81 71.1049 509.42 71.0249 509.93 70.6649C513.18 68.3549 513.86 63.5349 511.83 59.1749L513.2 58.2049C514.83 59.8649 516.65 60.8349 517.82 60.0049L520.58 58.0449L522.33 60.5049L519.52 62.4949C518.81 62.9949 518.65 63.9749 519.15 64.6849L529.47 79.2249C529.97 79.9349 530.95 80.0949 531.66 79.5949L539.02 74.3749C539.73 73.8749 539.89 72.8949 539.39 72.1849L539.38 72.1949ZM495.68 66.9449L497.23 58.5549C497.83 60.2749 498.81 62.1549 499.99 63.8949L495.68 66.9549V66.9449ZM496.38 67.9349L500.69 64.8749C501.94 66.5549 503.39 68.1149 504.82 69.2449L496.39 67.9349H496.38Z" fill="#38237C"/>
    <path d="M105.81 62.8051C106.07 64.9851 105.46 67.1351 104.11 68.8451C102.75 70.5651 100.81 71.6551 98.63 71.9051L98.74 72.8351C101.17 72.5451 103.34 71.3351 104.85 69.4251C106.36 67.5151 107.03 65.1151 106.75 62.6851L105.82 62.7951L105.81 62.8051Z" fill="#38237C"/>
    <path d="M103 67.9851C104.12 66.5651 104.62 64.7851 104.41 62.9751L103.48 63.0851C103.66 64.6451 103.23 66.1751 102.26 67.3951C101.29 68.6251 99.9 69.3951 98.35 69.5851L98.46 70.5151C100.26 70.3051 101.88 69.4051 103 67.9751V67.9851Z" fill="#38237C"/>
    <path d="M101.16 66.5251C101.9 65.5951 102.22 64.4251 102.08 63.2451L101.15 63.3551C101.26 64.2851 101 65.2051 100.42 65.9451C99.84 66.6851 99.0101 67.1451 98.0701 67.2551L98.1801 68.1851C99.3601 68.0451 100.42 67.4551 101.15 66.5251H101.16Z" fill="#38237C"/>
    <path d="M98.95 64.7849C99.51 64.0749 99.39 63.0449 98.68 62.4949C98.27 62.1749 97.75 62.0749 97.28 62.1949L96.03 52.7549C95.97 52.2249 95.77 51.7849 95.4 51.4849C92.98 49.5749 89.26 50.1249 86.47 52.5849L85.45 51.7849C86.32 50.2149 86.65 48.6549 85.78 47.9649L83.73 46.3449L85.17 44.5149L87.26 46.1649C87.78 46.5749 88.5499 46.4849 88.9599 45.9649L97.48 35.1549C97.89 34.6349 97.8 33.8649 97.28 33.4549L91.81 29.1449C91.29 28.7349 90.52 28.8249 90.11 29.3449L81.59 40.1549C81.18 40.6749 81.27 41.4449 81.79 41.8549L83.88 43.5049L82.44 45.3349L79.93 43.3549C79.41 42.9449 78.69 43.0249 77.91 43.4149C77.75 42.8449 77.49 42.1849 77.27 42.0049C76.16 41.1249 74.07 41.9849 72.52 43.9449C70.97 45.9149 70.62 48.1349 71.74 49.0149C71.96 49.1949 72.67 49.2849 73.26 49.3149C73.06 50.1649 73.16 50.8849 73.68 51.2949L76.19 53.2749L74.65 55.2249L72.56 53.5749C72.04 53.1649 71.27 53.2549 70.86 53.7749L62.34 64.5849C61.93 65.1049 62.02 65.8749 62.54 66.2849L68.01 70.5949C68.53 71.0049 69.2999 70.9149 69.7099 70.3949L78.23 59.5849C78.64 59.0649 78.55 58.2949 78.03 57.8849L75.94 56.2349L77.48 54.2849L79.53 55.9049C80.4 56.5949 81.84 55.9049 83.16 54.6949L84.18 55.4949C82.44 58.7749 82.77 62.5249 85.19 64.4349C85.56 64.7349 86.04 64.8249 86.57 64.7549L96.04 63.7749C96.04 64.2649 96.25 64.7449 96.66 65.0649C97.37 65.6249 98.4 65.5049 98.95 64.7949V64.7849ZM89.19 63.5349C90.33 62.7249 91.51 61.5749 92.54 60.3249L95.74 62.8549L89.19 63.5349V63.5349ZM93.12 59.5949C94.09 58.3049 94.9299 56.8849 95.4599 55.5849L96.33 62.1149L93.13 59.5849L93.12 59.5949Z" fill="#38237C"/>
    <path d="M90.97 103.495C90.97 104.555 91.46 105.565 92.35 106.325L92.42 106.385C93.24 107.075 94.24 107.545 95.29 107.835L97.4 107.615C98.78 107.475 100.03 106.945 101 106.085L101.06 106.035C101.83 105.335 102.26 104.405 102.26 103.425C102.26 102.445 101.83 101.525 101.05 100.825L100.99 100.775C100.03 99.9349 98.79 99.4049 97.42 99.2649L95.54 99.0649C94.38 99.3449 93.29 99.8349 92.4 100.595L92.33 100.655C91.45 101.425 90.97 102.435 90.97 103.495V103.495Z" fill="#86D4C9"/>
    <path d="M100.98 100.765L101.04 100.815C101.82 101.515 102.25 102.435 102.25 103.415C102.25 104.395 101.83 105.325 101.05 106.025L100.99 106.075C100.02 106.935 98.7801 107.465 97.3901 107.605L95.28 107.825C97.85 108.525 100.82 108.045 102.81 106.345L102.88 106.285C103.76 105.515 104.24 104.505 104.24 103.445C104.24 102.385 103.75 101.375 102.86 100.615L102.79 100.555C101.38 99.3654 99.5 98.7754 97.61 98.7754C96.9 98.7754 96.21 98.8854 95.53 99.0554L97.41 99.2554C98.78 99.3954 100.01 99.9154 100.98 100.765V100.765Z" fill="white"/>
    <path d="M107.16 115.025C107.18 114.855 107.12 114.695 107 114.575C106.88 114.455 106.72 114.385 106.55 114.395C106.4 114.395 102.76 114.605 100.25 117.015C99.8302 117.425 99.4701 117.865 99.1601 118.315V113.185C101.03 112.915 102.83 112.165 104.27 110.925L104.36 110.845C105.39 109.935 106.08 108.785 106.36 107.515C106.75 105.715 106.56 103.435 106.55 103.345V103.305C106.5 101.615 105.74 100.045 104.38 98.8752L104.29 98.7952C100.59 95.6752 94.5801 95.6852 90.9001 98.8352L90.8101 98.9152C89.4701 100.085 88.7301 101.635 88.6701 103.295L88.6402 103.675C88.6402 103.755 88.4702 105.775 88.8802 107.575C89.1602 108.845 89.8601 109.995 90.9001 110.895L90.9901 110.975C92.3301 112.115 93.9801 112.835 95.7101 113.145V150.075C95.7101 151.035 96.4902 151.805 97.4402 151.805C98.3902 151.805 99.1701 151.025 99.1701 150.075V123.685C100.48 123.435 102.63 122.815 104.28 121.215C106.79 118.805 107.14 115.185 107.16 115.035V115.025ZM92.3302 100.655L92.4001 100.595C93.2901 99.8352 94.3801 99.3452 95.5401 99.0652C96.2201 98.8952 96.9201 98.7852 97.6201 98.7852C99.5101 98.7852 101.39 99.3752 102.8 100.565L102.87 100.625C103.75 101.395 104.24 102.395 104.25 103.455C104.26 104.515 103.77 105.525 102.89 106.295L102.82 106.355C100.83 108.055 97.8601 108.535 95.2901 107.835C94.2301 107.545 93.2401 107.085 92.4201 106.385L92.3501 106.325C91.4701 105.555 90.9801 104.555 90.9701 103.495C90.9701 102.435 91.4502 101.425 92.3302 100.655Z" fill="#38237C"/>
    <path d="M140.59 119.675L140.68 119.595C141.71 118.685 142.4 117.535 142.68 116.265C143.07 114.465 142.88 112.185 142.87 112.095V112.055C142.82 110.365 142.06 108.795 140.7 107.625L140.61 107.545C136.91 104.425 130.9 104.435 127.22 107.585L127.13 107.665C125.79 108.835 125.05 110.385 124.99 112.045L124.96 112.425C124.96 112.505 124.79 114.525 125.2 116.325C125.48 117.595 126.18 118.745 127.22 119.645L127.31 119.725C128.74 120.945 130.52 121.675 132.37 121.945V126.205C132.06 125.755 131.7 125.305 131.28 124.905C128.77 122.495 125.14 122.285 124.98 122.285C124.82 122.285 124.65 122.345 124.53 122.465C124.41 122.585 124.36 122.755 124.37 122.915C124.38 123.065 124.74 126.695 127.25 129.095C128.91 130.685 131.05 131.315 132.36 131.565V150.085C132.36 151.045 133.14 151.815 134.09 151.815C135.04 151.815 135.82 151.035 135.82 150.085V121.905C137.57 121.595 139.24 120.865 140.59 119.705V119.675ZM128.64 109.395L128.71 109.335C129.6 108.575 130.69 108.085 131.85 107.805C132.53 107.635 133.23 107.525 133.93 107.525C135.82 107.525 137.7 108.115 139.11 109.305L139.18 109.365C140.06 110.135 140.55 111.135 140.56 112.195C140.56 113.255 140.08 114.265 139.2 115.035L139.13 115.095C137.14 116.795 134.17 117.275 131.6 116.575C130.54 116.285 129.55 115.825 128.73 115.125L128.66 115.065C127.78 114.295 127.29 113.295 127.28 112.235C127.28 111.175 127.76 110.165 128.64 109.395Z" fill="#38237C"/>
    <path d="M127.28 112.235C127.28 113.295 127.77 114.305 128.66 115.065L128.73 115.125C129.55 115.815 130.55 116.285 131.6 116.575L133.71 116.355C135.09 116.215 136.34 115.685 137.31 114.825L137.37 114.775C138.14 114.075 138.57 113.145 138.57 112.165C138.57 111.185 138.14 110.265 137.36 109.565L137.3 109.515C136.34 108.675 135.1 108.145 133.73 108.005L131.85 107.805C130.69 108.085 129.6 108.575 128.71 109.335L128.64 109.395C127.76 110.165 127.28 111.175 127.28 112.235V112.235Z" fill="#86D4C9"/>
    <path d="M137.29 109.515L137.35 109.565C138.13 110.265 138.56 111.185 138.56 112.165C138.56 113.145 138.14 114.075 137.36 114.775L137.3 114.825C136.33 115.685 135.09 116.215 133.7 116.355L131.59 116.575C134.16 117.275 137.13 116.795 139.12 115.095L139.19 115.035C140.07 114.265 140.55 113.255 140.55 112.195C140.55 111.135 140.06 110.125 139.17 109.365L139.1 109.305C137.69 108.115 135.81 107.525 133.92 107.525C133.21 107.525 132.52 107.635 131.84 107.805L133.72 108.005C135.09 108.145 136.32 108.665 137.29 109.515V109.515Z" fill="white"/>
    <path d="M157.94 136.855C157.79 136.855 154.15 137.065 151.64 139.475C151.32 139.785 151.03 140.115 150.78 140.455V136.165C152.53 135.855 154.19 135.125 155.54 133.965L155.63 133.885C156.66 132.975 157.35 131.825 157.63 130.555C158.02 128.755 157.83 126.475 157.82 126.375V126.325C157.77 124.645 157.01 123.075 155.65 121.895L155.56 121.815C151.86 118.695 145.85 118.705 142.17 121.855L142.08 121.935C140.75 123.105 140 124.655 139.94 126.315L139.91 126.695C139.91 126.775 139.74 128.795 140.15 130.595C140.43 131.865 141.13 133.015 142.17 133.915L142.26 133.995C143.69 135.215 145.47 135.945 147.32 136.215V140.455C147.07 140.115 146.78 139.785 146.46 139.475C143.95 137.065 140.32 136.855 140.16 136.855C140 136.855 139.83 136.915 139.71 137.035C139.59 137.155 139.54 137.325 139.55 137.485C139.56 137.635 139.92 141.265 142.43 143.665C143.99 145.165 145.99 145.815 147.31 146.085V150.525C147.31 151.485 148.09 152.255 149.04 152.255C149.99 152.255 150.77 151.475 150.77 150.525V146.085C152.09 145.805 154.09 145.165 155.65 143.665C158.16 141.255 158.51 137.635 158.53 137.485C158.55 137.315 158.49 137.155 158.37 137.035C158.25 136.915 158.09 136.845 157.92 136.855H157.94ZM143.6 123.675L143.67 123.615C144.56 122.855 145.65 122.365 146.81 122.085C147.49 121.915 148.19 121.805 148.89 121.805C150.78 121.805 152.66 122.395 154.07 123.585L154.14 123.645C155.02 124.415 155.51 125.415 155.52 126.475C155.53 127.535 155.04 128.545 154.16 129.315L154.09 129.375C152.1 131.075 149.13 131.555 146.56 130.855C145.5 130.565 144.51 130.105 143.69 129.405L143.62 129.345C142.74 128.575 142.25 127.575 142.24 126.515C142.24 125.455 142.72 124.445 143.6 123.675V123.675Z" fill="#38237C"/>
    <path d="M142.24 126.515C142.24 127.575 142.73 128.585 143.62 129.345L143.69 129.405C144.51 130.095 145.51 130.565 146.56 130.855L148.67 130.635C150.05 130.495 151.3 129.965 152.27 129.105L152.33 129.055C153.1 128.355 153.53 127.425 153.52 126.445C153.52 125.465 153.09 124.545 152.31 123.845L152.25 123.795C151.29 122.955 150.05 122.435 148.69 122.285L146.81 122.085C145.65 122.365 144.56 122.855 143.67 123.615L143.6 123.675C142.72 124.445 142.24 125.455 142.24 126.515V126.515Z" fill="#86D4C9"/>
    <path d="M152.25 123.785L152.31 123.835C153.09 124.535 153.52 125.455 153.52 126.435C153.52 127.415 153.1 128.345 152.33 129.045L152.27 129.095C151.3 129.955 150.06 130.485 148.67 130.625L146.56 130.845C149.13 131.545 152.1 131.065 154.09 129.365L154.16 129.305C155.04 128.535 155.52 127.525 155.52 126.465C155.52 125.405 155.03 124.395 154.14 123.635L154.07 123.575C152.66 122.385 150.78 121.795 148.89 121.795C148.18 121.795 147.49 121.905 146.81 122.075L148.69 122.275C150.06 122.415 151.29 122.935 152.25 123.785V123.785Z" fill="white"/>
    <path d="M180.95 136.855C180.8 136.855 177.16 137.065 174.65 139.475C174.33 139.785 174.04 140.115 173.79 140.455V136.165C175.54 135.855 177.2 135.125 178.55 133.965L178.64 133.885C179.67 132.975 180.36 131.825 180.64 130.555C181.03 128.755 180.84 126.475 180.83 126.375V126.325C180.78 124.645 180.02 123.075 178.66 121.895L178.57 121.815C174.87 118.695 168.86 118.705 165.18 121.855L165.09 121.935C163.76 123.105 163.01 124.655 162.95 126.315L162.92 126.695C162.92 126.775 162.75 128.795 163.16 130.595C163.44 131.865 164.14 133.015 165.18 133.915L165.27 133.995C166.7 135.215 168.48 135.945 170.33 136.215V140.455C170.08 140.115 169.79 139.785 169.47 139.475C166.96 137.065 163.33 136.855 163.17 136.855C163.01 136.855 162.84 136.915 162.72 137.035C162.6 137.155 162.55 137.325 162.56 137.485C162.57 137.635 162.93 141.265 165.44 143.665C167 145.165 169 145.815 170.32 146.085V150.525C170.32 151.485 171.1 152.255 172.05 152.255C173 152.255 173.78 151.475 173.78 150.525V146.085C175.1 145.805 177.1 145.165 178.66 143.665C181.17 141.255 181.52 137.635 181.54 137.485C181.56 137.315 181.5 137.155 181.38 137.035C181.26 136.915 181.1 136.845 180.93 136.855H180.95ZM166.61 123.675L166.68 123.615C167.57 122.855 168.66 122.365 169.82 122.085C170.5 121.915 171.2 121.805 171.9 121.805C173.79 121.805 175.67 122.395 177.08 123.585L177.15 123.645C178.03 124.415 178.52 125.415 178.53 126.475C178.53 127.535 178.05 128.545 177.17 129.315L177.1 129.375C175.11 131.075 172.14 131.555 169.57 130.855C168.51 130.565 167.52 130.105 166.7 129.405L166.63 129.345C165.75 128.575 165.26 127.575 165.25 126.515C165.25 125.455 165.73 124.445 166.61 123.675V123.675Z" fill="#38237C"/>
    <path d="M165.26 126.515C165.26 127.575 165.75 128.585 166.64 129.345L166.71 129.405C167.53 130.095 168.53 130.565 169.58 130.855L171.69 130.635C173.07 130.495 174.32 129.965 175.29 129.105L175.35 129.055C176.12 128.355 176.55 127.425 176.54 126.445C176.54 125.465 176.11 124.545 175.33 123.845L175.27 123.795C174.31 122.955 173.07 122.435 171.71 122.285L169.83 122.085C168.67 122.365 167.58 122.855 166.69 123.615L166.62 123.675C165.74 124.445 165.26 125.455 165.26 126.515V126.515Z" fill="#86D4C9"/>
    <path d="M175.27 123.785L175.33 123.835C176.11 124.535 176.54 125.455 176.54 126.435C176.54 127.415 176.12 128.345 175.35 129.045L175.29 129.095C174.32 129.955 173.08 130.485 171.69 130.625L169.58 130.845C172.15 131.545 175.12 131.065 177.11 129.365L177.18 129.305C178.06 128.535 178.54 127.525 178.54 126.465C178.54 125.405 178.05 124.395 177.16 123.635L177.09 123.575C175.68 122.385 173.8 121.795 171.91 121.795C171.2 121.795 170.51 121.905 169.83 122.075L171.71 122.275C173.08 122.415 174.31 122.935 175.27 123.785V123.785Z" fill="white"/>
    <path d="M122.94 136.855C122.79 136.855 119.15 137.065 116.64 139.475C116.32 139.785 116.03 140.115 115.78 140.455V136.165C117.53 135.855 119.19 135.125 120.54 133.965L120.63 133.885C121.66 132.975 122.35 131.825 122.63 130.555C123.02 128.755 122.83 126.475 122.82 126.375V126.325C122.77 124.645 122.01 123.075 120.65 121.895L120.56 121.815C116.86 118.695 110.85 118.705 107.17 121.855L107.08 121.935C105.75 123.105 105 124.655 104.94 126.315L104.91 126.695C104.91 126.775 104.74 128.795 105.15 130.595C105.43 131.865 106.13 133.015 107.17 133.915L107.26 133.995C108.69 135.215 110.47 135.945 112.32 136.215V140.455C112.07 140.115 111.78 139.785 111.46 139.475C108.95 137.065 105.32 136.855 105.16 136.855C105 136.855 104.83 136.915 104.71 137.035C104.59 137.155 104.54 137.325 104.55 137.485C104.56 137.635 104.92 141.265 107.43 143.665C108.99 145.165 110.99 145.815 112.31 146.085V150.525C112.31 151.485 113.09 152.255 114.04 152.255C114.99 152.255 115.77 151.475 115.77 150.525V146.085C117.09 145.805 119.09 145.165 120.65 143.665C123.16 141.255 123.51 137.635 123.53 137.485C123.55 137.315 123.49 137.155 123.37 137.035C123.25 136.915 123.09 136.845 122.92 136.855H122.94ZM108.6 123.675L108.67 123.615C109.56 122.855 110.65 122.365 111.81 122.085C112.49 121.915 113.19 121.805 113.89 121.805C115.78 121.805 117.66 122.395 119.07 123.585L119.14 123.645C120.02 124.415 120.51 125.415 120.52 126.475C120.53 127.535 120.04 128.545 119.16 129.315L119.09 129.375C117.1 131.075 114.13 131.555 111.56 130.855C110.5 130.565 109.51 130.105 108.69 129.405L108.62 129.345C107.74 128.575 107.25 127.575 107.24 126.515C107.24 125.455 107.72 124.445 108.6 123.675V123.675Z" fill="#38237C"/>
    <path d="M107.24 126.515C107.24 127.575 107.73 128.585 108.62 129.345L108.69 129.405C109.51 130.095 110.51 130.565 111.56 130.855L113.67 130.635C115.05 130.495 116.3 129.965 117.27 129.105L117.33 129.055C118.1 128.355 118.53 127.425 118.52 126.445C118.52 125.465 118.09 124.545 117.31 123.845L117.25 123.795C116.29 122.955 115.05 122.435 113.69 122.285L111.81 122.085C110.65 122.365 109.56 122.855 108.67 123.615L108.6 123.675C107.72 124.445 107.24 125.455 107.24 126.515V126.515Z" fill="#86D4C9"/>
    <path d="M117.25 123.785L117.31 123.835C118.09 124.535 118.52 125.455 118.52 126.435C118.52 127.415 118.1 128.345 117.33 129.045L117.27 129.095C116.3 129.955 115.06 130.485 113.67 130.625L111.56 130.845C114.13 131.545 117.1 131.065 119.09 129.365L119.16 129.305C120.04 128.535 120.52 127.525 120.52 126.465C120.52 125.405 120.03 124.395 119.14 123.635L119.07 123.575C117.66 122.385 115.78 121.795 113.89 121.795C113.18 121.795 112.49 121.905 111.81 122.075L113.69 122.275C115.06 122.415 116.29 122.935 117.25 123.785V123.785Z" fill="white"/>
    <path d="M90.9301 136.855C90.7801 136.855 87.1401 137.065 84.6301 139.475C84.3101 139.785 84.0201 140.115 83.7701 140.455V136.165C85.5201 135.855 87.1801 135.125 88.5301 133.965L88.6201 133.885C89.6501 132.975 90.3401 131.825 90.6201 130.555C91.0101 128.755 90.8201 126.475 90.8101 126.375V126.325C90.7601 124.645 90.0001 123.075 88.6401 121.895L88.5501 121.815C84.8501 118.695 78.8401 118.705 75.1601 121.855L75.0701 121.935C73.7401 123.105 72.9901 124.655 72.9301 126.315L72.9 126.695C72.9 126.775 72.7301 128.795 73.1401 130.595C73.4201 131.865 74.1201 133.015 75.1601 133.915L75.2501 133.995C76.6801 135.215 78.4601 135.945 80.3101 136.215V140.455C80.0601 140.115 79.7701 139.785 79.4501 139.475C76.9401 137.065 73.31 136.855 73.15 136.855C72.99 136.855 72.8201 136.915 72.7001 137.035C72.5801 137.155 72.5301 137.325 72.5401 137.485C72.5501 137.635 72.9101 141.265 75.4201 143.665C76.9801 145.165 78.9801 145.815 80.3001 146.085V150.525C80.3001 151.485 81.0801 152.255 82.0301 152.255C82.9801 152.255 83.7601 151.475 83.7601 150.525V146.085C85.0801 145.805 87.0801 145.165 88.6401 143.665C91.1501 141.255 91.5001 137.635 91.5201 137.485C91.5401 137.315 91.4801 137.155 91.3601 137.035C91.2401 136.915 91.0801 136.845 90.9101 136.855H90.9301ZM76.59 123.675L76.6601 123.615C77.5501 122.855 78.6401 122.365 79.8001 122.085C80.4801 121.915 81.1801 121.805 81.8801 121.805C83.7701 121.805 85.6501 122.395 87.0601 123.585L87.1301 123.645C88.0101 124.415 88.5001 125.415 88.5101 126.475C88.5201 127.535 88.03 128.545 87.15 129.315L87.0801 129.375C85.0901 131.075 82.1201 131.555 79.5501 130.855C78.4901 130.565 77.5001 130.105 76.6801 129.405L76.6101 129.345C75.7301 128.575 75.2401 127.575 75.2301 126.515C75.2301 125.455 75.71 124.445 76.59 123.675V123.675Z" fill="#38237C"/>
    <path d="M75.23 126.515C75.23 127.575 75.72 128.585 76.61 129.345L76.68 129.405C77.5 130.095 78.5 130.565 79.55 130.855L81.66 130.635C83.04 130.495 84.29 129.965 85.26 129.105L85.32 129.055C86.09 128.355 86.52 127.425 86.51 126.445C86.51 125.465 86.08 124.545 85.3 123.845L85.24 123.795C84.28 122.955 83.04 122.435 81.68 122.285L79.8 122.085C78.64 122.365 77.55 122.855 76.66 123.615L76.59 123.675C75.71 124.445 75.23 125.455 75.23 126.515V126.515Z" fill="#86D4C9"/>
    <path d="M85.2401 123.785L85.3 123.835C86.08 124.535 86.5101 125.455 86.5101 126.435C86.5101 127.415 86.0901 128.345 85.3201 129.045L85.2601 129.095C84.2901 129.955 83.05 130.485 81.66 130.625L79.55 130.845C82.12 131.545 85.0901 131.065 87.0801 129.365L87.15 129.305C88.03 128.535 88.5101 127.525 88.5101 126.465C88.5101 125.405 88.0201 124.395 87.1301 123.635L87.0601 123.575C85.6501 122.385 83.7701 121.795 81.8801 121.795C81.1701 121.795 80.48 121.905 79.8 122.075L81.6801 122.275C83.0501 122.415 84.2801 122.935 85.2401 123.785V123.785Z" fill="white"/>
    <path d="M470.21 103.495C470.21 104.555 470.7 105.565 471.59 106.325L471.66 106.385C472.48 107.075 473.48 107.545 474.53 107.835L476.64 107.615C478.02 107.475 479.27 106.945 480.24 106.085L480.3 106.035C481.07 105.335 481.5 104.405 481.5 103.425C481.5 102.445 481.07 101.525 480.29 100.825L480.23 100.775C479.27 99.9349 478.03 99.4049 476.66 99.2649L474.78 99.0649C473.62 99.3449 472.53 99.8349 471.64 100.595L471.57 100.655C470.69 101.425 470.21 102.435 470.21 103.495V103.495Z" fill="#86D4C9"/>
    <path d="M480.22 100.765L480.28 100.815C481.06 101.515 481.49 102.435 481.49 103.415C481.49 104.395 481.07 105.325 480.29 106.025L480.23 106.075C479.26 106.935 478.02 107.465 476.63 107.605L474.52 107.825C477.09 108.525 480.06 108.045 482.05 106.345L482.12 106.285C483 105.515 483.48 104.505 483.48 103.445C483.48 102.385 482.99 101.375 482.1 100.615L482.03 100.555C480.62 99.3654 478.74 98.7754 476.85 98.7754C476.14 98.7754 475.45 98.8854 474.77 99.0554L476.65 99.2554C478.02 99.3954 479.25 99.9154 480.22 100.765V100.765Z" fill="white"/>
    <path d="M486.4 115.025C486.42 114.855 486.36 114.695 486.24 114.575C486.12 114.455 485.96 114.385 485.79 114.395C485.64 114.395 482 114.605 479.49 117.015C479.07 117.425 478.71 117.865 478.4 118.315V113.185C480.27 112.915 482.07 112.165 483.51 110.925L483.6 110.845C484.63 109.935 485.32 108.785 485.6 107.515C485.99 105.715 485.8 103.435 485.79 103.345V103.305C485.74 101.615 484.98 100.045 483.62 98.8752L483.53 98.7952C479.83 95.6752 473.82 95.6852 470.14 98.8352L470.05 98.9152C468.71 100.085 467.97 101.635 467.91 103.295L467.88 103.675C467.88 103.755 467.71 105.775 468.12 107.575C468.4 108.845 469.1 109.995 470.14 110.895L470.23 110.975C471.57 112.115 473.22 112.835 474.95 113.145V150.075C474.95 151.035 475.73 151.805 476.68 151.805C477.63 151.805 478.41 151.025 478.41 150.075V123.685C479.72 123.435 481.87 122.815 483.52 121.215C486.03 118.805 486.38 115.185 486.4 115.035V115.025ZM471.57 100.655L471.64 100.595C472.53 99.8352 473.62 99.3452 474.78 99.0652C475.46 98.8952 476.16 98.7852 476.86 98.7852C478.75 98.7852 480.63 99.3752 482.04 100.565L482.11 100.625C482.99 101.395 483.48 102.395 483.49 103.455C483.5 104.515 483.01 105.525 482.13 106.295L482.06 106.355C480.07 108.055 477.1 108.535 474.53 107.835C473.47 107.545 472.48 107.085 471.66 106.385L471.59 106.325C470.71 105.555 470.22 104.555 470.21 103.495C470.21 102.435 470.69 101.425 471.57 100.655Z" fill="#38237C"/>
    <path d="M519.83 119.675L519.92 119.595C520.95 118.685 521.64 117.535 521.92 116.265C522.31 114.465 522.12 112.185 522.11 112.095V112.055C522.06 110.365 521.3 108.795 519.94 107.625L519.85 107.545C516.15 104.425 510.14 104.435 506.46 107.585L506.37 107.665C505.03 108.835 504.29 110.385 504.23 112.045L504.2 112.425C504.2 112.505 504.03 114.525 504.44 116.325C504.72 117.595 505.42 118.745 506.46 119.645L506.55 119.725C507.98 120.945 509.76 121.675 511.61 121.945V126.205C511.3 125.755 510.94 125.305 510.52 124.905C508.01 122.495 504.38 122.285 504.22 122.285C504.06 122.285 503.89 122.345 503.77 122.465C503.65 122.585 503.6 122.755 503.61 122.915C503.62 123.065 503.98 126.695 506.49 129.095C508.15 130.685 510.29 131.315 511.6 131.565V150.085C511.6 151.045 512.38 151.815 513.33 151.815C514.28 151.815 515.06 151.035 515.06 150.085V121.905C516.81 121.595 518.48 120.865 519.83 119.705V119.675ZM507.88 109.395L507.95 109.335C508.84 108.575 509.93 108.085 511.09 107.805C511.77 107.635 512.47 107.525 513.17 107.525C515.06 107.525 516.94 108.115 518.35 109.305L518.42 109.365C519.3 110.135 519.79 111.135 519.8 112.195C519.8 113.255 519.32 114.265 518.44 115.035L518.37 115.095C516.38 116.795 513.41 117.275 510.84 116.575C509.78 116.285 508.79 115.825 507.97 115.125L507.9 115.065C507.02 114.295 506.53 113.295 506.52 112.235C506.52 111.175 507 110.165 507.88 109.395V109.395Z" fill="#38237C"/>
    <path d="M506.52 112.235C506.52 113.295 507.01 114.305 507.9 115.065L507.97 115.125C508.79 115.815 509.79 116.285 510.84 116.575L512.95 116.355C514.33 116.215 515.58 115.685 516.55 114.825L516.61 114.775C517.38 114.075 517.81 113.145 517.81 112.165C517.81 111.185 517.38 110.265 516.6 109.565L516.54 109.515C515.58 108.675 514.34 108.145 512.97 108.005L511.09 107.805C509.93 108.085 508.84 108.575 507.95 109.335L507.88 109.395C507 110.165 506.52 111.175 506.52 112.235V112.235Z" fill="#86D4C9"/>
    <path d="M516.53 109.515L516.59 109.565C517.37 110.265 517.8 111.185 517.8 112.165C517.8 113.145 517.38 114.075 516.6 114.775L516.54 114.825C515.57 115.685 514.33 116.215 512.94 116.355L510.83 116.575C513.4 117.275 516.37 116.795 518.36 115.095L518.43 115.035C519.31 114.265 519.79 113.255 519.79 112.195C519.79 111.135 519.3 110.125 518.41 109.365L518.34 109.305C516.93 108.115 515.05 107.525 513.16 107.525C512.45 107.525 511.76 107.635 511.08 107.805L512.96 108.005C514.33 108.145 515.56 108.665 516.53 109.515V109.515Z" fill="white"/>
    <path d="M537.78 137.485C537.8 137.315 537.74 137.155 537.62 137.035C537.5 136.915 537.34 136.845 537.17 136.855C537.02 136.855 533.38 137.065 530.87 139.475C530.55 139.785 530.26 140.115 530.01 140.455V136.165C531.76 135.855 533.42 135.125 534.77 133.965L534.86 133.885C535.89 132.975 536.58 131.825 536.86 130.555C537.25 128.755 537.06 126.475 537.05 126.375V126.325C537 124.645 536.24 123.075 534.88 121.895L534.79 121.815C531.09 118.695 525.08 118.705 521.4 121.855L521.31 121.935C519.98 123.105 519.23 124.655 519.17 126.315L519.14 126.695C519.14 126.775 518.97 128.795 519.38 130.595C519.66 131.865 520.36 133.015 521.4 133.915L521.49 133.995C522.92 135.215 524.7 135.945 526.55 136.215V140.455C526.3 140.115 526.01 139.785 525.69 139.475C523.18 137.065 519.55 136.855 519.39 136.855C519.23 136.855 519.06 136.915 518.94 137.035C518.82 137.155 518.77 137.325 518.78 137.485C518.79 137.635 519.15 141.265 521.66 143.665C523.22 145.165 525.22 145.815 526.54 146.085V150.525C526.54 151.485 527.32 152.255 528.27 152.255C529.22 152.255 530 151.475 530 150.525V146.085C531.32 145.805 533.32 145.165 534.88 143.665C537.39 141.255 537.74 137.635 537.76 137.485H537.78ZM522.84 123.675L522.91 123.615C523.8 122.855 524.89 122.365 526.05 122.085C526.73 121.915 527.43 121.805 528.13 121.805C530.02 121.805 531.9 122.395 533.31 123.585L533.38 123.645C534.26 124.415 534.75 125.415 534.76 126.475C534.77 127.535 534.28 128.545 533.4 129.315L533.33 129.375C531.34 131.075 528.37 131.555 525.8 130.855C524.74 130.565 523.75 130.105 522.93 129.405L522.86 129.345C521.98 128.575 521.49 127.575 521.48 126.515C521.48 125.455 521.96 124.445 522.84 123.675V123.675Z" fill="#38237C"/>
    <path d="M521.48 126.515C521.48 127.575 521.97 128.585 522.86 129.345L522.93 129.405C523.75 130.095 524.75 130.565 525.8 130.855L527.91 130.635C529.29 130.495 530.54 129.965 531.51 129.105L531.57 129.055C532.34 128.355 532.77 127.425 532.76 126.445C532.76 125.465 532.33 124.545 531.55 123.845L531.49 123.795C530.53 122.955 529.29 122.435 527.93 122.285L526.05 122.085C524.89 122.365 523.8 122.855 522.91 123.615L522.84 123.675C521.96 124.445 521.48 125.455 521.48 126.515V126.515Z" fill="#86D4C9"/>
    <path d="M531.49 123.785L531.55 123.835C532.33 124.535 532.76 125.455 532.76 126.435C532.76 127.415 532.34 128.345 531.57 129.045L531.51 129.095C530.54 129.955 529.3 130.485 527.91 130.625L525.8 130.845C528.37 131.545 531.34 131.065 533.33 129.365L533.4 129.305C534.28 128.535 534.76 127.525 534.76 126.465C534.76 125.405 534.27 124.395 533.38 123.635L533.31 123.575C531.9 122.385 530.02 121.795 528.13 121.795C527.42 121.795 526.73 121.905 526.05 122.075L527.93 122.275C529.3 122.415 530.53 122.935 531.49 123.785V123.785Z" fill="white"/>
    <path d="M502.17 136.855C502.02 136.855 498.38 137.065 495.87 139.475C495.55 139.785 495.26 140.115 495.01 140.455V136.165C496.76 135.855 498.42 135.125 499.77 133.965L499.86 133.885C500.89 132.975 501.58 131.825 501.86 130.555C502.25 128.755 502.06 126.475 502.05 126.375V126.325C502 124.645 501.24 123.075 499.88 121.895L499.79 121.815C496.09 118.695 490.08 118.705 486.4 121.855L486.31 121.935C484.98 123.105 484.23 124.655 484.17 126.315L484.14 126.695C484.14 126.775 483.97 128.795 484.38 130.595C484.66 131.865 485.36 133.015 486.4 133.915L486.49 133.995C487.92 135.215 489.7 135.945 491.55 136.215V140.455C491.3 140.115 491.01 139.785 490.69 139.475C488.18 137.065 484.55 136.855 484.39 136.855C484.23 136.855 484.06 136.915 483.94 137.035C483.82 137.155 483.77 137.325 483.78 137.485C483.79 137.635 484.15 141.265 486.66 143.665C488.22 145.165 490.22 145.815 491.54 146.085V150.525C491.54 151.485 492.32 152.255 493.27 152.255C494.22 152.255 495 151.475 495 150.525V146.085C496.32 145.805 498.32 145.165 499.88 143.665C502.39 141.255 502.74 137.635 502.76 137.485C502.78 137.315 502.72 137.155 502.6 137.035C502.48 136.915 502.32 136.845 502.15 136.855H502.17ZM487.83 123.675L487.9 123.615C488.79 122.855 489.88 122.365 491.04 122.085C491.72 121.915 492.42 121.805 493.12 121.805C495.01 121.805 496.89 122.395 498.3 123.585L498.37 123.645C499.25 124.415 499.74 125.415 499.75 126.475C499.76 127.535 499.27 128.545 498.39 129.315L498.32 129.375C496.33 131.075 493.36 131.555 490.79 130.855C489.73 130.565 488.74 130.105 487.92 129.405L487.85 129.345C486.97 128.575 486.48 127.575 486.47 126.515C486.47 125.455 486.95 124.445 487.83 123.675V123.675Z" fill="#38237C"/>
    <path d="M486.48 126.515C486.48 127.575 486.97 128.585 487.86 129.345L487.93 129.405C488.75 130.095 489.75 130.565 490.8 130.855L492.91 130.635C494.29 130.495 495.54 129.965 496.51 129.105L496.57 129.055C497.34 128.355 497.77 127.425 497.76 126.445C497.76 125.465 497.33 124.545 496.55 123.845L496.49 123.795C495.53 122.955 494.29 122.435 492.93 122.285L491.05 122.085C489.89 122.365 488.8 122.855 487.91 123.615L487.84 123.675C486.96 124.445 486.48 125.455 486.48 126.515V126.515Z" fill="#86D4C9"/>
    <path d="M496.49 123.785L496.55 123.835C497.33 124.535 497.76 125.455 497.76 126.435C497.76 127.415 497.34 128.345 496.57 129.045L496.51 129.095C495.54 129.955 494.3 130.485 492.91 130.625L490.8 130.845C493.37 131.545 496.34 131.065 498.33 129.365L498.4 129.305C499.28 128.535 499.76 127.525 499.76 126.465C499.76 125.405 499.27 124.395 498.38 123.635L498.31 123.575C496.9 122.385 495.02 121.795 493.13 121.795C492.42 121.795 491.73 121.905 491.05 122.075L492.93 122.275C494.3 122.415 495.53 122.935 496.49 123.785V123.785Z" fill="white"/>
    <path d="M470.17 136.855C470.02 136.855 466.38 137.065 463.87 139.475C463.55 139.785 463.26 140.115 463.01 140.455V136.165C464.76 135.855 466.42 135.125 467.77 133.965L467.86 133.885C468.89 132.975 469.58 131.825 469.86 130.555C470.25 128.755 470.06 126.475 470.05 126.375V126.325C470 124.645 469.24 123.075 467.88 121.895L467.79 121.815C464.09 118.695 458.08 118.705 454.4 121.855L454.31 121.935C452.98 123.105 452.23 124.655 452.17 126.315L452.14 126.695C452.14 126.775 451.97 128.795 452.38 130.595C452.66 131.865 453.36 133.015 454.4 133.915L454.49 133.995C455.92 135.215 457.7 135.945 459.55 136.215V140.455C459.3 140.115 459.01 139.785 458.69 139.475C456.18 137.065 452.55 136.855 452.39 136.855C452.23 136.855 452.06 136.915 451.94 137.035C451.82 137.155 451.77 137.325 451.78 137.485C451.79 137.635 452.15 141.265 454.66 143.665C456.22 145.165 458.22 145.815 459.54 146.085V150.525C459.54 151.485 460.32 152.255 461.27 152.255C462.22 152.255 463 151.475 463 150.525V146.085C464.32 145.805 466.32 145.165 467.88 143.665C470.39 141.255 470.74 137.635 470.76 137.485C470.78 137.315 470.72 137.155 470.6 137.035C470.48 136.915 470.32 136.845 470.15 136.855H470.17ZM455.83 123.675L455.9 123.615C456.79 122.855 457.88 122.365 459.04 122.085C459.72 121.915 460.42 121.805 461.12 121.805C463.01 121.805 464.89 122.395 466.3 123.585L466.37 123.645C467.25 124.415 467.74 125.415 467.75 126.475C467.76 127.535 467.27 128.545 466.39 129.315L466.32 129.375C464.33 131.075 461.36 131.555 458.79 130.855C457.73 130.565 456.74 130.105 455.92 129.405L455.85 129.345C454.97 128.575 454.48 127.575 454.47 126.515C454.47 125.455 454.95 124.445 455.83 123.675V123.675Z" fill="#38237C"/>
    <path d="M454.47 126.515C454.47 127.575 454.96 128.585 455.85 129.345L455.92 129.405C456.74 130.095 457.74 130.565 458.79 130.855L460.9 130.635C462.28 130.495 463.53 129.965 464.5 129.105L464.56 129.055C465.33 128.355 465.76 127.425 465.75 126.445C465.75 125.465 465.32 124.545 464.54 123.845L464.48 123.795C463.52 122.955 462.28 122.435 460.92 122.285L459.04 122.085C457.88 122.365 456.79 122.855 455.9 123.615L455.83 123.675C454.95 124.445 454.47 125.455 454.47 126.515V126.515Z" fill="#86D4C9"/>
    <path d="M464.48 123.785L464.54 123.835C465.32 124.535 465.75 125.455 465.75 126.435C465.75 127.415 465.33 128.345 464.56 129.045L464.5 129.095C463.53 129.955 462.29 130.485 460.9 130.625L458.79 130.845C461.36 131.545 464.33 131.065 466.32 129.365L466.39 129.305C467.27 128.535 467.75 127.525 467.75 126.465C467.75 125.405 467.26 124.395 466.37 123.635L466.3 123.575C464.89 122.385 463.01 121.795 461.12 121.795C460.41 121.795 459.72 121.905 459.04 122.075L460.92 122.275C462.29 122.415 463.52 122.935 464.48 123.785V123.785Z" fill="white"/>
    <path d="M446.59 136.855C446.44 136.855 442.8 137.065 440.29 139.475C439.97 139.785 439.68 140.115 439.43 140.455V136.165C441.18 135.855 442.84 135.125 444.19 133.965L444.28 133.885C445.31 132.975 446 131.825 446.28 130.555C446.67 128.755 446.48 126.475 446.47 126.375V126.325C446.42 124.645 445.66 123.075 444.3 121.895L444.21 121.815C440.51 118.695 434.5 118.705 430.82 121.855L430.73 121.935C429.4 123.105 428.65 124.655 428.59 126.315L428.56 126.695C428.56 126.775 428.39 128.795 428.8 130.595C429.08 131.865 429.78 133.015 430.82 133.915L430.91 133.995C432.34 135.215 434.12 135.945 435.97 136.215V140.455C435.72 140.115 435.43 139.785 435.11 139.475C432.6 137.065 428.97 136.855 428.81 136.855C428.65 136.855 428.48 136.915 428.36 137.035C428.24 137.155 428.19 137.325 428.2 137.485C428.21 137.635 428.57 141.265 431.08 143.665C432.64 145.165 434.64 145.815 435.96 146.085V150.525C435.96 151.485 436.74 152.255 437.69 152.255C438.64 152.255 439.42 151.475 439.42 150.525V146.085C440.74 145.805 442.74 145.165 444.3 143.665C446.81 141.255 447.16 137.635 447.18 137.485C447.2 137.315 447.14 137.155 447.02 137.035C446.9 136.915 446.74 136.845 446.57 136.855H446.59ZM432.25 123.675L432.32 123.615C433.21 122.855 434.3 122.365 435.46 122.085C436.14 121.915 436.84 121.805 437.54 121.805C439.43 121.805 441.31 122.395 442.72 123.585L442.79 123.645C443.67 124.415 444.16 125.415 444.17 126.475C444.18 127.535 443.69 128.545 442.81 129.315L442.74 129.375C440.75 131.075 437.78 131.555 435.21 130.855C434.15 130.565 433.16 130.105 432.34 129.405L432.27 129.345C431.39 128.575 430.9 127.575 430.89 126.515C430.89 125.455 431.37 124.445 432.25 123.675V123.675Z" fill="#38237C"/>
    <path d="M430.89 126.515C430.89 127.575 431.38 128.585 432.27 129.345L432.34 129.405C433.16 130.095 434.16 130.565 435.21 130.855L437.32 130.635C438.7 130.495 439.95 129.965 440.92 129.105L440.98 129.055C441.75 128.355 442.18 127.425 442.17 126.445C442.17 125.465 441.74 124.545 440.96 123.845L440.9 123.795C439.94 122.955 438.7 122.435 437.34 122.285L435.46 122.085C434.3 122.365 433.21 122.855 432.32 123.615L432.25 123.675C431.37 124.445 430.89 125.455 430.89 126.515V126.515Z" fill="#86D4C9"/>
    <path d="M440.9 123.785L440.96 123.835C441.74 124.535 442.17 125.455 442.17 126.435C442.17 127.415 441.75 128.345 440.98 129.045L440.92 129.095C439.95 129.955 438.71 130.485 437.32 130.625L435.21 130.845C437.78 131.545 440.75 131.065 442.74 129.365L442.81 129.305C443.69 128.535 444.17 127.525 444.17 126.465C444.17 125.405 443.68 124.395 442.79 123.635L442.72 123.575C441.31 122.385 439.43 121.795 437.54 121.795C436.83 121.795 436.14 121.905 435.46 122.075L437.34 122.275C438.71 122.415 439.94 122.935 440.9 123.785V123.785Z" fill="white"/>
    <defs>
        <linearGradient id="paint0_linear_2673_26748" x1="2.0499" y1="157.405" x2="563.22" y2="157.405" gradientUnits="userSpaceOnUse">
            <stop stop-color="#503EAA"/>
            <stop offset="1" stop-color="#77A4F2"/>
        </linearGradient>
    </defs>
</svg>
