<svg viewBox="0 0 1071 161" fill="none" xmlns="http://www.w3.org/2000/svg">
    <g clip-path="url(#clip0_1828_13856)">
        <rect width="1071" height="161" rx="20" fill="white"/>
        <g clip-path="url(#clip1_1828_13856)">
            <path d="M1121 -150H0V487.253H1121V-150Z" fill="#50508E"/>
            <path opacity="0.6" d="M1121 8.84082H0V487.017H1121V8.84082Z" fill="url(#paint0_linear_1828_13856)"/>
            <path opacity="0.6" d="M560.5 290.413C651.851 290.413 725.906 215.572 725.906 123.252C725.906 30.9313 651.851 -43.9092 560.5 -43.9092C469.149 -43.9092 395.094 30.9313 395.094 123.252C395.094 215.572 469.149 290.413 560.5 290.413Z" fill="url(#paint1_linear_1828_13856)"/>
            <g opacity="0.3">
                <path opacity="0.3" d="M239.263 108.559C239.263 105.727 236.986 103.426 234.184 103.426H188.059C185.257 103.426 182.98 105.727 182.98 108.559C182.98 111.391 180.703 113.693 177.9 113.693H164.53C161.728 113.693 159.451 115.994 159.451 118.826C159.451 121.658 161.728 123.96 164.53 123.96H250.824C253.626 123.96 255.903 121.658 255.903 118.826C255.903 115.994 253.626 113.693 250.824 113.693H244.285C241.482 113.693 239.263 111.391 239.263 108.559Z" fill="url(#paint2_linear_1828_13856)"/>
                <path opacity="0.3" d="M1077.56 144.317C1074.82 144.317 1072.6 142.074 1072.6 139.301C1072.6 136.528 1074.82 134.286 1077.56 134.286H1100.45C1103.19 134.286 1105.41 132.044 1105.41 129.27C1105.41 126.497 1107.63 124.255 1110.37 124.255H1120.94V113.811V113.752V103.721H1096.24C1093.5 103.721 1091.28 105.963 1091.28 108.737C1091.28 111.51 1089.06 113.752 1086.32 113.752H1060.57C1057.83 113.752 1055.61 115.994 1055.61 118.767V119.003C1055.61 121.777 1053.39 124.019 1050.65 124.019H1014.5C1011.76 124.019 1009.54 126.261 1009.54 129.034V129.27C1009.54 132.044 1011.76 134.286 1014.5 134.286H1022.1C1024.84 134.286 1027.06 136.528 1027.06 139.301V139.537C1027.06 142.31 1024.84 144.553 1022.1 144.553H960.148C957.404 144.553 955.185 142.31 955.185 139.537V139.301C955.185 136.528 952.967 134.286 950.223 134.286H934.05C931.306 134.286 929.087 132.044 929.087 129.27V129.034C929.087 126.261 931.306 124.019 934.05 124.019H974.102C976.846 124.019 979.065 121.777 979.065 119.003V118.767C979.065 115.994 976.846 113.752 974.102 113.752H877.766C875.022 113.752 872.804 115.994 872.804 118.767V119.003C872.804 121.777 875.022 124.019 877.766 124.019H897.15C899.894 124.019 902.113 126.261 902.113 129.034V129.27C902.113 132.044 899.894 134.286 897.15 134.286H831.233C828.489 134.286 826.27 136.528 826.27 139.301V139.537C826.27 142.31 824.052 144.553 821.308 144.553H721.352C718.608 144.553 716.389 146.795 716.389 149.568V149.804C716.389 152.577 718.608 154.819 721.352 154.819H748.793C751.537 154.819 753.756 157.062 753.756 159.835V160.071C753.756 162.844 751.537 165.086 748.793 165.086H688.306C685.562 165.086 683.343 167.328 683.343 170.102V170.161C683.343 172.934 681.124 175.176 678.38 175.176H634.883C632.139 175.176 629.92 177.418 629.92 180.192V180.605C629.92 183.378 627.702 185.62 624.957 185.62H578.95C576.206 185.62 573.987 183.378 573.987 180.605V180.428C573.987 177.654 576.206 175.412 578.95 175.412H595.765C598.509 175.412 600.728 173.17 600.728 170.397V170.161C600.728 167.387 598.509 165.145 595.765 165.145H521.207C518.462 165.145 516.244 167.387 516.244 170.161V170.397C516.244 173.17 518.462 175.412 521.207 175.412H541.758C544.502 175.412 546.721 177.654 546.721 180.428V180.664C546.721 183.437 544.502 185.679 541.758 185.679H481.037C478.293 185.679 476.075 183.437 476.075 180.664C476.075 177.89 473.856 175.648 471.112 175.648H455.757C453.012 175.648 450.794 173.406 450.794 170.633V170.161C450.794 167.387 448.575 165.145 445.831 165.145H426.038C423.294 165.145 421.076 162.903 421.076 160.13V159.894C421.076 157.121 418.857 154.878 416.113 154.878H382.133C379.388 154.878 377.17 157.121 377.17 159.894V160.189C377.17 162.962 379.388 165.204 382.133 165.204H391.824C394.452 165.204 396.787 167.21 396.962 169.925C397.138 172.875 394.861 175.294 392 175.294H355.1C352.356 175.294 350.137 173.052 350.137 170.279V170.22C350.137 167.446 347.919 165.204 345.175 165.204H314.289C311.545 165.204 309.326 162.962 309.326 160.189V159.953C309.326 157.18 307.107 154.937 304.363 154.937H270.558C267.814 154.937 265.595 152.695 265.595 149.922V149.745C265.595 146.972 267.814 144.73 270.558 144.73H288.891C291.635 144.73 293.854 142.487 293.854 139.714V139.301C293.854 136.528 291.635 134.286 288.891 134.286H209.487C206.743 134.286 204.524 136.528 204.524 139.301V139.714C204.524 142.487 206.743 144.73 209.487 144.73H220.58C223.324 144.73 225.543 146.972 225.543 149.745V149.804C225.543 152.577 223.324 154.819 220.58 154.819H175.156C172.412 154.819 170.193 152.577 170.193 149.804V149.745C170.193 146.972 167.975 144.73 165.231 144.73H81.506C78.7619 144.73 76.5433 142.487 76.5433 139.714V139.301C76.5433 136.528 78.7619 134.286 81.506 134.286H132.301C135.045 134.286 137.264 132.044 137.264 129.27V129.034C137.264 126.261 135.045 124.019 132.301 124.019H101.532C98.7881 124.019 96.5695 121.777 96.5695 119.003V118.767C96.5695 115.994 98.7881 113.752 101.532 113.752H120.975C123.719 113.752 125.937 111.51 125.937 108.737V108.501C125.937 105.727 123.719 103.485 120.975 103.485H80.2799C77.5358 103.485 75.3172 101.243 75.3172 98.4697V98.2337C75.3172 95.4605 73.0985 93.2183 70.3544 93.2183H30.4772C27.7915 93.2183 25.3977 91.1531 25.2225 88.4389C25.0473 85.4296 27.3828 82.9514 30.302 82.9514H45.1319C47.8177 82.9514 50.2115 80.8863 50.3866 78.172C50.5618 75.1628 48.2264 72.6846 45.3071 72.6846H0V83.0104V93.3363V113.988H69.6538C72.3395 113.988 74.6749 116.053 74.8501 118.767C75.0253 121.718 72.6898 124.196 69.829 124.196H0V487.253H1121V144.317H1077.56ZM56.5755 144.553H35.4983C32.6958 144.553 30.4188 142.251 30.4188 139.419C30.4188 136.587 32.6958 134.286 35.4983 134.286H56.5755C59.378 134.286 61.655 136.587 61.655 139.419C61.7134 142.251 59.4364 144.553 56.5755 144.553ZM154.254 175.176H107.604C104.802 175.176 102.525 172.875 102.525 170.043C102.525 167.21 100.248 164.909 97.4453 164.909H89.68C86.8775 164.909 84.6005 162.608 84.6005 159.776C84.6005 156.944 86.8775 154.642 89.68 154.642H118.464C121.267 154.642 123.544 156.944 123.544 159.776C123.544 162.608 125.821 164.909 128.623 164.909H154.254C157.057 164.909 159.334 167.21 159.334 170.043C159.334 172.875 157.057 175.176 154.254 175.176ZM289.942 170.515C289.942 173.347 287.665 175.648 284.862 175.648H259.348C256.546 175.648 254.268 173.347 254.268 170.515C254.268 167.683 256.546 165.381 259.348 165.381H284.862C287.665 165.381 289.942 167.683 289.942 170.515ZM747.333 186.269H713.411C710.609 186.269 708.332 183.968 708.332 181.136C708.332 178.303 710.609 176.002 713.411 176.002H747.333C750.136 176.002 752.413 178.303 752.413 181.136C752.413 183.968 750.136 186.269 747.333 186.269ZM840.984 165.086H781.489C778.686 165.086 776.409 162.785 776.409 159.953C776.409 157.121 778.686 154.819 781.489 154.819H840.984C843.786 154.819 846.063 157.121 846.063 159.953C846.063 162.785 843.728 165.086 840.984 165.086ZM977.372 164.732H961.783C958.98 164.732 956.703 167.033 956.703 169.866C956.703 172.698 954.426 174.999 951.624 174.999H940.005C937.203 174.999 934.926 172.698 934.926 169.866C934.926 167.033 932.649 164.732 929.846 164.732H914.783C911.98 164.732 909.703 162.431 909.703 159.599C909.703 156.767 907.426 154.465 904.624 154.465H897.325C894.523 154.465 892.246 152.164 892.246 149.332C892.246 146.5 894.523 144.199 897.325 144.199H931.247C934.05 144.199 936.327 146.5 936.327 149.332C936.327 152.164 938.604 154.465 941.406 154.465H977.255C980.058 154.465 982.335 156.767 982.335 159.599C982.451 162.431 980.174 164.732 977.372 164.732Z" fill="url(#paint3_linear_1828_13856)"/>
                <path opacity="0.3" d="M795.852 118.826C795.852 121.599 793.633 123.842 790.889 123.842H749.26C746.516 123.842 744.297 126.084 744.297 128.857C744.297 131.63 746.516 133.872 749.26 133.872H797.895C800.639 133.872 802.858 131.63 802.858 128.857C802.858 126.084 805.076 123.842 807.821 123.842H829.073C831.817 123.842 834.036 121.599 834.036 118.826C834.036 116.053 831.817 113.811 829.073 113.811H800.814C798.07 113.752 795.852 115.994 795.852 118.826Z" fill="url(#paint4_linear_1828_13856)"/>
            </g>
            <path opacity="0.6" d="M725.731 131.748C724.68 152.813 719.775 172.875 711.718 191.225C701.384 204.442 630.095 185.384 549.29 147.503C469.711 110.212 409.866 68.2001 411.267 51.2067C420.2 32.3251 432.519 15.4497 447.466 1.28855C360.413 -25.7357 295.839 -30.3971 284.746 -6.32308C273.711 17.7509 318.901 64.5418 395.386 114.224C433.629 139.065 479.753 164.614 530.548 188.452C581.46 212.29 630.621 231.408 674.118 244.861C760.937 271.767 825.336 276.369 836.371 252.295C847.348 228.162 802.157 181.431 725.731 131.748Z" fill="url(#paint5_linear_1828_13856)"/>
            <path opacity="0.2" d="M504.041 -6.50028C511.631 0.226274 507.953 17.0427 495.751 31.1449C483.606 45.188 467.55 51.1475 459.96 44.48C452.37 37.8124 456.048 20.937 468.251 6.83482C480.454 -7.26735 496.451 -13.2268 504.041 -6.50028Z" fill="url(#paint6_linear_1828_13856)"/>
            <path opacity="0.2" d="M443.262 47.9029C445.598 49.26 446.006 53.0954 444.079 56.3996C442.153 59.7039 438.766 61.2971 436.431 59.881C434.096 58.5238 433.687 54.6885 435.614 51.3842C437.54 48.0799 440.927 46.4868 443.262 47.9029Z" fill="url(#paint7_linear_1828_13856)"/>
            <path opacity="0.2" d="M528.33 16.4532C530.256 17.5743 530.431 20.8786 528.738 23.7699C527.045 26.6611 524.126 28.1952 522.258 27.0741C520.331 25.953 520.156 22.6488 521.849 19.7575C523.542 16.8663 526.403 15.3322 528.33 16.4532Z" fill="url(#paint8_linear_1828_13856)"/>
            <path opacity="0.2" d="M491.372 76.4016C489.328 83.1871 483.49 87.3765 478.352 85.8423C473.214 84.2492 470.703 77.4636 472.688 70.6781C474.732 63.8925 480.57 59.7032 485.708 61.2373C490.846 62.8304 493.415 69.616 491.372 76.4016Z" fill="url(#paint9_linear_1828_13856)"/>
            <path opacity="0.6" d="M992.027 12.7946C996.992 12.7946 1001.02 8.72633 1001.02 3.70785C1001.02 -1.31063 996.992 -5.37891 992.027 -5.37891C987.061 -5.37891 983.035 -1.31063 983.035 3.70785C983.035 8.72633 987.061 12.7946 992.027 12.7946Z" fill="url(#paint10_linear_1828_13856)"/>
            <path d="M332.038 107.733C332.586 107.733 333.03 107.284 333.03 106.73C333.03 106.176 332.586 105.727 332.038 105.727C331.49 105.727 331.045 106.176 331.045 106.73C331.045 107.284 331.49 107.733 332.038 107.733Z" fill="#88D1C3"/>
            <path d="M314.289 131.984C314.837 131.984 315.281 131.535 315.281 130.981C315.281 130.427 314.837 129.978 314.289 129.978C313.74 129.978 313.296 130.427 313.296 130.981C313.296 131.535 313.74 131.984 314.289 131.984Z" fill="#88D1C3"/>
            <path d="M357.085 152.459C357.633 152.459 358.078 152.01 358.078 151.456C358.078 150.902 357.633 150.453 357.085 150.453C356.537 150.453 356.093 150.902 356.093 151.456C356.093 152.01 356.537 152.459 357.085 152.459Z" fill="#88D1C3"/>
            <path d="M309.443 74.9855C310.217 74.9855 310.844 74.3515 310.844 73.5694C310.844 72.7873 310.217 72.1533 309.443 72.1533C308.669 72.1533 308.041 72.7873 308.041 73.5694C308.041 74.3515 308.669 74.9855 309.443 74.9855Z" fill="#88D1C3"/>
            <path d="M280.192 127.794C280.74 127.794 281.184 127.345 281.184 126.791C281.184 126.237 280.74 125.788 280.192 125.788C279.643 125.788 279.199 126.237 279.199 126.791C279.199 127.345 279.643 127.794 280.192 127.794Z" fill="#88D1C3"/>
            <path d="M262.267 109.208C262.944 109.208 263.493 108.653 263.493 107.969C263.493 107.284 262.944 106.729 262.267 106.729C261.59 106.729 261.041 107.284 261.041 107.969C261.041 108.653 261.59 109.208 262.267 109.208Z" fill="#88D1C3"/>
            <path d="M232.958 133.991C233.506 133.991 233.95 133.541 233.95 132.987C233.95 132.433 233.506 131.984 232.958 131.984C232.41 131.984 231.965 132.433 231.965 132.987C231.965 133.541 232.41 133.991 232.958 133.991Z" fill="#88D1C3"/>
            <path d="M251.816 66.784C252.074 66.784 252.283 66.5726 252.283 66.3119C252.283 66.0512 252.074 65.8398 251.816 65.8398C251.558 65.8398 251.349 66.0512 251.349 66.3119C251.349 66.5726 251.558 66.784 251.816 66.784Z" fill="#88D1C3"/>
            <path d="M215.734 89.9724C216.411 89.9724 216.96 89.4176 216.96 88.7332C216.96 88.0489 216.411 87.4941 215.734 87.4941C215.057 87.4941 214.508 88.0489 214.508 88.7332C214.508 89.4176 215.057 89.9724 215.734 89.9724Z" fill="#88D1C3"/>
            <path d="M232.14 36.8092C232.624 36.8092 233.016 36.413 233.016 35.9241C233.016 35.4353 232.624 35.0391 232.14 35.0391C231.657 35.0391 231.265 35.4353 231.265 35.9241C231.265 36.413 231.657 36.8092 232.14 36.8092Z" fill="#88D1C3"/>
            <path d="M192.322 107.969C192.644 107.969 192.905 107.705 192.905 107.379C192.905 107.053 192.644 106.789 192.322 106.789C191.999 106.789 191.738 107.053 191.738 107.379C191.738 107.705 191.999 107.969 192.322 107.969Z" fill="#88D1C3"/>
            <path d="M357.377 75.1035C357.796 75.1035 358.136 74.76 358.136 74.3364C358.136 73.9128 357.796 73.5693 357.377 73.5693C356.958 73.5693 356.618 73.9128 356.618 74.3364C356.618 74.76 356.958 75.1035 357.377 75.1035Z" fill="#88D1C3"/>
            <path d="M412.61 13.9744C413.061 13.9744 413.427 13.6045 413.427 13.1483C413.427 12.6921 413.061 12.3223 412.61 12.3223C412.158 12.3223 411.792 12.6921 411.792 13.1483C411.792 13.6045 412.158 13.9744 412.61 13.9744Z" fill="#88D1C3"/>
            <path d="M364.091 16.8069C364.865 16.8069 365.493 16.1728 365.493 15.3907C365.493 14.6086 364.865 13.9746 364.091 13.9746C363.318 13.9746 362.69 14.6086 362.69 15.3907C362.69 16.1728 363.318 16.8069 364.091 16.8069Z" fill="#88D1C3"/>
            <path d="M282.118 161.074C282.634 161.074 283.053 160.651 283.053 160.13C283.053 159.608 282.634 159.186 282.118 159.186C281.602 159.186 281.184 159.608 281.184 160.13C281.184 160.651 281.602 161.074 282.118 161.074Z" fill="#88D1C3"/>
            <path d="M156.415 121.6C157.027 121.6 157.524 121.098 157.524 120.478C157.524 119.859 157.027 119.357 156.415 119.357C155.802 119.357 155.305 119.859 155.305 120.478C155.305 121.098 155.802 121.6 156.415 121.6Z" fill="#88D1C3"/>
            <path d="M166.807 59.5847C167.065 59.5847 167.274 59.3734 167.274 59.1127C167.274 58.852 167.065 58.6406 166.807 58.6406C166.549 58.6406 166.34 58.852 166.34 59.1127C166.34 59.3734 166.549 59.5847 166.807 59.5847Z" fill="#88D1C3"/>
            <path d="M108.188 136.704C108.511 136.704 108.772 136.44 108.772 136.114C108.772 135.789 108.511 135.524 108.188 135.524C107.866 135.524 107.604 135.789 107.604 136.114C107.604 136.44 107.866 136.704 108.188 136.704Z" fill="#88D1C3"/>
            <path d="M138.607 92.2149C138.994 92.2149 139.308 91.8979 139.308 91.5069C139.308 91.1158 138.994 90.7988 138.607 90.7988C138.22 90.7988 137.906 91.1158 137.906 91.5069C137.906 91.8979 138.22 92.2149 138.607 92.2149Z" fill="#88D1C3"/>
            <path d="M56.8674 140.422C57.4156 140.422 57.86 139.973 57.86 139.419C57.86 138.865 57.4156 138.416 56.8674 138.416C56.3192 138.416 55.8748 138.865 55.8748 139.419C55.8748 139.973 56.3192 140.422 56.8674 140.422Z" fill="#88D1C3"/>
            <path d="M76.6601 107.969C76.9825 107.969 77.2439 107.705 77.2439 107.379C77.2439 107.053 76.9825 106.789 76.6601 106.789C76.3376 106.789 76.0762 107.053 76.0762 107.379C76.0762 107.705 76.3376 107.969 76.6601 107.969Z" fill="#88D1C3"/>
            <path d="M106.67 68.1997C107.186 68.1997 107.604 67.777 107.604 67.2556C107.604 66.7342 107.186 66.3115 106.67 66.3115C106.154 66.3115 105.736 66.7342 105.736 67.2556C105.736 67.777 106.154 68.1997 106.67 68.1997Z" fill="#88D1C3"/>
            <path d="M53.3059 67.7276C53.6928 67.7276 54.0065 67.4106 54.0065 67.0196C54.0065 66.6285 53.6928 66.3115 53.3059 66.3115C52.9189 66.3115 52.6053 66.6285 52.6053 67.0196C52.6053 67.4106 52.9189 67.7276 53.3059 67.7276Z" fill="#88D1C3"/>
            <path d="M162.253 19.6391C162.576 19.6391 162.837 19.3749 162.837 19.049C162.837 18.7232 162.576 18.459 162.253 18.459C161.931 18.459 161.669 18.7232 161.669 19.049C161.669 19.3749 161.931 19.6391 162.253 19.6391Z" fill="#88D1C3"/>
            <path d="M101.24 20.2875C101.563 20.2875 101.824 20.0233 101.824 19.6975C101.824 19.3716 101.563 19.1074 101.24 19.1074C100.918 19.1074 100.656 19.3716 100.656 19.6975C100.656 20.0233 100.918 20.2875 101.24 20.2875Z" fill="#88D1C3"/>
            <path d="M138.49 44.775C138.78 44.775 139.016 44.5372 139.016 44.2439C139.016 43.9507 138.78 43.7129 138.49 43.7129C138.2 43.7129 137.965 43.9507 137.965 44.2439C137.965 44.5372 138.2 44.775 138.49 44.775Z" fill="#88D1C3"/>
            <path d="M222.74 4.53346C223.095 4.53346 223.383 4.24286 223.383 3.8844C223.383 3.52593 223.095 3.23535 222.74 3.23535C222.386 3.23535 222.098 3.52593 222.098 3.8844C222.098 4.24286 222.386 4.53346 222.74 4.53346Z" fill="#88D1C3"/>
            <path d="M82.2067 2.35034C82.4646 2.35034 82.6738 2.13899 82.6738 1.87829C82.6738 1.61758 82.4646 1.40625 82.2067 1.40625C81.9487 1.40625 81.7396 1.61758 81.7396 1.87829C81.7396 2.13899 81.9487 2.35034 82.2067 2.35034Z" fill="#88D1C3"/>
            <path d="M320.01 27.4275C320.268 27.4275 320.478 27.2161 320.478 26.9554C320.478 26.6947 320.268 26.4834 320.01 26.4834C319.753 26.4834 319.543 26.6947 319.543 26.9554C319.543 27.2161 319.753 27.4275 320.01 27.4275Z" fill="#88D1C3"/>
            <path d="M273.244 34.3311C273.437 34.3311 273.594 34.1726 273.594 33.9771C273.594 33.7815 273.437 33.623 273.244 33.623C273.05 33.623 272.893 33.7815 272.893 33.9771C272.893 34.1726 273.05 34.3311 273.244 34.3311Z" fill="#88D1C3"/>
            <path d="M308.041 3.4713C308.332 3.4713 308.567 3.23354 308.567 2.94025C308.567 2.64696 308.332 2.40918 308.041 2.40918C307.751 2.40918 307.516 2.64696 307.516 2.94025C307.516 3.23354 307.751 3.4713 308.041 3.4713Z" fill="#88D1C3"/>
            <path d="M704.187 3.70689C704.831 3.70689 705.354 3.17854 705.354 2.52679C705.354 1.87503 704.831 1.34668 704.187 1.34668C703.542 1.34668 703.019 1.87503 703.019 2.52679C703.019 3.17854 703.542 3.70689 704.187 3.70689Z" fill="#88D1C3"/>
            <path d="M744.122 41.0572C744.122 41.8832 743.48 42.5323 742.663 42.5323C741.845 42.5323 741.203 41.8832 741.203 41.0572C741.203 40.2311 741.845 39.582 742.663 39.582C743.48 39.582 744.122 40.2311 744.122 41.0572Z" fill="#88D1C3"/>
            <path d="M858.558 19.9925C859.106 19.9925 859.55 19.5434 859.55 18.9894C859.55 18.4354 859.106 17.9863 858.558 17.9863C858.009 17.9863 857.565 18.4354 857.565 18.9894C857.565 19.5434 858.009 19.9925 858.558 19.9925Z" fill="#88D1C3"/>
            <path d="M824.052 31.2629C824.052 31.7939 823.585 32.2659 823.059 32.2659C822.534 32.2659 822.067 31.7939 822.067 31.2629C822.067 30.7318 822.534 30.2598 823.059 30.2598C823.585 30.2598 824.052 30.6728 824.052 31.2629Z" fill="#88D1C3"/>
            <path d="M884.189 49.6131C884.64 49.6131 885.006 49.2432 885.006 48.787C885.006 48.3308 884.64 47.9609 884.189 47.9609C883.737 47.9609 883.371 48.3308 883.371 48.787C883.371 49.2432 883.737 49.6131 884.189 49.6131Z" fill="#88D1C3"/>
            <path d="M1014.45 68.0223C1014.67 68.0223 1014.86 67.8374 1014.86 67.6093C1014.86 67.3812 1014.67 67.1963 1014.45 67.1963C1014.22 67.1963 1014.04 67.3812 1014.04 67.6093C1014.04 67.8374 1014.22 68.0223 1014.45 68.0223Z" fill="#88D1C3"/>
            <path d="M1032.31 151.691C1032.54 151.691 1032.72 151.506 1032.72 151.278C1032.72 151.05 1032.54 150.865 1032.31 150.865C1032.09 150.865 1031.9 151.05 1031.9 151.278C1031.9 151.506 1032.09 151.691 1032.31 151.691Z" fill="#88D1C3"/>
            <path d="M837.948 81.3575C838.754 81.3575 839.407 80.697 839.407 79.8823C839.407 79.0677 838.754 78.4072 837.948 78.4072C837.141 78.4072 836.488 79.0677 836.488 79.8823C836.488 80.697 837.141 81.3575 837.948 81.3575Z" fill="#88D1C3"/>
            <path d="M836.897 136.999C837.316 136.999 837.656 136.656 837.656 136.232C837.656 135.808 837.316 135.465 836.897 135.465C836.477 135.465 836.138 135.808 836.138 136.232C836.138 136.656 836.477 136.999 836.897 136.999Z" fill="#88D1C3"/>
            <path d="M760.061 147.738C760.481 147.738 760.82 147.395 760.82 146.971C760.82 146.548 760.481 146.204 760.061 146.204C759.642 146.204 759.302 146.548 759.302 146.971C759.302 147.395 759.642 147.738 760.061 147.738Z" fill="#88D1C3"/>
            <path d="M782.306 111.923C783.145 111.923 783.824 111.236 783.824 110.389C783.824 109.541 783.145 108.854 782.306 108.854C781.468 108.854 780.788 109.541 780.788 110.389C780.788 111.236 781.468 111.923 782.306 111.923Z" fill="#88D1C3"/>
            <path d="M913.498 101.833C914.208 101.833 914.783 101.251 914.783 100.534C914.783 99.8175 914.208 99.2363 913.498 99.2363C912.789 99.2363 912.214 99.8175 912.214 100.534C912.214 101.251 912.789 101.833 913.498 101.833Z" fill="#88D1C3"/>
            <path d="M1008.55 115.227C1009.1 115.227 1009.54 114.778 1009.54 114.224C1009.54 113.67 1009.1 113.221 1008.55 113.221C1008 113.221 1007.56 113.67 1007.56 114.224C1007.56 114.778 1008 115.227 1008.55 115.227Z" fill="#88D1C3"/>
            <path d="M976.204 36.2189C976.978 36.2189 977.606 35.5849 977.606 34.8028C977.606 34.0207 976.978 33.3867 976.204 33.3867C975.43 33.3867 974.803 34.0207 974.803 34.8028C974.803 35.5849 975.43 36.2189 976.204 36.2189Z" fill="#88D1C3"/>
            <path d="M1070.96 136.528C1071.87 136.528 1072.6 135.788 1072.6 134.876C1072.6 133.963 1071.87 133.224 1070.96 133.224C1070.06 133.224 1069.33 133.963 1069.33 134.876C1069.33 135.788 1070.06 136.528 1070.96 136.528Z" fill="#88D1C3"/>
            <path d="M1059.11 66.0165C1059.95 66.0165 1060.63 65.3297 1060.63 64.4824C1060.63 63.6351 1059.95 62.9482 1059.11 62.9482C1058.27 62.9482 1057.59 63.6351 1057.59 64.4824C1057.59 65.3297 1058.27 66.0165 1059.11 66.0165Z" fill="#88D1C3"/>
            <path d="M1039.61 0.402664C1040.16 0.402664 1040.6 -0.0464336 1040.6 -0.600426C1040.6 -1.15442 1040.16 -1.60352 1039.61 -1.60352C1039.06 -1.60352 1038.62 -1.15442 1038.62 -0.600426C1038.62 -0.0464336 1039.06 0.402664 1039.61 0.402664Z" fill="#88D1C3"/>
            <g opacity="0.8">
                <path opacity="0.8" d="M287.957 106.081L288.074 105.373C286.439 105.078 285.038 104.193 284.045 102.836C283.111 101.479 282.702 99.8268 282.994 98.1747L282.293 98.0566C282.002 99.8858 282.41 101.774 283.461 103.249C284.571 104.783 286.147 105.786 287.957 106.081Z" fill="#4F457C"/>
                <path opacity="0.8" d="M288.249 104.311L288.366 103.603C287.198 103.426 286.205 102.777 285.505 101.774C284.804 100.771 284.571 99.5911 284.746 98.411L284.045 98.293C283.811 99.6501 284.103 101.066 284.921 102.187C285.738 103.367 286.906 104.075 288.249 104.311Z" fill="#4F457C"/>
                <path opacity="0.8" d="M288.541 102.541L288.658 101.833C287.957 101.715 287.373 101.302 286.964 100.771C286.556 100.181 286.38 99.4726 286.497 98.7645L285.797 98.6465C285.621 99.5316 285.855 100.417 286.38 101.184C286.906 101.892 287.665 102.423 288.541 102.541Z" fill="#4F457C"/>
                <path opacity="0.8" d="M289.825 100.24C290.176 100.004 290.351 99.6499 290.351 99.2959L297.474 100.417C297.882 100.476 298.233 100.417 298.525 100.24C300.451 98.8829 300.802 96.0507 299.634 93.4544L300.451 92.8644C301.385 93.8675 302.495 94.3985 303.137 93.9265L304.772 92.7464L305.764 94.2215L304.13 95.4016C303.721 95.6966 303.604 96.2867 303.896 96.6997L309.91 105.255C310.202 105.668 310.786 105.786 311.194 105.491L315.515 102.423C315.923 102.128 316.04 101.538 315.748 101.125L309.676 92.5104C309.384 92.0973 308.8 91.9793 308.392 92.2743L306.757 93.4544L305.764 91.9793L307.749 90.5632C308.158 90.2682 308.275 89.7371 308.158 89.0881C308.625 89.0881 309.151 89.0291 309.326 88.9111C310.202 88.262 310.027 86.5509 308.917 85.0167C307.808 83.4826 306.29 82.7155 305.414 83.3646C305.239 83.4826 305.005 84.0136 304.889 84.4267C304.305 84.0726 303.779 84.0136 303.371 84.3087L301.386 85.7248L300.276 84.1907L301.911 83.0106C302.32 82.7155 302.436 82.1255 302.145 81.7125L296.131 73.1567C295.839 72.7437 295.255 72.6257 294.846 72.9207L290.526 75.989C290.117 76.284 290 76.8741 290.292 77.2871L296.306 85.8428C296.598 86.2558 297.182 86.3738 297.59 86.0788L299.225 84.8987L300.335 86.4329L298.7 87.613C297.999 88.085 298.174 89.3241 298.817 90.5632L297.999 91.1532C296.014 89.1471 293.212 88.616 291.285 89.9732C290.993 90.2092 290.818 90.5042 290.759 90.9172L289.475 98.0568C289.125 97.9388 288.716 97.9978 288.424 98.2338C287.84 98.6469 287.723 99.4139 288.132 100.004C288.541 100.594 289.3 100.594 289.825 100.24ZM290.584 98.5879L293.095 96.7587C293.795 97.7618 294.671 98.6469 295.489 99.3549L290.584 98.5879ZM292.686 96.1687L290.176 97.9978L291.051 93.0414C291.46 94.0445 292.044 95.1656 292.686 96.1687Z" fill="#4F457C"/>
            </g>
            <g opacity="0.8">
                <path opacity="0.8" d="M871.169 22.2354L871.11 23.0614C873.096 23.2384 874.847 24.2415 876.132 25.7756C877.358 27.3098 877.941 29.2569 877.766 31.2631L878.584 31.3221C878.817 29.0799 878.175 26.8967 876.774 25.1856C875.373 23.5335 873.387 22.4124 871.169 22.2354Z" fill="#4F457C"/>
                <path opacity="0.8" d="M870.994 24.3594L870.935 25.1854C872.336 25.3035 873.621 26.0115 874.497 27.1326C875.373 28.2537 875.781 29.6108 875.665 31.0859L876.482 31.1449C876.657 29.4928 876.19 27.8997 875.139 26.6016C874.088 25.3034 872.628 24.5364 870.994 24.3594Z" fill="#4F457C"/>
                <path opacity="0.8" d="M870.76 26.4834L870.702 27.3095C871.519 27.3685 872.337 27.7815 872.862 28.4896C873.387 29.1386 873.621 29.9647 873.563 30.8498L874.38 30.9088C874.497 29.8467 874.146 28.7846 873.504 27.8995C872.804 27.1324 871.811 26.6014 870.76 26.4834Z" fill="#4F457C"/>
                <path opacity="0.8" d="M869.417 29.3749C869.067 29.6699 868.892 30.083 868.892 30.555L860.543 29.6109C860.484 29.6109 860.426 29.6109 860.367 29.6109C859.959 29.6109 859.609 29.7879 859.375 30.083C857.39 32.3251 857.04 35.6884 858.324 38.3436L856.047 40.2318L854.879 38.7567C854.529 38.2846 853.828 38.2256 853.361 38.5797L850.617 40.8218L849.041 38.8747L850.909 37.3406C851.376 36.9275 851.435 36.2785 851.084 35.8064L843.202 26.0706C842.793 25.5986 842.151 25.5396 841.684 25.8936L836.78 29.9059C836.313 30.319 836.254 30.968 836.605 31.4401L844.487 41.1759C844.895 41.6479 845.538 41.7069 846.005 41.3529L847.873 39.8188L849.449 41.7659L846.939 43.8311C846.472 44.1851 846.413 44.8932 846.764 45.3652L846.939 45.6012L845.012 46.1913C844.72 46.3093 844.487 46.4863 844.37 46.8404C844.253 47.1354 844.37 47.4894 844.545 47.7254L848.749 52.9179C848.924 53.1539 849.274 53.2719 849.566 53.2719C849.741 53.2719 849.917 53.1539 850.033 53.0949C850.15 53.0359 850.208 52.9179 850.267 52.7999L851.201 50.9707L851.259 51.0887C851.61 51.5607 852.31 51.6198 852.777 51.2657L855.288 49.2006L856.923 51.2067L855.054 52.7408C854.587 53.1539 854.529 53.8029 854.879 54.275L862.761 64.0108C863.17 64.4828 863.812 64.5418 864.279 64.1878L869.184 60.1755C869.651 59.7624 869.709 59.1134 869.359 58.6413L861.477 48.9055C861.068 48.4335 860.426 48.3745 859.959 48.7285L858.09 50.2626L856.456 48.2565L859.2 46.0143C859.667 45.6603 859.725 44.9522 859.375 44.4802L858.149 42.946L860.426 41.0579C862.761 42.887 866.089 43.241 868.658 41.7069C868.717 41.6479 868.775 41.6479 868.833 41.5889C869.067 41.4119 869.242 41.1169 869.3 40.7628C869.3 40.7038 869.3 40.6448 869.3 40.5858L870.059 32.0891C870.468 32.1481 870.935 32.0891 871.286 31.7941C871.928 31.2631 871.986 30.319 871.519 29.6699C871.052 29.0209 870.059 28.8439 869.417 29.3749ZM861.769 30.614L868.658 31.3811L864.922 34.4493L861.769 30.614ZM865.447 35.1574L869.184 32.0891L868.6 39.0517L865.447 35.1574Z" fill="#4F457C"/>
            </g>
        </g>
        <path d="M600.892 107.159H278.308C264.892 107.159 257.542 99.7503 249.725 91.9337C240.683 82.892 231.35 73.5003 210.933 73.5003H138.192V69.417H210.933C233.1 69.417 243.483 79.8587 252.642 89.017C260.108 96.542 266.583 103.017 278.308 103.017H600.833C605.792 103.017 610.458 100.042 615.883 96.6003C623.525 91.7587 633.033 85.692 647.442 85.692H1035.3V89.7754H647.442C634.2 89.7754 625.625 95.2587 618.042 100.042C612.15 103.892 607.017 107.159 600.892 107.159Z" fill="#49499B"/>
        <path d="M287.817 145.542H231.7L219.45 99.4583H203.933L199.558 80.5583H186.492L181.475 95.6667H145.483L145.017 53.6667H135.333L130.667 42.2917H120.925L112.642 72.275H99.8667L96.775 79.7417H86.1583L83.3583 61.3083H72.0417V22.6333H64.1667L57.8083 96.5417H29.6333L22.4 48.0083H17.15V62.1833H11.4333L0 81.025V308H1120V72.275H1070.42V11.9L1035.3 -7V34.5333L1017.92 47.6583V69.9417L996.917 81.725V102.375H974.283V67.2583L940.8 52.9667V97.7666L917.175 108.617V127.225H831.542V26.5417H825.942C825.942 26.5417 823.083 83.0667 813.925 104.417H800.392L793.158 118.65H783.942V61.1333H770.175V33.25H757.692L750.808 78.9833H724.908V102.667H714.408H696.092L687.808 129.558H674.683V111.533H647.792L638.283 149.508H622.883L613.025 136.442H517.883L513.275 68.8333L502.775 63.7V33.1917L490.292 40.075V72.2167L471.567 83.5333V125.942L453.192 148.225V169.75H426.65L425.6 158.433L405.592 148.167L401.683 105.35H384.65V62.7083C384.65 62.7083 358.225 86.6833 358.225 145.483H287.817V145.542Z" fill="#49499B"/>
        <path d="M847 86.6836H823.842V131.367H847V86.6836Z" fill="#49499B"/>
        <path d="M930.3 23.9164H865.958C864.442 23.9164 863.158 22.6914 863.158 21.1164C863.158 19.5997 864.383 18.3164 865.958 18.3164H930.3C931.817 18.3164 933.1 19.5414 933.1 21.1164C933.1 22.6914 931.875 23.9164 930.3 23.9164Z" fill="#49499B"/>
        <path d="M163.45 26.6579C163.45 16.6828 171.558 8.63281 181.475 8.63281C191.392 8.63281 199.5 16.7412 199.5 26.6579" fill="#49499B"/>
        <path d="M204.808 31.4998H158.258C156.567 31.4998 155.167 30.0998 155.167 28.4081C155.167 26.7164 156.567 25.3164 158.258 25.3164H204.808C206.5 25.3164 207.9 26.7164 207.9 28.4081C207.9 30.0998 206.5 31.4998 204.808 31.4998Z" fill="#49499B"/>
        <path d="M183.808 29.1084H181.533H179.2L171.5 106.867H181.533H191.508L183.808 29.1084Z" fill="#49499B"/>
        <path d="M898.158 -5.25C885.092 -5.25 874.533 5.30833 874.533 18.375H921.725C921.783 5.30833 911.167 -5.25 898.158 -5.25Z" fill="#49499B"/>
        <path d="M902.475 20.2998H893.842V140.816H902.475V20.2998Z" fill="#49499B"/>
        <path d="M845.367 22.1084H811.592V27.3H845.367V22.1084Z" fill="#49499B"/>
        <path d="M841.808 35.7588H827.225V47.9504H841.808V35.7588Z" fill="#49499B"/>
        <path d="M841.808 62.8252H815.15V75.0168H841.808V62.8252Z" fill="#49499B"/>
        <path d="M873.133 103.542H859.133V137.9H873.133V103.542Z" fill="#49499B"/>
        <path d="M883.4 116.9H869.167V137.9H883.4V116.9Z" fill="#49499B"/>
        <path d="M830.2 47.9502H815.15V57.5168H830.2V47.9502Z" fill="#49499B"/>
        <path d="M557.317 162.983C571.395 162.983 582.808 151.57 582.808 137.492C582.808 123.413 571.395 112 557.317 112C543.238 112 531.825 123.413 531.825 137.492C531.825 151.57 543.238 162.983 557.317 162.983Z" fill="#49499B"/>
        <path d="M244.767 165.083C256.042 165.083 265.183 150.144 265.183 131.716C265.183 113.288 256.042 98.3496 244.767 98.3496C233.491 98.3496 224.35 113.288 224.35 131.716C224.35 150.144 233.491 165.083 244.767 165.083Z" fill="#49499B"/>
        <path d="M702.042 55.8829C709.645 55.8829 715.808 49.7194 715.808 42.1163C715.808 34.5132 709.645 28.3496 702.042 28.3496C694.439 28.3496 688.275 34.5132 688.275 42.1163C688.275 49.7194 694.439 55.8829 702.042 55.8829Z" fill="#49499B"/>
        <path d="M722.458 44.9164H681.683C680.108 44.9164 678.883 43.6331 678.883 42.1164C678.883 40.5414 680.167 39.3164 681.683 39.3164H722.458C724.033 39.3164 725.258 40.5997 725.258 42.1164C725.258 43.6914 724.033 44.9164 722.458 44.9164Z" fill="#49499B"/>
        <path d="M716.625 64.8666H687.517C686.408 64.8666 685.475 63.9916 685.475 62.8249C685.475 61.7165 686.35 60.7832 687.517 60.7832H716.625C717.733 60.7832 718.667 61.6582 718.667 62.8249C718.667 63.9332 717.733 64.8666 716.625 64.8666Z" fill="#49499B"/>
        <path d="M712.425 76.3583H691.658C690.725 76.3583 689.967 75.6 689.967 74.6666V74.0833C689.967 73.15 690.725 72.3916 691.658 72.3916H712.425C713.358 72.3916 714.117 73.15 714.117 74.0833V74.6666C714.175 75.6 713.417 76.3583 712.425 76.3583Z" fill="#49499B"/>
        <path d="M705.075 52.7334H702.042H699.008C699.008 94.2084 692.592 116.9 692.592 116.9H702.042H711.492C711.492 116.9 705.075 94.1501 705.075 52.7334Z" fill="#49499B"/>
        <path d="M430.558 177.8H424.375V147.35C424.375 145.659 425.775 144.259 427.467 144.259C429.158 144.259 430.558 145.659 430.558 147.35V177.8Z" fill="#49499B"/>
        <path d="M669.667 82.1338H661.792V121.509H669.667V82.1338Z" fill="#49499B"/>
        <path d="M667.333 95.4336H657.3V124.075H667.333V95.4336Z" fill="#49499B"/>
        <path d="M638.283 124.134H631.575V157.384H638.283V124.134Z" fill="#49499B"/>
        <path d="M743.4 51.0996H735.642V89.5413H743.4V51.0996Z" fill="#49499B"/>
        <path d="M967.108 15.5166H951.533V75.7166H967.108V15.5166Z" fill="#49499B"/>
        <path d="M1010.16 37.4502H1004.62V79.6835H1010.16V37.4502Z" fill="#49499B"/>
        <path d="M126.817 -8.5752V45.7332L139.183 57.2832V-3.20852L126.817 -8.5752Z" fill="#49499B"/>
        <path d="M82.425 18.5498H53.2V25.0248H82.425V18.5498Z" fill="#49499B"/>
        <path d="M82.3667 29.9834H63.5833V36.4584H82.3667V29.9834Z" fill="#49499B"/>
        <path d="M82.425 41.417H63.5833V47.892H82.425V41.417Z" fill="#49499B"/>
        <path d="M76.65 45.1504H67.8417V65.2754H76.65V45.1504Z" fill="#49499B"/>
        <path d="M234.617 157.033H218.633V63.2917L234.617 50.9834V157.033Z" fill="#49499B"/>
        <path d="M244.708 23.625H231.758V136.908H244.708V23.625Z" fill="#49499B"/>
        <path d="M309.167 104.767H288.4V165.083H309.167V104.767Z" fill="#49499B"/>
        <path d="M296.683 128.917H248.15V162.225H296.683V128.917Z" fill="#49499B"/>
        <path d="M176.4 106.867H158.258V92.9836C158.258 88.5503 161.875 84.9336 166.308 84.9336H176.458V106.867H176.4Z" fill="#49499B"/>
        <path d="M49 104.766H40.425V76.1831C40.425 73.8498 42.35 71.9248 44.6833 71.9248C47.0167 71.9248 48.9417 73.8498 48.9417 76.1831V104.766H49Z" fill="#49499B"/>
        <path d="M329.992 156.041H321.417V133.466C321.417 130.958 323.458 128.975 325.908 128.975H329.992V156.041Z" fill="#49499B"/>
        <path d="M606.433 121.45H598.792V149.742H606.433V121.45Z" fill="#49499B"/>
        <path d="M984.55 94.1504H969.15V109.55H984.55V94.1504Z" fill="#49499B"/>
        <path d="M549.967 103.075H545.067V128.392H549.967V103.075Z" fill="#49499B"/>
        <path d="M574.467 100.158H569.683V129.208H574.467V100.158Z" fill="#49499B"/>
        <path d="M651.117 140.7H628.95V152.484H651.117V140.7Z" fill="#49499B"/>
        <path d="M371.933 131.717H340.317V150.5H371.933V131.717Z" fill="#49499B"/>
        <path d="M1099.7 43.4001V53.2584L1087.92 58.5667V72.2167H1070.42V11.9001L1035.3 -6.99995V34.5334L1017.92 47.6584V69.9417L1010.16 74.3167V37.4501H1004.62V77.4084L996.917 81.725V85.6917H974.283V67.3167L967.167 64.2834V15.4584H951.592V57.6334L940.858 53.0251V85.6917H902.533V23.9167H930.358C931.875 23.9167 933.158 22.6917 933.158 21.1167C933.158 19.6001 931.933 18.3167 930.358 18.3167H921.783C921.783 5.25006 911.225 -5.30827 898.158 -5.30827C885.092 -5.30827 874.533 5.25006 874.533 18.3167H865.958C864.442 18.3167 863.158 19.5417 863.158 21.1167C863.158 22.6334 864.383 23.9167 865.958 23.9167H893.783V85.75H831.483V75.0167H841.75V62.8251H831.483V47.9501H841.75V35.7584H831.483V27.2417H845.308V22.05H811.533V27.2417H825.883C825.767 29.6334 825.3 37.625 824.308 47.8917H815.092V57.4584H823.317C823.142 59.2084 822.908 60.9584 822.675 62.7667H815.033V74.9584H820.983C820.4 78.6334 819.758 82.2501 819.117 85.6917H783.883V61.0751H770.117V33.1917H757.633L750.75 78.925H743.342V51.0417H735.583V78.925H724.85V85.75H706.475C706.183 82.8334 705.95 79.6834 705.717 76.3584H712.367C713.3 76.3584 714.058 75.6 714.058 74.6667V74.0834C714.058 73.15 713.3 72.3917 712.367 72.3917H705.483C705.367 70 705.25 67.4917 705.192 64.925H716.567C717.675 64.925 718.608 64.05 718.608 62.8834C718.608 61.775 717.733 60.8417 716.567 60.8417H705.075C705.017 59.0917 705.017 57.3417 705.017 55.5334C710.267 54.3667 714.35 50.225 715.458 44.9167H722.4C723.975 44.9167 725.2 43.6334 725.2 42.1167C725.2 40.6001 723.917 39.3167 722.4 39.3167H715.458C714.175 33.0751 708.633 28.35 701.983 28.35C695.333 28.35 689.792 33.0167 688.508 39.3167H681.567C679.992 39.3167 678.767 40.6001 678.767 42.1167C678.767 43.6334 680.05 44.9167 681.567 44.9167H688.508C689.617 50.1667 693.7 54.3667 698.95 55.5334C698.95 57.3417 698.892 59.0917 698.892 60.8417H687.4C686.292 60.8417 685.358 61.7167 685.358 62.8834C685.358 63.9917 686.233 64.925 687.4 64.925H698.775C698.717 67.4917 698.6 70 698.483 72.3917H691.6C690.667 72.3917 689.908 73.15 689.908 74.0834V74.6667C689.908 75.6 690.667 76.3584 691.6 76.3584H698.25C698.017 79.6834 697.783 82.775 697.492 85.75H669.667V82.1334H661.792V85.75H647.442C633.033 85.75 623.525 91.8167 615.883 96.6584C610.517 100.1 605.85 103.075 600.833 103.075H574.408V100.158H569.625V103.075H549.908H545.008H515.492L513.158 68.8917L502.658 63.7584V33.25L490.175 40.1334V72.2751L471.45 83.5917V103.075H384.65V62.7667C384.65 62.7667 371.292 74.9001 363.592 103.075H278.308C266.583 103.075 260.108 96.6001 252.642 89.0751C250.192 86.5667 247.625 84.0001 244.767 81.6084V23.6834H231.817V53.2001L218.633 63.35V69.9417C216.242 69.6501 213.675 69.475 210.992 69.475H187.833L184.042 31.5584H204.75C206.442 31.5584 207.842 30.1584 207.842 28.4667C207.842 26.775 206.442 25.375 204.75 25.375H199.5C198.8 16.0417 191.042 8.69173 181.533 8.69173C172.025 8.69173 164.208 16.0417 163.567 25.375H158.317C156.625 25.375 155.225 26.775 155.225 28.4667C155.225 30.1584 156.625 31.5584 158.317 31.5584H179.025L175.233 69.475H145.25L145.075 53.725H139.125V-3.14996L126.758 -8.5166V42.35H120.867L112.583 72.3334H99.8083L96.7167 79.8H86.1L83.3 61.3667H76.5917V48.0667H82.3667V41.4167H71.9833V36.4584H82.3667V29.9834H71.9833V25.0251H82.3667V18.55H53.2V25.0251H63.9333L57.8083 96.5417H49V76.1834C49 73.85 47.075 71.925 44.7417 71.925C42.4083 71.925 40.4833 73.85 40.4833 76.1834V96.5417H29.6333L22.4 48.0084H17.15V62.1834H11.4333L0 81.0251V308H1120V82.3084V72.2167V31.85H1111.31C1104.89 31.85 1099.7 37.0417 1099.7 43.4001ZM873.133 116.9V103.542H859.133V127.283H847V89.8334H893.842V127.283H883.4V116.9H873.133ZM569.683 107.158V115.15C566.008 113.108 561.808 111.942 557.317 111.942C554.75 111.942 552.3 112.35 549.967 112.992V107.1H569.683V107.158ZM340.317 131.717V145.542H329.992V128.917H325.908C323.4 128.917 321.417 130.958 321.417 133.408V145.483H309.167V107.1H362.483C360.733 114.333 359.392 122.5 358.692 131.658H340.317V131.717ZM249.725 91.9334C257.542 99.75 264.892 107.158 278.308 107.158H288.4V128.917H265.067C264.192 111.825 255.442 98.35 244.767 98.35V87.0334C246.458 88.6667 248.092 90.3 249.725 91.9334ZM145.308 73.5H174.825L173.717 84.875H166.25C161.817 84.875 158.2 88.4917 158.2 92.925V95.6667H145.483L145.308 73.5ZM199.558 80.5584H188.942L188.242 73.5H210.933C213.675 73.5 216.242 73.675 218.575 73.9667V99.4001H203.933L199.558 80.5584ZM453.192 148.225V161.7H443.333V169.75H430.558V147.35C430.558 145.658 429.158 144.258 427.467 144.258C425.775 144.258 424.375 145.658 424.375 147.35V157.792L405.592 148.225L401.8 107.158H471.508V125.942L453.192 148.225ZM515.842 107.158H545.067V115.092C537.425 119.292 532.175 127.225 531.825 136.5H517.883L515.842 107.158ZM613.025 136.5H606.492V121.508H598.85V136.5H582.808C582.517 129.442 579.367 123.083 574.467 118.592V107.158H600.892C607.075 107.158 612.208 103.892 618.1 100.1C625.683 95.2584 634.2 89.8334 647.5 89.8334H661.85V95.4334H657.358V111.533H647.85L640.558 140.758H638.342V124.133H631.633V140.758H629.008V149.567H622.942L613.025 136.5ZM674.683 129.558V111.533H669.667V89.8334H697.2C696.442 97.0084 695.508 102.842 694.75 107.217L687.867 129.558H674.683ZM714.408 102.667H708.633C708.05 99.05 707.467 94.7334 706.942 89.8334H724.908V102.667H714.408ZM800.392 104.417L793.158 118.65H783.942V89.8334H818.3C817.017 95.4917 815.558 100.567 813.867 104.417H800.392ZM917.175 108.675V127.283H902.475V89.8334H940.8V97.8834L917.175 108.675ZM984.55 102.433V94.1501H974.283V89.8334H996.917V102.433H984.55Z" fill="url(#paint11_linear_1828_13856)"/>
        <path d="M244.767 79.8584H241.325L236.542 217.583H252.992L248.15 79.8584H244.767Z" fill="#444491"/>
        <path d="M220.15 79.8584C220.15 93.4501 231.175 104.475 244.767 104.475C258.358 104.475 269.383 93.4501 269.383 79.8584H220.15Z" fill="#444491"/>
        <path d="M276.675 82.2497H212.8C210.933 82.2497 209.417 80.7331 209.417 78.8664V78.5747C209.417 76.7081 210.933 75.1914 212.8 75.1914H276.675C278.542 75.1914 280.058 76.7081 280.058 78.5747V78.8664C280.058 80.7331 278.542 82.2497 276.675 82.2497Z" fill="#444491"/>
        <path d="M257.075 119.117H232.458C230.767 119.117 229.367 117.717 229.367 116.025C229.367 114.334 230.767 112.934 232.458 112.934H257.075C258.767 112.934 260.167 114.334 260.167 116.025C260.167 117.717 258.767 119.117 257.075 119.117Z" fill="#444491"/>
        <path d="M240.333 149.45H222.542V214.025H240.333V149.45Z" fill="#444491"/>
        <path d="M129.558 55.9414C114.917 55.9414 103.075 112.058 103.075 181.358H156.042C156.042 112.058 144.142 55.9414 129.558 55.9414Z" fill="#444491"/>
        <path d="M549.617 142.392L543.317 148.167C539.875 151.317 537.95 155.75 537.95 160.417V270.083H582.167V181.533C582.167 176.05 579.425 170.858 574.875 167.825L568.225 163.333V97.125H559.417C553.933 97.125 549.558 101.558 549.558 106.983L549.617 142.392Z" fill="#444491"/>
        <path d="M708.225 95.2002H659.75C657.3 95.2002 655.2 97.0668 655.142 99.5168C655.083 102.025 657.067 104.067 659.575 104.067H673.75C676.667 104.067 679.058 106.459 679.058 109.375V112.35C679.058 115.267 676.667 117.659 673.75 117.659H665.583C663.133 117.659 661.033 119.525 660.975 121.975C660.917 124.484 662.9 126.525 665.408 126.525H673.75C676.667 126.525 679.058 128.917 679.058 131.834V222.892V245.292H688.8V222.892V131.717C688.8 128.8 691.192 126.409 694.108 126.409H702.275C704.725 126.409 706.825 124.542 706.883 122.092C706.942 119.584 704.958 117.542 702.45 117.542H694.108C691.192 117.542 688.8 115.15 688.8 112.234V109.259C688.8 106.342 691.192 103.95 694.108 103.95H708.108C710.558 103.95 712.658 102.084 712.717 99.6335C712.717 97.2418 710.733 95.2002 708.225 95.2002Z" fill="#444491"/>
        <path d="M664.533 152.017H633.733V256.492H664.533V152.017Z" fill="#444491"/>
        <path d="M645.633 129.967H626.558V234.442H645.633V129.967Z" fill="#444491"/>
        <path d="M928.9 151.375H900.783V229.483H928.9V151.375Z" fill="#444491"/>
        <path d="M936.133 89.833H921.667V225.4H936.133V89.833Z" fill="#444491"/>
        <path d="M953.808 118.884H931.058V211.75H953.808V118.884Z" fill="#444491"/>
        <path d="M1004.15 59.4414C990.383 59.4414 979.242 83.8247 979.242 113.925C979.242 144.025 990.383 168.408 1004.15 168.408" fill="#444491"/>
        <path d="M1018.21 81.9004H1002.05V164.675H1018.21V81.9004Z" fill="#444491"/>
        <path d="M344.167 124.191V231.466H373.508V153.475C373.508 137.316 360.383 124.191 344.167 124.191Z" fill="#444491"/>
        <path d="M353.967 160.533H329V217.583H353.967V160.533Z" fill="#444491"/>
        <path d="M-0.116669 175.467H174.825L198.158 197.634H293.767V209.592H384.825V226.276H431.083L459.142 251.417H509.833L521.15 259.759H599.375L619.558 231.467H732.783V190.459H749.525L760.842 160.534H766.733V204.284H789.892V221.375H848.458V201.717H914.842L953.808 176.634V157.617H1028.07L1052.22 175.117H1066.98L1084.71 193.842H1120V308H-2.02656e-06L-0.116669 175.467Z" fill="#444491"/>
        <path d="M1094.04 135.917H1044.17V200.2H1094.04V135.917Z" fill="#444491"/>
        <path opacity="0.7" d="M1094.04 193.841V135.916H1044.17V169.283L1028.07 157.616H1018.21V81.8997H1004.15V59.4414C990.383 59.4414 979.242 83.8247 979.242 113.925C979.242 131.775 983.15 147.641 989.217 157.616H953.75V118.883H936.017V89.8331H921.667V151.375H900.783V201.716H848.458V221.433H789.892V204.283H766.733V160.533H760.842L749.525 190.458H732.783V231.466H688.742V222.775V131.716C688.742 128.8 691.133 126.408 694.05 126.408H702.217C704.667 126.408 706.767 124.541 706.825 122.091C706.883 119.583 704.9 117.541 702.392 117.541H694.05C691.133 117.541 688.742 115.15 688.742 112.233V109.258C688.742 106.341 691.133 103.95 694.05 103.95H708.05C710.5 103.95 712.6 102.083 712.658 99.633C712.717 97.1247 710.733 95.0831 708.225 95.0831H659.75C657.3 95.0831 655.2 96.9497 655.142 99.3997C655.083 101.908 657.067 103.95 659.575 103.95H673.75C676.667 103.95 679.058 106.341 679.058 109.258V112.233C679.058 115.15 676.667 117.541 673.75 117.541H665.583C663.133 117.541 661.033 119.408 660.975 121.858C660.917 124.366 662.9 126.408 665.408 126.408H673.75C676.667 126.408 679.058 128.8 679.058 131.716V222.775V231.466H664.592V152.016H645.692V129.966H626.617V180.075H616V236.658L599.492 259.816H582.167V181.533C582.167 176.05 579.425 170.858 574.875 167.825L568.225 163.333V97.1247H559.417C553.933 97.1247 549.558 101.558 549.558 106.983L549.617 142.333L543.317 148.108C539.875 151.258 537.95 155.691 537.95 160.358V259.758H521.15L509.833 251.416H459.142L431.083 226.275H384.825V209.591H373.567V153.533C373.567 137.316 360.442 124.191 344.225 124.191V160.533H329.058V209.591H293.767V197.633H252.292L249.55 119.175H257.075C258.767 119.175 260.167 117.775 260.167 116.083C260.167 114.391 258.767 112.991 257.075 112.991H249.317L249.025 104.125C259.817 102.258 268.158 93.333 269.267 82.308H276.733C278.6 82.308 280.117 80.7914 280.117 78.9247V78.633C280.117 76.7664 278.6 75.2497 276.733 75.2497H212.8C210.933 75.2497 209.417 76.7664 209.417 78.633V78.9247C209.417 80.7914 210.933 82.308 212.8 82.308H220.267C221.317 93.333 229.717 102.258 240.508 104.125L240.217 112.991H232.458C230.767 112.991 229.367 114.391 229.367 116.083C229.367 117.775 230.767 119.175 232.458 119.175H239.983L238.933 149.45H222.542V197.633H198.158L174.825 175.466H155.983C155.342 108.966 143.733 55.9414 129.558 55.9414C115.383 55.9414 103.775 108.908 103.133 175.466H-0.116669L-2.02656e-06 308H1120V193.841H1094.04Z" fill="url(#paint12_linear_1828_13856)"/>
        <path d="M263.638 43.7316C267.97 43.3419 271.236 40.2946 270.933 36.9254C270.63 33.5562 266.872 31.1409 262.541 31.5306C258.209 31.9204 254.943 34.9676 255.246 38.3368C255.549 41.706 259.307 44.1214 263.638 43.7316Z" fill="#444491"/>
        <path d="M273.419 36.2404L267.028 36.8154L267.112 37.745L273.503 37.17L273.419 36.2404Z" fill="#444491"/>
        <path d="M274.983 38.0919C275.821 38.0919 276.5 37.4129 276.5 36.5753C276.5 35.7376 275.821 35.0586 274.983 35.0586C274.146 35.0586 273.467 35.7376 273.467 36.5753C273.467 37.4129 274.146 38.0919 274.983 38.0919Z" fill="#444491"/>
        <path d="M255.208 38.3249L251.125 30.5082C251.125 30.5082 257.017 29.5165 259.817 32.4332L255.208 38.3249Z" fill="#444491"/>
        <path d="M255.208 38.3252L252.642 46.7835C252.642 46.7835 258.592 46.7251 260.808 43.3418L255.208 38.3252Z" fill="#444491"/>
        <g opacity="0.3">
            <path opacity="0.3" d="M249.258 40.6581C241.267 41.4748 233.217 42.6414 225.225 43.9831C217.233 45.3831 209.3 47.0164 201.367 48.8248L195.475 50.2831L189.583 51.9164C188.592 52.2081 187.6 52.4414 186.667 52.7331L183.75 53.6081L180.833 54.4831C179.842 54.7748 178.908 55.0664 177.917 55.4164L172.142 57.3414C171.15 57.6331 170.217 58.0414 169.283 58.3914L166.425 59.4414L163.567 60.4914C162.633 60.8414 161.7 61.2498 160.767 61.6581L155.167 64.0497L160.708 61.4831C161.642 61.0748 162.517 60.6081 163.508 60.1998L166.308 59.0331L169.108 57.8664C170.042 57.4581 170.975 57.1081 171.967 56.7581L177.683 54.6581C178.617 54.3081 179.608 53.9581 180.542 53.6664L183.458 52.6747L186.375 51.6831C187.367 51.3331 188.3 51.0997 189.292 50.8081L195.125 49.0581L201.017 47.4247C208.892 45.3247 216.825 43.4581 224.817 41.8248C232.808 40.1914 240.8 38.7914 248.967 37.7414C249.783 37.6248 250.483 38.2081 250.6 39.0248C250.717 39.8414 250.133 40.5414 249.317 40.6581C249.317 40.6581 249.317 40.6581 249.258 40.6581Z" fill="url(#paint13_linear_1828_13856)"/>
        </g>
        <path d="M932.383 134.153C937.635 134.153 941.892 129.896 941.892 124.645C941.892 119.394 937.635 115.137 932.383 115.137C927.132 115.137 922.875 119.394 922.875 124.645C922.875 129.896 927.132 134.153 932.383 134.153Z" fill="#1C1C3F"/>
        <path d="M975.083 134.212C973.567 134.212 972.342 132.987 972.342 131.471V112.571C972.342 111.054 973.567 109.829 975.083 109.829C976.6 109.829 977.825 111.054 977.825 112.571V131.471C977.767 132.929 976.542 134.212 975.083 134.212Z" fill="#1C1C3F"/>
        <path d="M1025.42 99.3288C1024.02 99.3288 1022.86 98.1621 1022.86 96.7621V81.7122C1022.86 80.3122 1024.02 79.1455 1025.42 79.1455C1026.83 79.1455 1027.99 80.3122 1027.99 81.7122V96.7621C1027.93 98.1621 1026.83 99.3288 1025.42 99.3288Z" fill="#1C1C3F"/>
        <path d="M552.692 114.904C552.692 113.504 547.15 114.904 547.15 114.904C547.15 114.904 541.608 113.504 541.608 114.904C541.608 215.004 520.025 309.446 520.025 309.446H574.275C574.333 309.446 552.692 215.004 552.692 114.904Z" fill="#1C1C3F"/>
        <path d="M504.625 78.7373C504.625 102.246 523.7 121.321 547.208 121.321C570.717 121.321 589.792 102.246 589.792 78.7373H504.625Z" fill="#1C1C3F"/>
        <path d="M784.392 239.154H813.5L825.342 219.204H860.75L887.992 99.4457L896.217 94.1957V42.2207L909.342 50.854V121.437L920.483 129.312V149.612H945.45L958.225 124.704H981.208V52.1957H989.083V124.704H1013.7V91.5707H1032.37V99.7374H1042.87V63.6874L1069.82 43.9707V323.679H550.708V234.021H606.767V142.962L619.6 150.604V180.121L636.983 184.729V234.021H701.617L784.392 239.154Z" fill="#1C1C3F"/>
        <path d="M1011.42 37.0869L985.117 63.3952L958.808 37.0869" fill="#1C1C3F"/>
        <path d="M989.083 64.1533H981.208V68.7616H989.083V64.1533Z" fill="#1C1C3F"/>
        <path d="M1017.43 39.8871H952.8C951.283 39.8871 950 38.6621 950 37.0871C950 35.5704 951.225 34.2871 952.8 34.2871H1017.43C1018.95 34.2871 1020.23 35.5121 1020.23 37.0871C1020.23 38.6038 1019.01 39.8871 1017.43 39.8871Z" fill="#1C1C3F"/>
        <path d="M985.13 73.1404L972.591 85.6797L985.13 98.2189L997.669 85.6797L985.13 73.1404Z" fill="#1C1C3F"/>
        <path d="M963.767 90.6953H956.125V136.429H963.767V90.6953Z" fill="#1C1C3F"/>
        <path d="M935.358 127.212H929.467V154.979H935.358V127.212Z" fill="#1C1C3F"/>
        <path d="M896.625 107.495V202.987H875.217L896.625 107.495Z" fill="#212149"/>
        <path d="M985.117 54.7038V40.4121H969.367L985.117 54.7038Z" fill="#212149"/>
        <path d="M1050.45 66.4292V145.471L1059.2 141.096V61.2959L1050.45 66.4292Z" fill="#212149"/>
        <path d="M1020.23 102.129V142.962L1024.2 138.996V102.129H1020.23Z" fill="#212149"/>
        <path d="M962.717 134.212H1005.59L1003.2 139.112H960.033L962.717 134.212Z" fill="#212149"/>
        <path d="M954.433 149.612L957.175 144.129H989.083L954.433 149.612Z" fill="#212149"/>
        <path d="M546.275 123.887V282.087L536.533 271.295L546.275 123.887Z" fill="#212149"/>
        <path d="M611.608 249.945V152.179L614.35 153.579V249.945H611.608Z" fill="#212149"/>
        <path d="M603.558 87.3125H490.858C487.883 87.3125 485.492 84.9208 485.492 81.9458C485.492 78.9708 487.883 76.5791 490.858 76.5791H603.558C606.533 76.5791 608.925 78.9708 608.925 81.9458C608.925 84.9208 606.475 87.3125 603.558 87.3125Z" fill="#1C1C3F"/>
        <path d="M530.35 86.9033H513.083C516.758 102.303 530.642 113.795 547.208 113.795C542.017 113.795 532.392 97.4616 530.35 86.9033Z" fill="#212149"/>
        <path d="M528.25 47.4113L520.317 41.753C523.7 38.953 530 35.278 535.425 34.9863" fill="#2B2B60"/>
        <path d="M553.289 55.1244C562.44 49.8409 567.73 41.8712 565.105 37.3235C562.479 32.7759 552.932 33.3725 543.781 38.656C534.63 43.9395 529.34 51.9092 531.966 56.4569C534.591 61.0045 544.138 60.4079 553.289 55.1244Z" fill="#2B2B60"/>
        <g opacity="0.5">
            <path opacity="0.5" d="M518.45 55.2285C516.233 56.5118 513.9 60.0702 513.317 62.5202C515.767 63.2202 520.025 62.9869 522.242 61.7035C524.05 60.6535 524.633 58.3785 523.642 56.5702C522.533 54.8202 520.258 54.1785 518.45 55.2285Z" fill="url(#paint14_linear_1828_13856)"/>
        </g>
        <path d="M550.378 50.0355C559.53 44.752 564.819 36.7823 562.194 32.2347C559.568 27.687 550.021 28.2836 540.87 33.5671C531.719 38.8506 526.429 46.8204 529.055 51.368C531.68 55.9156 541.227 55.3191 550.378 50.0355Z" fill="#2B2B60"/>
        <path d="M539.508 54.1205C536.65 54.5872 535.367 54.4705 533.558 54.0621C531.75 53.6538 531.925 54.2955 530.933 55.5788C529.942 56.8622 527.025 66.4288 527.025 66.4288C527.025 66.4288 530.875 66.7788 535.25 64.2705C539.625 61.7621 550.008 54.5288 549.892 52.1955C549.775 49.8038 548.9 51.6705 546.158 52.4288C543.358 53.2455 539.508 54.1205 539.508 54.1205Z" fill="#2B2B60"/>
        <path d="M532.917 46.595C530.058 47.3533 527.667 48.2867 525.917 49.22C524.167 50.1533 523.467 50.5033 523.583 51.32C523.7 52.1366 525.742 57.0366 526.733 57.5616C527.725 58.145 529.3 57.3283 529.825 55.9866C530.35 54.645 530.35 53.945 532.1 51.9617C533.733 50.0367 536.767 46.42 532.917 46.595Z" fill="#2B2B60"/>
        <path d="M554.208 35.4536C557.242 40.7036 538.167 51.7869 535.075 46.4786C532.042 41.2286 533.85 34.4619 539.1 31.4286C544.408 28.3953 551.175 30.2036 554.208 35.4536Z" fill="#2B2B60"/>
        <path d="M571.767 30.3786C571.008 29.0369 569.317 28.6286 568.033 29.3869C566.983 29.9702 566.517 31.1369 566.692 32.2452L562.958 34.4035L563.892 36.0369L567.625 33.8786C568.5 34.5786 569.725 34.7536 570.775 34.1702C572.058 33.3536 572.525 31.6619 571.767 30.3786Z" fill="#1C1C3F"/>
        <path d="M565.583 37.2035L562.608 32.0118C560.567 28.5118 555.025 27.5785 548.2 29.5618C545.108 28.6285 541.725 28.9202 538.692 30.6118C537.175 31.4868 535.892 32.7118 534.958 34.0535C529.65 34.5202 523.7 37.9035 520.142 40.7035C519.85 40.9368 519.675 41.3452 519.675 41.7535C519.675 42.1618 519.908 42.5118 520.2 42.7452L526.558 47.2952C525.683 47.7035 524.692 48.1702 523.583 48.8118C521.658 49.9202 522.883 54.0035 524.342 56.5118C525.45 58.4368 526.733 59.7785 527.9 60.4785L526.383 65.4952C526.267 65.9618 526.383 66.4285 526.675 66.7785C526.967 67.0702 527.317 67.2452 527.725 67.2452C527.783 67.2452 527.9 67.2452 527.958 67.2452C531.225 66.6035 538.167 64.3868 543.942 60.0702C547.033 59.3118 550.358 58.0285 553.45 56.2202C563.192 50.5618 568.5 42.2202 565.583 37.2035ZM561.033 33.0035C562.083 34.8702 561.617 37.5535 559.575 40.5868C557.417 43.7952 553.858 46.9452 549.6 49.4535C543.242 53.1285 536.417 54.5868 532.392 53.1868L535.775 48.2868C536.475 48.6368 537.292 48.8118 538.283 48.8118C540.967 48.8118 544.408 47.5285 547.5 45.7202C552.633 42.7452 557.008 38.2535 555.083 34.9868C554.033 33.2368 552.633 31.7785 551 30.7868C555.842 29.8535 559.633 30.6118 561.033 33.0035ZM539.625 32.2452C541.2 31.3702 542.892 30.9035 544.642 30.9035C545.517 30.9035 546.392 31.0202 547.267 31.2535C549.892 31.9535 552.05 33.6452 553.392 35.9785C554.033 37.0868 552.983 38.6618 552.283 39.5368C552.575 38.7785 552.575 38.0785 552.225 37.4368C549.6 32.9452 543.883 31.3702 539.333 33.9952C536.3 35.7452 534.667 38.8952 534.608 42.1035C534.2 38.2535 536.067 34.2868 539.625 32.2452ZM521.892 41.6952C525.158 39.2452 529.708 36.7952 533.792 36.0952C533.5 36.7952 533.208 37.5535 533.033 38.3118C530.467 40.8202 528.6 43.4452 527.783 45.8952L521.892 41.6952ZM533.617 45.6035C533.5 45.6035 533.325 45.6618 533.208 45.6618C532.1 45.7785 530.992 45.8952 529.592 46.2452C530.175 44.6702 531.283 43.0368 532.683 41.3452C532.742 42.8035 533.092 44.2035 533.617 45.6035ZM526.208 56.0452C526.092 55.9285 526.033 55.7535 525.917 55.6368C524.4 53.0118 524.225 50.7952 524.458 50.5035C528.717 48.0535 531.108 47.7618 533.383 47.5285C533.617 47.5285 533.792 47.4702 534.025 47.4702L530.642 52.3702C530.292 52.8952 530 53.4785 529.825 54.0618L529.358 55.6368C528.95 55.8702 528.425 56.1618 528.075 56.3952C527.55 56.6285 526.85 56.6868 526.208 56.0452ZM528.425 65.2618L531.517 54.8785C532.742 55.3452 534.2 55.5785 535.833 55.5785C539.683 55.5785 544.408 54.2952 549.017 51.8452C544.175 60.0702 533.383 64.0952 528.425 65.2618ZM547.325 57.0368C548.083 56.2202 548.842 55.4035 549.483 54.4702L550.242 55.7535C549.25 56.2785 548.317 56.6868 547.325 57.0368ZM552.517 54.5868C552.167 54.8202 551.758 54.9952 551.408 55.2285L550.3 53.3618C550.767 52.6035 551.233 51.7868 551.583 50.9118L553.392 54.0618C553.1 54.2368 552.808 54.4118 552.517 54.5868ZM554.5 53.3035L552.458 49.7452C553.1 49.3368 553.742 48.8702 554.383 48.4035L556.425 51.9035C555.842 52.4285 555.2 52.8952 554.5 53.3035ZM557.475 51.1452L555.433 47.6452C556.075 47.1202 556.658 46.5952 557.242 46.0702L559.225 49.5702C558.7 50.0952 558.117 50.6202 557.475 51.1452ZM560.217 48.5785L558.233 45.1368C558.817 44.5535 559.342 43.9118 559.867 43.2702L561.85 46.6535C561.325 47.2952 560.8 47.9368 560.217 48.5785ZM562.667 45.4868L560.742 42.1618C560.858 41.9868 561.033 41.8118 561.15 41.6368C561.558 41.0535 561.85 40.4702 562.142 39.8868L563.95 43.0368C563.6 43.8535 563.192 44.6702 562.667 45.4868ZM564.417 41.2868L562.725 38.3702C562.958 37.8452 563.075 37.2618 563.192 36.7368L563.95 38.0785C564.475 39.0118 564.592 40.1202 564.417 41.2868Z" fill="#1C1C3F"/>
        <path d="M552.225 31.7197C555.783 31.4864 558.233 31.6031 559.633 33.3531C561.033 35.1031 559.225 44.0864 547.383 50.6198C547.383 50.6198 542.775 54.9364 536.592 54.4114C530.467 53.8864 530.933 54.8197 531.633 53.3614C532.333 51.9031 534.783 46.9447 534.783 46.9447L530.058 46.6531C530.058 46.6531 532.975 42.2197 533.15 41.8114C533.325 41.4031 532.683 47.0031 536.533 47.6447C540.383 48.2864 548.783 44.9614 552.05 40.6447C555.375 36.3864 554.967 35.7447 552.225 31.7197Z" fill="#1C1C3F"/>
        <path d="M557.242 52.312L554.617 47.1787L550.3 51.9037L545.283 58.787C545.225 58.787 553.45 57.1537 557.242 52.312Z" fill="#1C1C3F"/>
        <path d="M546.508 53.0703C546.508 53.0703 540.5 61.2953 528.425 64.4453L531.342 53.887C531.342 53.8287 535.833 56.2786 546.508 53.0703Z" fill="#1C1C3F"/>
        <path d="M524.4 53.7122C524.4 53.7122 529.067 50.9122 533.092 50.2705C533.092 50.2705 529.825 55.6955 529.533 56.5705C529.3 57.4455 526.442 58.2621 526.442 58.2621L524.4 53.7122Z" fill="#1C1C3F"/>
        <path d="M522.883 43.2699C522.883 43.2699 525.625 40.0032 532.975 38.3115C532.975 38.3115 532.8 39.2449 531.867 40.6449C530.933 42.0449 528.133 47.1199 528.133 47.1199L522.883 43.2699Z" fill="#1C1C3F"/>
    </g>
    <defs>
        <linearGradient id="paint0_linear_1828_13856" x1="560.51" y1="206.979" x2="560.51" y2="32.6593" gradientUnits="userSpaceOnUse">
            <stop stop-color="#88D1C3" stop-opacity="0.5"/>
            <stop offset="1" stop-color="#50508E" stop-opacity="0"/>
        </linearGradient>
        <linearGradient id="paint1_linear_1828_13856" x1="462.844" y1="-16.3526" x2="601.005" y2="177.043" gradientUnits="userSpaceOnUse">
            <stop stop-color="#7FFFE0" stop-opacity="0.5"/>
            <stop offset="0.1177" stop-color="#7DF9DD" stop-opacity="0.4412"/>
            <stop offset="0.2768" stop-color="#79E8D5" stop-opacity="0.3616"/>
            <stop offset="0.4597" stop-color="#71CBC8" stop-opacity="0.2702"/>
            <stop offset="0.6603" stop-color="#66A4B5" stop-opacity="0.1699"/>
            <stop offset="0.8728" stop-color="#59729E" stop-opacity="0.0636007"/>
            <stop offset="1" stop-color="#50508E" stop-opacity="0"/>
        </linearGradient>
        <linearGradient id="paint2_linear_1828_13856" x1="207.695" y1="307.546" x2="207.695" y2="-72.8162" gradientUnits="userSpaceOnUse">
            <stop stop-color="#7FFFE0" stop-opacity="0.5"/>
            <stop offset="0.1177" stop-color="#7DF9DD" stop-opacity="0.4412"/>
            <stop offset="0.2768" stop-color="#79E8D5" stop-opacity="0.3616"/>
            <stop offset="0.4597" stop-color="#71CBC8" stop-opacity="0.2702"/>
            <stop offset="0.6603" stop-color="#66A4B5" stop-opacity="0.1699"/>
            <stop offset="0.8728" stop-color="#59729E" stop-opacity="0.0636007"/>
            <stop offset="1" stop-color="#50508E" stop-opacity="0"/>
        </linearGradient>
        <linearGradient id="paint3_linear_1828_13856" x1="560.5" y1="578.665" x2="560.5" y2="-240.308" gradientUnits="userSpaceOnUse">
            <stop stop-color="#7FFFE0" stop-opacity="0.5"/>
            <stop offset="0.1177" stop-color="#7DF9DD" stop-opacity="0.4412"/>
            <stop offset="0.2768" stop-color="#79E8D5" stop-opacity="0.3616"/>
            <stop offset="0.4597" stop-color="#71CBC8" stop-opacity="0.2702"/>
            <stop offset="0.6603" stop-color="#66A4B5" stop-opacity="0.1699"/>
            <stop offset="0.8728" stop-color="#59729E" stop-opacity="0.0636007"/>
            <stop offset="1" stop-color="#50508E" stop-opacity="0"/>
        </linearGradient>
        <linearGradient id="paint4_linear_1828_13856" x1="789.153" y1="307.546" x2="789.153" y2="-72.8157" gradientUnits="userSpaceOnUse">
            <stop stop-color="#7FFFE0" stop-opacity="0.5"/>
            <stop offset="0.1177" stop-color="#7DF9DD" stop-opacity="0.4412"/>
            <stop offset="0.2768" stop-color="#79E8D5" stop-opacity="0.3616"/>
            <stop offset="0.4597" stop-color="#71CBC8" stop-opacity="0.2702"/>
            <stop offset="0.6603" stop-color="#66A4B5" stop-opacity="0.1699"/>
            <stop offset="0.8728" stop-color="#59729E" stop-opacity="0.0636007"/>
            <stop offset="1" stop-color="#50508E" stop-opacity="0"/>
        </linearGradient>
        <linearGradient id="paint5_linear_1828_13856" x1="414.245" y1="207.899" x2="560.162" y2="124.926" gradientUnits="userSpaceOnUse">
            <stop stop-color="#7FFFE0" stop-opacity="0.5"/>
            <stop offset="0.1177" stop-color="#7DF9DD" stop-opacity="0.4412"/>
            <stop offset="0.2768" stop-color="#79E8D5" stop-opacity="0.3616"/>
            <stop offset="0.4597" stop-color="#71CBC8" stop-opacity="0.2702"/>
            <stop offset="0.6603" stop-color="#66A4B5" stop-opacity="0.1699"/>
            <stop offset="0.8728" stop-color="#59729E" stop-opacity="0.0636007"/>
            <stop offset="1" stop-color="#50508E" stop-opacity="0"/>
        </linearGradient>
        <linearGradient id="paint6_linear_1828_13856" x1="467.6" y1="15.843" x2="502.643" y2="23.2455" gradientUnits="userSpaceOnUse">
            <stop stop-color="#50508E" stop-opacity="0.7"/>
            <stop offset="1" stop-color="#50508E" stop-opacity="0"/>
        </linearGradient>
        <linearGradient id="paint7_linear_1828_13856" x1="436.136" y1="53.3912" x2="444.975" y2="52.4329" gradientUnits="userSpaceOnUse">
            <stop stop-color="#50508E" stop-opacity="0.7"/>
            <stop offset="1" stop-color="#50508E" stop-opacity="0"/>
        </linearGradient>
        <linearGradient id="paint8_linear_1828_13856" x1="522.185" y1="21.4712" x2="529.614" y2="20.9801" gradientUnits="userSpaceOnUse">
            <stop stop-color="#50508E" stop-opacity="0.7"/>
            <stop offset="1" stop-color="#50508E" stop-opacity="0"/>
        </linearGradient>
        <linearGradient id="paint9_linear_1828_13856" x1="472.74" y1="70.6934" x2="491.421" y2="76.2988" gradientUnits="userSpaceOnUse">
            <stop stop-color="#50508E" stop-opacity="0.7"/>
            <stop offset="1" stop-color="#50508E" stop-opacity="0"/>
        </linearGradient>
        <linearGradient id="paint10_linear_1828_13856" x1="986.154" y1="-4.07838" x2="997.064" y2="10.1043" gradientUnits="userSpaceOnUse">
            <stop stop-color="#7FFFE0" stop-opacity="0.5"/>
            <stop offset="0.1177" stop-color="#7DF9DD" stop-opacity="0.4412"/>
            <stop offset="0.2768" stop-color="#79E8D5" stop-opacity="0.3616"/>
            <stop offset="0.4597" stop-color="#71CBC8" stop-opacity="0.2702"/>
            <stop offset="0.6603" stop-color="#66A4B5" stop-opacity="0.1699"/>
            <stop offset="0.8728" stop-color="#59729E" stop-opacity="0.0636007"/>
            <stop offset="1" stop-color="#50508E" stop-opacity="0"/>
        </linearGradient>
        <linearGradient id="paint11_linear_1828_13856" x1="560" y1="292.76" x2="560" y2="94.8913" gradientUnits="userSpaceOnUse">
            <stop stop-color="#7FFFE0" stop-opacity="0.2"/>
            <stop offset="0.1148" stop-color="#7DF9DE" stop-opacity="0.177"/>
            <stop offset="0.27" stop-color="#78E8D7" stop-opacity="0.146"/>
            <stop offset="0.4484" stop-color="#70CBCC" stop-opacity="0.1103"/>
            <stop offset="0.644" stop-color="#64A4BD" stop-opacity="0.0712009"/>
            <stop offset="0.8512" stop-color="#5572AA" stop-opacity="0.0297653"/>
            <stop offset="1" stop-color="#49499B" stop-opacity="0"/>
        </linearGradient>
        <linearGradient id="paint12_linear_1828_13856" x1="559.935" y1="277.502" x2="559.935" y2="142.451" gradientUnits="userSpaceOnUse">
            <stop stop-color="#7FFFE0" stop-opacity="0.2"/>
            <stop offset="0.1148" stop-color="#7DF9DE" stop-opacity="0.177"/>
            <stop offset="0.27" stop-color="#78E8D7" stop-opacity="0.146"/>
            <stop offset="0.4484" stop-color="#70CBCC" stop-opacity="0.1103"/>
            <stop offset="0.644" stop-color="#64A4BD" stop-opacity="0.0712009"/>
            <stop offset="0.8512" stop-color="#5572AA" stop-opacity="0.0297653"/>
            <stop offset="1" stop-color="#49499B" stop-opacity="0"/>
        </linearGradient>
        <linearGradient id="paint13_linear_1828_13856" x1="153.708" y1="50.9395" x2="250.578" y2="50.9395" gradientUnits="userSpaceOnUse">
            <stop stop-color="#50508E" stop-opacity="0"/>
            <stop offset="0.2624" stop-color="#5B7AA2" stop-opacity="0.1312"/>
            <stop offset="0.8509" stop-color="#78E3D3" stop-opacity="0.4255"/>
            <stop offset="1" stop-color="#7FFFE0" stop-opacity="0.5"/>
        </linearGradient>
        <linearGradient id="paint14_linear_1828_13856" x1="525.583" y1="55.6235" x2="501.52" y2="68.7484" gradientUnits="userSpaceOnUse">
            <stop stop-color="#7FFFE0" stop-opacity="0.5"/>
            <stop offset="0.1177" stop-color="#7DF9DD" stop-opacity="0.4412"/>
            <stop offset="0.2768" stop-color="#79E8D5" stop-opacity="0.3616"/>
            <stop offset="0.4597" stop-color="#71CBC8" stop-opacity="0.2702"/>
            <stop offset="0.6603" stop-color="#66A4B5" stop-opacity="0.1699"/>
            <stop offset="0.8728" stop-color="#59729E" stop-opacity="0.0636007"/>
            <stop offset="1" stop-color="#50508E" stop-opacity="0"/>
        </linearGradient>
        <clipPath id="clip0_1828_13856">
            <rect width="1071" height="161" rx="20" fill="white"/>
        </clipPath>
        <clipPath id="clip1_1828_13856">
            <rect width="1121" height="637.253" fill="white" transform="translate(0 -150)"/>
        </clipPath>
    </defs>
</svg>
