<svg viewBox="0 0 566 162" fill="none" xmlns="http://www.w3.org/2000/svg">
        <path d="M29.2399 153.3C20.0699 153.3 11.6699 156.51 7.6499 161.39H555.81C560.66 161.39 564.7 157.93 565.61 153.35C565.11 153.33 564.61 153.3 564.09 153.3H29.2399Z" fill="url(#paint0_linear_2673_26464)"/>
        <path d="M29.24 150.3C17.76 150.3 7.93 154.83 4 161.39H7.64996C11.67 156.51 20.07 153.3 29.24 153.3H564.09C564.6 153.3 565.1 153.32 565.61 153.35C565.73 152.72 565.8 152.07 565.8 151.4V150.35C565.23 150.33 564.67 150.31 564.09 150.31H29.24V150.3Z" fill="#38237C"/>
        <path d="M188.57 135.22H182.66V140.29H188.57V135.22Z" fill="#8D86EB"/>
        <path d="M210.21 135.22H208.93V140.29H214.84V135.21H210.31C210.31 135.21 210.24 135.22 210.2 135.22H210.21Z" fill="#EBF0FF"/>
        <path d="M205.93 135.22H200.25V140.29H205.93V135.22Z" fill="#A5A5F9"/>
        <path d="M197.25 135.22H191.57V140.29H197.25V135.22Z" fill="#A5A5F9"/>
        <path d="M217.84 135.21C217.84 133.55 216.5 132.21 214.84 132.21H213.21V126.94C213.21 126.41 213.06 125.92 212.82 125.49C213.12 125.02 213.3 124.47 213.3 123.87V118.59C213.3 118.03 213.14 117.52 212.88 117.07C213.14 116.62 213.3 116.11 213.3 115.56V110.28C213.3 108.62 211.96 107.28 210.3 107.28H178.12C176.46 107.28 175.12 108.62 175.12 110.28V115.56C175.12 116.12 175.28 116.63 175.54 117.07C175.28 117.52 175.12 118.03 175.12 118.59V123.87C175.12 124.4 175.27 124.89 175.51 125.32C175.21 125.79 175.03 126.34 175.03 126.94V132.22C175.03 133.88 176.37 135.22 178.03 135.22H179.66V140.49C179.66 141 179.8 141.47 180.02 141.89C179.8 142.31 179.66 142.78 179.66 143.29V148.57C179.66 150.23 181 151.57 182.66 151.57H214.84C216.5 151.57 217.84 150.23 217.84 148.57V143.29C217.84 142.78 217.7 142.31 217.48 141.89C217.7 141.47 217.84 141 217.84 140.49V135.21ZM187.03 118.59H192.71V123.87H187.03V118.59ZM201.39 123.87H195.71V118.59H201.39V123.87ZM204.39 118.59H210.3V123.87H204.39V118.59ZM184.03 123.87H178.12V118.59H184.03V123.87ZM201.3 126.94V132.22H195.62V126.94H201.3ZM186.94 126.94H192.62V132.22H186.94V126.94ZM197.25 135.22V140.29H191.57V135.22H197.25ZM200.25 135.22H205.93V140.29H200.25V135.22ZM201.39 115.56H195.71V110.28H201.39V115.56ZM192.71 115.56H187.03V110.28H192.71V115.56ZM184.03 115.56H178.12V110.28H184.03V115.56ZM191.57 143.29H197.25V148.57H191.57V143.29ZM200.25 143.29H205.93V148.57H200.25V143.29ZM214.84 140.29H208.93V135.22H210.21C210.21 135.22 210.28 135.22 210.32 135.21H214.85V140.29H214.84ZM210.21 132.22H204.3V126.94H210.21V132.22ZM210.3 115.56H204.39V110.28H210.3V115.56ZM178.03 126.94H183.94V132.22H178.03V126.94ZM182.66 135.22H188.57V140.29H182.66V135.22ZM182.66 143.29H188.57V148.57H182.66V143.29ZM214.84 148.57H208.93V143.29H214.84V148.57Z" fill="#38237C"/>
        <path d="M188.57 143.29H182.66V148.57H188.57V143.29Z" fill="#8D86EB"/>
        <path d="M214.84 143.29H208.93V148.57H214.84V143.29Z" fill="#EBF0FF"/>
        <path d="M205.93 143.29H200.25V148.57H205.93V143.29Z" fill="#A5A5F9"/>
        <path d="M197.25 143.29H191.57V148.57H197.25V143.29Z" fill="#A5A5F9"/>
        <path d="M183.94 126.94H178.03V132.22H183.94V126.94Z" fill="#8D86EB"/>
        <path d="M210.21 126.94H204.3V132.22H210.21V126.94Z" fill="#EBF0FF"/>
        <path d="M192.62 126.94H186.94V132.22H192.62V126.94Z" fill="#A5A5F9"/>
        <path d="M201.3 126.94H195.62V132.22H201.3V126.94Z" fill="#A5A5F9"/>
        <path d="M184.03 118.59H178.12V123.87H184.03V118.59Z" fill="#8D86EB"/>
        <path d="M210.3 118.59H204.39V123.87H210.3V118.59Z" fill="#EBF0FF"/>
        <path d="M192.71 118.59H187.03V123.87H192.71V118.59Z" fill="#A5A5F9"/>
        <path d="M201.39 118.59H195.71V123.87H201.39V118.59Z" fill="#A5A5F9"/>
        <path d="M184.03 110.28H178.12V115.56H184.03V110.28Z" fill="#8D86EB"/>
        <path d="M210.3 110.28H204.39V115.56H210.3V110.28Z" fill="#EBF0FF"/>
        <path d="M192.71 110.28H187.03V115.56H192.71V110.28Z" fill="#A5A5F9"/>
        <path d="M201.39 110.28H195.71V115.56H201.39V110.28Z" fill="#A5A5F9"/>
        <path d="M141.3 143.33H135.39V148.6H141.3V143.33Z" fill="#8D86EB"/>
        <path d="M162.94 143.33H161.66V148.6H167.57V143.32H163.04C163.04 143.32 162.97 143.33 162.94 143.33Z" fill="#EBF0FF"/>
        <path d="M149.98 143.33H144.3V148.6H149.98V143.33Z" fill="#A5A5F9"/>
        <path d="M158.66 143.33H152.98V148.6H158.66V143.33Z" fill="#A5A5F9"/>
        <path d="M136.67 135.05H130.76V140.33H136.67V135.05Z" fill="#8D86EB"/>
        <path d="M162.94 135.05H157.03V140.33H162.94V135.05Z" fill="#EBF0FF"/>
        <path d="M154.03 135.05H148.35V140.33H154.03V135.05Z" fill="#A5A5F9"/>
        <path d="M145.35 135.05H139.67V140.33H145.35V135.05Z" fill="#A5A5F9"/>
        <path d="M141.4 126.7H135.49V131.98H141.4V126.7Z" fill="#8D86EB"/>
        <path d="M167.67 126.7H161.76V131.98H167.67V126.7Z" fill="#EBF0FF"/>
        <path d="M158.76 126.7H153.08V131.98H158.76V126.7Z" fill="#A5A5F9"/>
        <path d="M150.08 126.7H144.4V131.98H150.08V126.7Z" fill="#A5A5F9"/>
        <path d="M141.4 118.39H135.49V123.67H141.4V118.39Z" fill="#8D86EB"/>
        <path d="M167.67 118.39H161.76V123.67H167.67V118.39Z" fill="#EBF0FF"/>
        <path d="M150.08 118.39H144.4V123.67H150.08V118.39Z" fill="#A5A5F9"/>
        <path d="M158.76 118.39H153.08V123.67H158.76V118.39Z" fill="#A5A5F9"/>
        <path d="M167.67 115.39H135.49C133.83 115.39 132.49 116.73 132.49 118.39V123.67C132.49 124.23 132.65 124.74 132.91 125.18C132.65 125.63 132.49 126.14 132.49 126.69V131.97C132.49 131.97 132.49 132.02 132.49 132.04H130.75C129.09 132.04 127.75 133.38 127.75 135.04V140.32C127.75 141.98 129.09 143.32 130.75 143.32H132.38V148.59C132.38 150.25 133.72 151.59 135.38 151.59H167.56C169.22 151.59 170.56 150.25 170.56 148.59V143.31C170.56 141.65 169.22 140.31 167.56 140.31H165.93V135.04C165.93 135.04 165.93 134.99 165.93 134.97H167.67C169.33 134.97 170.67 133.63 170.67 131.97V126.69C170.67 126.13 170.51 125.62 170.25 125.18C170.51 124.73 170.67 124.22 170.67 123.67V118.39C170.67 116.73 169.33 115.39 167.67 115.39V115.39ZM130.76 135.05H136.67V140.33H130.76V135.05ZM148.35 140.33V135.05H154.03V140.33H148.35ZM139.67 135.05H145.35V140.33H139.67V135.05ZM144.3 143.33H149.98V148.6H144.3V143.33ZM152.98 143.33H158.66V148.6H152.98V143.33ZM150.07 126.7V131.98H144.39V126.7H150.07ZM153.07 126.7H158.75V131.98H153.07V126.7ZM158.75 123.67H153.07V118.39H158.75V123.67ZM150.07 123.67H144.39V118.39H150.07V123.67ZM141.39 123.67H135.48V118.39H141.39V123.67ZM167.66 123.67H161.75V118.39H167.66V123.67ZM135.48 126.7H141.39V131.98H135.48V126.7ZM135.39 143.33H141.3V148.6H135.39V143.33ZM167.57 148.6H161.66V143.33H162.94C162.94 143.33 163.01 143.33 163.04 143.32H167.57V148.6ZM162.94 140.33H157.03V135.05H162.94V140.33ZM161.76 131.98V126.7H167.67V131.98H161.76Z" fill="#38237C"/>
        <path d="M69 102.25C69 102.25 69.01 102.15 69.02 102.1C66.46 102 61.88 102.31 56.12 104.8L62.77 109.84C64.09 107.38 66.24 104.74 69.01 102.25H69Z" fill="#77A4F2"/>
        <path d="M55.96 104.68L56.05 104.75C56.62 104.35 58.18 103.3 60.37 102.16C58.78 102.92 57.28 103.76 55.96 104.68V104.68Z" fill="#77A4F2"/>
        <path d="M43.88 120.28C39.92 121.99 35.36 127.83 33.96 132.13C38.05 134.06 45.44 134.73 49.39 133.02C52.63 131.62 54.02 127.63 52.5 124.11C50.98 120.59 47.13 118.88 43.88 120.27V120.28Z" fill="#FF8486"/>
        <path d="M69.0201 102.1C69.1101 101.07 69.31 100.04 69.6 99.04C66.4 99.71 63.2201 100.8 60.3701 102.16C58.1901 103.3 56.63 104.34 56.05 104.75L56.1201 104.8C61.8801 102.31 66.4601 102 69.0201 102.1Z" fill="white"/>
        <path d="M117.71 91.6499C116.02 92.3899 115.18 94.2299 115.63 95.9599L111.54 97.7499L111.44 97.6699C106.24 93.5199 100.77 91.9999 95.8 91.7799C94.35 90.4399 92.68 89.3699 90.84 88.6399C88.89 87.8699 86.8 87.4799 84.69 87.5199C82.59 87.5499 80.51 87.9999 78.58 88.8299L78.51 88.8599C75.09 90.3599 72.32 92.9999 70.65 96.3099C64.07 97.4099 57.54 100.13 53.07 103.7C52.92 103.82 52.8 103.97 52.72 104.14C52.64 104.31 52.6 104.5 52.6 104.69C52.6 104.88 52.65 105.07 52.74 105.23C52.83 105.4 52.95 105.55 53.1 105.66L59.28 110.35C57.23 110.33 55.3 110.43 54.57 110.75C52.69 111.57 50.48 115.16 54.08 123.4C56.72 129.44 59.66 131.47 61.77 131.8L60.08 137.17C60.02 137.36 60.01 137.56 60.04 137.75C60.07 137.94 60.15 138.13 60.27 138.29C60.39 138.45 60.54 138.58 60.71 138.67C60.89 138.76 61.08 138.81 61.28 138.8C64.1 138.8 69.12 137.56 74.58 135.16C76.48 134.33 78.34 133.4 80.15 132.38C83.58 130.44 87.55 127.72 91.01 124.16C91.66 123.91 92.3 123.66 92.94 123.38C94.83 122.56 96.65 121.58 98.38 120.47C103.8 116.99 110.35 110.72 111.7 100.39L117.06 98.0399C118.08 98.7399 119.42 98.9299 120.63 98.3999C122.49 97.5799 123.34 95.4099 122.53 93.5499C121.71 91.6899 119.54 90.8399 117.68 91.6499H117.71ZM54.69 115.79C54.69 113.98 55.3 113.17 55.6 113.04C56.09 112.88 58.94 112.73 62.18 112.95C62.29 113.46 62.45 114.13 62.68 114.95C62.84 115.49 63.03 116.09 63.26 116.73C63.51 117.44 63.81 118.2 64.16 119C64.48 119.7 64.83 120.39 65.2 121.07L64.45 123.46C63.11 125.95 60.48 128.08 59.3 127.29C58.41 126.23 57.42 124.68 56.42 122.4C55.94 121.31 55.6 120.34 55.33 119.47C54.87 117.94 54.7 116.73 54.7 115.79H54.69ZM79.6 91.1299C82.89 89.7099 86.61 89.6599 89.94 90.9799C93.27 92.2999 95.94 94.8899 97.37 98.1699C98.03 99.6799 96.6 101.86 93.82 104.02C94.85 102.68 95.27 101.33 94.74 100.1C93.38 97.0799 90.9 94.6999 87.84 93.4899C84.78 92.2799 81.37 92.3299 78.37 93.6299C75.46 94.8899 73.16 97.2199 71.91 100.14C72.05 99.6199 72.2 99.0999 72.4 98.5999C73.71 95.2799 76.28 92.5999 79.55 91.1699L79.61 91.1499L79.6 91.1299ZM109.35 99.3699C109.34 99.4999 109.31 99.6199 109.3 99.7499C108.16 109.33 102.09 115.16 97.06 118.38C96.29 118.88 95.5 119.33 94.7 119.76C96.16 117.66 97.39 115.36 98.27 112.81C98.35 112.57 98.36 112.32 98.29 112.08C98.23 111.84 98.09 111.62 97.9 111.46C97.71 111.3 97.48 111.19 97.23 111.17C96.98 111.14 96.73 111.19 96.51 111.3C81.92 118.86 70.22 119.63 67.29 119.71C67.04 119.24 66.8 118.76 66.58 118.28C66.54 118.19 66.49 118.1 66.44 118C65.94 116.88 65.52 115.72 65.17 114.55C64.91 113.69 64.69 112.81 64.52 111.92C65.41 109.91 67 107.72 69.09 105.58C69.24 106.72 69.51 107.84 69.91 108.94C70.02 109.26 70.13 109.57 70.26 109.89C72.28 114.56 80.56 113.46 87.88 110.3L88.05 110.23C95.3 107.06 101.66 101.82 99.65 97.1899C99.63 97.1399 99.6 97.0999 99.58 97.0499C99.19 96.1699 98.72 95.3199 98.18 94.5199C101.68 95.0199 105.37 96.3299 108.93 98.9099C109.07 99.0099 109.22 99.1099 109.36 99.2199C109.36 99.2699 109.35 99.3199 109.34 99.3699H109.35ZM56.06 104.76L55.97 104.69C57.29 103.78 58.79 102.94 60.38 102.17C63.23 100.81 66.41 99.7099 69.61 99.0499C69.32 100.05 69.12 101.08 69.03 102.11C69.03 102.16 69.02 102.21 69.01 102.26C66.25 104.75 64.09 107.39 62.77 109.85L56.12 104.81L56.05 104.76H56.06ZM67.46 122.21C70.11 122.15 77.94 121.6 88.4 117.65C90.39 116.9 92.47 116.04 94.64 115.02C88.5 127.19 72.55 134.3 64.38 135.94C63.92 136.03 63.48 136.11 63.07 136.17L67.47 122.21H67.46Z" fill="#38237C"/>
        <path d="M62.1699 112.95C58.9399 112.73 56.0899 112.88 55.5899 113.04C55.2899 113.17 54.6799 113.97 54.6799 115.79L62.6699 114.94C62.4299 114.13 62.2699 113.45 62.1699 112.94V112.95Z" fill="#77A4F2"/>
        <path d="M59.29 127.29C60.47 128.07 63.1001 125.95 64.4401 123.46L65.1901 121.07C64.8301 120.39 64.47 119.7 64.15 119C63.8 118.19 63.5001 117.43 63.2501 116.73L55.3201 119.47C55.5801 120.34 55.93 121.31 56.41 122.4C57.41 124.69 58.4 126.24 59.29 127.29V127.29Z" fill="#77A4F2"/>
        <path d="M62.6799 114.94L54.6899 115.79C54.6899 116.73 54.8599 117.94 55.3199 119.47L63.2499 116.73C63.0199 116.08 62.8299 115.49 62.6699 114.95L62.6799 114.94Z" fill="white"/>
        <path d="M109.11 99.66C106.67 98.58 103.55 97.37 99.58 97.04C99.6 97.09 99.6299 97.13 99.6499 97.18C101.66 101.81 95.2899 107.05 88.0499 110.22L87.8799 110.29C80.5599 113.45 72.2799 114.55 70.2599 109.88C70.1299 109.57 70.0199 109.25 69.9099 108.93C67.8599 110.86 66.4299 112.72 65.1699 114.54C65.5199 115.72 65.9399 116.87 66.4399 117.99C66.4799 118.08 66.53 118.17 66.58 118.27C88.72 116.11 105.45 103.97 109.12 99.66H109.11Z" fill="#86D4C9"/>
        <path d="M109.35 99.3599C109.35 99.3099 109.36 99.2599 109.37 99.2099C109.23 99.0999 109.08 99.0099 108.94 98.8999C109.09 99.0499 109.23 99.1999 109.36 99.3499L109.35 99.3599Z" fill="#86D4C9"/>
        <path d="M66.5701 118.27C66.8001 118.75 67.04 119.23 67.28 119.7C70.21 119.63 81.9201 118.85 96.5001 111.29C96.7201 111.18 96.97 111.13 97.22 111.16C97.47 111.19 97.7001 111.29 97.8901 111.45C98.0801 111.61 98.21 111.83 98.28 112.07C98.35 112.31 98.3401 112.57 98.2601 112.8C97.3901 115.34 96.1501 117.65 94.6901 119.75C95.4901 119.32 96.28 118.87 97.05 118.37C102.08 115.14 108.15 109.32 109.29 99.7402C109.23 99.7102 109.17 99.6902 109.11 99.6602C105.44 103.97 88.7101 116.11 66.5701 118.27V118.27Z" fill="#73BBBF"/>
        <path d="M69.91 108.94C69.52 107.85 69.24 106.72 69.09 105.58C66.99 107.72 65.41 109.91 64.52 111.92C64.69 112.81 64.92 113.68 65.17 114.55C66.43 112.73 67.86 110.87 69.91 108.94V108.94Z" fill="white"/>
        <path d="M98.1799 94.5103C98.7199 95.3103 99.19 96.1503 99.58 97.0403C103.55 97.3703 106.67 98.5803 109.11 99.6603C109.17 99.6903 109.23 99.7102 109.29 99.7402C109.31 99.6102 109.33 99.4903 109.34 99.3603C109.21 99.2103 109.07 99.0603 108.92 98.9103C105.36 96.3203 101.67 95.0202 98.1699 94.5202L98.1799 94.5103Z" fill="white"/>
        <path d="M63.86 135.96C83.67 127.67 88.36 117.66 88.36 117.66L88.3901 117.64C77.9301 121.59 70.1001 122.14 67.4501 122.2L63.05 136.16C63.46 136.1 63.9 136.02 64.36 135.93C64.19 135.94 64.02 135.96 63.86 135.96V135.96Z" fill="#77A4F2"/>
        <path d="M63.86 135.96C64.02 135.96 64.19 135.94 64.36 135.93C72.54 134.29 88.48 127.18 94.62 115.01C92.45 116.03 90.38 116.89 88.38 117.64L88.35 117.66C88.35 117.66 83.66 127.67 63.85 135.96H63.86Z" fill="white"/>
        <path d="M72.39 98.58C72.19 99.09 72.0299 99.6 71.8999 100.12C73.1499 97.2 75.4499 94.87 78.3599 93.61C81.3699 92.31 84.77 92.26 87.83 93.47C90.89 94.68 93.3699 97.06 94.7299 100.08C95.2599 101.3 94.8399 102.66 93.8099 104C96.5799 101.85 98.0199 99.67 97.3599 98.15C95.9299 94.86 93.2599 92.28 89.9299 90.96C86.5999 89.64 82.8799 89.7 79.5899 91.11L79.5299 91.13C76.2599 92.57 73.6899 95.24 72.3799 98.56L72.39 98.58Z" fill="#77A4F2"/>
        <path d="M537.64 80.5C536.32 79.59 534.82 78.75 533.23 77.98C535.41 79.12 536.97 80.16 537.55 80.57L537.64 80.5V80.5Z" fill="#77A4F2"/>
        <path d="M524.57 77.9202C524.57 77.9202 524.58 78.0202 524.59 78.0702C527.35 80.5602 529.51 83.2002 530.83 85.6602L537.48 80.6202C531.72 78.1302 527.14 77.8202 524.58 77.9202H524.57Z" fill="#77A4F2"/>
        <path d="M549.71 96.1003C546.46 94.7103 542.61 96.4203 541.09 99.9403C539.57 103.46 540.96 107.45 544.2 108.85C548.16 110.56 555.54 109.88 559.63 107.96C558.23 103.66 553.66 97.8203 549.71 96.1103V96.1003Z" fill="#FF8486"/>
        <path d="M537.48 80.6199L537.55 80.5699C536.98 80.1699 535.42 79.1199 533.23 77.9799C530.38 76.6199 527.2 75.5199 524 74.8599C524.29 75.8699 524.49 76.8899 524.58 77.9199C527.14 77.8199 531.72 78.1299 537.48 80.6199Z" fill="white"/>
        <path d="M538 88.8602C537.51 88.7002 534.66 88.5502 531.42 88.7702C531.31 89.2802 531.15 89.9502 530.92 90.7702L538.91 91.6202C538.91 89.8102 538.3 89.0002 538 88.8702V88.8602Z" fill="#77A4F2"/>
        <path d="M530.34 92.54C530.09 93.25 529.79 94.01 529.44 94.81C529.12 95.51 528.77 96.2 528.4 96.88L529.15 99.27C530.49 101.76 533.12 103.89 534.3 103.1C535.19 102.04 536.18 100.49 537.18 98.21C537.66 97.12 538 96.15 538.27 95.28L530.34 92.54V92.54Z" fill="#77A4F2"/>
        <path d="M538.91 91.6103L530.92 90.7603C530.76 91.3003 530.57 91.9003 530.34 92.5403L538.27 95.2803C538.73 93.7503 538.9 92.5403 538.9 91.6003L538.91 91.6103Z" fill="white"/>
        <path d="M539 86.5803C538.27 86.2603 536.34 86.1603 534.29 86.1803L540.47 81.4903C540.62 81.3703 540.74 81.2303 540.83 81.0603C540.92 80.8903 540.96 80.7003 540.97 80.5203C540.97 80.3303 540.93 80.1403 540.85 79.9703C540.77 79.8003 540.65 79.6503 540.5 79.5303C536.04 75.9703 529.51 73.2403 522.92 72.1403C521.25 68.8303 518.48 66.1903 515.06 64.6903L514.99 64.6603C513.06 63.8303 510.98 63.3803 508.88 63.3503C506.78 63.3203 504.69 63.7003 502.73 64.4703C500.9 65.2003 499.22 66.2703 497.77 67.6103C492.81 67.8303 487.33 69.3503 482.13 73.5003L482.03 73.5803L477.94 71.7903C478.39 70.0603 477.55 68.2203 475.86 67.4803C474 66.6603 471.82 67.5103 471.01 69.3803C470.19 71.2403 471.04 73.4203 472.91 74.2303C474.12 74.7603 475.46 74.5803 476.48 73.8703L481.84 76.2203C483.19 86.5503 489.74 92.8203 495.16 96.3003C496.9 97.4103 498.72 98.3803 500.6 99.2103C501.24 99.4903 501.88 99.7503 502.53 99.9903C505.99 103.54 509.96 106.26 513.39 108.21C515.2 109.23 517.06 110.16 518.96 110.99C524.42 113.38 529.44 114.62 532.26 114.63C532.46 114.63 532.65 114.58 532.83 114.5C533.01 114.41 533.16 114.28 533.27 114.12C533.39 113.96 533.46 113.78 533.5 113.58C533.53 113.39 533.52 113.19 533.46 113L531.77 107.63C533.89 107.3 536.82 105.27 539.46 99.2303C543.06 90.9903 540.85 87.4003 538.97 86.5803H539ZM514 66.9403L514.05 66.9603C517.32 68.4003 519.89 71.0703 521.2 74.3903C521.4 74.9003 521.56 75.4103 521.69 75.9303C520.44 73.0103 518.14 70.6803 515.23 69.4203C512.22 68.1203 508.82 68.0703 505.76 69.2803C502.7 70.4903 500.22 72.8703 498.86 75.8903C498.33 77.1103 498.75 78.4703 499.78 79.8103C497.01 77.6603 495.57 75.4803 496.23 73.9603C497.66 70.6703 500.33 68.0903 503.66 66.7703C506.99 65.4503 510.71 65.5103 514 66.9203V66.9403ZM484.25 75.1803C484.25 75.1303 484.24 75.0803 484.23 75.0303C484.37 74.9203 484.52 74.8303 484.67 74.7203C488.23 72.1303 491.92 70.8303 495.42 70.3303C494.88 71.1303 494.41 71.9703 494.02 72.8603C494 72.9103 493.97 72.9503 493.95 73.0003C491.94 77.6303 498.31 82.8703 505.55 86.0403L505.72 86.1103C513.04 89.2703 521.32 90.3703 523.34 85.7003C523.47 85.3903 523.58 85.0703 523.69 84.7503C524.08 83.6603 524.36 82.5303 524.51 81.3903C526.61 83.5303 528.19 85.7203 529.08 87.7303C528.91 88.6203 528.68 89.4903 528.43 90.3603C528.08 91.5403 527.66 92.6903 527.16 93.8103C527.12 93.9003 527.07 93.9903 527.02 94.0903C526.79 94.5703 526.55 95.0503 526.31 95.5203C523.38 95.4503 511.67 94.6703 497.09 87.1103C496.87 87.0003 496.62 86.9503 496.37 86.9803C496.12 87.0103 495.89 87.1103 495.7 87.2703C495.51 87.4303 495.38 87.6503 495.31 87.8903C495.24 88.1303 495.25 88.3903 495.33 88.6203C496.2 91.1603 497.44 93.4703 498.9 95.5703C498.1 95.1403 497.31 94.6903 496.54 94.1903C491.51 90.9603 485.44 85.1403 484.3 75.5603C484.28 75.4303 484.26 75.3103 484.25 75.1803V75.1803ZM524.59 78.0703C524.59 78.0703 524.58 77.9703 524.57 77.9203C524.48 76.8903 524.28 75.8603 523.99 74.8603C527.19 75.5303 530.37 76.6203 533.22 77.9803C534.81 78.7403 536.31 79.5803 537.63 80.5003L537.54 80.5703L537.47 80.6203L530.82 85.6603C529.5 83.2003 527.35 80.5603 524.58 78.0703H524.59ZM529.23 111.75C521.05 110.11 505.11 103 498.97 90.8303C501.14 91.8503 503.21 92.7103 505.21 93.4603C515.67 97.4103 523.5 97.9603 526.15 98.0203L530.55 111.98C530.14 111.92 529.7 111.84 529.24 111.75H529.23ZM534.3 103.1C533.12 103.88 530.49 101.76 529.15 99.2703L528.4 96.8803C528.76 96.2003 529.12 95.5103 529.44 94.8103C529.79 94.0003 530.09 93.2403 530.34 92.5403C530.57 91.8903 530.76 91.3003 530.92 90.7603C531.16 89.9503 531.32 89.2703 531.42 88.7603C534.65 88.5403 537.5 88.6903 538 88.8503C538.3 88.9803 538.91 89.7803 538.91 91.6003C538.91 92.5403 538.74 93.7503 538.28 95.2803C538.02 96.1503 537.67 97.1203 537.19 98.2103C536.19 100.5 535.2 102.05 534.31 103.1H534.3Z" fill="#38237C"/>
        <path d="M484.23 75.03C484.23 75.08 484.24 75.13 484.25 75.18C484.38 75.03 484.52 74.88 484.67 74.73C484.53 74.83 484.38 74.93 484.23 75.04V75.03Z" fill="#86D4C9"/>
        <path d="M527.02 94.0899C527.06 93.9999 527.11 93.9099 527.16 93.8099C527.66 92.6899 528.08 91.5299 528.43 90.3599C527.17 88.5399 525.74 86.6799 523.69 84.7499C523.58 85.0699 523.47 85.3799 523.34 85.6999C521.32 90.3699 513.04 89.2699 505.72 86.1099L505.55 86.0399C498.3 82.8699 491.94 77.6299 493.95 72.9999C493.97 72.9499 494 72.9099 494.02 72.8599C490.05 73.1899 486.93 74.3999 484.49 75.4799C488.16 79.7899 504.89 91.9299 527.03 94.0899H527.02Z" fill="#86D4C9"/>
        <path d="M496.54 94.2002C497.31 94.7002 498.1 95.1502 498.9 95.5802C497.44 93.4802 496.21 91.1802 495.33 88.6302C495.25 88.3902 495.24 88.1402 495.31 87.9002C495.38 87.6602 495.51 87.4402 495.7 87.2802C495.89 87.1202 496.12 87.0102 496.37 86.9902C496.62 86.9602 496.87 87.0102 497.09 87.1202C511.68 94.6802 523.38 95.4502 526.31 95.5302C526.56 95.0602 526.8 94.5802 527.02 94.1002C504.88 91.9402 488.15 79.8002 484.48 75.4902C484.42 75.5202 484.36 75.5402 484.3 75.5702C485.44 85.1502 491.51 90.9802 496.54 94.2002V94.2002Z" fill="#73BBBF"/>
        <path d="M528.42 90.3601C528.68 89.5001 528.9 88.6201 529.07 87.7301C528.18 85.7201 526.59 83.5301 524.5 81.3901C524.35 82.5301 524.08 83.6501 523.68 84.7501C525.73 86.6801 527.16 88.5401 528.42 90.3601V90.3601Z" fill="white"/>
        <path d="M494.01 72.8601C494.4 71.9801 494.87 71.1301 495.41 70.3301C491.91 70.8301 488.22 72.1401 484.66 74.7201C484.51 74.8701 484.37 75.0201 484.24 75.1701C484.25 75.3001 484.28 75.4201 484.29 75.5501C484.35 75.5201 484.41 75.5001 484.47 75.4701C486.91 74.3901 490.03 73.1801 494 72.8501L494.01 72.8601Z" fill="white"/>
        <path d="M526.14 98.02C523.49 97.96 515.66 97.41 505.2 93.46L505.23 93.48C505.23 93.48 509.92 103.49 529.73 111.78C529.57 111.78 529.4 111.76 529.23 111.75C529.69 111.84 530.13 111.92 530.54 111.98L526.14 98.02V98.02Z" fill="#77A4F2"/>
        <path d="M505.24 93.4898L505.21 93.4698C503.22 92.7198 501.14 91.8598 498.97 90.8398C505.11 103.01 521.06 110.12 529.23 111.76C529.4 111.77 529.57 111.79 529.73 111.79C509.92 103.5 505.23 93.4898 505.23 93.4898H505.24Z" fill="white"/>
        <path d="M496.24 73.9803C495.58 75.4903 497.01 77.6703 499.79 79.8303C498.76 78.4903 498.34 77.1403 498.87 75.9103C500.23 72.8903 502.71 70.5103 505.77 69.3003C508.83 68.0903 512.24 68.1403 515.24 69.4403C518.15 70.7003 520.45 73.0303 521.7 75.9503C521.56 75.4303 521.41 74.9103 521.21 74.4103C519.9 71.0903 517.33 68.4103 514.06 66.9803L514.01 66.9603C510.72 65.5403 507 65.4903 503.67 66.8103C500.34 68.1303 497.67 70.7203 496.24 74.0003V73.9803Z" fill="#77A4F2"/>
        <path d="M27.7001 68.4001C26.5901 68.3001 25.2701 68.2801 23.8301 68.4301L25.5701 69.8301C26.2001 69.3401 26.9101 68.8601 27.7001 68.4001Z" fill="#77A4F2"/>
        <path d="M9.42999 74.2499C6.26999 74.6799 1.85 77.9299 0 80.7199C2.53 82.9099 7.66001 84.8599 10.82 84.4299C13.41 84.0799 15.19 81.5099 14.81 78.6999C14.43 75.8899 12.02 73.8999 9.42999 74.2499V74.2499Z" fill="#FF8486"/>
        <path d="M27.7 68.4001C28.28 68.0501 28.91 67.7201 29.56 67.3901C27.52 67.6101 25.53 67.9401 23.75 68.3801L23.82 68.4401C25.26 68.2901 26.58 68.3101 27.69 68.4101L27.7 68.4001Z" fill="white"/>
        <path d="M23.61 72.8201C21.45 72.0701 19.57 71.6301 19.23 71.6801C19.08 71.7001 18.59 72.1101 18.28 73.2501L23.5701 74.1401C23.5701 73.6301 23.58 73.1801 23.61 72.8201V72.8201Z" fill="#77A4F2"/>
        <path d="M19.19 82.0998C19.19 82.0998 19.22 82.1498 19.25 82.1698L23.67 75.7698C23.67 75.7098 23.66 75.6498 23.65 75.5898L18 75.9298C18.01 76.5898 18.07 77.3498 18.19 78.2098C18.44 79.9598 18.81 81.1998 19.2 82.0998H19.19Z" fill="#77A4F2"/>
        <path d="M23.57 74.1302L18.2799 73.2402C18.0999 73.8802 17.98 74.7602 18 75.9302L23.6499 75.5902C23.5999 75.0602 23.58 74.5702 23.58 74.1402L23.57 74.1302Z" fill="white"/>
        <path d="M52.95 68.67C53.19 70.04 51.48 70.86 48.64 71.74C46.44 72.4 44.1899 72.95 41.9299 73.35C39.6299 73.75 37.2899 74.01 34.9599 74.13C34.4899 74.15 34.05 74.16 33.64 74.16C31.51 74.16 30.1799 73.84 29.9799 72.72C29.8799 72.18 29.8299 71.64 29.7999 71.09C28.2499 71.74 27.0099 72.46 25.8999 73.27C25.8699 73.94 25.88 74.6 25.94 75.26C28.57 75.61 36.6699 76.29 47.7899 73.49C48.0099 73.43 48.2399 73.44 48.4599 73.49C48.6799 73.55 48.87 73.67 49.01 73.84C49.15 74.01 49.2299 74.22 49.2299 74.43C49.2299 74.64 49.1699 74.85 49.0299 75.04C48.7999 75.36 48.5499 75.67 48.2999 75.98C53.7499 74.37 57.8499 72.51 59.7099 71.51C59.7299 71.46 59.7599 71.42 59.7899 71.37C58.1499 70.18 55.9899 68.93 52.8599 68.25C52.8899 68.39 52.92 68.52 52.95 68.65V68.67Z" fill="#86D4C9"/>
        <path d="M40.6799 81.9703C42.8399 81.8103 45.0599 81.4503 47.2599 80.8303C51.4099 79.6603 56.8899 77.1003 59.7199 71.5303C57.8599 72.5303 53.7499 74.3903 48.3099 76.0003C46.2099 78.5303 43.4899 80.4803 40.6799 81.9803V81.9703Z" fill="#73BBBF"/>
        <path d="M52.45 66.7402C52.62 67.2302 52.7599 67.7402 52.8599 68.2602C55.9899 68.9402 58.1599 70.1802 59.7899 71.3802C59.7899 71.3602 59.8099 71.3502 59.8099 71.3402C57.6599 68.9702 55.0599 67.5602 52.4399 66.7502L52.45 66.7402Z" fill="white"/>
        <path d="M29.8499 69.5898C28.2499 70.4498 26.9199 71.3798 25.9999 72.3098C25.9599 72.6298 25.9399 72.9598 25.9199 73.2798C27.0299 72.4698 28.2599 71.7498 29.8199 71.0998C29.7999 70.5998 29.8099 70.0998 29.8499 69.5898V69.5898Z" fill="white"/>
        <path d="M38.09 84.11C39.86 84.11 41.65 83.99 43.4 83.74C44.91 83.53 46.42 83.21 47.9 82.79C52.61 81.46 58.79 78.52 61.95 72.11L65.67 71.59C66.22 72.19 67 72.57 67.86 72.57C68 72.57 68.14 72.57 68.28 72.54C69.9 72.31 71.04 70.8 70.81 69.18C70.58 67.56 69.07 66.42 67.45 66.65C66.66 66.76 65.97 67.17 65.49 67.81C65.15 68.26 64.96 68.79 64.91 69.34L61.49 69.82C58.49 66.61 54.76 64.99 51.2 64.24C50.41 63.06 49.42 62.05 48.24 61.23C46.98 60.36 45.57 59.75 44.06 59.42C42.55 59.09 41.01 59.06 39.48 59.34C37.95 59.61 36.51 60.17 35.2 60.99C33.89 61.82 32.78 62.87 31.89 64.12C31.54 64.62 31.24 65.14 30.98 65.67C27.54 65.94 24.16 66.52 21.39 67.37C21.23 67.42 21.09 67.49 20.97 67.57C20.84 67.66 20.74 67.77 20.68 67.89C20.61 68.03 20.59 68.17 20.63 68.31C20.66 68.45 20.74 68.57 20.86 68.66L22.58 70.05C21.11 69.62 19.59 69.27 18.92 69.35C18.44 69.42 17.22 69.77 16.39 71.56C15.61 73.23 15.43 75.58 15.85 78.55C16.23 81.26 16.94 83.11 17.75 84.35L17.01 85.43C16.91 85.57 16.85 85.74 16.83 85.91C16.81 86.08 16.84 86.25 16.92 86.41C16.99 86.56 17.11 86.7 17.25 86.8C17.39 86.9 17.55 86.97 17.73 87C18.42 87.12 19.26 87.17 20.22 87.17C22.39 87.17 25.14 86.88 27.97 86.34C29.49 86.05 31 85.69 32.47 85.27C33.6 84.95 34.82 84.55 36.07 84.08C36.74 84.12 37.42 84.14 38.11 84.14L38.09 84.11ZM18.27 73.24C18.59 72.11 19.07 71.69 19.22 71.67C19.56 71.63 21.44 72.06 23.6 72.81C23.57 73.17 23.56 73.61 23.56 74.13C23.56 74.57 23.58 75.05 23.63 75.58C23.63 75.64 23.64 75.7 23.65 75.76L19.23 82.16C19.23 82.16 19.19 82.11 19.17 82.09C18.78 81.19 18.41 79.95 18.16 78.2C18.04 77.33 17.98 76.58 17.97 75.92C17.95 74.75 18.07 73.87 18.25 73.23L18.27 73.24ZM23.76 68.38C25.54 67.94 27.53 67.61 29.57 67.39C28.91 67.72 28.29 68.05 27.71 68.4C26.93 68.87 26.21 69.34 25.58 69.83L23.84 68.43L23.77 68.37L23.76 68.38ZM50.82 68.68C50.45 68.93 49.63 69.26 48.53 69.62C48.54 69.56 48.54 69.5 48.53 69.44C48.13 67.19 46.81 65.23 44.81 63.95C42.81 62.67 40.38 62.19 37.96 62.62C37.21 62.75 36.49 62.98 35.82 63.26C37 62.4 38.38 61.81 39.86 61.55C42.33 61.12 44.83 61.63 46.89 63C48.91 64.34 50.3 66.35 50.81 68.68H50.82ZM59.8 71.38C59.8 71.38 59.75 71.48 59.72 71.52C56.89 77.09 51.4 79.66 47.26 80.82C45.06 81.44 42.84 81.8 40.68 81.96C43.49 80.46 46.21 78.51 48.31 75.98C48.56 75.67 48.81 75.36 49.04 75.04C49.17 74.86 49.24 74.65 49.24 74.43C49.24 74.21 49.1601 74.01 49.0201 73.84C48.8801 73.68 48.69 73.56 48.47 73.49C48.26 73.43 48.03 73.43 47.8 73.49C36.68 76.29 28.58 75.61 25.95 75.26C25.89 74.6 25.88 73.93 25.91 73.27C25.93 72.95 25.95 72.62 25.99 72.3C26.91 71.38 28.24 70.45 29.84 69.58C29.79 70.08 29.78 70.58 29.81 71.09C29.83 71.63 29.88 72.18 29.99 72.72C30.19 73.84 31.52 74.16 33.65 74.16C34.06 74.16 34.5 74.15 34.97 74.13C37.3 74.01 39.65 73.75 41.94 73.35C44.19 72.94 46.45 72.4 48.65 71.74C51.49 70.86 53.2 70.04 52.96 68.67C52.94 68.53 52.9 68.4 52.87 68.27C52.77 67.75 52.63 67.24 52.46 66.75C55.08 67.57 57.69 68.97 59.83 71.34C59.83 71.36 59.81 71.37 59.81 71.38H59.8ZM19.95 85.05L25.28 77.32C27.14 77.59 32.43 78.13 39.96 77.13C41.57 76.92 43.27 76.64 45.07 76.27C38.25 82.79 25.74 85.18 19.94 85.05H19.95Z" fill="#38237C"/>
        <path d="M39.97 77.1299C32.43 78.1299 27.14 77.5899 25.29 77.3199L19.96 85.0499C32.33 83.1499 38.14 78.7999 39.98 77.1299H39.97Z" fill="#77A4F2"/>
        <path d="M45.08 76.27C43.28 76.64 41.5799 76.92 39.9699 77.13C38.1399 78.8 32.32 83.15 19.95 85.05C25.74 85.18 38.26 82.79 45.08 76.27Z" fill="white"/>
        <path d="M46.9 62.9999C44.84 61.6299 42.3401 61.1199 39.8701 61.5499C38.3801 61.8099 37.0101 62.3999 35.8301 63.2599C36.5001 62.9699 37.21 62.7499 37.97 62.6199C40.39 62.1899 42.8301 62.6599 44.8201 63.9499C46.8201 65.2399 48.14 67.1899 48.54 69.4399C48.55 69.4999 48.55 69.5599 48.54 69.6199C49.64 69.2599 50.4501 68.9299 50.8301 68.6799C50.3101 66.3499 48.93 64.3399 46.91 62.9999H46.9Z" fill="#77A4F2"/>
        <path d="M502.37 26.8902L503.79 25.1602C502.35 25.3102 501.07 25.6002 500 25.9302C500.86 26.2202 501.66 26.5502 502.38 26.8902H502.37Z" fill="#77A4F2"/>
        <path d="M519.82 38.1303C523 37.9003 527.61 34.9403 529.64 32.2703C527.25 29.9303 522.26 27.6503 519.08 27.8803C516.47 28.0703 514.53 30.5103 514.74 33.3403C514.94 36.1703 517.22 38.3103 519.82 38.1203V38.1303Z" fill="#FF8486"/>
        <path d="M499.99 25.9302C501.06 25.6002 502.34 25.3102 503.78 25.1602L503.84 25.0902C502.01 25.0302 499.99 25.1102 497.95 25.3202C498.66 25.5002 499.35 25.7102 499.99 25.9302V25.9302Z" fill="white"/>
        <path d="M505.45 32.1203C505.45 32.1803 505.46 32.2403 505.47 32.3003L511.11 37.6603C511.11 37.6603 511.14 37.6003 511.15 37.5703C511.35 36.6103 511.45 35.3203 511.33 33.5703C511.27 32.7003 511.17 31.9503 511.04 31.3003L505.44 32.1303L505.45 32.1203Z" fill="#77A4F2"/>
        <path d="M508.93 27.3799C508.62 27.4299 506.87 28.2199 504.9 29.3999C505 29.7499 505.11 30.1699 505.21 30.6799L510.2 28.7199C509.65 27.6899 509.09 27.3799 508.93 27.3799Z" fill="#77A4F2"/>
        <path d="M510.21 28.7202L505.22 30.6802C505.31 31.1102 505.39 31.5902 505.45 32.1202L511.05 31.2902C510.83 30.1402 510.52 29.3102 510.21 28.7202Z" fill="white"/>
        <path d="M481.39 37.6002C481.08 37.3502 480.77 37.1002 480.48 36.8302C480.31 36.6802 480.2 36.4902 480.16 36.2802C480.12 36.0702 480.16 35.8502 480.26 35.6502C480.36 35.4602 480.52 35.3002 480.72 35.2002C480.92 35.1002 481.14 35.0602 481.37 35.0502C492.85 35.5002 500.62 33.1602 503.12 32.2802C503.04 31.6202 502.92 30.9702 502.75 30.3202C501.5 29.7602 500.14 29.3102 498.49 28.9902C498.58 29.5302 498.64 30.0702 498.65 30.6202C498.69 31.9702 496.93 32.5402 494.07 33.0202C491.77 33.3802 489.42 33.6102 487.08 33.6902C486.51 33.7102 485.93 33.7102 485.35 33.7102C483.63 33.7102 481.9 33.6402 480.19 33.4902C477.23 33.2102 475.39 32.7602 475.34 31.3702C475.34 31.2302 475.34 31.1002 475.34 30.9602C472.41 32.2702 470.55 33.9302 469.2 35.4402C469.23 35.4802 469.27 35.5202 469.31 35.5602C471.34 36.1502 475.74 37.1302 481.4 37.5802L481.39 37.6002Z" fill="#86D4C9"/>
        <path d="M483.41 42.1201C485.69 42.2701 487.94 42.1701 490.08 41.8801C487.02 40.9901 483.96 39.6401 481.39 37.6001C475.73 37.1401 471.33 36.1701 469.3 35.5801C473.22 40.4501 479.11 41.8301 483.41 42.1201V42.1201Z" fill="#73BBBF"/>
        <path d="M475.33 30.9799C475.33 30.4499 475.35 29.9199 475.42 29.3999C473.02 30.7399 470.76 32.6599 469.15 35.4299C469.16 35.4399 469.17 35.4599 469.18 35.4699C470.54 33.9599 472.4 32.2999 475.32 30.9899L475.33 30.9799Z" fill="white"/>
        <path d="M502.46 29.3903C501.37 28.6803 499.88 28.0403 498.13 27.5303C498.28 28.0103 498.39 28.5003 498.47 29.0003C500.12 29.3203 501.48 29.7703 502.73 30.3303C502.65 30.0203 502.55 29.7103 502.45 29.4003L502.46 29.3903Z" fill="white"/>
        <path d="M483.19 44.1701C483.95 44.2201 484.72 44.2501 485.48 44.2501C486.24 44.2501 487.02 44.2201 487.78 44.1701C490.23 44.0101 492.71 43.5801 495.03 42.9601C496.35 43.1601 497.63 43.3001 498.8 43.3901C500.03 43.4801 501.28 43.5201 502.53 43.5201C502.83 43.5201 503.13 43.5201 503.43 43.5201C507.58 43.4501 511.47 42.8901 513.58 42.0601C513.75 42.0001 513.89 41.8901 514.01 41.7701C514.13 41.6401 514.21 41.4901 514.25 41.3201C514.29 41.1501 514.28 40.9801 514.23 40.8201C514.18 40.6601 514.08 40.5101 513.96 40.3901L513.01 39.4801C513.55 38.1001 513.86 36.1501 513.67 33.4201C513.47 30.4301 512.8 28.1601 511.7 26.6901C510.51 25.1101 509.26 25.0201 508.76 25.0501C508.08 25.1001 506.67 25.7601 505.33 26.4801L506.73 24.7701C506.83 24.6501 506.88 24.5101 506.88 24.3701C506.88 24.2301 506.84 24.0901 506.74 23.9701C506.66 23.8701 506.54 23.7801 506.39 23.7201C506.26 23.6601 506.1 23.6201 505.94 23.6101C503.05 23.3501 499.63 23.4701 496.21 23.9201C495.84 23.4501 495.45 23.0001 495 22.5901C493.87 21.5501 492.57 20.7501 491.12 20.2101C489.67 19.6701 488.15 19.4301 486.6 19.4801C485.05 19.5301 483.55 19.8801 482.13 20.5101C480.72 21.1401 479.47 22.0301 478.41 23.1401C477.42 24.1801 476.67 25.3801 476.13 26.6901C472.8 28.1501 469.48 30.5101 467.21 34.2701L463.76 34.5001C463.37 33.2101 462.13 32.3101 460.72 32.4001C459.08 32.5101 457.84 33.9301 457.95 35.5701C458 36.3601 458.36 37.0901 458.96 37.6101C459.51 38.0901 460.19 38.3401 460.91 38.3401C460.98 38.3401 461.05 38.3401 461.12 38.3401C462.14 38.2701 463 37.7001 463.48 36.8801L467.21 36.6301C471.62 42.2501 478.27 43.8601 483.16 44.1901L483.19 44.1701ZM469.16 35.4201C470.77 32.6601 473.03 30.7301 475.43 29.3901C475.36 29.9101 475.33 30.4401 475.34 30.9701C475.34 31.1101 475.34 31.2401 475.34 31.3801C475.39 32.7701 477.23 33.2201 480.19 33.5001C481.9 33.6501 483.63 33.7201 485.35 33.7201C485.93 33.7201 486.5 33.7201 487.08 33.7001C489.42 33.6201 491.77 33.3901 494.07 33.0301C496.93 32.5501 498.69 31.9901 498.65 30.6301C498.64 30.0801 498.58 29.5401 498.49 29.0001C498.41 28.5001 498.3 28.0101 498.15 27.5301C499.9 28.0401 501.39 28.6801 502.48 29.3901C502.58 29.7001 502.68 30.0101 502.76 30.3201C502.93 30.9701 503.05 31.6201 503.13 32.2801C500.64 33.1601 492.86 35.5001 481.38 35.0501C481.15 35.0501 480.93 35.0901 480.73 35.2001C480.53 35.3101 480.37 35.4601 480.27 35.6501C480.17 35.8501 480.13 36.0601 480.17 36.2801C480.21 36.4901 480.32 36.6801 480.49 36.8301C480.79 37.1001 481.09 37.3501 481.4 37.6001C483.98 39.6401 487.03 40.9901 490.09 41.8801C487.95 42.1701 485.7 42.2701 483.42 42.1201C479.12 41.8301 473.23 40.4501 469.31 35.5801C469.28 35.5401 469.24 35.5001 469.2 35.4601C469.19 35.4501 469.18 35.4301 469.17 35.4201H469.16ZM503.84 25.1001L503.78 25.1701L502.36 26.9001C501.64 26.5501 500.85 26.2301 499.98 25.9401C499.33 25.7201 498.65 25.5201 497.94 25.3301C499.98 25.1201 502.01 25.0401 503.83 25.1001H503.84ZM511 40.6301C505.33 41.9401 492.61 42.1801 484.6 37.2101C486.44 37.2101 488.16 37.1201 489.78 37.0001C497.36 36.4201 502.43 34.8001 504.19 34.1601L511 40.6301V40.6301ZM511.14 37.5701C511.14 37.5701 511.12 37.6301 511.1 37.6601L505.46 32.3001C505.46 32.2401 505.45 32.1801 505.44 32.1201C505.38 31.5901 505.3 31.1101 505.21 30.6801C505.11 30.1801 505 29.7501 504.9 29.4001C506.86 28.2201 508.62 27.4301 508.93 27.3801C509.09 27.3801 509.66 27.6801 510.2 28.7201C510.51 29.3101 510.81 30.1401 511.04 31.2901C511.17 31.9401 511.27 32.6901 511.33 33.5601C511.45 35.3101 511.35 36.6101 511.15 37.5601L511.14 37.5701ZM488.75 22.3801C486.29 22.4601 484.01 23.4201 482.32 25.0901C480.63 26.7601 479.74 28.9501 479.81 31.2301C479.81 31.2901 479.83 31.3501 479.86 31.4101C478.71 31.2901 477.83 31.1301 477.41 30.9601C477.43 28.5701 478.38 26.3201 480.08 24.5901C481.82 22.8201 484.16 21.8001 486.66 21.7201C488.17 21.6601 489.63 21.9601 490.97 22.5601C490.24 22.4201 489.5 22.3501 488.74 22.3701L488.75 22.3801Z" fill="#38237C"/>
        <path d="M504.2 34.1499C502.44 34.7999 497.37 36.4199 489.79 36.9899C491.93 38.2499 498.52 41.3099 511.01 40.6199L504.2 34.1499V34.1499Z" fill="#77A4F2"/>
        <path d="M489.79 36.9902C488.17 37.1102 486.45 37.1902 484.61 37.2002C492.62 42.1702 505.34 41.9302 511.01 40.6202C498.52 41.3102 491.93 38.2502 489.79 36.9902Z" fill="white"/>
        <path d="M480.09 24.6C478.39 26.33 477.45 28.58 477.42 30.97C477.84 31.14 478.71 31.29 479.87 31.42C479.84 31.36 479.82 31.3 479.82 31.24C479.75 28.95 480.64 26.77 482.33 25.1C484.02 23.43 486.3 22.47 488.76 22.39C489.52 22.36 490.26 22.43 490.99 22.58C489.65 21.98 488.18 21.68 486.68 21.74C484.17 21.82 481.84 22.84 480.1 24.61L480.09 24.6Z" fill="#77A4F2"/>
        <path d="M93.53 33.19C92.34 32.73 90.9 32.3 89.26 32.02L90.74 34.1C91.58 33.76 92.52 33.45 93.53 33.19Z" fill="#77A4F2"/>
        <path d="M70.38 45.3002C73.28 45.7102 75.99 43.4902 76.43 40.3402C76.87 37.1902 74.88 34.3202 71.99 33.9002C68.45 33.4002 62.69 35.5602 59.84 38.0002C61.9 41.1302 66.84 44.8002 70.38 45.3002V45.3002Z" fill="#FF8486"/>
        <path d="M95.9699 32.6502C93.6299 32.2402 91.2999 31.9802 89.1799 31.9102L89.2599 32.0202C90.8999 32.3002 92.3399 32.7302 93.5299 33.1902C94.2999 32.9902 95.1099 32.8002 95.9699 32.6502V32.6502Z" fill="white"/>
        <path d="M136.89 43.4102C136.01 43.2902 135.15 43.5202 134.44 44.0502C133.93 44.4302 133.56 44.9502 133.35 45.5302L129.48 45.0002C127.22 40.6202 123.69 37.7302 120.08 35.8402C119.59 34.3302 118.83 32.9302 117.81 31.6902C116.72 30.3702 115.39 29.2802 113.86 28.4702C112.33 27.6602 110.68 27.1602 108.95 26.9802C107.22 26.8102 105.51 26.9702 103.84 27.4602C102.18 27.9502 100.66 28.7502 99.33 29.8302C98.8 30.2602 98.3199 30.7302 97.8699 31.2302C94.0699 30.4702 90.2499 30.0602 86.9899 30.1402C86.8099 30.1402 86.6399 30.1702 86.4899 30.2302C86.3299 30.2902 86.1899 30.3702 86.0899 30.4802C85.9799 30.6002 85.9199 30.7502 85.9099 30.9002C85.9099 31.0502 85.9499 31.2002 86.0499 31.3402L87.5599 33.4702C86.0199 32.5002 84.4599 31.6502 83.7199 31.5402C83.1799 31.4702 81.7799 31.4802 80.3399 33.1402C78.9999 34.6902 78.08 37.1702 77.63 40.5002C77.25 43.2902 77.3499 45.5802 77.9099 47.3402L76.77 48.2902C76.62 48.4102 76.51 48.5702 76.44 48.7402C76.37 48.9102 76.35 49.1002 76.38 49.2902C76.41 49.4702 76.4899 49.6402 76.6099 49.7902C76.7299 49.9302 76.8799 50.0602 77.0599 50.1402C79.3499 51.2302 83.6599 52.1502 88.2899 52.5402C89.9499 52.6802 91.6299 52.7502 93.3099 52.7502H93.4799C94.7999 52.7502 96.2399 52.6902 97.7399 52.5602C100.29 53.4302 103.04 54.1002 105.76 54.4602C107.46 54.6902 109.19 54.8102 110.9 54.8102C116.39 54.8102 123.95 53.5202 129.3 47.5602L133.49 48.1302C133.58 48.3202 133.69 48.5002 133.82 48.6702C134.35 49.3702 135.13 49.8302 136.01 49.9402C136.16 49.9602 136.31 49.9702 136.46 49.9702C137.18 49.9702 137.87 49.7402 138.45 49.3002C139.15 48.7702 139.61 47.9902 139.72 47.1102C139.84 46.2302 139.61 45.3702 139.08 44.6602C138.55 43.9602 137.77 43.5002 136.89 43.3802V43.4102ZM79.9799 48.7802L80 48.7602L88.1499 42.0102C90.0599 42.8602 95.6299 45.0702 104.1 46.2902C105.92 46.5502 107.86 46.7702 109.94 46.9202C100.57 51.9502 86.2199 50.6902 79.9799 48.7702V48.7802ZM89.1799 31.9102C91.2899 31.9802 93.6199 32.2402 95.9699 32.6502C95.1199 32.8102 94.3099 32.9902 93.5299 33.1902C92.5199 33.4602 91.5799 33.7602 90.7399 34.1002L89.26 32.0202L89.1799 31.9102V31.9102ZM118.37 40.5402C117.89 40.7002 116.86 40.8102 115.51 40.8602C115.57 40.7902 115.61 40.7102 115.62 40.6302C115.88 38.0802 115.05 35.5802 113.29 33.5902C111.53 31.6002 109.06 30.3502 106.32 30.0802C105.39 29.9902 104.46 30.0202 103.56 30.1502C105.17 29.5102 106.93 29.2602 108.7 29.4402C111.51 29.7302 114.05 31.0502 115.87 33.1602C117.65 35.2302 118.54 37.8402 118.38 40.5302L118.37 40.5402ZM87.2999 38.1002C87.1699 38.5702 87.0399 39.1002 86.9299 39.6802C86.9199 39.7502 86.9099 39.8202 86.8999 39.8902L80.14 45.4902C80.14 45.4902 80.1099 45.4202 80.0999 45.3902C79.9399 44.3002 79.9099 42.8202 80.1799 40.8502C80.3099 39.8802 80.4799 39.0502 80.6699 38.3302C81.0099 37.0602 81.4099 36.1502 81.7999 35.5102C82.4799 34.4002 83.12 34.0902 83.32 34.0902H83.3399C83.6999 34.1702 85.63 35.2102 87.75 36.6802C87.61 37.0602 87.4499 37.5402 87.2999 38.1102V38.1002ZM113.35 47.6402C113.73 47.3802 114.1 47.1102 114.46 46.8302C114.65 46.6802 114.79 46.4802 114.85 46.2502C114.91 46.0202 114.89 45.7802 114.79 45.5602C114.69 45.3502 114.53 45.1602 114.32 45.0302C114.11 44.9002 113.87 44.8302 113.62 44.8202C100.71 44.4502 92.1699 41.2302 89.4699 40.0602C89.6099 39.3302 89.7999 38.6002 90.0299 37.8902C90.1499 37.5302 90.2799 37.1802 90.4199 36.8302C91.8499 36.0202 93.5799 35.4302 95.4899 35.0102C95.2699 35.5602 95.0999 36.1302 94.9599 36.7002C94.8199 37.2902 94.7099 37.9002 94.6499 38.5102C94.5199 39.8202 95.85 40.6302 99.57 41.5102C102.12 42.0902 104.73 42.5302 107.33 42.7902C109.49 43.0002 111.68 43.1102 113.87 43.1102C114.26 43.1102 114.66 43.1102 115.05 43.1102C118.96 43.0102 120.47 42.4802 120.6 41.1402C120.62 40.9802 120.62 40.8302 120.63 40.6702C120.68 40.0602 120.68 39.4502 120.64 38.8502C123.24 40.5402 125.66 42.8802 127.26 46.1302C127.24 46.1502 127.22 46.1702 127.2 46.1902C127.17 46.2202 127.14 46.2502 127.11 46.2902C122.35 51.4602 115.64 52.5702 110.8 52.5702H110.77C108.16 52.5702 105.6 52.2702 103.18 51.7702C106.7 51.0202 110.26 49.7402 113.33 47.6402H113.35Z" fill="#38237C"/>
        <path d="M80.1901 40.8403C79.9201 42.8203 79.9501 44.2903 80.1101 45.3803C80.1201 45.4103 80.1301 45.4503 80.1501 45.4803L86.9101 39.8803C86.9201 39.8103 86.9301 39.7403 86.9401 39.6703L80.6801 38.3003C80.4901 39.0203 80.3201 39.8503 80.1901 40.8203V40.8403Z" fill="#77A4F2"/>
        <path d="M83.3301 34.0801C83.1301 34.0801 82.4901 34.3901 81.8101 35.5001L87.3 38.1001C87.46 37.5301 87.6101 37.0501 87.7501 36.6701C85.6301 35.1901 83.71 34.1601 83.34 34.0801H83.3201H83.3301Z" fill="#77A4F2"/>
        <path d="M80.6799 38.3203L86.9399 39.6903C87.0499 39.1003 87.1799 38.5803 87.3099 38.1103L81.8199 35.5103C81.4299 36.1503 81.0299 37.0603 80.6899 38.3303L80.6799 38.3203Z" fill="white"/>
        <path d="M127.23 46.1902C125.82 44.3902 123.86 42.3802 120.65 40.6702C120.64 40.8302 120.64 40.9802 120.62 41.1402C120.48 42.4802 118.98 43.0102 115.07 43.1102C114.68 43.1102 114.28 43.1102 113.89 43.1102C111.7 43.1102 109.51 43.0002 107.35 42.7902C104.75 42.5202 102.14 42.0902 99.59 41.5102C95.87 40.6302 94.54 39.8102 94.67 38.5102C94.72 37.8902 94.84 37.2902 94.98 36.7002C93.08 36.9302 91.51 37.3402 90.04 37.8802C89.8 38.5902 89.61 39.3202 89.48 40.0502C92.18 41.2202 100.72 44.4502 113.63 44.8102C113.88 44.8102 114.12 44.8902 114.33 45.0202C114.54 45.1502 114.71 45.3302 114.8 45.5502C114.9 45.7702 114.92 46.0102 114.86 46.2402C114.8 46.4602 114.67 46.6602 114.47 46.8202C114.11 47.1002 113.74 47.3702 113.36 47.6302C119.8 47.5502 124.84 46.7902 127.14 46.2802C127.17 46.2502 127.2 46.2202 127.23 46.1802V46.1902Z" fill="#86D4C9"/>
        <path d="M110.8 52.57H110.82C115.66 52.57 122.37 51.46 127.13 46.29C124.83 46.8 119.79 47.57 113.35 47.64C110.28 49.74 106.72 51.01 103.2 51.77C105.62 52.27 108.18 52.57 110.79 52.57H110.8Z" fill="#73BBBF"/>
        <path d="M95.5001 35.02C93.6001 35.43 91.8601 36.03 90.4301 36.84C90.2901 37.19 90.16 37.54 90.04 37.9C91.5 37.36 93.07 36.95 94.98 36.72C95.12 36.14 95.2901 35.58 95.5101 35.03L95.5001 35.02Z" fill="white"/>
        <path d="M127.23 46.1901C127.23 46.1901 127.27 46.1501 127.29 46.1301C125.68 42.8801 123.27 40.5401 120.67 38.8501C120.71 39.4501 120.7 40.0601 120.66 40.6701C123.86 42.3701 125.83 44.3901 127.24 46.1901H127.23Z" fill="white"/>
        <path d="M104.1 46.3C95.62 45.08 90.06 42.87 88.15 42.02L80 48.77C94.03 50.51 101.65 47.54 104.1 46.31V46.3Z" fill="#77A4F2"/>
        <path d="M109.94 46.9303C107.86 46.7803 105.92 46.5603 104.1 46.3003C101.66 47.5303 94.04 50.5003 80 48.7603L79.98 48.7803C86.21 50.7003 100.56 51.9603 109.94 46.9303Z" fill="white"/>
        <path d="M115.87 33.1699C114.06 31.0599 111.51 29.73 108.7 29.45C106.92 29.27 105.17 29.5199 103.56 30.1599C104.46 30.0299 105.38 29.9899 106.32 30.0899C109.06 30.3699 111.53 31.6099 113.29 33.5999C115.05 35.5899 115.88 38.0899 115.62 40.6399C115.62 40.7199 115.57 40.7999 115.51 40.8699C116.86 40.8199 117.89 40.7099 118.37 40.5499C118.53 37.8599 117.64 35.2499 115.86 33.1799L115.87 33.1699Z" fill="#77A4F2"/>
        <path d="M275.74 107.57H286.19V84.8198C284.32 93.1898 280.71 100.92 275.74 107.57Z" fill="#C0DBFF"/>
        <path d="M286.2 58.5202V35.2202H275.32C280.51 42.0002 284.27 49.9202 286.2 58.5202V58.5202Z" fill="#C0DBFF"/>
        <path d="M354.38 135.49H416.93V132.61C416.93 130.95 418.27 129.61 419.93 129.61H421.48C421.48 129.61 421.48 129.59 421.48 129.58L421.39 107.53C421.39 107.53 421.39 107.51 421.39 107.5H420.21C418.55 107.5 417.21 106.16 417.21 104.5V99.22C417.21 97.56 418.55 96.22 420.21 96.22H421.39C421.39 96.22 421.39 96.2 421.39 96.19V82.35C421.39 82.35 421.39 82.33 421.39 82.32H420.21C418.55 82.32 417.21 80.98 417.21 79.32V74.04C417.21 72.38 418.55 71.04 420.21 71.04H422.08V14.16C422.08 10.89 419.43 8.22998 416.15 8.22998H241.85V13.26C248.39 14.87 254.5 17.55 260.01 21.1H286.19V16.56C286.19 14.35 287.98 12.56 290.19 12.56C292.4 12.56 294.19 14.35 294.19 16.56V21.1H296.8C298.46 21.1 299.8 22.44 299.8 24.1V32.22C299.8 33.88 298.46 35.22 296.8 35.22H294.19V57.66C294.56 56.58 294.96 55.52 295.39 54.48C302.81 29.67 325.83 11.53 353.02 11.53C386.19 11.53 413.17 38.51 413.17 71.68C413.17 86.26 407.95 99.65 399.29 110.07C389.24 124.63 372.81 134.3 354.38 135.51V135.49Z" fill="#C0DBFF"/>
        <path d="M244.15 3.22C244.4 3.2 244.65 3.18 244.91 3.18H420.09V3H245.32C244.9 3 244.51 3.08 244.14 3.22H244.15Z" fill="#C0DBFF"/>
        <path d="M260 135.49H346.49C345.89 135.45 345.28 135.41 344.67 135.35C320.76 133.05 301.53 116.98 294.2 95.8398V107.56H296.81C298.47 107.56 299.81 108.9 299.81 110.56V118.68C299.81 120.34 298.47 121.68 296.81 121.68H294.2V126.77C294.2 128.98 292.41 130.77 290.2 130.77C287.99 130.77 286.2 128.98 286.2 126.77V121.68H260.88C258.71 123.13 256.43 124.45 254.07 125.61V129.56C254.07 132.83 256.72 135.49 260 135.49V135.49Z" fill="#C0DBFF"/>
        <path d="M241.86 135.81C241.86 137.72 243.41 139.27 245.32 139.27H427.23C429.14 139.27 430.69 137.72 430.69 135.81V71.04H420.21C418.55 71.04 417.21 72.38 417.21 74.04V79.32C417.21 80.98 418.55 82.32 420.21 82.32H421.39C421.39 82.32 421.39 82.34 421.39 82.35V96.19C421.39 96.19 421.39 96.21 421.39 96.22H420.21C418.55 96.22 417.21 97.56 417.21 99.22V104.5C417.21 106.16 418.55 107.5 420.21 107.5H421.39C421.39 107.5 421.39 107.52 421.39 107.53L421.48 129.58C421.48 129.58 421.48 129.6 421.48 129.61H419.93C418.27 129.61 416.93 130.95 416.93 132.61V135.49H354.38C372.81 134.28 389.24 124.61 399.29 110.05C388.25 123.33 371.61 131.81 353.03 131.81C324.15 131.81 299.96 111.34 294.2 84.16V95.84C301.54 116.98 320.76 133.05 344.67 135.35C345.28 135.41 345.88 135.45 346.49 135.49H260C256.73 135.49 254.07 132.84 254.07 129.56V125.61C250.21 127.52 246.13 129.02 241.86 130.06V135.8V135.81Z" fill="#77A4F2"/>
        <path d="M416.16 8.23C419.43 8.23 422.09 10.88 422.09 14.16V71.04H430.69V6.46C430.69 4.55 429.14 3 427.23 3H420.09V3.18H244.91C244.65 3.18 244.39 3.19 244.15 3.22C242.82 3.7 241.86 4.97 241.86 6.47V8.24H416.16V8.23ZM425.55 12.14C424.02 12.14 422.78 10.9 422.78 9.37C422.78 7.84 424.02 6.6 425.55 6.6C427.08 6.6 428.32 7.84 428.32 9.37C428.32 10.9 427.08 12.14 425.55 12.14Z" fill="white"/>
        <path d="M459.66 129.58V124.3C459.66 123.66 459.46 123.07 459.12 122.59C459.4 122.13 459.57 121.6 459.57 121.02V115.74C459.57 115.2 459.42 114.71 459.17 114.27C459.42 113.83 459.57 113.34 459.57 112.8V107.52C459.57 105.86 458.23 104.52 456.57 104.52H455.39C455.39 104.52 455.39 104.5 455.39 104.49V99.2098C455.39 99.2098 455.39 99.1898 455.39 99.1798H456.57C458.23 99.1798 459.57 97.8398 459.57 96.1798V90.8998C459.57 90.2898 459.39 89.7298 459.08 89.2598C459.39 88.7898 459.57 88.2298 459.57 87.6198V82.3398C459.57 80.6798 458.23 79.3398 456.57 79.3398H455.39C455.39 79.3398 455.39 79.3198 455.39 79.3098V74.0298C455.39 72.3698 454.05 71.0298 452.39 71.0298H433.69V135.8C433.69 137.9 432.68 139.76 431.13 140.94L453.57 140.99L459.65 140.92C459.65 139.26 458.31 137.92 456.65 137.92H455.1C455.1 137.92 455.1 137.9 455.1 137.89V132.61C455.1 132.61 455.1 132.59 455.1 132.58H456.65C458.31 132.58 459.65 131.24 459.65 129.58H459.66Z" fill="#77A4F2"/>
        <path d="M294.2 59.1702C294.54 57.5802 294.94 56.0102 295.4 54.4702C294.97 55.5102 294.57 56.5802 294.2 57.6502V59.1702Z" fill="#77A4F2"/>
        <path d="M433.7 135.81V6.46C433.7 2.9 430.8 0 427.24 0H245.33C241.77 0 238.87 2.9 238.87 6.46V12.6C235.19 11.89 231.4 11.51 227.52 11.51C194.35 11.51 167.37 38.49 167.37 71.66C167.37 104.83 194.35 131.81 227.52 131.81C231.4 131.81 235.19 131.43 238.87 130.72V135.8C238.87 139.36 241.77 142.26 245.33 142.26H258.4L259.68 150.51C259.91 151.97 261.17 153.05 262.64 153.05H277.27C278.75 153.05 280.01 151.97 280.23 150.51L281.51 142.26H391.02L392.3 150.51C392.53 151.97 393.79 153.05 395.26 153.05H409.89C411.37 153.05 412.63 151.97 412.85 150.51L414.13 142.26H427.2C428.67 142.26 430.02 141.76 431.11 140.93C432.66 139.75 433.67 137.89 433.67 135.79L433.7 135.81ZM273.34 110.57H296.81V118.69H264.96C268.01 116.26 270.81 113.54 273.34 110.57ZM264.27 24.11H296.81V32.23H272.86C270.27 29.25 267.39 26.53 264.26 24.11H264.27ZM181.65 37.63C192.08 23.62 208.75 14.53 227.52 14.53C259.03 14.53 284.67 40.17 284.67 71.68C284.67 81.85 281.98 91.41 277.3 99.69C267.49 117.06 248.85 128.82 227.52 128.82C196.01 128.82 170.37 103.18 170.37 71.67C170.37 58.92 174.57 47.14 181.65 37.63V37.63ZM275.75 107.57C280.72 100.91 284.33 93.19 286.2 84.82V107.57H275.75ZM286.2 58.53C284.27 49.92 280.5 42.01 275.32 35.23H286.2V58.53V58.53ZM254.07 125.62C256.43 124.45 258.71 123.14 260.88 121.69H286.2V126.78C286.2 128.99 287.99 130.78 290.2 130.78C292.41 130.78 294.2 128.99 294.2 126.78V121.69H296.81C298.47 121.69 299.81 120.35 299.81 118.69V110.57C299.81 108.91 298.47 107.57 296.81 107.57H294.2V84.16C299.97 111.35 324.15 131.81 353.03 131.81C371.61 131.81 388.25 123.34 399.29 110.05C407.95 99.63 413.17 86.24 413.17 71.66C413.17 38.49 386.19 11.51 353.02 11.51C325.83 11.51 302.81 29.65 295.39 54.46C294.93 56 294.52 57.57 294.19 59.16V35.2H296.8C298.46 35.2 299.8 33.86 299.8 32.2V24.08C299.8 22.42 298.46 21.08 296.8 21.08H294.19V16.54C294.19 14.33 292.4 12.54 290.19 12.54C287.98 12.54 286.19 14.33 286.19 16.54V21.08H260.01C254.5 17.53 248.39 14.85 241.85 13.24V6.46C241.85 4.96 242.81 3.7 244.14 3.21C244.51 3.08 244.9 2.99 245.32 2.99H427.23C429.14 2.99 430.69 4.54 430.69 6.45V135.81C430.69 137.72 429.14 139.27 427.23 139.27H245.32C243.41 139.27 241.86 137.72 241.86 135.81V130.07C246.12 129.02 250.21 127.52 254.07 125.62V125.62ZM381.94 120.94C378.26 123.11 374.33 124.88 370.19 126.19C364.77 127.9 359.01 128.82 353.04 128.82C321.53 128.82 295.89 103.18 295.89 71.67C295.89 51.03 306.89 32.91 323.34 22.86C332 17.57 342.17 14.52 353.04 14.52C384.55 14.52 410.19 40.16 410.19 71.67C410.19 92.64 398.83 111 381.95 120.94H381.94Z" fill="#38237C"/>
        <path d="M296.81 32.2201V24.1001H264.27C267.4 26.5201 270.27 29.2401 272.87 32.2201H296.82H296.81ZM290.27 25.5501C291.71 25.5501 292.88 26.7201 292.88 28.1601C292.88 29.6001 291.71 30.7701 290.27 30.7701C288.83 30.7701 287.66 29.6001 287.66 28.1601C287.66 26.7201 288.83 25.5501 290.27 25.5501Z" fill="#77A4F2"/>
        <path d="M296.81 118.68V110.56H273.34C270.82 113.53 268.01 116.25 264.96 118.68H296.81ZM290.27 112.01C291.71 112.01 292.88 113.18 292.88 114.62C292.88 116.06 291.71 117.23 290.27 117.23C288.83 117.23 287.66 116.06 287.66 114.62C287.66 113.18 288.83 112.01 290.27 112.01Z" fill="#77A4F2"/>
        <path d="M184.99 67.6699C185.81 58.8899 189.29 50.8699 194.63 44.4399C189.3 50.8699 185.81 58.8899 184.99 67.6699Z" fill="#77A4F2"/>
        <path d="M227.51 128.81C248.85 128.81 267.48 117.05 277.29 99.6801C280.31 93.6401 282.3 86.9601 282.99 79.8401C286 48.5001 262.8 20.6401 231.17 17.6001C211.6 15.7201 193.4 23.7901 181.65 37.6301C174.57 47.1501 170.37 58.9301 170.37 71.6701C170.37 103.18 196.01 128.82 227.52 128.82L227.51 128.81ZM174.78 71.6601C174.78 69.4501 176.57 67.6601 178.78 67.6601H181.03C181.64 63.9901 182.7 60.5001 184.14 57.2201C185.98 51.7101 188.84 46.6601 192.5 42.3001L190.22 40.0201C188.66 38.4601 188.66 35.9301 190.22 34.3601C191.78 32.8001 194.31 32.8001 195.88 34.3601L198.16 36.6401C205.15 30.7701 213.91 26.9601 223.51 26.1201V22.9201C223.51 20.7101 225.3 18.9201 227.51 18.9201C229.72 18.9201 231.51 20.7101 231.51 22.9201V26.1201C241.11 26.9601 249.88 30.7701 256.86 36.6401L259.14 34.3601C260.7 32.8001 263.24 32.8001 264.8 34.3601C266.36 35.9201 266.36 38.4501 264.8 40.0201L262.52 42.3001C268.39 49.2901 272.2 58.0501 273.04 67.6501H276.24C278.45 67.6501 280.24 69.4401 280.24 71.6501C280.24 73.8601 278.45 75.6501 276.24 75.6501H273.04C272.2 85.2501 268.39 94.0201 262.52 101L264.8 103.28C266.36 104.84 266.36 107.37 264.8 108.94C264.02 109.72 263 110.11 261.97 110.11C260.94 110.11 259.92 109.72 259.14 108.94L256.91 106.71C250.13 113.34 241.27 117.8 231.51 119.12V120.38C231.51 122.59 229.72 124.38 227.51 124.38C225.3 124.38 223.51 122.59 223.51 120.38V119.48C222.7 119.45 221.89 119.4 221.07 119.32C211.47 118.4 202.87 114.54 196.08 108.73L195.88 108.93C195.1 109.71 194.07 110.1 193.05 110.1C192.03 110.1 191 109.71 190.22 108.93C188.66 107.37 188.66 104.84 190.22 103.27L190.48 103.02C184.29 95.4601 180.58 85.9001 180.43 75.6401H178.78C176.57 75.6401 174.78 73.8501 174.78 71.6401V71.6601Z" fill="#77A4F2"/>
        <path d="M216.43 88.4102L207.56 97.2802C212.08 100.81 217.55 103.17 223.52 103.91V91.3602C220.94 90.8402 218.55 89.8202 216.43 88.4102Z" fill="#77A4F2"/>
        <path d="M194.56 98.8198C193.69 97.7598 192.87 96.6698 192.1 95.5298C192.87 96.6698 193.69 97.7598 194.56 98.8198Z" fill="#77A4F2"/>
        <path d="M189.96 92.0098C189.3 90.7998 188.7 89.5498 188.16 88.2798C188.7 89.5598 189.3 90.7998 189.96 92.0098Z" fill="#77A4F2"/>
        <path d="M207.82 75.6699H195.27C196.01 81.6399 198.37 87.1099 201.9 91.6299L210.77 82.7599C209.36 80.6399 208.34 78.2499 207.82 75.6699V75.6699Z" fill="#77A4F2"/>
        <path d="M207.82 67.67C208.34 65.1 209.36 62.7 210.77 60.58L201.9 51.71C198.37 56.23 196.01 61.7 195.27 67.67H207.82Z" fill="#77A4F2"/>
        <path d="M216.43 54.9202C218.55 53.5102 220.94 52.4902 223.52 51.9702V41.7402C217.96 41.9702 212.61 43.5902 207.92 46.4002L216.44 54.9202H216.43Z" fill="#77A4F2"/>
        <path d="M260.46 98.8199C260.76 98.4499 261.06 98.0699 261.35 97.6899C261.06 98.0699 260.77 98.4499 260.46 98.8199Z" fill="#77A4F2"/>
        <path d="M231.51 42.3799V51.9799C234.09 52.4999 236.48 53.5199 238.6 54.9299L245 48.5299C241.05 45.4899 236.46 43.3899 231.51 42.3899V42.3799Z" fill="#77A4F2"/>
        <path d="M257.62 77.3602C257.67 76.7902 257.71 76.2302 257.74 75.6602H247.2C246.68 78.2302 245.66 80.6302 244.25 82.7502L252.85 91.3502C255.49 87.1302 257.14 82.3202 257.61 77.3602H257.62Z" fill="#77A4F2"/>
        <path d="M250.71 54.1299L244.26 60.5799C245.67 62.6999 246.69 65.0899 247.21 67.6699H257.1C256.08 62.7799 253.91 58.1599 250.71 54.1299Z" fill="#77A4F2"/>
        <path d="M247.47 97.2802L238.6 88.4102C236.48 89.8202 234.09 90.8402 231.51 91.3602V103.91C237.48 103.17 242.95 100.81 247.47 97.2802Z" fill="#77A4F2"/>
        <path d="M316.7 94.7698V90.2598C316.7 89.7198 316.85 89.2298 317.1 88.7898C316.8 88.3198 316.62 87.7698 316.62 87.1698V82.2798H315.41C313.75 82.2798 312.41 80.9398 312.41 79.2798V74.2998C312.41 72.6398 313.75 71.2998 315.41 71.2998H316.57C316.6 71.1198 316.64 70.9598 316.7 70.7898V66.6098H315.41C313.75 66.6098 312.41 65.2698 312.41 63.6098V58.6298C312.41 56.9698 313.75 55.6298 315.41 55.6298H316.55C316.57 55.3598 316.62 55.1098 316.71 54.8598V50.7898C316.71 49.1298 318.05 47.7898 319.71 47.7898H320.83C320.86 46.1598 322.19 44.8398 323.82 44.8398H354.16C355.82 44.8398 357.16 46.1798 357.16 47.8398V52.8198C357.16 54.4798 355.82 55.8198 354.16 55.8198H353.04C353.04 56.1498 352.97 56.4598 352.87 56.7498V60.8098H354.16C355.82 60.8098 357.16 62.1498 357.16 63.8098V68.7898C357.16 70.4498 355.82 71.7898 354.16 71.7898H353.01C352.98 72.0098 352.94 72.2198 352.87 72.4198V76.7498C352.87 76.7498 352.87 76.7798 352.87 76.7998H354.08C354.45 76.7998 354.81 76.8798 355.14 76.9998V76.8598C355.14 75.1998 356.48 73.8598 358.14 73.8598H362.25V72.8598C362.25 71.1998 363.59 69.8598 365.25 69.8598H394.39C391.82 49.8698 375.59 33.5498 354.5 31.5198C342.26 30.3398 330.71 34.2198 321.93 41.4098C314.31 49.2398 309.61 59.9098 309.61 71.6698C309.61 80.2898 312.15 88.3298 316.5 95.0998H316.61C316.64 94.9898 316.67 94.8798 316.71 94.7698H316.7Z" fill="#503EAA"/>
        <path d="M370.74 80.8398H365.25V85.2798H370.74V80.8398Z" fill="#8D86EB"/>
        <path d="M390.11 80.8398V85.2798H391.16C391.36 85.2798 391.55 85.2998 391.73 85.3398H393.61C393.95 83.8698 394.2 82.3698 394.39 80.8398H390.1H390.11Z" fill="#EBF0FF"/>
        <path d="M387.12 80.8398H381.93V85.2798H387.12V80.8398Z" fill="#A5A5F9"/>
        <path d="M378.92 80.8398H373.74V85.2798H378.92V80.8398Z" fill="#A5A5F9"/>
        <path d="M365.25 112.22V113.33C366.37 113 367.46 112.63 368.54 112.22H365.25Z" fill="#8D86EB"/>
        <path d="M370.74 72.8599H365.25V77.8399H370.74V72.8599Z" fill="#8D86EB"/>
        <path d="M390.11 77.8399H394.68C394.77 76.1599 394.78 74.4999 394.68 72.8599H390.11V77.8399Z" fill="#EBF0FF"/>
        <path d="M387.12 72.8599H381.93V77.8399H387.12V72.8599Z" fill="#A5A5F9"/>
        <path d="M378.92 72.8599H373.74V77.8399H378.92V72.8599Z" fill="#A5A5F9"/>
        <path d="M329.31 47.8398H323.82V52.8198H329.31V47.8398Z" fill="#8D86EB"/>
        <path d="M354.17 47.8398H348.68V52.8198H354.17V47.8398Z" fill="#EBF0FF"/>
        <path d="M345.67 47.8398H340.49V52.8198H345.67V47.8398Z" fill="#A5A5F9"/>
        <path d="M337.5 47.8398H332.31V52.8198H337.5V47.8398Z" fill="#A5A5F9"/>
        <path d="M329.31 63.8198H323.82V68.7698H329.31V63.8198Z" fill="#8D86EB"/>
        <path d="M354.16 68.7901V63.8101H349.94C349.94 63.8101 349.9 63.8101 349.87 63.8101H348.67V68.7601H349.87C349.94 68.7601 350 68.7801 350.06 68.7801H354.16V68.7901Z" fill="#EBF0FF"/>
        <path d="M337.5 63.8198H332.31V68.7698H337.5V63.8198Z" fill="#A5A5F9"/>
        <path d="M345.67 63.8198H340.49V68.7698H345.67V63.8198Z" fill="#A5A5F9"/>
        <path d="M325.02 55.8398H319.53V60.8198H325.02V55.8398Z" fill="#8D86EB"/>
        <path d="M349.87 55.8398H344.38V60.8198H349.87V55.8398Z" fill="#EBF0FF"/>
        <path d="M333.2 55.8398H328.02V60.8198H333.2V55.8398Z" fill="#A5A5F9"/>
        <path d="M341.39 55.8398H336.2V60.8198H341.39V55.8398Z" fill="#A5A5F9"/>
        <path d="M325.02 71.77H319.53V76.75H325.02V71.77Z" fill="#8D86EB"/>
        <path d="M349.87 71.77H344.38V76.75H349.87V71.77Z" fill="#EBF0FF"/>
        <path d="M333.2 71.77H328.02V76.75H333.2V71.77Z" fill="#A5A5F9"/>
        <path d="M341.39 71.77H336.2V76.75H341.39V71.77Z" fill="#A5A5F9"/>
        <path d="M329.31 87.77H323.82V92.72H329.31V87.77Z" fill="#8D86EB"/>
        <path d="M354.16 92.7198V87.7598C354.16 87.7598 354.1 87.7598 354.08 87.7598H348.68V92.7098H354.17L354.16 92.7198Z" fill="#EBF0FF"/>
        <path d="M345.67 87.77H340.49V92.72H345.67V87.77Z" fill="#A5A5F9"/>
        <path d="M337.5 87.77H332.31V92.72H337.5V87.77Z" fill="#A5A5F9"/>
        <path d="M329.22 79.79H323.73V84.77H329.22V79.79Z" fill="#8D86EB"/>
        <path d="M354.08 79.79H348.59V84.77H354.08V79.79Z" fill="#EBF0FF"/>
        <path d="M337.41 79.79H332.22V84.77H337.41V79.79Z" fill="#A5A5F9"/>
        <path d="M345.59 79.79H340.41V84.77H345.59V79.79Z" fill="#A5A5F9"/>
        <path d="M329.31 103.75H323.82V103.77C325.53 105.33 327.37 106.74 329.31 108.01V103.75V103.75Z" fill="#8D86EB"/>
        <path d="M354.17 103.75H348.68V108.73H354.17V103.75Z" fill="#EBF0FF"/>
        <path d="M337.5 103.75H332.31V108.73H337.5V103.75Z" fill="#A5A5F9"/>
        <path d="M345.67 103.75H340.49V108.73H345.67V103.75Z" fill="#A5A5F9"/>
        <path d="M325.02 95.74H319.53V99.26C319.94 99.75 320.36 100.24 320.79 100.71H325.02V95.73V95.74Z" fill="#8D86EB"/>
        <path d="M349.87 95.7402H344.38V100.72H349.87V95.7402Z" fill="#EBF0FF"/>
        <path d="M341.39 95.7402H336.2V100.72H341.39V95.7402Z" fill="#A5A5F9"/>
        <path d="M333.2 95.7402H328.02V100.72H333.2V95.7402Z" fill="#A5A5F9"/>
        <path d="M349.87 114.97V111.77H344.38V114.23C346.17 114.59 348 114.83 349.87 114.97V114.97Z" fill="#EBF0FF"/>
        <path d="M341.38 111.77H336.37C337.99 112.45 339.67 113.02 341.38 113.5V111.77Z" fill="#A5A5F9"/>
        <path d="M366.4 104.26H360.91V109.06H366.4V104.26Z" fill="#8D86EB"/>
        <path d="M374.59 104.26H369.4V109.06H374.59V104.26Z" fill="#A5A5F9"/>
        <path d="M377.58 104.26V107.46C379.01 106.47 380.38 105.4 381.68 104.26H377.58Z" fill="#A5A5F9"/>
        <path d="M366.31 96.2798H360.82V101.26H366.31V96.2798Z" fill="#8D86EB"/>
        <path d="M388.78 96.2798H385.68V100.25C386.79 98.9898 387.82 97.6598 388.78 96.2798Z" fill="#EBF0FF"/>
        <path d="M374.5 96.2798H369.31V101.26H374.5V96.2798Z" fill="#A5A5F9"/>
        <path d="M382.68 96.2798H377.49V101.26H382.68V96.2798Z" fill="#A5A5F9"/>
        <path d="M366.31 88.27H360.82V93.25H366.31V88.27Z" fill="#8D86EB"/>
        <path d="M391.16 88.27H385.67V93.25H390.68C390.84 92.97 391 92.7 391.16 92.42V88.27Z" fill="#EBF0FF"/>
        <path d="M374.5 88.27H369.31V93.25H374.5V88.27Z" fill="#A5A5F9"/>
        <path d="M382.68 88.27H377.49V93.25H382.68V88.27Z" fill="#A5A5F9"/>
        <path d="M198.16 106.68L196.08 108.76C202.87 114.56 211.47 118.42 221.07 119.35C221.89 119.43 222.7 119.48 223.51 119.51V117.21C213.91 116.37 205.14 112.56 198.16 106.69V106.68Z" fill="#503EAA"/>
        <path d="M181.98 75.6699H180.43C180.58 85.9299 184.29 95.4799 190.48 103.05L192.5 101.03C186.63 94.0399 182.82 85.2799 181.98 75.6799V75.6699Z" fill="#503EAA"/>
        <path d="M184.15 57.23C182.71 60.51 181.65 64 181.04 67.67H181.99C182.3 64.05 183.04 60.56 184.15 57.23V57.23Z" fill="#503EAA"/>
        <path d="M231.51 117.2V119.14C241.27 117.82 250.13 113.36 256.91 106.73L256.86 106.68C249.87 112.55 241.11 116.36 231.51 117.2Z" fill="#503EAA"/>
        <path d="M231.17 17.5898C262.8 20.6298 286 48.4998 282.99 79.8298C282.31 86.9498 280.32 93.6298 277.29 99.6698C281.97 91.3898 284.66 81.8298 284.66 71.6598C284.66 40.1498 259.02 14.5098 227.51 14.5098C208.75 14.5098 192.07 23.5998 181.64 37.6098C193.4 23.7698 211.6 15.6998 231.16 17.5798L231.17 17.5898Z" fill="#C0DBFF"/>
        <path d="M405.69 74.4701C405.69 42.8001 380.01 17.1201 348.34 17.1201C341.99 17.1201 335.88 18.1601 330.17 20.0701C324.86 23.0301 319.93 26.8601 315.63 31.6101C294.35 55.0701 296.11 91.3401 319.57 112.62C333.8 125.53 352.74 129.93 370.19 126.18C374.33 124.87 378.27 123.1 381.94 120.93C396.33 110.51 405.69 93.5901 405.69 74.4701V74.4701ZM353.03 25.2401C378.63 25.2401 399.46 46.0701 399.46 71.6701C399.46 97.2701 378.63 118.1 353.03 118.1C327.43 118.1 306.6 97.2701 306.6 71.6701C306.6 46.0701 327.43 25.2401 353.03 25.2401V25.2401Z" fill="#C0DBFF"/>
        <path d="M319.56 112.62C296.1 91.3398 294.34 55.0698 315.62 31.6098C319.93 26.8598 324.86 23.0298 330.16 20.0698C327.81 20.8598 325.53 21.7898 323.33 22.8598C306.88 32.8998 295.88 51.0198 295.88 71.6698C295.88 103.18 321.52 128.82 353.03 128.82C359 128.82 364.76 127.9 370.18 126.19C352.73 129.94 333.79 125.54 319.56 112.63V112.62Z" fill="#77A4F2"/>
        <path d="M353.03 14.5198C342.16 14.5198 331.99 17.5698 323.33 22.8598C325.53 21.7898 327.81 20.8598 330.16 20.0698C335.87 18.1598 341.98 17.1198 348.33 17.1198C380 17.1198 405.68 42.7998 405.68 74.4698C405.68 93.5898 396.31 110.52 381.93 120.93C398.81 110.99 410.17 92.6298 410.17 71.6598C410.17 40.1498 384.53 14.5098 353.02 14.5098L353.03 14.5198Z" fill="white"/>
        <path d="M207.55 46.0502L207.91 46.4102C212.6 43.5902 217.95 41.9702 223.51 41.7502V39.4302C217.54 40.1702 212.07 42.5302 207.55 46.0602V46.0502Z" fill="#503EAA"/>
        <path d="M252.86 91.3599L253.13 91.6299C256.66 87.1099 259.02 81.6399 259.76 75.6699H257.75C257.73 76.2299 257.69 76.7999 257.63 77.3699C257.15 82.3399 255.5 87.1499 252.87 91.3599H252.86Z" fill="#503EAA"/>
        <path d="M231.51 39.4299V42.3799C236.46 43.3799 241.05 45.4799 245 48.5199L247.47 46.0499C242.95 42.5199 237.48 40.1599 231.51 39.4199V39.4299Z" fill="#503EAA"/>
        <path d="M253.13 51.71L250.71 54.13C253.92 58.15 256.08 62.77 257.1 67.67H259.76C259.02 61.7 256.66 56.23 253.13 51.71Z" fill="#503EAA"/>
        <path d="M290.27 117.24C291.71 117.24 292.88 116.07 292.88 114.63C292.88 113.19 291.71 112.02 290.27 112.02C288.83 112.02 287.66 113.19 287.66 114.63C287.66 116.07 288.83 117.24 290.27 117.24Z" fill="#38237C"/>
        <path d="M290.27 30.7698C291.71 30.7698 292.88 29.5998 292.88 28.1598C292.88 26.7198 291.71 25.5498 290.27 25.5498C288.83 25.5498 287.66 26.7198 287.66 28.1598C287.66 29.5998 288.83 30.7698 290.27 30.7698Z" fill="#38237C"/>
        <path d="M181.98 75.6702C182.82 85.2702 186.63 94.0402 192.5 101.02L190.48 103.04L190.22 103.29C188.66 104.85 188.66 107.38 190.22 108.95C191 109.73 192.02 110.12 193.05 110.12C194.08 110.12 195.1 109.73 195.88 108.95L196.08 108.75L198.16 106.67C205.15 112.54 213.91 116.35 223.51 117.19V120.39C223.51 122.6 225.3 124.39 227.51 124.39C229.72 124.39 231.51 122.6 231.51 120.39V117.19C241.11 116.35 249.88 112.54 256.86 106.67L256.91 106.72L259.14 108.95C259.92 109.73 260.94 110.12 261.97 110.12C263 110.12 264.02 109.73 264.8 108.95C266.36 107.39 266.36 104.86 264.8 103.29L262.52 101.01C268.39 94.0202 272.2 85.2602 273.04 75.6602H276.24C278.45 75.6602 280.24 73.8702 280.24 71.6602C280.24 69.4502 278.45 67.6602 276.24 67.6602H273.04C272.2 58.0602 268.39 49.2902 262.52 42.3102L264.8 40.0302C266.36 38.4702 266.36 35.9402 264.8 34.3702C263.24 32.8102 260.71 32.8102 259.14 34.3702L256.86 36.6502C249.87 30.7802 241.11 26.9702 231.51 26.1302V22.9302C231.51 20.7202 229.72 18.9302 227.51 18.9302C225.3 18.9302 223.51 20.7202 223.51 22.9302V26.1302C213.91 26.9702 205.14 30.7802 198.16 36.6502L195.88 34.3702C194.32 32.8102 191.79 32.8102 190.22 34.3702C188.66 35.9302 188.66 38.4602 190.22 40.0302L192.5 42.3102C188.84 46.6702 185.98 51.7202 184.14 57.2302C183.03 60.5602 182.29 64.0502 181.98 67.6702H178.78C176.57 67.6702 174.78 69.4602 174.78 71.6702C174.78 73.8802 176.57 75.6702 178.78 75.6702H181.98V75.6702ZM196.92 41.9002C198.01 40.7802 199.15 39.7102 200.36 38.7202C200.89 38.2802 201.43 37.8602 201.97 37.4502C209.1 32.1202 217.94 28.9502 227.51 28.9502C237.08 28.9502 245.92 32.1102 253.05 37.4502C253.6 37.8602 254.14 38.2802 254.66 38.7202C264.16 46.5602 270.22 58.4202 270.22 71.6702C270.22 73.8802 270.05 76.0502 269.73 78.1702C269.62 78.8802 269.5 79.5802 269.35 80.2702C268.5 84.4402 267.03 88.3802 265.06 92.0202C264.4 93.2302 263.69 94.4102 262.92 95.5402C262.42 96.2802 261.89 97.0002 261.35 97.7002C261.06 98.0802 260.77 98.4602 260.46 98.8302C260.02 99.3602 259.58 99.8702 259.12 100.38C258.66 100.89 258.19 101.38 257.7 101.86C249.97 109.59 239.29 114.39 227.51 114.39C215 114.39 203.72 108.98 195.9 100.38C195.44 99.8702 194.99 99.3602 194.56 98.8302C193.69 97.7702 192.87 96.6802 192.1 95.5402C191.33 94.4002 190.62 93.2302 189.96 92.0202C189.3 90.8102 188.7 89.5602 188.16 88.2902C187.08 85.7402 186.24 83.0602 185.67 80.2802C185.53 79.5902 185.4 78.8802 185.29 78.1802C184.97 76.0602 184.8 73.8902 184.8 71.6802C184.8 70.3302 184.87 69.0002 184.99 67.6802C185.81 58.9002 189.29 50.8802 194.63 44.4502C195.36 43.5702 196.13 42.7302 196.92 41.9102V41.9002Z" fill="#38237C"/>
        <path d="M227.51 87.7601C232.19 87.7601 236.4 85.7501 239.34 82.5501C239.34 82.4101 239.37 82.2701 239.45 82.1401C240.89 79.9901 241.78 77.5001 242.03 74.9201C242.86 66.2501 236.42 58.5001 227.65 57.6601C227.13 57.6101 226.61 57.5801 226.09 57.5801C221.28 57.5801 216.77 59.7101 213.73 63.4301C213.71 63.4501 213.68 63.4601 213.66 63.4901C212.24 65.8901 211.41 68.6801 211.41 71.6601C211.41 80.5501 218.62 87.7501 227.5 87.7501L227.51 87.7601ZM227.51 62.4201C232.61 62.4201 236.75 66.5701 236.75 71.6601C236.75 76.7501 232.6 80.9001 227.51 80.9001C222.42 80.9001 218.27 76.7501 218.27 71.6601C218.27 66.5701 222.42 62.4201 227.51 62.4201V62.4201Z" fill="#C0DBFF"/>
        <path d="M184.8 71.6702C184.8 73.8802 184.97 76.0502 185.29 78.1702C185.4 78.8802 185.52 79.5802 185.67 80.2702C186.24 83.0502 187.08 85.7302 188.16 88.2802C188.7 89.5602 189.3 90.8002 189.96 92.0102C190.62 93.2202 191.33 94.4002 192.1 95.5302C192.87 96.6702 193.69 97.7602 194.56 98.8202C195 99.3502 195.44 99.8602 195.9 100.37C203.72 108.97 214.99 114.38 227.51 114.38C239.29 114.38 249.97 109.59 257.7 101.85C258.18 101.37 258.66 100.87 259.12 100.37C259.58 99.8602 260.03 99.3502 260.46 98.8202C260.76 98.4502 261.06 98.0702 261.35 97.6902C265.07 92.0702 267.52 85.5002 268.21 78.3402C270.47 54.8302 253.06 33.9202 229.33 31.6402C217.07 30.4602 205.53 34.4902 196.92 41.9002C196.13 42.7202 195.36 43.5602 194.63 44.4402C189.3 50.8702 185.81 58.8902 184.99 67.6702C184.87 68.9902 184.8 70.3202 184.8 71.6702V71.6702ZM234.66 36.9002C250.82 40.2202 263.01 54.5502 263.01 71.6702C263.01 88.7902 250.82 103.13 234.66 106.44C232.35 106.91 229.96 107.16 227.51 107.16C225.06 107.16 222.67 106.91 220.36 106.44C204.2 103.12 192.01 88.7902 192.01 71.6702C192.01 54.5502 204.2 40.2102 220.36 36.9002C222.67 36.4302 225.06 36.1802 227.51 36.1802C229.96 36.1802 232.35 36.4302 234.66 36.9002V36.9002Z" fill="#C0DBFF"/>
        <path d="M227.51 76.9102C230.404 76.9102 232.75 74.5641 232.75 71.6702C232.75 68.7762 230.404 66.4302 227.51 66.4302C224.616 66.4302 222.27 68.7762 222.27 71.6702C222.27 74.5641 224.616 76.9102 227.51 76.9102Z" fill="#77A4F2"/>
        <path d="M218.27 71.6702C218.27 76.7702 222.42 80.9102 227.51 80.9102C232.6 80.9102 236.75 76.7602 236.75 71.6702C236.75 66.5802 232.6 62.4302 227.51 62.4302C222.42 62.4302 218.27 66.5802 218.27 71.6702ZM232.75 71.6702C232.75 74.5602 230.4 76.9102 227.51 76.9102C224.62 76.9102 222.27 74.5602 222.27 71.6702C222.27 68.7802 224.62 66.4302 227.51 66.4302C230.4 66.4302 232.75 68.7802 232.75 71.6702Z" fill="#38237C"/>
        <path d="M353.03 118.09C378.63 118.09 399.46 97.26 399.46 71.66C399.46 46.06 378.63 25.23 353.03 25.23C327.43 25.23 306.6 46.06 306.6 71.66C306.6 97.26 327.43 118.09 353.03 118.09ZM309.6 71.66C309.6 59.9 314.31 49.22 321.92 41.4C330.7 34.21 342.24 30.34 354.49 31.51C375.59 33.54 391.82 49.85 394.38 69.85H365.24C363.58 69.85 362.24 71.19 362.24 72.85V73.85H358.13C356.47 73.85 355.13 75.19 355.13 76.85V76.99C354.8 76.86 354.44 76.79 354.07 76.79H352.86C352.86 76.79 352.86 76.76 352.86 76.74V72.41C352.93 72.21 352.98 72 353 71.78H354.15C355.81 71.78 357.15 70.44 357.15 68.78V63.8C357.15 62.14 355.81 60.8 354.15 60.8H352.86V56.74C352.96 56.45 353.03 56.14 353.03 55.81H354.15C355.81 55.81 357.15 54.47 357.15 52.81V47.83C357.15 46.17 355.81 44.83 354.15 44.83H323.81C322.17 44.83 320.84 46.15 320.82 47.78H319.7C318.04 47.78 316.7 49.12 316.7 50.78V54.85C316.62 55.09 316.56 55.35 316.54 55.62H315.4C313.74 55.62 312.4 56.96 312.4 58.62V63.6C312.4 65.26 313.74 66.6 315.4 66.6H316.69V70.78C316.63 70.94 316.59 71.11 316.56 71.29H315.4C313.74 71.29 312.4 72.63 312.4 74.29V79.27C312.4 80.93 313.74 82.27 315.4 82.27H316.61V87.16C316.61 87.76 316.79 88.32 317.09 88.78C316.84 89.22 316.69 89.71 316.69 90.25V94.76C316.65 94.87 316.61 94.98 316.59 95.09H316.48C312.13 88.33 309.59 80.29 309.59 71.66H309.6ZM365.25 72.85H370.74V77.83H365.25V72.85ZM378.92 72.85V77.83H373.74V72.85H378.92ZM394.67 72.85C394.77 74.49 394.76 76.15 394.67 77.83H390.1V72.85H394.67ZM366.3 88.27V93.25H360.81V88.27H366.3ZM369.3 101.25V96.27H374.49V101.25H369.3ZM360.81 96.27H366.3V101.25H360.81V96.27ZM381.91 85.26V80.82H387.1V85.26H381.91ZM378.91 85.26H373.73V80.82H378.91V85.26ZM382.66 88.26V93.24H377.47V88.26H382.66ZM374.47 88.26V93.24H369.28V88.26H374.47ZM370.72 80.82V85.26H365.23V80.82H370.72ZM360.89 104.24H366.38V109.04H360.89V104.24ZM377.47 101.24V96.26H382.66V101.24H377.47ZM385.66 93.23V88.25H391.15V92.4C391 92.68 390.83 92.95 390.67 93.23H385.66ZM391.72 85.31C391.53 85.27 391.34 85.25 391.15 85.25H390.1V80.81H394.39C394.2 82.34 393.95 83.84 393.61 85.31H391.73H391.72ZM387.09 77.81H381.9V72.83H387.09V77.81ZM369.38 109.03V104.23H374.57V109.03H369.38ZM385.66 96.25H388.76C387.8 97.64 386.77 98.96 385.66 100.22V96.25ZM345.66 52.79H340.48V47.81H345.66V52.79V52.79ZM337.48 52.79H332.29V47.81H337.48V52.79V52.79ZM323.81 87.74H329.3V92.69H323.81V87.74ZM340.48 92.69V87.74H345.66V92.69H340.48ZM337.48 92.69H332.29V87.74H337.48V92.69ZM340.4 84.74V79.76H345.58V84.74H340.4ZM337.4 84.74H332.21V79.76H337.4V84.74ZM329.21 79.76V84.74H323.72V79.76H329.21ZM344.37 95.71H349.86V100.69H344.37V95.71ZM328 76.71V71.73H333.18V76.71H328ZM341.37 76.71H336.18V71.73H341.37V76.71ZM336.18 60.78V55.8H341.37V60.78H336.18V60.78ZM333.18 60.78H328V55.8H333.18V60.78V60.78ZM332.29 63.78H337.48V68.73H332.29V63.78V63.78ZM340.48 63.78H345.66V68.73H340.48V63.78V63.78ZM329.29 63.78V68.73H323.8V63.78H329.29V63.78ZM325 71.73V76.71H319.51V71.73H325ZM333.18 95.71V100.69H328V95.71H333.18ZM336.18 95.71H341.37V100.69H336.18V95.71ZM348.66 92.69V87.74H354.06C354.06 87.74 354.12 87.74 354.14 87.74V92.7H348.65L348.66 92.69ZM325 55.81V60.79H319.51V55.81H325V55.81ZM337.48 103.72V108.7H332.29V103.72H337.48ZM340.48 103.72H345.66V108.7H340.48V103.72ZM348.66 108.7V103.72H354.15V108.7H348.66ZM354.06 84.75H348.57V79.77H354.06V84.75ZM349.85 76.72H344.36V71.74H349.85V76.72ZM350.04 68.76C349.97 68.76 349.91 68.74 349.85 68.74H348.65V63.79H349.85C349.85 63.79 349.89 63.79 349.92 63.79H354.14V68.77H350.04V68.76ZM349.85 60.79H344.36V55.81H349.85V60.79ZM348.65 52.8V47.82H354.14V52.8H348.65V52.8ZM323.79 47.82H329.28V52.8H323.79V47.82ZM319.5 99.25V95.73H324.99V100.71H320.76C320.33 100.23 319.91 99.75 319.5 99.26V99.25ZM344.36 111.75H349.85V114.95C347.99 114.82 346.15 114.57 344.36 114.21V111.75V111.75ZM323.79 103.73H329.28V107.99C327.34 106.72 325.5 105.31 323.79 103.75V103.73V103.73ZM341.36 111.75V113.48C339.65 113 337.97 112.43 336.35 111.75H341.36ZM365.23 112.2H368.52C367.44 112.61 366.34 112.98 365.23 113.31V112.2ZM377.56 104.24H381.66C380.36 105.39 378.99 106.46 377.56 107.44V104.24Z" fill="#38237C"/>
        <path d="M229.33 31.6399C253.06 33.9199 270.47 54.8299 268.21 78.3399C267.52 85.4999 265.08 92.0699 261.35 97.6899C261.89 96.9799 262.42 96.2699 262.92 95.5299C263.69 94.3899 264.4 93.2199 265.06 92.0099C267.04 88.3799 268.5 84.4299 269.35 80.2599C269.49 79.5699 269.62 78.8599 269.73 78.1599C270.05 76.0399 270.22 73.8699 270.22 71.6599C270.22 58.4099 264.16 46.5499 254.66 38.7099C254.13 38.2699 253.59 37.8499 253.05 37.4399C245.92 32.1099 237.08 28.9399 227.51 28.9399C217.94 28.9399 209.1 32.0999 201.97 37.4399C201.42 37.8499 200.88 38.2699 200.36 38.7099C199.15 39.7099 198.01 40.7699 196.92 41.8899C205.53 34.4799 217.07 30.4499 229.33 31.6299V31.6399Z" fill="white"/>
        <path d="M213.74 63.4401C216.78 59.7201 221.29 57.5901 226.1 57.5901C226.62 57.5901 227.14 57.6201 227.66 57.6701C236.42 58.5101 242.87 66.2501 242.04 74.9301C241.79 77.5101 240.9 80.0001 239.46 82.1501C239.38 82.2701 239.35 82.4201 239.35 82.5601C241.99 79.6901 243.61 75.8801 243.61 71.6701C243.61 62.7801 236.4 55.5801 227.52 55.5801C221.62 55.5801 216.47 58.7701 213.67 63.5001C213.69 63.4801 213.72 63.4701 213.74 63.4401V63.4401Z" fill="white"/>
        <path d="M227.51 36.1699C225.06 36.1699 222.67 36.4199 220.36 36.8899C204.2 40.2099 192.01 54.5399 192.01 71.6599C192.01 88.7799 204.2 103.12 220.36 106.43C222.67 106.9 225.06 107.15 227.51 107.15C229.96 107.15 232.35 106.9 234.66 106.43C250.82 103.11 263.01 88.7799 263.01 71.6599C263.01 54.5399 250.82 40.1999 234.66 36.8899C232.35 36.4199 229.96 36.1699 227.51 36.1699V36.1699ZM201.89 91.6299C198.36 87.1099 196 81.6399 195.26 75.6699H207.81C208.33 78.2399 209.35 80.6399 210.76 82.7599L201.89 91.6299ZM257.09 67.6699H247.2C246.68 65.0999 245.66 62.6999 244.25 60.5799L250.7 54.1299L253.12 51.7099C256.65 56.2299 259.01 61.6999 259.75 67.6699H257.09ZM211.41 71.6699C211.41 68.6799 212.24 65.8999 213.66 63.4999C216.46 58.7599 221.61 55.5799 227.51 55.5799C236.4 55.5799 243.6 62.7899 243.6 71.6699C243.6 75.8699 241.97 79.6899 239.34 82.5599C236.4 85.7499 232.19 87.7699 227.51 87.7699C218.62 87.7699 211.42 80.5599 211.42 71.6799L211.41 71.6699ZM247.46 46.0499L244.99 48.5199L238.59 54.9199C236.47 53.5099 234.08 52.4899 231.5 51.9699V39.4199C237.47 40.1599 242.94 42.5199 247.46 46.0499V46.0499ZM223.5 41.7399V51.9699C220.92 52.4899 218.53 53.5099 216.41 54.9199L207.89 46.3999L207.53 46.0399C212.05 42.5099 217.52 40.1499 223.49 39.4099V41.7299L223.5 41.7399ZM201.88 51.6999L210.75 60.5699C209.34 62.6899 208.32 65.0799 207.8 67.6599H195.25C195.99 61.6899 198.35 56.2199 201.88 51.6999ZM247.19 75.6599H259.74C259 81.6299 256.64 87.0999 253.11 91.6199L252.84 91.3499L244.24 82.7499C245.65 80.6299 246.67 78.2399 247.19 75.6599ZM207.54 97.2799L216.41 88.4099C218.53 89.8199 220.92 90.8399 223.5 91.3599V103.91C217.53 103.17 212.06 100.81 207.54 97.2799ZM231.5 103.91V91.3599C234.08 90.8399 236.47 89.8199 238.59 88.4099L247.46 97.2799C242.94 100.81 237.47 103.17 231.5 103.91Z" fill="#38237C"/>
        <path d="M425.55 6.60986C424.02 6.60986 422.78 7.84986 422.78 9.37986C422.78 10.9099 424.02 12.1499 425.55 12.1499C427.08 12.1499 428.32 10.9099 428.32 9.37986C428.32 7.84986 427.08 6.60986 425.55 6.60986V6.60986Z" fill="#77A4F2"/>
        <path d="M432.92 93.2197H427.01V98.4997H432.92V93.2197Z" fill="#8D86EB"/>
        <path d="M459.19 93.2197H453.28V98.4997H459.19V93.2197Z" fill="#EBF0FF"/>
        <path d="M441.6 93.2197H435.92V98.4997H441.6V93.2197Z" fill="#A5A5F9"/>
        <path d="M450.28 93.2197H444.6V98.4997H450.28V93.2197Z" fill="#A5A5F9"/>
        <path d="M437.09 84.9097H431.18V90.1897H437.09V84.9097Z" fill="#8D86EB"/>
        <path d="M463.36 84.9097H457.45V90.1897H463.36V84.9097Z" fill="#EBF0FF"/>
        <path d="M445.77 84.9097H440.09V90.1897H445.77V84.9097Z" fill="#A5A5F9"/>
        <path d="M454.45 84.9097H448.77V90.1897H454.45V84.9097Z" fill="#A5A5F9"/>
        <path d="M432.92 68.0396H427.01V73.3195H432.92V68.0396Z" fill="#8D86EB"/>
        <path d="M459.19 68.0396H453.28V73.3195H459.19V68.0396Z" fill="#EBF0FF"/>
        <path d="M441.6 68.0396H435.92V73.3195H441.6V68.0396Z" fill="#A5A5F9"/>
        <path d="M450.28 68.0396H444.6V73.3195H450.28V68.0396Z" fill="#A5A5F9"/>
        <path d="M437.09 76.3496H431.18V81.6296H437.09V76.3496Z" fill="#8D86EB"/>
        <path d="M463.36 76.3496H457.45V81.6296H463.36V76.3496Z" fill="#EBF0FF"/>
        <path d="M454.45 76.3496H448.77V81.6296H454.45V76.3496Z" fill="#A5A5F9"/>
        <path d="M445.77 76.3496H440.09V81.6296H445.77V76.3496Z" fill="#A5A5F9"/>
        <path d="M437.09 101.53H431.18V106.75H437.09V101.53Z" fill="#8D86EB"/>
        <path d="M463.36 101.53H457.45V106.75H463.36V101.53Z" fill="#EBF0FF"/>
        <path d="M445.77 101.53H440.09V106.75H445.77V101.53Z" fill="#A5A5F9"/>
        <path d="M454.45 101.53H448.77V106.75H454.45V101.53Z" fill="#A5A5F9"/>
        <path d="M437.18 118.3H431.27V123.58H437.18V118.3Z" fill="#8D86EB"/>
        <path d="M463.45 118.3H457.54V123.58H463.45V118.3Z" fill="#EBF0FF"/>
        <path d="M454.54 118.3H448.86V123.58H454.54V118.3Z" fill="#A5A5F9"/>
        <path d="M445.86 118.3H440.18V123.58H445.86V118.3Z" fill="#A5A5F9"/>
        <path d="M437.09 109.75H431.18V115.03H437.09V109.75Z" fill="#8D86EB"/>
        <path d="M463.36 109.75H457.45V115.03H463.36V109.75Z" fill="#EBF0FF"/>
        <path d="M445.77 109.75H440.09V115.03H445.77V109.75Z" fill="#A5A5F9"/>
        <path d="M454.45 109.75H448.77V115.03H454.45V109.75Z" fill="#A5A5F9"/>
        <path d="M466.36 115.02V109.74C466.36 109.2 466.21 108.71 465.96 108.27C466.21 107.83 466.36 107.34 466.36 106.8V101.52C466.36 99.8598 465.02 98.5198 463.36 98.5198H462.18C462.18 98.5198 462.18 98.4998 462.18 98.4898V93.2098C462.18 93.2098 462.18 93.1898 462.18 93.1798H463.36C465.02 93.1798 466.36 91.8398 466.36 90.1798V84.8998C466.36 84.2898 466.18 83.7298 465.87 83.2598C466.18 82.7898 466.36 82.2298 466.36 81.6198V76.3398C466.36 74.6798 465.02 73.3398 463.36 73.3398H462.18C462.18 73.3398 462.18 73.3198 462.18 73.3098V68.0298C462.18 66.3698 460.84 65.0298 459.18 65.0298H427C425.34 65.0298 424 66.3698 424 68.0298V73.3098C424 74.9698 425.34 76.3098 427 76.3098H428.18C428.18 76.3098 428.18 76.3298 428.18 76.3398V81.6198C428.18 82.2298 428.36 82.7898 428.67 83.2598C428.36 83.7298 428.18 84.2898 428.18 84.8998V90.1798C428.18 90.1798 428.18 90.1998 428.18 90.2098H427C425.34 90.2098 424 91.5498 424 93.2098V98.4898C424 100.15 425.34 101.49 427 101.49H428.18C428.18 101.49 428.18 101.51 428.18 101.52V106.8C428.18 107.34 428.33 107.83 428.58 108.27C428.33 108.71 428.18 109.2 428.18 109.74V115.02C428.18 115.66 428.38 116.25 428.72 116.73C428.44 117.19 428.27 117.72 428.27 118.3V123.58C428.27 123.58 428.27 123.6 428.27 123.61H426.72C425.06 123.61 423.72 124.95 423.72 126.61V131.89C423.72 133.55 425.06 134.89 426.72 134.89H428.27C428.27 134.89 428.27 134.91 428.27 134.92V140.2C428.27 140.2 428.27 140.22 428.27 140.23H426.72C425.06 140.23 423.72 141.57 423.72 143.23V148.51C423.72 150.17 425.06 151.51 426.72 151.51H458.9C460.56 151.51 461.9 150.17 461.9 148.51V143.23C461.9 143.23 461.9 143.21 461.9 143.2H463.45C465.11 143.2 466.45 141.86 466.45 140.2V134.92C466.45 133.26 465.11 131.92 463.45 131.92H461.9C461.9 131.92 461.9 131.9 461.9 131.89V126.61C461.9 126.61 461.9 126.59 461.9 126.58H463.45C465.11 126.58 466.45 125.24 466.45 123.58V118.3C466.45 117.66 466.25 117.07 465.91 116.59C466.19 116.13 466.36 115.6 466.36 115.02ZM463.45 123.58H457.54V118.3H463.45V123.58ZM463.45 140.2H457.54V134.92H463.45V140.2ZM426.72 143.23H432.63V148.51H426.72V143.23ZM426.72 126.61H432.63V131.89H426.72V126.61ZM427 93.2198H432.91V98.4998H427V93.2198ZM435.63 143.23H441.31V148.51H435.63V143.23ZM444.31 143.23H449.99V148.51H444.31V143.23ZM448.86 134.92H454.54V140.2H448.86V134.92ZM445.86 140.2H440.18V134.92H445.86V140.2ZM444.31 131.89V126.61H449.99V131.89H444.31ZM441.31 131.89H435.63V126.61H441.31V131.89ZM431.18 109.74H437.09V115.02H431.18V109.74ZM448.77 81.6298V76.3498H454.45V81.6298H448.77ZM445.77 76.3498V81.6298H440.09V76.3498H445.77ZM454.45 84.9098V90.1898H448.77V84.9098H454.45ZM445.77 84.9098V90.1898H440.09V84.9098H445.77ZM450.27 73.3198H444.59V68.0398H450.27V73.3198ZM441.59 73.3198H435.91V68.0398H441.59V73.3198ZM437.09 81.6298H431.18V76.3498H437.09V81.6298ZM441.59 98.4998H435.91V93.2198H441.59V98.4998ZM444.59 93.2198H450.27V98.4998H444.59V93.2198ZM445.86 118.3V123.58H440.18V118.3H445.86ZM448.86 118.3H454.54V123.58H448.86V118.3ZM448.77 106.74V101.52H454.45V106.74H448.77ZM445.77 101.52V106.74H440.09V101.52H445.77ZM454.45 109.74V115.02H448.77V109.74H454.45ZM445.77 109.74V115.02H440.09V109.74H445.77ZM431.27 118.3H437.18V123.58H431.27V118.3ZM463.36 115.02H457.45V109.74H463.36V115.02ZM463.36 106.74H457.45V101.52H463.36V106.74ZM459.18 98.4898H453.27V93.2098H459.18V98.4898ZM457.45 90.1798V84.8998H463.36V90.1798H457.45ZM463.36 81.6198H457.45V76.3398H463.36V81.6198ZM459.18 73.3098H453.27V68.0298H459.18V73.3098ZM427 68.0298H432.91V73.3098H427V68.0298ZM431.18 84.8998H437.09V90.1798H431.18V84.8998ZM431.18 101.52H437.09V106.74H431.18V101.52ZM431.27 134.91H437.18V140.19H431.27V134.91ZM458.9 148.5H452.99V143.22H458.9V148.5ZM458.9 131.88H452.99V126.6H458.9V131.88Z" fill="#38237C"/>
        <path d="M437.18 134.92H431.27V140.2H437.18V134.92Z" fill="#8D86EB"/>
        <path d="M463.45 134.92H457.54V140.2H463.45V134.92Z" fill="#EBF0FF"/>
        <path d="M445.86 134.92H440.18V140.2H445.86V134.92Z" fill="#A5A5F9"/>
        <path d="M454.54 134.92H448.86V140.2H454.54V134.92Z" fill="#A5A5F9"/>
        <path d="M432.63 126.61H426.72V131.89H432.63V126.61Z" fill="#8D86EB"/>
        <path d="M458.9 126.61H452.99V131.89H458.9V126.61Z" fill="#EBF0FF"/>
        <path d="M449.99 126.61H444.31V131.89H449.99V126.61Z" fill="#A5A5F9"/>
        <path d="M441.31 126.61H435.63V131.89H441.31V126.61Z" fill="#A5A5F9"/>
        <path d="M432.63 143.23H426.72V148.51H432.63V143.23Z" fill="#8D86EB"/>
        <path d="M458.9 143.23H452.99V148.51H458.9V143.23Z" fill="#EBF0FF"/>
        <path d="M449.99 143.23H444.31V148.51H449.99V143.23Z" fill="#A5A5F9"/>
        <path d="M441.31 143.23H435.63V148.51H441.31V143.23Z" fill="#A5A5F9"/>
        <path d="M479.12 143.33H477.84C477.84 143.33 477.77 143.33 477.74 143.32H473.21V148.6H479.12V143.33Z" fill="#8D86EB"/>
        <path d="M505.39 143.33H499.48V148.6H505.39V143.33Z" fill="#EBF0FF"/>
        <path d="M487.8 143.33H482.12V148.6H487.8V143.33Z" fill="#A5A5F9"/>
        <path d="M496.48 143.33H490.8V148.6H496.48V143.33Z" fill="#A5A5F9"/>
        <path d="M483.76 135.05H477.85V140.33H483.76V135.05Z" fill="#8D86EB"/>
        <path d="M510.03 135.05H504.12V140.33H510.03V135.05Z" fill="#EBF0FF"/>
        <path d="M501.12 135.05H495.44V140.33H501.12V135.05Z" fill="#A5A5F9"/>
        <path d="M492.44 135.05H486.76V140.33H492.44V135.05Z" fill="#A5A5F9"/>
        <path d="M510.02 132.05H508.28C508.28 132.05 508.28 132 508.28 131.98V126.7C508.28 126.14 508.12 125.63 507.86 125.19C508.12 124.74 508.28 124.23 508.28 123.68V118.4C508.28 116.74 506.94 115.4 505.28 115.4H473.1C471.44 115.4 470.1 116.74 470.1 118.4V123.68C470.1 124.24 470.26 124.75 470.52 125.19C470.26 125.64 470.1 126.15 470.1 126.7V131.98C470.1 133.64 471.44 134.98 473.1 134.98H474.84C474.84 134.98 474.84 135.03 474.84 135.05V140.32H473.21C471.55 140.32 470.21 141.66 470.21 143.32V148.6C470.21 150.26 471.55 151.6 473.21 151.6H505.39C507.05 151.6 508.39 150.26 508.39 148.6V143.33H510.02C511.68 143.33 513.02 141.99 513.02 140.33V135.05C513.02 133.39 511.68 132.05 510.02 132.05ZM477.84 135.05H483.75V140.33H477.84V135.05ZM482.12 143.33H487.8V148.6H482.12V143.33ZM490.8 143.33H496.48V148.6H490.8V143.33ZM495.43 140.33V135.05H501.11V140.33H495.43ZM496.38 126.7V131.98H490.7V126.7H496.38ZM487.7 126.7V131.98H482.02V126.7H487.7ZM486.75 135.05H492.43V140.33H486.75V135.05ZM499.38 126.7H505.29V131.98H499.38V126.7ZM496.38 123.67H490.7V118.39H496.38V123.67ZM487.7 123.67H482.02V118.39H487.7V123.67ZM479.02 123.67H473.11V118.39H479.02V123.67ZM505.29 123.67H499.38V118.39H505.29V123.67ZM473.11 126.7H479.02V131.98H473.11V126.7ZM473.2 143.32H477.73C477.73 143.32 477.8 143.33 477.83 143.33H479.11V148.6H473.2V143.32ZM499.47 148.6V143.33H505.38V148.6H499.47ZM510.01 140.33H504.1V135.05H510.01V140.33Z" fill="#38237C"/>
        <path d="M479.03 126.7H473.12V131.98H479.03V126.7Z" fill="#8D86EB"/>
        <path d="M505.3 126.7H499.39V131.98H505.3V126.7Z" fill="#EBF0FF"/>
        <path d="M487.71 126.7H482.03V131.98H487.71V126.7Z" fill="#A5A5F9"/>
        <path d="M496.39 126.7H490.71V131.98H496.39V126.7Z" fill="#A5A5F9"/>
        <path d="M479.03 118.39H473.12V123.67H479.03V118.39Z" fill="#8D86EB"/>
        <path d="M505.3 118.39H499.39V123.67H505.3V118.39Z" fill="#EBF0FF"/>
        <path d="M487.71 118.39H482.03V123.67H487.71V118.39Z" fill="#A5A5F9"/>
        <path d="M496.39 118.39H490.71V123.67H496.39V118.39Z" fill="#A5A5F9"/>
        <defs>
            <linearGradient id="paint0_linear_2673_26464" x1="6.0499" y1="157.35" x2="567.22" y2="157.35" gradientUnits="userSpaceOnUse">
                <stop stop-color="#503EAA"/>
                <stop offset="1" stop-color="#77A4F2"/>
            </linearGradient>
        </defs>
    </svg>
